<svg id="3.2_5" viewBox="0 0 1923 2060.6">
  <rect width="487.4" height="988.5" x="717.2" y="15.2" fill="#f6f6f6"/>
  <polygon fill="#dff2fd" data-id-flat="1880" class="hovered_flat_at_plan flat_plan_p" points="5.1 137.6 717.2 137.6 717.2 1003.7 1204.6 1003.7 1204.6 137.6 1917.9 137.6 1917.9 2055.5 5.1 2055.5 5.1 137.6"/>
  <rect width="330.9" height="44.9" x="169.7" y="262.4" fill="#003d58"/>
  <rect width="45.3" height="359.6" x="169.7" y="307.2" fill="#003d58"/>
  <rect width="37.7" height="1041.3" x="679.5" fill="#003d58"/>
  <rect width="29.2" height="37.6" x="717.2" y="1003.7" fill="#003d58"/>
  <rect width="358.4" height="37.6" x="846.2" y="1003.7" fill="#003d58"/>
  <rect width="38.1" height="966.8" x="1204.6" y="74.5" fill="#003d58"/>
  <rect width="59.2" height="44.9" x="620.3" y="262.4" fill="#003d58"/>
  <rect width="45.3" height="404.5" x="169.7" y="1026.5" fill="#003d58"/>
  <rect width="323.3" height="44.9" x="409.6" y="1745.8" fill="#003d58"/>
  <rect width="243.7" height="44.9" x="1092.5" y="1745.8" fill="#003d58"/>
  <rect width="177.3" height="44.9" x="1576.1" y="1745.8" fill="#003d58"/>
  <rect width="45.3" height="24.1" x="1708.1" y="1721.7" fill="#003d58"/>
  <rect width="45.3" height="376.1" x="1708.1" y="1105.6" fill="#003d58"/>
  <rect width="45.3" height="244.1" x="1708.1" y="501.9" fill="#003d58"/>
  <rect width="270.8" height="44.9" x="1242.7" y="262.4" fill="#003d58"/>
  <rect width="354.1" height="11.8" x="1353.9" y="702.8" fill="#003d58"/>
  <rect width="12.3" height="304.6" x="1362.4" y="714.7" fill="#003d58"/>
  <rect width="11.4" height="11.8" x="1242.7" y="702.8" fill="#003d58"/>
  <rect width="12.3" height="144.3" x="1362.4" y="1119.2" fill="#003d58"/>
  <rect width="333.4" height="12.3" x="1374.7" y="1185.2" fill="#003d58"/>
  <rect width="12.3" height="66.4" x="1362.4" y="1343.4" fill="#003d58"/>
  <rect width="354.1" height="12.3" x="1353.9" y="1409.8" fill="#003d58"/>
  <rect width="261.5" height="11.4" x="850" y="1238.5" fill="#003d58"/>
  <rect width="28.6" height="147.2" x="910.1" y="1249.9" fill="#003d58"/>
  <rect width="80" height="39.8" x="850" y="1369.2" fill="#003d58"/>
  <rect width="63.9" height="11.8" x="930" y="1397.1" fill="#003d58"/>
  <rect width="80" height="39.8" x="993.9" y="1369.2" fill="#003d58"/>
  <rect width="30" height="11.8" x="820" y="1397.1" fill="#003d58"/>
  <rect width="137.5" height="11.8" x="1073.8" y="1397.1" fill="#003d58"/>
  <rect width="14.8" height="507.3" x="1211.3" y="1238.5" fill="#003d58"/>
  <rect width="10.2" height="11.8" x="1201.2" y="1238.5" fill="#003d58"/>
  <rect width="11.8" height="348.6" x="682.5" y="1397.1" fill="#003d58"/>
  <rect width="17.3" height="25" x="694.3" y="1508.4" fill="#003d58"/>
  <rect width="25.8" height="11.8" x="694.3" y="1397.1" fill="#003d58"/>
  <rect width="27.9" height="11.8" x="1226.2" y="1410.3" fill="#003d58"/>
  <rect width="354.6" height="14.8" x="214.9" y="1026.5" fill="#003d58"/>
  <rect width="10.2" height="14.8" x="669.4" y="1026.5" fill="#003d58"/>
  <rect width="59.7" height="11.8" x="214.9" y="647" fill="#003d58"/>
  <rect width="50.8" height="11.8" x="364.7" y="647" fill="#003d58"/>
  <rect width="12.3" height="339.8" x="403.2" y="307.2" fill="#003d58"/>
  <rect width="80" height="39.8" x="599.5" y="478.3" fill="#003d58"/>
  <rect width="80" height="39.8" x="1242.7" y="411.3" fill="#003d58"/>
  <g fill="none" stroke="#000" stroke-width=".3" stroke-miterlimit="10">
    <rect width="5" height="95.3" x="1075" y="35.6"/>
    <rect width="4" height="11.5" x="1080" y="131"/>
    <path d="M984.7 131a95.3 95.3 0 0 1 95.4-95.4"/>
  </g>
  <g fill="none" stroke="#000" stroke-width=".3" stroke-miterlimit="10">
    <rect width="108" height="5" x="181.4" y="670.8"/>
    <rect width="11.5" height="4" x="169.9" y="666.9"/>
    <path d="M181.4 778.8a108 108 0 0 0 108-108"/>
  </g>
  <g fill="none" stroke="#000" stroke-width=".3" stroke-miterlimit="10">
    <rect width="5" height="108" x="301" y="1671.1"/>
    <rect width="4" height="11.5" x="297" y="1779.1"/>
    <path d="M409 1779a108 108 0 0 0-108-108"/>
  </g>
  <g fill="none" stroke="#000" stroke-width=".3" stroke-miterlimit="10">
    <polygon points="1373.9 1272.5 1373.9 1267.4 1450.4 1267.4 1450.4 1272.4 1373.9 1272.5"/>
    <rect width="11.5" height="4" x="1362.4" y="1263.4"/>
    <path d="M1374 1343.7a76.3 76.3 0 0 0 76.2-76.3"/>
  </g>
  <rect width="5" height="108" x="1340.1" y="1671.1" fill="#655144"/>
  <rect width="4" height="11.5" x="1336.2" y="1779.1" fill="#655144"/>
  <path fill="none" stroke="#1e1f1d" stroke-miterlimit="10" d="M1448.2 1779a108 108 0 0 0-108-108"/>
  <g fill="none" stroke="#000" stroke-width=".3" stroke-miterlimit="10">
    <rect width="5" height="108" x="1617" y="273.9"/>
    <rect width="4" height="11.5" x="1622" y="262.4"/>
    <path d="M1514 273.8a108 108 0 0 0 108 108"/>
  </g>
  <g fill="none" stroke="#000" stroke-width=".3" stroke-miterlimit="10">
    <rect width="5" height="108" x="1083.4" y="1671.1"/>
    <rect width="4" height="11.5" x="1088.5" y="1779.1"/>
    <path d="M980.5 1779a108 108 0 0 1 108-108"/>
  </g>
  <g fill="none" stroke="#000" stroke-width=".3" stroke-miterlimit="10">
    <polygon points="1263.1 1421.8 1258.1 1421.8 1258.1 1517.7 1263.1 1517.7 1263.1 1421.8"/>
    <polygon points="1258.1 1421.8 1258.1 1410.3 1254.1 1410.3 1254.1 1421.8 1258.1 1421.8"/>
    <path d="M1354.4 1421.8a96.3 96.3 0 0 1-96.3 96.3"/>
  </g>
  <g fill="none" stroke="#000" stroke-width=".3" stroke-miterlimit="10">
    <polygon points="811 1397.5 816 1397.5 816 1301.6 811 1301.6 811 1397.5"/>
    <polygon points="816 1397.5 816 1409 820 1409 820 1397.5 816 1397.5"/>
    <path d="M719.7 1397.4A96.3 96.3 0 0 1 816 1301"/>
  </g>
  <g fill="none" stroke="#000" stroke-width=".3" stroke-miterlimit="10">
    <polygon points="1192.2 1238.8 1197.2 1238.8 1197.2 1142.9 1192.2 1142.9 1192.2 1238.8"/>
    <polygon points="1197.2 1238.8 1197.2 1250.3 1201.2 1250.3 1201.2 1238.8 1197.2 1238.8"/>
    <path d="M1101 1238.8a96.3 96.3 0 0 1 96.3-96.3"/>
  </g>
  <g fill="none" stroke="#000" stroke-width=".3" stroke-miterlimit="10">
    <polygon points="660.3 1029.8 665.4 1029.8 665.4 933.9 660.3 933.9 660.3 1029.8"/>
    <polygon points="665.4 1029.8 665.4 1041.3 669.3 1041.3 669.3 1029.8 665.4 1029.8"/>
    <path d="M569 1029.8a96.3 96.3 0 0 1 96.4-96.3"/>
  </g>
  <g fill="none" stroke="#000" stroke-width=".3" stroke-miterlimit="10">
    <polygon points="755.4 1003.9 750.3 1003.9 750.3 908 755.4 908 755.4 1003.9"/>
    <polygon points="750.3 1003.9 750.3 1015.4 746.4 1015.4 746.4 1003.9 750.3 1003.9"/>
    <path d="M846.7 1003.8a96.3 96.3 0 0 0-96.3-96.3"/>
  </g>
  <g fill="none" stroke="#000" stroke-width=".3" stroke-miterlimit="10">
    <polygon points="1263.1 703.2 1258.1 703.2 1258.1 607.3 1263.1 607.3 1263.1 703.2"/>
    <polygon points="1258.1 703.2 1258.1 714.7 1254.1 714.7 1254.1 703.2 1258.1 703.2"/>
    <path d="M1354.4 703A96.3 96.3 0 0 0 1258 607"/>
  </g>
  <g fill="none" stroke="#000" stroke-width=".3" stroke-miterlimit="10">
    <polygon points="1373.9 1110.1 1373.9 1115.2 1469.8 1115.2 1469.8 1110.2 1373.9 1110.1"/>
    <polygon points="1373.9 1115.2 1362.4 1115.2 1362.4 1119.2 1373.9 1119.2 1373.9 1115.2"/>
    <path d="M1374 1018.8a96.3 96.3 0 0 1 96.2 96.3"/>
  </g>
  <g fill="none" stroke="#000" stroke-width=".3" stroke-miterlimit="10">
    <rect width="108" height="5" x="1633.8" y="750"/>
    <polygon points="1741.8 750 1753.3 750 1753.3 746 1741.8 746 1741.8 750"/>
    <path d="M1742 858a108 108 0 0 1-108-108"/>
  </g>
  <g fill="#fff" stroke="#000" stroke-width=".3" stroke-miterlimit="10">
    <rect width="127.3" height="16.1" x="1626" y="262.4"/>
    <rect width="127.3" height="4.8" x="1626" y="266.4"/>
  </g>
  <g fill="#fff" stroke="#000" stroke-width=".3" stroke-miterlimit="10">
    <rect width="16.1" height="223.4" x="1737.3" y="278.5"/>
    <rect width="4.8" height="223.4" x="1744.5" y="278.5"/>
  </g>
  <g fill="#fff" stroke="#000" stroke-width=".3" stroke-miterlimit="10">
    <rect width="16.1" height="247.5" x="1737.3" y="858.1"/>
    <rect width="4.8" height="247.5" x="1744.5" y="858.1"/>
  </g>
  <g fill="#fff" stroke="#000" stroke-width=".3" stroke-miterlimit="10">
    <rect width="247.5" height="16.1" x="732.8" y="1774.5"/>
    <rect width="247.5" height="4.8" x="732.8" y="1781.8"/>
  </g>
  <g fill="#fff" stroke="#000" stroke-width=".3" stroke-miterlimit="10">
    <rect width="127.4" height="16.1" x="1448.7" y="1774.5"/>
    <rect width="127.4" height="4.8" x="1448.7" y="1781.8"/>
  </g>
  <g fill="#fff" stroke="#000" stroke-width=".3" stroke-miterlimit="10">
    <rect width="127.4" height="16.1" x="169.7" y="1774.5"/>
    <rect width="127.4" height="4.8" x="169.7" y="1781.8"/>
  </g>
  <g fill="#fff" stroke="#000" stroke-width=".3" stroke-miterlimit="10">
    <rect width="16.1" height="343.6" x="169.7" y="1431"/>
    <rect width="4.8" height="343.6" x="173.6" y="1431"/>
  </g>
  <g fill="#fff" stroke="#000" stroke-width=".3" stroke-miterlimit="10">
    <rect width="16.1" height="247.1" x="169.7" y="779.4"/>
    <rect width="4.8" height="247.1" x="173.6" y="779.4"/>
  </g>
  <g fill="#fff" stroke="#000" stroke-width=".3" stroke-miterlimit="10">
    <rect width="153.9" height="16.1" x="830.8" y="126.4"/>
    <rect width="153.9" height="4.8" x="830.8" y="133.7"/>
  </g>
  <g fill="#fff" stroke="#000" stroke-width=".3" stroke-miterlimit="10">
    <rect width="119.7" height="31.7" x="500.5" y="275.5"/>
    <rect width="119.7" height="8.1" x="500.5" y="262.4"/>
    <rect width="119.7" height="5.1" x="500.5" y="270.4"/>
    <rect width="119.7" height="2.5" x="500.5" y="281.7"/>
  </g>
  <g fill="#fff" stroke="#000" stroke-width=".3" stroke-miterlimit="10">
    <rect width="32" height="239.9" x="1708.1" y="1481.8"/>
    <rect width="8.1" height="239.9" x="1745.2" y="1481.8"/>
    <rect width="5.1" height="239.9" x="1740.1" y="1481.8"/>
    <rect width="2.6" height="239.9" x="1731.3" y="1481.8"/>
  </g>
  <rect width="661.7" height="5.1" y="132.5" fill="#868686"/>
  <rect width="5.1" height="1923" y="137.6" fill="#868686"/>
  <rect width="17.8" height="25" x="661.7" y="127.4" fill="#003d58"/>
  <rect width="1917.9" height="5.1" x="5.1" y="2055.5" fill="#868686"/>
  <rect width="5.1" height="1923" x="1917.9" y="132.5" fill="#868686"/>
  <rect width="656.7" height="5.1" x="1261.3" y="132.5" fill="#868686"/>
  <rect width="18.6" height="25" x="1242.7" y="127.4" fill="#003d58"/>
  <g fill="none" stroke="#000" stroke-width=".3" stroke-miterlimit="10">
    <rect width="119.8" height="30.3" x="717.8" y="253.6"/>
    <rect width="119.8" height="30.3" x="717.8" y="283.9"/>
    <rect width="119.8" height="30.3" x="717.8" y="314.2"/>
    <rect width="119.8" height="30.3" x="717.8" y="344.5"/>
    <rect width="119.8" height="30.3" x="717.8" y="374.8"/>
    <rect width="119.8" height="30.3" x="717.8" y="405.1"/>
    <rect width="119.8" height="30.3" x="717.8" y="435.4"/>
    <rect width="119.8" height="30.3" x="717.8" y="465.7"/>
    <rect width="119.8" height="30.3" x="717.8" y="496"/>
    <rect width="119.8" height="30.3" x="717.8" y="526.3"/>
    <rect width="119.8" height="30.3" x="717.8" y="556.6"/>
  </g>
  <g fill="none" stroke="#000" stroke-width=".3" stroke-miterlimit="10">
    <rect width="119.8" height="30.3" x="1083" y="253.4"/>
    <rect width="119.8" height="30.3" x="1083" y="283.7"/>
    <rect width="119.8" height="30.3" x="1083" y="314"/>
    <rect width="119.8" height="30.3" x="1083" y="344.3"/>
    <rect width="119.8" height="30.3" x="1083" y="374.6"/>
    <rect width="119.8" height="30.3" x="1083" y="404.9"/>
    <rect width="119.8" height="30.3" x="1083" y="435.2"/>
    <rect width="119.8" height="30.3" x="1083" y="465.5"/>
    <rect width="119.8" height="30.3" x="1083" y="495.8"/>
    <rect width="119.8" height="30.3" x="1083" y="526.1"/>
    <rect width="119.8" height="30.3" x="1083" y="556.4"/>
  </g>
  <rect width="179.4" height="269.1" x="872.6" y="278.5" fill="none" stroke="#000" stroke-width=".3" stroke-miterlimit="10"/>
  <rect width="165.4" height="255" x="879.6" y="285.6" fill="none" stroke="#000" stroke-width=".3" stroke-miterlimit="10"/>
  <g fill="none" stroke="#000" stroke-width=".3" stroke-miterlimit="10">
    <rect width="5" height="85.6" x="1049.2" y="728.3"/>
    <rect width="4" height="11.4" x="1054.2" y="813.9"/>
    <path d="M1054.2 728.2a91.8 91.8 0 0 0-91.8 91.8"/>
  </g>
  <g fill="none" stroke="#000" stroke-width=".3" stroke-miterlimit="10">
    <rect width="5" height="85.6" x="870.7" y="728.3"/>
    <rect width="4" height="11.4" x="866.7" y="813.9"/>
    <path d="M870.7 728.2a91.8 91.8 0 0 1 91.8 91.8"/>
  </g>
  <rect width="69.3" height="15.2" x="717.2" fill="#003d58"/>
  <rect width="68.7" height="15.2" x="1137.1" fill="#003d58"/>
  <rect width="113.6" height="43.9" x="717.2" y="118.3" fill="#003d58"/>
  <rect width="120.6" height="43.9" x="1084" y="118.3" fill="#003d58"/>
  <rect width="76.8" height="24.6" x="847.7" y="547.7" fill="#003d58"/>
  <rect width="24.9" height="294" x="847.7" y="253.6" fill="#003d58"/>
  <rect width="204.3" height="24.9" x="872.6" y="253.6" fill="#003d58"/>
  <rect width="24.9" height="293.7" x="1052" y="278.5" fill="#003d58"/>
  <rect width="30.8" height="24.6" x="1021.1" y="547.7" fill="#003d58"/>
  <rect width="38.3" height="74.5" x="1204.4" fill="#003d58"/>
  <rect width="148.9" height="11.4" x="717.8" y="814" fill="#02475d"/>
  <rect width="147.6" height="11.4" x="1058.1" y="814" fill="#02475d"/>
  <rect width="351.3" height="6.8" x="786.5" y="8.4" fill="#9e9d9c"/>
</svg>
