<svg viewBox="0 0 3024.1 2151.7">
  <polygon data-id-flat="2063" class="hovered_flat_at_plan flat_plan_3" fill="#dff2fd" points="714.9 995.5 714.9 146 376.2 146 331.4 146 331.4 116.4 15.4 116.4 15.4 251.5 330.9 251.5 330.9 296.3 45 296.3 45 1951.7 45.4 1951.7 45.4 2086.4 488.8 2086.4 488.8 1951.7 496 1951.7 496 1359.3 496 1191.6 753.1 1191.6 753.1 995.5 714.9 995.5"/>
  <polygon data-id-flat="2066" class="hovered_flat_at_plan flat_plan_1" fill="#e1efe3" points="1981.5 66.4 1580.4 66.4 1580.4 146.4 1279 146.4 1279 738.4 1279 798.3 1279 974.3 1593.2 974.3 1606.4 974.3 1606.4 1011.6 1707.1 1011.6 1707.1 974.3 1981.5 974.3 1981.5 66.4"/>
  <path data-id-flat="2067" class="hovered_flat_at_plan flat_plan_2" fill="#dddaee" d="M2687 146h-290V66.3h-400.2v907h278v38.2h90.4v-38h57.2v108.7h557V146H2687z"/>
  <polygon data-id-flat="2065" class="hovered_flat_at_plan flat_plan_1" fill="#dddaee" points="1970.1 1229.3 1723.2 1229.3 1707.4 1229.3 1707.4 1191.6 1607.2 1191.6 1607.2 1229.3 1270.3 1229.3 1270.3 1413.5 1270.3 1906.4 1351 1906.4 1351 2136.3 1578 2136.3 1578 2056.7 1592.8 2056.7 1970.1 2056.7 1970.1 1229.3"/>
  <polygon data-id-flat="2064" class="hovered_flat_at_plan flat_plan_1" fill="#e1efe3" points="1153.2 1951.7 1153.2 1906.4 1232.8 1906.4 1232.8 1413.5 1232.8 1229.3 922.9 1228.5 922.9 1191.6 781 1191.6 781 1229.3 533.1 1229.3 533.1 2056.7 922.9 2056.7 922.9 2136.3 1153.2 2136.3 1153.2 2151.6 1351 2151.6 1351 1951.7 1153.2 1951.7"/>
  <polyline data-id-flat="2068" class="hovered_flat_at_plan flat_plan_2" fill="#e1efe3" points="2008.2 2056.7 2385.1 2056.7 2385.1 2036.4 2400.4 2036.4 2400.4 2136.3 2924 2136.3 2924 2151.6 3024.1 2151.6 3024.1 1951.7 2979.2 1951.7 2979.2 1301.8 2979.2 1120.4 2422.4 1120.4 2422.4 1229.3 2385.1 1229.3 2367.1 1229.3 2367.1 1191.6 2275 1191.6 2275 1229.3 2150.1 1229.3 2008.2 1229.3"/>
  <rect width="1643.1" height="179.8" x="753.1" y="1011.8" fill="#f6f6f6"/>
  <rect width="487.8" height="996.4" x="753.1" y="15.2" fill="#f6f6f6"/>
  <rect width="350.2" height="7.4" x="822.9" y="7.7" fill="#706f6f"/>
  <rect width="148.6" height="45.3" x="286" y="101.1" fill="#003d58"/>
  <rect width="80.5" height="45.3" x="634.5" y="101.1" fill="#003d58"/>
  <rect width="69.9" height="14.8" x="753.1" y=".3" fill="#003d58"/>
  <rect width="38.1" height="1021" x="714.9" y=".3" fill="#003d58"/>
  <rect width="99.1" height="12.3" x="615.9" y="983.2" fill="#003d58"/>
  <rect width="17.8" height="12.3" x="507.9" y="983.2" fill="#003d58"/>
  <rect width="11.9" height="232.1" x="496" y="763.4" fill="#003d58"/>
  <rect width="207.1" height="11.9" x="507.9" y="838.4" fill="#003d58"/>
  <rect width="11.9" height="142.7" x="496" y="530.5" fill="#003d58"/>
  <rect width="228.7" height="12.3" x="486.3" y="518.2" fill="#003d58"/>
  <rect width="12.3" height="122" x="363.9" y="438.2" fill="#003d58"/>
  <rect width="10.2" height="12.3" x="376.2" y="518.2" fill="#003d58"/>
  <rect width="318.9" height="12.3" x="45" y="438.2" fill="#003d58"/>
  <rect width="44.9" height="341.7" x=".1" y="251.5" fill="#003d58"/>
  <rect width="14.8" height="50" x="45" y="273.5" fill="#003d58"/>
  <rect width="60.1" height="15.3" x="225.8" y="101.1" fill="#003d58"/>
  <rect width="38.1" height="108" x="714.9" y="1121.3" fill="#003d58"/>
  <rect width="218.9" height="37.7" x="496" y="1191.6" fill="#003d58"/>
  <rect width="37.1" height="872.4" x="496" y="1229.3" fill="#003d58"/>
  <rect width="7.2" height="149.9" x="488.8" y="1951.7" fill="#003d58"/>
  <rect width="62.9" height="45.3" x="433.1" y="1906.4" fill="#003d58"/>
  <rect width="143" height="45.3" x=".1" y="1906.4" fill="#003d58"/>
  <rect width="45.3" height="149.9" x=".1" y="1951.7" fill="#003d58"/>
  <rect width="44.9" height="334.1" x=".1" y="1572.3" fill="#003d58"/>
  <rect width="44.9" height="299.8" x=".1" y="1152.6" fill="#003d58"/>
  <rect width="74.6" height="27.1" x="44.8" y="1320.3" fill="#003d58"/>
  <rect width="331.4" height="11.9" x="44.8" y="1347.4" fill="#003d58"/>
  <rect width="12.3" height="221.1" x="363.9" y="1126.3" fill="#003d58"/>
  <rect width="12.3" height="365.9" x="363.9" y="660.5" fill="#003d58"/>
  <rect width="44.9" height="317.6" x=".1" y="714.7" fill="#003d58"/>
  <rect width="14.8" height="50" x="45" y="866.3" fill="#003d58"/>
  <rect width="304.1" height="12.1" x="59.8" y="891.5" fill="#003d58"/>
  <rect width="285.8" height="44.9" x="45" y="251.5" fill="#003d58"/>
  <rect width="44.9" height="5.1" x="286" y="246.4" fill="#003d58"/>
  <rect width="89.6" height="44.9" x="533.1" y="2056.7" fill="#003d58"/>
  <rect width="131.1" height="39.8" x="533.1" y="1436.3" fill="#003d58"/>
  <rect width="105" height="12.5" x="664.1" y="1463.6" fill="#003d58"/>
  <rect width="11.9" height="141.9" x="769.2" y="1394.4" fill="#003d58"/>
  <rect width="11.9" height="75.4" x="769.2" y="1229.3" fill="#003d58"/>
  <rect width="42.8" height="37.7" x="753.1" y="1191.6" fill="#003d58"/>
  <rect width="207.8" height="38.1" x="753.1" y="973.5" fill="#003d58"/>
  <rect width="30.1" height="110.1" x="753.1" y="863.4" fill="#003d58"/>
  <rect width="711" height="37.7" x="896.2" y="1191.6" fill="#003d58"/>
  <rect width="11.9" height="61" x="1581.4" y="1229.3" fill="#003d58"/>
  <rect width="11.9" height="172.3" x="1461.1" y="1229.3" fill="#003d58"/>
  <rect width="182.1" height="11.8" x="1411.1" y="1401.6" fill="#003d58"/>
  <rect width="11.9" height="11" x="1581.4" y="1390.6" fill="#003d58"/>
  <rect width="11.9" height="10.2" x="1581.4" y="1413.5" fill="#003d58"/>
  <rect width="11.9" height="393" x="1580.9" y="1513.4" fill="#003d58"/>
  <rect width="53.8" height="50" x="1539" y="1906.4" fill="#003d58"/>
  <rect width="229.9" height="45.3" x="1137.1" y="1906.4" fill="#003d58"/>
  <rect width="197.8" height="15.3" x="1153.2" y="2136.3" fill="#003d58"/>
  <rect width="106.5" height="15.3" x="2917.6" y="2136.3" fill="#003d58"/>
  <rect width="15.2" height="184.4" x="1244.5" y="1951.9" fill="#003d58"/>
  <rect width="197.8" height="15.3" x="1890.3" y="51.2" fill="#003d58"/>
  <rect width="15.2" height="185.1" x="1981.5" y="66.4" fill="#003d58"/>
  <rect width="15.2" height="184.4" x="3008.9" y="1951.9" fill="#003d58"/>
  <rect width="38.1" height="677.1" x="1232.8" y="1229.3" fill="#003d58"/>
  <rect width="50" height="11.4" x="1271" y="1401.6" fill="#003d58"/>
  <rect width="50" height="11.9" x="1182.9" y="1401.6" fill="#003d58"/>
  <rect width="11.9" height="33" x="911" y="1390.6" fill="#003d58"/>
  <rect width="170.2" height="11.9" x="922.9" y="1401.6" fill="#003d58"/>
  <rect width="12.3" height="172.3" x="1030.9" y="1229.3" fill="#003d58"/>
  <rect width="11.9" height="61" x="911" y="1229.3" fill="#003d58"/>
  <rect width="88.5" height="44.9" x="822.5" y="2056.7" fill="#003d58"/>
  <rect width="44.9" height="145.3" x="911" y="1956.4" fill="#003d58"/>
  <rect width="45.3" height="145.3" x="1547.9" y="1956.3" fill="#003d58"/>
  <rect width="88.5" height="44.9" x="1593.2" y="2056.7" fill="#003d58"/>
  <rect width="88.5" height="45.3" x="1881.6" y="2056.3" fill="#003d58"/>
  <rect width="88.5" height="44.9" x="2008.2" y="2056.7" fill="#003d58"/>
  <rect width="38.1" height="910" x="1970.1" y="1191.6" fill="#003d58"/>
  <rect width="263" height="37.7" x="1707.1" y="1191.6" fill="#003d58"/>
  <rect width="11.9" height="75.4" x="1723.2" y="1229.3" fill="#003d58"/>
  <rect width="11.4" height="141.9" x="1723.6" y="1394.4" fill="#003d58"/>
  <rect width="154.1" height="13.6" x="1735.1" y="1462.6" fill="#003d58"/>
  <rect width="80.9" height="39.8" x="1889.2" y="1436.3" fill="#003d58"/>
  <rect width="38.1" height="1011.5" x="1240.9" y=".3" fill="#003d58"/>
  <rect width="113.9" height="38.1" x="1127" y="973.5" fill="#003d58"/>
  <rect width="328.2" height="37.5" x="1279" y="974.3" fill="#003d58"/>
  <rect width="12.3" height="95.6" x="1580.9" y="878.7" fill="#003d58"/>
  <rect width="12.3" height="152" x="1580.9" y="646.6" fill="#003d58"/>
  <rect width="171.9" height="11.8" x="1409" y="726.6" fill="#003d58"/>
  <rect width="130" height="39.8" x="1279" y="726.6" fill="#003d58"/>
  <rect width="47" height="45.3" x="1279" y="101.1" fill="#003d58"/>
  <rect width="55.1" height="45.3" x="1525.9" y="101.1" fill="#003d58"/>
  <rect width="45.3" height="195.2" x="1580.9" y="101.1" fill="#003d58"/>
  <rect width="12.3" height="260" x="1580.9" y="296.3" fill="#003d58"/>
  <rect width="38.1" height="760.1" x="1970.1" y="251.5" fill="#003d58"/>
  <rect width="96.1" height="44.9" x="1874" y="251.5" fill="#003d58"/>
  <rect width="95.7" height="44.9" x="2008.2" y="251.5" fill="#003d58"/>
  <rect width="263" height="38.1" x="1707.1" y="973.5" fill="#003d58"/>
  <rect width="266.8" height="38.1" x="2008.2" y="973.5" fill="#003d58"/>
  <rect width="257" height="11.9" x="2008.3" y="802.8" fill="#003d58"/>
  <rect width="266.8" height="37.7" x="2008.2" y="1191.6" fill="#003d58"/>
  <rect width="30.5" height="36.8" x="2365.6" y="1191.6" fill="#003d58"/>
  <rect width="38.1" height="254.9" x="2396.1" y="973.5" fill="#003d58"/>
  <rect width="30.9" height="38.1" x="2365.2" y="973.5" fill="#003d58"/>
  <rect width="11.9" height="132.1" x="1773.2" y="841.4" fill="#003d58"/>
  <rect width="60.1" height="11.9" x="1713.1" y="841.4" fill="#003d58"/>
  <rect width="11.9" height="393" x="911" y="1513.4" fill="#003d58"/>
  <rect width="54.3" height="50" x="911" y="1906.4" fill="#003d58"/>
  <rect width="100.4" height="12.3" x="2397" y="1422.4" fill="#003d58"/>
  <rect width="11.9" height="484" x="2385.1" y="1422.4" fill="#003d58"/>
  <rect width="29.2" height="45.3" x="2430" y="1906.4" fill="#003d58"/>
  <rect width="44.9" height="195.2" x="2385.1" y="1906.4" fill="#003d58"/>
  <rect width="88.5" height="44.9" x="2296.6" y="2056.7" fill="#003d58"/>
  <rect width="89.8" height="12.3" x="2597.3" y="1422.4" fill="#003d58"/>
  <rect width="12.3" height="493.8" x="2687" y="1412.6" fill="#003d58"/>
  <rect width="106.4" height="45.3" x="2631.1" y="1906.4" fill="#003d58"/>
  <rect width="11.9" height="74.1" x="2422.4" y="1228.4" fill="#003d58"/>
  <rect width="85.1" height="12.3" x="2434.2" y="1290.2" fill="#003d58"/>
  <rect width="141.9" height="12.3" x="2609.1" y="1290.2" fill="#003d58"/>
  <rect width="12.3" height="9.7" x="2687" y="1302.5" fill="#003d58"/>
  <rect width="11.9" height="182.1" x="2751" y="1120.4" fill="#003d58"/>
  <rect width="58" height="12.3" x="2762.8" y="1290.2" fill="#003d58"/>
  <rect width="58" height="11.9" x="2921.2" y="1290.2" fill="#003d58"/>
  <rect width="545" height="38.1" x="2434.2" y="1082.3" fill="#003d58"/>
  <rect width="11.9" height="66.5" x="2422.4" y="816.8" fill="#003d58"/>
  <rect width="112.2" height="11.9" x="2434.2" y="816.8" fill="#003d58"/>
  <rect width="12.3" height="253.7" x="2534.2" y="828.6" fill="#003d58"/>
  <rect width="141" height="11.9" x="2636.2" y="816.8" fill="#003d58"/>
  <rect width="12.3" height="10.2" x="2687" y="806.6" fill="#003d58"/>
  <rect width="11.9" height="265.5" x="2777.2" y="816.8" fill="#003d58"/>
  <rect width="50" height="11.9" x="2789.1" y="816.8" fill="#003d58"/>
  <rect width="70.3" height="44.7" x="2397" y="101.1" fill="#003d58"/>
  <rect width="11.9" height="373.1" x="2385.1" y="323.4" fill="#003d58"/>
  <rect width="30.1" height="50" x="2385.1" y="273.5" fill="#003d58"/>
  <rect width="44.9" height="195.2" x="2352.1" y="101.1" fill="#003d58"/>
  <rect width="63.9" height="44.7" x="2667.1" y="101.1" fill="#003d58"/>
  <rect width="12.3" height="560.9" x="2687" y="145.8" fill="#003d58"/>
  <rect width="89.8" height="11.4" x="2597.3" y="685.1" fill="#003d58"/>
  <rect width="100.4" height="11.9" x="2397" y="684.7" fill="#003d58"/>
  <rect width="44.9" height="1850.6" x="2979.2" y="101.1" fill="#003d58"/>
  <rect width="69.9" height="45.3" x="2909.4" y="1906.4" fill="#003d58"/>
  <rect width="50" height="11.9" x="2929.3" y="816.8" fill="#003d58"/>
  <rect width="48.3" height="45.3" x="2931" y="101.1" fill="#003d58"/>
  <rect width="67.8" height="14.8" x="1173.1" y=".3" fill="#003d58"/>
  <rect width="235.6" height="12.3" x="2008.3" y="1464.3" fill="#003d58"/>
  <rect width="155.2" height="45.3" x="753.1" y="146.4" fill="#003d58"/>
  <rect width="102.8" height="45.3" x="1138.1" y="146.4" fill="#003d58"/>
  <rect width="52.1" height="25" x="907.2" y="624.6" fill="#003d58"/>
  <rect width="25" height="319.9" x="882.2" y="329.7" fill="#003d58"/>
  <rect width="180" height="25.2" x="907.2" y="329.7" fill="#003d58"/>
  <rect width="25" height="319.7" x="1087.2" y="329.9" fill="#003d58"/>
  <rect width="30.9" height="25" x="1056.3" y="624.6" fill="#003d58"/>
  <g fill="#fff" stroke="#000" stroke-width=".3" stroke-miterlimit="10">
    <rect width="225.7" height="15.3" x=".1" y="101.1"/>
    <rect width="225.7" height="4.6" x=".1" y="104.9"/>
  </g>
  <g fill="#fff" stroke="#000" stroke-width=".3" stroke-miterlimit="10">
    <rect width="443.4" height="15.3" x="45.4" y="2086.4"/>
    <rect width="443.4" height="4.6" x="45.4" y="2093.3"/>
  </g>
  <g fill="#fff" stroke="#000" stroke-width=".3" stroke-miterlimit="10">
    <rect width="227" height="15.3" x="1351" y="2136.3"/>
    <rect width="227" height="4.6" x="1351" y="2143.2"/>
  </g>
  <g fill="#fff" stroke="#000" stroke-width=".3" stroke-miterlimit="10">
    <rect width="230.4" height="15.3" x="922.9" y="2136.3"/>
    <rect width="230.4" height="4.6" x="922.9" y="2143.2"/>
  </g>
  <g fill="#fff" stroke="#000" stroke-width=".3" stroke-miterlimit="10">
    <rect width="15.2" height="49.9" x="1578" y="2101.7"/>
    <rect width="4.6" height="49.9" x="1584.9" y="2101.7"/>
  </g>
  <g fill="#fff" stroke="#000" stroke-width=".3" stroke-miterlimit="10">
    <rect width="15.2" height="49.9" x="907.6" y="2101.7"/>
    <rect width="4.6" height="49.9" x="911.4" y="2101.7"/>
  </g>
  <g fill="#fff" stroke="#000" stroke-width=".3" stroke-miterlimit="10">
    <rect width="532.5" height="15.3" x="2385.1" y="2136.3"/>
    <rect width="532.5" height="4.6" x="2385.1" y="2143.2"/>
  </g>
  <g fill="#fff" stroke="#000" stroke-width=".3" stroke-miterlimit="10">
    <rect width="15.2" height="34.7" x="2385.1" y="2101.6"/>
    <rect width="4.6" height="34.7" x="2388.9" y="2101.6"/>
  </g>
  <g fill="#fff" stroke="#000" stroke-width=".3" stroke-miterlimit="10">
    <rect width="350.2" height="15.3" x="822.9" y=".1"/>
    <rect width="350.2" height="4.6" x="822.9" y="3.9"/>
  </g>
  <g fill="#fff" stroke="#000" stroke-width=".3" stroke-miterlimit="10">
    <rect width="308.9" height="15.3" x="2088" y="51.2"/>
    <rect width="308.9" height="4.6" x="2088" y="54.9"/>
  </g>
  <g fill="#fff" stroke="#000" stroke-width=".3" stroke-miterlimit="10">
    <rect width="165.1" height="15.3" x="2187" y="246.4"/>
    <rect width="165.1" height="4.6" x="2187" y="250.1"/>
  </g>
  <g fill="#fff" stroke="#000" stroke-width=".3" stroke-miterlimit="10">
    <rect width="164.7" height="15.3" x="1626.3" y="246.4"/>
    <rect width="164.7" height="4.6" x="1626.3" y="250.1"/>
  </g>
  <g fill="#fff" stroke="#000" stroke-width=".3" stroke-miterlimit="10">
    <rect width="15.2" height="34.7" x="2381.7" y="66.4"/>
    <rect width="4.6" height="34.7" x="2388.6" y="66.4"/>
  </g>
  <g fill="#fff" stroke="#000" stroke-width=".3" stroke-miterlimit="10">
    <rect width="308.9" height="15.3" x="1580.9" y="51.2"/>
    <rect width="308.9" height="4.6" x="1580.9" y="54.9"/>
  </g>
  <g fill="#fff" stroke="#000" stroke-width=".3" stroke-miterlimit="10">
    <rect width="15.2" height="34.7" x="1580.9" y="66.4"/>
    <rect width="4.6" height="34.7" x="1584.7" y="66.4"/>
  </g>
  <g fill="#fff" stroke="#000" stroke-width=".3" stroke-miterlimit="10">
    <rect width="15.2" height="150.3" x=".1" y="101.1"/>
    <rect width="4.6" height="150.3" x="3.9" y="101.1"/>
  </g>
  <g fill="#fff" stroke="#000" stroke-width=".3" stroke-miterlimit="10">
    <rect width="31.8" height="171.2" x="13.3" y="543.6"/>
    <rect width="8.1" height="171.2" x=".1" y="543.6"/>
    <rect width="5.1" height="171.2" x="8.2" y="543.6"/>
    <rect width="2.5" height="171.2" x="19.5" y="543.6"/>
  </g>
  <g fill="#fff" stroke="#000" stroke-width=".3" stroke-miterlimit="10">
    <rect width="199.9" height="31.8" x="434.6" y="114.3"/>
    <rect width="199.9" height="8.1" x="434.6" y="101.1"/>
    <rect width="199.9" height="5.1" x="434.6" y="109.2"/>
    <rect width="199.9" height="2.5" x="434.6" y="120.5"/>
  </g>
  <g fill="#fff" stroke="#000" stroke-width=".3" stroke-miterlimit="10">
    <rect width="31.8" height="120.3" x="13.3" y="1032.3"/>
    <rect width="8.1" height="120.3" x=".1" y="1032.3"/>
    <rect width="5.1" height="120.3" x="8.2" y="1032.3"/>
    <rect width="2.5" height="120.3" x="19.5" y="1032.3"/>
  </g>
  <g fill="#fff" stroke="#000" stroke-width=".3" stroke-miterlimit="10">
    <rect width="31.8" height="119.8" x="13.3" y="1452.4"/>
    <rect width="8.1" height="119.8" x=".1" y="1452.4"/>
    <rect width="5.1" height="119.8" x="8.2" y="1452.4"/>
    <rect width="2.5" height="119.8" x="19.5" y="1452.4"/>
  </g>
  <g fill="#fff" stroke="#000" stroke-width=".3" stroke-miterlimit="10">
    <rect width="146.8" height="12.3" x="908.2" y="157"/>
    <rect width="146.8" height="3.7" x="908.2" y="162.6"/>
  </g>
</svg>
