<svg id="3.2_2" viewBox="0 0 2192.1 2197">
  <rect width="482.2" height="988.3" x="856.2" y="30.9" fill="#f6f6f6"/>
  <polygon fill="#dff2fd" data-id-flat="1874" class="hovered_flat_at_plan flat_plan_3" points="1080.8 1487 1080.8 1246.7 1080.8 1246.7 1080.8 1044.1 1010.7 1044.1 1010.7 1006.6 898.9 1006.6 898.9 1044.1 841.1 1044.1 816.7 1044.1 816.7 153 368.1 153 368.1 12.7 12.7 12.7 12.7 466.1 152.6 466.1 152.6 1044.1 184.4 1044.1 184.4 1342.5 665.8 1342.5 665.8 1353.9 184.4 1353.9 184.4 1627.2 184.4 1719.3 400.8 1719.3 400.8 1627.2 412.9 1627.2 412.9 1731 367.3 1731 77.8 1731 77.8 2119.1 367.3 2119.1 367.3 2012.8 841.1 2012.8 1080.8 2012.8 1080.8 1777.5 841.1 1777.5 841.1 1765.8 1065.1 1765.8 1065.1 1498.7 841.1 1498.7 841.1 1487 1080.8 1487"/>
  <polygon fill="#e1efe3" data-id-flat="1875" class="hovered_flat_at_plan flat_plan_3" points="1818.1 1723.5 1818.1 1731 1781.1 1731 1781.1 1627.2 1793.2 1627.2 1793.2 1719.3 2009.6 1719.3 2009.6 1627.2 2009.6 1353.9 1528.2 1353.9 1528.2 1342.5 2009.6 1342.5 2009.6 1044.1 2041.4 1044.1 2041.4 466.1 2114.3 466.1 2114.3 82.7 1824.8 82.7 1824.8 153 1374.2 153 1374.2 1044.1 1294.1 1044.1 1294.1 1006.6 1183.3 1006.6 1183.3 1044.1 1113.2 1044.1 1113.2 1246.7 1113.2 1246.7 1113.2 1487 1352.8 1487 1352.8 1498.7 1128.9 1498.7 1128.9 1765.8 1352.8 1765.8 1352.8 1777.5 1113.2 1777.5 1113.2 2012.8 1352.8 2012.8 1818.1 2012.8 1818.1 2184.5 2179.6 2184.5 2179.6 1723.5 1818.1 1723.5"/>
  <g fill="none" stroke="#000" stroke-width=".3" stroke-miterlimit="10">
    <rect width="5" height="95.1" x="679.4" y="510.3"/>
    <rect width="3.9" height="11.4" x="684.4" y="498.9"/>
    <path d="M589.3 510.4a95 95 0 0 0 95 95"/>
  </g>
  <g fill="none" stroke="#000" stroke-width=".3" stroke-miterlimit="10">
    <rect width="95.1" height="5" x="559.2" y="1273.7"/>
    <rect width="11.4" height="3.9" x="654.4" y="1278.7"/>
    <path d="M654.4 1183.6a95 95 0 0 0-95 95"/>
  </g>
  <g fill="none" stroke="#000" stroke-width=".3" stroke-miterlimit="10">
    <rect width="5" height="85.8" x="908.7" y="1161.3"/>
    <rect width="3.9" height="11.4" x="904.8" y="1247.1"/>
    <path d="M994.5 1247a85.8 85.8 0 0 0-85.8-85.7"/>
  </g>
  <g fill="none" stroke="#000" stroke-width=".3" stroke-miterlimit="10">
    <rect width="5" height="94.3" x="904.1" y="912.3"/>
    <rect width="3.9" height="11.4" x="900.2" y="1006.6"/>
    <path d="M998.4 1006.7a94.3 94.3 0 0 0-94.3-94.3"/>
  </g>
  <g fill="none" stroke="#000" stroke-width=".3" stroke-miterlimit="10">
    <rect width="5" height="95.1" x="779.5" y="1638.6"/>
    <rect width="3.9" height="11.4" x="784.5" y="1627.2"/>
    <path d="M689.3 1638.6a95 95 0 0 0 95 95"/>
  </g>
  <g fill="none" stroke="#000" stroke-width=".3" stroke-miterlimit="10">
    <rect width="95.1" height="5" x="559.2" y="1416.9"/>
    <rect width="11.4" height="3.9" x="654.4" y="1412.9"/>
    <path d="M654.4 1512a95 95 0 0 1-95-95"/>
  </g>
  <g fill="none" stroke="#000" stroke-width=".3" stroke-miterlimit="10">
    <rect width="85.6" height="5" x="828.4" y="1618.3"/>
    <rect width="11.4" height="3.9" x="817" y="1623.3"/>
    <path d="M828.4 1537.7a85.6 85.6 0 0 1 85.6 85.6"/>
  </g>
  <g fill="none" stroke="#000" stroke-width=".3" stroke-miterlimit="10">
    <rect width="5" height="95.1" x="1496.8" y="510.3"/>
    <rect width="3.9" height="11.4" x="1492.9" y="498.9"/>
    <path d="M1592 510.4a95 95 0 0 1-95.2 95"/>
  </g>
  <g fill="none" stroke="#000" stroke-width=".3" stroke-miterlimit="10">
    <rect width="95.1" height="5" x="1539.6" y="1273.7"/>
    <rect width="11.4" height="3.9" x="1528.2" y="1278.7"/>
    <path d="M1539.6 1183.6a95 95 0 0 1 95 95"/>
  </g>
  <g fill="none" stroke="#000" stroke-width=".3" stroke-miterlimit="10">
    <rect width="5" height="85.8" x="1280.3" y="1161.3"/>
    <rect width="3.9" height="11.4" x="1285.3" y="1247.1"/>
    <path d="M1199.5 1247a85.8 85.8 0 0 1 85.8-85.7"/>
  </g>
  <g fill="none" stroke="#000" stroke-width=".3" stroke-miterlimit="10">
    <rect width="5" height="94.3" x="1284.3" y="912.3"/>
    <rect width="3.9" height="11.4" x="1289.3" y="1006.6"/>
    <path d="M1195 1006.7a94.3 94.3 0 0 1 94.3-94.3"/>
  </g>
  <g fill="none" stroke="#000" stroke-width=".3" stroke-miterlimit="10">
    <rect width="5" height="95.1" x="1409.5" y="1638.6"/>
    <rect width="3.9" height="11.4" x="1405.6" y="1627.2"/>
    <path d="M1504.7 1638.6a95 95 0 0 1-95 95"/>
  </g>
  <g fill="none" stroke="#000" stroke-width=".3" stroke-miterlimit="10">
    <rect width="95.1" height="5" x="1539.6" y="1416.9"/>
    <rect width="11.4" height="3.9" x="1528.2" y="1412.9"/>
    <path d="M1539.6 1512a95 95 0 0 0 95-95"/>
  </g>
  <g fill="none" stroke="#000" stroke-width=".3" stroke-miterlimit="10">
    <rect width="85.6" height="5" x="1280.1" y="1618.3"/>
    <rect width="11.4" height="3.9" x="1365.6" y="1623.3"/>
    <path d="M1365.6 1537.7a85.6 85.6 0 0 0-85.6 85.6"/>
  </g>
  <g fill="none" stroke="#000" stroke-width=".3" stroke-miterlimit="10">
    <rect width="95.3" height="5" x="173.7" y="432.1"/>
    <rect width="11.5" height="4" x="162.2" y="437.1"/>
    <path d="M173.7 341.8a95.3 95.3 0 0 1 95.3 95.4"/>
  </g>
  <g fill="none" stroke="#000" stroke-width=".3" stroke-miterlimit="10">
    <rect width="95.3" height="5" x="1923.1" y="432.1"/>
    <rect width="11.5" height="4" x="2018.4" y="437.1"/>
    <path d="M2018.4 341.8a95.3 95.3 0 0 0-95.3 95.4"/>
  </g>
  <g fill="none" stroke="#000" stroke-width=".3" stroke-miterlimit="10">
    <rect width="95.3" height="5" x="1923.1" y="1762.8"/>
    <rect width="11.5" height="4" x="2018.4" y="1758.8"/>
    <path d="M2018.4 1858.2a95.3 95.3 0 0 1-95.3-95.4"/>
  </g>
  <g fill="none" stroke="#000" stroke-width=".3" stroke-miterlimit="10">
    <rect width="95.3" height="5" x="173.7" y="1762.8"/>
    <rect width="11.5" height="4" x="162.2" y="1758.8"/>
    <path d="M173.7 1858.2a95.3 95.3 0 0 0 95.3-95.4"/>
  </g>
  <g fill="none" stroke="#000" stroke-width=".3" stroke-miterlimit="10">
    <rect width="5" height="95.3" x="1207.1" y="58.1"/>
    <rect width="4" height="11.5" x="1212.2" y="153.5"/>
    <path d="M1116.8 153.5a95.3 95.3 0 0 1 95.4-95.3"/>
  </g>
  <g fill="none" stroke="#000" stroke-width=".3" stroke-miterlimit="10">
    <rect width="5" height="85.6" x="1186.6" y="750.8"/>
    <rect width="4" height="11.4" x="1191.6" y="836.4"/>
    <path d="M1191.5 750.8a91.7 91.7 0 0 0-91.7 91.8"/>
  </g>
  <g fill="none" stroke="#000" stroke-width=".3" stroke-miterlimit="10">
    <rect width="5" height="85.6" x="1008.1" y="750.8"/>
    <rect width="4" height="11.4" x="1004.1" y="836.4"/>
    <path d="M1008 750.8a91.8 91.8 0 0 1 91.8 91.8"/>
  </g>
  <g fill="#fff" stroke="#000" stroke-width=".3" stroke-miterlimit="10">
    <rect width="198" height="31.4" x="454.5" y="153"/>
    <rect width="198" height="8" x="454.5" y="140"/>
    <rect width="198" height="5" x="454.5" y="148"/>
    <rect width="198" height="2.5" x="454.5" y="159.1"/>
  </g>
  <g fill="#fff" stroke="#000" stroke-width=".3" stroke-miterlimit="10">
    <rect width="31.4" height="197.6" x="153" y="730"/>
    <rect width="8" height="197.6" x="140" y="730"/>
    <rect width="5" height="197.6" x="148" y="730"/>
    <rect width="2.5" height="197.6" x="159.2" y="730"/>
  </g>
  <g fill="#fff" stroke="#000" stroke-width=".3" stroke-miterlimit="10">
    <rect width="31.4" height="129.4" x="153" y="1162.4"/>
    <rect width="8" height="129.4" x="140" y="1162.4"/>
    <rect width="5" height="129.4" x="148" y="1162.4"/>
    <rect width="2.5" height="129.4" x="159.2" y="1162.4"/>
  </g>
  <g fill="#fff" stroke="#000" stroke-width=".3" stroke-miterlimit="10">
    <rect width="31.4" height="118.5" x="153" y="1468.3"/>
    <rect width="8" height="118.5" x="140" y="1468.3"/>
    <rect width="5" height="118.5" x="148" y="1468.3"/>
    <rect width="2.5" height="118.5" x="159.2" y="1468.3"/>
  </g>
  <g fill="#fff" stroke="#000" stroke-width=".3" stroke-miterlimit="10">
    <rect width="197.6" height="31.4" x="518.7" y="2012.7"/>
    <rect width="197.6" height="8" x="518.7" y="2049.1"/>
    <rect width="197.6" height="5" x="518.7" y="2044.1"/>
    <rect width="197.6" height="2.5" x="518.7" y="2035.4"/>
  </g>
  <g fill="#fff" stroke="#000" stroke-width=".3" stroke-miterlimit="10">
    <rect width="197.6" height="31.4" x="1477.3" y="2012.7"/>
    <rect width="197.6" height="8" x="1477.3" y="2049.1"/>
    <rect width="197.6" height="5" x="1477.3" y="2044.1"/>
    <rect width="197.6" height="2.5" x="1477.3" y="2035.4"/>
  </g>
  <g fill="#fff" stroke="#000" stroke-width=".3" stroke-miterlimit="10">
    <rect width="31.4" height="157.7" x="2007.7" y="1381"/>
    <rect width="8" height="157.7" x="2044.1" y="1381"/>
    <rect width="5" height="157.7" x="2039.1" y="1381"/>
    <rect width="2.5" height="157.7" x="2030.4" y="1381"/>
  </g>
  <g fill="#fff" stroke="#000" stroke-width=".3" stroke-miterlimit="10">
    <rect width="31.4" height="119.3" x="2007.7" y="1161.4"/>
    <rect width="8" height="119.3" x="2044.1" y="1161.4"/>
    <rect width="5" height="119.3" x="2039.1" y="1161.4"/>
    <rect width="2.5" height="119.3" x="2030.4" y="1161.4"/>
  </g>
  <g fill="#fff" stroke="#000" stroke-width=".3" stroke-miterlimit="10">
    <rect width="31.4" height="197.6" x="2007.7" y="618.4"/>
    <rect width="8" height="197.6" x="2044.1" y="618.4"/>
    <rect width="5" height="197.6" x="2039.1" y="618.4"/>
    <rect width="2.5" height="197.6" x="2030.4" y="618.4"/>
  </g>
  <g fill="#fff" stroke="#000" stroke-width=".3" stroke-miterlimit="10">
    <rect width="118.5" height="31.4" x="1446.4" y="153"/>
    <rect width="118.5" height="8" x="1446.4" y="140"/>
    <rect width="118.5" height="5" x="1446.4" y="148"/>
    <rect width="118.5" height="2.5" x="1446.4" y="159.1"/>
  </g>
  <g fill="#fff" stroke="#000" stroke-width=".3" stroke-miterlimit="10">
    <rect width="101" height="31.4" x="891.6" y="2012.7"/>
    <rect width="101" height="8" x="891.6" y="2049.1"/>
    <rect width="101" height="5" x="891.6" y="2044.1"/>
    <rect width="101" height="2.5" x="891.6" y="2035.4"/>
  </g>
  <g fill="#fff" stroke="#000" stroke-width=".3" stroke-miterlimit="10">
    <rect width="118.9" height="31.4" x="1167.6" y="2012.7"/>
    <rect width="118.9" height="8" x="1167.6" y="2049.1"/>
    <rect width="118.9" height="5" x="1167.6" y="2044.1"/>
    <rect width="118.9" height="2.5" x="1167.6" y="2035.4"/>
  </g>
  <g fill="#fff" stroke="#000" stroke-width=".3" stroke-miterlimit="10">
    <rect width="148.7" height="12.5" x="968.1" y="152.5"/>
    <rect width="148.7" height="3.2" x="968.1" y="156.5"/>
  </g>
  <g fill="#fff" stroke="#000" stroke-width=".3" stroke-miterlimit="10">
    <rect width="12.6" height="388.1" x="2114.3" y="82.7"/>
    <rect width="3.8" height="388.1" x="2120" y="82.7"/>
  </g>
  <g fill="#fff" stroke="#000" stroke-width=".3" stroke-miterlimit="10">
    <rect width="301.3" height="12.6" x="1825.6" y="70.1"/>
    <rect width="301.3" height="3.8" x="1825.6" y="73.2"/>
  </g>
  <g fill="#fff" stroke="#000" stroke-width=".3" stroke-miterlimit="10">
    <rect width="12.6" height="74.6" x="1813" y="70.1"/>
    <rect width="3.8" height="74.6" x="1816.1" y="70.1"/>
  </g>
  <g fill="#fff" stroke="#000" stroke-width=".3" stroke-miterlimit="10">
    <rect width="74.8" height="12.6" x="2052" y="470.8"/>
    <rect width="74.8" height="3.8" x="2052" y="476.5"/>
  </g>
  <g fill="#fff" stroke="#000" stroke-width=".3" stroke-miterlimit="10">
    <rect width="12.6" height="388.1" x="65.2" y="1731"/>
    <rect width="3.8" height="388.1" x="68.3" y="1731"/>
  </g>
  <g fill="#fff" stroke="#000" stroke-width=".3" stroke-miterlimit="10">
    <rect width="301.3" height="12.6" x="65.2" y="2119.1"/>
    <rect width="301.3" height="3.8" x="65.2" y="2124.8"/>
  </g>
  <g fill="#fff" stroke="#000" stroke-width=".3" stroke-miterlimit="10">
    <rect width="12.6" height="74.6" x="366.5" y="2057"/>
    <rect width="3.8" height="74.6" x="372.2" y="2057"/>
  </g>
  <g fill="#fff" stroke="#000" stroke-width=".3" stroke-miterlimit="10">
    <rect width="74.8" height="12.6" x="65.2" y="1718.4"/>
    <rect width="74.8" height="3.8" x="65.2" y="1721.5"/>
  </g>
  <g fill="#fff" stroke="#000" stroke-width=".3" stroke-miterlimit="10">
    <rect width="300" height="12.5" x="1809.6" y="2114.5"/>
    <rect width="288.1" height="3.2" x="1821.5" y="2119.8"/>
  </g>
  <g fill="#fff" stroke="#000" stroke-width=".3" stroke-miterlimit="10">
    <rect width="12.5" height="272.1" x="2109.6" y="1854.9"/>
    <rect width="3.2" height="272.1" x="2114.9" y="1854.9"/>
  </g>
  <g fill="#fff" stroke="#000" stroke-width=".3" stroke-miterlimit="10">
    <rect width="12.5" height="40.3" x="2109.6" y="1714.6"/>
    <rect width="3.2" height="40.3" x="2113.6" y="1714.6"/>
  </g>
  <g fill="#fff" stroke="#000" stroke-width=".3" stroke-miterlimit="10">
    <rect width="12.5" height="57.5" x="1809.6" y="2057.1"/>
    <rect width="3.2" height="65.9" x="1813.6" y="2057.1"/>
  </g>
  <g fill="#fff" stroke="#000" stroke-width=".3" stroke-miterlimit="10">
    <rect width="57.5" height="12.5" x="2052.1" y="1714.6"/>
    <rect width="57.5" height="3.2" x="2052.1" y="1719.9"/>
  </g>
  <rect width="44.4" height="172" x="140" y="1586.8" fill="#003d58"/>
  <rect width="228.1" height="11.7" x="184.4" y="1719.3" fill="#003d58"/>
  <rect width="11.7" height="92.1" x="400.8" y="1627.2" fill="#003d58"/>
  <rect width="277.1" height="11.7" x="412.5" y="1627.2" fill="#003d58"/>
  <rect width="11.9" height="115.5" x="653.8" y="1511.7" fill="#003d58"/>
  <rect width="378.7" height="44.4" x="140" y="2012.7" fill="#003d58"/>
  <rect width="44.4" height="176.6" x="140" y="1291.7" fill="#003d58"/>
  <rect width="469.2" height="12.1" x="184.4" y="1341.7" fill="#003d58"/>
  <rect width="12.1" height="130.2" x="653.6" y="1282.7" fill="#003d58"/>
  <rect width="44.4" height="234.8" x="140" y="927.6" fill="#003d58"/>
  <rect width="5" height="39.8" x="184.4" y="1088.5" fill="#003d58"/>
  <rect width="481.4" height="11.7" x="184.4" y="1029.9" fill="#003d58"/>
  <rect width="12.1" height="142.3" x="653.6" y="1041.6" fill="#003d58"/>
  <rect width="44.4" height="288.9" x="140" y="441.1" fill="#003d58"/>
  <rect width="5" height="39.4" x="184.4" y="485.7" fill="#003d58"/>
  <rect width="399.7" height="11.7" x="189.8" y="498.7" fill="#003d58"/>
  <rect width="314.5" height="44.4" x="140" y="140" fill="#003d58"/>
  <rect width="164.4" height="44.4" x="652.5" y="140" fill="#003d58"/>
  <rect width="49.4" height="11.7" x="688.4" y="498.7" fill="#003d58"/>
  <rect width="79.1" height="39.4" x="737.8" y="498.7" fill="#003d58"/>
  <rect width="37.7" height="1019.2" x="816.9" y="24.9" fill="#003d58"/>
  <rect width="45.6" height="37.7" x="854.5" y="1006.5" fill="#003d58"/>
  <rect width="81.2" height="37.7" x="1293.2" y="1006.5" fill="#003d58"/>
  <rect width="195.1" height="33.8" x="999.2" y="973.1" fill="#003d58"/>
  <rect width="196.6" height="37.7" x="998.4" y="1006.5" fill="#003d58"/>
  <rect width="37.7" height="982.8" x="1336.7" y="24.9" fill="#003d58"/>
  <rect width="72" height="44.4" x="1374.4" y="140" fill="#003d58"/>
  <rect width="487.2" height="44.4" x="1564.9" y="140" fill="#003d58"/>
  <rect width="39.3" height="5" x="1765.8" y="184.4" fill="#003d58"/>
  <rect width="78.7" height="39.4" x="1374.4" y="498.7" fill="#003d58"/>
  <rect width="39.8" height="11.7" x="1453.1" y="498.7" fill="#003d58"/>
  <rect width="410.6" height="11.7" x="1591.6" y="498.7" fill="#003d58"/>
  <rect width="44.4" height="177.3" x="2007.7" y="441.1" fill="#003d58"/>
  <rect width="5" height="39.4" x="2002.7" y="485.7" fill="#003d58"/>
  <rect width="44.4" height="345.4" x="2007.7" y="815.9" fill="#003d58"/>
  <rect width="5" height="39.8" x="2002.7" y="1088.5" fill="#003d58"/>
  <rect width="481.4" height="11.7" x="1526.3" y="1029.9" fill="#003d58"/>
  <rect width="12.1" height="142.3" x="1526.3" y="1041.6" fill="#003d58"/>
  <rect width="44.4" height="100.3" x="2007.7" y="1280.7" fill="#003d58"/>
  <rect width="469.2" height="12.1" x="1538.5" y="1341.7" fill="#003d58"/>
  <rect width="11.7" height="130.2" x="1526.8" y="1282.7" fill="#003d58"/>
  <rect width="44.4" height="220.1" x="2007.7" y="1538.7" fill="#003d58"/>
  <rect width="227.3" height="11.7" x="1780.4" y="1719.3" fill="#003d58"/>
  <rect width="12.1" height="92.1" x="1780.4" y="1627.2" fill="#003d58"/>
  <rect width="277.5" height="11.7" x="1502.9" y="1627.2" fill="#003d58"/>
  <rect width="11.7" height="115.5" x="1526.8" y="1511.7" fill="#003d58"/>
  <rect width="377.2" height="44.4" x="1674.9" y="2012.7" fill="#003d58"/>
  <rect width="190.8" height="44.4" x="1286.5" y="2012.7" fill="#003d58"/>
  <rect width="39.3" height="5" x="1335.9" y="2007.7" fill="#003d58"/>
  <rect width="175" height="44.4" x="992.6" y="2012.7" fill="#003d58"/>
  <rect width="32.4" height="968.6" x="1080.8" y="1044.1" fill="#003d58"/>
  <rect width="86.9" height="11.7" x="993.9" y="1246.7" fill="#003d58"/>
  <rect width="76.2" height="11.7" x="828.6" y="1246.7" fill="#003d58"/>
  <rect width="11.7" height="252" x="816.9" y="1246.7" fill="#003d58"/>
  <rect width="252.2" height="11.7" x="828.6" y="1487" fill="#003d58"/>
  <rect width="86.9" height="11.7" x="1113.2" y="1246.7" fill="#003d58"/>
  <rect width="76.2" height="11.7" x="1289.2" y="1246.7" fill="#003d58"/>
  <rect width="11.7" height="252" x="1365.4" y="1246.7" fill="#003d58"/>
  <rect width="252.2" height="11.7" x="1113.2" y="1487" fill="#003d58"/>
  <rect width="15.7" height="149.4" x="1065.1" y="1258.4" fill="#003d58"/>
  <rect width="15.7" height="149.4" x="1113.2" y="1258.4" fill="#003d58"/>
  <rect width="15.7" height="267.1" x="1065.1" y="1498.7" fill="#003d58"/>
  <rect width="15.7" height="267.1" x="1113.2" y="1498.7" fill="#003d58"/>
  <rect width="65.3" height="11.7" x="788.4" y="1627.2" fill="#003d58"/>
  <rect width="12.6" height="196.9" x="841.1" y="1638.9" fill="#003d58"/>
  <rect width="227.1" height="12.1" x="853.7" y="1765.3" fill="#003d58"/>
  <rect width="65.3" height="11.7" x="1340.3" y="1627.2" fill="#003d58"/>
  <rect width="12.6" height="196.9" x="1340.3" y="1638.9" fill="#003d58"/>
  <rect width="227.1" height="12.1" x="1113.2" y="1765.3" fill="#003d58"/>
  <rect width="175.3" height="44.4" x="716.3" y="2012.7" fill="#003d58"/>
  <rect width="39.3" height="5" x="816.9" y="2007.7" fill="#003d58"/>
  <rect width="12.6" height="72" x="841.1" y="1935.7" fill="#003d58"/>
  <rect width="12.6" height="72" x="1338.2" y="1935.7" fill="#003d58"/>
  <rect width="79.1" height="39.8" x="986" y="1368.1" fill="#003d58"/>
  <rect width="78.5" height="39.8" x="1128.9" y="1368.1" fill="#003d58"/>
  <rect width="34.7" height="39.4" x="816.9" y="1498.7" fill="#003d58"/>
  <rect width="34.7" height="39.4" x="1342.4" y="1498.7" fill="#003d58"/>
  <g fill="none" stroke="#000" stroke-width=".3" stroke-miterlimit="10">
    <rect width="119.8" height="30.3" x="855.2" y="276.1"/>
    <rect width="119.8" height="30.3" x="855.2" y="306.4"/>
    <rect width="119.8" height="30.3" x="855.2" y="336.7"/>
    <rect width="119.8" height="30.3" x="855.2" y="367"/>
    <rect width="119.8" height="30.3" x="855.2" y="397.3"/>
    <rect width="119.8" height="30.3" x="855.2" y="427.6"/>
    <rect width="119.8" height="30.3" x="855.2" y="457.9"/>
    <rect width="119.8" height="30.3" x="855.2" y="488.2"/>
    <rect width="119.8" height="30.3" x="855.2" y="518.5"/>
    <rect width="119.8" height="30.3" x="855.2" y="548.8"/>
    <rect width="119.8" height="30.3" x="855.2" y="579.1"/>
  </g>
  <g fill="none" stroke="#000" stroke-width=".3" stroke-miterlimit="10">
    <rect width="119.8" height="30.3" x="1215.1" y="275.9"/>
    <rect width="119.8" height="30.3" x="1215.1" y="306.2"/>
    <rect width="119.8" height="30.3" x="1215.1" y="336.5"/>
    <rect width="119.8" height="30.3" x="1215.1" y="366.8"/>
    <rect width="119.8" height="30.3" x="1215.1" y="397.1"/>
    <rect width="119.8" height="30.3" x="1215.1" y="427.4"/>
    <rect width="119.8" height="30.3" x="1215.1" y="457.7"/>
    <rect width="119.8" height="30.3" x="1215.1" y="488"/>
    <rect width="119.8" height="30.3" x="1215.1" y="518.3"/>
    <rect width="119.8" height="30.3" x="1215.1" y="548.6"/>
    <rect width="119.8" height="30.3" x="1215.1" y="578.9"/>
  </g>
  <rect width="179.4" height="269.1" x="1004.8" y="301" fill="none" stroke="#000" stroke-width=".3" stroke-miterlimit="10"/>
  <rect width="165.4" height="255" x="1011.7" y="308.1" fill="none" stroke="#000" stroke-width=".3" stroke-miterlimit="10"/>
  <rect width="69.3" height="13.2" x="854.5" y="24.5" fill="#003d58"/>
  <rect width="68.7" height="13.2" x="1268" y="24.5" fill="#003d58"/>
  <rect width="113.6" height="43.9" x="854.5" y="140.8" fill="#003d58"/>
  <rect width="120.6" height="43.9" x="1216.2" y="140.8" fill="#003d58"/>
  <rect width="76.8" height="24.6" x="979.9" y="570.2" fill="#003d58"/>
  <rect width="24.9" height="294" x="979.9" y="276.1" fill="#003d58"/>
  <rect width="204.3" height="24.9" x="1004.8" y="276.1" fill="#003d58"/>
  <rect width="24.9" height="293.7" x="1184.1" y="301" fill="#003d58"/>
  <rect width="30.8" height="24.6" x="1153.3" y="570.2" fill="#003d58"/>
  <rect width="149.5" height="11.4" x="854.5" y="836.5" fill="#003d58"/>
  <rect width="147.6" height="11.4" x="1195.5" y="836.5" fill="#003d58"/>
  <rect width="344.1" height="6.8" x="923.9" y="30.9" fill="#9e9d9c"/>
  <rect width="44.5" height="154.6" x="140" y="1858.1" fill="#003d58"/>
  <rect width="44.5" height="154.6" x="2007.6" y="1858.1" fill="#003d58"/>
  <rect width="44.4" height="157.4" x="2007.7" y="184.4" fill="#003d58"/>
  <rect width="44.4" height="157.4" x="140" y="184.4" fill="#003d58"/>
  <rect width="12.5" height="57.5" x="1809.6" y="2127" fill="#9d9d9c"/>
  <rect width="12.5" height="469.9" x="2179.6" y="1714.6" fill="#9d9d9c"/>
  <rect width="57.5" height="12.5" x="2122.1" y="1714.6" fill="#9d9d9c"/>
  <rect width="382.5" height="12.5" x="1809.6" y="2184.5" fill="#9d9d9c"/>
  <g fill="#fff" stroke="#000" stroke-width=".3" stroke-miterlimit="10">
    <rect width="12.6" height="455.4" x=".1" y="10.6"/>
    <rect width="3.8" height="455.4" x="3.2" y="10.6"/>
  </g>
  <g fill="#fff" stroke="#000" stroke-width=".3" stroke-miterlimit="10">
    <rect width="367.2" height="12.6" x=".1" y=".1"/>
    <rect width="367.2" height="3.8" x=".1" y="3.2"/>
  </g>
  <g fill="#fff" stroke="#000" stroke-width=".3" stroke-miterlimit="10">
    <rect width="12.6" height="139.8" x="367.3" y=".1"/>
    <rect width="3.8" height="139.8" x="373" y=".1"/>
  </g>
  <g fill="#fff" stroke="#000" stroke-width=".3" stroke-miterlimit="10">
    <rect width="139.9" height="12.6" x=".1" y="466"/>
    <rect width="139.9" height="3.8" x=".1" y="471.7"/>
  </g>
</svg>
