<svg id="4.3_6" viewBox="0 0 2064 2114.7">
  <rect width="482.2" height="970.1" x="790.5" y="15.6" fill="#f6f6f6"/>
  <polygon fill="#dff2fd" fill-rule="evenodd" data-id-flat="1956" class="hovered_flat_at_plan flat_plan_5" points="1016.7 1466.2 1016.7 1225.9 1016.7 1225.9 1016.7 1023.3 946.6 1023.3 946.6 985.8 847.8 985.8 847.8 1023.3 777.1 1023.3 752.7 1023.3 752.7 132.2 309 132.2 309 53.5 12.7 53.5 12.7 451 88.5 451 88.5 1023.3 120.4 1023.3 120.4 1321.7 601.7 1321.7 601.7 1333.1 120.4 1333.1 120.4 1606.4 120.4 1698.5 336.8 1698.5 336.8 1606.4 348.9 1606.4 348.9 1710.2 309 1710.2 309 1704.5 12.7 1704.5 12.7 2102 309 2102 309 1992 777.1 1992 1016.7 1992 1016.7 1756.7 777.1 1756.7 777.1 1745 1016.7 1745 1016.7 1477.9 777.1 1477.9 777.1 1466.2 1016.7 1466.2"/>
  <polygon fill="#e1efe3" fill-rule="evenodd" data-id-flat="1957" class="hovered_flat_at_plan flat_plan_5" points="1943.7 1704.5 1943.7 1333.1 1464.2 1333.1 1464.2 1321.7 1945.6 1321.7 1945.6 1023.3 1977.4 1023.3 1977.4 451 2051.3 451 2051.3 53.5 1755.1 53.5 1755.1 132.2 1313.2 132.2 1313.2 163.6 1310.4 163.6 1310.4 477.9 1310.4 477.9 1310.4 1023.3 1288.8 1023.3 1218.1 1023.3 1218.1 985.8 1119.3 985.8 1119.3 1023.3 1049.2 1023.3 1049.2 1225.9 1049.2 1225.9 1049.2 1466.2 1288.8 1466.2 1288.8 1477.9 1049.2 1477.9 1049.2 1991.9 1313.1 1991.9 1313.1 1991.9 1755.9 1991.9 1755.9 2102 2051.3 2102 2051.3 1704.5 1943.7 1704.5"/>
  <g fill="none" stroke="#000" stroke-width=".3" stroke-miterlimit="10">
    <rect width="5" height="95.1" x="615.4" y="489.5"/>
    <rect width="3.9" height="11.4" x="620.4" y="478.1"/>
    <path d="M525.3 489.6a95 95 0 0 0 95 95"/>
  </g>
  <g fill="none" stroke="#000" stroke-width=".3" stroke-miterlimit="10">
    <rect width="95.1" height="5" x="495.2" y="1252.9"/>
    <rect width="11.4" height="3.9" x="590.3" y="1257.9"/>
    <path d="M590.4 1162.8a95 95 0 0 0-95 95"/>
  </g>
  <g fill="none" stroke="#000" stroke-width=".3" stroke-miterlimit="10">
    <rect width="5" height="85.8" x="844.6" y="1140.5"/>
    <rect width="3.9" height="11.4" x="840.7" y="1226.3"/>
    <path d="M930.5 1226.3a85.8 85.8 0 0 0-85.8-85.8"/>
  </g>
  <g fill="none" stroke="#000" stroke-width=".3" stroke-miterlimit="10">
    <rect width="5" height="94.3" x="851.8" y="891.5"/>
    <rect width="3.9" height="11.4" x="847.8" y="985.8"/>
    <path d="M946 986a94.3 94.3 0 0 0-94.2-94.4"/>
  </g>
  <g fill="none" stroke="#000" stroke-width=".3" stroke-miterlimit="10">
    <rect width="5" height="95.1" x="715.4" y="1617.8"/>
    <rect width="3.9" height="11.4" x="720.4" y="1606.4"/>
    <path d="M625.3 1617.8a95 95 0 0 0 95 95"/>
  </g>
  <g fill="none" stroke="#000" stroke-width=".3" stroke-miterlimit="10">
    <rect width="95.1" height="5" x="495.2" y="1396.1"/>
    <rect width="11.4" height="3.9" x="590.3" y="1392.1"/>
    <path d="M590.4 1491.3a95 95 0 0 1-95-95"/>
  </g>
  <g fill="none" stroke="#000" stroke-width=".3" stroke-miterlimit="10">
    <rect width="85.6" height="5" x="764.3" y="1597.5"/>
    <rect width="11.4" height="3.9" x="752.9" y="1602.5"/>
    <path d="M764.3 1517a85.6 85.6 0 0 1 85.6 85.5"/>
  </g>
  <g fill="none" stroke="#000" stroke-width=".3" stroke-miterlimit="10">
    <rect width="95.1" height="5" x="1502.4" y="597.1"/>
    <rect width="11.4" height="3.9" x="1597.5" y="602"/>
    <path d="M1597.6 507a95 95 0 0 0-95 95"/>
  </g>
  <g fill="none" stroke="#000" stroke-width=".3" stroke-miterlimit="10">
    <rect width="5" height="95.1" x="1519" y="383.1"/>
    <rect width="3.9" height="11.4" x="1523.9" y="478.3"/>
    <path d="M1428.8 478.3a95 95 0 0 1 95-95"/>
  </g>
  <g fill="none" stroke="#000" stroke-width=".3" stroke-miterlimit="10">
    <rect width="95.1" height="5" x="1475.6" y="1252.9"/>
    <rect width="11.4" height="3.9" x="1464.2" y="1257.9"/>
    <path d="M1475.6 1162.8a95 95 0 0 1 95 95"/>
  </g>
  <g fill="none" stroke="#000" stroke-width=".3" stroke-miterlimit="10">
    <rect width="95.1" height="5" x="1859.3" y="1835.8"/>
    <rect width="11.4" height="3.9" x="1954.5" y="1831.8"/>
    <path d="M1954.5 1931a95 95 0 0 1-95-95.2"/>
  </g>
  <g fill="none" stroke="#000" stroke-width=".3" stroke-miterlimit="10">
    <rect width="95.1" height="5" x="109.5" y="1835.8"/>
    <rect width="11.4" height="3.9" x="98.1" y="1831.8"/>
    <path d="M109.6 1931a95 95 0 0 0 95-95.2"/>
  </g>
  <g fill="none" stroke="#000" stroke-width=".3" stroke-miterlimit="10">
    <rect width="95.1" height="5" x="109.5" y="314.7"/>
    <rect width="11.4" height="3.9" x="98.1" y="319.7"/>
    <path d="M109.6 224.6a95 95 0 0 1 95 95"/>
  </g>
  <g fill="none" stroke="#000" stroke-width=".3" stroke-miterlimit="10">
    <rect width="95.1" height="5" x="1859.3" y="314.7"/>
    <rect width="11.4" height="3.9" x="1954.5" y="319.7"/>
    <path d="M1954.5 224.6a95 95 0 0 0-95 95"/>
  </g>
  <g fill="none" stroke="#000" stroke-width=".3" stroke-miterlimit="10">
    <rect width="95.1" height="5" x="1473.7" y="817.6"/>
    <rect width="11.4" height="3.9" x="1462.3" y="813.7"/>
    <path d="M1473.7 912.8a95 95 0 0 0 95-95"/>
  </g>
  <g fill="none" stroke="#000" stroke-width=".3" stroke-miterlimit="10">
    <rect width="5" height="85.8" x="1216.3" y="1140.5"/>
    <rect width="3.9" height="11.4" x="1221.2" y="1226.3"/>
    <path d="M1135.5 1226.3a85.8 85.8 0 0 1 85.8-85.8"/>
  </g>
  <g fill="none" stroke="#000" stroke-width=".3" stroke-miterlimit="10">
    <rect width="5" height="94.3" x="1209.1" y="891.5"/>
    <polygon points="1214.1 985.8 1214.1 997.2 1218.1 997.2 1218.1 985.8 1214.1 985.8"/>
    <path d="M1119.8 986a94.3 94.3 0 0 1 94.3-94.4"/>
  </g>
  <rect width="44.4" height="194.2" x="76" y="1516" fill="#003d58"/>
  <rect width="228.1" height="11.7" x="120.4" y="1698.5" fill="#003d58"/>
  <rect width="11.7" height="92.1" x="336.8" y="1606.4" fill="#003d58"/>
  <rect width="277.1" height="11.7" x="348.5" y="1606.4" fill="#003d58"/>
  <rect width="11.9" height="115.5" x="589.8" y="1490.9" fill="#003d58"/>
  <rect width="450.8" height="44.4" x="76" y="1991.9" fill="#003d58"/>
  <rect width="44.4" height="92.5" x="76" y="1305" fill="#003d58"/>
  <rect width="469.2" height="12.1" x="120.4" y="1320.9" fill="#003d58"/>
  <rect width="12.1" height="130.2" x="589.6" y="1261.9" fill="#003d58"/>
  <rect width="44.4" height="311.4" x="76" y="796" fill="#003d58"/>
  <rect width="5" height="39.8" x="120.4" y="1067.7" fill="#003d58"/>
  <rect width="481.4" height="11.7" x="120.4" y="1009.1" fill="#003d58"/>
  <rect width="12.1" height="142.3" x="589.6" y="1020.8" fill="#003d58"/>
  <rect width="44.4" height="153.2" x="76" y="445.3" fill="#003d58"/>
  <rect width="5" height="39.4" x="120.4" y="464.9" fill="#003d58"/>
  <rect width="399.7" height="11.7" x="125.8" y="477.9" fill="#003d58"/>
  <rect width="409" height="44.4" x="76" y="119.2" fill="#003d58"/>
  <rect width="69.9" height="44.4" x="682.9" y="119.2" fill="#003d58"/>
  <rect width="49.4" height="11.7" x="624.3" y="477.9" fill="#003d58"/>
  <rect width="79.1" height="39.4" x="673.7" y="477.9" fill="#003d58"/>
  <rect width="37.7" height="1023.3" x="752.8" fill="#003d58"/>
  <rect width="57.3" height="37.7" x="790.5" y="985.7" fill="#003d58"/>
  <rect width="92.9" height="37.7" x="1217.4" y="985.7" fill="#003d58"/>
  <rect width="172" height="37.7" x="946.6" y="985.7" fill="#003d58"/>
  <rect width="37.7" height="985.6" x="1272.7" fill="#003d58"/>
  <rect width="95" height="44.4" x="1310.4" y="119.2" fill="#003d58"/>
  <rect width="464.2" height="44.4" x="1523.8" y="119.2" fill="#003d58"/>
  <rect width="39.3" height="5" x="1701.7" y="163.6" fill="#003d58"/>
  <rect width="78.7" height="39.4" x="1310.4" y="477.9" fill="#003d58"/>
  <rect width="39.8" height="11.7" x="1389.1" y="477.9" fill="#003d58"/>
  <rect width="68.9" height="11.7" x="1527.9" y="477.9" fill="#003d58"/>
  <rect width="469.2" height="11.7" x="1474.4" y="696.5" fill="#003d58"/>
  <rect width="44.4" height="338.3" x="1943.7" y="445.3" fill="#003d58"/>
  <rect width="44.4" height="228.1" x="1943.7" y="959.5" fill="#003d58"/>
  <rect width="5" height="39.8" x="1938.6" y="1067.7" fill="#003d58"/>
  <rect width="481.4" height="11.7" x="1462.3" y="1009.1" fill="#003d58"/>
  <rect width="12.1" height="250.4" x="1462.3" y="912.7" fill="#003d58"/>
  <rect width="12.1" height="117.2" x="1462.3" y="696.5" fill="#003d58"/>
  <rect width="12.1" height="90.5" x="1596.8" y="606" fill="#003d58"/>
  <rect width="12.1" height="343.3" x="1596.8" y="163.6" fill="#003d58"/>
  <rect width="44.4" height="96.1" x="1943.7" y="1306.1" fill="#003d58"/>
  <rect width="469.2" height="12.1" x="1474.4" y="1320.9" fill="#003d58"/>
  <rect width="11.7" height="71.2" x="1462.7" y="1261.9" fill="#003d58"/>
  <rect width="44.4" height="110.5" x="1943.7" y="1599.7" fill="#003d58"/>
  <rect width="454.2" height="44.4" x="1533.8" y="1991.9" fill="#003d58"/>
  <rect width="95.7" height="44.4" x="1240.6" y="1991.9" fill="#003d58"/>
  <rect width="39.3" height="5" x="1271.9" y="1986.9" fill="#003d58"/>
  <rect width="174.4" height="44.4" x="947.3" y="1991.9" fill="#003d58"/>
  <rect width="32.4" height="968.6" x="1016.7" y="1023.3" fill="#003d58"/>
  <rect width="86.9" height="11.7" x="929.9" y="1225.9" fill="#003d58"/>
  <rect width="76.2" height="11.7" x="764.5" y="1225.9" fill="#003d58"/>
  <rect width="11.7" height="252" x="752.8" y="1225.9" fill="#003d58"/>
  <rect width="252.2" height="11.7" x="764.5" y="1466.2" fill="#003d58"/>
  <rect width="86.9" height="11.7" x="1049.2" y="1225.9" fill="#003d58"/>
  <rect width="76.2" height="11.7" x="1225.2" y="1225.9" fill="#003d58"/>
  <rect width="11.7" height="252" x="1301.4" y="1225.9" fill="#003d58"/>
  <rect width="252.2" height="11.7" x="1049.2" y="1466.2" fill="#003d58"/>
  <rect width="65.3" height="11.7" x="724.4" y="1606.4" fill="#003d58"/>
  <rect width="12.6" height="196.9" x="777.1" y="1618.1" fill="#003d58"/>
  <rect width="227.1" height="12.1" x="789.7" y="1744.5" fill="#003d58"/>
  <rect width="104.1" height="44.4" x="724.4" y="1991.9" fill="#003d58"/>
  <rect width="39.3" height="5" x="752.8" y="1986.9" fill="#003d58"/>
  <rect width="12.6" height="72" x="777.1" y="1914.9" fill="#003d58"/>
  <rect width="94.8" height="39.8" x="921.9" y="1347.3" fill="#003d58"/>
  <rect width="94.2" height="39.8" x="1049.2" y="1347.3" fill="#003d58"/>
  <g fill="#fff" stroke="#000" stroke-width=".3" stroke-miterlimit="10">
    <rect width="198" height="31.4" x="484.9" y="132.2"/>
    <rect width="198" height="8" x="484.9" y="119.2"/>
    <rect width="198" height="5" x="484.9" y="127.2"/>
    <rect width="198" height="2.5" x="484.9" y="138.3"/>
  </g>
  <g fill="#fff" stroke="#000" stroke-width=".3" stroke-miterlimit="10">
    <rect width="31.4" height="197.6" x="89" y="598.5"/>
    <rect width="8" height="197.6" x="76" y="598.5"/>
    <rect width="5" height="197.6" x="83.9" y="598.5"/>
    <rect width="2.5" height="197.6" x="95.1" y="598.5"/>
  </g>
  <g fill="#fff" stroke="#000" stroke-width=".3" stroke-miterlimit="10">
    <rect width="31.4" height="197.6" x="89" y="1107.5"/>
    <rect width="8" height="197.6" x="76" y="1107.5"/>
    <rect width="5" height="197.6" x="83.9" y="1107.5"/>
    <rect width="2.5" height="197.6" x="95.1" y="1107.5"/>
  </g>
  <g fill="#fff" stroke="#000" stroke-width=".3" stroke-miterlimit="10">
    <rect width="31.4" height="118.5" x="89" y="1397.5"/>
    <rect width="8" height="118.5" x="76" y="1397.5"/>
    <rect width="5" height="118.5" x="83.9" y="1397.5"/>
    <rect width="2.5" height="118.5" x="95.1" y="1397.5"/>
  </g>
  <g fill="#fff" stroke="#000" stroke-width=".3" stroke-miterlimit="10">
    <rect width="197.6" height="31.4" x="526.8" y="1991.9"/>
    <rect width="197.6" height="8" x="526.8" y="2028.3"/>
    <rect width="197.6" height="5" x="526.8" y="2023.3"/>
    <rect width="197.6" height="2.5" x="526.8" y="2014.6"/>
  </g>
  <g fill="#fff" stroke="#000" stroke-width=".3" stroke-miterlimit="10">
    <rect width="197.6" height="31.4" x="1336.3" y="1991.9"/>
    <rect width="197.6" height="8" x="1336.3" y="2028.3"/>
    <rect width="197.6" height="5" x="1336.3" y="2023.3"/>
    <rect width="197.6" height="2.5" x="1336.3" y="2014.6"/>
  </g>
  <g fill="#fff" stroke="#000" stroke-width=".3" stroke-miterlimit="10">
    <rect width="31.4" height="197.6" x="1943.7" y="1402.1"/>
    <rect width="8" height="197.6" x="1980.1" y="1402.1"/>
    <rect width="5" height="197.6" x="1975.1" y="1402.1"/>
    <rect width="2.5" height="197.6" x="1966.4" y="1402.1"/>
  </g>
  <g fill="#fff" stroke="#000" stroke-width=".3" stroke-miterlimit="10">
    <rect width="31.4" height="118.5" x="1943.7" y="1187.6"/>
    <rect width="8" height="118.5" x="1980.1" y="1187.6"/>
    <rect width="5" height="118.5" x="1975.1" y="1187.6"/>
    <rect width="2.5" height="118.5" x="1966.4" y="1187.6"/>
  </g>
  <g fill="#fff" stroke="#000" stroke-width=".3" stroke-miterlimit="10">
    <rect width="31.4" height="175.9" x="1943.7" y="783.6"/>
    <rect width="8" height="175.9" x="1980.1" y="783.6"/>
    <rect width="5" height="175.9" x="1975.1" y="783.6"/>
    <rect width="2.5" height="175.9" x="1966.4" y="783.6"/>
  </g>
  <g fill="#fff" stroke="#000" stroke-width=".3" stroke-miterlimit="10">
    <rect width="118.5" height="31.4" x="1405.3" y="132.2"/>
    <rect width="118.5" height="8" x="1405.3" y="119.2"/>
    <rect width="118.5" height="5" x="1405.3" y="127.2"/>
    <rect width="118.5" height="2.5" x="1405.3" y="138.3"/>
  </g>
  <g fill="#fff" stroke="#000" stroke-width=".3" stroke-miterlimit="10">
    <rect width="118.9" height="31.4" x="828.5" y="1991.9"/>
    <rect width="118.9" height="8" x="828.5" y="2028.3"/>
    <rect width="118.9" height="5" x="828.5" y="2023.3"/>
    <rect width="118.9" height="2.5" x="828.5" y="2014.6"/>
  </g>
  <g fill="#fff" stroke="#000" stroke-width=".3" stroke-miterlimit="10">
    <rect width="118.9" height="31.4" x="1121.7" y="1991.9"/>
    <rect width="118.9" height="8" x="1121.7" y="2028.3"/>
    <rect width="118.9" height="5" x="1121.7" y="2023.3"/>
    <rect width="118.9" height="2.5" x="1121.7" y="2014.6"/>
  </g>
  <rect width="34.7" height="39.4" x="752.8" y="1477.9" fill="#003d58"/>
  <rect width="34.7" height="39.4" x="1278.3" y="1477.9" fill="#003d58"/>
  <g fill="none" stroke="#000" stroke-width=".3" stroke-miterlimit="10">
    <rect width="5" height="95.3" x="1142.7" y="36.9"/>
    <rect width="4" height="11.5" x="1147.7" y="132.3"/>
    <path d="M1052.4 132.3a95.3 95.3 0 0 1 95.4-95.3"/>
  </g>
  <g fill="none" stroke="#000" stroke-width=".3" stroke-miterlimit="10">
    <rect width="5" height="85.6" x="1116.9" y="681"/>
    <rect width="4" height="11.4" x="1121.9" y="766.6"/>
    <path d="M1122 681a91.7 91.7 0 0 0-91.8 91.8"/>
  </g>
  <g fill="none" stroke="#000" stroke-width=".3" stroke-miterlimit="10">
    <rect width="5" height="85.6" x="938.4" y="681"/>
    <rect width="4" height="11.4" x="934.4" y="766.6"/>
    <path d="M938.4 681a91.8 91.8 0 0 1 91.8 91.8"/>
  </g>
  <g fill="#fff" stroke="#000" stroke-width=".3" stroke-miterlimit="10">
    <rect width="153.9" height="16.1" x="898.5" y="127.8"/>
    <rect width="153.9" height="4.8" x="898.5" y="135.1"/>
  </g>
  <g fill="none" stroke="#000" stroke-width=".3" stroke-miterlimit="10">
    <rect width="119.8" height="30.3" x="785.6" y="255"/>
    <rect width="119.8" height="30.3" x="785.6" y="285.2"/>
    <rect width="119.8" height="30.3" x="785.6" y="315.5"/>
    <rect width="119.8" height="30.3" x="785.6" y="345.8"/>
    <rect width="119.8" height="30.3" x="785.6" y="376.1"/>
    <rect width="119.8" height="30.3" x="785.6" y="406.4"/>
    <rect width="119.8" height="30.3" x="785.6" y="436.7"/>
    <rect width="119.8" height="30.3" x="785.6" y="467"/>
    <rect width="119.8" height="30.3" x="785.6" y="497.3"/>
    <rect width="119.8" height="30.3" x="785.6" y="527.6"/>
    <rect width="119.8" height="30.3" x="785.6" y="557.9"/>
  </g>
  <g fill="none" stroke="#000" stroke-width=".3" stroke-miterlimit="10">
    <rect width="119.8" height="30.3" x="1152.9" y="254.7"/>
    <rect width="119.8" height="30.3" x="1152.9" y="285"/>
    <rect width="119.8" height="30.3" x="1152.9" y="315.3"/>
    <rect width="119.8" height="30.3" x="1152.9" y="345.6"/>
    <rect width="119.8" height="30.3" x="1152.9" y="375.9"/>
    <rect width="119.8" height="30.3" x="1152.9" y="406.2"/>
    <rect width="119.8" height="30.3" x="1152.9" y="436.5"/>
    <rect width="119.8" height="30.3" x="1152.9" y="466.8"/>
    <rect width="119.8" height="30.3" x="1152.9" y="497.1"/>
    <rect width="119.8" height="30.3" x="1152.9" y="527.4"/>
    <rect width="119.8" height="30.3" x="1152.9" y="557.7"/>
  </g>
  <rect width="179.4" height="269.1" x="940.3" y="279.9" fill="none" stroke="#000" stroke-width=".3" stroke-miterlimit="10"/>
  <rect width="165.4" height="255" x="947.3" y="286.9" fill="none" stroke="#000" stroke-width=".3" stroke-miterlimit="10"/>
  <rect width="63.7" height="15.2" x="790.5" y=".4" fill="#003d58"/>
  <rect width="68.1" height="15.2" x="1204.6" y=".4" fill="#003d58"/>
  <rect width="108" height="43.9" x="790.5" y="119.6" fill="#003d58"/>
  <rect width="121" height="43.9" x="1151.7" y="119.6" fill="#003d58"/>
  <rect width="76.8" height="24.6" x="915.4" y="549" fill="#003d58"/>
  <rect width="24.9" height="294" x="915.4" y="255" fill="#003d58"/>
  <rect width="204.3" height="24.9" x="940.3" y="255" fill="#003d58"/>
  <rect width="24.9" height="293.7" x="1119.7" y="279.9" fill="#003d58"/>
  <rect width="30.8" height="24.6" x="1088.9" y="549" fill="#003d58"/>
  <rect width="143.9" height="11.4" x="790.5" y="766.7" fill="#003d58"/>
  <rect width="147.6" height="11.4" x="1126.5" y="766.7" fill="#003d58"/>
  <rect width="351.3" height="6.8" x="854.2" y="8.8" fill="#9e9d9c"/>
  <rect width="44.4" height="121.6" x="76" y="1710.2" fill="#003d58"/>
  <rect width="44.4" height="61.2" x="76" y="1930.7" fill="#003d58"/>
  <rect width="44.4" height="121.6" x="1943.7" y="1710.2" fill="#003d58"/>
  <rect width="44.4" height="61.2" x="1943.7" y="1930.7" fill="#003d58"/>
  <rect width="44.4" height="121.6" x="76" y="323.7" fill="#003d58"/>
  <rect width="44.4" height="61.2" x="76" y="163.6" fill="#003d58"/>
  <rect width="44.4" height="121.6" x="1943.7" y="323.7" fill="#003d58"/>
  <rect width="44.4" height="61.2" x="1943.7" y="163.6" fill="#003d58"/>
  <g fill="#fff" stroke="#000" stroke-width=".3" stroke-miterlimit="10">
    <rect width="12.6" height="391.9" x="2051.3" y="1710.1"/>
    <rect width="3.8" height="391.9" x="2057" y="1710.1"/>
  </g>
  <g fill="#fff" stroke="#000" stroke-width=".3" stroke-miterlimit="10">
    <rect width="315.7" height="12.6" x="1748.2" y="2102"/>
    <rect width="315.7" height="3.8" x="1748.2" y="2107.7"/>
  </g>
  <g fill="#fff" stroke="#000" stroke-width=".3" stroke-miterlimit="10">
    <rect width="12.6" height="65.7" x="1748.2" y="2036.3"/>
    <rect width="3.8" height="65.7" x="1751.3" y="2036.3"/>
  </g>
  <g fill="#fff" stroke="#000" stroke-width=".3" stroke-miterlimit="10">
    <rect width="75.8" height="12.6" x="1988" y="1697.6"/>
    <rect width="75.8" height="3.8" x="1988" y="1700.7"/>
  </g>
  <g fill="#fff" stroke="#000" stroke-width=".3" stroke-miterlimit="10">
    <rect width="12.6" height="391.9" x=".1" y="53.5"/>
    <rect width="3.8" height="391.9" x="3.2" y="53.5"/>
  </g>
  <g fill="#fff" stroke="#000" stroke-width=".3" stroke-miterlimit="10">
    <rect width="315.7" height="12.6" x=".1" y="40.9"/>
    <rect width="315.7" height="3.8" x=".1" y="44"/>
  </g>
  <g fill="#fff" stroke="#000" stroke-width=".3" stroke-miterlimit="10">
    <rect width="12.6" height="65.7" x="303.3" y="53.5"/>
    <rect width="3.8" height="65.7" x="309" y="53.5"/>
  </g>
  <g fill="#fff" stroke="#000" stroke-width=".3" stroke-miterlimit="10">
    <rect width="75.8" height="12.6" x=".1" y="445.4"/>
    <rect width="75.8" height="3.8" x=".1" y="451"/>
  </g>
  <g fill="#fff" stroke="#000" stroke-width=".3" stroke-miterlimit="10">
    <rect width="12.6" height="391.9" x=".1" y="1710.1"/>
    <rect width="3.8" height="391.9" x="3.2" y="1710.1"/>
  </g>
  <g fill="#fff" stroke="#000" stroke-width=".3" stroke-miterlimit="10">
    <rect width="315.7" height="12.6" x=".1" y="2102"/>
    <rect width="315.7" height="3.8" x=".1" y="2107.7"/>
  </g>
  <g fill="#fff" stroke="#000" stroke-width=".3" stroke-miterlimit="10">
    <rect width="12.6" height="65.7" x="303.3" y="2036.3"/>
    <rect width="3.8" height="65.7" x="309" y="2036.3"/>
  </g>
  <g fill="#fff" stroke="#000" stroke-width=".3" stroke-miterlimit="10">
    <rect width="75.8" height="12.6" x=".1" y="1697.6"/>
    <rect width="75.8" height="3.8" x=".1" y="1700.7"/>
  </g>
  <g fill="#fff" stroke="#000" stroke-width=".3" stroke-miterlimit="10">
    <rect width="12.6" height="391.9" x="2051.3" y="53.5"/>
    <rect width="3.8" height="391.9" x="2057" y="53.5"/>
  </g>
  <g fill="#fff" stroke="#000" stroke-width=".3" stroke-miterlimit="10">
    <rect width="315.7" height="12.6" x="1748.2" y="40.9"/>
    <rect width="315.7" height="3.8" x="1748.2" y="44"/>
  </g>
  <g fill="#fff" stroke="#000" stroke-width=".3" stroke-miterlimit="10">
    <rect width="12.6" height="65.7" x="1748.2" y="53.5"/>
    <rect width="3.8" height="65.7" x="1751.3" y="53.5"/>
  </g>
  <g fill="#fff" stroke="#000" stroke-width=".3" stroke-miterlimit="10">
    <rect width="75.8" height="12.6" x="1988" y="445.4"/>
    <rect width="75.8" height="3.8" x="1988" y="451"/>
  </g>
</svg>
