<svg xmlns="http://www.w3.org/2000/svg" xmlns:xlink="http://www.w3.org/1999/xlink" viewBox="0 0 1280 728"><defs><style>.cls-1{fill:red;}.cls-1,.cls-2,.cls-3{opacity:0.5;}.cls-2{fill:#8cc63f;}.cls-3{fill:#568ad6;}</style></defs><title>Artboard 1</title><g id="Layer_1" data-name="Layer 1"><image width="1280" height="728" xlink:href="../genplan.png"/></g><g id="Layer_2" data-name="Layer 2"><g id="house-9.2"><polygon id="section-2" class="cls-1" points="676 450.33 725.33 394.33 748.44 403.63 759 390.88 781.71 400.24 781.07 416.77 858.67 448 815.13 508.88 801.75 614.25 672.33 554.33 676 450.33"/><polygon id="section-1" class="cls-2" points="858.67 448 939.92 479.96 949.25 465.5 975.58 475.25 972.35 492.72 1008 506.75 979.5 609.25 942.5 681 801.75 614.25 815.13 508.88 858.67 448"/></g><g id="house-9.1"><polygon id="section-1-2" data-name="section-1" class="cls-2" points="386.25 398.25 401.75 501.75 514 558 568.25 504.29 562.5 396 523.32 379.67 523.5 367.88 501 359.38 492.91 366.99 446.75 347.75 386.25 398.25"/><polygon id="section-2-2" data-name="section-2" class="cls-3" points="401.75 501.75 306.5 454.5 281 350.75 345.5 304.25 369 314.35 378.11 307.4 396.73 315.66 396.69 326.24 446.75 347.75 386.25 398.25 401.75 501.75"/></g></g></svg>