<svg viewBox="0 0 396.1 402.3">
  <g fill="#1e3241">
    <path d="M175,278.6l-24.5,5,11.6,64.3a2,2,0,0,0,3.6.7l33.4-52.8L176.6,279a2,2,0,0,0-1.5-.4Zm98-61.8,5,24.4,64.2-11.6a2,2,0,0,0,.7-3.6l-53-33.3-16.5,22.7a2,2,0,0,0-.5,1.6Zm-61.9-98,24.4-4.9L224,49.4a2,2,0,0,0-3.6-.7l-33.4,52.8L209.6,118a2,2,0,0,0,1.7.5Zm-98,61.8-4.9-24.3L44,167.8a2,2,0,0,0-.7,3.6l52.8,33.4,16.7-22.7a2,2,0,0,0,.4-1.6Z" transform="translate(0.1 0)"/>
    <path d="M347,98,237.5,119.9l-27.2,5.4a2.2,2.2,0,0,1-1.8-.5l-25.2-18.4L95.8,42.7a2.2,2.2,0,0,0-3.2,2.2l21.7,109.7,5.5,27a2.2,2.2,0,0,1-.4,1.8L101,208.5,37,296a2.2,2.2,0,0,0,2.3,3.5l109.6-22,27.1-5.4a2.2,2.2,0,0,1,1.8.4l25.2,18.4,87.4,63.8a2.2,2.2,0,0,0,3.5-2.1L271.8,243l-5.2-27.1a2.2,2.2,0,0,1,.2-1.7L285.3,189,349,101.5A2.2,2.2,0,0,0,347,98Zm-136,127.2a32,32,0,1,1,8.6-44.4h.1A32,32,0,0,1,210.9,225.2Z" transform="translate(0.1 0)"/>
    <path d="M301.8,401.4v-40h8.5V377h6.6a19.4,19.4,0,0,1,7-11.8,21,21,0,0,1,13.4-4.5,21.7,21.7,0,0,1,10.7,2.7,19,19,0,0,1,7.5,7.4,22.8,22.8,0,0,1,0,21.4,19,19,0,0,1-7.4,7.4,21.7,21.7,0,0,1-10.6,2.7,20.8,20.8,0,0,1-14-4.8,19.6,19.6,0,0,1-6.7-12.7h-6.4v16.8h-8.5Zm23.5-20a13.7,13.7,0,0,0,3.4,9.5,12.2,12.2,0,0,0,17.2.4l.4-.4a13.7,13.7,0,0,0,3.4-9.6,13.5,13.5,0,0,0-3.4-9.4,12.4,12.4,0,0,0-17.5-.2l-.2.2a13.5,13.5,0,0,0-3.4,9.4ZM28.2,29.2a22.5,22.5,0,0,1,0-17,19,19,0,0,1,4.5-6.5,20.8,20.8,0,0,1,6.8-4.2A23,23,0,0,1,48,0a20.8,20.8,0,0,1,5.8.8A15.7,15.7,0,0,1,58.5,3,20.7,20.7,0,0,1,62,6a22,22,0,0,1,2.6,3.8l-7.3,3.6a10.7,10.7,0,0,0-3.8-4.2A10,10,0,0,0,48,7.6a12,12,0,0,0-9,3.7,13,13,0,0,0-3.6,9.4A13.2,13.2,0,0,0,39,30a12,12,0,0,0,9,3.8,10,10,0,0,0,5.5-1.6A10.7,10.7,0,0,0,57.3,28l7.3,3.5Q59,41.3,48,41.3a23,23,0,0,1-8.5-1.5,20.8,20.8,0,0,1-6.8-4A19,19,0,0,1,28.2,29.2ZM0,354l4.5-5.8a14,14,0,0,0,5.3,3.3,18,18,0,0,0,6.4,1.3,11.3,11.3,0,0,0,6-1.4,4.3,4.3,0,0,0,2.3-3.7,3.7,3.7,0,0,0-2-3.5,15,15,0,0,0-6.8-1h-8v-7.6h8a13.6,13.6,0,0,0,6-1,3.5,3.5,0,0,0,2.2-3.3,3.8,3.8,0,0,0-2.4-3.5,12.4,12.4,0,0,0-6-1.2,16.7,16.7,0,0,0-5.8,1,14.2,14.2,0,0,0-5,3.2L.4,325.5a18.2,18.2,0,0,1,6.7-4.6,24,24,0,0,1,9.2-1.8q7,0,11.5,3a9,9,0,0,1,4.3,7.8,8,8,0,0,1-2.6,6,11.7,11.7,0,0,1-6,3,10.3,10.3,0,0,1,3,1,12.3,12.3,0,0,1,3,1.8,8.8,8.8,0,0,1,2.4,3,9,9,0,0,1,1,4,9.5,9.5,0,0,1-2,6,13.8,13.8,0,0,1-6,4.3,23,23,0,0,1-8.5,1.6,25.7,25.7,0,0,1-9.8-1.8,16.5,16.5,0,0,1-6.7-5ZM362.8,81.6v-40h21a14.2,14.2,0,0,1,5,.8,9.6,9.6,0,0,1,3.6,2.3,10.2,10.2,0,0,1,2,3.3,10,10,0,0,1,.8,3.8,9.5,9.5,0,0,1-2,6,8.2,8.2,0,0,1-4.8,3.2,8.4,8.4,0,0,1,5.4,3.3,11.2,11.2,0,0,1-.8,14.3q-3.2,3-8.7,3Zm8.5-24H382a4.7,4.7,0,0,0,3.5-1.2,4.5,4.5,0,0,0,0-6.3,4.7,4.7,0,0,0-3.4-1H371.5v8.6Zm0,16.7h11A5.4,5.4,0,0,0,386,73a4.4,4.4,0,0,0,1.5-3.3,4.5,4.5,0,0,0-1.4-3.3,5.2,5.2,0,0,0-3.7-1.3h-11v9.2Z" transform="translate(0.1 0)"/>
  </g>
</svg>
