<svg viewBox="0 0 800 800">
  <path fill="#fff" d="M418 252l-39 109.4-111.2 28.2 108 37.6 29.6 112.6 38.4-110L555.5 402l-109.3-40"/>
  <path fill="#fff" d="M540.8 545c-1 0-1.7-.3-2.5-.8l-132-77-135 65.2c-.8.3-1.5.5-2.3.5-1.4 0-2.7-.7-3.7-1.7-1.5-1.6-1.7-4-.6-6l77-129.2-65.3-137.7c-1-2-.5-4.4 1.2-5.8 1-1 2.2-1.3 3.4-1.3 1 0 1.8.2 2.5.7L412 328l138.6-64.4c.7-.3 1.4-.5 2-.5 1.5 0 3 .7 3.8 1.8 1.5 1.6 1.7 4 .6 6l-78.2 129 66.5 138c1 2 .5 4.3-1 5.7-1 1-2.3 1.4-3.5 1.4zM412.4 374.5c-6 0-12 2.3-16.5 6.5-4.8 4.5-7.6 10.5-7.8 17-.2 6.4 2 12.5 6.5 17.2 4.6 5 11 7.7 17.7 7.7 6 0 12-2.4 16.5-6.6 4.6-4.4 7.4-10.4 7.6-16.8.2-6.5-2-12.6-6.5-17.3-4.5-5-10.8-7.7-17.6-7.7z"/>
  <path fill="#fff" d="M281 256l131 77.6L552.7 268l-79.6 131.5L541 539.8l-134.5-78.3L269 528l78.2-131.7L281 256m131.4 172c7 0 14.2-2.6 20-7.8 11.7-11 12.4-29.4 1.4-41.2-5.7-6.2-13.5-9.3-21.4-9.3-7 0-14.2 2.6-20 7.8-11.7 11-12.4 29.4-1.4 41.2 5.8 6 13.6 9.3 21.4 9.3M281 246c-2.4 0-4.8 1-6.7 2.7-3.2 3-4.2 7.7-2.3 11.7l64 135.4-75.5 127c-2.3 3.8-1.8 8.6 1.2 12 2 2 4.6 3 7.4 3 1.6 0 3-.2 4.4-1L406 473l129.8 75.7c1.6 1 3.3 1.4 5 1.4 2.5 0 5-1 6.8-2.8 3.2-3 4-7.7 2.2-11.7L484.5 400l76.7-126.6c1-1.6 1.6-3.4 1.6-5.4 0-5.4-4.3-9.8-9.6-10h-1.4c-1.2 0-2.4.5-3.4 1l-136 63.2-126.2-74.8c-1.7-.8-3.5-1.3-5.2-1.3zm131.4 172c-5.4 0-10.4-2.2-14-6-3.5-3.8-5.3-8.7-5-13.8 0-5 2.3-10 6-13.3 3.6-3.4 8.2-5.2 13-5.2 5.4 0 10.4 2.2 14 6 3.5 3.8 5.3 8.7 5 13.8 0 5-2.3 10-6 13.3-3.5 3-8 5-13 5z"/>
  <path fill="#fff" d="M540.8 577.2c0-14.8 11.4-24.8 26.4-24.8 12.6 0 19 7.3 21.8 14l-12.5 5.8c-1.2-3.7-5-7-9.3-7-7 0-11.7 5.3-11.7 12s4.7 12 11.7 12c4.3 0 8-3.2 9.3-7L589 588c-2.8 6.4-9.2 14-21.8 14-15 0-26.4-10-26.4-24.8zM230 216.8h-8v18.4h-14.6v-48H222v17h8.3c3-10.8 13-17.8 25.3-17.8 14.8 0 26.3 10 26.3 24.8S270.4 236 255.6 236c-13 0-23.2-7.5-25.7-19.2zm37.2-5.6c0-6.7-4.5-12-11.5-12s-11.5 5.3-11.5 12 4.5 12 11.5 12 11.5-5.3 11.5-12zM565.4 240.5l7-10c3.8 3.3 10.2 4.7 14 4.7 5 0 7.6-1.5 7.6-3.2 0-1.7-1.4-2.6-8-2.6h-10v-12.7h10c4.5 0 7.2-1 7.2-2.4 0-2.2-3.3-3-7.8-3-4 0-9 1.3-12.5 4l-7-9c4.3-4.7 11.6-8 21-8 13.2 0 20.7 5.5 20.7 13.4 0 5-4.5 9.6-10.6 10.7 5.4.6 11.5 4.6 11.5 11.2 0 8.6-9 14.4-21.6 14.4-9.7 0-17.6-3-21.6-7.5zM223.4 587.2v-48h29.2c10 0 14.3 6.6 14.3 12.2 0 6-3.6 10-8.3 11 5.2.8 9 5.5 9 11.7 0 6.8-4.4 13-14 13h-30.3zM252 554c0-1.7-1.4-2.7-3-2.7h-11v5.6h11c1.7 0 3-1.3 3-3zm1 18c0-1.7-1.3-3-3.4-3H238v6h11.6c2 0 3.4-1.2 3.4-3z"/>
</svg>
