<svg xmlns="http://www.w3.org/2000/svg" viewBox="0 0 1280 728">
  <title>genplan-pins</title>
  <g>
    <path d="M721.2,597.4a12.8,12.8,0,0,1,12.8,12.8c0.1,7.9-10.3,14.4-12.8,19.2-2.2-4.8-12.8-11.1-12.8-19.2A12.8,12.8,0,0,1,721.2,597.4Z" fill="#0061a9"/>
    <path d="M723,603.9H717a0.5,0.5,0,0,0-.5.5v13.2a0.5,0.5,0,0,0,.5.5h2.3a0.5,0.5,0,0,0,.5-0.5V615H723A5.5,5.5,0,1,0,723,603.9Zm0,9.9h-3.7a0.5,0.5,0,0,0-.5.5V617h-1.1v-12H723A4.4,4.4,0,1,1,723,613.8Z" fill="#fff"/>
    <path d="M723,606h-3.7a0.5,0.5,0,0,0-.5.5v5.5a0.5,0.5,0,0,0,.5.5H723A3.3,3.3,0,1,0,723,606Zm0,5.6h-3.2v-4.3H723A2.2,2.2,0,1,1,723,611.6Z" fill="#fff"/>
  </g>
  <g>
    <path d="M643.6,409.2A12.8,12.8,0,0,1,656.4,422c0.1,7.9-10.3,14.4-12.8,19.2-2.2-4.8-12.8-11.1-12.8-19.2A12.8,12.8,0,0,1,643.6,409.2Z" fill="#0061a9"/>
    <path d="M645.4,415.7h-5.9a0.5,0.5,0,0,0-.5.5v13.2a0.5,0.5,0,0,0,.5.5h2.3a0.5,0.5,0,0,0,.5-0.5v-2.7h3.2A5.5,5.5,0,1,0,645.4,415.7Zm0,9.9h-3.7a0.5,0.5,0,0,0-.5.5v2.7h-1.1v-12h5.3A4.4,4.4,0,1,1,645.4,425.6Z" fill="#fff"/>
    <path d="M645.4,417.8h-3.7a0.5,0.5,0,0,0-.5.5v5.5a0.5,0.5,0,0,0,.5.5h3.7A3.3,3.3,0,1,0,645.4,417.8Zm0,5.6h-3.2v-4.3h3.2A2.2,2.2,0,1,1,645.4,423.4Z" fill="#fff"/>
  </g>
  <g>
    <path d="M722,321.9a12.8,12.8,0,0,1,12.8,12.8c0.1,7.9-10.3,14.4-12.8,19.2-2.2-4.8-12.8-11.1-12.8-19.2A12.8,12.8,0,0,1,722,321.9Z" fill="#0061a9"/>
    <path d="M723.8,328.4h-5.9a0.5,0.5,0,0,0-.5.5v13.2a0.5,0.5,0,0,0,.5.5h2.3a0.5,0.5,0,0,0,.5-0.5v-2.7h3.1A5.5,5.5,0,1,0,723.8,328.4Zm0,9.9h-3.7a0.5,0.5,0,0,0-.5.5v2.7h-1.1v-12h5.3A4.4,4.4,0,1,1,723.8,338.3Z" fill="#fff"/>
    <path d="M723.8,330.5h-3.7a0.5,0.5,0,0,0-.5.5v5.5a0.5,0.5,0,0,0,.5.5h3.7A3.3,3.3,0,1,0,723.8,330.5Zm0,5.6h-3.1v-4.3h3.1A2.2,2.2,0,1,1,723.8,336.1Z" fill="#fff"/>
  </g>
  <g>
    <path d="M792.5,245.1a12.8,12.8,0,0,1,12.8,12.8c0.1,7.9-10.3,14.4-12.8,19.2-2.2-4.8-12.8-11.1-12.8-19.2A12.8,12.8,0,0,1,792.5,245.1Z" fill="#0061a9"/>
    <path d="M794.3,251.6h-5.9a0.5,0.5,0,0,0-.5.5v13.2a0.5,0.5,0,0,0,.5.5h2.3a0.5,0.5,0,0,0,.5-0.5v-2.7h3.2A5.5,5.5,0,1,0,794.3,251.6Zm0,9.9h-3.7a0.5,0.5,0,0,0-.5.5v2.7H789v-12h5.3A4.4,4.4,0,1,1,794.3,261.5Z" fill="#fff"/>
    <path d="M794.3,253.7h-3.7a0.5,0.5,0,0,0-.5.5v5.5a0.5,0.5,0,0,0,.5.5h3.7A3.3,3.3,0,1,0,794.3,253.7Zm0,5.6h-3.2V255h3.2A2.2,2.2,0,1,1,794.3,259.3Z" fill="#fff"/>
  </g>
  <g>
    <path d="M838.6,128.2A12.8,12.8,0,0,1,851.4,141c0.1,7.9-10.3,14.4-12.8,19.2-2.2-4.8-12.8-11.1-12.8-19.2A12.8,12.8,0,0,1,838.6,128.2Z" fill="#0061a9"/>
    <path d="M840.4,134.7h-5.9a0.5,0.5,0,0,0-.5.5v13.2a0.5,0.5,0,0,0,.5.5h2.3a0.5,0.5,0,0,0,.5-0.5v-2.7h3.2A5.5,5.5,0,1,0,840.4,134.7Zm0,9.9h-3.7a0.5,0.5,0,0,0-.5.5v2.7h-1.1v-12h5.3A4.4,4.4,0,1,1,840.4,144.6Z" fill="#fff"/>
    <path d="M840.4,136.9h-3.7a0.5,0.5,0,0,0-.5.5v5.5a0.5,0.5,0,0,0,.5.5h3.7A3.3,3.3,0,1,0,840.4,136.9Zm0,5.6h-3.2v-4.3h3.2A2.2,2.2,0,1,1,840.4,142.5Z" fill="#fff"/>
  </g>
  <g>
    <path d="M693.4,117.8a12.8,12.8,0,0,1,12.8,12.8c0.1,7.9-10.3,14.4-12.8,19.2-2.2-4.8-12.8-11.1-12.8-19.2A12.8,12.8,0,0,1,693.4,117.8Z" fill="#0061a9"/>
    <path d="M695.2,124.3h-5.9a0.5,0.5,0,0,0-.5.5v13.2a0.5,0.5,0,0,0,.5.5h2.3a0.5,0.5,0,0,0,.5-0.5v-2.7h3.1A5.5,5.5,0,1,0,695.2,124.3Zm0,9.9h-3.7a0.5,0.5,0,0,0-.5.5v2.7h-1.1v-12h5.3A4.4,4.4,0,1,1,695.2,134.2Z" fill="#fff"/>
    <path d="M695.2,126.5h-3.7a0.5,0.5,0,0,0-.5.5v5.5a0.5,0.5,0,0,0,.5.5h3.7A3.3,3.3,0,1,0,695.2,126.5Zm0,5.6h-3.1v-4.3h3.1A2.2,2.2,0,1,1,695.2,132.1Z" fill="#fff"/>
  </g>
  <g>
    <path d="M537,112.3a12.8,12.8,0,0,1,12.8,12.8c0.1,7.9-10.3,14.4-12.8,19.2-2.2-4.8-12.8-11.1-12.8-19.2A12.8,12.8,0,0,1,537,112.3Z" fill="#0061a9"/>
    <path d="M538.8,118.8h-5.9a0.5,0.5,0,0,0-.5.5v13.2a0.5,0.5,0,0,0,.5.5h2.3a0.5,0.5,0,0,0,.5-0.5v-2.7h3.1A5.5,5.5,0,1,0,538.8,118.8Zm0,9.9h-3.7a0.5,0.5,0,0,0-.5.5v2.7h-1.1V120h5.3A4.4,4.4,0,1,1,538.8,128.7Z" fill="#fff"/>
    <path d="M538.8,121h-3.7a0.5,0.5,0,0,0-.5.5V127a0.5,0.5,0,0,0,.5.5h3.7A3.3,3.3,0,1,0,538.8,121Zm0,5.6h-3.1v-4.3h3.1A2.2,2.2,0,1,1,538.8,126.5Z" fill="#fff"/>
  </g>
  <g>
    <path d="M505.4,194.1a12.8,12.8,0,0,1,12.8,12.8c0.1,7.9-10.3,14.4-12.8,19.2-2.2-4.8-12.8-11.1-12.8-19.2A12.8,12.8,0,0,1,505.4,194.1Z" fill="#0061a9"/>
    <path d="M507.2,200.6h-5.9a0.5,0.5,0,0,0-.5.5v13.2a0.5,0.5,0,0,0,.5.5h2.3a0.5,0.5,0,0,0,.5-0.5v-2.7h3.2A5.5,5.5,0,1,0,507.2,200.6Zm0,9.9h-3.7a0.5,0.5,0,0,0-.5.5v2.7h-1.1v-12h5.3A4.4,4.4,0,1,1,507.2,210.5Z" fill="#fff"/>
    <path d="M507.2,202.7h-3.7a0.5,0.5,0,0,0-.5.5v5.5a0.5,0.5,0,0,0,.5.5h3.7A3.3,3.3,0,1,0,507.2,202.7Zm0,5.6h-3.2V204h3.2A2.2,2.2,0,1,1,507.2,208.3Z" fill="#fff"/>
  </g>
  <g>
    <path d="M484.8,284.1a12.8,12.8,0,0,1,12.8,12.8c0.1,7.9-10.3,14.4-12.8,19.2-2.2-4.8-12.8-11.1-12.8-19.2A12.8,12.8,0,0,1,484.8,284.1Z" fill="#0061a9"/>
    <path d="M486.6,290.6h-5.9a0.5,0.5,0,0,0-.5.5v13.2a0.5,0.5,0,0,0,.5.5h2.3a0.5,0.5,0,0,0,.5-0.5v-2.7h3.1A5.5,5.5,0,1,0,486.6,290.6Zm0,9.9h-3.7a0.5,0.5,0,0,0-.5.5v2.7h-1.1v-12h5.3A4.4,4.4,0,1,1,486.6,300.5Z" fill="#fff"/>
    <path d="M486.6,292.8h-3.7a0.5,0.5,0,0,0-.5.5v5.5a0.5,0.5,0,0,0,.5.5h3.7A3.3,3.3,0,1,0,486.6,292.8Zm0,5.6h-3.1V294h3.1A2.2,2.2,0,1,1,486.6,298.4Z" fill="#fff"/>
  </g>
  <g>
    <path d="M378.4,525.6a12.8,12.8,0,0,1,12.8,12.8c0.1,7.9-10.3,14.4-12.8,19.2-2.2-4.8-12.8-11.1-12.8-19.2A12.8,12.8,0,0,1,378.4,525.6Z" fill="#0061a9"/>
    <path d="M380.2,532.1h-5.9a0.5,0.5,0,0,0-.5.5v13.2a0.5,0.5,0,0,0,.5.5h2.3a0.5,0.5,0,0,0,.5-0.5v-2.7h3.1A5.5,5.5,0,1,0,380.2,532.1Zm0,9.9h-3.7a0.5,0.5,0,0,0-.5.5v2.7h-1.1v-12h5.3A4.4,4.4,0,1,1,380.2,542Z" fill="#fff"/>
    <path d="M380.2,534.3h-3.7a0.5,0.5,0,0,0-.5.5v5.5a0.5,0.5,0,0,0,.5.5h3.7A3.3,3.3,0,1,0,380.2,534.3Zm0,5.6H377v-4.3h3.1A2.2,2.2,0,1,1,380.2,539.8Z" fill="#fff"/>
  </g>
  <g>
    <path d="M249.8,381.7a12.8,12.8,0,0,1,12.8,12.8c0.1,7.9-10.3,14.4-12.8,19.2-2.2-4.8-12.8-11.1-12.8-19.2A12.8,12.8,0,0,1,249.8,381.7Z" fill="#0061a9"/>
    <path d="M251.6,388.2h-5.9a0.5,0.5,0,0,0-.5.5V402a0.5,0.5,0,0,0,.5.5h2.3a0.5,0.5,0,0,0,.5-0.5v-2.7h3.2A5.5,5.5,0,1,0,251.6,388.2Zm0,9.9h-3.7a0.5,0.5,0,0,0-.5.5v2.7h-1.1v-12h5.3A4.4,4.4,0,1,1,251.6,398.1Z" fill="#fff"/>
    <path d="M251.6,390.4h-3.7a0.5,0.5,0,0,0-.5.5v5.5a0.5,0.5,0,0,0,.5.5h3.7A3.3,3.3,0,1,0,251.6,390.4Zm0,5.6h-3.2v-4.3h3.2A2.2,2.2,0,1,1,251.6,396Z" fill="#fff"/>
  </g>
  <g>
    <path d="M600.2,466.9A12.8,12.8,0,0,1,613,479.7c0.1,7.9-10.3,14.4-12.8,19.2-2.2-4.8-12.8-11.1-12.8-19.2A12.8,12.8,0,0,1,600.2,466.9Z" fill="#0f9b51"/>
    <path d="M597.7,482.8v-6.5l-0.2-.2-0.2.2v6.5a2.7,2.7,0,0,1-2.3-2.7,10.6,10.6,0,0,1,2.5-6.3,10.3,10.3,0,0,1,2.5,6.3,2.6,2.6,0,0,1-2.3,2.7h0Zm6.9,0.7v-3.3l-0.2-.2-0.2.2v3.3a1.8,1.8,0,0,1-1.4-1.8,14.1,14.1,0,0,1,1.6-5.5,13.6,13.6,0,0,1,1.6,5.5,1.8,1.8,0,0,1-1.4,1.8h0Zm0.4-8.8a0.5,0.5,0,0,0-.5-0.3l-0.5.3c-0.1.2-2.2,4-2.2,7a2.9,2.9,0,0,0,2.2,2.9v1.8a0.5,0.5,0,1,0,1.1,0v-1.8a2.8,2.8,0,0,0,2.2-2.9c0.2-3.1-2-6.8-2.1-7h0Zm-7-2.2a0.7,0.7,0,0,0-.8,0c-0.2.2-3.3,3.4-3.3,7.6a4,4,0,0,0,3.1,3.9v2.4a0.5,0.5,0,1,0,1.1,0v-2.5a3.8,3.8,0,0,0,3.1-3.9C601.3,475.6,598.1,472.6,598,472.5Z" fill="#fff"/>
  </g>
  <g>
    <path d="M990.6,335.8a12.8,12.8,0,0,1,12.8,12.8c0.1,7.9-10.3,14.4-12.8,19.2-2.2-4.8-12.8-11.1-12.8-19.2A12.8,12.8,0,0,1,990.6,335.8Z" fill="#0f9b51"/>
    <path d="M988.1,351.7v-6.5l-0.2-.2-0.2.2v6.5a2.7,2.7,0,0,1-2.3-2.7,10.6,10.6,0,0,1,2.5-6.3,10.3,10.3,0,0,1,2.5,6.3,2.6,2.6,0,0,1-2.3,2.7h0Zm6.9,0.7v-3.3l-0.2-.2-0.2.2v3.3a1.8,1.8,0,0,1-1.4-1.8,14.1,14.1,0,0,1,1.6-5.5,13.6,13.6,0,0,1,1.6,5.5,1.8,1.8,0,0,1-1.4,1.8h0Zm0.4-8.8a0.5,0.5,0,0,0-.5-0.3l-0.5.3c-0.1.2-2.2,4.1-2.2,7a2.9,2.9,0,0,0,2.2,2.9v1.8a0.5,0.5,0,0,0,1.1,0v-1.8a2.8,2.8,0,0,0,2.2-2.9c0.2-3.1-2-6.8-2.1-7h0Zm-7-2.2a0.7,0.7,0,0,0-.8,0c-0.2.2-3.3,3.4-3.3,7.6a4,4,0,0,0,3.1,3.9v2.4a0.5,0.5,0,0,0,1.1,0v-2.5a3.8,3.8,0,0,0,3.1-3.9C991.7,344.5,988.5,341.6,988.4,341.4Z" fill="#fff"/>
  </g>
  <g>
    <path d="M577.9,172.1a12.8,12.8,0,0,1,12.8,12.8c0.1,7.9-10.3,14.4-12.8,19.2-2.2-4.8-12.8-11.1-12.8-19.2A12.8,12.8,0,0,1,577.9,172.1Z" fill="#fbb03b"/>
    <path d="M580.4,181.9l-1.4-2.6,4.2,2.6h-2.9Zm-4.1,0H580l-1.6-3h-0.2l-0.3.2-1.6,2.9h0Zm6.4,7V190h-8.9V189h8.9Zm-9.5-7,4.1-2.6-1.4,2.6h-2.7Zm12-.3-6.6-4h-0.6l-6.6,4a0.5,0.5,0,0,0-.3.5v0.4a0.5,0.5,0,0,0,.5.5h6v4.7h-4.5a0.5,0.5,0,0,0-.5.5v2.2a0.5,0.5,0,0,0,.5.5h10.1a0.5,0.5,0,0,0,.5-0.5v-2.2a0.5,0.5,0,0,0-.5-0.5h-4.5v-4.7h5.9a0.5,0.5,0,0,0,.5-0.5v-0.4C585.4,182,585.3,181.8,585.1,181.7Z" fill="#fff"/>
  </g>
  <g>
    <path d="M564.4,241a12.8,12.8,0,0,1,12.8,12.8c0.1,7.9-10.3,14.4-12.8,19.2-2.2-4.8-12.8-11.1-12.8-19.2A12.8,12.8,0,0,1,564.4,241Z" fill="#0f9b51"/>
    <path d="M569.5,250.5h-9.9v-0.8h9.9v0.8h0Zm0,1.3h-9.9v-0.9h9.9v0.9h0Zm0,1.3h-9.9v-0.9h9.9v0.9h0Zm0,1.2h-9.9v-0.8h9.9v0.8h0Zm2.4,0h-1.3v-5.1a0.5,0.5,0,0,0-.5-0.5H559.1a0.5,0.5,0,0,0-.5.5v5.1h-1.3a0.5,0.5,0,1,0,0,1.1h2l-0.6,3.2a0.6,0.6,0,0,0,.5.7h0.1a0.5,0.5,0,0,0,.5-0.4l0.7-3.3h8.5l0.7,3.3a0.6,0.6,0,0,0,.5.4h0.1a0.6,0.6,0,0,0,.5-0.7l-0.6-3.1h2a0.5,0.5,0,0,0,.5-0.5A0.6,0.6,0,0,0,572,254.3Z" fill="#fff"/>
  </g>
</svg>
