<svg xmlns="http://www.w3.org/2000/svg" xmlns:xlink="http://www.w3.org/1999/xlink" viewBox="0 0 1280 728">
  <title>pins</title>
  <image width="1280" height="728" xlink:href="pins1.png"/>
  <g>
    <path d="M719.5,600a14.2,14.2,0,0,1,14.2,14.2c0.1,8.8-11.4,16-14.2,21.3-2.4-5.3-14.2-12.3-14.2-21.3A14.2,14.2,0,0,1,719.5,600Z" fill="#0061a9"/>
    <path d="M721.5,607.2h-6.6a0.6,0.6,0,0,0-.6.6v14.7a0.6,0.6,0,0,0,.6.6h2.5a0.6,0.6,0,0,0,.6-0.6v-3h3.5A6.2,6.2,0,1,0,721.5,607.2Zm0,11h-4.1a0.6,0.6,0,0,0-.6.6v3h-1.2V608.5h5.9A4.9,4.9,0,1,1,721.5,618.2Z" fill="#fff"/>
    <path d="M721.5,609.6h-4.1a0.6,0.6,0,0,0-.6.6v6.1a0.6,0.6,0,0,0,.6.6h4.1A3.7,3.7,0,1,0,721.5,609.6Zm0,6.2H718V611h3.5A2.4,2.4,0,1,1,721.5,615.8Z" fill="#fff"/>
  </g>
  <g>
    <path d="M407.6,533.5a14.2,14.2,0,0,1,14.2,14.2c0.1,8.8-11.4,16-14.2,21.3-2.4-5.3-14.2-12.3-14.2-21.3A14.2,14.2,0,0,1,407.6,533.5Z" fill="#0061a9"/>
    <path d="M409.6,540.7H403a0.6,0.6,0,0,0-.6.6V556a0.6,0.6,0,0,0,.6.6h2.5a0.6,0.6,0,0,0,.6-0.6v-3h3.5A6.2,6.2,0,1,0,409.6,540.7Zm0,11h-4.1a0.6,0.6,0,0,0-.6.6v3h-1.2V542h5.9A4.9,4.9,0,1,1,409.6,551.7Z" fill="#fff"/>
    <path d="M409.6,543.1h-4.1a0.6,0.6,0,0,0-.6.6v6.1a0.6,0.6,0,0,0,.6.6h4.1A3.7,3.7,0,1,0,409.6,543.1Zm0,6.2h-3.5v-4.8h3.5A2.4,2.4,0,1,1,409.6,549.3Z" fill="#fff"/>
  </g>
  <g>
    <path d="M265.8,317A14.2,14.2,0,0,1,280,331.2c0.1,8.8-11.4,16-14.2,21.3-2.4-5.3-14.2-12.3-14.2-21.3A14.2,14.2,0,0,1,265.8,317Z" fill="#0061a9"/>
    <path d="M267.8,324.2h-6.6a0.6,0.6,0,0,0-.6.6v14.7a0.6,0.6,0,0,0,.6.6h2.5a0.6,0.6,0,0,0,.6-0.6v-3h3.5A6.2,6.2,0,1,0,267.8,324.2Zm0,11h-4.1a0.6,0.6,0,0,0-.6.6v3h-1.2V325.5h5.9A4.9,4.9,0,1,1,267.8,335.2Z" fill="#fff"/>
    <path d="M267.8,326.6h-4.1a0.6,0.6,0,0,0-.6.6v6.1a0.6,0.6,0,0,0,.6.6h4.1A3.7,3.7,0,1,0,267.8,326.6Zm0,6.2h-3.5V328h3.5A2.4,2.4,0,1,1,267.8,332.8Z" fill="#fff"/>
  </g>
  <g>
    <path d="M597.3,466.1a14.2,14.2,0,0,1,14.2,14.2c0.1,8.8-11.4,16-14.2,21.3-2.4-5.3-14.2-12.3-14.2-21.3A14.2,14.2,0,0,1,597.3,466.1Z" fill="#0f9b51"/>
    <path d="M594.6,483.8v-7.2a0.2,0.2,0,1,0-.4,0v7.2a3,3,0,0,1-2.6-3,11.7,11.7,0,0,1,2.8-7,11.5,11.5,0,0,1,2.8,7,2.9,2.9,0,0,1-2.6,3h0Zm7.7,0.8v-3.7a0.2,0.2,0,0,0-.2-0.2l-0.2.2v3.7a2,2,0,0,1-1.6-2,15.6,15.6,0,0,1,1.8-6.1,15.1,15.1,0,0,1,1.8,6.1,2,2,0,0,1-1.6,2h0Zm0.4-9.8a0.6,0.6,0,0,0-.6-0.3,0.9,0.9,0,0,0-.6.3c-0.1.2-2.5,4.5-2.5,7.8a3.3,3.3,0,0,0,2.4,3.2v2a0.6,0.6,0,0,0,1.2,0v-2a3.2,3.2,0,0,0,2.4-3.2c0.2-3.5-2.2-7.6-2.3-7.8h0Zm-7.8-2.5a0.7,0.7,0,0,0-.9,0c-0.2.2-3.7,3.8-3.7,8.5a4.4,4.4,0,0,0,3.4,4.3v2.7a0.6,0.6,0,0,0,1.2,0V485a4.2,4.2,0,0,0,3.4-4.3C598.5,475.8,595,472.5,594.9,472.3Z" fill="#fff"/>
  </g>
  <g>
    <path d="M985.6,331.5a14.2,14.2,0,0,1,14.2,14.2c0.1,8.8-11.4,16-14.2,21.3-2.4-5.3-14.2-12.3-14.2-21.3A14.2,14.2,0,0,1,985.6,331.5Z" fill="#0f9b51"/>
    <path d="M982.9,349.2V342a0.2,0.2,0,0,0-.4,0v7.2a3,3,0,0,1-2.6-3,11.7,11.7,0,0,1,2.8-7,11.5,11.5,0,0,1,2.8,7,2.9,2.9,0,0,1-2.6,3h0Zm7.7,0.8v-3.7a0.2,0.2,0,0,0-.2-0.2l-0.2.2V350a2,2,0,0,1-1.6-2,15.6,15.6,0,0,1,1.8-6.1,15.1,15.1,0,0,1,1.8,6.1,2,2,0,0,1-1.6,2h0Zm0.4-9.8a0.6,0.6,0,0,0-.6-0.3,0.9,0.9,0,0,0-.6.3c-0.1.2-2.5,4.5-2.5,7.8a3.3,3.3,0,0,0,2.4,3.2v2a0.6,0.6,0,0,0,1.2,0v-2a3.2,3.2,0,0,0,2.4-3.2c0.2-3.5-2.2-7.6-2.3-7.8h0Zm-7.8-2.5a0.7,0.7,0,0,0-.9,0c-0.2.2-3.7,3.8-3.7,8.5a4.4,4.4,0,0,0,3.4,4.3v2.7a0.6,0.6,0,1,0,1.2,0v-2.8a4.2,4.2,0,0,0,3.4-4.3C986.8,341.2,983.3,337.9,983.2,337.7Z" fill="#fff"/>
  </g>
  <g>
    <path d="M571.5,171.9a14.2,14.2,0,0,1,14.2,14.2c0.1,8.8-11.4,16-14.2,21.3-2.4-5.3-14.2-12.3-14.2-21.3A14.2,14.2,0,0,1,571.5,171.9Z" fill="#fbb03b"/>
    <path d="M574.3,182.8l-1.5-2.9,4.7,2.9h-3.2Zm-4.6,0h4.1l-1.8-3.3h-0.2l-0.3.2-1.8,3.2h0Zm7.1,7.8v1.2h-9.9v-1.2h9.9Zm-10.6-7.8,4.6-2.9-1.6,2.9h-3Zm13.3-.3-7.3-4.5h-0.7l-7.3,4.5a0.6,0.6,0,0,0-.3.6v0.4a0.6,0.6,0,0,0,.6.6h6.7v5.2h-5a0.6,0.6,0,0,0-.6.6v2.4a0.6,0.6,0,0,0,.6.6h11.2a0.6,0.6,0,0,0,.6-0.6v-2.4a0.6,0.6,0,0,0-.6-0.6h-5v-5.2H579a0.6,0.6,0,0,0,.6-0.6v-0.4C579.8,182.9,579.7,182.7,579.5,182.5Z" fill="#fff"/>
  </g>
  <g>
    <path d="M566.5,237.3a14.2,14.2,0,0,1,14.2,14.2c0.1,8.8-11.4,16-14.2,21.3-2.4-5.3-14.2-12.3-14.2-21.3A14.2,14.2,0,0,1,566.5,237.3Z" fill="#0f9b51"/>
    <path d="M572.2,247.9h-11V247h11v0.9h0Zm0,1.4h-11v-1h11v1h0Zm0,1.5h-11v-1h11v1h0Zm0,1.3h-11v-0.9h11v0.9h0Zm2.7,0h-1.4v-5.7a0.6,0.6,0,0,0-.6-0.6H560.6a0.5,0.5,0,0,0-.6.6v5.7h-1.5a0.6,0.6,0,0,0,0,1.2h2.2l-0.7,3.5a0.7,0.7,0,0,0,.5.8h0.1a0.6,0.6,0,0,0,.6-0.5l0.8-3.7h9.5l0.8,3.7a0.6,0.6,0,0,0,.6.5H573a0.6,0.6,0,0,0,.5-0.8l-0.7-3.4H575a0.6,0.6,0,0,0,.6-0.6A0.7,0.7,0,0,0,574.9,252.1Z" fill="#fff"/>
  </g>
</svg>
