<svg viewBox="0 0 3024.1 2073.5">
  <polygon data-id-flat="2034" class="hovered_flat_at_plan flat_plan_2" fill="#dddaee" fill-rule="evenodd" points="2007.6 78.6 2995 78.6 2995 945.6 2372.4 945.6 2372.4 983.3 2271.9 983.3 2271.9 945.6 2007.6 945.6 2007.6 78.6"/>
  <polygon data-id-flat="2035" class="hovered_flat_at_plan flat_plan_1" fill="#e3e3e3" points="2457.7 1053.1 2457.7 983.4 2639.3 983.4 2979.1 983.4 2983.5 983.4 2983.5 1882.5 3012.1 1882.5 3012.1 2073.5 2444.7 2073.5 2444.7 1939.4 2457.7 1939.4 2457.7 1153.7 2419.5 1153.7 2419.5 1053.1 2457.7 1053.1"/>
  <polygon data-id-flat="2036" class="hovered_flat_at_plan flat_plan_2" fill="#e1efe3" points="1999.4 1201.7 1999.4 1163.5 2099.6 1163.5 2099.6 1201.7 2101.6 1201.7 2101.6 1201.5 2419.7 1201.5 2419.7 1371.6 2432.5 1371.6 2432.5 2068.4 1476.6 2068.4 1476.6 1201.7 1999.4 1201.7"/>
  <polygon data-id-flat="2037" class="hovered_flat_at_plan flat_plan_2" fill="#dddaee" points="508.6 1201.5 823.5 1201.5 823.5 1201.7 838.5 1201.7 838.5 1163.5 938.5 1163.5 938.5 1201.7 1464.5 1201.7 1464.5 2068.4 508.6 2068.4 508.6 1201.5"/>
  <polygon data-id-flat="2039" class="hovered_flat_at_plan flat_plan_2" fill="#dff2fd" points="707.9 78.6 707.9 264.8 695.1 264.8 695.1 1024.4 732.9 1024.4 732.9 1124 695.1 1124 695.1 1163.7 483.6 1163.7 483.6 1939.2 496.5 1939.2 496.5 2068.4 44.9 2068.4 44.9 78.6 707.9 78.6"/>
  <polygon data-id-flat="2038" class="hovered_flat_at_plan flat_plan_1" fill="#e1efe3" points="720.1 78.6 1443.5 78.6 1443.5 733.6 1443.5 945.6 1128.5 945.6 1096 945.6 1096 983.3 996 983.3 996 945.6 732.9 945.6 732.9 264.9 720.1 264.9 720.1 78.6"/>
  <rect width="488" height="963" x="1481.6" y="20.4" fill="#f6f6f6"/>
  <rect width="1686.8" height="180.1" x="732.9" y="983.4" fill="#f6f6f6"/>
  <g fill="none" stroke="#000" stroke-width=".3" stroke-miterlimit="10">
    <rect width="4.9" height="96.3" x="2912.8" y="218.9"/>
    <rect width="3.9" height="11.2" x="2917.7" y="207.7"/>
    <path d="M2821.4 219a96.3 96.3 0 0 0 96.3 96.2"/>
  </g>
  <g fill="none" stroke="#000" stroke-width=".3" stroke-miterlimit="10">
    <rect width="4.9" height="96.3" x="2275.4" y="218.9"/>
    <rect width="3.9" height="11.2" x="2280.3" y="207.7"/>
    <path d="M2184 219a96.3 96.3 0 0 0 96.3 96.2"/>
  </g>
  <g fill="none" stroke="#000" stroke-width=".3" stroke-miterlimit="10">
    <rect width="96.3" height="4.9" x="2604" y="646.9"/>
    <rect width="11.2" height="3.9" x="2700.3" y="651.8"/>
    <path d="M2700.3 555.4a96.3 96.3 0 0 0-96.3 96.3"/>
  </g>
  <g fill="none" stroke="#000" stroke-width=".3" stroke-miterlimit="10">
    <rect width="96.3" height="4.9" x="2221.8" y="646.9"/>
    <rect width="11.2" height="3.9" x="2318" y="651.8"/>
    <path d="M2318 555.4a96.3 96.3 0 0 0-96.3 96.3"/>
  </g>
  <g fill="none" stroke="#000" stroke-width=".3" stroke-miterlimit="10">
    <rect width="86.3" height="4.9" x="2261.6" y="783.7"/>
    <rect width="11.2" height="3.9" x="2250.4" y="779.9"/>
    <path d="M2261.6 870a86.3 86.3 0 0 0 86.3-86.4"/>
  </g>
  <g fill="none" stroke="#000" stroke-width=".3" stroke-miterlimit="10">
    <rect width="86.2" height="4.9" x="2553.9" y="1140.4"/>
    <rect width="11.2" height="3.9" x="2640.2" y="1145.3"/>
    <path d="M2640.2 1059a86.3 86.3 0 0 0-86.2 86.3"/>
  </g>
  <g fill="none" stroke="#000" stroke-width=".3" stroke-miterlimit="10">
    <rect width="4.9" height="96.6" x="2090.9" y="1067"/>
    <rect width="3.9" height="11.2" x="2095.8" y="1163.6"/>
    <path d="M1999.2 1163.6a96.6 96.6 0 0 1 96.6-96.6"/>
  </g>
  <g fill="none" stroke="#000" stroke-width=".3" stroke-miterlimit="10">
    <rect width="96.1" height="4.9" x="1150.9" y="1424.6"/>
    <rect width="11.2" height="3.9" x="1139.7" y="1420.7"/>
    <path d="M1151 1520.6a96 96 0 0 0 96-96"/>
  </g>
  <g fill="none" stroke="#000" stroke-width=".3" stroke-miterlimit="10">
    <rect width="4.9" height="96.1" x="999.9" y="983.3"/>
    <rect width="3.9" height="11.2" x="996" y="972.1"/>
    <path d="M1096 983.3a96 96 0 0 1-96 96"/>
  </g>
  <g fill="none" stroke="#000" stroke-width=".3" stroke-miterlimit="10">
    <rect width="86.3" height="4.9" x="1043.2" y="789.6"/>
    <rect width="11.2" height="3.9" x="1129.4" y="785.8"/>
    <path d="M1129.4 876a86.3 86.3 0 0 1-86.3-86.4"/>
  </g>
  <g fill="none" stroke="#000" stroke-width=".3" stroke-miterlimit="10">
    <rect width="86.3" height="4.9" x="1139.6" y="712.8"/>
    <rect width="11.2" height="3.9" x="1128.5" y="717.7"/>
    <path d="M1139.6 631.4a86.3 86.3 0 0 1 86.3 86.3"/>
  </g>
  <g fill="none" stroke="#000" stroke-width=".3" stroke-miterlimit="10">
    <rect width="4.9" height="96.1" x="842.4" y="1067.9"/>
    <rect width="3.9" height="11.2" x="838.5" y="1163.9"/>
    <path d="M938.5 1164a96 96 0 0 0-96-96.2"/>
  </g>
  <g fill="none" stroke="#000" stroke-width=".3" stroke-miterlimit="10">
    <rect width="96.1" height="4.9" x="732.8" y="1028.2"/>
    <rect width="11.2" height="3.9" x="721.6" y="1024.4"/>
    <path d="M732.8 1124.3a96 96 0 0 0 96-96"/>
  </g>
  <g fill="none" stroke="#000" stroke-width=".3" stroke-miterlimit="10">
    <rect width="86.2" height="4.9" x="726.2" y="1362.9"/>
    <rect width="11.2" height="3.9" x="812.4" y="1367.7"/>
    <path d="M812.4 1281.5a86.2 86.2 0 0 0-86.2 86.2"/>
  </g>
  <g fill="none" stroke="#000" stroke-width=".3" stroke-miterlimit="10">
    <rect width="4.9" height="86.5" x="1023.3" y="1411.7"/>
    <rect width="3.9" height="11.2" x="1019.5" y="1400.5"/>
    <path d="M1109.8 1411.7a86.5 86.5 0 0 1-86.5 86.5"/>
  </g>
  <g fill="none" stroke="#000" stroke-width=".3" stroke-miterlimit="10">
    <rect width="4.9" height="96.3" x="911.3" y="1572.8"/>
    <rect width="3.9" height="11.2" x="907.4" y="1561.6"/>
    <path d="M1007.6 1572.8a96.3 96.3 0 0 1-96.3 96.3"/>
  </g>
  <g fill="none" stroke="#000" stroke-width=".3" stroke-miterlimit="10">
    <rect width="96.3" height="4.9" x="716.1" y="1447.6"/>
    <rect width="11.2" height="3.9" x="812.4" y="1443.7"/>
    <path d="M812.4 1543.8a96.3 96.3 0 0 1-96.3-96.3"/>
  </g>
  <g fill="none" stroke="#000" stroke-width=".3" stroke-miterlimit="10">
    <rect width="96.1" height="4.9" x="1694.1" y="1424.6"/>
    <rect width="11.2" height="3.9" x="1790.2" y="1420.7"/>
    <path d="M1790.2 1520.6a96 96 0 0 1-96-96"/>
  </g>
  <g fill="none" stroke="#000" stroke-width=".3" stroke-miterlimit="10">
    <rect width="4.9" height="96.1" x="1748" y="1823.9"/>
    <rect width="3.9" height="11.2" x="1752.9" y="1920"/>
    <path d="M1656.8 1920a96 96 0 0 1 96-96"/>
  </g>
  <g fill="none" stroke="#000" stroke-width=".3" stroke-miterlimit="10">
    <rect width="4.9" height="96.1" x="2163.9" y="1823.9"/>
    <rect width="3.9" height="11.2" x="2160" y="1920"/>
    <path d="M2260 1920a96 96 0 0 0-96-96"/>
  </g>
  <g fill="none" stroke="#000" stroke-width=".3" stroke-miterlimit="10">
    <rect width="4.9" height="96.1" x="2026" y="1878.6"/>
    <rect width="3.9" height="11.2" x="2030.9" y="1974.7"/>
    <path d="M1934.8 1974.6a96 96 0 0 1 96-96"/>
  </g>
  <g fill="none" stroke="#000" stroke-width=".3" stroke-miterlimit="10">
    <rect width="4.9" height="96.1" x="1188.2" y="1823.9"/>
    <rect width="3.9" height="11.2" x="1184.4" y="1920"/>
    <path d="M1284.3 1920a96 96 0 0 0-96-96"/>
  </g>
  <g fill="none" stroke="#000" stroke-width=".3" stroke-miterlimit="10">
    <rect width="4.9" height="96.1" x="772.3" y="1823.9"/>
    <rect width="3.9" height="11.2" x="777.2" y="1920"/>
    <path d="M681.2 1920a96 96 0 0 1 96-96"/>
  </g>
  <g fill="none" stroke="#000" stroke-width=".3" stroke-miterlimit="10">
    <rect width="4.9" height="96.1" x="939.8" y="1878.6"/>
    <rect width="3.9" height="11.2" x="936" y="1974.7"/>
    <path d="M1036 1974.6a96 96 0 0 0-96.2-96"/>
  </g>
  <g fill="none" stroke="#000" stroke-width=".3" stroke-miterlimit="10">
    <rect width="86.2" height="4.9" x="2128.8" y="1362.9"/>
    <rect width="11.2" height="3.9" x="2117.6" y="1367.7"/>
    <path d="M2128.8 1281.5a86.2 86.2 0 0 1 86.2 86.2"/>
  </g>
  <g fill="none" stroke="#000" stroke-width=".3" stroke-miterlimit="10">
    <rect width="4.9" height="86.5" x="1912.9" y="1411.7"/>
    <rect width="3.9" height="11.2" x="1917.8" y="1400.5"/>
    <path d="M1831.3 1411.7a86.5 86.5 0 0 0 86.5 86.5"/>
  </g>
  <g fill="none" stroke="#000" stroke-width=".3" stroke-miterlimit="10">
    <rect width="4.9" height="96.3" x="2025" y="1572.8"/>
    <rect width="3.9" height="11.2" x="2029.9" y="1561.6"/>
    <path d="M1933.6 1572.8a96.3 96.3 0 0 0 96.3 96.3"/>
  </g>
  <g fill="none" stroke="#000" stroke-width=".3" stroke-miterlimit="10">
    <rect width="96.3" height="4.9" x="2128.8" y="1447.6"/>
    <rect width="11.2" height="3.9" x="2117.6" y="1443.7"/>
    <path d="M2128.8 1543.8a96.3 96.3 0 0 0 96.3-96.3"/>
  </g>
  <g fill="none" stroke="#000" stroke-width=".3" stroke-miterlimit="10">
    <rect width="85.9" height="4.9" x="362.7" y="979.7"/>
    <rect width="11.2" height="3.9" x="351.5" y="984.6"/>
    <path d="M362.7 898.6a86 86 0 0 1 86 86"/>
  </g>
  <g fill="none" stroke="#000" stroke-width=".3" stroke-miterlimit="10">
    <rect width="85.9" height="4.9" x="398.4" y="867.1"/>
    <rect width="11.2" height="3.9" x="484.3" y="872"/>
    <path d="M484.3 786a86 86 0 0 0-86 86"/>
  </g>
  <g fill="none" stroke="#000" stroke-width=".3" stroke-miterlimit="10">
    <rect width="4.9" height="95.8" x="379.4" y="663.9"/>
    <rect width="3.9" height="11.2" x="375.5" y="759.6"/>
    <path d="M475 759.6a95.8 95.8 0 0 0-95.7-95.8"/>
  </g>
  <g fill="none" stroke="#000" stroke-width=".3" stroke-miterlimit="10">
    <rect width="4.9" height="95.8" x="972.9" y="219"/>
    <rect width="3.9" height="11.2" x="977.8" y="207.8"/>
    <path d="M882 219a95.8 95.8 0 0 0 95.8 95.7"/>
  </g>
  <g fill="none" stroke="#000" stroke-width=".3" stroke-miterlimit="10">
    <rect width="4.9" height="95.8" x="647.3" y="219"/>
    <rect width="3.9" height="11.2" x="652.1" y="207.8"/>
    <path d="M556.4 219a95.8 95.8 0 0 0 95.8 95.7"/>
  </g>
  <g fill="none" stroke="#000" stroke-width=".3" stroke-miterlimit="10">
    <rect width="95.3" height="4.9" x="256.9" y="867.1"/>
    <rect width="11.2" height="3.9" x="352.2" y="872"/>
    <path d="M352.2 776.6A95.3 95.3 0 0 0 257 872"/>
  </g>
  <g fill="none" stroke="#000" stroke-width=".3" stroke-miterlimit="10">
    <rect width="96.7" height="4.9" x="2322.9" y="1144.9"/>
    <rect width="11.2" height="3.9" x="2419.5" y="1149.8"/>
    <path d="M2419.5 1053a96.7 96.7 0 0 0-96.7 96.8"/>
  </g>
  <g fill="none" stroke="#000" stroke-width=".3" stroke-miterlimit="10">
    <rect width="4.9" height="96.7" x="2727.3" y="1831.5"/>
    <rect width="3.9" height="11.2" x="2732.2" y="1928.2"/>
    <path d="M2635.5 1928.2a96.7 96.7 0 0 1 96.7-96.7"/>
  </g>
  <g fill="none" stroke="#000" stroke-width=".3" stroke-miterlimit="10">
    <rect width="4.9" height="96.7" x="355.3" y="1831.5"/>
    <rect width="3.9" height="11.2" x="360.1" y="1928.2"/>
    <path d="M263.5 1928.2a96.7 96.7 0 0 1 96.7-96.7"/>
  </g>
  <g fill="none" stroke="#000" stroke-width=".3" stroke-miterlimit="10">
    <rect width="4.9" height="96.7" x="2363.6" y="875.5"/>
    <rect width="3.9" height="11.2" x="2368.5" y="972.1"/>
    <path d="M2272 972a96.7 96.7 0 0 1 96.6-96.6"/>
  </g>
  <g fill="none" stroke="#000" stroke-width=".3" stroke-miterlimit="10">
    <rect width="86.3" height="4.9" x="2614" y="783.7"/>
    <rect width="11.2" height="3.9" x="2700.3" y="779.9"/>
    <path d="M2700.3 870a86.3 86.3 0 0 1-86.3-86.4"/>
  </g>
  <rect width="44.9" height="2000" y="73.5" fill="#003d58"/>
  <rect width="44.9" height="452" x="2979.1" y="73.5" fill="#003d58"/>
  <rect width="44.9" height="656.4" x="2979.1" y="675.7" fill="#003d58"/>
  <rect width="44.9" height="591.5" x="2979.1" y="1482" fill="#003d58"/>
  <rect width="138.3" height="45.2" x="2885.7" y="1894.2" fill="#003d58"/>
  <rect width="38.1" height="785.7" x="2419.5" y="1153.7" fill="#003d58"/>
  <rect width="320" height="38" x="2099.7" y="1163.5" fill="#003d58"/>
  <rect width="509.9" height="38.1" x="1489.6" y="1163.5" fill="#003d58"/>
  <rect width="176.8" height="44.9" x="1756.8" y="1961.7" fill="#003d58"/>
  <rect width="82.9" height="44.9" x="2034.7" y="1961.7" fill="#003d58"/>
  <rect width="44.9" height="112.3" x="1756.8" y="1894.3" fill="#003d58"/>
  <rect width="44.9" height="112.3" x="2117.6" y="1894.3" fill="#003d58"/>
  <rect width="147.3" height="44.9" x="1037.1" y="1961.7" fill="#003d58"/>
  <rect width="112.4" height="44.9" x="823.5" y="1961.7" fill="#003d58"/>
  <rect width="44.9" height="112.3" x="1139.5" y="1894.3" fill="#003d58"/>
  <rect width="44.9" height="112.3" x="778.6" y="1894.3" fill="#003d58"/>
  <rect width="606.7" height="37.8" x="2372.4" y="945.6" fill="#003d58"/>
  <rect width="38.1" height="70" x="2419.5" y="983.4" fill="#003d58"/>
  <rect width="11.9" height="75.7" x="2639.5" y="983.4" fill="#003d58"/>
  <rect width="11.7" height="75.7" x="2699.8" y="869.9" fill="#003d58"/>
  <rect width="267.6" height="12" x="2711.5" y="735.5" fill="#003d58"/>
  <rect width="12.1" height="124.2" x="2699.3" y="655.6" fill="#003d58"/>
  <rect width="57.5" height="45" x="2921.5" y="207.7" fill="#003d58"/>
  <rect width="150" height="45" x="2671.4" y="207.7" fill="#003d58"/>
  <rect width="45" height="112.3" x="2626.3" y="140.4" fill="#003d58"/>
  <rect width="297.1" height="45" x="2329.2" y="140.3" fill="#003d58"/>
  <rect width="115.4" height="45" x="2007.6" y="207.6" fill="#003d58"/>
  <rect width="45" height="112.3" x="2284.2" y="140.4" fill="#003d58"/>
  <rect width="12.1" height="302.8" x="2317.1" y="252.6" fill="#003d58"/>
  <rect width="321.6" height="12.1" x="2007.6" y="735.5" fill="#003d58"/>
  <rect width="12.1" height="79.8" x="2317.1" y="655.6" fill="#003d58"/>
  <rect width="11.9" height="32.3" x="2250.4" y="747.6" fill="#003d58"/>
  <rect width="264.8" height="37.8" x="2007.6" y="945.6" fill="#003d58"/>
  <rect width="12" height="75.7" x="2250.3" y="869.9" fill="#003d58"/>
  <rect width="38" height="983.4" x="1969.7" fill="#003d58"/>
  <rect width="176.7" height="37.8" x="1792.9" y="945.6" fill="#003d58"/>
  <rect width="119.9" height="37.8" x="1481.6" y="945.6" fill="#003d58"/>
  <rect width="38.1" height="983.4" x="1443.5" fill="#003d58"/>
  <rect width="45.2" height="111.6" x="1095.4" y="141.1" fill="#003d58"/>
  <rect width="11.9" height="378.9" x="1128.7" y="252.7" fill="#003d58"/>
  <rect width="315.1" height="12.1" x="1128.5" y="721.4" fill="#003d58"/>
  <rect width="12.1" height="52.2" x="1128.5" y="733.6" fill="#003d58"/>
  <rect width="347.5" height="37.8" x="1096" y="945.6" fill="#003d58"/>
  <rect width="12.1" height="70" x="1128.5" y="875.6" fill="#003d58"/>
  <rect width="263.1" height="37.8" x="732.9" y="945.6" fill="#003d58"/>
  <rect width="12" height="132.1" x="924" y="813.5" fill="#003d58"/>
  <rect width="60" height="12.1" x="936" y="813.5" fill="#003d58"/>
  <rect width="173.2" height="44.9" x="1384" y="1894.3" fill="#003d58"/>
  <rect width="38" height="775.7" x="1451.6" y="1163.5" fill="#003d58"/>
  <rect width="513.1" height="38.1" x="938.5" y="1163.5" fill="#003d58"/>
  <rect width="12.1" height="302.6" x="2699.3" y="252.8" fill="#003d58"/>
  <rect width="64.1" height="44.9" x="656" y="207.8" fill="#003d58"/>
  <rect width="64.1" height="44.9" x="707.9" y="207.8" fill="#003d58"/>
  <rect width="37.8" height="771.7" x="695.1" y="252.7" fill="#003d58"/>
  <rect width="11.9" height="111.8" x="483.6" y="875.8" fill="#003d58"/>
  <rect width="199.6" height="12.1" x="495.5" y="915.7" fill="#003d58"/>
  <rect width="219.6" height="12.1" x="475.4" y="758.7" fill="#003d58"/>
  <rect width="11.9" height="15" x="483.6" y="770.8" fill="#003d58"/>
  <rect width="113.7" height="44.9" x="981.6" y="207.8" fill="#003d58"/>
  <rect width="45.2" height="111.6" x="351.5" y="141.1" fill="#003d58"/>
  <rect width="87.3" height="44.9" x="396.7" y="207.8" fill="#003d58"/>
  <rect width="11.9" height="523.2" x="351.5" y="252.7" fill="#003d58"/>
  <rect width="12.1" height="12.1" x="363.4" y="758.7" fill="#003d58"/>
  <rect width="11.9" height="22.6" x="351.5" y="875.8" fill="#003d58"/>
  <rect width="306.6" height="12.1" x="44.9" y="881.5" fill="#003d58"/>
  <rect width="194.3" height="12.1" x="44.9" y="660.3" fill="#003d58"/>
  <rect width="12.1" height="350.5" x="811.4" y="1543.9" fill="#003d58"/>
  <rect width="37.8" height="775.7" x="483.6" y="1163.7" fill="#003d58"/>
  <rect width="317" height="38" x="521.5" y="1163.7" fill="#003d58"/>
  <rect width="12.1" height="79.9" x="811.4" y="1201.7" fill="#003d58"/>
  <rect width="37.8" height="39.4" x="695.1" y="1124.3" fill="#003d58"/>
  <rect width="11.9" height="219.1" x="1139.8" y="1201.7" fill="#003d58"/>
  <rect width="30.2" height="12.1" x="1109.5" y="1399.6" fill="#003d58"/>
  <rect width="21" height="12.1" x="998.5" y="1399.6" fill="#003d58"/>
  <rect width="12" height="210.2" x="986.5" y="1201.5" fill="#003d58"/>
  <rect width="302.1" height="11.9" x="521.5" y="1371.6" fill="#003d58"/>
  <rect width="12.1" height="68" x="811.4" y="1383.5" fill="#003d58"/>
  <rect width="83.9" height="12" x="823.5" y="1561.6" fill="#003d58"/>
  <rect width="131.8" height="12" x="1007.6" y="1561.6" fill="#003d58"/>
  <rect width="12.1" height="374.9" x="1139.5" y="1520.7" fill="#003d58"/>
  <rect width="12.1" height="342.9" x="2117.6" y="1551.5" fill="#003d58"/>
  <rect width="12.1" height="129" x="2432.5" y="1939.4" fill="#003d58"/>
  <rect width="12.1" height="129" x="496.5" y="1939.4" fill="#003d58"/>
  <rect width="12.1" height="129" x="707.9" y="78.8" fill="#003d58"/>
  <rect width="12.1" height="129" x="1464.5" y="1939.4" fill="#003d58"/>
  <rect width="12.1" height="79.9" x="2117.6" y="1201.7" fill="#003d58"/>
  <rect width="11.9" height="219.1" x="1789.5" y="1201.7" fill="#003d58"/>
  <rect width="30.2" height="12.1" x="1801.4" y="1399.6" fill="#003d58"/>
  <rect width="21" height="12.1" x="1921.7" y="1399.6" fill="#003d58"/>
  <rect width="12" height="210.2" x="1942.6" y="1201.5" fill="#003d58"/>
  <rect width="302.1" height="11.9" x="2117.6" y="1371.6" fill="#003d58"/>
  <rect width="12.1" height="68" x="2117.6" y="1383.5" fill="#003d58"/>
  <rect width="83.9" height="12" x="2033.8" y="1561.6" fill="#003d58"/>
  <rect width="131.8" height="12" x="1801.7" y="1561.6" fill="#003d58"/>
  <rect width="12.1" height="374.9" x="1789.5" y="1520.7" fill="#003d58"/>
  <rect width="130.7" height="40.1" x="44.9" y="1075.5" fill="#003d58"/>
  <rect width="11.9" height="175.2" x="351.5" y="988.5" fill="#003d58"/>
  <rect width="306.6" height="11.9" x="44.9" y="1063.6" fill="#003d58"/>
  <rect width="11.9" height="86.8" x="351.5" y="1252.6" fill="#003d58"/>
  <rect width="306.6" height="11.9" x="44.9" y="1290.1" fill="#003d58"/>
  <rect width="327.8" height="11.9" x="2651.3" y="1165.5" fill="#003d58"/>
  <rect width="392" height="11.9" x="2587.1" y="1573.5" fill="#003d58"/>
  <rect width="39.4" height="11.9" x="2457.7" y="1573.5" fill="#003d58"/>
  <rect width="11.9" height="76.5" x="2639.5" y="1149.1" fill="#003d58"/>
  <rect width="11.9" height="234.3" x="2639.5" y="1339.2" fill="#003d58"/>
  <rect width="971.5" height="5.1" x="2007.6" y="73.5" fill="#717071"/>
  <rect width="729.5" height="5.1" x="714" y="73.5" fill="#717071"/>
  <rect width="669.1" height="5.1" x="44.9" y="73.5" fill="#717071"/>
  <rect width="2934.2" height="5.1" x="44.9" y="2068.4" fill="#717071"/>
  <g fill="none" stroke="#000" stroke-width=".3" stroke-miterlimit="10">
    <rect width="119.8" height="30.3" x="1849.8" y="365.6"/>
    <rect width="119.8" height="30.3" x="1849.8" y="395.9"/>
    <rect width="119.8" height="30.3" x="1849.8" y="426.2"/>
    <rect width="119.8" height="30.3" x="1849.8" y="456.5"/>
    <rect width="119.8" height="30.3" x="1849.8" y="486.8"/>
    <rect width="119.8" height="30.3" x="1849.8" y="517.1"/>
    <rect width="119.8" height="30.3" x="1849.8" y="547.4"/>
    <rect width="119.8" height="30.3" x="1849.8" y="577.7"/>
    <rect width="119.8" height="30.3" x="1849.8" y="608"/>
    <rect width="119.8" height="30.3" x="1849.8" y="638.3"/>
    <rect width="119.8" height="30.3" x="1849.8" y="668.6"/>
  </g>
  <g fill="none" stroke="#000" stroke-width=".3" stroke-miterlimit="10">
    <rect width="119.8" height="30.3" x="1481.7" y="365.4"/>
    <rect width="119.8" height="30.3" x="1481.7" y="395.7"/>
    <rect width="119.8" height="30.3" x="1481.7" y="426"/>
    <rect width="119.8" height="30.3" x="1481.7" y="456.3"/>
    <rect width="119.8" height="30.3" x="1481.7" y="486.6"/>
    <rect width="119.8" height="30.3" x="1481.7" y="516.9"/>
    <rect width="119.8" height="30.3" x="1481.7" y="547.2"/>
    <rect width="119.8" height="30.3" x="1481.7" y="577.5"/>
    <rect width="119.8" height="30.3" x="1481.7" y="607.8"/>
    <rect width="119.8" height="30.3" x="1481.7" y="638"/>
    <rect width="119.8" height="30.3" x="1481.7" y="668.3"/>
  </g>
  <rect width="179.9" height="269.6" x="1635.9" y="390.3" fill="none" stroke="#000" stroke-width=".3" stroke-miterlimit="10"/>
  <rect width="165.9" height="255.4" x="1642.8" y="397.4" fill="none" stroke="#000" stroke-width=".3" stroke-miterlimit="10"/>
  <g fill="none" stroke="#000" stroke-width=".3" stroke-miterlimit="10">
    <rect width="5" height="85.6" x="1605.5" y="867.4"/>
    <rect width="4" height="11.4" x="1601.5" y="953.1"/>
    <path d="M1605.5 867.4a91.8 91.8 0 0 1 91.8 91.8"/>
  </g>
  <g fill="none" stroke="#000" stroke-width=".3" stroke-miterlimit="10">
    <rect width="5" height="85.6" x="1784" y="867.4"/>
    <rect width="4" height="11.4" x="1789" y="953.1"/>
    <path d="M1789 867.4a91.7 91.7 0 0 0-91.7 91.8"/>
  </g>
  <rect width="76.8" height="26.2" x="1764.9" y="659.5" fill="#003d58"/>
  <rect width="24.9" height="294" x="1816.9" y="365.5" fill="#003d58"/>
  <rect width="204.3" height="24.9" x="1612.6" y="365.5" fill="#003d58"/>
  <rect width="24.9" height="293.7" x="1612.6" y="390.4" fill="#003d58"/>
  <rect width="30.8" height="24.6" x="1637.5" y="659.5" fill="#003d58"/>
  <rect width="117.3" height="20.4" x="1852.3" y="156.8" fill="#003d58"/>
  <rect width="50.1" height="20.4" x="1919.5" fill="#003d58"/>
  <rect width="50.3" height="20.4" x="1481.6" fill="#003d58"/>
  <rect width="117.3" height="20.4" x="1481.7" y="156.8" fill="#003d58"/>
  <g fill="none" stroke="#000" stroke-width=".3" stroke-miterlimit="10">
    <rect width="5" height="95.3" x="1603" y="70.3"/>
    <rect width="4" height="11.5" x="1599" y="165.6"/>
    <path d="M1698.4 165.6a95.3 95.3 0 0 0-95.4-95.3"/>
  </g>
  <g fill="#fff" stroke="#000" stroke-width=".3" stroke-miterlimit="10">
    <rect width="153.9" height="16.1" x="1698.4" y="161.1"/>
    <rect width="153.9" height="4.8" x="1698.4" y="168.4"/>
  </g>
  <g fill="#fff" stroke="#000" stroke-width=".3" stroke-miterlimit="10">
    <rect width="387.5" height="16.1" x="1532" y="4.3"/>
    <rect width="387.5" height="4.8" x="1532" y="11.6"/>
  </g>
  <g fill="#fff" stroke="#000" stroke-width=".3" stroke-miterlimit="10">
    <rect width="31.8" height="149.9" x="2979.1" y="1332.1"/>
    <rect width="8.1" height="149.9" x="3016" y="1332.1"/>
    <rect width="5.1" height="149.9" x="3010.9" y="1332.1"/>
    <rect width="2.5" height="149.9" x="3002.1" y="1332.1"/>
  </g>
  <g fill="#fff" stroke="#000" stroke-width=".3" stroke-miterlimit="10">
    <rect width="149.6" height="31.8" x="2736" y="1894.3"/>
    <rect width="149.6" height="8.1" x="2736" y="1931.2"/>
    <rect width="149.6" height="5.1" x="2736" y="1926.1"/>
    <rect width="149.6" height="2.5" x="2736" y="1917.3"/>
  </g>
  <g fill="#fff" stroke="#000" stroke-width=".3" stroke-miterlimit="10">
    <rect width="177.8" height="31.8" x="2457.7" y="1894.3"/>
    <rect width="177.8" height="8.1" x="2457.7" y="1931.2"/>
    <rect width="177.8" height="5.1" x="2457.7" y="1926.1"/>
    <rect width="177.8" height="2.5" x="2457.7" y="1917.3"/>
  </g>
  <g fill="#fff" stroke="#000" stroke-width=".3" stroke-miterlimit="10">
    <rect width="119.6" height="31.8" x="364" y="1894.3"/>
    <rect width="119.6" height="8.1" x="364" y="1931.2"/>
    <rect width="119.6" height="5.1" x="364" y="1926.1"/>
    <rect width="119.6" height="2.5" x="364" y="1917.3"/>
  </g>
  <g fill="#fff" stroke="#000" stroke-width=".3" stroke-miterlimit="10">
    <rect width="218.6" height="31.8" x="44.9" y="1894.3"/>
    <rect width="218.6" height="8.1" x="44.9" y="1931.2"/>
    <rect width="218.6" height="5.1" x="44.9" y="1926.1"/>
    <rect width="218.6" height="2.5" x="44.9" y="1917.3"/>
  </g>
  <g fill="#fff" stroke="#000" stroke-width=".3" stroke-miterlimit="10">
    <rect width="159.5" height="31.8" x="2260" y="1894.3"/>
    <rect width="159.5" height="8.1" x="2260" y="1931.2"/>
    <rect width="159.5" height="5.1" x="2260" y="1926.1"/>
    <rect width="159.5" height="2.5" x="2260" y="1917.3"/>
  </g>
  <g fill="#fff" stroke="#000" stroke-width=".3" stroke-miterlimit="10">
    <rect width="99.7" height="31.8" x="1557.2" y="1894.3"/>
    <rect width="99.7" height="8.1" x="1557.2" y="1931.2"/>
    <rect width="99.7" height="5.1" x="1557.2" y="1926.1"/>
    <rect width="99.7" height="2.5" x="1557.2" y="1917.3"/>
  </g>
  <g fill="#fff" stroke="#000" stroke-width=".3" stroke-miterlimit="10">
    <rect width="159.5" height="31.8" x="521.6" y="1894.3"/>
    <rect width="159.5" height="8.1" x="521.6" y="1931.2"/>
    <rect width="159.5" height="5.1" x="521.6" y="1926.1"/>
    <rect width="159.5" height="2.5" x="521.6" y="1917.3"/>
  </g>
  <g fill="#fff" stroke="#000" stroke-width=".3" stroke-miterlimit="10">
    <rect width="99.7" height="31.8" x="1284.3" y="1894.3"/>
    <rect width="99.7" height="8.1" x="1284.3" y="1931.2"/>
    <rect width="99.7" height="5.1" x="1284.3" y="1926.1"/>
    <rect width="99.7" height="2.5" x="1284.3" y="1917.3"/>
  </g>
  <g fill="#fff" stroke="#000" stroke-width=".3" stroke-miterlimit="10">
    <rect width="110" height="31.8" x="772" y="220.9"/>
    <rect width="110" height="8.1" x="772" y="207.8"/>
    <rect width="110" height="5.1" x="772" y="215.9"/>
    <rect width="110" height="2.5" x="772" y="227.2"/>
  </g>
  <g fill="#fff" stroke="#000" stroke-width=".3" stroke-miterlimit="10">
    <rect width="72.4" height="31.8" x="484" y="220.9"/>
    <rect width="72.4" height="8.1" x="484" y="207.8"/>
    <rect width="72.4" height="5.1" x="484" y="215.9"/>
    <rect width="72.4" height="2.5" x="484" y="227.2"/>
  </g>
  <g fill="#fff" stroke="#000" stroke-width=".3" stroke-miterlimit="10">
    <rect width="302.9" height="31.8" x="1140.6" y="154.2"/>
    <rect width="302.9" height="8.1" x="1140.6" y="141.1"/>
    <rect width="302.9" height="5.1" x="1140.6" y="149.1"/>
    <rect width="302.9" height="2.5" x="1140.6" y="160.4"/>
  </g>
  <g fill="#fff" stroke="#000" stroke-width=".3" stroke-miterlimit="10">
    <rect width="306.6" height="31.8" x="44.9" y="154.2"/>
    <rect width="306.6" height="8.1" x="44.9" y="141.1"/>
    <rect width="306.6" height="5.1" x="44.9" y="149.1"/>
    <rect width="306.6" height="2.5" x="44.9" y="160.4"/>
  </g>
  <g fill="#fff" stroke="#000" stroke-width=".3" stroke-miterlimit="10">
    <rect width="61" height="31.8" x="2123" y="220.9"/>
    <rect width="61" height="8.1" x="2123" y="207.7"/>
    <rect width="61" height="5.1" x="2123" y="215.8"/>
    <rect width="61" height="2.5" x="2123" y="227.1"/>
  </g>
  <g fill="#fff" stroke="#000" stroke-width=".3" stroke-miterlimit="10">
    <rect width="31.8" height="150.2" x="2979.1" y="525.5"/>
    <rect width="8.1" height="150.2" x="3016" y="525.5"/>
    <rect width="5.1" height="150.2" x="3010.9" y="525.5"/>
    <rect width="2.5" height="150.2" x="3002.1" y="525.5"/>
  </g>
</svg>
