<svg id="4.3_1" viewBox="0 0 2028.3 2303.6">
  <polygon fill="#dff2fd" fill-rule="evenodd" data-id-flat="1946" class="hovered_flat_at_plan flat_plan_5" points="944 1175 870.8 1175 870.8 1137.5 757 1137.5 757 1175 676.8 1175 676.8 283.8 12.7 283.8 12.7 1175 44.5 1175 44.5 1862.1 12.7 1862.1 12.7 2175 227.4 2175 227.4 2143.6 701.2 2143.6 941.9 2143.6 944 1175"/>
  <polyline fill="#e1efe3" fill-rule="evenodd" data-id-flat="1947" class="hovered_flat_at_plan flat_plan_5" points="1167.2 1175 1167.2 1137.5 1043.4 1137.5 1043.4 1175 973.3 1175 973.3 2143.6 1237.2 2143.6 1237.2 2143.6 1684.9 2143.6 1684.9 2290.9 2015.6 2290.9 2015.6 1861.9 1868.8 1861.9 1868.8 1175 1901.5 1175 1901.5 283.8 1237.3 283.8 1237.3 1175"/>
  <rect width="557.5" height="1052.7" x="677" y="84.7" fill="#f6f6f6"/>
  <path d="M676.8 669.2v159.5h-37.5V669.2h37.5m.2-.2h-38v160h38V669z"/>
  <rect width="2" height="10" x="637" y="743.9" fill="none" stroke="#000" stroke-width=".3" stroke-miterlimit="10"/>
  <path d="M676.8 919.2v159.5h-37.5V919.2h37.5m.2-.2h-38v160h38V919z"/>
  <rect width="2" height="10" x="637" y="993.9" fill="none" stroke="#000" stroke-width=".3" stroke-miterlimit="10"/>
  <path d="M676.7 829.2v89.5h-37.5v-89.5h37.5m.2-.2h-38v90h38v-90z"/>
  <rect width="2" height="10" x="636.9" y="868.9" fill="none" stroke="#000" stroke-width=".3" stroke-miterlimit="10"/>
  <path d="M940.7 1908.6v234.7h-53.5V1962h-173v-53.4h226.5m.3-.2H713.8v54h173v181.2h54v-235.2z"/>
  <path d="M937.7 1911.6v228.7h-47.5V1959h-173v-47.4h220.5m.3-.2H716.8v48h173v181.2h48v-229.2z"/>
  <rect width="10" height="2" x="747" y="1962.4" fill="none" stroke="#000" stroke-width=".3" stroke-miterlimit="10"/>
  <rect width="10" height="2" x="842.6" y="1962.4" fill="none" stroke="#000" stroke-width=".3" stroke-miterlimit="10"/>
  <rect width="2" height="10" x="884.9" y="1984.8" fill="none" stroke="#000" stroke-width=".3" stroke-miterlimit="10"/>
  <rect width="2" height="10" x="884.9" y="2080.5" fill="none" stroke="#000" stroke-width=".3" stroke-miterlimit="10"/>
  <line x1="724.3" x2="930.4" y1="1934.6" y2="1934.6" fill="none" stroke="#000" stroke-width=".3" stroke-miterlimit="10"/>
  <line x1="914.6" x2="914.6" y1="1921.5" y2="2133.1" fill="none" stroke="#000" stroke-width=".3" stroke-miterlimit="10"/>
  <g fill="none" stroke="#000" stroke-width=".3" stroke-miterlimit="10">
    <rect width="5" height="95.1" x="539.5" y="641.2"/>
    <rect width="3.9" height="11.4" x="544.5" y="629.8"/>
    <path d="M449.4 641.2a95 95 0 0 0 95 95"/>
  </g>
  <g fill="none" stroke="#000" stroke-width=".3" stroke-miterlimit="10">
    <rect width="95.1" height="5" x="419.3" y="1404.6"/>
    <rect width="11.4" height="3.9" x="514.5" y="1409.6"/>
    <path d="M514.5 1314.4a95 95 0 0 0-95 95"/>
  </g>
  <g fill="none" stroke="#000" stroke-width=".3" stroke-miterlimit="10">
    <rect width="5" height="85.8" x="768.8" y="1292.2"/>
    <rect width="3.9" height="11.4" x="764.9" y="1377.9"/>
    <path d="M854.6 1378a85.8 85.8 0 0 0-85.8-86"/>
  </g>
  <g fill="none" stroke="#000" stroke-width=".3" stroke-miterlimit="10">
    <rect width="5" height="94.3" x="775.9" y="1043.2"/>
    <rect width="3.9" height="11.4" x="772" y="1137.5"/>
    <path d="M870.3 1137.5a94.3 94.3 0 0 0-94.3-94.3"/>
  </g>
  <g fill="none" stroke="#000" stroke-width=".3" stroke-miterlimit="10">
    <rect width="5" height="95.1" x="639.6" y="1769.5"/>
    <rect width="3.9" height="11.4" x="644.6" y="1758.1"/>
    <path d="M549.5 1769.4a95 95 0 0 0 95 95"/>
  </g>
  <g fill="none" stroke="#000" stroke-width=".3" stroke-miterlimit="10">
    <rect width="95.1" height="5" x="419.3" y="1547.8"/>
    <rect width="11.4" height="3.9" x="514.5" y="1543.8"/>
    <path d="M514.5 1643a95 95 0 0 1-95-95.2"/>
  </g>
  <g fill="none" stroke="#000" stroke-width=".3" stroke-miterlimit="10">
    <rect width="85.6" height="5" x="688.5" y="1749.2"/>
    <rect width="11.4" height="3.9" x="677.1" y="1754.1"/>
    <path d="M688.5 1668.5A85.6 85.6 0 0 1 774 1754"/>
  </g>
  <g fill="none" stroke="#000" stroke-width=".3" stroke-miterlimit="10">
    <rect width="95.1" height="5" x="1426.5" y="748.7"/>
    <rect width="11.4" height="3.9" x="1521.7" y="753.7"/>
    <path d="M1521.7 658.5a95 95 0 0 0-95 95"/>
  </g>
  <g fill="none" stroke="#000" stroke-width=".3" stroke-miterlimit="10">
    <rect width="5" height="95.1" x="1443.1" y="534.8"/>
    <rect width="3.9" height="11.4" x="1448.1" y="629.9"/>
    <path d="M1353 630a95 95 0 0 1 95-95.2"/>
  </g>
  <g fill="none" stroke="#000" stroke-width=".3" stroke-miterlimit="10">
    <rect width="95.1" height="5" x="1399.7" y="1404.6"/>
    <rect width="11.4" height="3.9" x="1388.3" y="1409.6"/>
    <path d="M1399.8 1314.4a95 95 0 0 1 95 95"/>
  </g>
  <g fill="none" stroke="#000" stroke-width=".3" stroke-miterlimit="10">
    <rect width="95.1" height="5" x="1397.8" y="969.3"/>
    <rect width="11.4" height="3.9" x="1386.4" y="965.3"/>
    <path d="M1398 1064.4a95 95 0 0 0 95-95"/>
  </g>
  <g fill="none" stroke="#000" stroke-width=".3" stroke-miterlimit="10">
    <rect width="5" height="85.8" x="1140.4" y="1292.2"/>
    <rect width="3.9" height="11.4" x="1145.4" y="1377.9"/>
    <path d="M1059.7 1378a85.8 85.8 0 0 1 85.8-86"/>
  </g>
  <g fill="none" stroke="#000" stroke-width=".3" stroke-miterlimit="10">
    <rect width="5" height="94.3" x="1133.3" y="1043.2"/>
    <polygon points="1138.3 1137.5 1138.3 1148.9 1142.2 1148.9 1142.2 1137.5 1138.3 1137.5"/>
    <path d="M1044 1137.5a94.3 94.3 0 0 1 94.3-94.3"/>
  </g>
  <g fill="#fff" stroke="#000" stroke-width=".3" stroke-miterlimit="10">
    <rect width="12.6" height="313.1" x=".1" y="1861.9"/>
    <rect width="3.8" height="313.1" x="3.2" y="1861.9"/>
  </g>
  <g fill="#fff" stroke="#000" stroke-width=".3" stroke-miterlimit="10">
    <rect width="12.6" height="429.1" x="2015.6" y="1861.9"/>
    <rect width="3.8" height="429.1" x="2021.3" y="1861.9"/>
  </g>
  <g fill="#fff" stroke="#000" stroke-width=".3" stroke-miterlimit="10">
    <rect width="355" height="12.6" x="1673.2" y="2290.9"/>
    <rect width="355" height="3.8" x="1673.2" y="2296.6"/>
  </g>
  <g fill="#fff" stroke="#000" stroke-width=".3" stroke-miterlimit="10">
    <rect width="12.6" height="103" x="1673.2" y="2187.9"/>
    <rect width="3.8" height="103" x="1676.3" y="2187.9"/>
  </g>
  <g fill="#fff" stroke="#000" stroke-width=".3" stroke-miterlimit="10">
    <rect width="115.9" height="12.6" x="1912.2" y="1849.3"/>
    <rect width="115.9" height="3.8" x="1912.2" y="1852.4"/>
  </g>
  <g fill="#fff" stroke="#000" stroke-width=".3" stroke-miterlimit="10">
    <rect width="227.3" height="12.6" x=".1" y="2175"/>
    <rect width="227.3" height="3.8" x=".1" y="2180.7"/>
  </g>
  <g fill="#fff" stroke="#000" stroke-width=".3" stroke-miterlimit="10">
    <rect width="12.6" height="313.1" x=".1" y="283.8"/>
    <rect width="3.8" height="313.1" x="3.2" y="283.8"/>
  </g>
  <g fill="#fff" stroke="#000" stroke-width=".3" stroke-miterlimit="10">
    <rect width="227.3" height="12.6" x=".1" y="271.3"/>
    <rect width="227.3" height="3.8" x=".1" y="274.4"/>
  </g>
  <g fill="#fff" stroke="#000" stroke-width=".3" stroke-miterlimit="10">
    <rect width="12.6" height="313.1" x="1899.6" y="283.8"/>
    <rect width="3.8" height="313.1" x="1905.3" y="283.8"/>
  </g>
  <g fill="#fff" stroke="#000" stroke-width=".3" stroke-miterlimit="10">
    <rect width="227.3" height="12.6" x="1684.9" y="271.3"/>
    <rect width="227.3" height="3.8" x="1684.9" y="274.4"/>
  </g>
  <g fill="#fff" stroke="#000" stroke-width=".3" stroke-miterlimit="10">
    <rect width="198" height="31.4" x="409.1" y="283.9"/>
    <rect width="198" height="8" x="409.1" y="270.9"/>
    <rect width="198" height="5" x="409.1" y="278.8"/>
    <rect width="198" height="2.5" x="409.1" y="290"/>
  </g>
  <g fill="#fff" stroke="#000" stroke-width=".3" stroke-miterlimit="10">
    <rect width="31.4" height="197.6" x="13.1" y="750.1"/>
    <rect width="8" height="197.6" x=".1" y="750.1"/>
    <rect width="5" height="197.6" x="8.1" y="750.1"/>
    <rect width="2.5" height="197.6" x="19.3" y="750.1"/>
  </g>
  <g fill="#fff" stroke="#000" stroke-width=".3" stroke-miterlimit="10">
    <rect width="31.4" height="197.6" x="13.1" y="1259.1"/>
    <rect width="8" height="197.6" x=".1" y="1259.1"/>
    <rect width="5" height="197.6" x="8.1" y="1259.1"/>
    <rect width="2.5" height="197.6" x="19.3" y="1259.1"/>
  </g>
  <g fill="#fff" stroke="#000" stroke-width=".3" stroke-miterlimit="10">
    <rect width="31.4" height="118.5" x="13.1" y="1549.2"/>
    <rect width="8" height="118.5" x=".1" y="1549.2"/>
    <rect width="5" height="118.5" x="8.1" y="1549.2"/>
    <rect width="2.5" height="118.5" x="19.3" y="1549.2"/>
  </g>
  <g fill="#fff" stroke="#000" stroke-width=".3" stroke-miterlimit="10">
    <rect width="197.6" height="31.4" x="338.7" y="2143.6"/>
    <rect width="197.6" height="8" x="338.7" y="2180"/>
    <rect width="197.6" height="5" x="338.7" y="2175"/>
    <rect width="197.6" height="2.5" x="338.7" y="2166.3"/>
  </g>
  <g fill="#fff" stroke="#000" stroke-width=".3" stroke-miterlimit="10">
    <rect width="197.6" height="31.4" x="1286.4" y="2143.6"/>
    <rect width="197.6" height="8" x="1286.4" y="2180"/>
    <rect width="197.6" height="5" x="1286.4" y="2175"/>
    <rect width="197.6" height="2.5" x="1286.4" y="2166.3"/>
  </g>
  <g fill="#fff" stroke="#000" stroke-width=".3" stroke-miterlimit="10">
    <rect width="31.4" height="197.6" x="1867.8" y="1553.8"/>
    <rect width="8" height="197.6" x="1904.2" y="1553.8"/>
    <rect width="5" height="197.6" x="1899.2" y="1553.8"/>
    <rect width="2.5" height="197.6" x="1890.5" y="1553.8"/>
  </g>
  <g fill="#fff" stroke="#000" stroke-width=".3" stroke-miterlimit="10">
    <rect width="31.4" height="118.5" x="1867.8" y="1339.3"/>
    <rect width="8" height="118.5" x="1904.2" y="1339.3"/>
    <rect width="5" height="118.5" x="1899.2" y="1339.3"/>
    <rect width="2.5" height="118.5" x="1890.5" y="1339.3"/>
  </g>
  <g fill="#fff" stroke="#000" stroke-width=".3" stroke-miterlimit="10">
    <rect width="31.4" height="175.9" x="1867.8" y="935.2"/>
    <rect width="8" height="175.9" x="1904.2" y="935.2"/>
    <rect width="5" height="175.9" x="1899.2" y="935.2"/>
    <rect width="2.5" height="175.9" x="1890.5" y="935.2"/>
  </g>
  <g fill="#fff" stroke="#000" stroke-width=".3" stroke-miterlimit="10">
    <rect width="118.5" height="31.4" x="1401.5" y="283.8"/>
    <rect width="118.5" height="8" x="1401.5" y="270.9"/>
    <rect width="118.5" height="5" x="1401.5" y="278.8"/>
    <rect width="118.5" height="2.5" x="1401.5" y="290"/>
  </g>
  <g fill="#fff" stroke="#000" stroke-width=".3" stroke-miterlimit="10">
    <rect width="118.9" height="31.4" x="716.3" y="2143.6"/>
    <rect width="118.9" height="8" x="716.3" y="2180"/>
    <rect width="118.9" height="5" x="716.3" y="2175"/>
    <rect width="118.9" height="2.5" x="716.3" y="2166.3"/>
  </g>
  <g fill="#fff" stroke="#000" stroke-width=".3" stroke-miterlimit="10">
    <rect width="118.9" height="31.4" x="1027.7" y="2143.6"/>
    <rect width="118.9" height="8" x="1027.7" y="2180"/>
    <rect width="118.9" height="5" x="1027.7" y="2175"/>
    <rect width="118.9" height="2.5" x="1027.7" y="2166.3"/>
  </g>
  <rect width="44.4" height="194.2" x=".1" y="1667.7" fill="#003d58"/>
  <rect width="228.1" height="11.7" x="44.5" y="1850.2" fill="#003d58"/>
  <rect width="11.7" height="92.1" x="260.9" y="1758.1" fill="#003d58"/>
  <rect width="277.1" height="11.7" x="272.6" y="1758.1" fill="#003d58"/>
  <rect width="11.9" height="115.5" x="513.9" y="1642.5" fill="#003d58"/>
  <rect width="111.3" height="44.4" x="227.4" y="2143.6" fill="#003d58"/>
  <rect width="44.4" height="92.5" x=".1" y="1456.7" fill="#003d58"/>
  <rect width="469.2" height="12.1" x="44.5" y="1472.6" fill="#003d58"/>
  <rect width="12.1" height="130.2" x="513.7" y="1413.6" fill="#003d58"/>
  <rect width="44.4" height="311.4" x=".1" y="947.7" fill="#003d58"/>
  <rect width="5" height="39.8" x="44.5" y="1219.4" fill="#003d58"/>
  <rect width="481.4" height="11.7" x="44.5" y="1160.8" fill="#003d58"/>
  <rect width="12.1" height="142.3" x="513.7" y="1172.5" fill="#003d58"/>
  <rect width="44.4" height="153.2" x=".1" y="596.9" fill="#003d58"/>
  <rect width="5" height="39.4" x="44.5" y="616.6" fill="#003d58"/>
  <rect width="399.7" height="11.7" x="49.9" y="629.6" fill="#003d58"/>
  <rect width="181.7" height="44.4" x="227.4" y="270.9" fill="#003d58"/>
  <rect width="69.9" height="44.4" x="607.1" y="270.9" fill="#003d58"/>
  <rect width="49.4" height="11.7" x="548.5" y="629.6" fill="#003d58"/>
  <rect width="79.1" height="39.4" x="597.9" y="629.6" fill="#003d58"/>
  <rect width="37.7" height="960.3" x="677" y="214.7" fill="#003d58"/>
  <rect width="57.3" height="37.7" x="714.6" y="1137.3" fill="#003d58"/>
  <rect width="92.9" height="37.7" x="1141.6" y="1137.3" fill="#003d58"/>
  <rect width="172" height="37.7" x="870.8" y="1137.3" fill="#003d58"/>
  <rect width="37.7" height="926" x="1196.8" y="214.7" fill="#003d58"/>
  <rect width="167" height="44.4" x="1234.5" y="270.9" fill="#003d58"/>
  <rect width="164.9" height="44.4" x="1520" y="270.9" fill="#003d58"/>
  <rect width="39.3" height="5" x="1625.9" y="315.2" fill="#003d58"/>
  <rect width="78.7" height="39.4" x="1234.5" y="629.6" fill="#003d58"/>
  <rect width="39.8" height="11.7" x="1313.2" y="629.6" fill="#003d58"/>
  <rect width="68.9" height="11.7" x="1452" y="629.6" fill="#003d58"/>
  <rect width="469.2" height="11.7" x="1398.6" y="848.2" fill="#003d58"/>
  <rect width="44.4" height="338.3" x="1867.8" y="596.9" fill="#003d58"/>
  <rect width="44.4" height="228.1" x="1867.8" y="1111.2" fill="#003d58"/>
  <rect width="5" height="39.8" x="1862.8" y="1219.4" fill="#003d58"/>
  <rect width="481.4" height="11.7" x="1386.4" y="1160.8" fill="#003d58"/>
  <rect width="12.1" height="250.4" x="1386.4" y="1064.4" fill="#003d58"/>
  <rect width="12.1" height="117.2" x="1386.4" y="848.2" fill="#003d58"/>
  <rect width="12.1" height="90.5" x="1520.9" y="757.6" fill="#003d58"/>
  <rect width="12.1" height="343.3" x="1520.9" y="315.2" fill="#003d58"/>
  <rect width="44.4" height="96.1" x="1867.8" y="1457.7" fill="#003d58"/>
  <rect width="469.2" height="12.1" x="1398.6" y="1472.6" fill="#003d58"/>
  <rect width="11.7" height="71.2" x="1386.9" y="1413.6" fill="#003d58"/>
  <rect width="44.4" height="110.5" x="1867.8" y="1751.4" fill="#003d58"/>
  <rect width="200.9" height="44.4" x="1484" y="2143.6" fill="#003d58"/>
  <rect width="139.8" height="44.4" x="1146.6" y="2143.6" fill="#003d58"/>
  <rect width="39.3" height="5" x="1196" y="2138.6" fill="#003d58"/>
  <rect width="192.5" height="44.4" x="835.2" y="2143.6" fill="#003d58"/>
  <rect width="32.4" height="968.6" x="940.9" y="1175" fill="#003d58"/>
  <rect width="86.9" height="11.7" x="854" y="1377.6" fill="#003d58"/>
  <rect width="76.2" height="11.7" x="688.7" y="1377.6" fill="#003d58"/>
  <rect width="11.7" height="252" x="677" y="1377.6" fill="#003d58"/>
  <rect width="252.2" height="11.7" x="688.7" y="1617.8" fill="#003d58"/>
  <rect width="86.9" height="11.7" x="973.3" y="1377.6" fill="#003d58"/>
  <rect width="76.2" height="11.7" x="1149.3" y="1377.6" fill="#003d58"/>
  <rect width="11.7" height="252" x="1225.5" y="1377.6" fill="#003d58"/>
  <rect width="252.2" height="11.7" x="973.3" y="1617.8" fill="#003d58"/>
  <rect width="65.3" height="11.7" x="648.5" y="1758.1" fill="#003d58"/>
  <rect width="12.6" height="196.9" x="701.2" y="1769.8" fill="#003d58"/>
  <rect width="227.1" height="12.1" x="713.8" y="1896.2" fill="#003d58"/>
  <rect width="180" height="44.4" x="536.3" y="2143.6" fill="#003d58"/>
  <rect width="39.3" height="5" x="677" y="2138.6" fill="#003d58"/>
  <rect width="12.6" height="72" x="701.2" y="2066.6" fill="#003d58"/>
  <rect width="94.8" height="39.8" x="846.1" y="1499" fill="#003d58"/>
  <rect width="94.2" height="39.8" x="973.3" y="1499" fill="#003d58"/>
  <rect width="34.7" height="39.4" x="677" y="1629.6" fill="#003d58"/>
  <rect width="34.7" height="39.4" x="1202.5" y="1629.6" fill="#003d58"/>
  <g fill="#fff" stroke="#9d9d9c" stroke-miterlimit="10">
    <rect width="198.8" height="12.6" x="677" y="84.7"/>
    <rect width="198.8" height="3.8" x="677" y="87.8"/>
  </g>
  <g fill="#fff" stroke="#9d9d9c" stroke-miterlimit="10">
    <rect width="167.3" height="12.6" x="1067.2" y="84.7"/>
    <rect width="167.3" height="3.8" x="1067.2" y="87.8"/>
  </g>
  <g fill="none" stroke="#000" stroke-width=".3" stroke-miterlimit="10">
    <rect width="119.8" height="30.3" x="714.6" y="423.3"/>
    <rect width="119.8" height="30.3" x="714.6" y="453.6"/>
    <rect width="119.8" height="30.3" x="714.6" y="483.8"/>
    <rect width="119.8" height="30.3" x="714.6" y="514.1"/>
    <rect width="119.8" height="30.3" x="714.6" y="544.4"/>
    <rect width="119.8" height="30.3" x="714.6" y="574.7"/>
    <rect width="119.8" height="30.3" x="714.6" y="605"/>
    <rect width="119.8" height="30.3" x="714.6" y="635.3"/>
    <rect width="119.8" height="30.3" x="714.6" y="665.6"/>
    <rect width="119.8" height="30.3" x="714.6" y="695.9"/>
    <rect width="119.8" height="30.3" x="714.6" y="726.2"/>
  </g>
  <g fill="none" stroke="#000" stroke-width=".3" stroke-miterlimit="10">
    <rect width="119.8" height="30.3" x="1077.1" y="423"/>
    <rect width="119.8" height="30.3" x="1077.1" y="453.3"/>
    <rect width="119.8" height="30.3" x="1077.1" y="483.6"/>
    <rect width="119.8" height="30.3" x="1077.1" y="513.9"/>
    <rect width="119.8" height="30.3" x="1077.1" y="544.2"/>
    <rect width="119.8" height="30.3" x="1077.1" y="574.5"/>
    <rect width="119.8" height="30.3" x="1077.1" y="604.8"/>
    <rect width="119.8" height="30.3" x="1077.1" y="635.1"/>
    <rect width="119.8" height="30.3" x="1077.1" y="665.4"/>
    <rect width="119.8" height="30.3" x="1077.1" y="695.7"/>
    <rect width="119.8" height="30.3" x="1077.1" y="726"/>
  </g>
  <rect width="179.9" height="269.6" x="868.5" y="447.9" fill="none" stroke="#000" stroke-width=".3" stroke-miterlimit="10"/>
  <rect width="165.9" height="255.4" x="875.5" y="455" fill="none" stroke="#000" stroke-width=".3" stroke-miterlimit="10"/>
  <g fill="none" stroke="#000" stroke-width=".3" stroke-miterlimit="10">
    <rect width="5" height="85.6" x="1040.1" y="827.1"/>
    <rect width="4" height="11.4" x="1045.1" y="912.7"/>
    <path d="M1045 827a91.8 91.8 0 0 0-91.7 91.8"/>
  </g>
  <g fill="none" stroke="#000" stroke-width=".3" stroke-miterlimit="10">
    <rect width="5" height="85.6" x="861.6" y="827.1"/>
    <rect width="4" height="11.4" x="857.6" y="912.7"/>
    <path d="M861.6 827a91.8 91.8 0 0 1 91.8 91.8"/>
  </g>
  <rect width="76.8" height="26.2" x="842.4" y="717.2" fill="#003d58"/>
  <rect width="24.9" height="294" x="842.4" y="423.1" fill="#003d58"/>
  <rect width="204.3" height="24.9" x="867.3" y="423.1" fill="#003d58"/>
  <rect width="24.9" height="293.7" x="1046.7" y="448" fill="#003d58"/>
  <rect width="30.8" height="24.6" x="1015.9" y="717.2" fill="#003d58"/>
  <rect width="143" height="11.4" x="714.6" y="912.9" fill="#003d58"/>
  <rect width="147.6" height="11.4" x="1049.1" y="912.9" fill="#003d58"/>
  <rect width="68.1" height="20.4" x="1128.6" y="287.9" fill="#003d58"/>
  <rect width="149.2" height="20.4" x="714.6" y="214.4" fill="#003d58"/>
  <rect width="141.5" height="20.4" x="1055.3" y="214.4" fill="#003d58"/>
  <rect width="20.4" height="73.4" x="1108.3" y="234.8" fill="#003d58"/>
  <g fill="none" stroke="#000" stroke-width=".3" stroke-miterlimit="10">
    <rect width="5" height="85.6" x="1046.3" y="137.8"/>
    <rect width="4" height="11.4" x="1051.3" y="223.4"/>
    <path d="M1051.4 137.7a91.8 91.8 0 0 0-91.8 91.8"/>
  </g>
  <g fill="none" stroke="#000" stroke-width=".3" stroke-miterlimit="10">
    <rect width="5" height="85.6" x="867.8" y="137.8"/>
    <rect width="4" height="11.4" x="863.9" y="223.4"/>
    <path d="M868 137.7a91.8 91.8 0 0 1 91.7 91.8"/>
  </g>
  <g fill="none" stroke="#000" stroke-width=".3" stroke-miterlimit="10">
    <rect width="5" height="85.6" x="1058.2" y=".2"/>
    <rect width="4" height="11.4" x="1063.2" y="85.8"/>
    <path d="M1063.2 0a91.8 91.8 0 0 0-91.8 92"/>
  </g>
  <g fill="none" stroke="#000" stroke-width=".3" stroke-miterlimit="10">
    <rect width="5" height="85.6" x="879.7" y=".2"/>
    <rect width="4" height="11.4" x="875.7" y="85.8"/>
    <path d="M879.7 0a91.8 91.8 0 0 1 91.8 92"/>
  </g>
  <rect width="11.9" height="186.2" x="665.1" y="84.7" fill="#003d58"/>
  <rect width="11.9" height="186.2" x="1234.5" y="84.7" fill="#003d58"/>
</svg>
