<svg id="4.3_5" viewBox="0 0 2064 2116.8">
  <rect width="482.2" height="970.1" x="790.3" y="17.6" fill="#f6f6f6"/>
  <polygon fill="#dff2fd" fill-rule="evenodd" data-id-flat="1954" class="hovered_flat_at_plan flat_plan_5" points="1016.7 1468.2 1016.7 1228 1016.7 1228 1016.7 1025.4 946.6 1025.4 946.6 987.9 847.8 987.9 847.8 1025.4 777.1 1025.4 752.7 1025.4 752.7 134.2 309 134.2 309 55.5 12.7 55.5 12.7 453 88.5 453 88.5 1025.4 120.4 1025.4 120.4 1323.8 601.7 1323.8 601.7 1335.1 120.4 1335.1 120.4 1608.5 120.4 1700.6 336.8 1700.6 336.8 1608.5 348.9 1608.5 348.9 1712.3 309 1712.3 309 1706.6 12.7 1706.6 12.7 2104.1 309 2104.1 309 1994 777.1 1994 1016.7 1994 1016.7 1758.8 777.1 1758.8 777.1 1747.1 1016.5 1747.1 1016.5 1480 777.1 1480 777.1 1468.2 1016.7 1468.2"/>
  <polygon fill="#e1efe3" fill-rule="evenodd" data-id-flat="1955" class="hovered_flat_at_plan flat_plan_5" points="1943.7 1705.8 1943.7 1334.4 1462.2 1334.4 1462.2 1323 1943.6 1323 1943.6 1024.7 1975.4 1024.7 1975.4 452.3 2051.3 452.3 2051.3 55.5 1753.2 55.5 1753.2 133.5 1311.2 133.5 1311.2 164.9 1308.4 164.9 1308.4 479.3 1311.2 479.3 1311.2 1024.7 1286.8 1024.7 1216.1 1024.7 1216.1 987.2 1117.3 987.2 1117.3 1024.7 1047.2 1024.7 1047.2 1227.2 1047.2 1227.2 1047.2 1467.5 1286.8 1467.5 1286.8 1479.2 1047.2 1479.2 1047.2 1993.2 1311.1 1993.2 1311.1 1993.2 1753.9 1993.2 1753.9 2104.1 2051.3 2104.1 2051.3 1705.8 1943.7 1705.8"/>
  <g fill="none" stroke="#000" stroke-width=".3" stroke-miterlimit="10">
    <rect width="5" height="95.1" x="615.4" y="491.6"/>
    <rect width="3.9" height="11.4" x="620.4" y="480.2"/>
    <path d="M525.3 491.6a95 95 0 0 0 95 95"/>
  </g>
  <g fill="none" stroke="#000" stroke-width=".3" stroke-miterlimit="10">
    <rect width="95.1" height="5" x="495.2" y="1255"/>
    <rect width="11.4" height="3.9" x="590.3" y="1260"/>
    <path d="M590.4 1164.8a95 95 0 0 0-95 95"/>
  </g>
  <g fill="none" stroke="#000" stroke-width=".3" stroke-miterlimit="10">
    <rect width="5" height="85.8" x="844.6" y="1142.6"/>
    <rect width="3.9" height="11.4" x="840.7" y="1228.3"/>
    <path d="M930.5 1228.3a85.8 85.8 0 0 0-85.8-85.8"/>
  </g>
  <g fill="none" stroke="#000" stroke-width=".3" stroke-miterlimit="10">
    <rect width="5" height="94.3" x="851.8" y="893.6"/>
    <rect width="3.9" height="11.4" x="847.8" y="987.9"/>
    <path d="M946 988a94.3 94.3 0 0 0-94.2-94.4"/>
  </g>
  <g fill="none" stroke="#000" stroke-width=".3" stroke-miterlimit="10">
    <rect width="5" height="95.1" x="715.4" y="1619.8"/>
    <rect width="3.9" height="11.4" x="720.4" y="1608.5"/>
    <path d="M625.3 1619.8a95 95 0 0 0 95 95"/>
  </g>
  <g fill="none" stroke="#000" stroke-width=".3" stroke-miterlimit="10">
    <rect width="95.1" height="5" x="495.2" y="1398.1"/>
    <rect width="11.4" height="3.9" x="590.3" y="1394.2"/>
    <path d="M590.4 1493.3a95 95 0 0 1-95-95"/>
  </g>
  <g fill="none" stroke="#000" stroke-width=".3" stroke-miterlimit="10">
    <rect width="85.6" height="5" x="764.3" y="1599.5"/>
    <rect width="11.4" height="3.9" x="752.9" y="1604.5"/>
    <path d="M764.3 1519a85.6 85.6 0 0 1 85.6 85.5"/>
  </g>
  <g fill="none" stroke="#000" stroke-width=".3" stroke-miterlimit="10">
    <rect width="95.1" height="5" x="1502.4" y="599.1"/>
    <rect width="11.4" height="3.9" x="1597.5" y="604.1"/>
    <path d="M1597.6 509a95 95 0 0 0-95 95"/>
  </g>
  <g fill="none" stroke="#000" stroke-width=".3" stroke-miterlimit="10">
    <rect width="5" height="95.1" x="1519" y="385.2"/>
    <rect width="3.9" height="11.4" x="1523.9" y="480.3"/>
    <path d="M1428.8 480.3a95 95 0 0 1 95-95"/>
  </g>
  <g fill="none" stroke="#000" stroke-width=".3" stroke-miterlimit="10">
    <rect width="95.1" height="5" x="1475.6" y="1255"/>
    <rect width="11.4" height="3.9" x="1464.2" y="1260"/>
    <path d="M1475.6 1164.8a95 95 0 0 1 95 95"/>
  </g>
  <g fill="none" stroke="#000" stroke-width=".3" stroke-miterlimit="10">
    <rect width="95.1" height="5" x="1859.3" y="1837.8"/>
    <rect width="11.4" height="3.9" x="1954.5" y="1833.9"/>
    <path d="M1954.5 1933a95 95 0 0 1-95-95.2"/>
  </g>
  <g fill="none" stroke="#000" stroke-width=".3" stroke-miterlimit="10">
    <rect width="95.1" height="5" x="109.5" y="1837.8"/>
    <rect width="11.4" height="3.9" x="98.1" y="1833.9"/>
    <path d="M109.6 1933a95 95 0 0 0 95-95.2"/>
  </g>
  <g fill="none" stroke="#000" stroke-width=".3" stroke-miterlimit="10">
    <rect width="95.1" height="5" x="109.5" y="316.8"/>
    <rect width="11.4" height="3.9" x="98.1" y="321.8"/>
    <path d="M109.6 226.6a95 95 0 0 1 95 95"/>
  </g>
  <g fill="none" stroke="#000" stroke-width=".3" stroke-miterlimit="10">
    <rect width="95.1" height="5" x="1859.3" y="316.8"/>
    <rect width="11.4" height="3.9" x="1954.5" y="321.8"/>
    <path d="M1954.5 226.6a95 95 0 0 0-95 95"/>
  </g>
  <g fill="none" stroke="#000" stroke-width=".3" stroke-miterlimit="10">
    <rect width="95.1" height="5" x="1473.7" y="819.7"/>
    <rect width="11.4" height="3.9" x="1462.3" y="815.7"/>
    <path d="M1473.7 914.8a95 95 0 0 0 95-95"/>
  </g>
  <g fill="none" stroke="#000" stroke-width=".3" stroke-miterlimit="10">
    <rect width="5" height="85.8" x="1216.3" y="1142.6"/>
    <rect width="3.9" height="11.4" x="1221.2" y="1228.3"/>
    <path d="M1135.5 1228.3a85.8 85.8 0 0 1 85.8-85.8"/>
  </g>
  <g fill="none" stroke="#000" stroke-width=".3" stroke-miterlimit="10">
    <rect width="5" height="94.3" x="1209.1" y="893.6"/>
    <polygon points="1214.1 987.9 1214.1 999.3 1218.1 999.3 1218.1 987.9 1214.1 987.9"/>
    <path d="M1119.8 988a94.3 94.3 0 0 1 94.3-94.4"/>
  </g>
  <rect width="44.4" height="194.2" x="76" y="1518.1" fill="#003d58"/>
  <rect width="228.1" height="11.7" x="120.4" y="1700.6" fill="#003d58"/>
  <rect width="11.7" height="92.1" x="336.8" y="1608.5" fill="#003d58"/>
  <rect width="277.1" height="11.7" x="348.5" y="1608.5" fill="#003d58"/>
  <rect width="11.9" height="115.5" x="589.8" y="1492.9" fill="#003d58"/>
  <rect width="338.7" height="44.4" x="76" y="1994" fill="#003d58"/>
  <rect width="44.4" height="92.5" x="76" y="1307.1" fill="#003d58"/>
  <rect width="469.2" height="12.1" x="120.4" y="1323" fill="#003d58"/>
  <rect width="12.1" height="130.2" x="589.6" y="1264" fill="#003d58"/>
  <rect width="44.4" height="311.4" x="76" y="798.1" fill="#003d58"/>
  <rect width="5" height="39.8" x="120.4" y="1069.8" fill="#003d58"/>
  <rect width="481.4" height="11.7" x="120.4" y="1011.2" fill="#003d58"/>
  <rect width="12.1" height="142.3" x="589.6" y="1022.9" fill="#003d58"/>
  <rect width="44.4" height="153.2" x="76" y="447.3" fill="#003d58"/>
  <rect width="5" height="39.4" x="120.4" y="467" fill="#003d58"/>
  <rect width="399.7" height="11.7" x="125.8" y="480" fill="#003d58"/>
  <rect width="409" height="44.4" x="76" y="121.3" fill="#003d58"/>
  <rect width="69.9" height="44.4" x="682.9" y="121.3" fill="#003d58"/>
  <rect width="49.4" height="11.7" x="624.3" y="480" fill="#003d58"/>
  <rect width="79.1" height="39.4" x="673.7" y="480" fill="#003d58"/>
  <rect width="37.7" height="1025.4" x="752.8" fill="#003d58"/>
  <rect width="57.3" height="37.7" x="790.5" y="987.7" fill="#003d58"/>
  <rect width="92.9" height="37.7" x="1217.4" y="987.7" fill="#003d58"/>
  <rect width="172" height="37.7" x="946.6" y="987.7" fill="#003d58"/>
  <rect width="37.7" height="987.7" x="1272.7" fill="#003d58"/>
  <rect width="167" height="44.4" x="1310.4" y="121.3" fill="#003d58"/>
  <rect width="392.2" height="44.4" x="1595.8" y="121.3" fill="#003d58"/>
  <rect width="78.7" height="39.4" x="1310.4" y="480" fill="#003d58"/>
  <rect width="39.8" height="11.7" x="1389.1" y="480" fill="#003d58"/>
  <rect width="68.9" height="11.7" x="1527.9" y="480" fill="#003d58"/>
  <rect width="469.2" height="11.7" x="1474.4" y="698.5" fill="#003d58"/>
  <rect width="44.4" height="338.3" x="1943.7" y="447.3" fill="#003d58"/>
  <rect width="44.4" height="228.1" x="1943.7" y="961.6" fill="#003d58"/>
  <rect width="5" height="39.8" x="1938.6" y="1069.8" fill="#003d58"/>
  <rect width="481.4" height="11.7" x="1462.3" y="1011.2" fill="#003d58"/>
  <rect width="12.1" height="250.4" x="1462.3" y="914.8" fill="#003d58"/>
  <rect width="12.1" height="117.2" x="1462.3" y="698.5" fill="#003d58"/>
  <rect width="12.1" height="90.5" x="1596.8" y="608" fill="#003d58"/>
  <rect width="12.1" height="343.3" x="1596.8" y="165.6" fill="#003d58"/>
  <rect width="44.4" height="96.1" x="1943.7" y="1308.1" fill="#003d58"/>
  <rect width="469.2" height="12.1" x="1474.4" y="1323" fill="#003d58"/>
  <rect width="11.7" height="71.2" x="1462.7" y="1264" fill="#003d58"/>
  <rect width="44.4" height="110.5" x="1943.7" y="1601.8" fill="#003d58"/>
  <rect width="428.2" height="44.4" x="1559.8" y="1994" fill="#003d58"/>
  <rect width="139.8" height="44.4" x="1222.5" y="1994" fill="#003d58"/>
  <rect width="39.3" height="5" x="1271.9" y="1988.9" fill="#003d58"/>
  <rect width="192.5" height="44.4" x="911" y="1994" fill="#003d58"/>
  <rect width="32.4" height="968.6" x="1016.7" y="1025.4" fill="#003d58"/>
  <rect width="86.9" height="11.7" x="929.9" y="1228" fill="#003d58"/>
  <rect width="76.2" height="11.7" x="764.5" y="1228" fill="#003d58"/>
  <rect width="11.7" height="252" x="752.8" y="1228" fill="#003d58"/>
  <rect width="252.2" height="11.7" x="764.5" y="1468.2" fill="#003d58"/>
  <rect width="86.9" height="11.7" x="1049.2" y="1228" fill="#003d58"/>
  <rect width="76.2" height="11.7" x="1225.2" y="1228" fill="#003d58"/>
  <rect width="11.7" height="252" x="1301.4" y="1228" fill="#003d58"/>
  <rect width="252.2" height="11.7" x="1049.2" y="1468.2" fill="#003d58"/>
  <rect width="65.3" height="11.7" x="724.4" y="1608.5" fill="#003d58"/>
  <rect width="12.6" height="196.9" x="777.1" y="1620.2" fill="#003d58"/>
  <rect width="227.1" height="12.1" x="789.7" y="1746.6" fill="#003d58"/>
  <rect width="180" height="44.4" x="612.2" y="1994" fill="#003d58"/>
  <rect width="39.3" height="5" x="752.8" y="1988.9" fill="#003d58"/>
  <rect width="12.6" height="72" x="777.1" y="1917" fill="#003d58"/>
  <rect width="94.8" height="39.8" x="921.9" y="1349.4" fill="#003d58"/>
  <rect width="94.2" height="39.8" x="1049.2" y="1349.4" fill="#003d58"/>
  <g fill="#fff" stroke="#000" stroke-width=".3" stroke-miterlimit="10">
    <rect width="198" height="31.4" x="484.9" y="134.2"/>
    <rect width="198" height="8" x="484.9" y="121.3"/>
    <rect width="198" height="5" x="484.9" y="129.2"/>
    <rect width="198" height="2.5" x="484.9" y="140.4"/>
  </g>
  <g fill="#fff" stroke="#000" stroke-width=".3" stroke-miterlimit="10">
    <rect width="31.4" height="197.6" x="89" y="600.5"/>
    <rect width="8" height="197.6" x="76" y="600.5"/>
    <rect width="5" height="197.6" x="83.9" y="600.5"/>
    <rect width="2.5" height="197.6" x="95.1" y="600.5"/>
  </g>
  <g fill="#fff" stroke="#000" stroke-width=".3" stroke-miterlimit="10">
    <rect width="31.4" height="197.6" x="89" y="1109.5"/>
    <rect width="8" height="197.6" x="76" y="1109.5"/>
    <rect width="5" height="197.6" x="83.9" y="1109.5"/>
    <rect width="2.5" height="197.6" x="95.1" y="1109.5"/>
  </g>
  <g fill="#fff" stroke="#000" stroke-width=".3" stroke-miterlimit="10">
    <rect width="31.4" height="118.5" x="89" y="1399.6"/>
    <rect width="8" height="118.5" x="76" y="1399.6"/>
    <rect width="5" height="118.5" x="83.9" y="1399.6"/>
    <rect width="2.5" height="118.5" x="95.1" y="1399.6"/>
  </g>
  <g fill="#fff" stroke="#000" stroke-width=".3" stroke-miterlimit="10">
    <rect width="197.6" height="31.4" x="414.6" y="1994"/>
    <rect width="197.6" height="8" x="414.6" y="2030.4"/>
    <rect width="197.6" height="5" x="414.6" y="2025.4"/>
    <rect width="197.6" height="2.5" x="414.6" y="2016.7"/>
  </g>
  <g fill="#fff" stroke="#000" stroke-width=".3" stroke-miterlimit="10">
    <rect width="197.6" height="31.4" x="1362.3" y="1994"/>
    <rect width="197.6" height="8" x="1362.3" y="2030.4"/>
    <rect width="197.6" height="5" x="1362.3" y="2025.4"/>
    <rect width="197.6" height="2.5" x="1362.3" y="2016.7"/>
  </g>
  <g fill="#fff" stroke="#000" stroke-width=".3" stroke-miterlimit="10">
    <rect width="31.4" height="197.6" x="1943.7" y="1404.2"/>
    <rect width="8" height="197.6" x="1980.1" y="1404.2"/>
    <rect width="5" height="197.6" x="1975.1" y="1404.2"/>
    <rect width="2.5" height="197.6" x="1966.4" y="1404.2"/>
  </g>
  <g fill="#fff" stroke="#000" stroke-width=".3" stroke-miterlimit="10">
    <rect width="31.4" height="118.5" x="1943.7" y="1189.7"/>
    <rect width="8" height="118.5" x="1980.1" y="1189.7"/>
    <rect width="5" height="118.5" x="1975.1" y="1189.7"/>
    <rect width="2.5" height="118.5" x="1966.4" y="1189.7"/>
  </g>
  <g fill="#fff" stroke="#000" stroke-width=".3" stroke-miterlimit="10">
    <rect width="31.4" height="175.9" x="1943.7" y="785.6"/>
    <rect width="8" height="175.9" x="1980.1" y="785.6"/>
    <rect width="5" height="175.9" x="1975.1" y="785.6"/>
    <rect width="2.5" height="175.9" x="1966.4" y="785.6"/>
  </g>
  <g fill="#fff" stroke="#000" stroke-width=".3" stroke-miterlimit="10">
    <rect width="118.5" height="31.4" x="1477.4" y="134.2"/>
    <rect width="118.5" height="8" x="1477.4" y="121.3"/>
    <rect width="118.5" height="5" x="1477.4" y="129.2"/>
    <rect width="118.5" height="2.5" x="1477.4" y="140.4"/>
  </g>
  <g fill="#fff" stroke="#000" stroke-width=".3" stroke-miterlimit="10">
    <rect width="118.9" height="31.4" x="792.2" y="1994"/>
    <rect width="118.9" height="8" x="792.2" y="2030.4"/>
    <rect width="118.9" height="5" x="792.2" y="2025.4"/>
    <rect width="118.9" height="2.5" x="792.2" y="2016.7"/>
  </g>
  <g fill="#fff" stroke="#000" stroke-width=".3" stroke-miterlimit="10">
    <rect width="118.9" height="31.4" x="1103.6" y="1994"/>
    <rect width="118.9" height="8" x="1103.6" y="2030.4"/>
    <rect width="118.9" height="5" x="1103.6" y="2025.4"/>
    <rect width="118.9" height="2.5" x="1103.6" y="2016.7"/>
  </g>
  <rect width="34.7" height="39.4" x="752.8" y="1480" fill="#003d58"/>
  <rect width="34.7" height="39.4" x="1278.3" y="1480" fill="#003d58"/>
  <g fill="none" stroke="#000" stroke-width=".3" stroke-miterlimit="10">
    <rect width="5" height="95.3" x="1142.7" y="39"/>
    <rect width="4" height="11.5" x="1147.7" y="134.3"/>
    <path d="M1052.4 134.3a95.3 95.3 0 0 1 95.4-95.3"/>
  </g>
  <g fill="none" stroke="#000" stroke-width=".3" stroke-miterlimit="10">
    <rect width="5" height="85.6" x="1116.9" y="683.1"/>
    <rect width="4" height="11.4" x="1121.9" y="768.7"/>
    <path d="M1122 683a91.7 91.7 0 0 0-91.8 91.8"/>
  </g>
  <g fill="none" stroke="#000" stroke-width=".3" stroke-miterlimit="10">
    <rect width="5" height="85.6" x="938.4" y="683.1"/>
    <rect width="4" height="11.4" x="934.4" y="768.7"/>
    <path d="M938.4 683a91.8 91.8 0 0 1 91.8 91.8"/>
  </g>
  <g fill="#fff" stroke="#000" stroke-width=".3" stroke-miterlimit="10">
    <rect width="153.9" height="16.1" x="898.5" y="129.8"/>
    <rect width="153.9" height="4.8" x="898.5" y="137.1"/>
  </g>
  <g fill="none" stroke="#000" stroke-width=".3" stroke-miterlimit="10">
    <rect width="119.8" height="30.3" x="785.6" y="257"/>
    <rect width="119.8" height="30.3" x="785.6" y="287.3"/>
    <rect width="119.8" height="30.3" x="785.6" y="317.6"/>
    <rect width="119.8" height="30.3" x="785.6" y="347.9"/>
    <rect width="119.8" height="30.3" x="785.6" y="378.2"/>
    <rect width="119.8" height="30.3" x="785.6" y="408.5"/>
    <rect width="119.8" height="30.3" x="785.6" y="438.8"/>
    <rect width="119.8" height="30.3" x="785.6" y="469.1"/>
    <rect width="119.8" height="30.3" x="785.6" y="499.4"/>
    <rect width="119.8" height="30.3" x="785.6" y="529.7"/>
    <rect width="119.8" height="30.3" x="785.6" y="560"/>
  </g>
  <g fill="none" stroke="#000" stroke-width=".3" stroke-miterlimit="10">
    <rect width="119.8" height="30.3" x="1152.9" y="256.8"/>
    <rect width="119.8" height="30.3" x="1152.9" y="287.1"/>
    <rect width="119.8" height="30.3" x="1152.9" y="317.4"/>
    <rect width="119.8" height="30.3" x="1152.9" y="347.7"/>
    <rect width="119.8" height="30.3" x="1152.9" y="378"/>
    <rect width="119.8" height="30.3" x="1152.9" y="408.3"/>
    <rect width="119.8" height="30.3" x="1152.9" y="438.6"/>
    <rect width="119.8" height="30.3" x="1152.9" y="468.9"/>
    <rect width="119.8" height="30.3" x="1152.9" y="499.2"/>
    <rect width="119.8" height="30.3" x="1152.9" y="529.5"/>
    <rect width="119.8" height="30.3" x="1152.9" y="559.7"/>
  </g>
  <rect width="179.4" height="269.1" x="940.3" y="281.9" fill="none" stroke="#000" stroke-width=".3" stroke-miterlimit="10"/>
  <rect width="165.4" height="255" x="947.3" y="289" fill="none" stroke="#000" stroke-width=".3" stroke-miterlimit="10"/>
  <rect width="63.7" height="15.2" x="790.5" y="2.5" fill="#003d58"/>
  <rect width="68.1" height="15.2" x="1204.6" y="2.5" fill="#003d58"/>
  <rect width="108" height="43.9" x="790.5" y="121.7" fill="#003d58"/>
  <rect width="121" height="43.9" x="1151.7" y="121.7" fill="#003d58"/>
  <rect width="76.8" height="24.6" x="915.4" y="551.1" fill="#003d58"/>
  <rect width="24.9" height="294" x="915.4" y="257" fill="#003d58"/>
  <rect width="204.3" height="24.9" x="940.3" y="257" fill="#003d58"/>
  <rect width="24.9" height="293.7" x="1119.7" y="281.9" fill="#003d58"/>
  <rect width="30.8" height="24.6" x="1088.9" y="551.1" fill="#003d58"/>
  <rect width="143.9" height="11.4" x="790.5" y="768.8" fill="#003d58"/>
  <rect width="147.6" height="11.4" x="1126.5" y="768.8" fill="#003d58"/>
  <rect width="351.3" height="6.8" x="854.2" y="10.9" fill="#9e9d9c"/>
  <rect width="44.4" height="121.6" x="1943.7" y="1712.3" fill="#003d58"/>
  <rect width="44.4" height="61.2" x="1943.7" y="1932.8" fill="#003d58"/>
  <rect width="44.4" height="121.6" x="76" y="1712.3" fill="#003d58"/>
  <rect width="44.4" height="61.2" x="76" y="1932.8" fill="#003d58"/>
  <rect width="44.4" height="121.6" x="76" y="325.7" fill="#003d58"/>
  <rect width="44.4" height="61.2" x="76" y="165.6" fill="#003d58"/>
  <rect width="44.4" height="121.6" x="1943.7" y="325.7" fill="#003d58"/>
  <rect width="44.4" height="61.2" x="1943.7" y="165.6" fill="#003d58"/>
  <g fill="#fff" stroke="#000" stroke-width=".3" stroke-miterlimit="10">
    <rect width="12.6" height="391.9" x="2051.3" y="1712.2"/>
    <rect width="3.8" height="391.9" x="2057" y="1712.2"/>
  </g>
  <g fill="#fff" stroke="#000" stroke-width=".3" stroke-miterlimit="10">
    <rect width="315.7" height="12.6" x="1748.2" y="2104.1"/>
    <rect width="315.7" height="3.8" x="1748.2" y="2109.8"/>
  </g>
  <g fill="#fff" stroke="#000" stroke-width=".3" stroke-miterlimit="10">
    <rect width="12.6" height="65.7" x="1748.2" y="2038.3"/>
    <rect width="3.8" height="65.7" x="1751.3" y="2038.3"/>
  </g>
  <g fill="#fff" stroke="#000" stroke-width=".3" stroke-miterlimit="10">
    <rect width="75.8" height="12.6" x="1988" y="1699.6"/>
    <rect width="75.8" height="3.8" x="1988" y="1702.7"/>
  </g>
  <g fill="#fff" stroke="#000" stroke-width=".3" stroke-miterlimit="10">
    <rect width="12.6" height="391.9" x=".1" y="55.5"/>
    <rect width="3.8" height="391.9" x="3.2" y="55.5"/>
  </g>
  <g fill="#fff" stroke="#000" stroke-width=".3" stroke-miterlimit="10">
    <rect width="315.7" height="12.6" x=".1" y="43"/>
    <rect width="315.7" height="3.8" x=".1" y="46.1"/>
  </g>
  <g fill="#fff" stroke="#000" stroke-width=".3" stroke-miterlimit="10">
    <rect width="12.6" height="65.7" x="303.3" y="55.5"/>
    <rect width="3.8" height="65.7" x="309" y="55.5"/>
  </g>
  <g fill="#fff" stroke="#000" stroke-width=".3" stroke-miterlimit="10">
    <rect width="75.8" height="12.6" x=".1" y="447.4"/>
    <rect width="75.8" height="3.8" x=".1" y="453.1"/>
  </g>
  <g fill="#fff" stroke="#000" stroke-width=".3" stroke-miterlimit="10">
    <rect width="12.6" height="391.9" x=".1" y="1712.2"/>
    <rect width="3.8" height="391.9" x="3.2" y="1712.2"/>
  </g>
  <g fill="#fff" stroke="#000" stroke-width=".3" stroke-miterlimit="10">
    <rect width="315.7" height="12.6" x=".1" y="2104.1"/>
    <rect width="315.7" height="3.8" x=".1" y="2109.8"/>
  </g>
  <g fill="#fff" stroke="#000" stroke-width=".3" stroke-miterlimit="10">
    <rect width="12.6" height="65.7" x="303.3" y="2038.3"/>
    <rect width="3.8" height="65.7" x="309" y="2038.3"/>
  </g>
  <g fill="#fff" stroke="#000" stroke-width=".3" stroke-miterlimit="10">
    <rect width="75.8" height="12.6" x=".1" y="1699.6"/>
    <rect width="75.8" height="3.8" x=".1" y="1702.7"/>
  </g>
  <g fill="#fff" stroke="#000" stroke-width=".3" stroke-miterlimit="10">
    <rect width="12.6" height="391.9" x="2051.3" y="55.5"/>
    <rect width="3.8" height="391.9" x="2057" y="55.5"/>
  </g>
  <g fill="#fff" stroke="#000" stroke-width=".3" stroke-miterlimit="10">
    <rect width="315.7" height="12.6" x="1748.2" y="43"/>
    <rect width="315.7" height="3.8" x="1748.2" y="46.1"/>
  </g>
  <g fill="#fff" stroke="#000" stroke-width=".3" stroke-miterlimit="10">
    <rect width="12.6" height="65.7" x="1748.2" y="55.5"/>
    <rect width="3.8" height="65.7" x="1751.3" y="55.5"/>
  </g>
  <g fill="#fff" stroke="#000" stroke-width=".3" stroke-miterlimit="10">
    <rect width="75.8" height="12.6" x="1988" y="447.4"/>
    <rect width="75.8" height="3.8" x="1988" y="453.1"/>
  </g>
</svg>
