<svg id="4.3_2.svg" viewBox="0 0 2177.9 2184.3">
  <rect width="482.2" height="970.1" x="837.6" y="23.7" fill="#f6f6f6"/>
  <polygon fill="#dff2fd" fill-rule="evenodd" data-id-flat="1948" class="hovered_flat_at_plan flat_plan_5" points="1063.9 1474.3 1063.9 1234.1 1063.9 1234.1 1063.9 1031.5 993.8 1031.5 993.8 994 895 994 895 1031.5 824.2 1031.5 799.8 1031.5 799.8 140.3 350.4 140.3 350.4 12.4 12.4 12.4 12.4 453.4 135.7 453.4 135.7 1031.5 167.5 1031.5 167.5 1329.8 648.8 1329.8 648.8 1341.2 167.5 1341.2 167.5 1614.5 167.5 1706.6 383.9 1706.6 383.9 1614.5 396 1614.5 396 1718.4 350.4 1718.4 59.8 1718.4 59.8 2110.2 350.4 2110.2 350.4 2000.1 824.2 2000.1 1063.9 2000.1 1063.9 1764.9 824.2 1764.9 824.2 1753.1 1048.2 1753.1 1048.2 1486 824.2 1486 824.2 1474.3 1063.9 1474.3"/>
  <polygon fill="#e1efe3" fill-rule="evenodd" data-id-flat="1949" class="hovered_flat_at_plan flat_plan_5" points="1990.8 1712.7 1990.8 1341.2 1511.3 1341.2 1511.3 1329.8 1992.7 1329.8 1992.7 1031.5 2024.5 1031.5 2024.5 453.4 2098.5 453.4 2098.5 61.5 1807.9 61.5 1807.9 140.3 1360.3 140.3 1360.3 171.7 1357.5 171.7 1357.5 486.1 1360.3 486.1 1360.3 1031.5 1335.9 1031.5 1265.2 1031.5 1265.2 994 1166.4 994 1166.4 1031.5 1096.3 1031.5 1096.3 1234.1 1096.3 1234.1 1096.3 1474.3 1335.9 1474.3 1335.9 1486 1096.3 1486 1096.3 2000 1360.2 2000 1360.2 2000.1 1803 2000.1 1803 2171.8 2165.4 2171.8 2165.4 1712.7 1990.8 1712.7"/>
  <g fill="none" stroke="#000" stroke-width=".3" stroke-miterlimit="10">
    <rect width="5" height="95.1" x="662.5" y="497.7"/>
    <rect width="3.9" height="11.4" x="667.5" y="486.3"/>
    <path d="M572.4 497.7a95 95 0 0 0 95 95"/>
  </g>
  <g fill="none" stroke="#000" stroke-width=".3" stroke-miterlimit="10">
    <rect width="95.1" height="5" x="542.3" y="1261.1"/>
    <rect width="11.4" height="3.9" x="637.5" y="1266.1"/>
    <path d="M637.5 1171a95 95 0 0 0-95 95"/>
  </g>
  <g fill="none" stroke="#000" stroke-width=".3" stroke-miterlimit="10">
    <rect width="5" height="85.8" x="891.8" y="1148.6"/>
    <rect width="3.9" height="11.4" x="887.8" y="1234.4"/>
    <path d="M977.6 1234.4a85.8 85.8 0 0 0-85.8-85.8"/>
  </g>
  <g fill="none" stroke="#000" stroke-width=".3" stroke-miterlimit="10">
    <rect width="5" height="94.3" x="898.9" y="899.7"/>
    <rect width="3.9" height="11.4" x="895" y="994"/>
    <path d="M993.2 994a94.3 94.3 0 0 0-94.3-94.3"/>
  </g>
  <g fill="none" stroke="#000" stroke-width=".3" stroke-miterlimit="10">
    <rect width="5" height="95.1" x="762.6" y="1625.9"/>
    <rect width="3.9" height="11.4" x="767.5" y="1614.5"/>
    <path d="M672.4 1626a95 95 0 0 0 95 95"/>
  </g>
  <g fill="none" stroke="#000" stroke-width=".3" stroke-miterlimit="10">
    <rect width="95.1" height="5" x="542.3" y="1404.2"/>
    <rect width="11.4" height="3.9" x="637.5" y="1400.3"/>
    <path d="M637.5 1499.4a95 95 0 0 1-95-95"/>
  </g>
  <g fill="none" stroke="#000" stroke-width=".3" stroke-miterlimit="10">
    <rect width="85.6" height="5" x="811.4" y="1605.6"/>
    <rect width="11.4" height="3.9" x="800" y="1610.6"/>
    <path d="M811.4 1525a85.6 85.6 0 0 1 85.6 85.6"/>
  </g>
  <g fill="none" stroke="#000" stroke-width=".3" stroke-miterlimit="10">
    <rect width="95.1" height="5" x="1549.5" y="605.2"/>
    <rect width="11.4" height="3.9" x="1644.7" y="610.2"/>
    <path d="M1644.7 515a95 95 0 0 0-95 95"/>
  </g>
  <g fill="none" stroke="#000" stroke-width=".3" stroke-miterlimit="10">
    <rect width="5" height="95.1" x="1566.1" y="391.3"/>
    <rect width="3.9" height="11.4" x="1571.1" y="486.4"/>
    <path d="M1476 486.4a95 95 0 0 1 95-95"/>
  </g>
  <g fill="none" stroke="#000" stroke-width=".3" stroke-miterlimit="10">
    <rect width="95.1" height="5" x="1522.7" y="1261.1"/>
    <rect width="11.4" height="3.9" x="1511.3" y="1266.1"/>
    <path d="M1522.7 1171a95 95 0 0 1 95 95"/>
  </g>
  <g fill="none" stroke="#000" stroke-width=".3" stroke-miterlimit="10">
    <rect width="95.1" height="5" x="1906.5" y="1843.9"/>
    <rect width="11.4" height="3.9" x="2001.6" y="1840"/>
    <path d="M2001.6 1939a95 95 0 0 1-95-95"/>
  </g>
  <g fill="none" stroke="#000" stroke-width=".3" stroke-miterlimit="10">
    <rect width="95.1" height="5" x="156.7" y="1843.9"/>
    <rect width="11.4" height="3.9" x="145.3" y="1840"/>
    <path d="M156.7 1939a95 95 0 0 0 95-95"/>
  </g>
  <g fill="none" stroke="#000" stroke-width=".3" stroke-miterlimit="10">
    <rect width="95.1" height="5" x="156.7" y="322.9"/>
    <rect width="11.4" height="3.9" x="145.3" y="327.9"/>
    <path d="M156.7 232.7a95 95 0 0 1 95 95"/>
  </g>
  <g fill="none" stroke="#000" stroke-width=".3" stroke-miterlimit="10">
    <rect width="95.1" height="5" x="1906.5" y="322.9"/>
    <rect width="11.4" height="3.9" x="2001.6" y="327.9"/>
    <path d="M2001.6 232.7a95 95 0 0 0-95 95"/>
  </g>
  <g fill="none" stroke="#000" stroke-width=".3" stroke-miterlimit="10">
    <rect width="95.1" height="5" x="1520.8" y="825.7"/>
    <rect width="11.4" height="3.9" x="1509.4" y="821.8"/>
    <path d="M1520.8 921a95 95 0 0 0 95-95.2"/>
  </g>
  <g fill="none" stroke="#000" stroke-width=".3" stroke-miterlimit="10">
    <rect width="5" height="85.8" x="1263.4" y="1148.6"/>
    <rect width="3.9" height="11.4" x="1268.4" y="1234.4"/>
    <path d="M1182.6 1234.4a85.8 85.8 0 0 1 85.8-85.8"/>
  </g>
  <g fill="none" stroke="#000" stroke-width=".3" stroke-miterlimit="10">
    <rect width="5" height="94.3" x="1256.3" y="899.7"/>
    <polygon points="1261.3 994 1261.2 1005.4 1265.2 1005.4 1265.2 994 1261.3 994"/>
    <path d="M1167 994a94.3 94.3 0 0 1 94.2-94.3"/>
  </g>
  <rect width="44.4" height="194.2" x="123.1" y="1524.1" fill="#003d58"/>
  <rect width="228.1" height="11.7" x="167.5" y="1706.6" fill="#003d58"/>
  <rect width="11.7" height="92.1" x="383.9" y="1614.5" fill="#003d58"/>
  <rect width="277.1" height="11.7" x="395.6" y="1614.5" fill="#003d58"/>
  <rect width="11.9" height="115.5" x="636.9" y="1499" fill="#003d58"/>
  <rect width="338.6" height="44.4" x="123.1" y="2000.1" fill="#003d58"/>
  <rect width="44.4" height="92.5" x="123.1" y="1313.2" fill="#003d58"/>
  <rect width="469.2" height="12.1" x="167.5" y="1329.1" fill="#003d58"/>
  <rect width="12.1" height="130.2" x="636.7" y="1270.1" fill="#003d58"/>
  <rect width="44.4" height="311.4" x="123.1" y="804.2" fill="#003d58"/>
  <rect width="5" height="39.8" x="167.5" y="1075.8" fill="#003d58"/>
  <rect width="481.4" height="11.7" x="167.5" y="1017.2" fill="#003d58"/>
  <rect width="12.1" height="142.3" x="636.7" y="1029" fill="#003d58"/>
  <rect width="44.4" height="153.2" x="123.1" y="453.4" fill="#003d58"/>
  <rect width="5" height="39.4" x="167.5" y="473.1" fill="#003d58"/>
  <rect width="399.7" height="11.7" x="172.9" y="486.1" fill="#003d58"/>
  <rect width="409" height="44.4" x="123.1" y="127.3" fill="#003d58"/>
  <rect width="69.9" height="44.4" x="730" y="127.3" fill="#003d58"/>
  <rect width="49.4" height="11.7" x="671.5" y="486.1" fill="#003d58"/>
  <rect width="79.1" height="39.4" x="720.8" y="486.1" fill="#003d58"/>
  <rect width="37.7" height="1023.1" x="800" y="8.4" fill="#003d58"/>
  <rect width="57.3" height="37.7" x="837.6" y="993.8" fill="#003d58"/>
  <rect width="92.9" height="37.7" x="1264.6" y="993.8" fill="#003d58"/>
  <rect width="172" height="37.7" x="993.8" y="993.8" fill="#003d58"/>
  <rect width="37.7" height="986.6" x="1319.8" y="8.4" fill="#003d58"/>
  <rect width="167" height="44.4" x="1357.5" y="127.3" fill="#003d58"/>
  <rect width="392.2" height="44.4" x="1643" y="127.3" fill="#003d58"/>
  <rect width="39.3" height="5" x="1748.9" y="171.7" fill="#003d58"/>
  <rect width="78.7" height="39.4" x="1357.5" y="486.1" fill="#003d58"/>
  <rect width="39.8" height="11.7" x="1436.2" y="486.1" fill="#003d58"/>
  <rect width="68.9" height="11.7" x="1575" y="486.1" fill="#003d58"/>
  <rect width="469.2" height="11.7" x="1521.6" y="704.6" fill="#003d58"/>
  <rect width="44.4" height="338.3" x="1990.8" y="453.4" fill="#003d58"/>
  <rect width="44.4" height="228.1" x="1990.8" y="967.7" fill="#003d58"/>
  <rect width="5" height="39.8" x="1985.8" y="1075.8" fill="#003d58"/>
  <rect width="481.4" height="11.7" x="1509.4" y="1017.2" fill="#003d58"/>
  <rect width="12.1" height="250.4" x="1509.4" y="920.9" fill="#003d58"/>
  <rect width="12.1" height="117.2" x="1509.4" y="704.6" fill="#003d58"/>
  <rect width="12.1" height="90.5" x="1643.9" y="614.1" fill="#003d58"/>
  <rect width="12.1" height="343.3" x="1643.9" y="171.7" fill="#003d58"/>
  <rect width="44.4" height="96.1" x="1990.8" y="1314.2" fill="#003d58"/>
  <rect width="469.2" height="12.1" x="1521.6" y="1329.1" fill="#003d58"/>
  <rect width="11.7" height="71.2" x="1509.9" y="1270.1" fill="#003d58"/>
  <rect width="44.4" height="110.5" x="1990.8" y="1607.8" fill="#003d58"/>
  <rect width="44.4" height="121.6" x="1990.8" y="1718.4" fill="#003d58"/>
  <rect width="44.4" height="61.2" x="1990.8" y="1938.8" fill="#003d58"/>
  <rect width="44.4" height="121.6" x="123.1" y="1718.4" fill="#003d58"/>
  <rect width="44.4" height="61.2" x="123.1" y="1938.8" fill="#003d58"/>
  <rect width="44.4" height="121.6" x="123.1" y="331.8" fill="#003d58"/>
  <rect width="44.4" height="61.2" x="123.1" y="171.7" fill="#003d58"/>
  <rect width="44.4" height="121.6" x="1990.8" y="331.8" fill="#003d58"/>
  <rect width="44.4" height="61.2" x="1990.8" y="171.7" fill="#003d58"/>
  <rect width="428.2" height="44.4" x="1607" y="2000.1" fill="#003d58"/>
  <rect width="139.8" height="44.4" x="1269.6" y="2000.1" fill="#003d58"/>
  <rect width="39.3" height="5" x="1319" y="1995" fill="#003d58"/>
  <rect width="192.5" height="44.4" x="958.2" y="2000.1" fill="#003d58"/>
  <rect width="32.4" height="968.6" x="1063.9" y="1031.5" fill="#003d58"/>
  <rect width="86.9" height="11.7" x="977" y="1234.1" fill="#003d58"/>
  <rect width="76.2" height="11.7" x="811.7" y="1234.1" fill="#003d58"/>
  <rect width="11.7" height="252" x="800" y="1234.1" fill="#003d58"/>
  <rect width="252.2" height="11.7" x="811.7" y="1474.3" fill="#003d58"/>
  <rect width="86.9" height="11.7" x="1096.3" y="1234.1" fill="#003d58"/>
  <rect width="76.2" height="11.7" x="1272.3" y="1234.1" fill="#003d58"/>
  <rect width="11.7" height="252" x="1348.5" y="1234.1" fill="#003d58"/>
  <rect width="252.2" height="11.7" x="1096.3" y="1474.3" fill="#003d58"/>
  <rect width="15.7" height="149.4" x="1048.2" y="1245.8" fill="#003d58"/>
  <rect width="15.7" height="149.4" x="1096.3" y="1245.8" fill="#003d58"/>
  <rect width="15.7" height="267.1" x="1048.2" y="1486" fill="#003d58"/>
  <rect width="65.3" height="11.7" x="771.5" y="1614.5" fill="#003d58"/>
  <rect width="12.6" height="196.9" x="824.2" y="1626.3" fill="#003d58"/>
  <rect width="227.1" height="12.1" x="836.8" y="1752.7" fill="#003d58"/>
  <rect width="180" height="44.4" x="659.3" y="2000.1" fill="#003d58"/>
  <rect width="39.3" height="5" x="800" y="1995" fill="#003d58"/>
  <rect width="12.6" height="72" x="824.2" y="1923" fill="#003d58"/>
  <rect width="79.1" height="39.8" x="969.1" y="1355.4" fill="#003d58"/>
  <rect width="78.5" height="39.8" x="1112" y="1355.4" fill="#003d58"/>
  <g fill="#fff" stroke="#000" stroke-width=".3" stroke-miterlimit="10">
    <rect width="198" height="31.4" x="532.1" y="140.3"/>
    <rect width="198" height="8" x="532.1" y="127.3"/>
    <rect width="198" height="5" x="532.1" y="135.3"/>
    <rect width="198" height="2.5" x="532.1" y="146.5"/>
  </g>
  <g fill="#fff" stroke="#000" stroke-width=".3" stroke-miterlimit="10">
    <rect width="31.4" height="197.6" x="136.1" y="606.6"/>
    <rect width="8" height="197.6" x="123.1" y="606.6"/>
    <rect width="5" height="197.6" x="131.1" y="606.6"/>
    <rect width="2.5" height="197.6" x="142.3" y="606.6"/>
  </g>
  <g fill="#fff" stroke="#000" stroke-width=".3" stroke-miterlimit="10">
    <rect width="31.4" height="197.6" x="136.1" y="1115.6"/>
    <rect width="8" height="197.6" x="123.1" y="1115.6"/>
    <rect width="5" height="197.6" x="131.1" y="1115.6"/>
    <rect width="2.5" height="197.6" x="142.3" y="1115.6"/>
  </g>
  <g fill="#fff" stroke="#000" stroke-width=".3" stroke-miterlimit="10">
    <rect width="31.4" height="118.5" x="136.1" y="1405.7"/>
    <rect width="8" height="118.5" x="123.1" y="1405.7"/>
    <rect width="5" height="118.5" x="131.1" y="1405.7"/>
    <rect width="2.5" height="118.5" x="142.3" y="1405.7"/>
  </g>
  <g fill="#fff" stroke="#000" stroke-width=".3" stroke-miterlimit="10">
    <rect width="197.6" height="31.4" x="461.7" y="2000.1"/>
    <rect width="197.6" height="8" x="461.7" y="2036.5"/>
    <rect width="197.6" height="5" x="461.7" y="2031.4"/>
    <rect width="197.6" height="2.5" x="461.7" y="2022.8"/>
  </g>
  <g fill="#fff" stroke="#000" stroke-width=".3" stroke-miterlimit="10">
    <rect width="197.6" height="31.4" x="1409.4" y="2000.1"/>
    <rect width="197.6" height="8" x="1409.4" y="2036.5"/>
    <rect width="197.6" height="5" x="1409.4" y="2031.4"/>
    <rect width="197.6" height="2.5" x="1409.4" y="2022.8"/>
  </g>
  <g fill="#fff" stroke="#000" stroke-width=".3" stroke-miterlimit="10">
    <rect width="31.4" height="197.6" x="1990.8" y="1410.3"/>
    <rect width="8" height="197.6" x="2027.2" y="1410.3"/>
    <rect width="5" height="197.6" x="2022.2" y="1410.3"/>
    <rect width="2.5" height="197.6" x="2013.5" y="1410.3"/>
  </g>
  <g fill="#fff" stroke="#000" stroke-width=".3" stroke-miterlimit="10">
    <rect width="31.4" height="118.5" x="1990.8" y="1195.7"/>
    <rect width="8" height="118.5" x="2027.2" y="1195.7"/>
    <rect width="5" height="118.5" x="2022.2" y="1195.7"/>
    <rect width="2.5" height="118.5" x="2013.5" y="1195.7"/>
  </g>
  <g fill="#fff" stroke="#000" stroke-width=".3" stroke-miterlimit="10">
    <rect width="31.4" height="175.9" x="1990.8" y="791.7"/>
    <rect width="8" height="175.9" x="2027.2" y="791.7"/>
    <rect width="5" height="175.9" x="2022.2" y="791.7"/>
    <rect width="2.5" height="175.9" x="2013.5" y="791.7"/>
  </g>
  <g fill="#fff" stroke="#000" stroke-width=".3" stroke-miterlimit="10">
    <rect width="118.5" height="31.4" x="1524.5" y="140.3"/>
    <rect width="118.5" height="8" x="1524.5" y="127.3"/>
    <rect width="118.5" height="5" x="1524.5" y="135.3"/>
    <rect width="118.5" height="2.5" x="1524.5" y="146.5"/>
  </g>
  <g fill="#fff" stroke="#000" stroke-width=".3" stroke-miterlimit="10">
    <rect width="118.9" height="31.4" x="839.3" y="2000.1"/>
    <rect width="118.9" height="8" x="839.3" y="2036.5"/>
    <rect width="118.9" height="5" x="839.3" y="2031.4"/>
    <rect width="118.9" height="2.5" x="839.3" y="2022.8"/>
  </g>
  <g fill="#fff" stroke="#000" stroke-width=".3" stroke-miterlimit="10">
    <rect width="118.9" height="31.4" x="1150.7" y="2000.1"/>
    <rect width="118.9" height="8" x="1150.7" y="2036.5"/>
    <rect width="118.9" height="5" x="1150.7" y="2031.4"/>
    <rect width="118.9" height="2.5" x="1150.7" y="2022.8"/>
  </g>
  <rect width="34.7" height="39.4" x="800" y="1486" fill="#003d58"/>
  <rect width="34.7" height="39.4" x="1325.5" y="1486" fill="#003d58"/>
  <g fill="none" stroke="#000" stroke-width=".3" stroke-miterlimit="10">
    <rect width="5" height="95.3" x="1189.8" y="45.1"/>
    <rect width="4" height="11.5" x="1194.9" y="140.4"/>
    <path d="M1099.5 140.4A95.3 95.3 0 0 1 1195 45"/>
  </g>
  <g fill="none" stroke="#000" stroke-width=".3" stroke-miterlimit="10">
    <rect width="5" height="85.6" x="1164" y="689.1"/>
    <rect width="4" height="11.4" x="1169" y="774.8"/>
    <path d="M1169 689a91.7 91.7 0 0 0-91.7 92"/>
  </g>
  <g fill="none" stroke="#000" stroke-width=".3" stroke-miterlimit="10">
    <rect width="5" height="85.6" x="985.5" y="689.1"/>
    <rect width="4" height="11.4" x="981.6" y="774.8"/>
    <path d="M985.5 689a91.8 91.8 0 0 1 91.8 92"/>
  </g>
  <g fill="#fff" stroke="#000" stroke-width=".3" stroke-miterlimit="10">
    <rect width="153.9" height="16.1" x="945.6" y="135.9"/>
    <rect width="153.9" height="4.8" x="945.6" y="143.2"/>
  </g>
  <g fill="none" stroke="#000" stroke-width=".3" stroke-miterlimit="10">
    <rect width="119.8" height="30.3" x="832.7" y="263.1"/>
    <rect width="119.8" height="30.3" x="832.7" y="293.4"/>
    <rect width="119.8" height="30.3" x="832.7" y="323.7"/>
    <rect width="119.8" height="30.3" x="832.7" y="354"/>
    <rect width="119.8" height="30.3" x="832.7" y="384.3"/>
    <rect width="119.8" height="30.3" x="832.7" y="414.6"/>
    <rect width="119.8" height="30.3" x="832.7" y="444.9"/>
    <rect width="119.8" height="30.3" x="832.7" y="475.2"/>
    <rect width="119.8" height="30.3" x="832.7" y="505.5"/>
    <rect width="119.8" height="30.3" x="832.7" y="535.7"/>
    <rect width="119.8" height="30.3" x="832.7" y="566"/>
  </g>
  <g fill="none" stroke="#000" stroke-width=".3" stroke-miterlimit="10">
    <rect width="119.8" height="30.3" x="1200.1" y="262.9"/>
    <rect width="119.8" height="30.3" x="1200.1" y="293.2"/>
    <rect width="119.8" height="30.3" x="1200.1" y="323.5"/>
    <rect width="119.8" height="30.3" x="1200.1" y="353.8"/>
    <rect width="119.8" height="30.3" x="1200.1" y="384.1"/>
    <rect width="119.8" height="30.3" x="1200.1" y="414.4"/>
    <rect width="119.8" height="30.3" x="1200.1" y="444.7"/>
    <rect width="119.8" height="30.3" x="1200.1" y="474.9"/>
    <rect width="119.8" height="30.3" x="1200.1" y="505.2"/>
    <rect width="119.8" height="30.3" x="1200.1" y="535.5"/>
    <rect width="119.8" height="30.3" x="1200.1" y="565.8"/>
  </g>
  <rect width="179.4" height="269.1" x="987.4" y="288" fill="none" stroke="#000" stroke-width=".3" stroke-miterlimit="10"/>
  <rect width="165.4" height="255" x="994.4" y="295.1" fill="none" stroke="#000" stroke-width=".3" stroke-miterlimit="10"/>
  <rect width="63.7" height="15.2" x="837.6" y="8.5" fill="#003d58"/>
  <rect width="68.1" height="15.2" x="1251.8" y="8.5" fill="#003d58"/>
  <rect width="108" height="43.9" x="837.6" y="127.8" fill="#003d58"/>
  <rect width="121" height="43.9" x="1198.8" y="127.8" fill="#003d58"/>
  <rect width="76.8" height="24.6" x="962.5" y="557.1" fill="#003d58"/>
  <rect width="24.9" height="294" x="962.5" y="263.1" fill="#003d58"/>
  <rect width="204.3" height="24.9" x="987.4" y="263.1" fill="#003d58"/>
  <rect width="24.9" height="293.7" x="1166.8" y="288" fill="#003d58"/>
  <rect width="30.8" height="24.6" x="1136" y="557.1" fill="#003d58"/>
  <rect width="143.9" height="11.4" x="837.6" y="774.9" fill="#003d58"/>
  <rect width="147.6" height="11.4" x="1173.6" y="774.9" fill="#003d58"/>
  <rect width="351.3" height="6.8" x="901.4" y="17" fill="#9e9d9c"/>
  <g fill="#fff" stroke="#000" stroke-width=".3" stroke-miterlimit="10">
    <rect width="12.6" height="391.9" x="47.3" y="1718.3"/>
    <rect width="3.8" height="391.9" x="50.4" y="1718.3"/>
  </g>
  <g fill="#fff" stroke="#000" stroke-width=".3" stroke-miterlimit="10">
    <rect width="315.7" height="12.6" x="47.3" y="2110.2"/>
    <rect width="315.7" height="3.8" x="47.3" y="2115.9"/>
  </g>
  <g fill="#fff" stroke="#000" stroke-width=".3" stroke-miterlimit="10">
    <rect width="12.6" height="65.7" x="350.4" y="2044.4"/>
    <rect width="3.8" height="65.7" x="356.1" y="2044.4"/>
  </g>
  <g fill="#fff" stroke="#000" stroke-width=".3" stroke-miterlimit="10">
    <rect width="75.8" height="12.6" x="47.3" y="1705.7"/>
    <rect width="75.8" height="3.8" x="47.3" y="1708.8"/>
  </g>
  <g fill="#fff" stroke="#000" stroke-width=".3" stroke-miterlimit="10">
    <rect width="12.6" height="391.9" x="2098.5" y="61.5"/>
    <rect width="3.8" height="391.9" x="2104.2" y="61.5"/>
  </g>
  <g fill="#fff" stroke="#000" stroke-width=".3" stroke-miterlimit="10">
    <rect width="315.7" height="12.6" x="1795.4" y="49"/>
    <rect width="315.7" height="3.8" x="1795.4" y="52.1"/>
  </g>
  <g fill="#fff" stroke="#000" stroke-width=".3" stroke-miterlimit="10">
    <rect width="12.6" height="65.7" x="1795.4" y="61.5"/>
    <rect width="3.8" height="65.7" x="1798.5" y="61.5"/>
  </g>
  <g fill="#fff" stroke="#000" stroke-width=".3" stroke-miterlimit="10">
    <rect width="75.8" height="12.6" x="2035.2" y="453.4"/>
    <rect width="75.8" height="3.8" x="2035.2" y="459.1"/>
  </g>
  <g fill="#fff" stroke="#000" stroke-width=".3" stroke-miterlimit="10">
    <rect width="12.3" height="453.3" x=".1" y=".1"/>
    <rect width="3.7" height="453.3" x="3.2" y=".1"/>
  </g>
  <g fill="#fff" stroke="#000" stroke-width=".3" stroke-miterlimit="10">
    <rect width="338" height="12.3" x="12.4" y=".1"/>
    <rect width="338" height="3.7" x="12.4" y="3.2"/>
  </g>
  <g fill="#fff" stroke="#000" stroke-width=".3" stroke-miterlimit="10">
    <rect width="12.3" height="127.2" x="350.4" y=".1"/>
    <rect width="3.7" height="127.2" x="356" y=".1"/>
  </g>
  <g fill="#fff" stroke="#000" stroke-width=".3" stroke-miterlimit="10">
    <rect width="123" height="12.3" x=".1" y="453.4"/>
    <rect width="123" height="3.7" x=".1" y="459"/>
  </g>
  <g fill="#fff" stroke="#000" stroke-width=".3" stroke-miterlimit="10">
    <rect width="300" height="12.5" x="1795.4" y="2101.9"/>
    <rect width="288.1" height="3.2" x="1807.3" y="2107.1"/>
  </g>
  <g fill="#fff" stroke="#000" stroke-width=".3" stroke-miterlimit="10">
    <rect width="12.5" height="178.3" x="2095.4" y="1936"/>
    <rect width="3.2" height="178.3" x="2100.7" y="1936"/>
  </g>
  <g fill="#fff" stroke="#000" stroke-width=".3" stroke-miterlimit="10">
    <rect width="12.5" height="134.1" x="2095.4" y="1705.9"/>
    <rect width="3.2" height="134.1" x="2099.4" y="1705.9"/>
  </g>
  <g fill="#fff" stroke="#000" stroke-width=".3" stroke-miterlimit="10">
    <rect width="12.5" height="57.5" x="1795.4" y="2044.4"/>
    <rect width="3.2" height="65.9" x="1799.4" y="2044.4"/>
  </g>
  <g fill="#fff" stroke="#000" stroke-width=".3" stroke-miterlimit="10">
    <rect width="60.2" height="12.5" x="2035.2" y="1705.9"/>
    <rect width="60.2" height="3.2" x="2035.2" y="1711.1"/>
  </g>
  <rect width="12.5" height="57.5" x="1795.4" y="2114.3" fill="#9d9d9c"/>
  <rect width="12.5" height="466" x="2165.4" y="1705.9" fill="#9d9d9c"/>
  <rect width="57.5" height="12.5" x="2107.9" y="1705.9" fill="#9d9d9c"/>
  <rect width="382.5" height="12.5" x="1795.4" y="2171.8" fill="#9d9d9c"/>
</svg>
