<svg id="3.3_2" viewBox="0 0 2197.5 2203.3">
  <polygon fill="#e1efe3" data-id-flat="1886" class="hovered_flat_at_plan flat_plan_2" points="2074 1733.5 2074 1688.6 2074 1341.8 2074 1273.6 2028.7 1273.6 1573.1 1273.6 1355 1273.6 1355 1038.5 1293.5 1038.5 1293.5 1001 1193.3 1001 1193.3 1038.5 1123.8 1038.5 1123.8 1273.6 1123.8 1405.7 1123.8 1643.3 1123.8 2018.5 1744.2 2018.5 1744.2 2051.1 1843.7 2051.1 1843.7 2125.4 2137.7 2125.4 2137.7 1733.5 2074 1733.5"/>
  <polygon fill="#dff2fd" data-id-flat="1885" class="hovered_flat_at_plan flat_plan_4" points="1019.2 1038.6 1019.2 1000.5 918.8 1000.5 918.8 1038.6 825.3 1038.6 825.3 486.8 825.3 168.8 825.3 135.8 524.2 135.8 369.2 135.8 369.2 61.5 75.1 61.5 75.1 453.8 151.5 453.8 151.5 658.8 151.5 1733.5 12.5 1733.5 12.5 2190.8 370.1 2190.8 370.1 2018.5 825.3 2018.5 1089.9 2018.5 1089.9 1498.5 1089.9 1486.7 1089.9 1255 1089.9 1038.6 1019.2 1038.6"/>
  <polygon fill="#dddaee" data-id-flat="1887" class="hovered_flat_at_plan flat_plan_2" points="1843.7 12.8 1843.7 168.8 1388.9 168.8 1388.9 499.6 1388.9 773.5 1388.9 808.7 1350.8 808.7 1350.8 908.6 1388.9 908.6 1388.9 1240.6 1571 1240.6 2028.7 1240.6 2028.7 1083.5 2074 1083.5 2074 466.1 2184.8 466.1 2184.8 12.8 1843.7 12.8"/>
  <rect width="487.8" height="981.1" x="863" y="19.4" fill="#f6f6f6"/>
  <g fill="none" stroke="#000" stroke-width=".3" stroke-miterlimit="10">
    <rect width="5" height="95.3" x="1220.8" y="40.8"/>
    <rect width="4" height="11.5" x="1225.8" y="136.1"/>
    <path d="M1130.5 136A95.3 95.3 0 0 1 1226 41"/>
  </g>
  <g fill="none" stroke="#000" stroke-width=".3" stroke-miterlimit="10">
    <rect width="5" height="85.6" x="1195" y="684.8"/>
    <rect width="4" height="11.4" x="1200" y="770.5"/>
    <path d="M1200 684.8a91.7 91.7 0 0 0-91.7 91.8"/>
  </g>
  <g fill="none" stroke="#000" stroke-width=".3" stroke-miterlimit="10">
    <rect width="5" height="85.6" x="1016.5" y="684.8"/>
    <rect width="4" height="11.4" x="1012.5" y="770.5"/>
    <path d="M1016.5 684.8a91.8 91.8 0 0 1 91.8 91.8"/>
  </g>
  <g fill="none" stroke="#000" stroke-width=".3" stroke-miterlimit="10">
    <rect width="95.6" height="4.8" x="568.4" y="779.4"/>
    <rect width="11" height="3.8" x="664" y="775.6"/>
    <path d="M664 875a95.6 95.6 0 0 1-95.6-95.5"/>
  </g>
  <g fill="none" stroke="#000" stroke-width=".3" stroke-miterlimit="10">
    <rect width="95.6" height="4.8" x="535.2" y="590"/>
    <rect width="11" height="3.8" x="524.2" y="594.8"/>
    <path d="M535.2 499.2a95.6 95.6 0 0 1 95.6 95.6"/>
  </g>
  <g fill="none" stroke="#000" stroke-width=".3" stroke-miterlimit="10">
    <rect width="95.6" height="4.8" x="568" y="1168.9"/>
    <rect width="11" height="3.8" x="663.6" y="1173.7"/>
    <path d="M663.6 1078a95.6 95.6 0 0 0-95.6 95.7"/>
  </g>
  <g fill="none" stroke="#000" stroke-width=".3" stroke-miterlimit="10">
    <rect width="95.6" height="4.8" x="172.7" y="1765.9"/>
    <rect width="11" height="3.8" x="161.7" y="1762.1"/>
    <path d="M172.7 1861.6a95.6 95.6 0 0 0 95.6-95.6"/>
  </g>
  <g fill="none" stroke="#000" stroke-width=".3" stroke-miterlimit="10">
    <rect width="95.6" height="4.8" x="1944.8" y="1765.9"/>
    <rect width="11" height="3.8" x="2040.4" y="1762.1"/>
    <path d="M2040.5 1861.6a95.6 95.6 0 0 1-95.6-95.6"/>
  </g>
  <g fill="none" stroke="#000" stroke-width=".3" stroke-miterlimit="10">
    <rect width="95.6" height="4.8" x="1944.8" y="416.3"/>
    <rect width="11" height="3.8" x="2040.4" y="421.1"/>
    <path d="M2040.5 325.5A95.6 95.6 0 0 0 1945 421"/>
  </g>
  <g fill="none" stroke="#000" stroke-width=".3" stroke-miterlimit="10">
    <rect width="95.6" height="4.8" x="172.7" y="416.3"/>
    <rect width="11" height="3.8" x="161.7" y="421.1"/>
    <path d="M172.7 325.5a95.6 95.6 0 0 1 95.6 95.6"/>
  </g>
  <g fill="none" stroke="#000" stroke-width=".3" stroke-miterlimit="10">
    <rect width="4.8" height="95.6" x="922.6" y="905.4"/>
    <rect width="3.8" height="11" x="918.8" y="1001"/>
    <path d="M1018.3 1001a95.6 95.6 0 0 0-95.6-95.6"/>
  </g>
  <g fill="none" stroke="#000" stroke-width=".3" stroke-miterlimit="10">
    <rect width="4.8" height="95.6" x="1284.1" y="905.4"/>
    <rect width="3.8" height="11" x="1288.9" y="1001"/>
    <path d="M1193.3 1001a95.6 95.6 0 0 1 95.6-95.6"/>
  </g>
  <g fill="none" stroke="#000" stroke-width=".3" stroke-miterlimit="10">
    <rect width="95.6" height="4.8" x="1256.3" y="812.5"/>
    <rect width="11" height="3.8" x="1351.9" y="808.7"/>
    <path d="M1352 908a95.6 95.6 0 0 1-95.7-95.5"/>
  </g>
  <g fill="none" stroke="#000" stroke-width=".3" stroke-miterlimit="10">
    <rect width="4.8" height="95.6" x="1585" y="982.7"/>
    <rect width="3.8" height="11" x="1581.2" y="971.7"/>
    <path d="M1680.6 982.7a95.6 95.6 0 0 1-95.6 95.6"/>
  </g>
  <g fill="none" stroke="#000" stroke-width=".3" stroke-miterlimit="10">
    <rect width="4.8" height="95.6" x="1293.5" y="1299.2"/>
    <rect width="3.8" height="11" x="1298.3" y="1394.8"/>
    <path d="M1202.7 1394.8a95.6 95.6 0 0 1 95.6-95.6"/>
  </g>
  <g fill="none" stroke="#000" stroke-width=".3" stroke-miterlimit="10">
    <rect width="4.8" height="85.3" x="909.9" y="1254.5"/>
    <rect width="3.8" height="11" x="906.1" y="1243.6"/>
    <path d="M995.3 1254.5a85.3 85.3 0 0 1-85.3 85.3"/>
  </g>
  <g fill="none" stroke="#000" stroke-width=".3" stroke-miterlimit="10">
    <rect width="95.6" height="4.8" x="1572.2" y="1568.7"/>
    <rect width="11" height="3.8" x="1561.2" y="1573.5"/>
    <path d="M1572.2 1477.8a95.6 95.6 0 0 1 95.6 95.6"/>
  </g>
  <g fill="none" stroke="#000" stroke-width=".3" stroke-miterlimit="10">
    <rect width="4.8" height="85.3" x="1402.8" y="784.5"/>
    <rect width="3.8" height="11" x="1399" y="773.5"/>
    <path d="M1488.4 784.5A85.5 85.5 0 0 1 1403 870"/>
  </g>
  <g fill="none" stroke="#000" stroke-width=".3" stroke-miterlimit="10">
    <rect width="4.8" height="83.7" x="649.1" y="404.1"/>
    <rect width="3.8" height="11" x="645.3" y="487.7"/>
    <path d="M732.8 487.8A83.7 83.7 0 0 0 649 404"/>
  </g>
  <g fill="#fff" stroke="#9d9d9c" stroke-miterlimit="10">
    <rect width="199.9" height="31.8" x="1575.1" y="2018.5"/>
    <rect width="199.9" height="8.1" x="1575.1" y="2055.3"/>
    <rect width="199.9" height="5.1" x="1575.1" y="2050.2"/>
    <rect width="199.9" height="2.5" x="1575.1" y="2041.5"/>
  </g>
  <g fill="#fff" stroke="#9d9d9c" stroke-miterlimit="10">
    <rect width="117" height="31.8" x="1194.7" y="2018.5"/>
    <rect width="117" height="8.1" x="1194.7" y="2055.3"/>
    <rect width="117" height="5.1" x="1194.7" y="2050.2"/>
    <rect width="117" height="2.5" x="1194.7" y="2041.5"/>
  </g>
  <g fill="#fff" stroke="#9d9d9c" stroke-miterlimit="10">
    <rect width="119.8" height="31.8" x="917.6" y="2018.5"/>
    <rect width="119.8" height="8.1" x="917.6" y="2055.3"/>
    <rect width="119.8" height="5.1" x="917.6" y="2050.2"/>
    <rect width="119.8" height="2.5" x="917.6" y="2041.5"/>
  </g>
  <g fill="#fff" stroke="#9d9d9c" stroke-miterlimit="10">
    <rect width="199.9" height="31.8" x="533.1" y="2018.5"/>
    <rect width="199.9" height="8.1" x="533.1" y="2055.3"/>
    <rect width="199.9" height="5.1" x="533.1" y="2050.2"/>
    <rect width="199.9" height="2.5" x="533.1" y="2041.5"/>
  </g>
  <g fill="#fff" stroke="#9d9d9c" stroke-miterlimit="10">
    <rect width="31.8" height="119.8" x="152.4" y="1398.5"/>
    <rect width="8.1" height="119.8" x="139.3" y="1398.5"/>
    <rect width="5.1" height="119.8" x="147.3" y="1398.5"/>
    <rect width="2.5" height="119.8" x="158.6" y="1398.5"/>
  </g>
  <g fill="#fff" stroke="#9d9d9c" stroke-miterlimit="10">
    <rect width="31.8" height="119.8" x="152.4" y="1162.7"/>
    <rect width="8.1" height="119.8" x="139.3" y="1162.7"/>
    <rect width="5.1" height="119.8" x="147.3" y="1162.7"/>
    <rect width="2.5" height="119.8" x="158.6" y="1162.7"/>
  </g>
  <g fill="#fff" stroke="#9d9d9c" stroke-miterlimit="10">
    <rect width="31.8" height="168.9" x="152.4" y="701.6"/>
    <rect width="8.1" height="168.9" x="139.3" y="701.6"/>
    <rect width="5.1" height="168.9" x="147.3" y="701.6"/>
    <rect width="2.5" height="168.9" x="158.6" y="701.6"/>
  </g>
  <g fill="#fff" stroke="#9d9d9c" stroke-miterlimit="10">
    <rect width="137.8" height="31.8" x="625" y="136.7"/>
    <rect width="137.8" height="8.1" x="625" y="123.5"/>
    <rect width="137.8" height="5.1" x="625" y="131.6"/>
    <rect width="137.8" height="2.5" x="625" y="142.9"/>
  </g>
  <g fill="#fff" stroke="#9d9d9c" stroke-miterlimit="10">
    <rect width="199.9" height="31.8" x="1455.9" y="136.7"/>
    <rect width="199.9" height="8.1" x="1455.9" y="123.5"/>
    <rect width="199.9" height="5.1" x="1455.9" y="131.6"/>
    <rect width="199.9" height="2.5" x="1455.9" y="142.9"/>
  </g>
  <g fill="#fff" stroke="#9d9d9c" stroke-miterlimit="10">
    <rect width="31.8" height="176.2" x="2029.1" y="528.7"/>
    <rect width="8.1" height="176.2" x="2066" y="528.7"/>
    <rect width="5.1" height="176.2" x="2060.9" y="528.7"/>
    <rect width="2.5" height="176.2" x="2052.1" y="528.7"/>
  </g>
  <g fill="#fff" stroke="#9d9d9c" stroke-miterlimit="10">
    <rect width="31.8" height="177.2" x="2029.1" y="909.7"/>
    <rect width="8.1" height="177.2" x="2066" y="909.7"/>
    <rect width="5.1" height="177.2" x="2060.9" y="909.7"/>
    <rect width="2.5" height="177.2" x="2052.1" y="909.7"/>
  </g>
  <g fill="#fff" stroke="#9d9d9c" stroke-miterlimit="10">
    <rect width="31.8" height="189.7" x="2029.1" y="1308.8"/>
    <rect width="8.1" height="189.7" x="2066" y="1308.8"/>
    <rect width="5.1" height="189.7" x="2060.9" y="1308.8"/>
    <rect width="2.5" height="189.7" x="2052.1" y="1308.8"/>
  </g>
  <g fill="#fff" stroke="#9d9d9c" stroke-miterlimit="10">
    <rect width="12.3" height="453.3" x="2184.8" y=".5"/>
    <rect width="3.7" height="453.3" x="2190.3" y=".5"/>
  </g>
  <g fill="#fff" stroke="#9d9d9c" stroke-miterlimit="10">
    <rect width="340.7" height="12.3" x="1844.1" y=".5"/>
    <rect width="340.7" height="3.7" x="1844.1" y="3.5"/>
  </g>
  <g fill="#fff" stroke="#9d9d9c" stroke-miterlimit="10">
    <rect width="12.3" height="123.4" x="1831.8" y=".5"/>
    <rect width="3.7" height="123.4" x="1834.8" y=".5"/>
  </g>
  <g fill="#fff" stroke="#9d9d9c" stroke-miterlimit="10">
    <rect width="123" height="12.3" x="2074" y="453.8"/>
    <rect width="123" height="3.7" x="2074" y="459.4"/>
  </g>
  <g fill="#fff" stroke="#000" stroke-width=".3" stroke-miterlimit="10">
    <rect width="12.6" height="391.9" x="2137.7" y="1733.5"/>
    <rect width="3.8" height="391.9" x="2143.4" y="1733.5"/>
  </g>
  <g fill="#fff" stroke="#000" stroke-width=".3" stroke-miterlimit="10">
    <rect width="306.7" height="12.6" x="1843.6" y="2125.4"/>
    <rect width="306.7" height="3.8" x="1843.6" y="2131.1"/>
  </g>
  <g fill="#fff" stroke="#000" stroke-width=".3" stroke-miterlimit="10">
    <rect width="12.6" height="74.6" x="1831" y="2063.4"/>
    <rect width="3.8" height="74.6" x="1834.1" y="2063.4"/>
  </g>
  <g fill="#fff" stroke="#000" stroke-width=".3" stroke-miterlimit="10">
    <rect width="75.8" height="12.6" x="2074.4" y="1721"/>
    <rect width="75.8" height="3.8" x="2074.4" y="1724.1"/>
  </g>
  <g fill="#fff" stroke="#000" stroke-width=".3" stroke-miterlimit="10">
    <rect width="12.6" height="391.9" x="62.5" y="61.5"/>
    <rect width="3.8" height="391.9" x="65.6" y="61.5"/>
  </g>
  <g fill="#fff" stroke="#000" stroke-width=".3" stroke-miterlimit="10">
    <rect width="306.7" height="12.6" x="62.5" y="49"/>
    <rect width="306.7" height="3.8" x="62.5" y="52.1"/>
  </g>
  <g fill="#fff" stroke="#000" stroke-width=".3" stroke-miterlimit="10">
    <rect width="12.6" height="74.6" x="369.2" y="49"/>
    <rect width="3.8" height="74.6" x="374.9" y="49"/>
  </g>
  <g fill="#fff" stroke="#000" stroke-width=".3" stroke-miterlimit="10">
    <rect width="76.7" height="12.6" x="62.5" y="453.4"/>
    <rect width="76.7" height="3.8" x="62.5" y="459.1"/>
  </g>
  <g fill="#fff" stroke="#000" stroke-width=".3" stroke-miterlimit="10">
    <rect width="300" height="12.5" x="82.5" y="2120.8"/>
    <rect width="288.1" height="3.2" x="82.5" y="2126.1"/>
  </g>
  <g fill="#fff" stroke="#000" stroke-width=".3" stroke-miterlimit="10">
    <rect width="12.5" height="272.1" x="70" y="1861.2"/>
    <rect width="3.2" height="272.1" x="74" y="1861.2"/>
  </g>
  <g fill="#fff" stroke="#000" stroke-width=".3" stroke-miterlimit="10">
    <rect width="12.5" height="40.3" x="70" y="1720.9"/>
    <rect width="3.2" height="40.3" x="75.3" y="1720.9"/>
  </g>
  <g fill="#fff" stroke="#000" stroke-width=".3" stroke-miterlimit="10">
    <rect width="12.5" height="57.5" x="370" y="2063.4"/>
    <rect width="3.2" height="65.9" x="375.3" y="2063.4"/>
  </g>
  <g fill="#fff" stroke="#000" stroke-width=".3" stroke-miterlimit="10">
    <rect width="57.5" height="12.5" x="82.5" y="1720.9"/>
    <rect width="57.5" height="3.2" x="82.5" y="1726.2"/>
  </g>
  <g fill="#fff" stroke="#000" stroke-width=".3" stroke-miterlimit="10">
    <rect width="153.9" height="16.1" x="976.5" y="131.6"/>
    <rect width="153.9" height="4.8" x="976.5" y="138.9"/>
  </g>
  <rect width="486" height="45.3" x="139.1" y="123.5" fill="#003d58"/>
  <rect width="44.9" height="247.8" x="139.3" y="453.8" fill="#003d58"/>
  <rect width="490.8" height="11.9" x="184.2" y="658.8" fill="#003d58"/>
  <rect width="11.9" height="60.1" x="524.2" y="598.6" fill="#003d58"/>
  <rect width="11.9" height="105" x="663.1" y="670.6" fill="#003d58"/>
  <rect width="44.9" height="292.2" x="139.3" y="870.5" fill="#003d58"/>
  <rect width="11.9" height="202" x="663.1" y="875.6" fill="#003d58"/>
  <rect width="478.9" height="12.3" x="184.2" y="970.4" fill="#003d58"/>
  <rect width="44.9" height="116" x="139.3" y="1282.5" fill="#003d58"/>
  <rect width="490.4" height="11.9" x="184.2" y="1282.5" fill="#003d58"/>
  <rect width="11.4" height="105" x="663.1" y="1177.5" fill="#003d58"/>
  <rect width="44.9" height="215.1" x="139.3" y="1518.4" fill="#003d58"/>
  <rect width="394" height="44.9" x="139.1" y="2018.5" fill="#003d58"/>
  <rect width="184.6" height="44.9" x="733" y="2018.5" fill="#003d58"/>
  <rect width="40.2" height="5.1" x="824" y="2013.4" fill="#003d58"/>
  <rect width="11.9" height="14.8" x="824" y="1998.6" fill="#003d58"/>
  <rect width="157.3" height="44.9" x="1037.4" y="2018.5" fill="#003d58"/>
  <rect width="263.4" height="44.9" x="1311.8" y="2018.5" fill="#003d58"/>
  <rect width="39.8" height="5.1" x="1349.1" y="2013.4" fill="#003d58"/>
  <rect width="298.7" height="44.9" x="1775" y="2018.5" fill="#003d58"/>
  <rect width="34.7" height="5.1" x="1784" y="2013.4" fill="#003d58"/>
  <rect width="262" height="11.5" x="1812.1" y="1722" fill="#003d58"/>
  <rect width="13.3" height="117.3" x="1798.8" y="1616.2" fill="#003d58"/>
  <rect width="238" height="12.3" x="1560.8" y="1616.2" fill="#003d58"/>
  <rect width="12.3" height="39" x="1560.8" y="1577.2" fill="#003d58"/>
  <rect width="45.3" height="223.6" x="2028.7" y="1498.5" fill="#003d58"/>
  <rect width="45.3" height="221.9" x="2028.7" y="1086.9" fill="#003d58"/>
  <rect width="33.9" height="235" x="1355" y="1038.6" fill="#003d58"/>
  <rect width="639.8" height="33" x="1388.9" y="1240.6" fill="#003d58"/>
  <rect width="45.3" height="204.7" x="2028.7" y="704.9" fill="#003d58"/>
  <rect width="337.9" height="11.8" x="1690.8" y="857.8" fill="#003d58"/>
  <rect width="12.3" height="113.9" x="1690.8" y="869.6" fill="#003d58"/>
  <rect width="9.7" height="11.9" x="1681.1" y="971.7" fill="#003d58"/>
  <rect width="82.2" height="11.9" x="1499" y="971.7" fill="#003d58"/>
  <rect width="12.5" height="257" x="1558.5" y="983.6" fill="#003d58"/>
  <rect width="38.1" height="130" x="1350.8" y="908.6" fill="#003d58"/>
  <rect width="58" height="38.1" x="1292.8" y="1000.5" fill="#003d58"/>
  <rect width="173.6" height="38.1" x="1019.2" y="1000.5" fill="#003d58"/>
  <rect width="55.9" height="38.1" x="863" y="1000.5" fill="#003d58"/>
  <rect width="37.7" height="1034.4" x="825.3" y="4.2" fill="#003d58"/>
  <rect width="38.1" height="811.7" x="1350.8" y="4.2" fill="#003d58"/>
  <rect width="11.4" height="329.9" x="524.6" y="168.8" fill="#003d58"/>
  <rect width="109.3" height="11.9" x="536" y="486.8" fill="#003d58"/>
  <rect width="80" height="39.8" x="745.2" y="486.8" fill="#003d58"/>
  <rect width="10.2" height="11.9" x="735.1" y="486.8" fill="#003d58"/>
  <rect width="12.3" height="167.3" x="813" y="319.6" fill="#003d58"/>
  <rect width="62.4" height="45.3" x="762.9" y="123.5" fill="#003d58"/>
  <rect width="67" height="45.3" x="1388.9" y="123.5" fill="#003d58"/>
  <rect width="418.2" height="45.3" x="1655.8" y="123.5" fill="#003d58"/>
  <rect width="45.3" height="74.9" x="2028.7" y="453.8" fill="#003d58"/>
  <rect width="11.9" height="203.7" x="1561.2" y="1273.6" fill="#003d58"/>
  <rect width="149.9" height="75" x="1031.9" y="1038.6" fill="#003d58"/>
  <rect width="33.9" height="904.9" x="1089.9" y="1113.6" fill="#003d58"/>
  <rect width="94" height="11.8" x="995.9" y="1243.6" fill="#003d58"/>
  <rect width="82.2" height="11.8" x="824" y="1243.6" fill="#003d58"/>
  <rect width="11.9" height="303.2" x="824" y="1255.4" fill="#003d58"/>
  <rect width="254.1" height="11.9" x="835.9" y="1486.6" fill="#003d58"/>
  <rect width="23.3" height="39.8" x="835.9" y="1498.5" fill="#003d58"/>
  <rect width="80" height="39.8" x="1009.9" y="1361.7" fill="#003d58"/>
  <rect width="14.8" height="106.7" x="1075.1" y="1255" fill="#003d58"/>
  <rect width="80" height="40.2" x="1123.8" y="1393.5" fill="#003d58"/>
  <rect width="14.4" height="83.8" x="1123.8" y="1433.7" fill="#003d58"/>
  <rect width="265.1" height="11.9" x="1123.8" y="1643.3" fill="#003d58"/>
  <rect width="11.9" height="249.8" x="1377" y="1393.5" fill="#003d58"/>
  <rect width="75" height="12.3" x="1302.1" y="1393.5" fill="#003d58"/>
  <rect width="80" height="39.8" x="1388.9" y="486.8" fill="#003d58"/>
  <rect width="110.1" height="12.7" x="1468.9" y="486.8" fill="#003d58"/>
  <rect width="11.9" height="359.1" x="1579" y="426.7" fill="#003d58"/>
  <rect width="90.2" height="12.3" x="1488.8" y="773.5" fill="#003d58"/>
  <rect width="10.2" height="12.3" x="1388.9" y="773.5" fill="#003d58"/>
  <rect width="5.1" height="60.1" x="184.2" y="1673.4" fill="#003d58"/>
  <rect width="12.5" height="57.5" x="370" y="2133.3" fill="#9d9d9c"/>
  <rect width="12.5" height="469.9" y="1720.9" fill="#9d9d9c"/>
  <rect width="57.5" height="12.5" x="12.5" y="1720.9" fill="#9d9d9c"/>
  <rect width="382.5" height="12.5" y="2190.8" fill="#9d9d9c"/>
  <g fill="none" stroke="#000" stroke-width=".3" stroke-miterlimit="10">
    <rect width="119.8" height="30.3" x="863.6" y="258.8"/>
    <rect width="119.8" height="30.3" x="863.6" y="289.1"/>
    <rect width="119.8" height="30.3" x="863.6" y="319.4"/>
    <rect width="119.8" height="30.3" x="863.6" y="349.7"/>
    <rect width="119.8" height="30.3" x="863.6" y="380"/>
    <rect width="119.8" height="30.3" x="863.6" y="410.2"/>
    <rect width="119.8" height="30.3" x="863.6" y="440.5"/>
    <rect width="119.8" height="30.3" x="863.6" y="470.8"/>
    <rect width="119.8" height="30.3" x="863.6" y="501.1"/>
    <rect width="119.8" height="30.3" x="863.6" y="531.4"/>
    <rect width="119.8" height="30.3" x="863.6" y="561.7"/>
  </g>
  <g fill="none" stroke="#000" stroke-width=".3" stroke-miterlimit="10">
    <rect width="119.8" height="30.3" x="1228.8" y="258.6"/>
    <rect width="119.8" height="30.3" x="1228.8" y="288.9"/>
    <rect width="119.8" height="30.3" x="1228.8" y="319.2"/>
    <rect width="119.8" height="30.3" x="1228.8" y="349.4"/>
    <rect width="119.8" height="30.3" x="1228.8" y="379.7"/>
    <rect width="119.8" height="30.3" x="1228.8" y="410"/>
    <rect width="119.8" height="30.3" x="1228.8" y="440.3"/>
    <rect width="119.8" height="30.3" x="1228.8" y="470.6"/>
    <rect width="119.8" height="30.3" x="1228.8" y="500.9"/>
    <rect width="119.8" height="30.3" x="1228.8" y="531.2"/>
    <rect width="119.8" height="30.3" x="1228.8" y="561.5"/>
  </g>
  <rect width="179.4" height="269.1" x="1018.4" y="283.7" fill="none" stroke="#000" stroke-width=".3" stroke-miterlimit="10"/>
  <rect width="165.4" height="255" x="1025.3" y="290.7" fill="none" stroke="#000" stroke-width=".3" stroke-miterlimit="10"/>
  <rect width="69.3" height="15.2" x="863" y="4.2" fill="#003d58"/>
  <rect width="68.1" height="15.2" x="1282.7" y="4.2" fill="#003d58"/>
  <rect width="113.6" height="43.9" x="863" y="123.5" fill="#003d58"/>
  <rect width="120.6" height="43.9" x="1229.8" y="123.5" fill="#003d58"/>
  <rect width="76.8" height="24.6" x="993.5" y="552.8" fill="#003d58"/>
  <rect width="24.9" height="294" x="993.5" y="258.8" fill="#003d58"/>
  <rect width="204.3" height="24.9" x="1018.4" y="258.8" fill="#003d58"/>
  <rect width="24.9" height="293.7" x="1197.7" y="283.7" fill="#003d58"/>
  <rect width="30.8" height="24.6" x="1166.9" y="552.8" fill="#003d58"/>
  <rect width="148.9" height="11.4" x="863.6" y="770.5" fill="#003d58"/>
  <rect width="147.6" height="11.4" x="1203.9" y="770.5" fill="#003d58"/>
  <rect width="351.3" height="6.8" x="932.3" y="12.7" fill="#9e9d9c"/>
  <rect width="44.9" height="28.6" x="139.3" y="425.2" fill="#003d58"/>
  <rect width="44.9" height="28.6" x="139.3" y="1733.5" fill="#003d58"/>
  <rect width="45.3" height="28.6" x="2028.7" y="425.2" fill="#003d58"/>
  <rect width="45.3" height="157.2" x="2028.7" y="168.8" fill="#003d58"/>
  <rect width="45.3" height="157.2" x="139.1" y="168.8" fill="#003d58"/>
  <rect width="45.3" height="157.2" x="139.1" y="1861.3" fill="#003d58"/>
  <rect width="44.9" height="28.6" x="2028.6" y="1733.5" fill="#003d58"/>
  <rect width="45.3" height="157.2" x="2028.4" y="1861.3" fill="#003d58"/>
</svg>
