<svg id="4.4_4" viewBox="0 0 2198.3 2203.1">
  <polygon fill="#e1efe3" data-id-flat="1970" class="hovered_flat_at_plan flat_plan_2" points="1826.2 1749.8 1826.2 1694.7 1784.3 1694.7 1784.3 1554.9 1473.4 1554.9 1345.1 1554.9 1345.1 1054.7 977.8 1054.7 977.8 1016.6 877.5 1016.6 877.5 1054.7 842.3 1054.7 842.3 1235.6 842.3 1554.5 398 1554.5 398 1749.8 352.9 1749.8 130.7 1749.8 12.4 1749.8 12.4 2190.7 352.9 2190.7 352.9 2066.6 398 2066.6 398 2079.7 1055.4 2079.7 1822.1 2079.7 1822.1 2141.6 2122.1 2141.6 2122.1 1749.8 1826.2 1749.8"/>
  <polygon fill="#dddaee" data-id-flat="1971" class="hovered_flat_at_plan flat_plan_2" points="2185.8 12.5 1827.5 12.5 1827.5 139.9 1372.2 139.9 1372.2 574.8 1372.2 769.7 1372.2 851 1334 851 1334 951.4 1372.2 951.4 1372.2 1205.9 1372.2 1521 1542.4 1521 1815.1 1521 1815.1 1715.9 2013.4 1715.9 2013.8 1715.9 2013.8 1521 2058.3 1521 2058.3 469.7 2185.8 469.7 2185.8 12.5"/>
  <polygon fill="#dff2fd" data-id-flat="1969" class="hovered_flat_at_plan flat_plan_2" points="808.4 851.4 808.4 769.5 808.4 574.8 808.4 152.2 354.8 152.2 354.8 77.8 59 77.8 59 469.7 136.3 469.7 136.3 1521 168 1521 168 1715.9 168.8 1715.9 364.1 1715.9 364.1 1521 626.4 1521 638.2 1521 808.3 1521 808.4 1521 808.4 951.4 846.1 951.4 846.1 851.4 808.4 851.4"/>
  <rect width="487.9" height="979.6" x="846.1" y="37" fill="#f6f6f6"/>
  <g fill="none" stroke="#000" stroke-width=".3" stroke-miterlimit="10">
    <rect width="5.2" height="87" x="603" y="1205.7"/>
    <rect width="4.1" height="11.9" x="608.2" y="1193.8"/>
    <path d="M608.2 1292.7c-59 0-95.7-43.5-95.7-87"/>
  </g>
  <g fill="none" stroke="#000" stroke-width=".3" stroke-miterlimit="10">
    <rect width="87" height="5.2" x="498" y="860.9"/>
    <rect width="11.9" height="4.1" x="486.1" y="856.8"/>
    <path d="M585 861c0 59-43.5 95.6-87 95.6"/>
  </g>
  <g fill="none" stroke="#000" stroke-width=".3" stroke-miterlimit="10">
    <rect width="87.5" height="5.2" x="1594.7" y="861"/>
    <rect width="11.9" height="4.1" x="1682.2" y="856.9"/>
    <path d="M1594.7 861c0 59.4 43.7 96.2 87.5 96.2"/>
  </g>
  <g fill="none" stroke="#000" stroke-width=".3" stroke-miterlimit="10">
    <rect width="5.2" height="78" x="1489.9" y="782"/>
    <rect width="4.1" height="11.9" x="1495.1" y="770.1"/>
    <path d="M1495 860c-53 0-85.7-39-85.7-78"/>
  </g>
  <g fill="none" stroke="#000" stroke-width=".3" stroke-miterlimit="10">
    <rect width="86.9" height="5.2" x="1247.1" y="942"/>
    <rect width="11.9" height="4.1" x="1334" y="947.2"/>
    <path d="M1247 947.2c0-59 43.6-95.6 87-95.6"/>
  </g>
  <g fill="none" stroke="#000" stroke-width=".3" stroke-miterlimit="10">
    <rect width="86.9" height="5.2" x="846.1" y="855.5"/>
    <rect width="11.9" height="4.1" x="834.2" y="851.4"/>
    <path d="M933 855.5c0 59-43.5 95.6-87 95.6"/>
  </g>
  <g fill="none" stroke="#000" stroke-width=".3" stroke-miterlimit="10">
    <rect width="81.4" height="5.2" x="1056.6" y="1133.8"/>
    <rect width="11.9" height="4.1" x="1137.9" y="1129.7"/>
    <path d="M1056.6 1133.8c0 55.3 40.7 89.5 81.4 89.5"/>
  </g>
  <g fill="none" stroke="#000" stroke-width=".3" stroke-miterlimit="10">
    <rect width="5" height="77.9" x="1523.2" y="1205.5"/>
    <rect width="4.1" height="11.9" x="1528.1" y="1193.6"/>
    <path d="M1528.2 1283.4c-53 0-85.7-39-85.7-78"/>
  </g>
  <g fill="none" stroke="#000" stroke-width=".3" stroke-miterlimit="10">
    <rect width="5" height="87.9" x="1572.4" y="1205.5"/>
    <rect width="4.1" height="11.9" x="1568.3" y="1193.6"/>
    <path d="M1572.4 1293.4c59.7 0 96.7-44 96.7-88"/>
  </g>
  <g fill="none" stroke="#000" stroke-width=".3" stroke-miterlimit="10">
    <rect width="5.2" height="77.5" x="1301.8" y="1465.6"/>
    <rect width="4.1" height="11.9" x="1307" y="1543"/>
    <path d="M1307 1465.2c-52.7 0-85.4 39-85.4 77.8"/>
  </g>
  <g fill="none" stroke="#000" stroke-width=".3" stroke-miterlimit="10">
    <rect width="77.5" height="5.2" x="1345.1" y="1584.2"/>
    <rect width="11.9" height="4.1" x="1333.2" y="1580"/>
    <path d="M1423 1584c0 53-39 85.6-78 85.6"/>
  </g>
  <g fill="none" stroke="#000" stroke-width=".3" stroke-miterlimit="10">
    <rect width="86.8" height="5.2" x="157.5" y="1874.6"/>
    <rect width="11.9" height="4.1" x="145.6" y="1870.5"/>
    <path d="M244.3 1874.6c0 59-43.4 95.4-86.8 95.4"/>
  </g>
  <g fill="none" stroke="#000" stroke-width=".3" stroke-miterlimit="10">
    <rect width="86.8" height="5.2" x="1937.2" y="1874.6"/>
    <rect width="11.9" height="4.1" x="2024" y="1870.5"/>
    <path d="M1937.2 1874.6c0 59 43.4 95.4 86.8 95.4"/>
  </g>
  <g fill="none" stroke="#000" stroke-width=".3" stroke-miterlimit="10">
    <rect width="86.8" height="5.2" x="157.5" y="250.4"/>
    <rect width="11.9" height="4.1" x="145.6" y="246.3"/>
    <path d="M244.3 250.3c0 59-43.4 95.4-86.8 95.4"/>
  </g>
  <g fill="none" stroke="#000" stroke-width=".3" stroke-miterlimit="10">
    <rect width="86.8" height="5.2" x="1937.2" y="250.4"/>
    <rect width="11.9" height="4.1" x="2024" y="246.3"/>
    <path d="M1937.2 250.3c0 59 43.4 95.4 86.8 95.4"/>
  </g>
  <g fill="none" stroke="#000" stroke-width=".3" stroke-miterlimit="10">
    <rect width="5.2" height="77.5" x="1301.8" y="1706.6"/>
    <rect width="4.1" height="11.9" x="1307" y="1694.7"/>
    <path d="M1307 1784.3c-52.7 0-85.4-39-85.4-77.8"/>
  </g>
  <g fill="none" stroke="#000" stroke-width=".3" stroke-miterlimit="10">
    <rect width="5.2" height="86.9" x="881.6" y="955.9"/>
    <rect width="4.1" height="11.9" x="877.5" y="1042.8"/>
    <path d="M881.6 956c59 0 95.6 43.4 95.6 86.8"/>
  </g>
  <g fill="none" stroke="#000" stroke-width=".3" stroke-miterlimit="10">
    <rect width="5.2" height="77.7" x="652.5" y="1205.7"/>
    <rect width="4.1" height="11.9" x="648.3" y="1193.8"/>
    <path d="M652.5 1283.5c52.8 0 85.5-39 85.5-77.7"/>
  </g>
  <g fill="none" stroke="#000" stroke-width=".3" stroke-miterlimit="10">
    <rect width="5.2" height="77.7" x="685.6" y="781.6"/>
    <rect width="4.1" height="11.9" x="681.4" y="769.7"/>
    <path d="M685.6 859.3c52.8 0 85.5-39 85.5-77.7"/>
  </g>
  <g fill="none" stroke="#000" stroke-width=".3" stroke-miterlimit="10">
    <rect width="5" height="95.3" x="1203.9" y="58.3"/>
    <rect width="4" height="11.5" x="1209" y="153.7"/>
    <path d="M1113.6 153.6a95.3 95.3 0 0 1 95.4-95.3"/>
  </g>
  <g fill="none" stroke="#000" stroke-width=".3" stroke-miterlimit="10">
    <rect width="5" height="85.6" x="1178.1" y="702.4"/>
    <rect width="4" height="11.4" x="1183.1" y="788"/>
    <path d="M1183.2 702.3a91.7 91.7 0 0 0-91.7 91.8"/>
  </g>
  <g fill="none" stroke="#000" stroke-width=".3" stroke-miterlimit="10">
    <rect width="5" height="85.6" x="999.6" y="702.4"/>
    <rect width="4" height="11.4" x="995.7" y="788"/>
    <path d="M999.7 702.3a91.8 91.8 0 0 1 91.8 91.8"/>
  </g>
  <rect width="396" height="44.9" x="123.1" y="139.9" fill="#003d58"/>
  <rect width="169" height="44.9" x="639.4" y="139.9" fill="#003d58"/>
  <rect width="37.7" height="829.5" x="808.4" y="21.9" fill="#003d58"/>
  <rect width="137.2" height="40.2" x="671.2" y="562.6" fill="#003d58"/>
  <rect width="11.9" height="219" x="659.3" y="562.6" fill="#003d58"/>
  <rect width="10.2" height="11.9" x="671.2" y="769.7" fill="#003d58"/>
  <rect width="37.3" height="12.1" x="771.2" y="769.5" fill="#003d58"/>
  <rect width="44.9" height="133" x="123.1" y="469.8" fill="#003d58"/>
  <rect width="44.9" height="142.3" x="123.1" y="722.7" fill="#003d58"/>
  <rect width="330.4" height="11.9" x="168" y="769.7" fill="#003d58"/>
  <rect width="12.3" height="75.4" x="486.1" y="781.5" fill="#003d58"/>
  <rect width="44.9" height="211.8" x="123.1" y="1065.3" fill="#003d58"/>
  <rect width="5.1" height="40.2" x="168" y="1099.6" fill="#003d58"/>
  <rect width="344.3" height="12.3" x="168" y="1193.6" fill="#003d58"/>
  <rect width="12.3" height="237.2" x="486.1" y="956.9" fill="#003d58"/>
  <rect width="44.9" height="272.8" x="123.1" y="1477" fill="#003d58"/>
  <rect width="230" height="33.9" x="168" y="1715.9" fill="#003d58"/>
  <rect width="33.9" height="194.8" x="364.1" y="1521" fill="#003d58"/>
  <rect width="410.4" height="33.9" x="398" y="1521" fill="#003d58"/>
  <rect width="33.9" height="500.2" x="808.4" y="1054.7" fill="#003d58"/>
  <rect width="11" height="59.7" x="831.3" y="1554.9" fill="#003d58"/>
  <rect width="11.9" height="315.1" x="626.3" y="1205.9" fill="#003d58"/>
  <rect width="36" height="12.3" x="612.3" y="1193.6" fill="#003d58"/>
  <rect width="70.3" height="12.3" x="738.1" y="1193.6" fill="#003d58"/>
  <rect width="37.7" height="103.3" x="808.4" y="951.4" fill="#003d58"/>
  <rect width="31.3" height="38.1" x="846.1" y="1016.6" fill="#003d58"/>
  <rect width="356.2" height="38.1" x="977.8" y="1016.6" fill="#003d58"/>
  <rect width="38.1" height="103.3" x="1334" y="951.4" fill="#003d58"/>
  <rect width="38.1" height="829.5" x="1334" y="21.9" fill="#003d58"/>
  <rect width="129.2" height="44.9" x="1372.2" y="139.9" fill="#003d58"/>
  <rect width="357" height="44.9" x="1701.3" y="139.9" fill="#003d58"/>
  <rect width="44.9" height="120.7" x="2013.4" y="469.8" fill="#003d58"/>
  <rect width="44.9" height="189.3" x="2013.4" y="710.4" fill="#003d58"/>
  <rect width="331.2" height="11.9" x="1682.2" y="769.7" fill="#003d58"/>
  <rect width="11.9" height="75.4" x="1682.2" y="781.5" fill="#003d58"/>
  <rect width="44.9" height="178.9" x="2013.4" y="1035.7" fill="#003d58"/>
  <rect width="5.1" height="40.2" x="2008.3" y="1099.6" fill="#003d58"/>
  <rect width="345.2" height="12.3" x="1668.2" y="1193.6" fill="#003d58"/>
  <rect width="32.8" height="500.2" x="1339.3" y="1054.7" fill="#003d58"/>
  <rect width="443.9" height="33.9" x="1372.2" y="1521" fill="#003d58"/>
  <rect width="31.8" height="194.8" x="1784.3" y="1554.9" fill="#003d58"/>
  <rect width="197.4" height="33.9" x="1816" y="1715.9" fill="#003d58"/>
  <rect width="44.9" height="335.2" x="2013.4" y="1414.6" fill="#003d58"/>
  <rect width="363.8" height="44.9" x="123.1" y="2034.8" fill="#003d58"/>
  <rect width="110.2" height="44.9" x="988.8" y="2034.8" fill="#003d58"/>
  <rect width="145.2" height="44.9" x="686.5" y="2034.8" fill="#fff" stroke="#000" stroke-width=".3" stroke-miterlimit="10"/>
  <rect width="11.9" height="340.1" x="1055.4" y="1694.7" fill="#003d58"/>
  <rect width="154.2" height="11.9" x="1067.2" y="1694.7" fill="#003d58"/>
  <rect width="233.6" height="44.9" x="1298.9" y="2034.8" fill="#003d58"/>
  <rect width="12.3" height="340.1" x="1461.1" y="1694.7" fill="#003d58"/>
  <rect width="149.9" height="11.9" x="1311.2" y="1694.7" fill="#003d58"/>
  <rect width="11.9" height="25" x="1333.2" y="1669.7" fill="#003d58"/>
  <rect width="28.2" height="12.3" x="1311.2" y="1542.6" fill="#003d58"/>
  <rect width="11.9" height="24.6" x="1333.2" y="1554.9" fill="#003d58"/>
  <rect width="143.2" height="12.3" x="1078.2" y="1542.6" fill="#003d58"/>
  <rect width="11.9" height="307.1" x="1138.4" y="1235.6" fill="#003d58"/>
  <rect width="11.9" height="75" x="1138.4" y="1054.7" fill="#003d58"/>
  <rect width="261.1" height="12.3" x="1078.2" y="1223.3" fill="#003d58"/>
  <rect width="69.9" height="12.3" x="1372.2" y="1193.6" fill="#003d58"/>
  <rect width="36" height="12.3" x="1532.3" y="1193.6" fill="#003d58"/>
  <rect width="11.9" height="314.7" x="1542.4" y="1205.9" fill="#003d58"/>
  <rect width="11.4" height="236.8" x="1682.6" y="956.9" fill="#003d58"/>
  <rect width="37.3" height="11.9" x="1372.2" y="769.7" fill="#003d58"/>
  <rect width="22" height="11.9" x="1499.2" y="769.7" fill="#003d58"/>
  <rect width="11.9" height="207.1" x="1509.4" y="562.6" fill="#003d58"/>
  <rect width="137.2" height="40.2" x="1372.2" y="562.6" fill="#003d58"/>
  <rect width="414.6" height="44.9" x="1643.7" y="2034.8" fill="#003d58"/>
  <g fill="#fff" stroke="#000" stroke-width=".3" stroke-miterlimit="10">
    <rect width="31.8" height="199.9" x="136.3" y="1277.1"/>
    <rect width="8.1" height="199.9" x="123.1" y="1277.1"/>
    <rect width="5.1" height="199.9" x="131.2" y="1277.1"/>
    <rect width="2.5" height="199.9" x="142.5" y="1277.1"/>
  </g>
  <g fill="#fff" stroke="#000" stroke-width=".3" stroke-miterlimit="10">
    <rect width="199.9" height="31.8" x="486.9" y="2034.8"/>
    <rect width="199.9" height="8.1" x="487" y="2071.6"/>
    <rect width="199.9" height="5.1" x="487" y="2066.6"/>
    <rect width="199.9" height="2.5" x="486.9" y="2057.8"/>
  </g>
  <g fill="#fff" stroke="#000" stroke-width=".3" stroke-miterlimit="10">
    <rect width="199.9" height="31.8" x="1099" y="2034.8"/>
    <rect width="199.9" height="8.1" x="1099" y="2071.6"/>
    <rect width="199.9" height="5.1" x="1099" y="2066.6"/>
    <rect width="199.9" height="2.5" x="1099" y="2057.8"/>
  </g>
  <g fill="#fff" stroke="#000" stroke-width=".3" stroke-miterlimit="10">
    <rect width="111.2" height="31.8" x="1532.4" y="2034.8"/>
    <rect width="111.2" height="8.1" x="1532.4" y="2071.6"/>
    <rect width="111.2" height="5.1" x="1532.4" y="2066.6"/>
    <rect width="111.2" height="2.5" x="1532.4" y="2057.8"/>
  </g>
  <g fill="#fff" stroke="#000" stroke-width=".3" stroke-miterlimit="10">
    <rect width="157" height="31.8" x="831.7" y="2034.8"/>
    <rect width="157" height="8.1" x="831.7" y="2071.6"/>
    <rect width="157" height="5.1" x="831.7" y="2066.6"/>
    <rect width="157" height="2.5" x="831.7" y="2057.8"/>
  </g>
  <g fill="#fff" stroke="#000" stroke-width=".3" stroke-miterlimit="10">
    <rect width="31.8" height="200.3" x="136.3" y="865"/>
    <rect width="8.1" height="200.3" x="123.1" y="865"/>
    <rect width="5.1" height="200.3" x="131.2" y="865"/>
    <rect width="2.5" height="200.3" x="142.5" y="865"/>
  </g>
  <g fill="#fff" stroke="#000" stroke-width=".3" stroke-miterlimit="10">
    <rect width="31.8" height="119.9" x="136.3" y="602.8"/>
    <rect width="8.1" height="119.9" x="123.1" y="602.8"/>
    <rect width="5.1" height="119.9" x="131.2" y="602.8"/>
    <rect width="2.5" height="119.9" x="142.5" y="602.8"/>
  </g>
  <g fill="#fff" stroke="#000" stroke-width=".3" stroke-miterlimit="10">
    <rect width="120.3" height="31.8" x="519.1" y="153"/>
    <rect width="120.3" height="8.1" x="519.1" y="139.9"/>
    <rect width="120.3" height="5.1" x="519.1" y="147.9"/>
    <rect width="120.3" height="2.5" x="519.1" y="159.2"/>
  </g>
  <g fill="#fff" stroke="#000" stroke-width=".3" stroke-miterlimit="10">
    <rect width="31.8" height="136.1" x="2013.4" y="899.7"/>
    <rect width="8.1" height="136.1" x="2050.3" y="899.7"/>
    <rect width="5.1" height="136.1" x="2045.2" y="899.7"/>
    <rect width="2.5" height="136.1" x="2036.4" y="899.7"/>
  </g>
  <g fill="#fff" stroke="#000" stroke-width=".3" stroke-miterlimit="10">
    <rect width="31.8" height="119.9" x="2013.4" y="590.5"/>
    <rect width="8.1" height="119.9" x="2050.3" y="590.5"/>
    <rect width="5.1" height="119.9" x="2045.2" y="590.5"/>
    <rect width="2.5" height="119.9" x="2036.4" y="590.5"/>
  </g>
  <g fill="#fff" stroke="#000" stroke-width=".3" stroke-miterlimit="10">
    <rect width="31.8" height="199.9" x="2013.4" y="1214.7"/>
    <rect width="8.1" height="199.9" x="2050.3" y="1214.7"/>
    <rect width="5.1" height="199.9" x="2045.2" y="1214.7"/>
    <rect width="2.5" height="199.9" x="2036.4" y="1214.7"/>
  </g>
  <g fill="#fff" stroke="#000" stroke-width=".3" stroke-miterlimit="10">
    <rect width="199.9" height="31.8" x="1501.3" y="153"/>
    <rect width="199.9" height="8.1" x="1501.3" y="139.9"/>
    <rect width="199.9" height="5.1" x="1501.3" y="147.9"/>
    <rect width="199.9" height="2.5" x="1501.3" y="159.2"/>
  </g>
  <rect width="119.9" height="30.1" x="1031.2" y="986.5" fill="#003d58"/>
  <g fill="#fff" stroke="#000" stroke-width=".3" stroke-miterlimit="10">
    <rect width="12.3" height="453.3" x=".1" y="1749.7"/>
    <rect width="3.7" height="453.3" x="3.2" y="1749.7"/>
  </g>
  <g fill="#fff" stroke="#000" stroke-width=".3" stroke-miterlimit="10">
    <rect width="340.7" height="12.3" x="12.4" y="2190.7"/>
    <rect width="340.7" height="3.7" x="12.4" y="2196.2"/>
  </g>
  <g fill="#fff" stroke="#000" stroke-width=".3" stroke-miterlimit="10">
    <rect width="12.3" height="123.4" x="353.1" y="2079.5"/>
    <rect width="3.7" height="123.4" x="358.6" y="2079.5"/>
  </g>
  <g fill="#fff" stroke="#000" stroke-width=".3" stroke-miterlimit="10">
    <rect width="123" height="12.3" x=".1" y="1737.4"/>
    <rect width="123" height="3.7" x=".1" y="1740.4"/>
  </g>
  <g fill="#fff" stroke="#000" stroke-width=".3" stroke-miterlimit="10">
    <rect width="12.6" height="391.9" x="46.5" y="77.8"/>
    <rect width="3.8" height="391.9" x="49.6" y="77.8"/>
  </g>
  <g fill="#fff" stroke="#000" stroke-width=".3" stroke-miterlimit="10">
    <rect width="306.7" height="12.6" x="46.5" y="65.3"/>
    <rect width="306.7" height="3.8" x="46.5" y="68.4"/>
  </g>
  <g fill="#fff" stroke="#000" stroke-width=".3" stroke-miterlimit="10">
    <rect width="12.6" height="74.6" x="353.1" y="65.3"/>
    <rect width="3.8" height="74.6" x="358.8" y="65.3"/>
  </g>
  <g fill="#fff" stroke="#000" stroke-width=".3" stroke-miterlimit="10">
    <rect width="75.8" height="12.6" x="46.5" y="469.7"/>
    <rect width="75.8" height="3.8" x="46.5" y="475.4"/>
  </g>
  <g fill="#fff" stroke="#000" stroke-width=".3" stroke-miterlimit="10">
    <rect width="12.6" height="391.9" x="2122.1" y="1749.7"/>
    <rect width="3.8" height="391.9" x="2127.7" y="1749.7"/>
  </g>
  <g fill="#fff" stroke="#000" stroke-width=".3" stroke-miterlimit="10">
    <rect width="306.7" height="12.6" x="1828" y="2141.6"/>
    <rect width="306.7" height="3.8" x="1828" y="2147.3"/>
  </g>
  <g fill="#fff" stroke="#000" stroke-width=".3" stroke-miterlimit="10">
    <rect width="12.6" height="74.6" x="1815.4" y="2079.6"/>
    <rect width="3.8" height="74.6" x="1818.5" y="2079.6"/>
  </g>
  <g fill="#fff" stroke="#000" stroke-width=".3" stroke-miterlimit="10">
    <rect width="76.7" height="12.6" x="2057.9" y="1737.1"/>
    <rect width="76.7" height="3.8" x="2057.9" y="1740.2"/>
  </g>
  <g fill="#fff" stroke="#000" stroke-width=".3" stroke-miterlimit="10">
    <rect width="300" height="12.5" x="1815.8" y="70"/>
    <rect width="288.1" height="3.2" x="1827.7" y="74"/>
  </g>
  <g fill="#fff" stroke="#000" stroke-width=".3" stroke-miterlimit="10">
    <rect width="12.5" height="179" x="2115.8" y="70"/>
    <rect width="3.2" height="179" x="2121.1" y="70"/>
  </g>
  <g fill="#fff" stroke="#000" stroke-width=".3" stroke-miterlimit="10">
    <rect width="12.5" height="133.4" x="2115.8" y="349"/>
    <rect width="3.2" height="133.4" x="2119.8" y="349"/>
  </g>
  <g fill="#fff" stroke="#000" stroke-width=".3" stroke-miterlimit="10">
    <rect width="12.5" height="57.5" x="1815.8" y="82.5"/>
    <rect width="3.2" height="65.9" x="1819.8" y="74"/>
  </g>
  <g fill="#fff" stroke="#000" stroke-width=".3" stroke-miterlimit="10">
    <rect width="57.5" height="12.5" x="2058.3" y="469.9"/>
    <rect width="57.5" height="3.2" x="2058.3" y="473.9"/>
  </g>
  <rect width="12.5" height="57.5" x="1815.8" y="12.5" fill="#9d9d9c"/>
  <rect width="12.5" height="469.9" x="2185.8" y="12.5" fill="#9d9d9c"/>
  <rect width="57.5" height="12.5" x="2128.3" y="469.9" fill="#9d9d9c"/>
  <rect width="382.5" height="12.5" x="1815.8" fill="#9d9d9c"/>
  <rect width="44.9" height="120.8" x="2013.4" y="1749.8" fill="#003d58"/>
  <rect width="44.9" height="64.3" x="2013.4" y="1970.5" fill="#003d58"/>
  <rect width="44.9" height="120.8" x="123.1" y="1749.8" fill="#003d58"/>
  <rect width="44.9" height="64.3" x="123.1" y="1970.5" fill="#003d58"/>
  <rect width="44.9" height="61.5" x="2013.4" y="184.8" fill="#003d58"/>
  <rect width="44.9" height="123.6" x="2013.4" y="346.2" fill="#003d58"/>
  <rect width="44.9" height="61.5" x="123.1" y="184.8" fill="#003d58"/>
  <rect width="44.9" height="123.6" x="123.1" y="346.2" fill="#003d58"/>
  <g fill="#fff" stroke="#000" stroke-width=".3" stroke-miterlimit="10">
    <rect width="153.9" height="16.1" x="959.7" y="149.2"/>
    <rect width="153.9" height="4.8" x="959.7" y="156.5"/>
  </g>
  <g fill="none" stroke="#000" stroke-width=".3" stroke-miterlimit="10">
    <rect width="119.8" height="30.3" x="846.8" y="276.3"/>
    <rect width="119.8" height="30.3" x="846.8" y="306.6"/>
    <rect width="119.8" height="30.3" x="846.8" y="336.9"/>
    <rect width="119.8" height="30.3" x="846.8" y="367.2"/>
    <rect width="119.8" height="30.3" x="846.8" y="397.5"/>
    <rect width="119.8" height="30.3" x="846.8" y="427.8"/>
    <rect width="119.8" height="30.3" x="846.8" y="458.1"/>
    <rect width="119.8" height="30.3" x="846.8" y="488.4"/>
    <rect width="119.8" height="30.3" x="846.8" y="518.7"/>
    <rect width="119.8" height="30.3" x="846.8" y="549"/>
    <rect width="119.8" height="30.3" x="846.8" y="579.3"/>
  </g>
  <g fill="none" stroke="#000" stroke-width=".3" stroke-miterlimit="10">
    <rect width="119.8" height="30.3" x="1212.4" y="276.1"/>
    <rect width="119.8" height="30.3" x="1212.4" y="306.4"/>
    <rect width="119.8" height="30.3" x="1212.4" y="336.7"/>
    <rect width="119.8" height="30.3" x="1212.4" y="367"/>
    <rect width="119.8" height="30.3" x="1212.4" y="397.3"/>
    <rect width="119.8" height="30.3" x="1212.4" y="427.6"/>
    <rect width="119.8" height="30.3" x="1212.4" y="457.9"/>
    <rect width="119.8" height="30.3" x="1212.4" y="488.2"/>
    <rect width="119.8" height="30.3" x="1212.4" y="518.5"/>
    <rect width="119.8" height="30.3" x="1212.4" y="548.8"/>
    <rect width="119.8" height="30.3" x="1212.4" y="579.1"/>
  </g>
  <rect width="179.4" height="269.1" x="1001.5" y="301.2" fill="none" stroke="#000" stroke-width=".3" stroke-miterlimit="10"/>
  <rect width="165.4" height="255" x="1008.5" y="308.3" fill="none" stroke="#000" stroke-width=".3" stroke-miterlimit="10"/>
  <rect width="69.3" height="15.2" x="846.1" y="21.8" fill="#003d58"/>
  <rect width="68.1" height="15.2" x="1265.9" y="21.8" fill="#003d58"/>
  <rect width="113.6" height="43.9" x="846.1" y="141" fill="#003d58"/>
  <rect width="120.6" height="43.9" x="1213.5" y="141" fill="#003d58"/>
  <rect width="76.8" height="24.6" x="976.6" y="570.4" fill="#003d58"/>
  <rect width="24.9" height="294" x="976.6" y="276.3" fill="#003d58"/>
  <rect width="204.3" height="24.9" x="1001.5" y="276.3" fill="#003d58"/>
  <rect width="24.9" height="293.7" x="1180.9" y="301.2" fill="#003d58"/>
  <rect width="30.8" height="24.6" x="1150.1" y="570.4" fill="#003d58"/>
  <rect width="148.9" height="11.4" x="846.8" y="788.1" fill="#003d58"/>
  <rect width="147.6" height="11.4" x="1187.1" y="788.1" fill="#003d58"/>
  <rect width="350.4" height="6.8" x="915.5" y="30.2" fill="#9e9d9c"/>
</svg>
