<svg viewBox="0 0 3024.1 2073.6">
  <polygon data-id-flat="2208" class="hovered_flat_at_plan flat_plan_2" fill="#dddaee" fill-rule="evenodd" points="2007.6 78.6 2995 78.6 2995 945.6 2372.4 945.6 2372.4 983.3 2271.9 983.3 2271.9 945.6 2007.6 945.6 2007.6 78.6"/>
  <polygon data-id-flat="2209" class="hovered_flat_at_plan flat_plan_1" fill="#e3e3e3" points="2457.7 1053.1 2457.7 983.4 2639.3 983.4 2979.1 983.4 2983.5 983.4 2983.5 1882.5 3012.1 1882.5 3012.1 2073.5 2464.4 2073.5 2464.4 1893.2 2457.7 1893.2 2457.7 1153.7 2419.5 1153.7 2419.5 1053.1 2457.7 1053.1"/>
  <polygon data-id-flat="2210" class="hovered_flat_at_plan flat_plan_2" fill="#e1efe3" points="1999.4 1201.7 1999.4 1163.5 2099.6 1163.5 2099.6 1201.7 2101.6 1201.7 2101.6 1201.5 2419.7 1201.5 2419.7 1371.6 2419.5 1371.6 2419.5 2028.6 2101.6 2028.6 1489.6 2028.6 1489.6 1201.7 1999.4 1201.7"/>
  <polygon data-id-flat="2212" class="hovered_flat_at_plan flat_plan_2" fill="#dddaee" points="521.5 1201.5 823.5 1201.5 823.5 1201.7 838.5 1201.7 838.5 1163.5 938.4 1163.5 938.4 1201.7 1451.6 1201.7 1451.6 2073.5 1116.6 2073.5 1116.6 2028.6 823.5 2028.6 521.5 2028.6 521.5 1201.5"/>
  <polygon data-id-flat="2211" class="hovered_flat_at_plan flat_plan_2" fill="#dff2fd" points="688 78.6 688 264.8 695.1 264.8 695.1 1024.4 732.9 1024.4 732.9 1124 695.1 1124 695.1 1163.7 483.6 1163.7 483.6 1882.8 476.6 1882.8 476.6 2068.4 44.9 2068.4 44.9 78.6 688 78.6"/>
  <polygon data-id-flat="2207" class="hovered_flat_at_plan flat_plan_1" fill="#e1efe3" points="732.9 78.6 1140.6 78.6 1140.6 118.4 1443.5 118.4 1443.5 733.6 1443.5 945.6 1128.5 945.6 1096 945.6 1096 983.3 996 983.3 996 945.6 732.9 945.6 732.9 264.9 732.9 264.9 732.9 78.6"/>
  <rect width="488" height="963" x="1481.6" y="20.4" fill="#f6f6f6"/>
  <rect width="1686.6" height="180.3" x="732.9" y="983.4" fill="#f6f6f6"/>
  <g fill="none" stroke="#000" stroke-width=".3" stroke-miterlimit="10">
    <rect width="96.3" height="4.9" x="2563.9" y="122.5"/>
    <rect width="11.2" height="3.9" x="2660.2" y="118.6"/>
    <path d="M2660.2 218.7a96.3 96.3 0 0 1-96.3-96.3"/>
  </g>
  <g fill="none" stroke="#000" stroke-width=".3" stroke-miterlimit="10">
    <rect width="4.9" height="96.3" x="2715.3" y="264.8"/>
    <rect width="3.9" height="11.2" x="2711.5" y="253.6"/>
    <path d="M2811.6 264.7a96.3 96.3 0 0 1-96.3 96.3"/>
  </g>
  <g fill="none" stroke="#000" stroke-width=".3" stroke-miterlimit="10">
    <rect width="96.3" height="4.9" x="2604" y="646.9"/>
    <rect width="11.2" height="3.9" x="2700.3" y="651.8"/>
    <path d="M2700.3 555.4a96.3 96.3 0 0 0-96.3 96.3"/>
  </g>
  <g fill="none" stroke="#000" stroke-width=".3" stroke-miterlimit="10">
    <rect width="96.3" height="4.9" x="2221.7" y="646.9"/>
    <rect width="11.2" height="3.9" x="2318" y="651.8"/>
    <path d="M2318 555.4a96.3 96.3 0 0 0-96.3 96.3"/>
  </g>
  <g fill="none" stroke="#000" stroke-width=".3" stroke-miterlimit="10">
    <rect width="86.3" height="4.9" x="2261.6" y="783.7"/>
    <rect width="11.2" height="3.9" x="2250.4" y="779.9"/>
    <path d="M2261.6 870a86.3 86.3 0 0 0 86.3-86.4"/>
  </g>
  <g fill="none" stroke="#000" stroke-width=".3" stroke-miterlimit="10">
    <rect width="86.2" height="4.9" x="2553.9" y="1140.4"/>
    <rect width="11.2" height="3.9" x="2640.2" y="1145.3"/>
    <path d="M2640.2 1059a86.3 86.3 0 0 0-86.2 86.3"/>
  </g>
  <g fill="none" stroke="#000" stroke-width=".3" stroke-miterlimit="10">
    <rect width="4.9" height="96.6" x="2090.9" y="1067"/>
    <rect width="3.9" height="11.2" x="2095.8" y="1163.6"/>
    <path d="M1999.2 1163.6a96.6 96.6 0 0 1 96.6-96.6"/>
  </g>
  <g fill="none" stroke="#000" stroke-width=".3" stroke-miterlimit="10">
    <rect width="96.1" height="4.9" x="1150.9" y="1424.6"/>
    <rect width="11.2" height="3.9" x="1139.7" y="1420.7"/>
    <path d="M1151 1520.6a96 96 0 0 0 96-96"/>
  </g>
  <g fill="none" stroke="#000" stroke-width=".3" stroke-miterlimit="10">
    <rect width="4.9" height="96.1" x="1177.8" y="1786.4"/>
    <rect width="3.9" height="11.2" x="1173.9" y="1882.5"/>
    <path d="M1274 1882.4a96 96 0 0 0-96.2-96"/>
  </g>
  <g fill="none" stroke="#000" stroke-width=".3" stroke-miterlimit="10">
    <rect width="4.9" height="96.1" x="426.9" y="1786.4"/>
    <rect width="3.9" height="11.2" x="431.8" y="1882.5"/>
    <path d="M335.7 1882.4a96 96 0 0 1 96-96"/>
  </g>
  <g fill="none" stroke="#000" stroke-width=".3" stroke-miterlimit="10">
    <rect width="4.9" height="96.1" x="999.9" y="983.3"/>
    <rect width="3.9" height="11.2" x="996" y="972.1"/>
    <path d="M1096 983.3a96 96 0 0 1-96 96"/>
  </g>
  <g fill="none" stroke="#000" stroke-width=".3" stroke-miterlimit="10">
    <rect width="86.3" height="4.9" x="1043.2" y="789.6"/>
    <rect width="11.2" height="3.9" x="1129.4" y="785.8"/>
    <path d="M1129.4 876a86.3 86.3 0 0 1-86.3-86.4"/>
  </g>
  <g fill="none" stroke="#000" stroke-width=".3" stroke-miterlimit="10">
    <rect width="86.3" height="4.9" x="1139.6" y="712.8"/>
    <rect width="11.2" height="3.9" x="1128.5" y="717.7"/>
    <path d="M1139.6 631.4a86.3 86.3 0 0 1 86.3 86.3"/>
  </g>
  <g fill="none" stroke="#000" stroke-width=".3" stroke-miterlimit="10">
    <rect width="96.1" height="4.9" x="1054.2" y="1986.8"/>
    <rect width="11.2" height="3.9" x="1150.3" y="1991.7"/>
    <path d="M1150.3 1895.6a96 96 0 0 0-96 96"/>
  </g>
  <g fill="none" stroke="#000" stroke-width=".3" stroke-miterlimit="10">
    <rect width="4.9" height="96.1" x="842.4" y="1067.9"/>
    <rect width="3.9" height="11.2" x="838.5" y="1163.9"/>
    <path d="M938.5 1164a96 96 0 0 0-96-96.2"/>
  </g>
  <g fill="none" stroke="#000" stroke-width=".3" stroke-miterlimit="10">
    <rect width="96.1" height="4.9" x="732.8" y="1028.2"/>
    <rect width="11.2" height="3.9" x="721.6" y="1024.4"/>
    <path d="M732.8 1124.3a96 96 0 0 0 96-96"/>
  </g>
  <g fill="none" stroke="#000" stroke-width=".3" stroke-miterlimit="10">
    <rect width="86.2" height="4.9" x="726.2" y="1362.9"/>
    <rect width="11.2" height="3.9" x="812.4" y="1367.7"/>
    <path d="M812.4 1281.5a86.2 86.2 0 0 0-86.2 86.2"/>
  </g>
  <g fill="none" stroke="#000" stroke-width=".3" stroke-miterlimit="10">
    <rect width="4.9" height="86.5" x="1023.3" y="1411.7"/>
    <rect width="3.9" height="11.2" x="1019.5" y="1400.5"/>
    <path d="M1109.8 1411.7a86.5 86.5 0 0 1-86.5 86.5"/>
  </g>
  <g fill="none" stroke="#000" stroke-width=".3" stroke-miterlimit="10">
    <rect width="4.9" height="96.3" x="911.3" y="1572.8"/>
    <rect width="3.9" height="11.2" x="907.4" y="1561.6"/>
    <path d="M1007.5 1572.8a96.3 96.3 0 0 1-96.3 96.3"/>
  </g>
  <g fill="none" stroke="#000" stroke-width=".3" stroke-miterlimit="10">
    <rect width="96.3" height="4.9" x="716.1" y="1447.6"/>
    <rect width="11.2" height="3.9" x="812.4" y="1443.7"/>
    <path d="M812.4 1543.8a96.3 96.3 0 0 1-96.3-96.3"/>
  </g>
  <g fill="none" stroke="#000" stroke-width=".3" stroke-miterlimit="10">
    <rect width="96.1" height="4.9" x="1694" y="1424.6"/>
    <rect width="11.2" height="3.9" x="1790.1" y="1420.7"/>
    <path d="M1790 1520.6a96 96 0 0 1-96-96"/>
  </g>
  <g fill="none" stroke="#000" stroke-width=".3" stroke-miterlimit="10">
    <rect width="4.9" height="96.1" x="1758.3" y="1786.4"/>
    <rect width="3.9" height="11.2" x="1763.2" y="1882.5"/>
    <path d="M1667.2 1882.4a96 96 0 0 1 96-96"/>
  </g>
  <g fill="none" stroke="#000" stroke-width=".3" stroke-miterlimit="10">
    <rect width="96.1" height="4.9" x="1790.7" y="1986.8"/>
    <rect width="11.2" height="3.9" x="1779.5" y="1991.7"/>
    <path d="M1790.7 1895.6a96 96 0 0 1 96 96"/>
  </g>
  <g fill="none" stroke="#000" stroke-width=".3" stroke-miterlimit="10">
    <rect width="86.2" height="4.9" x="2128.6" y="1362.9"/>
    <rect width="11.2" height="3.9" x="2117.4" y="1367.7"/>
    <path d="M2128.6 1281.5a86.2 86.2 0 0 1 86.2 86.2"/>
  </g>
  <g fill="none" stroke="#000" stroke-width=".3" stroke-miterlimit="10">
    <rect width="4.9" height="86.5" x="1912.8" y="1411.7"/>
    <rect width="3.9" height="11.2" x="1917.6" y="1400.5"/>
    <path d="M1831.2 1411.7a86.5 86.5 0 0 0 86.5 86.5"/>
  </g>
  <g fill="none" stroke="#000" stroke-width=".3" stroke-miterlimit="10">
    <rect width="4.9" height="96.3" x="2024.8" y="1572.8"/>
    <rect width="3.9" height="11.2" x="2029.7" y="1561.6"/>
    <path d="M1933.5 1572.8a96.3 96.3 0 0 0 96.3 96.3"/>
  </g>
  <g fill="none" stroke="#000" stroke-width=".3" stroke-miterlimit="10">
    <rect width="96.3" height="4.9" x="2128.6" y="1447.6"/>
    <rect width="11.2" height="3.9" x="2117.4" y="1443.7"/>
    <path d="M2128.6 1543.8a96.3 96.3 0 0 0 96.3-96.3"/>
  </g>
  <g fill="none" stroke="#000" stroke-width=".3" stroke-miterlimit="10">
    <rect width="85.9" height="4.9" x="362.7" y="979.7"/>
    <rect width="11.2" height="3.9" x="351.5" y="984.6"/>
    <path d="M362.7 898.6a86 86 0 0 1 86 86"/>
  </g>
  <g fill="none" stroke="#000" stroke-width=".3" stroke-miterlimit="10">
    <rect width="85.9" height="4.9" x="398.4" y="867.1"/>
    <rect width="11.2" height="3.9" x="484.3" y="872"/>
    <path d="M484.3 786a86 86 0 0 0-86 86"/>
  </g>
  <g fill="none" stroke="#000" stroke-width=".3" stroke-miterlimit="10">
    <rect width="4.9" height="95.8" x="379.4" y="663.9"/>
    <rect width="3.9" height="11.2" x="375.5" y="759.6"/>
    <path d="M475 759.6a95.8 95.8 0 0 0-95.7-95.8"/>
  </g>
  <g fill="none" stroke="#000" stroke-width=".3" stroke-miterlimit="10">
    <rect width="4.9" height="95.8" x="1059.6" y="264.8"/>
    <rect width="3.9" height="11.2" x="1064.5" y="253.6"/>
    <path d="M968.7 264.7a95.8 95.8 0 0 0 95.8 95.8"/>
  </g>
  <g fill="none" stroke="#000" stroke-width=".3" stroke-miterlimit="10">
    <rect width="95.8" height="4.9" x="1106.6" y="122.5"/>
    <rect width="11.2" height="3.9" x="1095.4" y="118.6"/>
    <path d="M1106.6 218.2a95.8 95.8 0 0 0 95.8-95.8"/>
  </g>
  <g fill="none" stroke="#000" stroke-width=".3" stroke-miterlimit="10">
    <rect width="4.9" height="95.8" x="614.6" y="264.8"/>
    <rect width="3.9" height="11.2" x="619.5" y="253.6"/>
    <path d="M523.8 264.7a95.8 95.8 0 0 0 95.8 95.8"/>
  </g>
  <g fill="none" stroke="#000" stroke-width=".3" stroke-miterlimit="10">
    <rect width="95.8" height="4.9" x="362.7" y="150.1"/>
    <rect width="11.2" height="3.9" x="351.5" y="146.3"/>
    <path d="M362.7 246a95.8 95.8 0 0 0 95.8-96"/>
  </g>
  <g fill="none" stroke="#000" stroke-width=".3" stroke-miterlimit="10">
    <rect width="95.3" height="4.9" x="256.9" y="867.1"/>
    <rect width="11.2" height="3.9" x="352.2" y="872"/>
    <path d="M352.2 776.6A95.3 95.3 0 0 0 257 872"/>
  </g>
  <g fill="none" stroke="#000" stroke-width=".3" stroke-miterlimit="10">
    <rect width="96.7" height="4.9" x="2322.9" y="1144.9"/>
    <rect width="11.2" height="3.9" x="2419.5" y="1149.8"/>
    <path d="M2419.5 1053a96.7 96.7 0 0 0-96.7 96.8"/>
  </g>
  <g fill="none" stroke="#000" stroke-width=".3" stroke-miterlimit="10">
    <rect width="4.9" height="96.7" x="2523.3" y="1785.8"/>
    <rect width="3.9" height="11.2" x="2519.5" y="1882.5"/>
    <path d="M2620 1882.4a96.7 96.7 0 0 0-96.7-96.7"/>
  </g>
  <g fill="none" stroke="#000" stroke-width=".3" stroke-miterlimit="10">
    <rect width="4.9" height="96.7" x="2363.6" y="875.5"/>
    <rect width="3.9" height="11.2" x="2368.5" y="972.1"/>
    <path d="M2272 972a96.7 96.7 0 0 1 96.6-96.6"/>
  </g>
  <g fill="none" stroke="#000" stroke-width=".3" stroke-miterlimit="10">
    <rect width="86.3" height="4.9" x="2614" y="783.7"/>
    <rect width="11.2" height="3.9" x="2700.3" y="779.9"/>
    <path d="M2700.3 870a86.3 86.3 0 0 1-86.2-86.4"/>
  </g>
  <rect width="44.9" height="2000" y="73.5" fill="#003d58"/>
  <rect width="44.9" height="452" x="2979.1" y="73.5" fill="#003d58"/>
  <rect width="44.9" height="656.4" x="2979.1" y="675.7" fill="#003d58"/>
  <rect width="44.9" height="366.5" x="2979.1" y="1482" fill="#003d58"/>
  <rect width="138.3" height="45.2" x="2885.7" y="1848.5" fill="#003d58"/>
  <rect width="55.1" height="45.2" x="2464.4" y="1848.5" fill="#003d58"/>
  <rect width="44.9" height="225" x="2419.5" y="1848.5" fill="#003d58"/>
  <rect width="14.1" height="44.9" x="2405.4" y="2028.6" fill="#003d58"/>
  <rect width="112.1" height="44.9" x="2093.5" y="2028.6" fill="#003d58"/>
  <rect width="38.1" height="694.8" x="2419.5" y="1153.7" fill="#003d58"/>
  <rect width="320" height="38" x="2099.7" y="1163.5" fill="#003d58"/>
  <rect width="509.9" height="38.1" x="1489.6" y="1163.5" fill="#003d58"/>
  <rect width="126.5" height="44.9" x="1767.1" y="2028.6" fill="#003d58"/>
  <rect width="606.7" height="37.8" x="2372.4" y="945.6" fill="#003d58"/>
  <rect width="38.1" height="70" x="2419.5" y="983.4" fill="#003d58"/>
  <rect width="11.9" height="75.7" x="2639.5" y="983.4" fill="#003d58"/>
  <rect width="11.7" height="75.7" x="2699.7" y="869.9" fill="#003d58"/>
  <rect width="267.6" height="12" x="2711.5" y="735.5" fill="#003d58"/>
  <rect width="12.1" height="124.2" x="2699.3" y="655.6" fill="#003d58"/>
  <rect width="57.5" height="45" x="2921.5" y="253.6" fill="#003d58"/>
  <rect width="73.1" height="45.2" x="2598.2" y="73.5" fill="#003d58"/>
  <rect width="81.3" height="45.2" x="2317.1" y="73.5" fill="#003d58"/>
  <rect width="70.6" height="45.2" x="326.1" y="73.5" fill="#003d58"/>
  <rect width="45.2" height="27.6" x="351.5" y="118.6" fill="#003d58"/>
  <rect width="45.2" height="7.7" x="351.5" y="245.9" fill="#003d58"/>
  <rect width="81.3" height="45.2" x="44.9" y="73.5" fill="#003d58"/>
  <rect width="12.1" height="436.8" x="2317.1" y="118.6" fill="#003d58"/>
  <rect width="321.6" height="12.1" x="2007.6" y="735.5" fill="#003d58"/>
  <rect width="12.1" height="79.8" x="2317.1" y="655.6" fill="#003d58"/>
  <rect width="11.9" height="32.3" x="2250.4" y="747.6" fill="#003d58"/>
  <rect width="264.8" height="37.8" x="2007.6" y="945.6" fill="#003d58"/>
  <rect width="12" height="75.7" x="2250.3" y="869.9" fill="#003d58"/>
  <rect width="38" height="983.4" x="1969.6" fill="#003d58"/>
  <rect width="176.7" height="37.8" x="1792.9" y="945.6" fill="#003d58"/>
  <rect width="119.9" height="37.8" x="1481.6" y="945.6" fill="#003d58"/>
  <rect width="38.1" height="983.4" x="1443.5" fill="#003d58"/>
  <rect width="48.6" height="45.2" x="1095.4" y="73.5" fill="#003d58"/>
  <rect width="48.6" height="45.2" x="1395" y="73.5" fill="#003d58"/>
  <rect width="45.2" height="79.9" x="1095.4" y="218.6" fill="#003d58"/>
  <rect width="11.9" height="333.1" x="1128.7" y="298.5" fill="#003d58"/>
  <rect width="315.1" height="12.1" x="1128.5" y="721.4" fill="#003d58"/>
  <rect width="12.1" height="52.2" x="1128.5" y="733.6" fill="#003d58"/>
  <rect width="347.5" height="37.8" x="1096" y="945.6" fill="#003d58"/>
  <rect width="12.1" height="70" x="1128.5" y="875.6" fill="#003d58"/>
  <rect width="263.1" height="37.8" x="732.9" y="945.6" fill="#003d58"/>
  <rect width="12" height="132.1" x="924" y="813.5" fill="#003d58"/>
  <rect width="60" height="12.1" x="936" y="813.5" fill="#003d58"/>
  <rect width="173.1" height="44.9" x="1384" y="2028.6" fill="#003d58"/>
  <rect width="38" height="865.3" x="1451.6" y="1163.5" fill="#003d58"/>
  <rect width="513.1" height="38.1" x="938.4" y="1163.5" fill="#003d58"/>
  <rect width="44.9" height="79.9" x="2626.5" y="218.6" fill="#003d58"/>
  <rect width="40.1" height="44.9" x="2671.4" y="253.6" fill="#003d58"/>
  <rect width="12.1" height="256.9" x="2699.3" y="298.5" fill="#003d58"/>
  <rect width="44.9" height="180.1" x="688" y="73.5" fill="#003d58"/>
  <rect width="109.5" height="44.9" x="623.4" y="253.6" fill="#003d58"/>
  <rect width="71.7" height="44.9" x="732.9" y="253.6" fill="#003d58"/>
  <rect width="37.8" height="725.9" x="695.1" y="298.5" fill="#003d58"/>
  <rect width="11.9" height="111.8" x="483.6" y="875.8" fill="#003d58"/>
  <rect width="199.6" height="12.1" x="495.5" y="915.7" fill="#003d58"/>
  <rect width="219.6" height="12.1" x="475.4" y="758.7" fill="#003d58"/>
  <rect width="11.9" height="15" x="483.6" y="770.8" fill="#003d58"/>
  <rect width="61.8" height="44.9" x="351.5" y="253.6" fill="#003d58"/>
  <rect width="27" height="44.9" x="1068.3" y="253.6" fill="#003d58"/>
  <rect width="11.9" height="477.4" x="351.5" y="298.5" fill="#003d58"/>
  <rect width="12.1" height="12.1" x="363.4" y="758.7" fill="#003d58"/>
  <rect width="11.9" height="22.6" x="351.5" y="875.8" fill="#003d58"/>
  <rect width="306.6" height="12.1" x="44.9" y="881.5" fill="#003d58"/>
  <rect width="194.3" height="12.1" x="44.9" y="660.3" fill="#003d58"/>
  <rect width="126.5" height="44.9" x="1047.4" y="2028.6" fill="#003d58"/>
  <rect width="22" height="33" x="1139.5" y="1995.6" fill="#003d58"/>
  <rect width="111.8" height="44.9" x="735.7" y="2028.6" fill="#003d58"/>
  <rect width="12.1" height="477.1" x="811.4" y="1551.5" fill="#003d58"/>
  <rect width="14.1" height="44.9" x="521.5" y="2028.6" fill="#003d58"/>
  <rect width="44.9" height="225" x="476.6" y="1848.5" fill="#003d58"/>
  <rect width="40.9" height="45.2" x="435.6" y="1848.5" fill="#003d58"/>
  <rect width="37.8" height="684.8" x="483.6" y="1163.7" fill="#003d58"/>
  <rect width="317" height="38" x="521.5" y="1163.7" fill="#003d58"/>
  <rect width="12.1" height="79.9" x="811.4" y="1201.7" fill="#003d58"/>
  <rect width="37.8" height="39.4" x="695.1" y="1124.3" fill="#003d58"/>
  <rect width="11.9" height="219.1" x="1139.7" y="1201.7" fill="#003d58"/>
  <rect width="30.2" height="12.1" x="1109.5" y="1399.6" fill="#003d58"/>
  <rect width="21" height="12.1" x="998.5" y="1399.6" fill="#003d58"/>
  <rect width="12" height="210.2" x="986.5" y="1201.5" fill="#003d58"/>
  <rect width="302.1" height="11.9" x="521.5" y="1371.6" fill="#003d58"/>
  <rect width="12.1" height="68" x="811.4" y="1383.5" fill="#003d58"/>
  <rect width="83.9" height="12" x="823.5" y="1561.6" fill="#003d58"/>
  <rect width="131.8" height="12" x="1007.6" y="1561.6" fill="#003d58"/>
  <rect width="12.1" height="374.9" x="1139.5" y="1520.7" fill="#003d58"/>
  <rect width="22.3" height="47.1" x="1151.6" y="1848.5" fill="#003d58"/>
  <rect width="67.6" height="45.2" x="1384" y="1848.5" fill="#003d58"/>
  <rect width="22" height="33" x="1779.5" y="1995.6" fill="#003d58"/>
  <rect width="12.1" height="477.1" x="2117.4" y="1551.5" fill="#003d58"/>
  <rect width="12.1" height="79.9" x="2117.4" y="1201.7" fill="#003d58"/>
  <rect width="11.9" height="219.1" x="1789.4" y="1201.7" fill="#003d58"/>
  <rect width="30.2" height="12.1" x="1801.2" y="1399.6" fill="#003d58"/>
  <rect width="21" height="12.1" x="1921.5" y="1399.6" fill="#003d58"/>
  <rect width="12" height="210.2" x="1942.5" y="1201.5" fill="#003d58"/>
  <rect width="302.1" height="11.9" x="2117.4" y="1371.6" fill="#003d58"/>
  <rect width="12.1" height="68" x="2117.4" y="1383.5" fill="#003d58"/>
  <rect width="83.9" height="12" x="2033.6" y="1561.6" fill="#003d58"/>
  <rect width="131.8" height="12" x="1801.5" y="1561.6" fill="#003d58"/>
  <rect width="12.1" height="374.9" x="1789.4" y="1520.7" fill="#003d58"/>
  <rect width="22.3" height="47.1" x="1767.1" y="1848.5" fill="#003d58"/>
  <rect width="67.6" height="45.2" x="1489.4" y="1848.5" fill="#003d58"/>
  <rect width="39.8" height="45.2" x="1489.6" y="1848.5" fill="#003d58"/>
  <rect width="52.8" height="45.2" x="44.9" y="1848.5" fill="#003d58"/>
  <rect width="130.7" height="40.1" x="44.9" y="1075.5" fill="#003d58"/>
  <rect width="11.9" height="175.2" x="351.5" y="988.5" fill="#003d58"/>
  <rect width="306.6" height="11.9" x="44.9" y="1063.6" fill="#003d58"/>
  <rect width="11.9" height="179.8" x="3012.1" y="1893.6" fill="#003d58"/>
  <rect width="48" height="11.9" x="2964.1" y="2061.6" fill="#003d58"/>
  <rect width="327.8" height="11.9" x="2651.3" y="1165.5" fill="#003d58"/>
  <rect width="392" height="11.9" x="2587.1" y="1573.5" fill="#003d58"/>
  <rect width="39.4" height="11.9" x="2457.7" y="1573.5" fill="#003d58"/>
  <rect width="11.9" height="76.5" x="2639.5" y="1149.1" fill="#003d58"/>
  <rect width="11.9" height="234.3" x="2639.5" y="1339.2" fill="#003d58"/>
  <rect width="499.7" height="5.1" x="2464.4" y="2068.4" fill="#717071"/>
  <rect width="307.7" height="5.1" x="2671.4" y="73.5" fill="#717071"/>
  <rect width="362.5" height="5.1" x="732.9" y="73.5" fill="#717071"/>
  <rect width="291.3" height="5.1" x="396.7" y="73.5" fill="#717071"/>
  <rect width="431.7" height="5.1" x="44.9" y="2068.4" fill="#717071"/>
  <g fill="none" stroke="#000" stroke-width=".3" stroke-miterlimit="10">
    <rect width="119.8" height="30.3" x="1849.8" y="365.6"/>
    <rect width="119.8" height="30.3" x="1849.8" y="395.9"/>
    <rect width="119.8" height="30.3" x="1849.8" y="426.2"/>
    <rect width="119.8" height="30.3" x="1849.8" y="456.5"/>
    <rect width="119.8" height="30.3" x="1849.8" y="486.8"/>
    <rect width="119.8" height="30.3" x="1849.8" y="517.1"/>
    <rect width="119.8" height="30.3" x="1849.8" y="547.4"/>
    <rect width="119.8" height="30.3" x="1849.8" y="577.7"/>
    <rect width="119.8" height="30.3" x="1849.8" y="608"/>
    <rect width="119.8" height="30.3" x="1849.8" y="638.3"/>
    <rect width="119.8" height="30.3" x="1849.8" y="668.6"/>
  </g>
  <g fill="none" stroke="#000" stroke-width=".3" stroke-miterlimit="10">
    <rect width="119.8" height="30.3" x="1481.7" y="365.4"/>
    <rect width="119.8" height="30.3" x="1481.7" y="395.7"/>
    <rect width="119.8" height="30.3" x="1481.7" y="426"/>
    <rect width="119.8" height="30.3" x="1481.7" y="456.3"/>
    <rect width="119.8" height="30.3" x="1481.7" y="486.6"/>
    <rect width="119.8" height="30.3" x="1481.7" y="516.9"/>
    <rect width="119.8" height="30.3" x="1481.7" y="547.2"/>
    <rect width="119.8" height="30.3" x="1481.7" y="577.5"/>
    <rect width="119.8" height="30.3" x="1481.7" y="607.8"/>
    <rect width="119.8" height="30.3" x="1481.7" y="638"/>
    <rect width="119.8" height="30.3" x="1481.7" y="668.3"/>
  </g>
  <rect width="179.9" height="269.6" x="1635.9" y="390.3" fill="none" stroke="#000" stroke-width=".3" stroke-miterlimit="10"/>
  <rect width="165.9" height="255.4" x="1642.8" y="397.4" fill="none" stroke="#000" stroke-width=".3" stroke-miterlimit="10"/>
  <g fill="none" stroke="#000" stroke-width=".3" stroke-miterlimit="10">
    <rect width="5" height="85.6" x="1605.5" y="867.4"/>
    <rect width="4" height="11.4" x="1601.5" y="953.1"/>
    <path d="M1605.5 867.4a91.8 91.8 0 0 1 91.8 91.8"/>
  </g>
  <g fill="none" stroke="#000" stroke-width=".3" stroke-miterlimit="10">
    <rect width="5" height="85.6" x="1784" y="867.4"/>
    <rect width="4" height="11.4" x="1789" y="953.1"/>
    <path d="M1789 867.4a91.8 91.8 0 0 0-91.8 91.8"/>
  </g>
  <rect width="76.8" height="26.2" x="1764.9" y="659.5" fill="#003d58"/>
  <rect width="24.9" height="294" x="1816.8" y="365.5" fill="#003d58"/>
  <rect width="204.3" height="24.9" x="1612.6" y="365.5" fill="#003d58"/>
  <rect width="24.9" height="293.7" x="1612.6" y="390.4" fill="#003d58"/>
  <rect width="30.8" height="24.6" x="1637.5" y="659.5" fill="#003d58"/>
  <rect width="117.3" height="20.4" x="1852.3" y="156.8" fill="#003d58"/>
  <rect width="50.1" height="20.4" x="1919.5" fill="#003d58"/>
  <rect width="50.3" height="20.4" x="1481.6" fill="#003d58"/>
  <rect width="117.3" height="20.4" x="1481.7" y="156.8" fill="#003d58"/>
  <g fill="none" stroke="#000" stroke-width=".3" stroke-miterlimit="10">
    <polygon points="1608 165.6 1603 165.6 1603 70.3 1608 70.3 1608 165.6"/>
    <rect width="4" height="11.5" x="1599" y="165.6"/>
    <path d="M1698.4 165.6a95.3 95.3 0 0 0-95.4-95.3"/>
  </g>
  <g fill="#fff" stroke="#000" stroke-width=".3" stroke-miterlimit="10">
    <rect width="153.9" height="16.1" x="1698.4" y="161.1"/>
    <rect width="153.9" height="4.8" x="1698.4" y="168.4"/>
  </g>
  <g fill="#fff" stroke="#000" stroke-width=".3" stroke-miterlimit="10">
    <rect width="387.5" height="16.1" x="1532" y="4.3"/>
    <rect width="387.5" height="4.8" x="1532" y="11.6"/>
  </g>
  <g fill="#fff" stroke="#000" stroke-width=".3" stroke-miterlimit="10">
    <rect width="266.2" height="11.3" x="2619.4" y="1882.3"/>
    <rect width="266.2" height="3.4" x="2619.4" y="1887.5"/>
  </g>
  <g fill="#fff" stroke="#000" stroke-width=".3" stroke-miterlimit="10">
    <rect width="110.1" height="11.3" x="1273.9" y="1882.3"/>
    <rect width="110.1" height="3.4" x="1273.9" y="1887.5"/>
  </g>
  <g fill="#fff" stroke="#000" stroke-width=".3" stroke-miterlimit="10">
    <rect width="110.1" height="11.3" x="1557" y="1882.3"/>
    <rect width="110.1" height="3.4" x="1557" y="1887.5"/>
  </g>
  <g fill="#fff" stroke="#000" stroke-width=".3" stroke-miterlimit="10">
    <rect width="110.1" height="11.3" x="2811.4" y="253.6"/>
    <rect width="110.1" height="3.4" x="2811.4" y="256.4"/>
  </g>
  <g fill="#fff" stroke="#000" stroke-width=".3" stroke-miterlimit="10">
    <rect width="210.1" height="11.3" x="1173.9" y="2062.2"/>
    <rect width="210.1" height="3.4" x="1173.9" y="2067.3"/>
  </g>
  <g fill="#fff" stroke="#000" stroke-width=".3" stroke-miterlimit="10">
    <rect width="210.1" height="11.3" x="1557" y="2062.2"/>
    <rect width="210.1" height="3.4" x="1557" y="2067.3"/>
  </g>
  <g fill="#fff" stroke="#000" stroke-width=".3" stroke-miterlimit="10">
    <rect width="238" height="11.3" x="97.7" y="1882.4"/>
    <rect width="238" height="3.4" x="97.7" y="1887.5"/>
  </g>
  <g fill="#fff" stroke="#000" stroke-width=".3" stroke-miterlimit="10">
    <rect width="31.8" height="149.9" x="2979.1" y="1332.1"/>
    <rect width="8.1" height="149.9" x="3015.9" y="1332.1"/>
    <rect width="5.1" height="149.9" x="3010.9" y="1332.1"/>
    <rect width="2.5" height="149.9" x="3002.1" y="1332.1"/>
  </g>
  <g fill="#fff" stroke="#000" stroke-width=".3" stroke-miterlimit="10">
    <rect width="199.9" height="31.8" x="2205.5" y="2028.6"/>
    <rect width="199.9" height="8.1" x="2205.5" y="2065.4"/>
    <rect width="199.9" height="5.1" x="2205.5" y="2060.4"/>
    <rect width="199.9" height="2.5" x="2205.5" y="2051.6"/>
  </g>
  <g fill="#fff" stroke="#000" stroke-width=".3" stroke-miterlimit="10">
    <rect width="199.9" height="31.8" x="1893.6" y="2028.6"/>
    <rect width="199.9" height="8.1" x="1893.6" y="2065.4"/>
    <rect width="199.9" height="5.1" x="1893.6" y="2060.4"/>
    <rect width="199.9" height="2.5" x="1893.6" y="2051.6"/>
  </g>
  <g fill="#fff" stroke="#000" stroke-width=".3" stroke-miterlimit="10">
    <rect width="199.9" height="31.8" x="2398.4" y="86.6"/>
    <rect width="199.9" height="8.1" x="2398.4" y="73.5"/>
    <rect width="199.9" height="5.1" x="2398.4" y="81.5"/>
    <rect width="199.9" height="2.5" x="2398.4" y="92.8"/>
  </g>
  <g fill="#fff" stroke="#000" stroke-width=".3" stroke-miterlimit="10">
    <rect width="199.9" height="31.8" x="126.2" y="86.6"/>
    <rect width="199.9" height="8.1" x="126.2" y="73.5"/>
    <rect width="199.9" height="5.1" x="126.2" y="81.5"/>
    <rect width="199.9" height="2.5" x="126.2" y="92.8"/>
  </g>
  <g fill="#fff" stroke="#000" stroke-width=".3" stroke-miterlimit="10">
    <rect width="110.4" height="31.8" x="413.3" y="266.7"/>
    <rect width="110.4" height="8.1" x="413.3" y="253.6"/>
    <rect width="110.4" height="5.1" x="413.3" y="261.7"/>
    <rect width="110.4" height="2.5" x="413.3" y="273"/>
  </g>
  <g fill="#fff" stroke="#000" stroke-width=".3" stroke-miterlimit="10">
    <rect width="164.1" height="31.8" x="804.6" y="266.7"/>
    <rect width="164.1" height="8.1" x="804.6" y="253.6"/>
    <rect width="164.1" height="5.1" x="804.6" y="261.7"/>
    <rect width="164.1" height="2.5" x="804.6" y="273"/>
  </g>
  <g fill="#fff" stroke="#000" stroke-width=".3" stroke-miterlimit="10">
    <rect width="309.4" height="31.8" x="2007.6" y="86.6"/>
    <rect width="309.4" height="8.1" x="2007.6" y="73.5"/>
    <rect width="309.4" height="5.1" x="2007.6" y="81.5"/>
    <rect width="309.4" height="2.5" x="2007.6" y="92.8"/>
  </g>
  <g fill="#fff" stroke="#000" stroke-width=".3" stroke-miterlimit="10">
    <rect width="199.9" height="31.8" x="847.5" y="2028.6"/>
    <rect width="199.9" height="8.1" x="847.5" y="2065.4"/>
    <rect width="199.9" height="5.1" x="847.5" y="2060.4"/>
    <rect width="199.9" height="2.5" x="847.5" y="2051.6"/>
  </g>
  <g fill="#fff" stroke="#000" stroke-width=".3" stroke-miterlimit="10">
    <rect width="199.9" height="31.8" x="535.8" y="2028.6"/>
    <rect width="199.9" height="8.1" x="535.8" y="2065.4"/>
    <rect width="199.9" height="5.1" x="535.8" y="2060.4"/>
    <rect width="199.9" height="2.5" x="535.8" y="2051.6"/>
  </g>
  <g fill="#fff" stroke="#000" stroke-width=".3" stroke-miterlimit="10">
    <rect width="31.8" height="150.2" x="2979.1" y="525.5"/>
    <rect width="8.1" height="150.2" x="3015.9" y="525.5"/>
    <rect width="5.1" height="150.2" x="3010.9" y="525.5"/>
    <rect width="2.5" height="150.2" x="3002.1" y="525.5"/>
  </g>
  <g fill="#fff" stroke="#000" stroke-width=".3" stroke-miterlimit="10">
    <rect width="251" height="31.8" x="1144" y="86.6"/>
    <rect width="251" height="8.1" x="1144" y="73.5"/>
    <rect width="251" height="5.1" x="1144" y="81.5"/>
    <rect width="251" height="2.5" x="1144" y="92.8"/>
  </g>
</svg>
