<svg viewBox="0 0 3024.1 2228.2">
  <polygon data-id-flat="2046" class="hovered_flat_at_plan flat_plan_4" fill="#dff2fd" points="2309.2 1072 2309.2 222.5 2648 222.5 2692.7 222.5 2692.7 192.8 3008.7 192.8 3008.7 327.9 2979.1 327.4 2979.1 2028.2 2978.7 2028.2 2978.7 2162.8 2535.3 2162.8 2096.5 2162.8 2096.5 1305.6 2126.7 1305.7 2126.7 1268 2111.4 1268 2111.4 1072 2309.2 1072"/>
  <polygon data-id-flat="2047" class="hovered_flat_at_plan flat_plan_1" fill="#e1efe3" points="1042.6 192.8 1443.7 192.8 1443.7 222.9 1745.1 222.9 1745.1 814.9 1745.1 874.8 1745.1 1050.8 1430.9 1050.8 1417.8 1050.8 1417.8 1088.1 1317 1088.1 1317 1050.8 1042.6 1050.8 1042.6 192.8"/>
  <path data-id-flat="2049" class="hovered_flat_at_plan flat_plan_2" fill="#dddaee" d="M45 222.3v936.5h556.8v-109H659v38.2h90.3v-38h278V192.7h-400v29.5H44.8z"/>
  <polygon data-id-flat="2048" class="hovered_flat_at_plan flat_plan_1" fill="#e1efe3" points="1054 1305.7 1300.9 1305.7 1316.7 1305.7 1316.7 1268 1416.9 1268 1416.9 1305.7 1753.8 1305.7 1753.8 1489.9 1753.8 1982.9 1764.6 1982.9 1764.6 2162.8 1446.1 2162.8 1446.1 2133.2 1431.3 2133.2 1054 2133.2 1054 1305.7"/>
  <polygon data-id-flat="2050" class="hovered_flat_at_plan flat_plan_2" fill="#dddaee" points="1015.9 2133.2 639 2133.2 639 2112.9 623.8 2112.9 623.8 2212.8 100.1 2212.8 100.1 2228 0 2228 0 2028.2 44.9 2028.2 44.9 1378.3 44.9 1196.9 601.8 1196.9 601.8 1305.7 639 1305.7 657 1305.7 657 1268 749.1 1268 749.1 1305.7 874 1305.7 1015.9 1305.7"/>
  <rect width="1483.4" height="179.8" x="628" y="1088.3" fill="#f6f6f6"/>
  <rect width="487.8" height="996.4" x="1783.2" y="91.6" fill="#f6f6f6"/>
  <polygon fill="#f6f6f6" points="1791.3 2028.4 1791.3 1268 2058.4 1268 2058.4 2028.4 2058.4 2162.8 2058.4 2178.1 1779.8 2178.1 1779.8 2028.4 1791.3 2028.4"/>
  <rect width="148.6" height="45.3" x="2589.5" y="177.6" fill="#003d58"/>
  <rect width="97.4" height="45.3" x="2881.7" y="177.6" fill="#003d58"/>
  <rect width="80.5" height="45.3" x="2309.2" y="177.6" fill="#003d58"/>
  <rect width="38.1" height="1011.3" x="2271.1" y="76.8" fill="#003d58"/>
  <rect width="99.1" height="12.3" x="2309.2" y="1059.7" fill="#003d58"/>
  <rect width="17.8" height="12.3" x="2498.5" y="1059.7" fill="#003d58"/>
  <rect width="11.9" height="232.1" x="2516.3" y="839.9" fill="#003d58"/>
  <rect width="207.1" height="11.9" x="2309.2" y="914.9" fill="#003d58"/>
  <rect width="11.9" height="142.7" x="2516.3" y="607" fill="#003d58"/>
  <rect width="228.7" height="12.3" x="2309.2" y="594.7" fill="#003d58"/>
  <rect width="12.3" height="122" x="2648" y="514.7" fill="#003d58"/>
  <rect width="12.3" height="217.8" x="2679.9" y="296.8" fill="#003d58"/>
  <rect width="10.2" height="12.3" x="2637.8" y="594.7" fill="#003d58"/>
  <rect width="318.9" height="12.3" x="2660.2" y="514.7" fill="#003d58"/>
  <rect width="44.9" height="492.1" x="2979.1" y="177.6" fill="#003d58"/>
  <rect width="91.8" height="37.7" x="2436.3" y="1268" fill="#003d58"/>
  <rect width="19.8" height="149.9" x="2515.5" y="2028.2" fill="#003d58"/>
  <rect width="75.5" height="45.3" x="2515.5" y="1982.9" fill="#003d58"/>
  <rect width="143" height="45.3" x="2881" y="1982.9" fill="#003d58"/>
  <rect width="45.3" height="149.9" x="2978.7" y="2028.2" fill="#003d58"/>
  <rect width="44.9" height="334.1" x="2979.1" y="1648.7" fill="#003d58"/>
  <rect width="44.9" height="299.8" x="2979.1" y="1229.1" fill="#003d58"/>
  <rect width="74.6" height="27.1" x="2904.7" y="1396.8" fill="#003d58"/>
  <rect width="331.4" height="11.9" x="2648" y="1423.9" fill="#003d58"/>
  <rect width="12.3" height="221.1" x="2648" y="1202.8" fill="#003d58"/>
  <rect width="12.3" height="365.9" x="2648" y="737" fill="#003d58"/>
  <rect width="44.9" height="317.6" x="2979.1" y="791.2" fill="#003d58"/>
  <rect width="14.8" height="50" x="2964.3" y="942.8" fill="#003d58"/>
  <rect width="304.1" height="12.1" x="2660.2" y="968" fill="#003d58"/>
  <rect width="63.5" height="22.4" x="2915.6" y="327.9" fill="#003d58"/>
  <rect width="102.2" height="44.9" x="2401.5" y="2133.2" fill="#003d58"/>
  <rect width="131.1" height="39.8" x="2372.6" y="1512.8" fill="#003d58"/>
  <rect width="105" height="12.5" x="2267.6" y="1540.1" fill="#003d58"/>
  <rect width="11.9" height="81.7" x="2255.7" y="1470.9" fill="#003d58"/>
  <rect width="11.9" height="97.8" x="2255.7" y="1283.3" fill="#003d58"/>
  <rect width="92.6" height="37.7" x="2034.1" y="1268" fill="#003d58"/>
  <rect width="207.8" height="38.1" x="2063.3" y="1049.9" fill="#003d58"/>
  <rect width="30.1" height="110.1" x="2241" y="939.8" fill="#003d58"/>
  <rect width="374.3" height="37.7" x="1416.9" y="1268" fill="#003d58"/>
  <rect width="11.9" height="61" x="1430.9" y="1305.7" fill="#003d58"/>
  <rect width="11.9" height="172.3" x="1551.2" y="1305.7" fill="#003d58"/>
  <rect width="182.1" height="11.8" x="1430.9" y="1478.1" fill="#003d58"/>
  <rect width="11.9" height="11" x="1430.9" y="1467.1" fill="#003d58"/>
  <rect width="11.9" height="10.2" x="1430.9" y="1489.9" fill="#003d58"/>
  <rect width="11.9" height="393" x="1431.3" y="1589.9" fill="#003d58"/>
  <rect width="53.8" height="50" x="1431.3" y="1982.9" fill="#003d58"/>
  <rect width="186.4" height="15.3" x="1673.1" y="2162.8" fill="#003d58"/>
  <rect width="7.4" height="15.3" x="2051" y="2162.8" fill="#003d58"/>
  <rect width="15.2" height="149.8" x="1764.6" y="2028.4" fill="#003d58"/>
  <rect width="15.2" height="9.5" x="2111.4" y="1088.3" fill="#003d58"/>
  <rect width="15.2" height="70.3" x="2111.4" y="1197.7" fill="#003d58"/>
  <rect width="15.2" height="65.2" x="2512.9" y="1202.8" fill="#003d58"/>
  <rect width="213.9" height="15.3" x="2222.5" y="1268" fill="#003d58"/>
  <rect width="106.5" height="15.3" y="2212.8" fill="#003d58"/>
  <rect width="197.8" height="15.3" x="936.1" y="177.6" fill="#003d58"/>
  <rect width="15.2" height="135.1" x="1027.3" y="192.8" fill="#003d58"/>
  <rect width="15.2" height="184.4" y="2028.3" fill="#003d58"/>
  <rect width="38.1" height="722.7" x="1753.2" y="1305.7" fill="#003d58"/>
  <rect width="38.1" height="872.5" x="2058.4" y="1305.6" fill="#003d58"/>
  <rect width="50" height="11.4" x="1703.2" y="1478.1" fill="#003d58"/>
  <rect width="105.2" height="44.9" x="2096.5" y="2133.2" fill="#003d58"/>
  <rect width="45.3" height="145.3" x="1430.9" y="2032.8" fill="#003d58"/>
  <rect width="88.5" height="44.9" x="1342.4" y="2133.2" fill="#003d58"/>
  <rect width="88.5" height="45.3" x="1054" y="2132.8" fill="#003d58"/>
  <rect width="88.5" height="44.9" x="927.4" y="2133.2" fill="#003d58"/>
  <rect width="38.1" height="910" x="1015.9" y="1268" fill="#003d58"/>
  <rect width="263" height="37.7" x="1054" y="1268" fill="#003d58"/>
  <rect width="11.9" height="75.4" x="1289" y="1305.7" fill="#003d58"/>
  <rect width="11.4" height="141.9" x="1289" y="1470.9" fill="#003d58"/>
  <rect width="154.1" height="13.6" x="1134.9" y="1539.1" fill="#003d58"/>
  <rect width="80.9" height="39.8" x="1054" y="1512.8" fill="#003d58"/>
  <rect width="38.1" height="1011.5" x="1745.1" y="76.8" fill="#003d58"/>
  <rect width="113.9" height="38.1" x="1783.2" y="1049.9" fill="#003d58"/>
  <rect width="328.2" height="37.5" x="1416.9" y="1050.8" fill="#003d58"/>
  <rect width="12.3" height="95.6" x="1430.9" y="955.2" fill="#003d58"/>
  <rect width="12.3" height="152" x="1430.9" y="723" fill="#003d58"/>
  <rect width="171.9" height="11.8" x="1443.2" y="803.1" fill="#003d58"/>
  <rect width="130" height="39.8" x="1615.1" y="803.1" fill="#003d58"/>
  <rect width="47" height="45.3" x="1698.1" y="177.6" fill="#003d58"/>
  <rect width="55.1" height="45.3" x="1443.2" y="177.6" fill="#003d58"/>
  <rect width="45.3" height="195.2" x="1397.9" y="177.6" fill="#003d58"/>
  <rect width="12.3" height="260" x="1430.9" y="372.8" fill="#003d58"/>
  <rect width="38.1" height="760.1" x="1015.9" y="327.9" fill="#003d58"/>
  <rect width="96.1" height="44.9" x="1054" y="327.9" fill="#003d58"/>
  <rect width="95.7" height="44.9" x="920.2" y="327.9" fill="#003d58"/>
  <rect width="263" height="38.1" x="1054" y="1049.9" fill="#003d58"/>
  <rect width="266.8" height="38.1" x="749.1" y="1049.9" fill="#003d58"/>
  <rect width="257" height="11.9" x="758.9" y="879.2" fill="#003d58"/>
  <rect width="266.8" height="37.7" x="749.1" y="1268" fill="#003d58"/>
  <rect width="30.5" height="36.8" x="628" y="1268" fill="#003d58"/>
  <rect width="38.1" height="254.9" x="589.9" y="1049.9" fill="#003d58"/>
  <rect width="30.9" height="38.1" x="628" y="1049.9" fill="#003d58"/>
  <rect width="11.9" height="132.1" x="1239.1" y="917.8" fill="#003d58"/>
  <rect width="60.1" height="11.9" x="1250.9" y="917.8" fill="#003d58"/>
  <rect width="100.4" height="12.3" x="526.8" y="1498.8" fill="#003d58"/>
  <rect width="11.9" height="484" x="627.2" y="1498.8" fill="#003d58"/>
  <rect width="29.2" height="45.3" x="564.9" y="1982.9" fill="#003d58"/>
  <rect width="44.9" height="195.2" x="594.1" y="1982.9" fill="#003d58"/>
  <rect width="88.5" height="44.9" x="639" y="2133.2" fill="#003d58"/>
  <rect width="89.8" height="12.3" x="337.1" y="1498.8" fill="#003d58"/>
  <rect width="12.3" height="493.8" x="324.8" y="1489.1" fill="#003d58"/>
  <rect width="106.4" height="45.3" x="286.6" y="1982.9" fill="#003d58"/>
  <rect width="11.9" height="74.1" x="589.9" y="1304.9" fill="#003d58"/>
  <rect width="85.1" height="12.3" x="504.8" y="1366.7" fill="#003d58"/>
  <rect width="141.9" height="12.3" x="273.1" y="1366.7" fill="#003d58"/>
  <rect width="12.3" height="9.7" x="324.8" y="1379" fill="#003d58"/>
  <rect width="11.9" height="182.1" x="261.3" y="1196.9" fill="#003d58"/>
  <rect width="58" height="12.3" x="203.3" y="1366.7" fill="#003d58"/>
  <rect width="58" height="11.9" x="44.9" y="1366.7" fill="#003d58"/>
  <rect width="545" height="38.1" x="44.9" y="1158.8" fill="#003d58"/>
  <rect width="11.9" height="66.5" x="589.9" y="893.3" fill="#003d58"/>
  <rect width="112.2" height="11.9" x="477.7" y="893.3" fill="#003d58"/>
  <rect width="12.3" height="253.7" x="477.7" y="905.1" fill="#003d58"/>
  <rect width="141" height="11.9" x="246.9" y="893.3" fill="#003d58"/>
  <rect width="12.3" height="10.2" x="324.8" y="883.1" fill="#003d58"/>
  <rect width="11.9" height="265.5" x="235" y="893.3" fill="#003d58"/>
  <rect width="50" height="11.9" x="185.1" y="893.3" fill="#003d58"/>
  <rect width="70.3" height="44.7" x="556.9" y="177.6" fill="#003d58"/>
  <rect width="11.9" height="373.1" x="627.2" y="399.9" fill="#003d58"/>
  <rect width="30.1" height="50" x="608.9" y="349.9" fill="#003d58"/>
  <rect width="44.9" height="195.2" x="627.2" y="177.6" fill="#003d58"/>
  <rect width="63.9" height="44.7" x="293" y="177.6" fill="#003d58"/>
  <rect width="12.3" height="560.9" x="324.8" y="222.3" fill="#003d58"/>
  <rect width="89.8" height="11.4" x="337.1" y="761.6" fill="#003d58"/>
  <rect width="100.4" height="11.9" x="526.8" y="761.1" fill="#003d58"/>
  <rect width="44.9" height="1850.6" y="177.6" fill="#003d58"/>
  <rect width="69.9" height="45.3" x="44.9" y="1982.9" fill="#003d58"/>
  <rect width="50" height="11.9" x="44.9" y="893.3" fill="#003d58"/>
  <rect width="48.3" height="45.3" x="44.9" y="177.6" fill="#003d58"/>
  <rect width="235.6" height="12.3" x="780.3" y="1540.7" fill="#003d58"/>
  <rect width="52.1" height="25" x="2064.8" y="701.1" fill="#003d58"/>
  <rect width="25" height="319.9" x="2116.9" y="406.1" fill="#003d58"/>
  <rect width="180" height="25.2" x="1937" y="406.1" fill="#003d58"/>
  <rect width="25" height="319.7" x="1912" y="406.3" fill="#003d58"/>
  <rect width="30.9" height="25" x="1937" y="701.1" fill="#003d58"/>
  <rect width="11.9" height="872.4" x="2503.7" y="1305.7" fill="#003d58"/>
  <g fill="#fff" stroke="#000" stroke-width=".3" stroke-miterlimit="10">
    <rect width="443.4" height="15.3" x="2535.3" y="2162.8"/>
    <rect width="443.4" height="4.6" x="2535.3" y="2169.7"/>
  </g>
  <g fill="#fff" stroke="#000" stroke-width=".3" stroke-miterlimit="10">
    <rect width="196.9" height="15.3" x="1476.2" y="2162.8"/>
    <rect width="196.9" height="4.6" x="1476.2" y="2169.7"/>
  </g>
  <g fill="#fff" stroke="#000" stroke-width=".3" stroke-miterlimit="10">
    <rect width="532.5" height="15.3" x="106.5" y="2212.8"/>
    <rect width="532.5" height="4.6" x="106.5" y="2219.7"/>
  </g>
  <g fill="#fff" stroke="#000" stroke-width=".3" stroke-miterlimit="10">
    <rect width="15.2" height="34.7" x="623.8" y="2178.1"/>
    <rect width="4.6" height="34.7" x="630.7" y="2178.1"/>
  </g>
  <g fill="#fff" stroke="#000" stroke-width=".3" stroke-miterlimit="10">
    <rect width="274.9" height="15.3" x="672" y="177.6"/>
    <rect width="274.9" height="4.6" x="672" y="181.4"/>
  </g>
  <g fill="#fff" stroke="#000" stroke-width=".3" stroke-miterlimit="10">
    <rect width="165.1" height="15.3" x="672" y="322.8"/>
    <rect width="165.1" height="4.6" x="672" y="326.6"/>
  </g>
  <g fill="#fff" stroke="#000" stroke-width=".3" stroke-miterlimit="10">
    <rect width="164.7" height="15.3" x="1233.2" y="322.8"/>
    <rect width="164.7" height="4.6" x="1233.2" y="326.6"/>
  </g>
  <g fill="#fff" stroke="#000" stroke-width=".3" stroke-miterlimit="10">
    <rect width="274.9" height="15.3" x="1123.4" y="177.6"/>
    <rect width="274.9" height="4.6" x="1123.4" y="181.4"/>
  </g>
  <g fill="#fff" stroke="#000" stroke-width=".3" stroke-miterlimit="10">
    <rect width="31.8" height="171.2" x="2979.1" y="620"/>
    <rect width="8.1" height="171.2" x="3015.9" y="620"/>
    <rect width="5.1" height="171.2" x="3010.9" y="620"/>
    <rect width="2.5" height="171.2" x="3002.1" y="620"/>
  </g>
  <g fill="#fff" stroke="#000" stroke-width=".3" stroke-miterlimit="10">
    <rect width="199.9" height="31.8" x="2389.6" y="190.7"/>
    <rect width="199.9" height="8.1" x="2389.6" y="177.6"/>
    <rect width="199.9" height="5.1" x="2389.6" y="185.6"/>
    <rect width="199.9" height="2.5" x="2389.6" y="196.9"/>
  </g>
  <g fill="#fff" stroke="#000" stroke-width=".3" stroke-miterlimit="10">
    <rect width="143.5" height="31.8" x="2738.2" y="190.7"/>
    <rect width="143.5" height="8.1" x="2738.2" y="177.6"/>
    <rect width="143.5" height="5.1" x="2738.2" y="185.6"/>
    <rect width="143.5" height="2.5" x="2738.2" y="196.9"/>
  </g>
  <g fill="#fff" stroke="#000" stroke-width=".3" stroke-miterlimit="10">
    <rect width="31.8" height="120.3" x="2979.1" y="1108.8"/>
    <rect width="8.1" height="120.3" x="3015.9" y="1108.8"/>
    <rect width="5.1" height="120.3" x="3010.9" y="1108.8"/>
    <rect width="2.5" height="120.3" x="3002.1" y="1108.8"/>
  </g>
  <g fill="#fff" stroke="#000" stroke-width=".3" stroke-miterlimit="10">
    <rect width="31.8" height="119.8" x="2979.1" y="1528.9"/>
    <rect width="8.1" height="119.8" x="3015.9" y="1528.9"/>
    <rect width="5.1" height="119.8" x="3010.9" y="1528.9"/>
    <rect width="2.5" height="119.8" x="3002.1" y="1528.9"/>
  </g>
  <rect width="149.2" height="20.4" x="2121.8" y="233.6" fill="#003d58"/>
  <rect width="50.1" height="20.4" x="2221" y="76.8" fill="#003d58"/>
  <rect width="98.1" height="11.4" x="2122.9" y="85.8" fill="#706f6f"/>
  <rect width="97.9" height="11.4" x="1833.5" y="85.8" fill="#706f6f"/>
  <rect width="50.3" height="20.4" x="1783.2" y="76.8" fill="#003d58"/>
  <rect width="147.6" height="20.4" x="1783.3" y="233.6" fill="#003d58"/>
  <g fill="none" stroke="#000" stroke-width=".3" stroke-miterlimit="10">
    <rect width="5" height="85.6" x="1934.4" y="157"/>
    <rect width="4" height="11.4" x="1930.4" y="242.6"/>
    <path d="M1934.4 157a91.8 91.8 0 0 1 91.8 91.7"/>
  </g>
  <g fill="none" stroke="#000" stroke-width=".3" stroke-miterlimit="10">
    <rect width="5" height="85.6" x="2112.9" y="157"/>
    <rect width="4" height="11.4" x="2117.9" y="242.6"/>
    <path d="M2118 157a91.8 91.8 0 0 0-92 91.7"/>
  </g>
  <g fill="none" stroke="#000" stroke-width=".3" stroke-miterlimit="10">
    <rect width="5" height="85.6" x="1935.4" y=".2"/>
    <rect width="4" height="11.4" x="1931.4" y="85.8"/>
    <path d="M1935.4 0a91.8 91.8 0 0 1 91.8 92"/>
  </g>
  <g fill="none" stroke="#000" stroke-width=".3" stroke-miterlimit="10">
    <rect width="5" height="85.6" x="2113.9" y=".2"/>
    <rect width="4" height="11.4" x="2118.9" y="85.8"/>
    <path d="M2119 0a91.8 91.8 0 0 0-92 92"/>
  </g>
</svg>
