<svg viewBox="0 0 1935 2048.4" id="3.1_5">
  <polygon fill="#dff2fd" data-id-flat="1870" class="hovered_flat_at_plan flat_plan_p" points="1229 113.7 1229 985.7 685.2 985.7 685.2 119.1 10.8 119.1 10.8 2043 685.2 2043 1929.6 2043 1929.6 985.7 1929.6 113.7 1229 113.7"/>
  <rect width="490.1" height="970.5" x="722.2" y="15.2" fill="#f6f6f6"/>
  <g fill="none" stroke="#000" stroke-width=".3" stroke-miterlimit="10">
    <rect width="5" height="96" x="1082.7" y="22.8"/>
    <rect width="4" height="11.4" x="1087.7" y="118.8"/>
    <path d="M1087.7 23a102 102 0 0 0-102 102"/>
  </g>
  <g fill="none" stroke="#000" stroke-width=".3" stroke-miterlimit="10">
    <rect width="5" height="92" x="1263.9" y="979.8"/>
    <rect width="4" height="11.4" x="1259.9" y="1071.8"/>
    <path d="M1264 979.8c53 0 96 39 96 92"/>
  </g>
  <g fill="none" stroke="#000" stroke-width=".3" stroke-miterlimit="10">
    <rect width="5" height="92" x="776" y="919.9"/>
    <rect width="4" height="11.4" x="772.1" y="1011.9"/>
    <path d="M776 920c53 0 96 39 96 92"/>
  </g>
  <g fill="none" stroke="#000" stroke-width=".3" stroke-miterlimit="10">
    <rect width="5" height="83.1" x="1053" y="1146.7"/>
    <rect width="4" height="11.4" x="1049" y="1229.8"/>
    <path d="M1053 1146.7c48 0 86.7 35.2 86.7 83"/>
  </g>
  <g fill="none" stroke="#000" stroke-width=".3" stroke-miterlimit="10">
    <rect width="5" height="92" x="579.7" y="1356.4"/>
    <rect width="4" height="11.4" x="575.8" y="1345"/>
    <path d="M579.7 1448.4c52.2 0 94.4-39 94.4-92"/>
  </g>
  <g fill="none" stroke="#000" stroke-width=".3" stroke-miterlimit="10">
    <rect width="73.9" height="5" x="480.9" y="1203"/>
    <rect width="11.4" height="4" x="554.8" y="1199"/>
    <path d="M481 1203c0 42.2 31.4 76.3 74.3 76.3"/>
  </g>
  <g fill="none" stroke="#000" stroke-width=".3" stroke-miterlimit="10">
    <rect width="92" height="5" x="462.8" y="1092.1"/>
    <rect width="11.4" height="4" x="554.8" y="1097.1"/>
    <path d="M462.8 1097c0-53 38.8-96 91.6-96"/>
  </g>
  <g fill="none" stroke="#000" stroke-width=".3" stroke-miterlimit="10">
    <rect width="92" height="5" x="194.4" y="978.8"/>
    <rect width="11.4" height="4" x="183" y="974.8"/>
    <path d="M286.4 978.8c0 60-38.8 108.5-91.6 108.5"/>
  </g>
  <g fill="none" stroke="#000" stroke-width=".3" stroke-miterlimit="10">
    <rect width="5" height="92" x="405.9" y="262.9"/>
    <rect width="4" height="11.4" x="410.9" y="251.5"/>
    <path d="M411 355a92 92 0 0 1-92-92"/>
  </g>
  <g fill="none" stroke="#000" stroke-width=".3" stroke-miterlimit="10">
    <rect width="92" height="5" x="194.4" y="474.2"/>
    <rect width="11.4" height="4" x="183" y="479.2"/>
    <path d="M286.4 479.2a92 92 0 0 0-92-92"/>
  </g>
  <g fill="none" stroke="#000" stroke-width=".3" stroke-miterlimit="10">
    <rect width="92" height="5" x="1648.6" y="775.7"/>
    <rect width="11.4" height="4" x="1740.6" y="780.7"/>
    <path d="M1648.6 780.7c0-60 38.8-108.5 91.6-108.5"/>
  </g>
  <g fill="none" stroke="#000" stroke-width=".3" stroke-miterlimit="10">
    <rect width="5" height="92" x="1419.9" y="262.9"/>
    <rect width="4" height="11.4" x="1424.9" y="251.5"/>
    <path d="M1425 355c-60 0-108.6-39-108.6-91.7"/>
  </g>
  <g fill="none" stroke="#000" stroke-width=".3" stroke-miterlimit="10">
    <rect width="5" height="92" x="1321.1" y="1661.6"/>
    <rect width="4" height="11.4" x="1317.1" y="1753.6"/>
    <path d="M1321 1661.7c64 0 116 41.4 116 97.8"/>
  </g>
  <g fill="none" stroke="#000" stroke-width=".3" stroke-miterlimit="10">
    <rect width="5" height="92" x="938.4" y="1661.6"/>
    <rect width="4" height="11.4" x="943.4" y="1753.6"/>
    <path d="M943.4 1661.7c-60 0-108.5 38.8-108.5 91.6"/>
  </g>
  <g fill="none" stroke="#000" stroke-width=".3" stroke-miterlimit="10">
    <rect width="5" height="92" x="300.8" y="1661.6"/>
    <rect width="4" height="11.4" x="296.9" y="1753.6"/>
    <path d="M300.8 1661.7c60 0 108.5 38.8 108.5 91.6"/>
  </g>
  <g fill="none" stroke="#000" stroke-width=".3" stroke-miterlimit="10">
    <rect width="5" height="92" x="665.7" y="597.8"/>
    <rect width="4" height="11.4" x="670.7" y="689.8"/>
    <path d="M670.7 597.8c-53 0-96 39-96 92"/>
  </g>
  <g fill="none" stroke="#000" stroke-width=".3" stroke-miterlimit="10">
    <rect width="119.8" height="30.3" x="722.9" y="243.6"/>
    <rect width="119.8" height="30.3" x="722.9" y="273.9"/>
    <rect width="119.8" height="30.3" x="722.9" y="304.2"/>
    <rect width="119.8" height="30.3" x="722.9" y="334.5"/>
    <rect width="119.8" height="30.3" x="722.9" y="364.8"/>
    <rect width="119.8" height="30.3" x="722.9" y="395.1"/>
    <rect width="119.8" height="30.3" x="722.9" y="425.4"/>
    <rect width="119.8" height="30.3" x="722.9" y="455.7"/>
    <rect width="119.8" height="30.3" x="722.9" y="486"/>
    <rect width="119.8" height="30.3" x="722.9" y="516.3"/>
    <rect width="119.8" height="30.3" x="722.9" y="546.6"/>
  </g>
  <g fill="none" stroke="#000" stroke-width=".3" stroke-miterlimit="10">
    <rect width="119.8" height="30.3" x="1090.7" y="243.4"/>
    <rect width="119.8" height="30.3" x="1090.7" y="273.7"/>
    <rect width="119.8" height="30.3" x="1090.7" y="304"/>
    <rect width="119.8" height="30.3" x="1090.7" y="334.3"/>
    <rect width="119.8" height="30.3" x="1090.7" y="364.6"/>
    <rect width="119.8" height="30.3" x="1090.7" y="394.9"/>
    <rect width="119.8" height="30.3" x="1090.7" y="425.2"/>
    <rect width="119.8" height="30.3" x="1090.7" y="455.5"/>
    <rect width="119.8" height="30.3" x="1090.7" y="485.8"/>
    <rect width="119.8" height="30.3" x="1090.7" y="516.1"/>
    <rect width="119.8" height="30.3" x="1090.7" y="546.4"/>
  </g>
  <rect width="179.4" height="269.1" x="877.7" y="268.5" fill="none" stroke="#000" stroke-width=".3" stroke-miterlimit="10"/>
  <rect width="165.4" height="255" x="884.6" y="275.6" fill="none" stroke="#000" stroke-width=".3" stroke-miterlimit="10"/>
  <g fill="none" stroke="#000" stroke-width=".3" stroke-miterlimit="10">
    <rect width="5" height="85.6" x="1054.3" y="718.3"/>
    <rect width="4" height="11.4" x="1059.3" y="803.9"/>
    <path d="M1059.3 718.3a91.8 91.8 0 0 0-91.8 91.8"/>
  </g>
  <g fill="none" stroke="#000" stroke-width=".3" stroke-miterlimit="10">
    <rect width="5" height="85.6" x="875.7" y="718.3"/>
    <rect width="4" height="11.4" x="871.8" y="803.9"/>
    <path d="M875.7 718.3a91.8 91.8 0 0 1 91.8 91.8"/>
  </g>
  <g fill="#02475d">
    <rect width="667.4" height="10.8" y="108.3"/>
    <rect width="10.8" height="1918.5" y="119.1"/>
    <rect width="667.4" height="10.8" x="1267.6" y="108.3"/>
    <rect width="10.8" height="1929.3" x="1924.2" y="119.1"/>
    <rect width="1924.2" height="10.8" y="2037.6"/>
  </g>
  <g fill="#fff" stroke="#000" stroke-width=".3" stroke-miterlimit="10">
    <rect width="144" height="31.8" x="174.9" y="256.6"/>
    <rect width="144" height="8.1" x="174.9" y="243.4"/>
    <rect width="144" height="5.1" x="174.9" y="251.5"/>
    <rect width="144" height="2.5" x="174.9" y="262.8"/>
    <rect width="31.8" height="121.8" x="188" y="265.3"/>
    <rect width="8.1" height="121.8" x="174.9" y="265.3"/>
    <rect width="5.1" height="121.8" x="183" y="265.3"/>
    <rect width="2.5" height="121.8" x="194.3" y="265.3"/>
    <g>
      <rect width="31.8" height="247.3" x="188" y="727.5"/>
      <rect width="8.1" height="247.3" x="174.9" y="727.5"/>
      <rect width="5.1" height="247.3" x="183" y="727.5"/>
      <rect width="2.5" height="247.3" x="194.3" y="727.5"/>
    </g>
    <g>
      <rect width="127.6" height="31.8" x="409.4" y="1728.2"/>
      <rect width="127.6" height="8.1" x="409.4" y="1765.1"/>
      <rect width="127.6" height="5.1" x="409.4" y="1760"/>
      <rect width="127.6" height="2.5" x="409.4" y="1751.2"/>
    </g>
    <g>
      <rect width="247.7" height="31.8" x="947.4" y="1728.2"/>
      <rect width="247.7" height="8.1" x="947.4" y="1765.1"/>
      <rect width="247.7" height="5.1" x="947.4" y="1760"/>
      <rect width="247.7" height="2.5" x="947.4" y="1751.2"/>
    </g>
    <g>
      <rect width="31.8" height="240.1" x="1715.2" y="1091.3"/>
      <rect width="8.1" height="240.1" x="1752" y="1091.3"/>
      <rect width="5.1" height="240.1" x="1747" y="1091.3"/>
      <rect width="2.5" height="240.1" x="1738.2" y="1091.3"/>
    </g>
    <g>
      <rect width="31.8" height="247.4" x="1715.2" y="784.6"/>
      <rect width="8.1" height="247.4" x="1752" y="784.6"/>
      <rect width="5.1" height="247.4" x="1746.9" y="784.6"/>
      <rect width="2.5" height="247.4" x="1738.2" y="784.6"/>
    </g>
  </g>
  <g fill="#02475d">
    <rect width="307.9" height="44.9" x="415" y="243.4"/>
    <rect width="67.5" height="44.9" x="1248.9" y="243.4"/>
    <rect width="331.2" height="44.9" x="1428.9" y="243.4"/>
    <rect width="44.9" height="383.7" x="1715.2" y="288.3"/>
    <rect width="37.7" height="915" x="685.2" y="108.3"/>
    <rect width="49.1" height="37.6" x="722.9" y="985.7"/>
    <rect width="376.9" height="37.6" x="872" y="985.7"/>
    <rect width="195.1" height="33.8" x="872" y="951.9"/>
    <rect width="38.1" height="877.4" x="1210.8" y="108.3"/>
    <rect width="17.8" height="25" x="667.4" y="108.3"/>
    <rect width="18.6" height="25" x="1248.9" y="108.3"/>
    <rect width="45.3" height="244.4" x="174.9" y="483.1"/>
    <rect width="45.3" height="685.7" x="174.9" y="1087.5"/>
    <rect width="40" height="130" x="220" y="1179.4"/>
    <rect width="354.5" height="11.3" x="220.2" y="689.9"/>
    <rect width="11.9" height="299.9" x="554.4" y="701.2"/>
    <rect width="11.9" height="98" x="554.4" y="1101"/>
    <rect width="334.6" height="12.7" x="219.8" y="1166.7"/>
    <rect width="11.9" height="125.3" x="554.4" y="1279.3"/>
    <rect width="334.6" height="12.7" x="219.8" y="1391.9"/>
    <rect width="9.7" height="12.7" x="566.2" y="1345"/>
    <rect width="38.5" height="12.7" x="675.9" y="1345"/>
    <rect width="522" height="12.7" x="727" y="1345"/>
    <rect width="12.7" height="285" x="714.3" y="1285.2"/>
    <rect width="12.7" height="36.6" x="714.3" y="1691.6"/>
    <rect width="12.7" height="36.6" x="1236.2" y="1691.6"/>
    <rect width="12.7" height="116.5" x="998.2" y="1228.5"/>
    <rect width="38.1" height="12.7" x="1010.9" y="1228.5"/>
    <rect width="97" height="12.7" x="1139.2" y="1228.5"/>
    <rect width="12.7" height="116.5" x="1236.2" y="1228.5"/>
    <rect width="76.7" height="44.9" x="220.2" y="1728.2"/>
    <rect width="298.1" height="44.9" x="537" y="1728.2"/>
    <rect width="122" height="44.9" x="1195.1" y="1728.2"/>
    <rect width="323.1" height="44.9" x="1437" y="1728.2"/>
    <rect width="44.9" height="419.3" x="1715.2" y="1331.4"/>
    <rect width="44.9" height="59.3" x="1715.2" y="1032"/>
    <rect width="355.3" height="14.8" x="1359.9" y="1068.4"/>
    <rect width="25.8" height="14.8" x="1234.1" y="1068.4"/>
    <rect width="14.8" height="45.1" x="1234.1" y="1023.3"/>
    <rect width="39.8" height="62.4" x="1209.1" y="1357.7"/>
    <rect width="167.1" height="39.8" x="1248.9" y="600.5"/>
    <rect width="29.9" height="62.4" x="1219" y="1470.2"/>
    <rect width="29.9" height="62.4" x="697" y="1470.2"/>
    <rect width="12.7" height="150.2" x="1236.2" y="1420.1"/>
    <rect width="80" height="11.9" x="1635.2" y="628.4"/>
    <rect width="30.6" height="11.9" x="1514.4" y="628.4"/>
    <rect width="11.9" height="340.1" x="1514.4" y="288.3"/>
    <rect width="56.3" height="140.2" x="1658.9" y="1588.1"/>
    <rect width="10.6" height="11.3" x="674.6" y="689.9"/>
  </g>
  <g fill="#fff" stroke="#000" stroke-width=".3" stroke-miterlimit="10">
    <rect width="149.8" height="18.4" x="835.8" y="111.9"/>
    <rect width="149.8" height="5.3" x="835.8" y="119.2"/>
  </g>
  <g fill="#02475d">
    <rect width="69.3" height="15.2" x="722.9"/>
    <rect width="68.7" height="15.2" x="1143.6"/>
    <rect width="113.6" height="43.9" x="722.2" y="108.3"/>
    <rect width="120.6" height="43.9" x="1091.7" y="108.3"/>
    <rect width="76.8" height="24.6" x="852.8" y="537.7"/>
    <rect width="24.9" height="294" x="852.8" y="243.6"/>
    <rect width="204.3" height="24.9" x="877.7" y="243.6"/>
    <rect width="24.9" height="293.7" x="1057" y="268.5"/>
    <rect width="30.8" height="24.6" x="1026.2" y="537.7"/>
    <rect width="37.7" height="108.3" x="685.3"/>
    <rect width="38.3" height="108.3" x="1210.8"/>
  </g>
  <rect width="351.3" height="6.8" x="792.3" y="8.4" fill="#9e9d9c"/>
  <rect width="148.9" height="11.4" x="722.9" y="804" fill="#02475d"/>
  <rect width="147.6" height="11.4" x="1063.2" y="804" fill="#02475d"/>
</svg>
