<svg xmlns="http://www.w3.org/2000/svg" viewBox="0 0 2052.5 2344.9" id="3.1_1">
  <polygon fill="#dddaee" data-id-flat="1863" class="hovered_flat_at_plan flat_plan_3" points="1923 300.4 1249.3 300.4 1249.3 1034.6 1211.2 1034.6 1211.2 1134.6 1249.3 1134.6 1249.3 1689.6 1692.3 1689.6 1692.3 1853 1890.6 1853 1890.6 1689.6 1923 1689.6 1923 300.4"/>
  <polygon fill="#dff2fd" data-id-flat="1862" class="hovered_flat_at_plan flat_plan_4" points="1704.2 1897.9 1659.3 1897.9 1659.3 1720.8 1250.5 1720.8 1250.5 1165.5 684.3 1165.5 684.3 297.3 12 297.3 12 2227.8 684.3 2227.8 684.3 2182.9 1250.5 2182.9 1659.3 2182.9 1659.3 2178.3 1704.2 2178.3 1704.2 2332.9 2040.5 2332.9 2040.5 1897.9 1704.2 1897.9"/>
  <polygon fill="#f6f6f6" points="1250 84.7 684.3 84.7 684.3 214.1 723.2 214.1 723.2 1165.5 1211.2 1165.5 1211.2 214.1 1250 214.1 1250 84.7"/>
  <g fill="none" stroke="#000" stroke-width=".3" stroke-miterlimit="10">
    <rect width="5" height="78" x="1379.2" y="969.8"/>
    <rect width="4" height="11.4" x="1384.2" y="958.4"/>
    <path d="M1384.3 1047.8c-53 0-85.8-39-85.8-78"/>
  </g>
  <g fill="none" stroke="#000" stroke-width=".3" stroke-miterlimit="10">
    <rect width="5" height="78" x="1403" y="1373.5"/>
    <rect width="4" height="11.4" x="1408" y="1362"/>
    <path d="M1408 1451.5c-53 0-85.8-39-85.8-78"/>
  </g>
  <g fill="none" stroke="#000" stroke-width=".3" stroke-miterlimit="10">
    <rect width="5" height="87.6" x="1440.5" y="1373.5"/>
    <rect width="4" height="11.4" x="1436.5" y="1362"/>
    <path d="M1440.5 1461c59.6 0 96.4-43.7 96.4-87.5"/>
  </g>
  <g fill="none" stroke="#000" stroke-width=".3" stroke-miterlimit="10">
    <rect width="87.6" height="5" x="1553.8" y="1323.8"/>
    <rect width="11.4" height="4" x="1542.4" y="1328.8"/>
    <path d="M1641.5 1329c0-59.7-43.8-96.5-87.6-96.5"/>
  </g>
  <g fill="none" stroke="#000" stroke-width=".3" stroke-miterlimit="10">
    <rect width="92" height="5" x="1222.6" y="1125.6"/>
    <rect width="11.4" height="4" x="1211.2" y="1130.6"/>
    <path d="M1314.6 1130.6c0-53-39-96-92-96"/>
  </g>
  <g fill="none" stroke="#000" stroke-width=".3" stroke-miterlimit="10">
    <rect width="96" height="5" x="429.4" y="994.3"/>
    <rect width="11.4" height="4" x="525.4" y="999.3"/>
    <path d="M429.4 999.3a96 96 0 0 1 96-96"/>
  </g>
  <g fill="none" stroke="#000" stroke-width=".3" stroke-miterlimit="10">
    <rect width="96" height="5" x="429.4" y="1317.1"/>
    <rect width="11.4" height="4" x="525.4" y="1322.1"/>
    <path d="M429.4 1322a96 96 0 0 1 96-96"/>
  </g>
  <g fill="none" stroke="#000" stroke-width=".3" stroke-miterlimit="10">
    <rect width="5" height="96" x="565.3" y="1658.3"/>
    <rect width="4" height="11.4" x="561.4" y="1754.3"/>
    <path d="M565.4 1658.3a96 96 0 0 1 96 96"/>
  </g>
  <g fill="none" stroke="#000" stroke-width=".3" stroke-miterlimit="10">
    <rect width="96" height="5" x="1240.1" y="1796.8"/>
    <rect width="11.4" height="4" x="1336.1" y="1792.8"/>
    <path d="M1240 1796.8a96 96 0 0 0 96 96"/>
  </g>
  <g fill="none" stroke="#000" stroke-width=".3" stroke-miterlimit="10">
    <rect width="5" height="96" x="752.1" y="1095.3"/>
    <rect width="4" height="11.4" x="748.2" y="1191.3"/>
    <path d="M752.2 1095.3a96 96 0 0 1 96 96"/>
  </g>
  <g fill="none" stroke="#000" stroke-width=".3" stroke-miterlimit="10">
    <rect width="5" height="96" x="652.8" y="647.6"/>
    <rect width="4" height="11.4" x="657.8" y="743.6"/>
    <path d="M657.8 647.6a96 96 0 0 0-96 96"/>
  </g>
  <g fill="none" stroke="#000" stroke-width=".3" stroke-miterlimit="10">
    <rect width="86.1" height="5" x="536.8" y="1422.7"/>
    <rect width="11.4" height="4" x="525.4" y="1418.8"/>
    <path d="M623 1422.8a86 86 0 0 1-86 86"/>
  </g>
  <g fill="none" stroke="#000" stroke-width=".3" stroke-miterlimit="10">
    <rect width="86.1" height="5" x="887.8" y="1640.5"/>
    <rect width="11.4" height="4" x="973.9" y="1645.5"/>
    <path d="M887.8 1645.6a86 86 0 0 1 86-86"/>
  </g>
  <g fill="none" stroke="#000" stroke-width=".3" stroke-miterlimit="10">
    <rect width="5" height="86.1" x="426.6" y="1765.3"/>
    <rect width="4" height="11.4" x="431.6" y="1753.8"/>
    <path d="M431.7 1851.4a86 86 0 0 1-86-86"/>
  </g>
  <g fill="none" stroke="#000" stroke-width=".3" stroke-miterlimit="10">
    <rect width="119.8" height="30.3" x="723.7" y="423.3"/>
    <rect width="119.8" height="30.3" x="723.7" y="453.6"/>
    <rect width="119.8" height="30.3" x="723.7" y="483.8"/>
    <rect width="119.8" height="30.3" x="723.7" y="514.1"/>
    <rect width="119.8" height="30.3" x="723.7" y="544.4"/>
    <rect width="119.8" height="30.3" x="723.7" y="574.7"/>
    <rect width="119.8" height="30.3" x="723.7" y="605"/>
    <rect width="119.8" height="30.3" x="723.7" y="635.3"/>
    <rect width="119.8" height="30.3" x="723.7" y="665.6"/>
    <rect width="119.8" height="30.3" x="723.7" y="695.9"/>
    <rect width="119.8" height="30.3" x="723.7" y="726.2"/>
  </g>
  <g fill="none" stroke="#000" stroke-width=".3" stroke-miterlimit="10">
    <rect width="119.8" height="30.3" x="1091.5" y="423"/>
    <rect width="119.8" height="30.3" x="1091.5" y="453.3"/>
    <rect width="119.8" height="30.3" x="1091.5" y="483.6"/>
    <rect width="119.8" height="30.3" x="1091.5" y="513.9"/>
    <rect width="119.8" height="30.3" x="1091.5" y="544.2"/>
    <rect width="119.8" height="30.3" x="1091.5" y="574.5"/>
    <rect width="119.8" height="30.3" x="1091.5" y="604.8"/>
    <rect width="119.8" height="30.3" x="1091.5" y="635.1"/>
    <rect width="119.8" height="30.3" x="1091.5" y="665.4"/>
    <rect width="119.8" height="30.3" x="1091.5" y="695.7"/>
    <rect width="119.8" height="30.3" x="1091.5" y="726"/>
  </g>
  <rect width="179.9" height="269.6" x="877.6" y="447.9" fill="none" stroke="#000" stroke-width=".3" stroke-miterlimit="10"/>
  <rect width="165.9" height="255.4" x="884.5" y="455" fill="none" stroke="#000" stroke-width=".3" stroke-miterlimit="10"/>
  <g fill="none" stroke="#000" stroke-width=".3" stroke-miterlimit="10">
    <rect width="5" height="85.6" x="1054.5" y="893.4"/>
    <rect width="4" height="11.4" x="1059.5" y="979"/>
    <path d="M1059.5 893.4a91.8 91.8 0 0 0-91.8 91.8"/>
  </g>
  <g fill="none" stroke="#000" stroke-width=".3" stroke-miterlimit="10">
    <rect width="5" height="85.6" x="876" y="893.4"/>
    <rect width="4" height="11.4" x="872" y="979"/>
    <path d="M876 893.4a91.8 91.8 0 0 1 91.8 91.8"/>
  </g>
  <g fill="none" stroke="#000" stroke-width=".3" stroke-miterlimit="10">
    <rect width="5" height="85.6" x="1054.5" y="137.8"/>
    <rect width="4" height="11.4" x="1059.5" y="223.4"/>
    <path d="M1059.5 137.8a91.8 91.8 0 0 0-91.8 91.8"/>
  </g>
  <g fill="none" stroke="#000" stroke-width=".3" stroke-miterlimit="10">
    <rect width="5" height="85.6" x="876" y="137.8"/>
    <rect width="4" height="11.4" x="872" y="223.4"/>
    <path d="M876 137.8a91.8 91.8 0 0 1 91.8 91.8"/>
  </g>
  <g fill="none" stroke="#000" stroke-width=".3" stroke-miterlimit="10">
    <rect width="5" height="85.6" x="1072.4" y=".2"/>
    <rect width="4" height="11.4" x="1077.4" y="85.8"/>
    <path d="M1077.4 0a91.8 91.8 0 0 0-91.8 92"/>
  </g>
  <g fill="none" stroke="#000" stroke-width=".3" stroke-miterlimit="10">
    <rect width="5" height="85.6" x="893.9" y=".2"/>
    <rect width="4" height="11.4" x="889.9" y="85.8"/>
    <path d="M894 0a91.8 91.8 0 0 1 91.7 92"/>
  </g>
  <rect width="39.8" height="12.5" x="685.5" y="2177.9" fill="#02475d"/>
  <rect width="60.1" height="5.1" x="230.1" y="332.7" fill="#02475d"/>
  <rect width="33" height="205" x="1216.2" y="1202.8" fill="#02475d"/>
  <rect width="32.8" height="105" x="1216.2" y="1617.9" fill="#02475d"/>
  <rect width="443.3" height="33.3" x="1249.1" y="1689.7" fill="#02475d"/>
  <rect width="32.6" height="174.9" x="1659.7" y="1722.9" fill="#02475d"/>
  <rect width="7.2" height="80.1" x="1692.3" y="1817.8" fill="#02475d"/>
  <rect width="235.9" height="44.9" x="1699.5" y="1853" fill="#02475d"/>
  <g fill="#02475d">
    <rect width="44.9" height="107.6" x="1890.6" y="617.8"/>
    <rect width="27.5" height="59.7" x="1885.5" y="617.8"/>
    <rect width="126.6" height="45.3" x="1578.9" y="287.9"/>
    <rect width="43.2" height="11.4" x="1645.3" y="326.4"/>
    <rect width="129.2" height="44.9" x="1249.3" y="287.9"/>
    <rect width="38.1" height="746.8" x="1211.2" y="287.9"/>
    <rect width="38.1" height="68.2" x="1211.2" y="1134.6"/>
    <rect width="31.8" height="205" x="1217.5" y="1202.8"/>
    <rect width="39.8" height="210.1" x="1209.5" y="1407.8"/>
    <rect width="32.8" height="102.9" x="1216.5" y="1617.9"/>
    <rect width="443.1" height="31.2" x="1249.3" y="1689.6"/>
    <rect width="33" height="177.1" x="1659.3" y="1720.8"/>
    <rect width="7.2" height="80.1" x="1692.3" y="1817.8"/>
    <rect width="235.9" height="44.9" x="1699.5" y="1853"/>
    <rect width="44.9" height="249.1" x="1890.6" y="1603.9"/>
    <rect width="22.9" height="34.3" x="1885.5" y="1837.7"/>
    <rect width="44.9" height="155.9" x="1890.6" y="1247.7"/>
    <rect width="22.9" height="40.2" x="1885.5" y="1247.7"/>
    <rect width="44.9" height="122.4" x="1890.6" y="925.3"/>
    <rect width="55" height="12.3" x="1836.8" y="1688.7"/>
    <rect width="54.6" height="11.3" x="1692.3" y="1689.7"/>
    <rect width="353.8" height="12.3" x="1536.8" y="1361.7"/>
    <rect width="11.9" height="28.8" x="1542.4" y="1332.9"/>
    <rect width="11.9" height="307.5" x="1542.4" y="925.4"/>
    <rect width="336.3" height="12.3" x="1554.3" y="925.4"/>
    <rect width="161" height="40.2" x="1249.3" y="779.7"/>
    <rect width="11.9" height="149.9" x="1398.4" y="820"/>
    <rect width="10.2" height="11.4" x="1388.2" y="958.5"/>
    <rect width="49.1" height="11.4" x="1249.3" y="958.5"/>
    <rect width="13.1" height="316.8" x="1418.3" y="1374"/>
    <rect width="24.6" height="11.9" x="1411.9" y="1362.1"/>
    <rect width="72.9" height="11.9" x="1249.3" y="1361.7"/>
  </g>
  <g fill="#02475d">
    <rect width="38.9" height="73.7" x="684.3" y="214.1"/>
    <rect width="38.9" height="73.8" x="1211.2" y="214.1"/>
  </g>
  <g fill="#fff" stroke="#000" stroke-width=".3" stroke-miterlimit="10">
    <rect width="199.9" height="31.8" x="367.8" y="2182.9"/>
    <rect width="199.9" height="8.1" x="367.8" y="2219.8"/>
    <rect width="199.9" height="5.1" x="367.8" y="2214.7"/>
    <rect width="199.9" height="2.5" x="367.8" y="2205.9"/>
    <rect width="31.8" height="120.3" x="13.3" y="1297.7"/>
    <rect width="8.1" height="120.3" x=".1" y="1297.7"/>
    <rect width="5.1" height="120.3" x="8.2" y="1297.7"/>
    <rect width="2.5" height="120.3" x="19.5" y="1297.7"/>
    <rect width="31.8" height="120.3" x="13.3" y="1117.6"/>
    <rect width="8.1" height="120.3" x=".1" y="1117.6"/>
    <rect width="5.1" height="120.3" x="8.2" y="1117.6"/>
    <rect width="2.5" height="120.3" x="19.5" y="1117.6"/>
    <rect width="31.8" height="200.4" x="13.3" y="752.5"/>
    <rect width="8.1" height="200.4" x=".1" y="752.5"/>
    <rect width="5.1" height="200.4" x="8.2" y="752.5"/>
    <rect width="2.5" height="200.4" x="19.5" y="752.5"/>
    <rect width="120.3" height="31.8" x="434.3" y="301"/>
    <rect width="120.3" height="8.1" x="434.3" y="287.8"/>
    <rect width="120.3" height="5.1" x="434.3" y="295.9"/>
    <rect width="120.3" height="2.5" x="434.3" y="307.2"/>
    <rect width="199.9" height="31.8" x="819.3" y="2182.9"/>
    <rect width="199.9" height="8.1" x="819.3" y="2219.8"/>
    <rect width="199.9" height="5.1" x="819.3" y="2214.7"/>
    <rect width="199.9" height="2.5" x="819.3" y="2205.9"/>
    <rect width="199.9" height="31.8" x="1384.4" y="2182.9"/>
    <rect width="11.9" height="116.9" x="1692.3" y="2227.8"/>
    <rect width="199.9" height="8.1" x="1384.4" y="2219.8"/>
    <rect width="199.9" height="5.1" x="1384.4" y="2214.7"/>
    <rect width="3" height="113.1" x="1696.2" y="2227.8"/>
    <rect width="105" height="11.9" x="1935.5" y="1886"/>
    <rect width="113.1" height="3" x="1935.5" y="1889.8"/>
    <rect width="230" height="11.9" x=".1" y="287.8"/>
    <rect width="226.2" height="3" x="3.9" y="291.6"/>
    <rect width="199.9" height="2.5" x="1384.4" y="2205.9"/>
    <rect width="11.9" height="320.5" x=".1" y="297.3"/>
    <rect width="3" height="326.2" x="3.9" y="291.6"/>
    <rect width="255" height="11.9" x=".1" y="2216"/>
    <rect width="250.8" height="3" x="4.4" y="2221"/>
    <rect width="11.9" height="320.5" x=".1" y="1897.9"/>
    <rect width="3" height="326.2" x="3.9" y="1897.9"/>
    <rect width="11.9" height="458.8" x="2040.5" y="1886"/>
    <path d="M1704.3 2333v11.8h336.3v-12h-336.3z"/>
    <rect width="3" height="447.9" x="2045.5" y="1889.9"/>
    <rect width="349.4" height="3" x="1699.2" y="2337.9"/>
  </g>
  <g fill="#fff" stroke="#000" stroke-width=".3" stroke-miterlimit="10">
    <rect width="31.8" height="199.9" x="1890.6" y="725.4"/>
    <rect width="8.1" height="199.9" x="1927.4" y="725.4"/>
    <rect width="5.1" height="199.9" x="1922.3" y="725.4"/>
    <rect width="2.5" height="199.9" x="1913.6" y="725.4"/>
    <rect width="200.4" height="31.8" x="1378.5" y="301"/>
    <rect width="200.4" height="8.1" x="1378.5" y="287.9"/>
    <rect width="200.4" height="5.1" x="1378.5" y="295.9"/>
    <rect width="200.4" height="2.5" x="1378.5" y="307.2"/>
    <g>
      <rect width="31.8" height="199.9" x="1890.6" y="1047.8"/>
      <rect width="8.1" height="199.9" x="1927.4" y="1047.8"/>
      <rect width="5.1" height="199.9" x="1922.3" y="1047.8"/>
      <rect width="2.5" height="199.9" x="1913.6" y="1047.8"/>
    </g>
    <g>
      <rect width="31.8" height="199.9" x="1890.6" y="1403.6"/>
      <rect width="8.1" height="199.9" x="1927.4" y="1403.6"/>
      <rect width="5.1" height="199.9" x="1922.3" y="1403.6"/>
      <rect width="2.5" height="199.9" x="1913.6" y="1403.6"/>
    </g>
    <g>
      <rect width="230" height="12.5" x="1705.5" y="287.9"/>
      <rect width="230" height="3.2" x="1705.5" y="291.9"/>
    </g>
    <g>
      <rect width="12.5" height="317.4" x="1923" y="300.4"/>
      <rect width="3.2" height="317.4" x="1928.3" y="300.4"/>
    </g>
  </g>
  <g fill="#02475d">
    <rect width="274.9" height="19.9" x=".1" y="1878"/>
    <rect width="44.9" height="460" x=".1" y="1417.9"/>
    <rect width="44.9" height="164.8" x=".1" y="952.9"/>
    <rect width="44.9" height="59.5" x=".1" y="1237.9"/>
    <rect width="44.9" height="40" x="5.2" y="1247.7"/>
    <rect width="44.9" height="134.7" x=".1" y="617.8"/>
    <rect width="204.2" height="44.9" x="230.1" y="287.8"/>
    <rect width="130.9" height="44.9" x="554.6" y="287.8"/>
    <rect width="37.7" height="915" x="685.5" y="287.8"/>
    <rect width="25" height="59.3" x="25.1" y="617.8"/>
    <rect width="112.7" height="44.9" x="255.1" y="2182.9"/>
    <rect width="251.6" height="44.9" x="567.7" y="2182.9"/>
    <rect width="365.1" height="44.9" x="1019.3" y="2182.9"/>
    <rect width="25" height="38.1" x="723.2" y="1164.6"/>
    <rect width="401.1" height="37.3" x="848.1" y="1165.5"/>
    <rect width="40.2" height="5.1" x="1210.3" y="2177.9"/>
    <rect width="119.9" height="44.9" x="1584.3" y="2182.9"/>
    <rect width="58.9" height="14.4" x="1645.3" y="2178.3"/>
    <rect width="39.8" height="12.5" x="685.5" y="2177.9"/>
    <rect width="39.8" height="210.1" x="1209.5" y="1407.9"/>
    <rect width="11.9" height="125.6" x="230.2" y="629.5"/>
    <rect width="92" height="11.9" x="150.1" y="617.7"/>
    <rect width="331.6" height="11.9" x="230.2" y="743.3"/>
    <rect width="23.7" height="11.9" x="661.8" y="743.3"/>
    <rect width="11.6" height="154.2" x="525.4" y="749.2"/>
    <rect width="11.9" height="222.8" x="525.4" y="1003.3"/>
    <rect width="480.3" height="11.9" x="45" y="1063.5"/>
    <rect width="11.4" height="92.8" x="525.4" y="1326.1"/>
    <rect width="325.6" height="11.7" x="208.3" y="1392"/>
    <rect width="12.1" height="373.8" x="208.3" y="1392"/>
    <rect width="125.4" height="11.4" x="220.4" y="1754.4"/>
    <rect width="11.6" height="4.3" x="263.2" y="1763.6"/>
    <rect width="11.6" height="23" x="263.2" y="1854.9"/>
    <rect width="125.8" height="11.9" x="435.6" y="1753.9"/>
    <rect width="11.9" height="249.3" x="525.4" y="1508.9"/>
    <rect width="305" height="10.6" x="220.4" y="1572.2"/>
    <rect width="163.3" height="10.6" x="45" y="1487.5"/>
    <rect width="11.9" height="701.5" x="685.5" y="1476.5"/>
    <rect width="60.1" height="11.2" x="697.3" y="1476.5"/>
    <rect width="26.8" height="11.9" x="661.3" y="1753.9"/>
    <rect width="11.4" height="39.8" x="697.3" y="1670.9"/>
    <rect width="89.8" height="12.3" x="697.3" y="1710.7"/>
    <rect width="278.7" height="12.3" x="937.5" y="1710.7"/>
    <rect width="11.9" height="290.2" x="1335.7" y="1892.9"/>
    <rect width="11.9" height="69.9" x="1335.7" y="1723"/>
    <rect width="11.9" height="133.4" x="973.5" y="1426.1"/>
    <rect width="11.9" height="61.1" x="973.5" y="1649.6"/>
    <rect width="11.9" height="143.6" x="973.5" y="1202.8"/>
    <rect width="224.1" height="11.9" x="985.4" y="1476.5"/>
    <rect width="39.8" height="168.6" x="220.4" y="1403.6"/>
    <rect width="443.1" height="31.2" x="1249.3" y="1689.6"/>
    <rect width="33" height="177.1" x="1659.3" y="1720.8"/>
    <rect width="235.9" height="44.9" x="1699.5" y="1853"/>
    <rect width="33" height="520.2" x="1216.2" y="1202.8"/>
    <rect width="7.2" height="80.1" x="1692.3" y="1817.8"/>
  </g>
  <rect width="76.8" height="26.2" x="851.5" y="717.2" fill="#02475d"/>
  <rect width="24.9" height="294" x="851.5" y="423.1" fill="#02475d"/>
  <rect width="204.3" height="24.9" x="876.4" y="423.1" fill="#02475d"/>
  <rect width="24.9" height="293.7" x="1055.8" y="448" fill="#02475d"/>
  <rect width="30.8" height="24.6" x="1025" y="717.2" fill="#02475d"/>
  <rect width="148.9" height="11.4" x="723.2" y="979.2" fill="#02475d"/>
  <rect width="147.6" height="11.4" x="1063.5" y="979.2" fill="#02475d"/>
  <rect width="148.9" height="20.4" x="723.2" y="214.4" fill="#02475d"/>
  <rect width="147.6" height="20.4" x="1063.5" y="214.4" fill="#02475d"/>
  <rect width="68.1" height="20.4" x="1143" y="287.9" fill="#02475d"/>
  <rect width="20.4" height="73.4" x="1122.6" y="234.8" fill="#02475d"/>
  <rect width="195.1" height="33.8" x="870.9" y="1131.7" fill="#02475d"/>
  <rect width="11.9" height="202.9" x="672.4" y="84.7" fill="#02475d"/>
  <rect width="11.9" height="202.9" x="1250" y="84.7" fill="#02475d"/>
  <g fill="#fff" stroke="#000" stroke-width=".3" stroke-miterlimit="10">
    <rect width="205.6" height="12.5" x="684.3" y="84.7"/>
    <rect width="205.6" height="3.2" x="684.3" y="88.8"/>
  </g>
  <g fill="#fff" stroke="#000" stroke-width=".3" stroke-miterlimit="10">
    <rect width="168.7" height="12.5" x="1081.4" y="84.7"/>
    <rect width="168.7" height="3.2" x="1081.4" y="88.8"/>
  </g>
</svg>
