<svg viewBox="0 0 2242.6 2177.1" id="3.1_3">
  <polygon data-id-flat="1867" class="hovered_flat_at_plan flat_plan_3" points="1859 13 1859 159.8 1563.8 159.8 1402.9 159.8 1402.9 645.3 1563.8 645.3 1563.8 791 1563.8 824.1 1552 824.1 1552 685.5 1402.9 685.5 1402.9 824.1 1402.9 900.3 1364.7 900.3 1364.7 1000.3 1402.9 1000.3 1402.9 1239.6 1402.9 1555.3 1574 1555.3 1574 1239.6 1585 1239.6 1585 1566.6 1845.9 1566.6 1845.9 1718.6 2045.4 1718.6 2045.4 1566.6 2045.4 1239.6 2044.1 1239.6 2044.1 791 2083.4 791 2083.4 483.5 2229.6 483.5 2229.6 13 1859 13"/>
  <path data-id-flat="1866" class="hovered_flat_at_plan flat_plan_4" d="M1846 1763.5v-175h-476.2v-520h-368v-38.2h-100v38H839v-870H383.7V13H12.4v470.5h186.2v1280H82.4v401.2h301.3v-116h1474v113H2157v-398.2h-311z"/>
  <rect width="490.1" height="970.6" x="876.8" y="60.4" fill="#f6f6f6"/>
  <g fill="none" stroke="#000" stroke-width=".3" stroke-miterlimit="10">
    <rect width="5" height="78" x="1556.5" y="1239.2"/>
    <rect width="4" height="11.4" x="1561.5" y="1227.7"/>
    <path d="M1561.5 1317c-53 0-85.8-39-85.8-78"/>
  </g>
  <g fill="none" stroke="#000" stroke-width=".3" stroke-miterlimit="10">
    <rect width="5" height="87.6" x="1594" y="1239.2"/>
    <rect width="4" height="11.4" x="1590.1" y="1227.7"/>
    <path d="M1594 1326.8c59.6 0 96.4-43.8 96.4-87.6"/>
  </g>
  <g fill="none" stroke="#000" stroke-width=".3" stroke-miterlimit="10">
    <rect width="87.6" height="5" x="1707.4" y="1189.5"/>
    <rect width="11.4" height="4" x="1696" y="1194.5"/>
    <path d="M1795 1194.5c0-59.6-43.8-96.4-87.6-96.4"/>
  </g>
  <g fill="none" stroke="#000" stroke-width=".3" stroke-miterlimit="10">
    <rect width="92" height="5" x="1963.2" y="359.7"/>
    <rect width="11.4" height="4" x="2055.2" y="355.7"/>
    <path d="M1963 359.7c0 52.2 39 94.4 92 94.4"/>
  </g>
  <g fill="none" stroke="#000" stroke-width=".3" stroke-miterlimit="10">
    <rect width="92" height="5" x="1376.2" y="991.3"/>
    <rect width="11.4" height="4" x="1364.7" y="996.3"/>
    <path d="M1468 996.3c0-53-39-96-92-96"/>
  </g>
  <g fill="none" stroke="#000" stroke-width=".3" stroke-miterlimit="10">
    <rect width="96" height="5" x="582.9" y="860"/>
    <rect width="11.4" height="4" x="678.9" y="865"/>
    <path d="M583 865a96 96 0 0 1 96-96"/>
  </g>
  <g fill="none" stroke="#000" stroke-width=".3" stroke-miterlimit="10">
    <rect width="96" height="5" x="582.9" y="1182.7"/>
    <rect width="11.4" height="4" x="678.9" y="1187.7"/>
    <path d="M583 1187.7a96 96 0 0 1 96-96"/>
  </g>
  <g fill="none" stroke="#000" stroke-width=".3" stroke-miterlimit="10">
    <rect width="5" height="96" x="718.9" y="1523.9"/>
    <rect width="4" height="11.4" x="714.9" y="1619.9"/>
    <path d="M719 1524a96 96 0 0 1 96 96"/>
  </g>
  <g fill="none" stroke="#000" stroke-width=".3" stroke-miterlimit="10">
    <rect width="96" height="5" x="1393.7" y="1662.5"/>
    <rect width="11.4" height="4" x="1489.7" y="1658.5"/>
    <path d="M1393.6 1662.4a96 96 0 0 0 96 96"/>
  </g>
  <g fill="none" stroke="#000" stroke-width=".3" stroke-miterlimit="10">
    <rect width="81.3" height="5" x="189.4" y="1867.6"/>
    <rect width="11.4" height="4" x="178" y="1872.6"/>
    <path d="M270.7 1872.6a81.3 81.3 0 0 0-81.3-81.3"/>
  </g>
  <g fill="none" stroke="#000" stroke-width=".3" stroke-miterlimit="10">
    <rect width="81.3" height="5" x="1972" y="1795.3"/>
    <rect width="11.4" height="4" x="2053.3" y="1791.3"/>
    <path d="M1972 1795.3a81.3 81.3 0 0 0 81.2 81.3"/>
  </g>
  <g fill="none" stroke="#000" stroke-width=".3" stroke-miterlimit="10">
    <rect width="5" height="96" x="905.7" y="961"/>
    <rect width="4" height="11.4" x="901.7" y="1057"/>
    <path d="M905.7 961a96 96 0 0 1 96 96"/>
  </g>
  <g fill="none" stroke="#000" stroke-width=".3" stroke-miterlimit="10">
    <rect width="5" height="96" x="207.6" y="494.9"/>
    <rect width="4" height="11.4" x="203.7" y="483.5"/>
    <path d="M207.6 591a96 96 0 0 0 96-96"/>
  </g>
  <g fill="none" stroke="#000" stroke-width=".3" stroke-miterlimit="10">
    <rect width="96" height="5" x="190.1" y="446.7"/>
    <rect width="11.4" height="4" x="178.7" y="451.7"/>
    <path d="M286 451.7a96 96 0 0 0-96-96"/>
  </g>
  <g fill="none" stroke="#000" stroke-width=".3" stroke-miterlimit="10">
    <rect width="5" height="96" x="806.4" y="513.3"/>
    <rect width="4" height="11.4" x="811.4" y="609.3"/>
    <path d="M811.3 513.3a96 96 0 0 0-96 96"/>
  </g>
  <g fill="none" stroke="#000" stroke-width=".3" stroke-miterlimit="10">
    <rect width="86.1" height="5" x="690.4" y="1288.4"/>
    <rect width="11.4" height="4" x="679" y="1284.5"/>
    <path d="M776.5 1288.4a86 86 0 0 1-86 86"/>
  </g>
  <g fill="none" stroke="#000" stroke-width=".3" stroke-miterlimit="10">
    <rect width="86.1" height="5" x="1041.4" y="1506.2"/>
    <rect width="11.4" height="4" x="1127.5" y="1511.2"/>
    <path d="M1041.3 1511.2a86 86 0 0 1 86-86"/>
  </g>
  <g fill="none" stroke="#000" stroke-width=".3" stroke-miterlimit="10">
    <rect width="5" height="86.1" x="580.2" y="1631"/>
    <rect width="4" height="11.4" x="585.2" y="1619.5"/>
    <path d="M585.2 1717a86 86 0 0 1-86-86"/>
  </g>
  <g fill="none" stroke="#000" stroke-width=".3" stroke-miterlimit="10">
    <rect width="119.8" height="30.3" x="877.3" y="288.9"/>
    <rect width="119.8" height="30.3" x="877.3" y="319.2"/>
    <rect width="119.8" height="30.3" x="877.3" y="349.5"/>
    <rect width="119.8" height="30.3" x="877.3" y="379.8"/>
    <rect width="119.8" height="30.3" x="877.3" y="410.1"/>
    <rect width="119.8" height="30.3" x="877.3" y="440.4"/>
    <rect width="119.8" height="30.3" x="877.3" y="470.7"/>
    <rect width="119.8" height="30.3" x="877.3" y="501"/>
    <rect width="119.8" height="30.3" x="877.3" y="531.3"/>
    <rect width="119.8" height="30.3" x="877.3" y="561.6"/>
    <rect width="119.8" height="30.3" x="877.3" y="591.9"/>
  </g>
  <g fill="none" stroke="#000" stroke-width=".3" stroke-miterlimit="10">
    <rect width="119.8" height="30.3" x="1245.1" y="288.7"/>
    <rect width="119.8" height="30.3" x="1245.1" y="319"/>
    <rect width="119.8" height="30.3" x="1245.1" y="349.3"/>
    <rect width="119.8" height="30.3" x="1245.1" y="379.6"/>
    <rect width="119.8" height="30.3" x="1245.1" y="409.9"/>
    <rect width="119.8" height="30.3" x="1245.1" y="440.2"/>
    <rect width="119.8" height="30.3" x="1245.1" y="470.5"/>
    <rect width="119.8" height="30.3" x="1245.1" y="500.8"/>
    <rect width="119.8" height="30.3" x="1245.1" y="531.1"/>
    <rect width="119.8" height="30.3" x="1245.1" y="561.4"/>
    <rect width="119.8" height="30.3" x="1245.1" y="591.7"/>
  </g>
  <rect width="179.9" height="269.6" x="1031.1" y="313.6" fill="none" stroke="#000" stroke-width=".3" stroke-miterlimit="10"/>
  <rect width="165.9" height="255.4" x="1038.1" y="320.7" fill="none" stroke="#000" stroke-width=".3" stroke-miterlimit="10"/>
  <g fill="none" stroke="#000" stroke-width=".3" stroke-miterlimit="10">
    <rect width="5" height="96" x="1235.1" y="68.5"/>
    <rect width="4" height="11.4" x="1240.1" y="164.5"/>
    <path d="M1240 68.5a102 102 0 0 0-102 102"/>
  </g>
  <g fill="none" stroke="#000" stroke-width=".3" stroke-miterlimit="10">
    <rect width="5" height="85.6" x="1208.1" y="759.1"/>
    <rect width="4" height="11.4" x="1213.1" y="844.7"/>
    <path d="M1213 759a91.8 91.8 0 0 0-91.8 91.8"/>
  </g>
  <g fill="none" stroke="#000" stroke-width=".3" stroke-miterlimit="10">
    <rect width="5" height="85.6" x="1029.6" y="759.1"/>
    <rect width="4" height="11.4" x="1025.6" y="844.7"/>
    <path d="M1029.5 759a91.8 91.8 0 0 1 91.8 91.8"/>
  </g>
  <g fill="#02475d">
    <rect width="44.9" height="106.5" x="2044.1" y="455.7"/>
    <rect width="319.6" height="45.3" x="1769.4" y="153.5"/>
    <rect width="218.2" height="44.9" x="1402.9" y="153.5"/>
    <rect width="38.1" height="746.8" x="1364.7" y="153.5"/>
    <rect width="38.1" height="68.2" x="1364.7" y="1000.3"/>
    <rect width="31.8" height="205" x="1371.1" y="1068.5"/>
    <rect width="39.8" height="210.1" x="1363" y="1273.5"/>
    <rect width="32.8" height="102.9" x="1370" y="1483.6"/>
    <rect width="443.1" height="31.2" x="1402.9" y="1555.3"/>
    <rect width="33" height="177.1" x="1812.9" y="1586.5"/>
    <rect width="7.2" height="80.1" x="1845.9" y="1683.5"/>
    <rect width="235.9" height="44.9" x="1853.1" y="1718.6"/>
    <rect width="44.9" height="359.8" x="2044.1" y="1431.6"/>
    <rect width="22.9" height="34.3" x="2039.1" y="1703.4"/>
    <rect width="55" height="12.3" x="1990.4" y="1554.3"/>
    <rect width="54.6" height="11.3" x="1845.9" y="1555.3"/>
    <rect width="44.9" height="238.9" x="2044.1" y="1062.4"/>
    <rect width="22.9" height="40.2" x="2039.1" y="1113.4"/>
    <rect width="353.8" height="12.3" x="1690.3" y="1227.3"/>
    <rect width="11.9" height="28.8" x="1696" y="1198.5"/>
    <rect width="11.9" height="307.5" x="1696" y="791"/>
    <rect width="336.3" height="12.3" x="1707.8" y="791"/>
    <rect width="44.9" height="170.4" x="2044.1" y="762"/>
    <rect width="161" height="40.2" x="1402.9" y="645.3"/>
    <rect width="11.9" height="149.9" x="1552" y="685.6"/>
    <rect width="10.2" height="11.4" x="1541.8" y="824.1"/>
    <rect width="49.1" height="11.4" x="1402.9" y="824.1"/>
    <rect width="13.1" height="316.8" x="1571.9" y="1239.6"/>
    <rect width="24.6" height="11.9" x="1565.5" y="1227.7"/>
    <rect width="72.9" height="11.9" x="1402.9" y="1227.3"/>
    <rect width="44.9" height="157.3" x="2044.2" y="198.4"/>
  </g>
  <g fill="#fff" stroke="#9d9d9c" stroke-miterlimit="10">
    <rect width="31.8" height="199.9" x="2044.2" y="562.1"/>
    <rect width="8.1" height="199.9" x="2081" y="562.1"/>
    <rect width="5.1" height="199.9" x="2075.9" y="562.1"/>
    <rect width="2.5" height="199.9" x="2067.2" y="562.1"/>
    <rect width="148.4" height="31.8" x="1621" y="166.7"/>
    <rect width="148.4" height="8.1" x="1621" y="153.5"/>
    <rect width="148.4" height="5.1" x="1621" y="161.6"/>
    <rect width="148.4" height="2.5" x="1621" y="172.9"/>
    <g>
      <rect width="31.8" height="129.9" x="2044.2" y="932.4"/>
      <rect width="8.1" height="129.9" x="2081" y="932.4"/>
      <rect width="5.1" height="129.9" x="2075.9" y="932.4"/>
      <rect width="2.5" height="129.9" x="2067.2" y="932.4"/>
    </g>
    <g>
      <rect width="31.8" height="129.9" x="2044.2" y="1301.2"/>
      <rect width="8.1" height="129.9" x="2081" y="1301.2"/>
      <rect width="5.1" height="129.9" x="2075.9" y="1301.2"/>
      <rect width="2.5" height="129.9" x="2067.2" y="1301.2"/>
    </g>
    <g>
      <rect width="395.6" height="12.5" x="1846.6" y=".5"/>
      <rect width="381.2" height="3.2" x="1853.8" y="4.5"/>
    </g>
    <g>
      <rect width="12.5" height="483" x="2229.6" y="13"/>
      <rect width="3.2" height="486.2" x="2234.9" y="4.5"/>
    </g>
    <g>
      <rect width="12.5" height="140.6" x="1846.6" y="13"/>
      <rect width="3.2" height="149" x="1850.6" y="4.5"/>
    </g>
    <g>
      <rect width="140.6" height="12.5" x="2089" y="483.5"/>
      <rect width="145.9" height="3.2" x="2089" y="487.5"/>
    </g>
  </g>
  <g fill="#02475d">
    <rect width="44.9" height="266.7" x="153.7" y="1524.6"/>
    <rect width="44.9" height="101.6" x="153.7" y="843.5"/>
    <rect width="44.9" height="339.5" x="153.7" y="1065.1"/>
    <rect width="44.9" height="40" x="158.8" y="1113.3"/>
    <rect width="44.9" height="187.5" x="153.7" y="455.7"/>
    <rect width="160" height="44.9" x="679" y="153.5"/>
    <rect width="37.7" height="915" x="839" y="153.4"/>
    <rect width="354.6" height="44.9" x="661.3" y="2048.6"/>
    <rect width="72.9" height="44.9" x="1138.8" y="2048.6"/>
    <rect width="252.2" height="44.9" x="1339.7" y="2048.6"/>
    <rect width="39.8" height="12.5" x="839.1" y="2043.5"/>
    <rect width="25" height="38.1" x="876.7" y="1030.3"/>
    <rect width="401.1" height="37.3" x="1001.7" y="1031.1"/>
    <rect width="40.2" height="5.1" x="1363.9" y="2043.5"/>
    <rect width="58.9" height="14.4" x="1798.9" y="2044"/>
    <rect width="33" height="205" x="1369.8" y="1068.4"/>
    <rect width="39.8" height="210.1" x="1363" y="1273.5"/>
    <rect width="32.8" height="105" x="1369.8" y="1483.6"/>
    <rect width="32.6" height="174.9" x="1813.3" y="1588.6"/>
    <rect width="7.2" height="80.1" x="1845.9" y="1683.5"/>
    <rect width="235.9" height="44.9" x="1853.1" y="1718.6"/>
    <rect width="325.3" height="44.9" x="153.7" y="153.5"/>
    <rect width="11.9" height="125.6" x="383.7" y="495.1"/>
    <rect width="92" height="11.9" x="303.6" y="483.3"/>
    <rect width="331.6" height="11.9" x="383.7" y="608.9"/>
    <rect width="23.7" height="11.9" x="815.3" y="608.9"/>
    <rect width="11.6" height="154.2" x="678.9" y="614.8"/>
    <rect width="11.9" height="222.8" x="678.9" y="868.9"/>
    <rect width="480.3" height="11.9" x="198.6" y="929.1"/>
    <rect width="11.4" height="92.8" x="678.9" y="1191.7"/>
    <rect width="325.6" height="11.7" x="361.9" y="1257.6"/>
    <rect width="12.1" height="373.8" x="361.9" y="1257.6"/>
    <rect width="125.4" height="11.4" x="374" y="1619.9"/>
    <rect width="11.6" height="4.3" x="416.7" y="1629.2"/>
    <rect width="125.8" height="11.9" x="589.1" y="1619.5"/>
    <rect width="11.9" height="249.3" x="678.9" y="1374.5"/>
    <rect width="305" height="10.6" x="374" y="1437.8"/>
    <rect width="163.3" height="10.6" x="198.6" y="1353.1"/>
    <rect width="307.7" height="44.9" x="153.7" y="2048.6"/>
    <rect width="44.9" height="172" x="153.7" y="1876.6"/>
    <rect width="44.9" height="157.3" x="153.7" y="198.4"/>
    <rect width="11.9" height="701.5" x="839.1" y="1342.1"/>
    <rect width="60.1" height="11.2" x="850.9" y="1342.1"/>
    <rect width="26.8" height="11.9" x="814.9" y="1619.5"/>
    <rect width="11.4" height="39.8" x="850.9" y="1536.5"/>
    <rect width="89.8" height="12.3" x="850.9" y="1576.3"/>
    <rect width="278.7" height="12.3" x="1091.1" y="1576.3"/>
    <rect width="11.9" height="290.2" x="1489.3" y="1758.5"/>
    <rect width="11.9" height="69.9" x="1489.3" y="1588.6"/>
    <rect width="11.9" height="133.4" x="1127.1" y="1291.7"/>
    <rect width="11.9" height="61.1" x="1127.1" y="1515.2"/>
    <rect width="11.9" height="143.6" x="1127.1" y="1068.4"/>
    <rect width="224.1" height="11.9" x="1139" y="1342.1"/>
    <rect width="39.8" height="168.6" x="374" y="1269.2"/>
    <rect width="44.9" height="172" x="2044.2" y="1876.6"/>
    <rect width="297.2" height="44.9" x="1791.9" y="2048.6"/>
  </g>
  <g fill="#fff" stroke="#9d9d9c" stroke-miterlimit="10">
    <rect width="199.9" height="31.8" x="461.4" y="2048.6"/>
    <rect width="199.9" height="8.1" x="461.4" y="2085.5"/>
    <rect width="199.9" height="5.1" x="461.4" y="2080.4"/>
    <rect width="199.9" height="2.5" x="461.4" y="2071.6"/>
    <rect width="31.8" height="120" x="166.8" y="1404.6"/>
    <rect width="8.1" height="120" x="153.7" y="1404.6"/>
    <rect width="5.1" height="120" x="161.7" y="1404.6"/>
    <rect width="2.5" height="120" x="173.1" y="1404.6"/>
    <rect width="31.8" height="120" x="166.8" y="945.1"/>
    <rect width="8.1" height="120" x="153.7" y="945.1"/>
    <rect width="5.1" height="120" x="161.7" y="945.1"/>
    <rect width="2.5" height="120" x="173.1" y="945.1"/>
    <rect width="31.8" height="200.4" x="166.8" y="643.2"/>
    <rect width="8.1" height="200.4" x="153.7" y="643.2"/>
    <rect width="5.1" height="200.4" x="161.7" y="643.2"/>
    <rect width="2.5" height="200.4" x="173.1" y="643.2"/>
    <rect width="200" height="31.8" x="479" y="166.6"/>
    <rect width="200" height="8.1" x="479" y="153.5"/>
    <rect width="200" height="5.1" x="479" y="161.6"/>
    <rect width="200" height="2.5" x="479" y="172.9"/>
    <rect width="123.9" height="31.8" x="1015.9" y="2048.6"/>
    <rect width="123.9" height="8.1" x="1015.9" y="2085.5"/>
    <rect width="123.9" height="5.1" x="1015.9" y="2080.4"/>
    <rect width="123.9" height="2.5" x="1015.9" y="2071.6"/>
    <rect width="128" height="31.8" x="1211.7" y="2048.6"/>
    <rect width="128" height="8.1" x="1211.7" y="2085.5"/>
    <rect width="128" height="5.1" x="1211.7" y="2080.4"/>
    <rect width="128" height="2.5" x="1211.7" y="2071.6"/>
    <rect width="199.9" height="31.8" x="1592" y="2048.6"/>
    <rect width="11.9" height="80" x="1845.9" y="2093.5"/>
    <rect width="199.9" height="8.1" x="1592" y="2085.5"/>
    <rect width="199.9" height="5.1" x="1592" y="2080.4"/>
    <rect width="3" height="76.2" x="1849.7" y="2093.5"/>
    <rect width="80" height="11.9" x="2089" y="1751.7"/>
    <rect width="76.2" height="3" x="2089.1" y="1755.5"/>
    <rect width="199.9" height="2.5" x="1592" y="2071.6"/>
    <rect width="325" height="11.9" x="70.6" y="2164.7"/>
    <rect width="313.1" height="3" x="74.4" y="2169.8"/>
    <rect width="83.1" height="11.9" x="70.6" y="1751.7"/>
    <rect width="76.2" height="3" x="77.5" y="1756.7"/>
    <rect width="11.9" height="402.8" x="70.6" y="1763.5"/>
    <rect width="3" height="416.1" x="74.4" y="1756.7"/>
    <rect width="11.9" height="71.2" x="383.7" y="2093.5"/>
    <rect width="3" height="79.3" x="387.5" y="2093.5"/>
    <rect width="11.9" height="398.1" x="2157.2" y="1763.5"/>
    <polygon points="2169 2173.5 2169 2162.1 2169 2161.7 1857.8 2161.7 1857.8 2173.5 2169 2173.5 2169 2173.5"/>
    <rect width="312.5" height="3" x="1852.8" y="2166.7"/>
    <rect width="3" height="408.1" x="2162.2" y="1758.5"/>
  </g>
  <rect width="76.8" height="26.2" x="1005.1" y="582.8" fill="#02475d"/>
  <g fill="#fff" stroke="#000" stroke-width=".3" stroke-miterlimit="10">
    <rect width="313.1" height="12.5" x="82.5" y="70.5"/>
    <rect width="301.2" height="3.2" x="82.5" y="74.5"/>
  </g>
  <g fill="#fff" stroke="#000" stroke-width=".3" stroke-miterlimit="10">
    <rect width="12.5" height="285.2" x="70" y="70.5"/>
    <rect width="3.2" height="285.2" x="74" y="70.5"/>
  </g>
  <g fill="#fff" stroke="#000" stroke-width=".3" stroke-miterlimit="10">
    <rect width="12.5" height="40.3" x="70" y="455.7"/>
    <rect width="3.2" height="40.3" x="75.3" y="455.7"/>
  </g>
  <g fill="#fff" stroke="#000" stroke-width=".3" stroke-miterlimit="10">
    <rect width="12.5" height="70.5" x="383.1" y="83"/>
    <rect width="3.2" height="79" x="388.4" y="74.5"/>
  </g>
  <g fill="#fff" stroke="#000" stroke-width=".3" stroke-miterlimit="10">
    <rect width="70.6" height="12.5" x="82.5" y="483.5"/>
    <rect width="70.6" height="3.2" x="82.5" y="487.5"/>
  </g>
  <g fill="#9d9d9c">
    <rect width="12.5" height="57.5" x="383.1" y="13"/>
    <rect width="12.5" height="483" y="13"/>
    <rect width="57.5" height="12.5" x="12.5" y="483.5"/>
    <rect width="395.6" height="12.5" y=".5"/>
  </g>
  <rect width="351.3" height="6.8" x="946.1" y="53.6" fill="#9e9d9c"/>
  <rect width="69.3" height="15.2" x="876.8" y="45.2" fill="#02475d"/>
  <rect width="68.7" height="15.2" x="1297.4" y="45.2" fill="#02475d"/>
  <rect width="37.7" height="108.3" x="839.1" y="45.2" fill="#02475d"/>
  <rect width="38.3" height="108.3" x="1364.6" y="45.2" fill="#02475d"/>
  <rect width="111.4" height="43.9" x="876.7" y="153.4" fill="#02475d"/>
  <rect width="120.6" height="43.9" x="1244" y="153.4" fill="#02475d"/>
  <rect width="24.9" height="294" x="1005.1" y="288.7" fill="#02475d"/>
  <rect width="204.3" height="24.9" x="1030" y="288.7" fill="#02475d"/>
  <rect width="24.9" height="293.7" x="1209.4" y="313.6" fill="#02475d"/>
  <rect width="30.8" height="24.6" x="1178.5" y="582.8" fill="#02475d"/>
  <g fill="#fff" stroke="#000" stroke-width=".3" stroke-miterlimit="10">
    <rect width="149.8" height="18.4" x="988.2" y="157.5"/>
    <rect width="149.8" height="5.3" x="988.2" y="164.9"/>
  </g>
  <rect width="148.9" height="11.4" x="876.7" y="844.8" fill="#02475d"/>
  <rect width="147.6" height="11.4" x="1217" y="844.8" fill="#02475d"/>
  <rect width="195.1" height="33.8" x="1024.5" y="997.3" fill="#02475d"/>
</svg>
