<svg viewBox="0 0 3024.1 2151.7">
  <polygon data-id-flat="2131" class="hovered_flat_at_plan flat_plan_3" fill="#dff2fd" points="2309.2 995.5 2309.2 146 2648 146 2692.7 146 2692.7 116.4 3008.7 116.4 3008.7 251.5 2693.3 251.5 2693.3 296.3 2979.1 296.3 2979.1 1951.7 2978.7 1951.7 2978.7 2086.4 2535.3 2086.4 2535.3 1951.7 2528.1 1951.7 2528.1 1359.3 2528.1 1191.6 2271.1 1191.6 2271.1 995.5 2309.2 995.5"/>
  <polygon data-id-flat="2129" class="hovered_flat_at_plan flat_plan_1" fill="#e1efe3" points="1042.6 66.4 1443.7 66.4 1443.7 146.4 1745.1 146.4 1745.1 738.4 1745.1 798.3 1745.1 974.3 1430.9 974.3 1417.8 974.3 1417.8 1011.6 1317 1011.6 1317 974.3 1042.6 974.3 1042.6 66.4"/>
  <path data-id-flat="2128" class="hovered_flat_at_plan flat_plan_2" fill="#dddaee" d="M45 146v936.4h556.8v-109H659v38.2h90.3v-38h278V66.3h-400v79.4H44.8z"/>
  <polygon data-id-flat="2132" class="hovered_flat_at_plan flat_plan_1" fill="#dddaee" points="1054 1229.3 1300.9 1229.3 1316.7 1229.3 1316.7 1191.6 1416.9 1191.6 1416.9 1229.3 1753.8 1229.3 1753.8 1413.5 1753.8 1906.4 1673.1 1906.4 1673.1 2136.3 1446.1 2136.3 1446.1 2056.7 1431.3 2056.7 1054 2056.7 1054 1229.3"/>
  <polygon data-id-flat="2130" class="hovered_flat_at_plan flat_plan_1" fill="#e1efe3" points="1870.9 1951.7 1870.9 1906.4 1791.3 1906.4 1791.3 1413.5 1791.3 1229.3 2101.3 1228.5 2101.3 1191.6 2243.1 1191.6 2243.1 1229.3 2491.1 1229.3 2491.1 2056.7 2101.3 2056.7 2101.3 2136.3 1870.9 2136.3 1870.9 2151.6 1673.1 2151.6 1673.1 1951.7 1870.9 1951.7"/>
  <polygon data-id-flat="2127" class="hovered_flat_at_plan flat_plan_2" fill="#e1efe3" points="1015.9 2056.7 639 2056.7 639 2036.4 623.8 2036.4 623.8 2136.3 100.1 2136.3 100.1 2151.6 0 2151.6 0 1951.7 44.9 1951.7 44.9 1301.8 44.9 1120.4 601.8 1120.4 601.8 1229.3 639 1229.3 657 1229.3 657 1191.6 749.1 1191.6 749.1 1229.3 874 1229.3 1015.9 1229.3"/>
  <rect width="1643.1" height="179.8" x="628" y="1011.8" fill="#f6f6f6"/>
  <rect width="487.8" height="996.4" x="1783.2" y="15.2" fill="#f6f6f6"/>
  <rect width="350.2" height="7.4" x="1851" y="7.7" fill="#706f6f"/>
  <rect width="148.6" height="45.3" x="2589.5" y="101.1" fill="#003d58"/>
  <rect width="80.5" height="45.3" x="2309.2" y="101.1" fill="#003d58"/>
  <rect width="69.9" height="14.8" x="2201.2" y=".3" fill="#003d58"/>
  <rect width="38.1" height="1021" x="2271.1" y=".3" fill="#003d58"/>
  <rect width="99.1" height="12.3" x="2309.2" y="983.2" fill="#003d58"/>
  <rect width="17.8" height="12.3" x="2498.5" y="983.2" fill="#003d58"/>
  <rect width="11.9" height="232.1" x="2516.3" y="763.4" fill="#003d58"/>
  <rect width="207.1" height="11.9" x="2309.2" y="838.4" fill="#003d58"/>
  <rect width="11.9" height="142.7" x="2516.3" y="530.5" fill="#003d58"/>
  <rect width="228.7" height="12.3" x="2309.2" y="518.2" fill="#003d58"/>
  <rect width="12.3" height="122" x="2648" y="438.2" fill="#003d58"/>
  <rect width="10.2" height="12.3" x="2637.8" y="518.2" fill="#003d58"/>
  <rect width="318.9" height="12.3" x="2660.2" y="438.2" fill="#003d58"/>
  <rect width="44.9" height="341.7" x="2979.1" y="251.5" fill="#003d58"/>
  <rect width="14.8" height="50" x="2964.3" y="273.5" fill="#003d58"/>
  <rect width="60.1" height="15.3" x="2738.2" y="101.1" fill="#003d58"/>
  <rect width="38.1" height="108" x="2271.1" y="1121.3" fill="#003d58"/>
  <rect width="218.9" height="37.7" x="2309.2" y="1191.6" fill="#003d58"/>
  <rect width="37.1" height="872.4" x="2491.1" y="1229.3" fill="#003d58"/>
  <rect width="7.2" height="149.9" x="2528.1" y="1951.7" fill="#003d58"/>
  <rect width="62.9" height="45.3" x="2528.1" y="1906.4" fill="#003d58"/>
  <rect width="143" height="45.3" x="2881" y="1906.4" fill="#003d58"/>
  <rect width="45.3" height="149.9" x="2978.7" y="1951.7" fill="#003d58"/>
  <rect width="44.9" height="334.1" x="2979.1" y="1572.3" fill="#003d58"/>
  <rect width="44.9" height="299.8" x="2979.1" y="1152.6" fill="#003d58"/>
  <rect width="74.6" height="27.1" x="2904.7" y="1320.3" fill="#003d58"/>
  <rect width="331.4" height="11.9" x="2648" y="1347.4" fill="#003d58"/>
  <rect width="12.3" height="221.1" x="2648" y="1126.3" fill="#003d58"/>
  <rect width="12.3" height="365.9" x="2648" y="660.5" fill="#003d58"/>
  <rect width="44.9" height="317.6" x="2979.1" y="714.7" fill="#003d58"/>
  <rect width="14.8" height="50" x="2964.3" y="866.3" fill="#003d58"/>
  <rect width="304.1" height="12.1" x="2660.2" y="891.5" fill="#003d58"/>
  <rect width="285.8" height="44.9" x="2693.3" y="251.5" fill="#003d58"/>
  <rect width="44.9" height="5.1" x="2693.3" y="246.4" fill="#003d58"/>
  <rect width="89.6" height="44.9" x="2401.5" y="2056.7" fill="#003d58"/>
  <rect width="131.1" height="39.8" x="2360" y="1436.3" fill="#003d58"/>
  <rect width="105" height="12.5" x="2255" y="1463.6" fill="#003d58"/>
  <rect width="11.9" height="141.9" x="2243.1" y="1394.4" fill="#003d58"/>
  <rect width="11.9" height="75.4" x="2243.1" y="1229.3" fill="#003d58"/>
  <rect width="42.8" height="37.7" x="2228.3" y="1191.6" fill="#003d58"/>
  <rect width="207.8" height="38.1" x="2063.3" y="973.5" fill="#003d58"/>
  <rect width="30.1" height="110.1" x="2241" y="863.4" fill="#003d58"/>
  <rect width="711" height="37.7" x="1416.9" y="1191.6" fill="#003d58"/>
  <rect width="11.9" height="61" x="1430.9" y="1229.3" fill="#003d58"/>
  <rect width="11.9" height="172.3" x="1551.2" y="1229.3" fill="#003d58"/>
  <rect width="182.1" height="11.8" x="1430.9" y="1401.6" fill="#003d58"/>
  <rect width="11.9" height="11" x="1430.9" y="1390.6" fill="#003d58"/>
  <rect width="11.9" height="10.2" x="1430.9" y="1413.5" fill="#003d58"/>
  <rect width="11.9" height="393" x="1431.3" y="1513.4" fill="#003d58"/>
  <rect width="53.8" height="50" x="1431.3" y="1906.4" fill="#003d58"/>
  <rect width="229.9" height="45.3" x="1657" y="1906.4" fill="#003d58"/>
  <rect width="197.8" height="15.3" x="1673.1" y="2136.3" fill="#003d58"/>
  <rect width="106.5" height="15.3" y="2136.3" fill="#003d58"/>
  <rect width="15.2" height="184.4" x="1764.4" y="1951.9" fill="#003d58"/>
  <rect width="197.8" height="15.3" x="936.1" y="51.2" fill="#003d58"/>
  <rect width="15.2" height="185.1" x="1027.3" y="66.4" fill="#003d58"/>
  <rect width="15.2" height="184.4" y="1951.9" fill="#003d58"/>
  <rect width="38.1" height="677.1" x="1753.2" y="1229.3" fill="#003d58"/>
  <rect width="50" height="11.4" x="1703.2" y="1401.6" fill="#003d58"/>
  <rect width="50" height="11.9" x="1791.3" y="1401.6" fill="#003d58"/>
  <rect width="11.9" height="33" x="2101.3" y="1390.6" fill="#003d58"/>
  <rect width="170.2" height="11.9" x="1931" y="1401.6" fill="#003d58"/>
  <rect width="12.3" height="172.3" x="1981" y="1229.3" fill="#003d58"/>
  <rect width="11.9" height="61" x="2101.3" y="1229.3" fill="#003d58"/>
  <rect width="88.5" height="44.9" x="2113.1" y="2056.7" fill="#003d58"/>
  <rect width="44.9" height="145.3" x="2068.2" y="1956.4" fill="#003d58"/>
  <rect width="45.3" height="145.3" x="1430.9" y="1956.3" fill="#003d58"/>
  <rect width="88.5" height="44.9" x="1342.4" y="2056.7" fill="#003d58"/>
  <rect width="88.5" height="45.3" x="1054" y="2056.3" fill="#003d58"/>
  <rect width="88.5" height="44.9" x="927.4" y="2056.7" fill="#003d58"/>
  <rect width="38.1" height="910" x="1015.9" y="1191.6" fill="#003d58"/>
  <rect width="263" height="37.7" x="1054" y="1191.6" fill="#003d58"/>
  <rect width="11.9" height="75.4" x="1289" y="1229.3" fill="#003d58"/>
  <rect width="11.4" height="141.9" x="1289" y="1394.4" fill="#003d58"/>
  <rect width="154.1" height="13.6" x="1134.9" y="1462.6" fill="#003d58"/>
  <rect width="80.9" height="39.8" x="1054" y="1436.3" fill="#003d58"/>
  <rect width="38.1" height="1011.5" x="1745.1" y=".3" fill="#003d58"/>
  <rect width="113.9" height="38.1" x="1783.2" y="973.5" fill="#003d58"/>
  <rect width="328.2" height="37.5" x="1416.9" y="974.3" fill="#003d58"/>
  <rect width="12.3" height="95.6" x="1430.9" y="878.7" fill="#003d58"/>
  <rect width="12.3" height="152" x="1430.9" y="646.6" fill="#003d58"/>
  <rect width="171.9" height="11.8" x="1443.2" y="726.6" fill="#003d58"/>
  <rect width="130" height="39.8" x="1615.1" y="726.6" fill="#003d58"/>
  <rect width="47" height="45.3" x="1698.1" y="101.1" fill="#003d58"/>
  <rect width="55.1" height="45.3" x="1443.2" y="101.1" fill="#003d58"/>
  <rect width="45.3" height="195.2" x="1397.9" y="101.1" fill="#003d58"/>
  <rect width="12.3" height="260" x="1430.9" y="296.3" fill="#003d58"/>
  <rect width="38.1" height="760.1" x="1015.9" y="251.5" fill="#003d58"/>
  <rect width="96.1" height="44.9" x="1054" y="251.5" fill="#003d58"/>
  <rect width="95.7" height="44.9" x="920.2" y="251.5" fill="#003d58"/>
  <rect width="263" height="38.1" x="1054" y="973.5" fill="#003d58"/>
  <rect width="266.8" height="38.1" x="749.1" y="973.5" fill="#003d58"/>
  <rect width="257" height="11.9" x="758.9" y="802.8" fill="#003d58"/>
  <rect width="266.8" height="37.7" x="749.1" y="1191.6" fill="#003d58"/>
  <rect width="30.5" height="36.8" x="628" y="1191.6" fill="#003d58"/>
  <rect width="38.1" height="254.9" x="589.9" y="973.5" fill="#003d58"/>
  <rect width="30.9" height="38.1" x="628" y="973.5" fill="#003d58"/>
  <rect width="11.9" height="132.1" x="1239.1" y="841.4" fill="#003d58"/>
  <rect width="60.1" height="11.9" x="1250.9" y="841.4" fill="#003d58"/>
  <rect width="11.9" height="393" x="2101.3" y="1513.4" fill="#003d58"/>
  <rect width="54.3" height="50" x="2058.9" y="1906.4" fill="#003d58"/>
  <rect width="100.4" height="12.3" x="526.8" y="1422.4" fill="#003d58"/>
  <rect width="11.9" height="484" x="627.2" y="1422.4" fill="#003d58"/>
  <rect width="29.2" height="45.3" x="564.9" y="1906.4" fill="#003d58"/>
  <rect width="44.9" height="195.2" x="594.1" y="1906.4" fill="#003d58"/>
  <rect width="88.5" height="44.9" x="639" y="2056.7" fill="#003d58"/>
  <rect width="89.8" height="12.3" x="337.1" y="1422.4" fill="#003d58"/>
  <rect width="12.3" height="493.8" x="324.8" y="1412.6" fill="#003d58"/>
  <rect width="106.4" height="45.3" x="286.6" y="1906.4" fill="#003d58"/>
  <rect width="11.9" height="74.1" x="589.9" y="1228.4" fill="#003d58"/>
  <rect width="85.1" height="12.3" x="504.8" y="1290.2" fill="#003d58"/>
  <rect width="141.9" height="12.3" x="273.1" y="1290.2" fill="#003d58"/>
  <rect width="12.3" height="9.7" x="324.8" y="1302.5" fill="#003d58"/>
  <rect width="11.9" height="182.1" x="261.3" y="1120.4" fill="#003d58"/>
  <rect width="58" height="12.3" x="203.3" y="1290.2" fill="#003d58"/>
  <rect width="58" height="11.9" x="44.9" y="1290.2" fill="#003d58"/>
  <rect width="545" height="38.1" x="44.9" y="1082.3" fill="#003d58"/>
  <rect width="11.9" height="66.5" x="589.9" y="816.8" fill="#003d58"/>
  <rect width="112.2" height="11.9" x="477.7" y="816.8" fill="#003d58"/>
  <rect width="12.3" height="253.7" x="477.7" y="828.6" fill="#003d58"/>
  <rect width="141" height="11.9" x="246.9" y="816.8" fill="#003d58"/>
  <rect width="12.3" height="10.2" x="324.8" y="806.6" fill="#003d58"/>
  <rect width="11.9" height="265.5" x="235" y="816.8" fill="#003d58"/>
  <rect width="50" height="11.9" x="185.1" y="816.8" fill="#003d58"/>
  <rect width="70.3" height="44.7" x="556.9" y="101.1" fill="#003d58"/>
  <rect width="11.9" height="373.1" x="627.2" y="323.4" fill="#003d58"/>
  <rect width="30.1" height="50" x="608.9" y="273.5" fill="#003d58"/>
  <rect width="44.9" height="195.2" x="627.2" y="101.1" fill="#003d58"/>
  <rect width="63.9" height="44.7" x="293" y="101.1" fill="#003d58"/>
  <rect width="12.3" height="560.9" x="324.8" y="145.8" fill="#003d58"/>
  <rect width="89.8" height="11.4" x="337.1" y="685.1" fill="#003d58"/>
  <rect width="100.4" height="11.9" x="526.8" y="684.7" fill="#003d58"/>
  <rect width="44.9" height="1850.6" y="101.1" fill="#003d58"/>
  <rect width="69.9" height="45.3" x="44.9" y="1906.4" fill="#003d58"/>
  <rect width="50" height="11.9" x="44.9" y="816.8" fill="#003d58"/>
  <rect width="48.3" height="45.3" x="44.9" y="101.1" fill="#003d58"/>
  <rect width="67.8" height="14.8" x="1783.2" y=".3" fill="#003d58"/>
  <rect width="235.6" height="12.3" x="780.3" y="1464.3" fill="#003d58"/>
  <rect width="155.2" height="45.3" x="2115.9" y="146.4" fill="#003d58"/>
  <rect width="102.8" height="45.3" x="1783.2" y="146.4" fill="#003d58"/>
  <rect width="52.1" height="25" x="2064.8" y="624.6" fill="#003d58"/>
  <rect width="25" height="319.9" x="2116.9" y="329.7" fill="#003d58"/>
  <rect width="180" height="25.2" x="1937" y="329.7" fill="#003d58"/>
  <rect width="25" height="319.7" x="1912" y="329.9" fill="#003d58"/>
  <rect width="30.9" height="25" x="1937" y="624.6" fill="#003d58"/>
  <g fill="#fff" stroke="#000" stroke-width=".3" stroke-miterlimit="10">
    <rect width="225.7" height="15.3" x="2798.3" y="101.1"/>
    <rect width="225.7" height="4.6" x="2798.3" y="104.9"/>
  </g>
  <g fill="#fff" stroke="#000" stroke-width=".3" stroke-miterlimit="10">
    <rect width="443.4" height="15.3" x="2535.3" y="2086.4"/>
    <rect width="443.4" height="4.6" x="2535.3" y="2093.3"/>
  </g>
  <g fill="#fff" stroke="#000" stroke-width=".3" stroke-miterlimit="10">
    <rect width="227" height="15.3" x="1446.2" y="2136.3"/>
    <rect width="227" height="4.6" x="1446.1" y="2143.2"/>
  </g>
  <g fill="#fff" stroke="#000" stroke-width=".3" stroke-miterlimit="10">
    <rect width="230.4" height="15.3" x="1870.9" y="2136.3"/>
    <rect width="230.4" height="4.6" x="1870.9" y="2143.2"/>
  </g>
  <g fill="#fff" stroke="#000" stroke-width=".3" stroke-miterlimit="10">
    <rect width="15.2" height="49.9" x="1430.9" y="2101.7"/>
    <rect width="4.6" height="49.9" x="1434.7" y="2101.7"/>
  </g>
  <g fill="#fff" stroke="#000" stroke-width=".3" stroke-miterlimit="10">
    <rect width="15.2" height="49.9" x="2101.3" y="2101.7"/>
    <rect width="4.6" height="49.9" x="2108.2" y="2101.7"/>
  </g>
  <g fill="#fff" stroke="#000" stroke-width=".3" stroke-miterlimit="10">
    <rect width="532.5" height="15.3" x="106.5" y="2136.3"/>
    <rect width="532.5" height="4.6" x="106.5" y="2143.2"/>
  </g>
  <g fill="#fff" stroke="#000" stroke-width=".3" stroke-miterlimit="10">
    <rect width="15.2" height="34.7" x="623.8" y="2101.6"/>
    <rect width="4.6" height="34.7" x="630.7" y="2101.6"/>
  </g>
  <g fill="#fff" stroke="#000" stroke-width=".3" stroke-miterlimit="10">
    <rect width="350.2" height="15.3" x="1851" y=".1"/>
    <rect width="350.2" height="4.6" x="1851" y="3.9"/>
  </g>
  <g fill="#fff" stroke="#000" stroke-width=".3" stroke-miterlimit="10">
    <rect width="308.9" height="15.3" x="627.2" y="51.2"/>
    <rect width="308.9" height="4.6" x="627.2" y="54.9"/>
  </g>
  <g fill="#fff" stroke="#000" stroke-width=".3" stroke-miterlimit="10">
    <rect width="165.1" height="15.3" x="672" y="246.4"/>
    <rect width="165.1" height="4.6" x="672" y="250.1"/>
  </g>
  <g fill="#fff" stroke="#000" stroke-width=".3" stroke-miterlimit="10">
    <rect width="164.7" height="15.3" x="1233.2" y="246.4"/>
    <rect width="164.7" height="4.6" x="1233.2" y="250.1"/>
  </g>
  <g fill="#fff" stroke="#000" stroke-width=".3" stroke-miterlimit="10">
    <rect width="15.2" height="34.7" x="627.2" y="66.4"/>
    <rect width="4.6" height="34.7" x="630.9" y="66.4"/>
  </g>
  <g fill="#fff" stroke="#000" stroke-width=".3" stroke-miterlimit="10">
    <rect width="308.9" height="15.3" x="1134.3" y="51.2"/>
    <rect width="308.9" height="4.6" x="1134.3" y="54.9"/>
  </g>
  <g fill="#fff" stroke="#000" stroke-width=".3" stroke-miterlimit="10">
    <rect width="15.2" height="34.7" x="1427.9" y="66.4"/>
    <rect width="4.6" height="34.7" x="1434.8" y="66.4"/>
  </g>
  <g fill="#fff" stroke="#000" stroke-width=".3" stroke-miterlimit="10">
    <rect width="15.2" height="150.3" x="3008.7" y="101.1"/>
    <rect width="4.6" height="150.3" x="3015.7" y="101.1"/>
  </g>
  <g fill="#fff" stroke="#000" stroke-width=".3" stroke-miterlimit="10">
    <rect width="31.8" height="171.2" x="2979.1" y="543.6"/>
    <rect width="8.1" height="171.2" x="3015.9" y="543.6"/>
    <rect width="5.1" height="171.2" x="3010.9" y="543.6"/>
    <rect width="2.5" height="171.2" x="3002.1" y="543.6"/>
  </g>
  <g fill="#fff" stroke="#000" stroke-width=".3" stroke-miterlimit="10">
    <rect width="199.9" height="31.8" x="2389.6" y="114.3"/>
    <rect width="199.9" height="8.1" x="2389.6" y="101.1"/>
    <rect width="199.9" height="5.1" x="2389.6" y="109.2"/>
    <rect width="199.9" height="2.5" x="2389.6" y="120.5"/>
  </g>
  <g fill="#fff" stroke="#000" stroke-width=".3" stroke-miterlimit="10">
    <rect width="31.8" height="120.3" x="2979.1" y="1032.3"/>
    <rect width="8.1" height="120.3" x="3015.9" y="1032.3"/>
    <rect width="5.1" height="120.3" x="3010.9" y="1032.3"/>
    <rect width="2.5" height="120.3" x="3002.1" y="1032.3"/>
  </g>
  <g fill="#fff" stroke="#000" stroke-width=".3" stroke-miterlimit="10">
    <rect width="31.8" height="119.8" x="2979.1" y="1452.4"/>
    <rect width="8.1" height="119.8" x="3015.9" y="1452.4"/>
    <rect width="5.1" height="119.8" x="3010.9" y="1452.4"/>
    <rect width="2.5" height="119.8" x="3002.1" y="1452.4"/>
  </g>
  <g fill="#fff" stroke="#000" stroke-width=".3" stroke-miterlimit="10">
    <rect width="146.8" height="12.3" x="1969.1" y="157"/>
    <rect width="146.8" height="3.7" x="1969.1" y="162.6"/>
  </g>
</svg>
