<svg id="3.4_2" viewBox="0 0 2240.4 2246.2">
  <rect width="490.1" height="970.6" x="876.3" y="60.1" fill="#f6f6f6"/>
  <path fill="#dff2fd" data-id-flat="1898" class="hovered_flat_at_plan flat_plan_5" d="M1845.4 1763.2v-175h-476v-520H1001V1030h-100v38h-62.7V198H383.2V12.7H12.6v470.6H198l-.4 1280H82v401.3H383v-116.2h1474v185.5h370.6v-470.6h-382.4z"/>
  <polygon fill="#e1efe3" data-id-flat="1899" class="hovered_flat_at_plan flat_plan_3" fill-rule="evenodd" points="1858.6 82.6 1858.6 159.5 1563.3 159.5 1402.4 159.5 1402.4 645 1563.3 645 1563.3 790.7 1563.3 823.7 1551.5 823.7 1551.5 685.2 1402.4 685.2 1402.4 823.7 1402.4 900 1364.3 900 1364.3 999.9 1402.4 999.9 1402.4 1239.3 1402.4 1554.9 1573.5 1554.9 1573.5 1239.3 1584.5 1239.3 1584.5 1566.3 1845.4 1566.3 1845.4 1718.3 2044.9 1718.3 2044.9 1566.3 2044.9 1239.3 2043.7 1239.3 2043.7 790.7 2082.9 790.7 2082.9 483.2 2159.8 483.2 2159.8 82.6 1858.6 82.6"/>
  <g fill="none" stroke="#000" stroke-width=".3" stroke-miterlimit="10">
    <rect width="5" height="78" x="1532.3" y="835.2"/>
    <rect width="4" height="11.4" x="1537.3" y="823.7"/>
    <path d="M1537.3 913.2c-53 0-85.8-39-85.8-78"/>
  </g>
  <g fill="none" stroke="#000" stroke-width=".3" stroke-miterlimit="10">
    <rect width="5" height="78" x="1556.1" y="1238.8"/>
    <rect width="4" height="11.4" x="1561.1" y="1227.4"/>
    <path d="M1561 1316.8c-53 0-85.8-39-85.8-78"/>
  </g>
  <g fill="none" stroke="#000" stroke-width=".3" stroke-miterlimit="10">
    <rect width="5" height="87.6" x="1593.6" y="1238.8"/>
    <rect width="4" height="11.4" x="1589.6" y="1227.4"/>
    <path d="M1593.5 1326.5c59.6 0 96.4-43.8 96.4-87.6"/>
  </g>
  <g fill="none" stroke="#000" stroke-width=".3" stroke-miterlimit="10">
    <rect width="87.6" height="5" x="1706.9" y="1189.2"/>
    <rect width="11.4" height="4" x="1695.5" y="1194.2"/>
    <path d="M1794.5 1194.2c0-59.6-43.8-96.4-87.6-96.4"/>
  </g>
  <g fill="none" stroke="#000" stroke-width=".3" stroke-miterlimit="10">
    <rect width="92" height="5" x="1962.7" y="359.4"/>
    <rect width="11.4" height="4" x="2054.7" y="355.4"/>
    <path d="M1962.6 359.4c0 52.2 39 94.4 92 94.4"/>
  </g>
  <g fill="none" stroke="#000" stroke-width=".3" stroke-miterlimit="10">
    <rect width="92" height="5" x="1375.7" y="991"/>
    <rect width="11.4" height="4" x="1364.3" y="996"/>
    <path d="M1467.6 996c0-53-39-96-92-96"/>
  </g>
  <g fill="none" stroke="#000" stroke-width=".3" stroke-miterlimit="10">
    <rect width="96" height="5" x="582.4" y="859.6"/>
    <rect width="11.4" height="4" x="678.4" y="864.6"/>
    <path d="M582.4 864.6a96 96 0 0 1 96-96"/>
  </g>
  <g fill="none" stroke="#000" stroke-width=".3" stroke-miterlimit="10">
    <rect width="96" height="5" x="582.4" y="1182.4"/>
    <rect width="11.4" height="4" x="678.4" y="1187.4"/>
    <path d="M582.4 1187.4a96 96 0 0 1 96-96"/>
  </g>
  <g fill="none" stroke="#000" stroke-width=".3" stroke-miterlimit="10">
    <rect width="5" height="96" x="718.4" y="1523.6"/>
    <rect width="4" height="11.4" x="714.5" y="1619.6"/>
    <path d="M718.4 1523.6a96 96 0 0 1 96 96"/>
  </g>
  <g fill="none" stroke="#000" stroke-width=".3" stroke-miterlimit="10">
    <rect width="96" height="5" x="1393.2" y="1662.1"/>
    <rect width="11.4" height="4" x="1489.2" y="1658.2"/>
    <path d="M1393 1662a96 96 0 0 0 96 96"/>
  </g>
  <g fill="none" stroke="#000" stroke-width=".3" stroke-miterlimit="10">
    <rect width="81.3" height="5" x="188.9" y="1867.3"/>
    <rect width="11.4" height="4" x="177.5" y="1872.3"/>
    <path d="M270.2 1872.3A81.3 81.3 0 0 0 189 1791"/>
  </g>
  <g fill="none" stroke="#000" stroke-width=".3" stroke-miterlimit="10">
    <rect width="81.3" height="5" x="1971.5" y="1795"/>
    <rect width="11.4" height="4" x="2052.8" y="1791"/>
    <path d="M1971.4 1795a81.3 81.3 0 0 0 81.3 81.3"/>
  </g>
  <g fill="none" stroke="#000" stroke-width=".3" stroke-miterlimit="10">
    <rect width="5" height="96" x="905.2" y="960.7"/>
    <rect width="4" height="11.4" x="901.3" y="1056.7"/>
    <path d="M905.2 960.7a96 96 0 0 1 96 96"/>
  </g>
  <g fill="none" stroke="#000" stroke-width=".3" stroke-miterlimit="10">
    <rect width="5" height="96" x="207.2" y="494.6"/>
    <rect width="4" height="11.4" x="203.2" y="483.1"/>
    <path d="M207 590.6a96 96 0 0 0 96-96"/>
  </g>
  <g fill="none" stroke="#000" stroke-width=".3" stroke-miterlimit="10">
    <rect width="96" height="5" x="189.6" y="446.4"/>
    <rect width="11.4" height="4" x="178.2" y="451.4"/>
    <path d="M285.6 451.4a96 96 0 0 0-96-96"/>
  </g>
  <g fill="none" stroke="#000" stroke-width=".3" stroke-miterlimit="10">
    <rect width="5" height="96" x="805.9" y="512.9"/>
    <rect width="4" height="11.4" x="810.9" y="608.9"/>
    <path d="M810.8 513a96 96 0 0 0-96 96"/>
  </g>
  <g fill="none" stroke="#000" stroke-width=".3" stroke-miterlimit="10">
    <rect width="86.1" height="5" x="689.9" y="1288.1"/>
    <rect width="11.4" height="4" x="678.5" y="1284.1"/>
    <path d="M776 1288a86 86 0 0 1-86 86.2"/>
  </g>
  <g fill="none" stroke="#000" stroke-width=".3" stroke-miterlimit="10">
    <rect width="86.1" height="5" x="1040.9" y="1505.9"/>
    <rect width="11.4" height="4" x="1127" y="1510.9"/>
    <path d="M1040.8 1511a86 86 0 0 1 86-86.2"/>
  </g>
  <g fill="none" stroke="#000" stroke-width=".3" stroke-miterlimit="10">
    <rect width="5" height="86.1" x="579.7" y="1630.6"/>
    <rect width="4" height="11.4" x="584.7" y="1619.2"/>
    <path d="M584.7 1716.8a86 86 0 0 1-86-86"/>
  </g>
  <g fill="none" stroke="#000" stroke-width=".3" stroke-miterlimit="10">
    <rect width="119.8" height="30.3" x="876.8" y="288.6"/>
    <rect width="119.8" height="30.3" x="876.8" y="318.9"/>
    <rect width="119.8" height="30.3" x="876.8" y="349.2"/>
    <rect width="119.8" height="30.3" x="876.8" y="379.5"/>
    <rect width="119.8" height="30.3" x="876.8" y="409.8"/>
    <rect width="119.8" height="30.3" x="876.8" y="440.1"/>
    <rect width="119.8" height="30.3" x="876.8" y="470.4"/>
    <rect width="119.8" height="30.3" x="876.8" y="500.7"/>
    <rect width="119.8" height="30.3" x="876.8" y="531"/>
    <rect width="119.8" height="30.3" x="876.8" y="561.3"/>
    <rect width="119.8" height="30.3" x="876.8" y="591.6"/>
  </g>
  <g fill="none" stroke="#000" stroke-width=".3" stroke-miterlimit="10">
    <rect width="119.8" height="30.3" x="1244.6" y="288.4"/>
    <rect width="119.8" height="30.3" x="1244.6" y="318.7"/>
    <rect width="119.8" height="30.3" x="1244.6" y="349"/>
    <rect width="119.8" height="30.3" x="1244.6" y="379.3"/>
    <rect width="119.8" height="30.3" x="1244.6" y="409.6"/>
    <rect width="119.8" height="30.3" x="1244.6" y="439.9"/>
    <rect width="119.8" height="30.3" x="1244.6" y="470.2"/>
    <rect width="119.8" height="30.3" x="1244.6" y="500.5"/>
    <rect width="119.8" height="30.3" x="1244.6" y="530.8"/>
    <rect width="119.8" height="30.3" x="1244.6" y="561.1"/>
    <rect width="119.8" height="30.3" x="1244.6" y="591.3"/>
  </g>
  <rect width="179.9" height="269.6" x="1030.6" y="313.3" fill="none" stroke="#000" stroke-width=".3" stroke-miterlimit="10"/>
  <rect width="165.9" height="255.4" x="1037.6" y="320.4" fill="none" stroke="#000" stroke-width=".3" stroke-miterlimit="10"/>
  <g fill="none" stroke="#000" stroke-width=".3" stroke-miterlimit="10">
    <rect width="5" height="96" x="1234.6" y="68.2"/>
    <rect width="4" height="11.4" x="1239.6" y="164.2"/>
    <path d="M1239.5 68.2a102 102 0 0 0-102 102"/>
  </g>
  <g fill="none" stroke="#000" stroke-width=".3" stroke-miterlimit="10">
    <rect width="5" height="85.6" x="1207.6" y="758.8"/>
    <rect width="4" height="11.4" x="1212.6" y="844.4"/>
    <path d="M1212.5 758.7a91.8 91.8 0 0 0-91.8 91.8"/>
  </g>
  <g fill="none" stroke="#000" stroke-width=".3" stroke-miterlimit="10">
    <rect width="5" height="85.6" x="1029.1" y="758.8"/>
    <rect width="4" height="11.4" x="1025.1" y="844.4"/>
    <path d="M1029 758.7a91.8 91.8 0 0 1 91.8 91.8"/>
  </g>
  <g fill="#02475d">
    <rect width="44.9" height="106.5" x="2043.7" y="455.4"/>
    <rect width="319.6" height="45.3" x="1768.9" y="153.2"/>
    <rect width="218.2" height="44.9" x="1402.4" y="153.2"/>
    <rect width="38.1" height="746.8" x="1364.3" y="153.2"/>
    <rect width="38.1" height="68.2" x="1364.3" y="999.9"/>
    <rect width="31.8" height="205" x="1370.6" y="1068.1"/>
    <rect width="39.8" height="210.1" x="1362.6" y="1273.1"/>
    <rect width="32.8" height="102.9" x="1369.5" y="1483.2"/>
    <rect width="443.1" height="31.2" x="1402.4" y="1554.9"/>
    <rect width="33" height="177.1" x="1812.4" y="1586.2"/>
    <rect width="7.2" height="80.1" x="1845.4" y="1683.2"/>
    <rect width="235.9" height="44.9" x="1852.6" y="1718.3"/>
    <rect width="44.9" height="359.8" x="2043.7" y="1431.3"/>
    <rect width="22.9" height="34.3" x="2038.6" y="1703.1"/>
    <rect width="55" height="12.3" x="1989.9" y="1554"/>
    <rect width="54.6" height="11.3" x="1845.4" y="1554.9"/>
    <rect width="44.9" height="238.9" x="2043.7" y="1062"/>
    <rect width="22.9" height="40.2" x="2038.6" y="1113"/>
    <rect width="353.8" height="12.3" x="1689.8" y="1227"/>
    <rect width="11.9" height="28.8" x="1695.5" y="1198.2"/>
    <rect width="11.9" height="307.5" x="1695.5" y="790.7"/>
    <rect width="336.3" height="12.3" x="1707.3" y="790.7"/>
    <rect width="44.9" height="170.4" x="2043.7" y="761.7"/>
    <rect width="161" height="40.2" x="1402.4" y="645"/>
    <rect width="11.9" height="149.9" x="1551.5" y="685.2"/>
    <rect width="10.2" height="11.4" x="1541.3" y="823.7"/>
    <rect width="49.1" height="11.4" x="1402.4" y="823.7"/>
    <rect width="13.1" height="316.8" x="1571.4" y="1239.3"/>
    <rect width="24.6" height="11.9" x="1565" y="1227.4"/>
    <rect width="72.9" height="11.9" x="1402.4" y="1227"/>
    <rect width="44.9" height="157.3" x="2043.7" y="198.1"/>
  </g>
  <g fill="#fff" stroke="#000" stroke-width=".3" stroke-miterlimit="10">
    <rect width="31.8" height="199.9" x="2043.7" y="561.8"/>
    <rect width="8.1" height="199.9" x="2080.5" y="561.8"/>
    <rect width="5.1" height="199.9" x="2075.4" y="561.8"/>
    <rect width="2.5" height="199.9" x="2066.7" y="561.8"/>
    <rect width="148.4" height="31.8" x="1620.6" y="166.3"/>
    <rect width="148.4" height="8.1" x="1620.6" y="153.2"/>
    <rect width="148.4" height="5.1" x="1620.6" y="161.3"/>
    <rect width="148.4" height="2.5" x="1620.6" y="172.6"/>
    <rect width="31.8" height="129.9" x="2043.7" y="932.1"/>
    <rect width="8.1" height="129.9" x="2080.5" y="932.1"/>
    <rect width="5.1" height="129.9" x="2075.4" y="932.1"/>
    <rect width="2.5" height="129.9" x="2066.7" y="932.1"/>
    <g>
      <rect width="31.8" height="129.9" x="2043.7" y="1300.9"/>
      <rect width="8.1" height="129.9" x="2080.5" y="1300.9"/>
      <rect width="5.1" height="129.9" x="2075.4" y="1300.9"/>
      <rect width="2.5" height="129.9" x="2066.7" y="1300.9"/>
    </g>
    <rect width="325" height="11.9" x="1846.7" y="70.8"/>
    <rect width="313.1" height="3" x="1854.7" y="74.6"/>
    <rect width="83.1" height="11.9" x="2088.6" y="483.8"/>
    <rect width="76.2" height="3" x="2088.6" y="487.6"/>
    <rect width="11.9" height="402.8" x="2159.8" y="81.1"/>
    <rect width="3" height="416.1" x="2164.8" y="74.6"/>
    <rect width="11.9" height="71.2" x="1846.7" y="82"/>
    <rect width="3" height="79.3" x="1851.7" y="73.9"/>
  </g>
  <g fill="#02475d">
    <rect width="44.9" height="266.7" x="153.2" y="1524.3"/>
    <rect width="44.9" height="101.6" x="153.2" y="843.2"/>
    <rect width="44.9" height="339.5" x="153.2" y="1064.8"/>
    <rect width="44.9" height="40" x="158.3" y="1113"/>
    <rect width="44.9" height="187.5" x="153.2" y="455.4"/>
    <rect width="160" height="44.9" x="678.5" y="153.2"/>
    <rect width="37.7" height="915" x="838.6" y="153.1"/>
    <rect width="354.6" height="44.9" x="660.8" y="2048.3"/>
    <rect width="72.9" height="44.9" x="1138.3" y="2048.3"/>
    <rect width="252.2" height="44.9" x="1339.3" y="2048.3"/>
    <rect width="39.8" height="12.5" x="838.6" y="2043.2"/>
    <rect width="25" height="38.1" x="876.3" y="1030"/>
    <rect width="401.1" height="37.3" x="1001.2" y="1030.8"/>
    <rect width="40.2" height="5.1" x="1363.4" y="2043.2"/>
    <rect width="58.9" height="14.4" x="1798.4" y="2043.6"/>
    <rect width="33" height="205" x="1369.3" y="1068.1"/>
    <rect width="39.8" height="210.1" x="1362.5" y="1273.1"/>
    <rect width="32.8" height="105" x="1369.3" y="1483.2"/>
    <rect width="32.6" height="174.9" x="1812.8" y="1588.3"/>
    <rect width="7.2" height="80.1" x="1845.4" y="1683.2"/>
    <rect width="235.9" height="44.9" x="1852.6" y="1718.3"/>
    <rect width="325.3" height="44.9" x="153.2" y="153.2"/>
    <rect width="11.9" height="125.6" x="383.3" y="494.8"/>
    <rect width="92" height="11.9" x="303.2" y="482.9"/>
    <rect width="331.6" height="11.9" x="383.3" y="608.5"/>
    <rect width="23.7" height="11.9" x="814.8" y="608.5"/>
    <rect width="11.6" height="154.2" x="678.4" y="614.5"/>
    <rect width="11.9" height="222.8" x="678.4" y="868.6"/>
    <rect width="480.3" height="11.9" x="198.1" y="928.8"/>
    <rect width="11.4" height="92.8" x="678.4" y="1191.4"/>
    <rect width="325.6" height="11.7" x="361.4" y="1257.2"/>
    <rect width="12.1" height="373.8" x="361.4" y="1257.2"/>
    <rect width="125.4" height="11.4" x="373.5" y="1619.6"/>
    <rect width="229.8" height="11.4" x="198.1" y="1739.9"/>
    <rect width="11.6" height="4.3" x="416.3" y="1628.8"/>
    <rect width="11.6" height="26.8" x="416.3" y="1713.1"/>
    <rect width="125.8" height="11.9" x="588.7" y="1619.2"/>
    <rect width="11.9" height="249.3" x="678.4" y="1374.2"/>
    <rect width="305" height="10.6" x="373.5" y="1437.5"/>
    <rect width="163.3" height="10.6" x="198.1" y="1352.8"/>
    <rect width="307.7" height="44.9" x="153.2" y="2048.3"/>
    <rect width="44.9" height="172" x="153.2" y="1876.2"/>
    <rect width="44.9" height="157.3" x="153.2" y="198.1"/>
    <rect width="11.9" height="701.5" x="838.6" y="1341.7"/>
    <rect width="60.1" height="11.2" x="850.4" y="1341.7"/>
    <rect width="26.8" height="11.9" x="814.4" y="1619.2"/>
    <rect width="11.4" height="39.8" x="850.4" y="1536.2"/>
    <rect width="89.8" height="12.3" x="850.4" y="1576"/>
    <rect width="278.7" height="12.3" x="1090.6" y="1576"/>
    <rect width="11.9" height="290.2" x="1488.8" y="1758.1"/>
    <rect width="11.9" height="69.9" x="1488.8" y="1588.3"/>
    <rect width="11.9" height="133.4" x="1126.6" y="1291.3"/>
    <rect width="11.9" height="61.1" x="1126.6" y="1514.9"/>
    <rect width="11.9" height="143.6" x="1126.6" y="1068.1"/>
    <rect width="224.1" height="11.9" x="1138.5" y="1341.7"/>
    <rect width="39.8" height="168.6" x="373.5" y="1268.9"/>
    <rect width="44.9" height="172" x="2043.7" y="1876.2"/>
    <rect width="297.2" height="44.9" x="1791.4" y="2048.3"/>
  </g>
  <g fill="#fff" stroke="#000" stroke-width=".3" stroke-miterlimit="10">
    <rect width="199.9" height="31.8" x="460.9" y="2048.3"/>
    <rect width="199.9" height="8.1" x="460.9" y="2085.1"/>
    <rect width="199.9" height="5.1" x="460.9" y="2080.1"/>
    <rect width="199.9" height="2.5" x="460.9" y="2071.3"/>
    <rect width="31.8" height="120" x="166.3" y="1404.3"/>
    <rect width="8.1" height="120" x="153.2" y="1404.3"/>
    <rect width="5.1" height="120" x="161.3" y="1404.3"/>
    <rect width="2.5" height="120" x="172.6" y="1404.3"/>
    <rect width="31.8" height="120" x="166.3" y="944.8"/>
    <rect width="8.1" height="120" x="153.2" y="944.8"/>
    <rect width="5.1" height="120" x="161.3" y="944.8"/>
    <rect width="2.5" height="120" x="172.6" y="944.8"/>
    <rect width="31.8" height="200.4" x="166.3" y="642.8"/>
    <rect width="8.1" height="200.4" x="153.2" y="642.8"/>
    <rect width="5.1" height="200.4" x="161.3" y="642.8"/>
    <rect width="2.5" height="200.4" x="172.6" y="642.8"/>
    <rect width="200" height="31.8" x="478.5" y="166.3"/>
    <rect width="200" height="8.1" x="478.5" y="153.2"/>
    <rect width="200" height="5.1" x="478.5" y="161.2"/>
    <rect width="200" height="2.5" x="478.5" y="172.5"/>
    <rect width="123.9" height="31.8" x="1015.4" y="2048.3"/>
    <rect width="123.9" height="8.1" x="1015.4" y="2085.1"/>
    <rect width="123.9" height="5.1" x="1015.4" y="2080.1"/>
    <rect width="123.9" height="2.5" x="1015.4" y="2071.3"/>
    <rect width="128" height="31.8" x="1211.3" y="2048.3"/>
    <rect width="128" height="8.1" x="1211.3" y="2085.1"/>
    <rect width="128" height="5.1" x="1211.3" y="2080.1"/>
    <rect width="128" height="2.5" x="1211.3" y="2071.3"/>
    <rect width="199.9" height="31.8" x="1591.5" y="2048.3"/>
    <rect width="199.9" height="8.1" x="1591.5" y="2085.1"/>
    <rect width="199.9" height="5.1" x="1591.5" y="2080.1"/>
    <rect width="199.9" height="2.5" x="1591.5" y="2071.3"/>
    <rect width="325" height="11.9" x="70.1" y="2164.4"/>
    <rect width="313.1" height="3" x="73.9" y="2169.4"/>
    <rect width="83.1" height="11.9" x="70.1" y="1751.4"/>
    <rect width="76.2" height="3" x="77" y="1756.4"/>
    <rect width="11.9" height="402.8" x="70.1" y="1763.2"/>
    <rect width="3" height="416.1" x="73.9" y="1756.4"/>
    <rect width="11.9" height="71.2" x="383.2" y="2093.2"/>
    <rect width="3" height="79.3" x="387" y="2093.2"/>
    <rect width="313.1" height="12.5" x="1844.8" y="2163.7"/>
    <rect width="301.2" height="3.2" x="1856.7" y="2169"/>
    <rect width="12.5" height="285.2" x="2157.9" y="1891"/>
    <rect width="3.2" height="285.2" x="2163.2" y="1891"/>
    <rect width="12.5" height="40.3" x="2157.9" y="1750.7"/>
    <rect width="3.2" height="40.3" x="2161.9" y="1750.7"/>
    <rect width="12.5" height="70.5" x="1844.8" y="2093.2"/>
    <rect width="3.2" height="79" x="1848.8" y="2093.2"/>
    <rect width="70.6" height="12.5" x="2087.3" y="1750.7"/>
    <rect width="70.6" height="3.2" x="2087.3" y="1756"/>
    <g>
      <rect width="395.6" height="12.5" x=".1" y=".1"/>
      <rect width="381.2" height="3.2" x="7.3" y="4.1"/>
    </g>
    <g>
      <rect width="12.5" height="483" x=".1" y="12.6"/>
      <rect width="3.2" height="486.2" x="4.1" y="4.1"/>
    </g>
    <g>
      <rect width="12.5" height="140.6" x="383.2" y="12.6"/>
      <rect width="3.2" height="149" x="388.5" y="4.1"/>
    </g>
    <g>
      <rect width="140.6" height="12.5" x="12.6" y="483.1"/>
      <rect width="145.9" height="3.2" x="7.3" y="487.1"/>
    </g>
  </g>
  <rect width="76.8" height="26.2" x="1004.6" y="582.4" fill="#02475d"/>
  <rect width="351.3" height="6.8" x="945.6" y="53.3" fill="#9e9d9c"/>
  <rect width="69.3" height="15.2" x="876.3" y="44.9" fill="#02475d"/>
  <rect width="68.7" height="15.2" x="1296.9" y="44.9" fill="#02475d"/>
  <rect width="37.7" height="108.3" x="838.6" y="44.9" fill="#02475d"/>
  <rect width="38.3" height="108.3" x="1364.1" y="44.9" fill="#02475d"/>
  <rect width="111.4" height="43.9" x="876.3" y="153.1" fill="#02475d"/>
  <rect width="120.6" height="43.9" x="1243.5" y="153.1" fill="#02475d"/>
  <rect width="24.9" height="294" x="1004.6" y="288.4" fill="#02475d"/>
  <rect width="204.3" height="24.9" x="1029.5" y="288.4" fill="#02475d"/>
  <rect width="24.9" height="293.7" x="1208.9" y="313.3" fill="#02475d"/>
  <rect width="30.8" height="24.6" x="1178.1" y="582.4" fill="#02475d"/>
  <g fill="#fff" stroke="#000" stroke-width=".3" stroke-miterlimit="10">
    <rect width="149.8" height="18.4" x="987.7" y="157.2"/>
    <rect width="149.8" height="5.3" x="987.7" y="164.5"/>
  </g>
  <rect width="148.9" height="11.4" x="876.3" y="844.5" fill="#02475d"/>
  <rect width="147.6" height="11.4" x="1216.5" y="844.5" fill="#02475d"/>
  <rect width="195.1" height="33.8" x="1024" y="997" fill="#02475d"/>
  <g fill="#9d9d9c">
    <rect width="12.5" height="57.5" x="1844.8" y="2176.2"/>
    <rect width="12.5" height="483" x="2227.9" y="1750.7"/>
    <rect width="57.5" height="12.5" x="2170.4" y="1750.7"/>
    <rect width="395.6" height="12.5" x="1844.8" y="2233.7"/>
  </g>
</svg>
