<?xml version="1.0" encoding="utf-8"?>
<!-- Generator: Adobe Illustrator 19.1.0, SVG Export Plug-In . SVG Version: 6.00 Build 0)  -->
<svg version="1.1" id="Layer_1" xmlns="http://www.w3.org/2000/svg" xmlns:xlink="http://www.w3.org/1999/xlink" x="0px" y="0px"
	 viewBox="0 0 29 36" enable-background="new 0 0 29 36" xml:space="preserve">
<g>
	<path fill-rule="evenodd" clip-rule="evenodd" fill="#E0A915" d="M14.5,0.3c7.8,0,14.2,6.3,14.2,14.2c0.1,8.8-11.4,16-14.2,21.3
		C12.1,30.5,0.3,23.5,0.3,14.5C0.3,6.6,6.7,0.3,14.5,0.3z"/>
	<path fill-rule="evenodd" clip-rule="evenodd" fill="#FFFFFF" d="M17.3,11.2l-1.5-2.9l4.7,2.9H17.3L17.3,11.2z M12.7,11.2h4.1
		L15,7.9l-0.2-0.1l-0.3,0.2L12.7,11.2L12.7,11.2z M19.8,19v1.2H9.9V19h4.8c0,0,0.1,0,0.1,0c0,0,0.1,0,0.1,0L19.8,19L19.8,19z
		 M9.2,11.2l4.6-2.9l-1.6,2.9H9.2L9.2,11.2z M22.5,10.9l-7.3-4.5c-0.2-0.1-0.5-0.1-0.7,0l-7.3,4.5c-0.2,0.1-0.3,0.3-0.3,0.6v0.4
		c0,0.4,0.3,0.6,0.6,0.6h6.7v5.2h-5c-0.4,0-0.6,0.3-0.6,0.6v2.4c0,0.4,0.3,0.6,0.6,0.6h11.2c0.4,0,0.6-0.3,0.6-0.6v-2.4
		c0-0.4-0.3-0.6-0.6-0.6h-5v-5.2h6.6c0.4,0,0.6-0.3,0.6-0.6l0-0.4C22.8,11.3,22.7,11.1,22.5,10.9z"/>
</g>
</svg>
