<?xml version="1.0" encoding="utf-8"?>
<!-- Generator: Adobe Illustrator 19.1.0, SVG Export Plug-In . SVG Version: 6.00 Build 0)  -->
<svg version="1.1" id="Layer_1" xmlns="http://www.w3.org/2000/svg" xmlns:xlink="http://www.w3.org/1999/xlink" x="0px" y="0px"
	 viewBox="0 0 29 36" enable-background="new 0 0 29 36" xml:space="preserve">
<g>
	<path fill-rule="evenodd" clip-rule="evenodd" fill="#0061A9" d="M14.5,0.3c7.8,0,14.2,6.3,14.2,14.2c0.1,8.8-11.4,16-14.2,21.3
		C12.1,30.5,0.3,23.5,0.3,14.5C0.3,6.6,6.7,0.3,14.5,0.3z"/>
	<path fill-rule="evenodd" clip-rule="evenodd" fill="#FFFFFF" d="M16.5,18.5h-4.1c-0.4,0-0.6,0.3-0.6,0.6v3h-1.2V8.8h5.9
		c2.7,0,4.9,2.2,4.9,4.9C21.3,16.3,19.2,18.5,16.5,18.5L16.5,18.5z M16.5,16.1c1.3,0,2.4-1.1,2.4-2.4c0-1.3-1.1-2.4-2.4-2.4H13v4.8
		H16.5L16.5,16.1z M16.5,9.9h-4.1c-0.4,0-0.6,0.3-0.6,0.6v6.1c0,0.4,0.3,0.6,0.6,0.6h4.1c2,0,3.7-1.7,3.7-3.7
		C20.2,11.6,18.5,9.9,16.5,9.9L16.5,9.9z M16.5,7.5H9.9c-0.4,0-0.6,0.3-0.6,0.6l0,14.7c0,0.4,0.3,0.6,0.6,0.6h2.5
		c0.4,0,0.6-0.3,0.6-0.6v-3h3.5c3.4,0,6.2-2.8,6.2-6.2C22.6,10.3,19.9,7.5,16.5,7.5z"/>
</g>
</svg>
