<?xml version="1.0" encoding="utf-8"?>
<!-- Generator: Adobe Illustrator 19.1.0, SVG Export Plug-In . SVG Version: 6.00 Build 0)  -->
<svg version="1.1" id="Layer_1" xmlns="http://www.w3.org/2000/svg" xmlns:xlink="http://www.w3.org/1999/xlink" x="0px" y="0px"
	 viewBox="0 0 29 36" enable-background="new 0 0 29 36" xml:space="preserve">
<g>
	<g>
		<path fill-rule="evenodd" clip-rule="evenodd" fill="#0D7934" d="M14.5,0.3c7.8,0,14.2,6.3,14.2,14.2c0.1,8.8-11.4,16-14.2,21.3
			C12.1,30.5,0.3,23.5,0.3,14.5C0.3,6.6,6.7,0.3,14.5,0.3z"/>
		<path fill-rule="evenodd" clip-rule="evenodd" fill="#FFFFFF" d="M20.2,10.9h-11V10h11V10.9L20.2,10.9z M20.2,12.3h-11v-1h11V12.3
			L20.2,12.3z M20.2,13.8h-11v-1h11V13.8L20.2,13.8z M20.2,15.1h-11v-0.9h11V15.1L20.2,15.1z M22.9,15.1h-1.4V9.4
			c0-0.4-0.3-0.6-0.6-0.6H8.6C8.3,8.7,8,9,8,9.4v5.7H6.5c-0.4,0-0.6,0.3-0.6,0.6c0,0.4,0.3,0.6,0.6,0.6h2.1h0.1L8,19.8
			c-0.1,0.4,0.2,0.7,0.5,0.8c0,0,0.1,0,0.1,0c0.3,0,0.6-0.2,0.6-0.5l0.8-3.7h9.5l0.8,3.7c0.1,0.3,0.3,0.5,0.6,0.5c0,0,0.1,0,0.1,0
			c0.4-0.1,0.6-0.4,0.5-0.8l-0.7-3.4h0.1h2.1c0.4,0,0.6-0.3,0.6-0.6C23.6,15.4,23.3,15.1,22.9,15.1z"/>
	</g>
</g>
</svg>
