<?xml version="1.0" encoding="utf-8"?>
<!-- Generator: Adobe Illustrator 19.1.0, SVG Export Plug-In . SVG Version: 6.00 Build 0)  -->
<svg version="1.1" id="Layer_1" xmlns="http://www.w3.org/2000/svg" xmlns:xlink="http://www.w3.org/1999/xlink" x="0px" y="0px"
	 viewBox="0 0 29 36" enable-background="new 0 0 29 36" xml:space="preserve">
<g>
	<path fill-rule="evenodd" clip-rule="evenodd" fill="#4C7425" d="M14.5,0.3c7.8,0,14.2,6.3,14.2,14.2c0.1,8.8-11.4,16-14.2,21.3
		C12.1,30.5,0.3,23.5,0.3,14.5C0.3,6.6,6.7,0.3,14.5,0.3z"/>
	<path fill-rule="evenodd" clip-rule="evenodd" fill="#FFFFFF" d="M11.8,18v-7.2c0-0.1-0.1-0.2-0.2-0.2c-0.1,0-0.2,0.1-0.2,0.2
		l0,7.2c-1.4-0.1-2.6-1.4-2.6-3c0-3.2,1.9-5.9,2.8-7c0.9,1.1,2.8,3.7,2.8,7C14.4,16.6,13.3,17.9,11.8,18L11.8,18z M19.5,18.8v-3.7
		c0-0.1-0.1-0.2-0.2-0.2c-0.1,0-0.2,0.1-0.2,0.2v3.7c-0.9-0.1-1.6-1-1.6-2c0-2.1,1.1-4.7,1.8-6.1c0.7,1.4,1.8,3.9,1.8,6.1
		C21.1,17.8,20.4,18.7,19.5,18.8L19.5,18.8z M19.9,9c-0.1-0.2-0.3-0.3-0.6-0.3c-0.2,0-0.4,0.1-0.6,0.3c-0.1,0.2-2.5,4.5-2.5,7.8
		c0,1.6,1.1,2.9,2.4,3.2l0,2c0,0.4,0.3,0.6,0.6,0.6c0.4,0,0.6-0.3,0.6-0.6v-2c1.4-0.3,2.4-1.6,2.4-3.2C22.4,13.3,20,9.2,19.9,9
		L19.9,9z M12.1,6.5c-0.3-0.2-0.7-0.2-0.9,0C11,6.7,7.5,10.3,7.5,15c0,2.1,1.5,3.9,3.4,4.3V22c0,0.4,0.3,0.6,0.6,0.6
		c0.4,0,0.6-0.3,0.6-0.6v-2.8c1.9-0.3,3.4-2.1,3.4-4.3C15.7,10,12.2,6.7,12.1,6.5z"/>
</g>
</svg>
