<svg xmlns="http://www.w3.org/2000/svg" viewBox="0 0 1280 728">
  <title>genplan-promo-icons</title>
  <g>
    <path d="M625.2,93.5a.8.8,0,0,1-.8-.8V75.6a.8.8,0,0,1,.8-.8h13a.8.8,0,0,1,.6,1.4l-3.9,3.9,3.9,3.9a.8.8,0,0,1-.6,1.4H627.6v7.3a.8.8,0,0,1-.8.8Z" fill="#eb2c3b"/>
    <path d="M638.2,75.6h0m0,0-4.5,4.5,4.5,4.5H626.8v8.1h-1.6V75.6h13m0-1.6h-13a1.6,1.6,0,0,0-1.6,1.6V92.7a1.6,1.6,0,0,0,1.6,1.6h1.6a1.6,1.6,0,0,0,1.6-1.6V86.2h9.8a1.6,1.6,0,0,0,1.1-2.8L636,80.1l3.3-3.3a1.6,1.6,0,0,0-1.1-2.8Zm0,3.3h0Z" fill="#fff"/>
  </g>
  <g>
    <path d="M454,90.8a.8.8,0,0,1-.8-.8V73a.8.8,0,0,1,.8-.8h13.7a.8.8,0,0,1,.6,1.4l-3.9,4.3,3.9,3.6a.8.8,0,0,1-.6,1.4H456.8V90a.8.8,0,0,1-.8.8Z" fill="#eb2c3b"/>
    <path d="M467.7,73h0m0,0-4.5,4.9,4.5,4.1H456v8h-2V73h13.7m0-1.6H454a1.6,1.6,0,0,0-1.6,1.6V90a1.6,1.6,0,0,0,1.6,1.6h2a1.6,1.6,0,0,0,1.6-1.6V83.6h10a1.6,1.6,0,0,0,1.1-2.8l-3.3-3,3.3-3.6a1.6,1.6,0,0,0-1.2-2.8Zm0,3.3h0Z" fill="#fff"/>
  </g>
  <g>
    <path d="M428,138.8a.8.8,0,0,1-.8-.8V121a.8.8,0,0,1,.8-.8h13.7a.8.8,0,0,1,.6,1.4l-3.9,4.3,3.9,3.6a.8.8,0,0,1-.6,1.4H430.8V138a.8.8,0,0,1-.8.8Z" fill="#eb2c3b"/>
    <path d="M441.7,121h0m0,0-4.5,4.9,4.5,4.1H430v8h-2V121h13.7m0-1.6H428a1.6,1.6,0,0,0-1.6,1.6v17a1.6,1.6,0,0,0,1.6,1.6h2a1.6,1.6,0,0,0,1.6-1.6v-6.4h10a1.6,1.6,0,0,0,1.1-2.8l-3.3-3,3.3-3.6a1.6,1.6,0,0,0-1.2-2.8Zm0,3.3h0Z" fill="#fff"/>
  </g>
  <g>
    <path d="M398,229.8a.8.8,0,0,1-.8-.8V212a.8.8,0,0,1,.8-.8h13.7a.8.8,0,0,1,.6,1.4l-3.9,4.3,3.9,3.6a.8.8,0,0,1-.6,1.4H400.8V229a.8.8,0,0,1-.8.8Z" fill="#eb2c3b"/>
    <path d="M411.7,212h0m0,0-4.5,4.9,4.5,4.1H400v8h-2V212h13.7m0-1.6H398a1.6,1.6,0,0,0-1.6,1.6v17a1.6,1.6,0,0,0,1.6,1.6h2a1.6,1.6,0,0,0,1.6-1.6v-6.4h10a1.6,1.6,0,0,0,1.1-2.8l-3.3-3,3.3-3.6a1.6,1.6,0,0,0-1.2-2.8Zm0,3.3h0Z" fill="#fff"/>
  </g>
</svg>
