<svg xmlns="http://www.w3.org/2000/svg" viewBox="0 0 1280 728">
  <title>genplan-promo-icons-01</title>
  <g>
    <path d="M467.2,96.7a12,12,0,0,0-24-.3h0c0,.1,0,.1,0,.2h0c0,.1,0,.2,0,.4.1,7.8,8.9,16,12,18.9,8.5-6.9,11-13.3,11.7-16.7V99l.2-1h0A7.7,7.7,0,0,0,467.2,96.7Z" fill="#b7d9f9"/>
    <g>
      <path d="M454.8,101.7v.6c0,1.6-.7,2.5-2.2,2.5s-2.2-.8-2.2-2.4h1.2c0,.9.4,1.3,1,1.3s1-.4,1-1.4v-.5c0-.9-.4-1.2-1.2-1.2h-.8v-.8l1.5-2.4h-2.5V96.2h3.9V97L453,99.5A1.9,1.9,0,0,1,454.8,101.7Z"/>
      <path d="M455.8,104a.7.7,0,1,1,.7.7A.7.7,0,0,1,455.8,104Z"/>
      <path d="M459.3,96.2v8.4h-1.2V97.8l-1.3.9V97.3l1.6-1.1Z"/>
    </g>
  </g>
</svg>
