<svg id="4.4_3" viewBox="0 0 2198.4 2154.5">
  <polygon fill="#e1efe3" data-id-flat="1967" class="hovered_flat_at_plan flat_plan_2" points="1801.5 1749.9 1801.5 1555.1 1490.3 1555.1 1362 1555.1 1362 1054.9 994.8 1054.9 994.8 1016.7 894.4 1016.7 894.4 1054.9 859.2 1054.9 859.2 1235.7 859.2 1554.7 414.9 1554.7 414.9 1749.9 369.9 1749.9 147.6 1749.9 76.8 1749.9 76.8 2141.8 369.9 2141.8 369.9 2066.7 414.9 2066.7 414.9 2079.8 1072.3 2079.8 1838.6 2079.8 1838.6 2137.1 2131.9 2137.1 2131.9 1749.9 1801.5 1749.9"/>
  <polygon fill="#dddaee" data-id-flat="1968" class="hovered_flat_at_plan flat_plan_2" points="2186 28.9 1844.4 28.9 1844.4 140 1389.1 140 1389.1 575 1389.1 769.8 1389.1 851.1 1351 851.1 1351 951.5 1389.1 951.5 1389.1 1206.1 1389.1 1521.2 1559.4 1521.2 1832 1521.2 1832 1716 2030.3 1716 2030.8 1716 2030.8 1521.2 2075.2 1521.2 2075.2 469.9 2186 469.9 2186 28.9"/>
  <polygon fill="#dff2fd" data-id-flat="1966" class="hovered_flat_at_plan flat_plan_2" points="825.4 851.6 825.4 769.6 825.4 575 825.4 152.4 371.7 152.4 371.7 12.5 12.5 12.5 12.5 469.9 153.2 469.9 153.2 1521.2 185 1521.2 185 1716 185.7 1716 381.1 1716 381.1 1521.2 643.3 1521.2 655.1 1521.2 825.2 1521.2 825.4 1521.2 825.4 951.5 863.1 951.5 863.1 851.6 825.4 851.6"/>
  <rect width="487.9" height="979.6" x="863.1" y="37.1" fill="#f6f6f6"/>
  <g fill="none" stroke="#000" stroke-width=".3" stroke-miterlimit="10">
    <rect width="5.2" height="87" x="619.9" y="1205.9"/>
    <rect width="4.1" height="11.9" x="625.1" y="1194"/>
    <path d="M625 1293c-59 0-95.6-43.6-95.6-87"/>
  </g>
  <g fill="none" stroke="#000" stroke-width=".3" stroke-miterlimit="10">
    <rect width="87" height="5.2" x="514.9" y="861.1"/>
    <rect width="11.9" height="4.1" x="503" y="856.9"/>
    <path d="M602 861c0 59.2-43.6 95.8-87 95.8"/>
  </g>
  <g fill="none" stroke="#000" stroke-width=".3" stroke-miterlimit="10">
    <rect width="87.5" height="5.2" x="1611.6" y="861.2"/>
    <rect width="11.9" height="4.1" x="1699.1" y="857.1"/>
    <path d="M1611.6 861.2c0 59.4 43.7 96.2 87.5 96.2"/>
  </g>
  <g fill="none" stroke="#000" stroke-width=".3" stroke-miterlimit="10">
    <rect width="5.2" height="78" x="1506.8" y="782.1"/>
    <rect width="4.1" height="11.9" x="1512" y="770.2"/>
    <path d="M1512 860.2c-53 0-85.8-39-85.8-78"/>
  </g>
  <g fill="none" stroke="#000" stroke-width=".3" stroke-miterlimit="10">
    <rect width="86.9" height="5.2" x="1264" y="942.2"/>
    <rect width="11.9" height="4.1" x="1350.9" y="947.4"/>
    <path d="M1264 947.4c0-59 43.5-95.6 87-95.6"/>
  </g>
  <g fill="none" stroke="#000" stroke-width=".3" stroke-miterlimit="10">
    <rect width="86.9" height="5.2" x="863" y="855.7"/>
    <rect width="11.9" height="4.1" x="851.1" y="851.6"/>
    <path d="M950 855.7c0 59-43.6 95.6-87 95.6"/>
  </g>
  <g fill="none" stroke="#000" stroke-width=".3" stroke-miterlimit="10">
    <rect width="81.4" height="5.2" x="1073.5" y="1133.9"/>
    <rect width="11.9" height="4.1" x="1154.8" y="1129.8"/>
    <path d="M1073.5 1134c0 55.3 40.7 89.5 81.4 89.5"/>
  </g>
  <g fill="none" stroke="#000" stroke-width=".3" stroke-miterlimit="10">
    <rect width="5" height="77.9" x="1540.1" y="1205.7"/>
    <rect width="4.1" height="11.9" x="1545.1" y="1193.8"/>
    <path d="M1545 1283.6c-53 0-85.6-39-85.6-78"/>
  </g>
  <g fill="none" stroke="#000" stroke-width=".3" stroke-miterlimit="10">
    <rect width="5" height="87.9" x="1589.3" y="1205.7"/>
    <rect width="4.1" height="11.9" x="1585.2" y="1193.8"/>
    <path d="M1589.3 1293.6c59.7 0 96.7-44 96.7-88"/>
  </g>
  <g fill="none" stroke="#000" stroke-width=".3" stroke-miterlimit="10">
    <rect width="5.2" height="77.5" x="1318.8" y="1465.7"/>
    <rect width="4.1" height="11.9" x="1324" y="1543.2"/>
    <path d="M1324 1465.4c-52.8 0-85.5 39-85.5 77.8"/>
  </g>
  <g fill="none" stroke="#000" stroke-width=".3" stroke-miterlimit="10">
    <rect width="77.5" height="5.2" x="1362" y="1584.3"/>
    <rect width="11.9" height="4.1" x="1350.1" y="1580.2"/>
    <path d="M1439.8 1584.3c0 52.8-39 85.5-77.8 85.5"/>
  </g>
  <g fill="none" stroke="#000" stroke-width=".3" stroke-miterlimit="10">
    <rect width="86.8" height="5.2" x="174.4" y="1874.8"/>
    <rect width="11.9" height="4.1" x="162.5" y="1870.6"/>
    <path d="M261.2 1874.8c0 59-43.4 95.4-86.8 95.4"/>
  </g>
  <g fill="none" stroke="#000" stroke-width=".3" stroke-miterlimit="10">
    <rect width="86.8" height="5.2" x="1954.1" y="1874.8"/>
    <rect width="11.9" height="4.1" x="2040.9" y="1870.6"/>
    <path d="M1954 1874.8c0 59 43.5 95.4 87 95.4"/>
  </g>
  <g fill="none" stroke="#000" stroke-width=".3" stroke-miterlimit="10">
    <rect width="86.8" height="5.2" x="174.4" y="250.5"/>
    <rect width="11.9" height="4.1" x="162.5" y="246.4"/>
    <path d="M261.2 250.5c0 59-43.4 95.4-86.8 95.4"/>
  </g>
  <g fill="none" stroke="#000" stroke-width=".3" stroke-miterlimit="10">
    <rect width="86.8" height="5.2" x="1954.1" y="250.5"/>
    <rect width="11.9" height="4.1" x="2040.9" y="246.4"/>
    <path d="M1954 250.5c0 59 43.5 95.4 87 95.4"/>
  </g>
  <g fill="none" stroke="#000" stroke-width=".3" stroke-miterlimit="10">
    <rect width="5.2" height="77.5" x="1318.8" y="1706.7"/>
    <rect width="4.1" height="11.9" x="1324" y="1694.8"/>
    <path d="M1324 1784.5c-52.8 0-85.5-39-85.5-77.8"/>
  </g>
  <g fill="none" stroke="#000" stroke-width=".3" stroke-miterlimit="10">
    <rect width="5.2" height="86.9" x="898.5" y="956"/>
    <rect width="4.1" height="11.9" x="894.4" y="1043"/>
    <path d="M898.5 956c59 0 95.6 43.6 95.6 87"/>
  </g>
  <g fill="none" stroke="#000" stroke-width=".3" stroke-miterlimit="10">
    <rect width="5.2" height="77.7" x="669.4" y="1205.9"/>
    <rect width="4.1" height="11.9" x="665.3" y="1194"/>
    <path d="M669.4 1283.7c52.8 0 85.5-39 85.5-77.7"/>
  </g>
  <g fill="none" stroke="#000" stroke-width=".3" stroke-miterlimit="10">
    <rect width="5.2" height="77.7" x="702.5" y="781.7"/>
    <rect width="4.1" height="11.9" x="698.4" y="769.8"/>
    <path d="M702.5 859.5c52.8 0 85.5-39 85.5-77.7"/>
  </g>
  <g fill="none" stroke="#000" stroke-width=".3" stroke-miterlimit="10">
    <rect width="5" height="85.6" x="1195.1" y="702.5"/>
    <rect width="4" height="11.4" x="1200.1" y="788.2"/>
    <path d="M1200 702.5a91.7 91.7 0 0 0-91.6 91.8"/>
  </g>
  <g fill="none" stroke="#000" stroke-width=".3" stroke-miterlimit="10">
    <rect width="5" height="85.6" x="1016.6" y="702.5"/>
    <rect width="4" height="11.4" x="1012.6" y="788.2"/>
    <path d="M1016.6 702.5a91.8 91.8 0 0 1 91.8 91.8"/>
  </g>
  <rect width="396" height="44.9" x="140.1" y="140" fill="#003d58"/>
  <rect width="169" height="44.9" x="656.4" y="140" fill="#003d58"/>
  <rect width="37.7" height="830" x="825.4" y="21.6" fill="#003d58"/>
  <rect width="137.2" height="40.2" x="688.1" y="562.7" fill="#003d58"/>
  <rect width="11.9" height="219" x="676.3" y="562.7" fill="#003d58"/>
  <rect width="10.2" height="11.9" x="688.1" y="769.8" fill="#003d58"/>
  <rect width="37.3" height="12.1" x="788.1" y="769.6" fill="#003d58"/>
  <rect width="44.9" height="133" x="140.1" y="469.9" fill="#003d58"/>
  <rect width="5.1" height="59.7" x="185" y="469.9" fill="#003d58"/>
  <rect width="44.9" height="142.3" x="140.1" y="722.8" fill="#003d58"/>
  <rect width="330.4" height="11.9" x="185" y="769.8" fill="#003d58"/>
  <rect width="12.3" height="75.4" x="503" y="781.7" fill="#003d58"/>
  <rect width="44.9" height="211.8" x="140.1" y="1065.4" fill="#003d58"/>
  <rect width="5.1" height="40.2" x="185" y="1099.7" fill="#003d58"/>
  <rect width="344.3" height="12.3" x="185" y="1193.8" fill="#003d58"/>
  <rect width="12.3" height="237.2" x="503" y="957" fill="#003d58"/>
  <rect width="44.9" height="272.8" x="140.1" y="1477.1" fill="#003d58"/>
  <rect width="230" height="33.9" x="185" y="1716" fill="#003d58"/>
  <rect width="33.9" height="194.8" x="381.1" y="1521.2" fill="#003d58"/>
  <rect width="410.4" height="33.9" x="414.9" y="1521.2" fill="#003d58"/>
  <rect width="33.9" height="500.2" x="825.4" y="1054.9" fill="#003d58"/>
  <rect width="11" height="59.7" x="848.2" y="1555.1" fill="#003d58"/>
  <rect width="11.9" height="315.1" x="643.2" y="1206.1" fill="#003d58"/>
  <rect width="36" height="12.3" x="629.3" y="1193.8" fill="#003d58"/>
  <rect width="70.3" height="12.3" x="755.1" y="1193.8" fill="#003d58"/>
  <rect width="37.7" height="103.3" x="825.4" y="951.5" fill="#003d58"/>
  <rect width="31.3" height="38.1" x="863.1" y="1016.7" fill="#003d58"/>
  <rect width="356.2" height="38.1" x="994.8" y="1016.7" fill="#003d58"/>
  <rect width="38.1" height="103.3" x="1351" y="951.5" fill="#003d58"/>
  <rect width="38.1" height="830" x="1351" y="21.6" fill="#003d58"/>
  <rect width="129.2" height="44.9" x="1389.1" y="140" fill="#003d58"/>
  <rect width="357" height="44.9" x="1718.2" y="140" fill="#003d58"/>
  <rect width="44.9" height="120.7" x="2030.3" y="469.9" fill="#003d58"/>
  <rect width="5.1" height="59.7" x="2025.3" y="469.9" fill="#003d58"/>
  <rect width="44.9" height="189.3" x="2030.3" y="710.5" fill="#003d58"/>
  <rect width="331.2" height="11.9" x="1699.1" y="769.8" fill="#003d58"/>
  <rect width="11.9" height="75.4" x="1699.1" y="781.7" fill="#003d58"/>
  <rect width="44.9" height="178.9" x="2030.3" y="1035.9" fill="#003d58"/>
  <rect width="5.1" height="40.2" x="2025.3" y="1099.7" fill="#003d58"/>
  <rect width="345.2" height="12.3" x="1685.2" y="1193.8" fill="#003d58"/>
  <rect width="32.8" height="500.2" x="1356.3" y="1054.9" fill="#003d58"/>
  <rect width="443.9" height="33.9" x="1389.1" y="1521.2" fill="#003d58"/>
  <rect width="31.8" height="194.8" x="1801.2" y="1555.1" fill="#003d58"/>
  <rect width="197.4" height="33.9" x="1833" y="1716" fill="#003d58"/>
  <rect width="44.9" height="335.2" x="2030.3" y="1414.7" fill="#003d58"/>
  <rect width="363.8" height="44.9" x="140.1" y="2034.9" fill="#003d58"/>
  <rect width="110.2" height="44.9" x="1005.7" y="2034.9" fill="#003d58"/>
  <rect width="145.2" height="44.9" x="703.5" y="2034.9" fill="#003d58"/>
  <rect width="11.9" height="340.1" x="1072.3" y="1694.8" fill="#003d58"/>
  <rect width="154.2" height="11.9" x="1084.1" y="1694.8" fill="#003d58"/>
  <rect width="233.6" height="44.9" x="1315.8" y="2034.9" fill="#003d58"/>
  <rect width="40.2" height="5.1" x="1350.1" y="2029.9" fill="#003d58"/>
  <rect width="12.3" height="340.1" x="1478" y="1694.8" fill="#003d58"/>
  <rect width="149.9" height="11.9" x="1328.1" y="1694.8" fill="#003d58"/>
  <rect width="11.9" height="25" x="1350.1" y="1669.8" fill="#003d58"/>
  <rect width="28.2" height="12.3" x="1328.1" y="1542.8" fill="#003d58"/>
  <rect width="11.9" height="24.6" x="1350.1" y="1555.1" fill="#003d58"/>
  <rect width="143.2" height="12.3" x="1095.2" y="1542.8" fill="#003d58"/>
  <rect width="11.9" height="307.1" x="1155.3" y="1235.7" fill="#003d58"/>
  <rect width="11.9" height="75" x="1155.3" y="1054.9" fill="#003d58"/>
  <rect width="261.1" height="12.3" x="1095.2" y="1223.4" fill="#003d58"/>
  <rect width="69.9" height="12.3" x="1389.1" y="1193.8" fill="#003d58"/>
  <rect width="36" height="12.3" x="1549.2" y="1193.8" fill="#003d58"/>
  <rect width="11.9" height="314.7" x="1559.4" y="1206.1" fill="#003d58"/>
  <rect width="11.4" height="236.8" x="1699.6" y="957" fill="#003d58"/>
  <rect width="37.3" height="11.9" x="1389.1" y="769.8" fill="#003d58"/>
  <rect width="22" height="11.9" x="1516.2" y="769.8" fill="#003d58"/>
  <rect width="11.9" height="207.1" x="1526.3" y="562.7" fill="#003d58"/>
  <rect width="137.2" height="40.2" x="1389.1" y="562.7" fill="#003d58"/>
  <rect width="414.6" height="44.9" x="1660.6" y="2034.9" fill="#003d58"/>
  <g fill="#fff" stroke="#000" stroke-width=".3" stroke-miterlimit="10">
    <rect width="31.8" height="199.9" x="153.2" y="1277.2"/>
    <rect width="8.1" height="199.9" x="140.1" y="1277.2"/>
    <rect width="5.1" height="199.9" x="148.1" y="1277.2"/>
    <rect width="2.5" height="199.9" x="159.4" y="1277.2"/>
  </g>
  <g fill="#fff" stroke="#000" stroke-width=".3" stroke-miterlimit="10">
    <rect width="199.9" height="31.8" x="503.9" y="2034.9"/>
    <rect width="199.9" height="8.1" x="503.9" y="2071.8"/>
    <rect width="199.9" height="5.1" x="503.9" y="2066.7"/>
    <rect width="199.9" height="2.5" x="503.9" y="2057.9"/>
  </g>
  <g fill="#fff" stroke="#000" stroke-width=".3" stroke-miterlimit="10">
    <rect width="199.9" height="31.8" x="1115.9" y="2034.9"/>
    <rect width="199.9" height="8.1" x="1115.9" y="2071.8"/>
    <rect width="199.9" height="5.1" x="1115.9" y="2066.7"/>
    <rect width="199.9" height="2.5" x="1115.9" y="2057.9"/>
  </g>
  <g fill="#fff" stroke="#000" stroke-width=".3" stroke-miterlimit="10">
    <rect width="111.2" height="31.8" x="1549.4" y="2034.9"/>
    <rect width="111.2" height="8.1" x="1549.4" y="2071.8"/>
    <rect width="111.2" height="5.1" x="1549.4" y="2066.7"/>
    <rect width="111.2" height="2.5" x="1549.4" y="2057.9"/>
  </g>
  <g fill="#fff" stroke="#000" stroke-width=".3" stroke-miterlimit="10">
    <rect width="157" height="31.8" x="848.7" y="2034.9"/>
    <rect width="157" height="8.1" x="848.7" y="2071.8"/>
    <rect width="157" height="5.1" x="848.7" y="2066.7"/>
    <rect width="157" height="2.5" x="848.7" y="2057.9"/>
  </g>
  <g fill="#fff" stroke="#000" stroke-width=".3" stroke-miterlimit="10">
    <rect width="31.8" height="200.3" x="153.2" y="865.1"/>
    <rect width="8.1" height="200.3" x="140.1" y="865.1"/>
    <rect width="5.1" height="200.3" x="148.1" y="865.1"/>
    <rect width="2.5" height="200.3" x="159.4" y="865.1"/>
  </g>
  <g fill="#fff" stroke="#000" stroke-width=".3" stroke-miterlimit="10">
    <rect width="31.8" height="119.9" x="153.2" y="602.9"/>
    <rect width="8.1" height="119.9" x="140.1" y="602.9"/>
    <rect width="5.1" height="119.9" x="148.1" y="602.9"/>
    <rect width="2.5" height="119.9" x="159.4" y="602.9"/>
  </g>
  <g fill="#fff" stroke="#000" stroke-width=".3" stroke-miterlimit="10">
    <rect width="120.3" height="31.8" x="536.1" y="153.1"/>
    <rect width="120.3" height="8.1" x="536.1" y="140"/>
    <rect width="120.3" height="5.1" x="536.1" y="148"/>
    <rect width="120.3" height="2.5" x="536.1" y="159.4"/>
  </g>
  <g fill="#fff" stroke="#000" stroke-width=".3" stroke-miterlimit="10">
    <rect width="31.8" height="136.1" x="2030.3" y="899.8"/>
    <rect width="8.1" height="136.1" x="2067.2" y="899.8"/>
    <rect width="5.1" height="136.1" x="2062.1" y="899.8"/>
    <rect width="2.5" height="136.1" x="2053.4" y="899.8"/>
  </g>
  <g fill="#fff" stroke="#000" stroke-width=".3" stroke-miterlimit="10">
    <rect width="31.8" height="119.9" x="2030.3" y="590.6"/>
    <rect width="8.1" height="119.9" x="2067.2" y="590.6"/>
    <rect width="5.1" height="119.9" x="2062.1" y="590.6"/>
    <rect width="2.5" height="119.9" x="2053.4" y="590.6"/>
  </g>
  <g fill="#fff" stroke="#000" stroke-width=".3" stroke-miterlimit="10">
    <rect width="31.8" height="199.9" x="2030.3" y="1214.8"/>
    <rect width="8.1" height="199.9" x="2067.2" y="1214.8"/>
    <rect width="5.1" height="199.9" x="2062.1" y="1214.8"/>
    <rect width="2.5" height="199.9" x="2053.4" y="1214.8"/>
  </g>
  <g fill="#fff" stroke="#000" stroke-width=".3" stroke-miterlimit="10">
    <rect width="199.9" height="31.8" x="1518.3" y="153.1"/>
    <rect width="199.9" height="8.1" x="1518.3" y="140"/>
    <rect width="199.9" height="5.1" x="1518.3" y="148"/>
    <rect width="199.9" height="2.5" x="1518.3" y="159.4"/>
  </g>
  <rect width="214.7" height="30.1" x="1000.7" y="986.7" fill="#003d58"/>
  <g fill="none" stroke="#000" stroke-width=".3" stroke-miterlimit="10">
    <rect width="5" height="95.3" x="1220.9" y="58.5"/>
    <rect width="4" height="11.5" x="1225.9" y="153.8"/>
    <path d="M1130.5 153.8a95.3 95.3 0 0 1 95.4-95.3"/>
  </g>
  <g fill="#fff" stroke="#000" stroke-width=".3" stroke-miterlimit="10">
    <rect width="153.9" height="16.1" x="976.7" y="149.3"/>
    <rect width="153.9" height="4.8" x="976.7" y="156.6"/>
  </g>
  <g fill="none" stroke="#000" stroke-width=".3" stroke-miterlimit="10">
    <rect width="119.8" height="30.3" x="863.7" y="276.5"/>
    <rect width="119.8" height="30.3" x="863.7" y="306.8"/>
    <rect width="119.8" height="30.3" x="863.7" y="337.1"/>
    <rect width="119.8" height="30.3" x="863.7" y="367.4"/>
    <rect width="119.8" height="30.3" x="863.7" y="397.7"/>
    <rect width="119.8" height="30.3" x="863.7" y="428"/>
    <rect width="119.8" height="30.3" x="863.7" y="458.2"/>
    <rect width="119.8" height="30.3" x="863.7" y="488.5"/>
    <rect width="119.8" height="30.3" x="863.7" y="518.8"/>
    <rect width="119.8" height="30.3" x="863.7" y="549.1"/>
    <rect width="119.8" height="30.3" x="863.7" y="579.4"/>
  </g>
  <g fill="none" stroke="#000" stroke-width=".3" stroke-miterlimit="10">
    <rect width="119.8" height="30.3" x="1229.4" y="276.3"/>
    <rect width="119.8" height="30.3" x="1229.4" y="306.6"/>
    <rect width="119.8" height="30.3" x="1229.4" y="336.9"/>
    <rect width="119.8" height="30.3" x="1229.4" y="367.2"/>
    <rect width="119.8" height="30.3" x="1229.4" y="397.4"/>
    <rect width="119.8" height="30.3" x="1229.4" y="427.7"/>
    <rect width="119.8" height="30.3" x="1229.4" y="458"/>
    <rect width="119.8" height="30.3" x="1229.4" y="488.3"/>
    <rect width="119.8" height="30.3" x="1229.4" y="518.6"/>
    <rect width="119.8" height="30.3" x="1229.4" y="548.9"/>
    <rect width="119.8" height="30.3" x="1229.4" y="579.2"/>
  </g>
  <rect width="179.4" height="269.1" x="1018.5" y="301.4" fill="none" stroke="#000" stroke-width=".3" stroke-miterlimit="10"/>
  <rect width="165.4" height="255" x="1025.4" y="308.4" fill="none" stroke="#000" stroke-width=".3" stroke-miterlimit="10"/>
  <rect width="69.3" height="15.2" x="863.1" y="21.9" fill="#003d58"/>
  <rect width="68.1" height="15.2" x="1282.8" y="21.9" fill="#003d58"/>
  <rect width="113.6" height="43.9" x="863.1" y="141.2" fill="#003d58"/>
  <rect width="120.6" height="43.9" x="1230.4" y="141.2" fill="#003d58"/>
  <rect width="76.8" height="24.6" x="993.6" y="570.5" fill="#003d58"/>
  <rect width="24.9" height="294" x="993.6" y="276.5" fill="#003d58"/>
  <rect width="204.3" height="24.9" x="1018.5" y="276.5" fill="#003d58"/>
  <rect width="24.9" height="293.7" x="1197.8" y="301.4" fill="#003d58"/>
  <rect width="30.8" height="24.6" x="1167" y="570.5" fill="#003d58"/>
  <rect width="148.9" height="11.4" x="863.7" y="788.2" fill="#003d58"/>
  <rect width="147.6" height="11.4" x="1204" y="788.2" fill="#003d58"/>
  <rect width="350.4" height="6.8" x="932.4" y="30.4" fill="#9e9d9c"/>
  <g fill="#fff" stroke="#000" stroke-width=".3" stroke-miterlimit="10">
    <rect width="300" height="12.5" x="82.5" y="70"/>
    <rect width="288.1" height="3.2" x="82.5" y="74"/>
  </g>
  <g fill="#fff" stroke="#000" stroke-width=".3" stroke-miterlimit="10">
    <rect width="12.5" height="179" x="70" y="70"/>
    <rect width="3.2" height="179" x="74" y="70"/>
  </g>
  <g fill="#fff" stroke="#000" stroke-width=".3" stroke-miterlimit="10">
    <rect width="12.5" height="133.4" x="70" y="349"/>
    <rect width="3.2" height="133.4" x="75.3" y="349"/>
  </g>
  <g fill="#fff" stroke="#000" stroke-width=".3" stroke-miterlimit="10">
    <rect width="12.5" height="57.5" x="370" y="82.5"/>
    <rect width="3.2" height="65.9" x="375.3" y="74"/>
  </g>
  <g fill="#fff" stroke="#000" stroke-width=".3" stroke-miterlimit="10">
    <rect width="57.5" height="12.5" x="82.5" y="469.9"/>
    <rect width="57.5" height="3.2" x="82.5" y="473.9"/>
  </g>
  <rect width="12.5" height="57.5" x="370" y="12.5" fill="#9d9d9c"/>
  <rect width="12.5" height="469.9" y="12.5" fill="#9d9d9c"/>
  <rect width="57.5" height="12.5" x="12.5" y="469.9" fill="#9d9d9c"/>
  <rect width="382.5" height="12.5" fill="#9d9d9c"/>
  <g fill="#fff" stroke="#000" stroke-width=".3" stroke-miterlimit="10">
    <rect width="12.3" height="453.3" x="2186" y="16.6"/>
    <rect width="3.7" height="453.3" x="2191.5" y="16.6"/>
  </g>
  <g fill="#fff" stroke="#000" stroke-width=".3" stroke-miterlimit="10">
    <rect width="340.7" height="12.3" x="1845.3" y="16.6"/>
    <rect width="340.7" height="3.7" x="1845.3" y="19.7"/>
  </g>
  <g fill="#fff" stroke="#000" stroke-width=".3" stroke-miterlimit="10">
    <rect width="12.3" height="123.4" x="1833" y="16.6"/>
    <rect width="3.7" height="123.4" x="1836.1" y="16.6"/>
  </g>
  <g fill="#fff" stroke="#000" stroke-width=".3" stroke-miterlimit="10">
    <rect width="123" height="12.3" x="2075.2" y="469.9"/>
    <rect width="123" height="3.7" x="2075.2" y="475.5"/>
  </g>
  <g fill="#fff" stroke="#000" stroke-width=".3" stroke-miterlimit="10">
    <rect width="12.6" height="391.9" x="64.2" y="1749.9"/>
    <rect width="3.8" height="391.9" x="67.3" y="1749.9"/>
  </g>
  <g fill="#fff" stroke="#000" stroke-width=".3" stroke-miterlimit="10">
    <rect width="306.7" height="12.6" x="64.2" y="2141.8"/>
    <rect width="306.7" height="3.8" x="64.2" y="2147.5"/>
  </g>
  <g fill="#fff" stroke="#000" stroke-width=".3" stroke-miterlimit="10">
    <rect width="12.6" height="74.6" x="370.9" y="2079.7"/>
    <rect width="3.8" height="74.6" x="376.6" y="2079.7"/>
  </g>
  <g fill="#fff" stroke="#000" stroke-width=".3" stroke-miterlimit="10">
    <rect width="75.8" height="12.6" x="64.2" y="1737.3"/>
    <rect width="75.8" height="3.8" x="64.2" y="1740.4"/>
  </g>
  <g fill="#fff" stroke="#000" stroke-width=".3" stroke-miterlimit="10">
    <rect width="300" height="12.5" x="1831.9" y="2137.1"/>
    <rect width="288.1" height="3.2" x="1843.8" y="2142.4"/>
  </g>
  <g fill="#fff" stroke="#000" stroke-width=".3" stroke-miterlimit="10">
    <rect width="12.5" height="412.4" x="2131.9" y="1737.2"/>
    <rect width="3.2" height="412.4" x="2137.2" y="1737.2"/>
  </g>
  <g fill="#fff" stroke="#000" stroke-width=".3" stroke-miterlimit="10">
    <rect width="12.5" height="57.5" x="1831.9" y="2079.7"/>
    <rect width="3.2" height="65.9" x="1835.9" y="2079.7"/>
  </g>
  <g fill="#fff" stroke="#000" stroke-width=".3" stroke-miterlimit="10">
    <rect width="57.5" height="12.5" x="2074.4" y="1737.2"/>
    <rect width="57.5" height="3.2" x="2074.4" y="1742.5"/>
  </g>
  <rect width="44.9" height="120.8" x="2030.3" y="1749.9" fill="#003d58"/>
  <rect width="44.9" height="64.3" x="2030.3" y="1970.6" fill="#003d58"/>
  <rect width="44.9" height="120.8" x="140.1" y="1749.9" fill="#003d58"/>
  <rect width="44.9" height="64.3" x="140.1" y="1970.6" fill="#003d58"/>
  <rect width="44.9" height="61.5" x="2030.3" y="184.9" fill="#003d58"/>
  <rect width="44.9" height="123.6" x="2030.3" y="346.4" fill="#003d58"/>
  <rect width="44.9" height="61.5" x="140.1" y="184.9" fill="#003d58"/>
  <rect width="44.9" height="123.6" x="140.1" y="346.4" fill="#003d58"/>
</svg>
