<svg id="3.2_3" viewBox="0 0 2192.1 2197.1">
  <rect width="482.2" height="968.8" x="854.5" y="37.7" fill="#f6f6f6"/>
  <polygon fill="#dff2fd" data-id-flat="1876" class="hovered_flat_at_plan flat_plan_3" points="1080.8 1486.9 1080.8 1246.7 1080.8 1246.7 1080.8 1044.1 1010.7 1044.1 1010.7 1006.6 900.2 1006.6 900.2 1044.1 816.8 1044.1 816.8 152.9 374.9 152.9 374.9 12.6 12.6 12.6 12.6 473.6 152.6 473.6 152.6 1044.1 184.4 1044.1 184.4 1342.5 665.8 1342.5 665.8 1353.8 184.4 1353.8 184.4 1627.2 184.4 1719.3 400.8 1719.3 400.8 1627.2 412.9 1627.2 412.9 1731 367.3 1731 12.7 1731 12.7 2184.4 367.3 2184.4 367.3 2012.7 841.1 2012.7 1080.8 2012.7 1080.8 1777.5 841.1 1777.5 841.1 1765.8 1065.1 1765.8 1065.1 1498.7 841.1 1498.7 841.1 1486.9 1080.8 1486.9"/>
  <polygon fill="#e1efe3" data-id-flat="1877" class="hovered_flat_at_plan flat_plan_3" points="2009.6 1342.5 2009.6 1044.1 2041.4 1044.1 2041.4 466 2181.2 466 2181.2 12.7 1824.8 12.7 1824.8 152.9 1374.4 152.9 1374.4 1044.1 1293.2 1044.1 1293.2 1006.6 1183.3 1006.6 1183.3 1044.1 1113.2 1044.1 1113.2 1246.7 1113.2 1246.7 1113.2 1486.9 1352.9 1486.9 1352.9 1498.7 1128.9 1498.7 1128.9 1765.8 1352.9 1765.8 1352.9 1777.5 1113.2 1777.5 1113.2 2012.7 1352.9 2012.7 1818.1 2012.7 1818.1 2119.1 2114.4 2119.1 2114.4 1723.4 1818.1 1723.4 1818.1 1731 1781.1 1731 1781.1 1627.2 1793.2 1627.2 1793.2 1719.3 2009.6 1719.3 2009.6 1627.2 2009.6 1353.8 1528.2 1353.8 1528.2 1342.5 2009.6 1342.5"/>
  <g fill="none" stroke="#000" stroke-width=".3" stroke-miterlimit="10">
    <rect width="5" height="95.1" x="679.5" y="510.3"/>
    <rect width="3.9" height="11.4" x="684.4" y="498.9"/>
    <path d="M589.3 510.3a95 95 0 0 0 95 95"/>
  </g>
  <g fill="none" stroke="#000" stroke-width=".3" stroke-miterlimit="10">
    <rect width="95.1" height="5" x="559.2" y="1273.7"/>
    <rect width="11.4" height="3.9" x="654.4" y="1278.7"/>
    <path d="M654.4 1183.5a95 95 0 0 0-95 95"/>
  </g>
  <g fill="none" stroke="#000" stroke-width=".3" stroke-miterlimit="10">
    <rect width="5" height="85.8" x="908.7" y="1161.3"/>
    <rect width="3.9" height="11.4" x="904.8" y="1247"/>
    <path d="M994.5 1247a85.8 85.8 0 0 0-85.8-85.8"/>
  </g>
  <g fill="none" stroke="#000" stroke-width=".3" stroke-miterlimit="10">
    <rect width="5" height="94.3" x="904.1" y="912.3"/>
    <rect width="3.9" height="11.4" x="900.2" y="1006.6"/>
    <path d="M998.5 1006.6a94.3 94.3 0 0 0-94.3-94.3"/>
  </g>
  <g fill="none" stroke="#000" stroke-width=".3" stroke-miterlimit="10">
    <rect width="5" height="95.1" x="779.5" y="1638.6"/>
    <rect width="3.9" height="11.4" x="784.5" y="1627.2"/>
    <path d="M689.4 1638.5a95 95 0 0 0 95 95"/>
  </g>
  <g fill="none" stroke="#000" stroke-width=".3" stroke-miterlimit="10">
    <rect width="95.1" height="5" x="559.2" y="1416.9"/>
    <rect width="11.4" height="3.9" x="654.4" y="1412.9"/>
    <path d="M654.4 1512a95 95 0 0 1-95-95"/>
  </g>
  <g fill="none" stroke="#000" stroke-width=".3" stroke-miterlimit="10">
    <rect width="85.6" height="5" x="828.4" y="1618.3"/>
    <rect width="11.4" height="3.9" x="817" y="1623.2"/>
    <path d="M828.4 1537.6a85.6 85.6 0 0 1 85.6 85.6"/>
  </g>
  <g fill="none" stroke="#000" stroke-width=".3" stroke-miterlimit="10">
    <rect width="5" height="95.1" x="1496.8" y="510.3"/>
    <rect width="3.9" height="11.4" x="1492.9" y="498.9"/>
    <path d="M1592 510.3a95 95 0 0 1-95 95"/>
  </g>
  <g fill="none" stroke="#000" stroke-width=".3" stroke-miterlimit="10">
    <rect width="95.1" height="5" x="1539.6" y="1273.7"/>
    <rect width="11.4" height="3.9" x="1528.2" y="1278.7"/>
    <path d="M1539.7 1183.5a95 95 0 0 1 95 95"/>
  </g>
  <g fill="none" stroke="#000" stroke-width=".3" stroke-miterlimit="10">
    <rect width="5" height="85.8" x="1280.3" y="1161.3"/>
    <rect width="3.9" height="11.4" x="1285.3" y="1247"/>
    <path d="M1199.6 1247a85.8 85.8 0 0 1 85.8-85.8"/>
  </g>
  <g fill="none" stroke="#000" stroke-width=".3" stroke-miterlimit="10">
    <rect width="5" height="94.3" x="1284.3" y="912.3"/>
    <rect width="3.9" height="11.4" x="1289.3" y="1006.6"/>
    <path d="M1195 1006.6a94.3 94.3 0 0 1 94.3-94.3"/>
  </g>
  <g fill="none" stroke="#000" stroke-width=".3" stroke-miterlimit="10">
    <rect width="5" height="95.1" x="1409.5" y="1638.6"/>
    <rect width="3.9" height="11.4" x="1405.6" y="1627.2"/>
    <path d="M1504.7 1638.5a95 95 0 0 1-95 95"/>
  </g>
  <g fill="none" stroke="#000" stroke-width=".3" stroke-miterlimit="10">
    <rect width="95.1" height="5" x="1539.6" y="1416.9"/>
    <rect width="11.4" height="3.9" x="1528.2" y="1412.9"/>
    <path d="M1539.7 1512a95 95 0 0 0 95-95"/>
  </g>
  <g fill="none" stroke="#000" stroke-width=".3" stroke-miterlimit="10">
    <rect width="85.6" height="5" x="1280.1" y="1618.3"/>
    <rect width="11.4" height="3.9" x="1365.6" y="1623.2"/>
    <path d="M1365.7 1537.6a85.6 85.6 0 0 0-85.6 85.6"/>
  </g>
  <g fill="none" stroke="#000" stroke-width=".3" stroke-miterlimit="10">
    <rect width="95.3" height="5" x="173.7" y="432.1"/>
    <rect width="11.5" height="4" x="162.2" y="437.1"/>
    <path d="M173.8 341.7A95.3 95.3 0 0 1 269 437"/>
  </g>
  <g fill="none" stroke="#000" stroke-width=".3" stroke-miterlimit="10">
    <rect width="95.3" height="5" x="1923.1" y="432.1"/>
    <rect width="11.5" height="4" x="2018.4" y="437.1"/>
    <path d="M2018.4 341.7A95.3 95.3 0 0 0 1923 437"/>
  </g>
  <g fill="none" stroke="#000" stroke-width=".3" stroke-miterlimit="10">
    <rect width="95.3" height="5" x="1923.1" y="1762.7"/>
    <rect width="11.5" height="4" x="2018.4" y="1758.8"/>
    <path d="M2018.4 1858a95.3 95.3 0 0 1-95.3-95.3"/>
  </g>
  <g fill="none" stroke="#000" stroke-width=".3" stroke-miterlimit="10">
    <rect width="95.3" height="5" x="173.7" y="1762.7"/>
    <rect width="11.5" height="4" x="162.2" y="1758.8"/>
    <path d="M173.8 1858a95.3 95.3 0 0 0 95.3-95.3"/>
  </g>
  <g fill="#fff" stroke="#000" stroke-width=".3" stroke-miterlimit="10">
    <rect width="12.6" height="388.1" x="2114.4" y="1731"/>
    <rect width="3.8" height="388.1" x="2120.1" y="1731"/>
  </g>
  <g fill="#fff" stroke="#000" stroke-width=".3" stroke-miterlimit="10">
    <rect width="301.3" height="12.6" x="1825.6" y="2119.1"/>
    <rect width="301.3" height="3.8" x="1825.6" y="2124.8"/>
  </g>
  <g fill="#fff" stroke="#000" stroke-width=".3" stroke-miterlimit="10">
    <rect width="12.6" height="74.6" x="1813.1" y="2057"/>
    <rect width="3.8" height="74.6" x="1816.2" y="2057"/>
  </g>
  <g fill="#fff" stroke="#000" stroke-width=".3" stroke-miterlimit="10">
    <rect width="74.8" height="12.6" x="2052.1" y="1718.4"/>
    <rect width="74.8" height="3.8" x="2052.1" y="1721.5"/>
  </g>
  <g fill="#fff" stroke="#000" stroke-width=".3" stroke-miterlimit="10">
    <rect width="12.6" height="455.5" x=".1" y="1731"/>
    <rect width="3.8" height="455.5" x="3.2" y="1731"/>
  </g>
  <g fill="#fff" stroke="#000" stroke-width=".3" stroke-miterlimit="10">
    <rect width="367" height="12.6" x=".1" y="2184.4"/>
    <rect width="367" height="3.8" x=".1" y="2190.1"/>
  </g>
  <g fill="#fff" stroke="#000" stroke-width=".3" stroke-miterlimit="10">
    <rect width="139.7" height="12.6" x=".1" y="1718.4"/>
    <rect width="139.7" height="3.8" x=".1" y="1721.5"/>
  </g>
  <g fill="#fff" stroke="#000" stroke-width=".3" stroke-miterlimit="10">
    <rect width="12.6" height="139.9" x="367.1" y="2057"/>
    <rect width="3.8" height="139.9" x="372.8" y="2057"/>
  </g>
  <g fill="#fff" stroke="#000" stroke-width=".3" stroke-miterlimit="10">
    <rect width="12.6" height="455.4" x="2179.4" y="10.6"/>
    <rect width="3.8" height="455.4" x="2185.1" y="10.6"/>
  </g>
  <g fill="#fff" stroke="#000" stroke-width=".3" stroke-miterlimit="10">
    <rect width="367.2" height="12.6" x="1824.8" y=".1"/>
    <rect width="367.2" height="3.8" x="1824.8" y="3.2"/>
  </g>
  <g fill="#fff" stroke="#000" stroke-width=".3" stroke-miterlimit="10">
    <rect width="12.6" height="139.8" x="1812.2" y=".1"/>
    <rect width="3.8" height="139.8" x="1815.3" y=".1"/>
  </g>
  <g fill="#fff" stroke="#000" stroke-width=".3" stroke-miterlimit="10">
    <rect width="139.9" height="12.6" x="2052.1" y="466"/>
    <rect width="139.9" height="3.8" x="2052.1" y="471.7"/>
  </g>
  <g fill="#fff" stroke="#000" stroke-width=".3" stroke-miterlimit="10">
    <rect width="198" height="31.4" x="454.5" y="153"/>
    <rect width="198" height="8" x="454.5" y="140"/>
    <rect width="198" height="5" x="454.5" y="147.9"/>
    <rect width="198" height="2.5" x="454.5" y="159.1"/>
  </g>
  <g fill="#fff" stroke="#000" stroke-width=".3" stroke-miterlimit="10">
    <rect width="31.4" height="197.6" x="153" y="730"/>
    <rect width="8" height="197.6" x="140" y="730"/>
    <rect width="5" height="197.6" x="148" y="730"/>
    <rect width="2.5" height="197.6" x="159.2" y="730"/>
  </g>
  <g fill="#fff" stroke="#000" stroke-width=".3" stroke-miterlimit="10">
    <rect width="31.4" height="129.4" x="153" y="1162.3"/>
    <rect width="8" height="129.4" x="140" y="1162.3"/>
    <rect width="5" height="129.4" x="148" y="1162.3"/>
    <rect width="2.5" height="129.4" x="159.2" y="1162.3"/>
  </g>
  <g fill="#fff" stroke="#000" stroke-width=".3" stroke-miterlimit="10">
    <rect width="31.4" height="118.5" x="153" y="1468.3"/>
    <rect width="8" height="118.5" x="140" y="1468.3"/>
    <rect width="5" height="118.5" x="148" y="1468.3"/>
    <rect width="2.5" height="118.5" x="159.2" y="1468.3"/>
  </g>
  <g fill="#fff" stroke="#000" stroke-width=".3" stroke-miterlimit="10">
    <rect width="197.6" height="31.4" x="518.7" y="2012.7"/>
    <rect width="197.6" height="8" x="518.7" y="2049.1"/>
    <rect width="197.6" height="5" x="518.7" y="2044.1"/>
    <rect width="197.6" height="2.5" x="518.7" y="2035.4"/>
  </g>
  <g fill="#fff" stroke="#000" stroke-width=".3" stroke-miterlimit="10">
    <rect width="197.6" height="31.4" x="1477.3" y="2012.7"/>
    <rect width="197.6" height="8" x="1477.3" y="2049.1"/>
    <rect width="197.6" height="5" x="1477.3" y="2044.1"/>
    <rect width="197.6" height="2.5" x="1477.3" y="2035.4"/>
  </g>
  <g fill="#fff" stroke="#000" stroke-width=".3" stroke-miterlimit="10">
    <rect width="31.4" height="157.7" x="2007.7" y="1381"/>
    <rect width="8" height="157.7" x="2044.1" y="1381"/>
    <rect width="5" height="157.7" x="2039.1" y="1381"/>
    <rect width="2.5" height="157.7" x="2030.4" y="1381"/>
  </g>
  <g fill="#fff" stroke="#000" stroke-width=".3" stroke-miterlimit="10">
    <rect width="31.4" height="119.3" x="2007.7" y="1161.3"/>
    <rect width="8" height="119.3" x="2044.1" y="1161.3"/>
    <rect width="5" height="119.3" x="2039.1" y="1161.3"/>
    <rect width="2.5" height="119.3" x="2030.4" y="1161.3"/>
  </g>
  <g fill="#fff" stroke="#000" stroke-width=".3" stroke-miterlimit="10">
    <rect width="31.4" height="197.6" x="2007.7" y="618.4"/>
    <rect width="8" height="197.6" x="2044.1" y="618.4"/>
    <rect width="5" height="197.6" x="2039.1" y="618.4"/>
    <rect width="2.5" height="197.6" x="2030.4" y="618.4"/>
  </g>
  <g fill="#fff" stroke="#000" stroke-width=".3" stroke-miterlimit="10">
    <rect width="118.5" height="31.4" x="1446.4" y="153"/>
    <rect width="118.5" height="8" x="1446.4" y="140"/>
    <rect width="118.5" height="5" x="1446.4" y="147.9"/>
    <rect width="118.5" height="2.5" x="1446.4" y="159.1"/>
  </g>
  <g fill="#fff" stroke="#000" stroke-width=".3" stroke-miterlimit="10">
    <rect width="101" height="31.4" x="891.6" y="2012.7"/>
    <rect width="101" height="8" x="891.6" y="2049.1"/>
    <rect width="101" height="5" x="891.6" y="2044.1"/>
    <rect width="101" height="2.5" x="891.6" y="2035.4"/>
  </g>
  <g fill="#fff" stroke="#000" stroke-width=".3" stroke-miterlimit="10">
    <rect width="118.9" height="31.4" x="1167.6" y="2012.7"/>
    <rect width="118.9" height="8" x="1167.6" y="2049.1"/>
    <rect width="118.9" height="5" x="1167.6" y="2044.1"/>
    <rect width="118.9" height="2.5" x="1167.6" y="2035.4"/>
  </g>
  <rect width="44.4" height="144.2" x="140" y="1586.8" fill="#003d58"/>
  <rect width="228.1" height="11.7" x="184.4" y="1719.3" fill="#003d58"/>
  <rect width="11.7" height="92.1" x="400.8" y="1627.2" fill="#003d58"/>
  <rect width="277.1" height="11.7" x="412.5" y="1627.2" fill="#003d58"/>
  <rect width="11.9" height="115.5" x="653.8" y="1511.6" fill="#003d58"/>
  <rect width="378.7" height="44.4" x="140" y="2012.7" fill="#003d58"/>
  <rect width="44.4" height="176.6" x="140" y="1291.7" fill="#003d58"/>
  <rect width="469.2" height="12.1" x="184.4" y="1341.7" fill="#003d58"/>
  <rect width="12.1" height="130.2" x="653.6" y="1282.7" fill="#003d58"/>
  <rect width="44.4" height="234.8" x="140" y="927.5" fill="#003d58"/>
  <rect width="5" height="39.8" x="184.4" y="1088.5" fill="#003d58"/>
  <rect width="481.4" height="11.7" x="184.4" y="1029.9" fill="#003d58"/>
  <rect width="12.1" height="142.3" x="653.6" y="1041.6" fill="#003d58"/>
  <rect width="44.4" height="263.9" x="140" y="466" fill="#003d58"/>
  <rect width="5" height="39.4" x="184.4" y="485.7" fill="#003d58"/>
  <rect width="399.7" height="11.7" x="189.8" y="498.7" fill="#003d58"/>
  <rect width="314.5" height="44.4" x="140" y="140" fill="#003d58"/>
  <rect width="164.4" height="44.4" x="652.5" y="140" fill="#003d58"/>
  <rect width="49.4" height="11.7" x="688.4" y="498.7" fill="#003d58"/>
  <rect width="79.1" height="39.4" x="737.8" y="498.7" fill="#003d58"/>
  <rect width="37.7" height="1019.6" x="816.9" y="24.5" fill="#003d58"/>
  <rect width="45.6" height="37.7" x="854.5" y="1006.4" fill="#003d58"/>
  <rect width="81.2" height="37.7" x="1293.2" y="1006.4" fill="#003d58"/>
  <rect width="196.6" height="37.7" x="998.4" y="1006.4" fill="#003d58"/>
  <rect width="37.7" height="982.8" x="1336.7" y="24.5" fill="#003d58"/>
  <rect width="72" height="44.4" x="1374.4" y="140" fill="#003d58"/>
  <rect width="487.2" height="44.4" x="1564.9" y="140" fill="#003d58"/>
  <rect width="39.3" height="5" x="1765.8" y="184.3" fill="#003d58"/>
  <rect width="78.7" height="39.4" x="1374.4" y="498.7" fill="#003d58"/>
  <rect width="39.8" height="11.7" x="1453.1" y="498.7" fill="#003d58"/>
  <rect width="410.6" height="11.7" x="1591.7" y="498.7" fill="#003d58"/>
  <rect width="44.4" height="152.3" x="2007.7" y="466" fill="#003d58"/>
  <rect width="5" height="39.4" x="2002.7" y="485.7" fill="#003d58"/>
  <rect width="44.4" height="345.4" x="2007.7" y="815.9" fill="#003d58"/>
  <rect width="5" height="39.8" x="2002.7" y="1088.5" fill="#003d58"/>
  <rect width="481.4" height="11.7" x="1526.4" y="1029.9" fill="#003d58"/>
  <rect width="12.1" height="142.3" x="1526.4" y="1041.6" fill="#003d58"/>
  <rect width="44.4" height="100.3" x="2007.7" y="1280.7" fill="#003d58"/>
  <rect width="469.2" height="12.1" x="1538.5" y="1341.7" fill="#003d58"/>
  <rect width="11.7" height="130.2" x="1526.8" y="1282.7" fill="#003d58"/>
  <rect width="44.4" height="192.3" x="2007.7" y="1538.6" fill="#003d58"/>
  <rect width="227.3" height="11.7" x="1780.4" y="1719.3" fill="#003d58"/>
  <rect width="12.1" height="92.1" x="1780.4" y="1627.2" fill="#003d58"/>
  <rect width="277.5" height="11.7" x="1502.9" y="1627.2" fill="#003d58"/>
  <rect width="11.7" height="115.5" x="1526.8" y="1511.6" fill="#003d58"/>
  <rect width="377.4" height="44.4" x="1674.9" y="2012.7" fill="#003d58"/>
  <rect width="190.8" height="44.4" x="1286.5" y="2012.7" fill="#003d58"/>
  <rect width="39.3" height="5" x="1335.9" y="2007.7" fill="#003d58"/>
  <rect width="175" height="44.4" x="992.6" y="2012.7" fill="#003d58"/>
  <rect width="32.4" height="968.6" x="1080.8" y="1044.1" fill="#003d58"/>
  <rect width="86.9" height="11.7" x="993.9" y="1246.7" fill="#003d58"/>
  <rect width="76.2" height="11.7" x="828.6" y="1246.7" fill="#003d58"/>
  <rect width="11.7" height="252" x="816.9" y="1246.7" fill="#003d58"/>
  <rect width="252.2" height="11.7" x="828.6" y="1486.9" fill="#003d58"/>
  <rect width="86.9" height="11.7" x="1113.2" y="1246.7" fill="#003d58"/>
  <rect width="76.2" height="11.7" x="1289.2" y="1246.7" fill="#003d58"/>
  <rect width="11.7" height="252" x="1365.4" y="1246.7" fill="#003d58"/>
  <rect width="252.2" height="11.7" x="1113.2" y="1486.9" fill="#003d58"/>
  <rect width="15.7" height="149.4" x="1065.1" y="1258.4" fill="#003d58"/>
  <rect width="15.7" height="149.4" x="1113.2" y="1258.4" fill="#003d58"/>
  <rect width="15.7" height="267.1" x="1065.1" y="1498.7" fill="#003d58"/>
  <rect width="15.7" height="267.1" x="1113.2" y="1498.7" fill="#003d58"/>
  <rect width="65.3" height="11.7" x="788.4" y="1627.2" fill="#003d58"/>
  <rect width="12.6" height="196.9" x="841.2" y="1638.9" fill="#003d58"/>
  <rect width="227.1" height="12.1" x="853.7" y="1765.3" fill="#003d58"/>
  <rect width="65.3" height="11.7" x="1340.3" y="1627.2" fill="#003d58"/>
  <rect width="12.6" height="196.9" x="1340.3" y="1638.9" fill="#003d58"/>
  <rect width="227.1" height="12.1" x="1113.2" y="1765.3" fill="#003d58"/>
  <rect width="175.3" height="44.4" x="716.3" y="2012.7" fill="#003d58"/>
  <rect width="39.3" height="5" x="816.9" y="2007.7" fill="#003d58"/>
  <rect width="12.6" height="72" x="841.2" y="1935.7" fill="#003d58"/>
  <rect width="12.6" height="72" x="1338.2" y="1935.7" fill="#003d58"/>
  <rect width="79.1" height="39.8" x="986" y="1368.1" fill="#003d58"/>
  <rect width="78.5" height="39.8" x="1128.9" y="1368.1" fill="#003d58"/>
  <rect width="34.7" height="39.4" x="816.9" y="1498.7" fill="#003d58"/>
  <rect width="34.7" height="39.4" x="1342.4" y="1498.7" fill="#003d58"/>
  <rect width="44.4" height="159.6" x="140" y="441.7" fill="#003d58"/>
  <rect width="44.4" height="287.8" x="2007.7" y="441.7" fill="#003d58"/>
  <rect width="44.9" height="27.8" x="140" y="1731" fill="#003d58"/>
  <rect width="44.9" height="154.6" x="140" y="1858.1" fill="#003d58"/>
  <rect width="44.4" height="157.3" x="140" y="184.4" fill="#003d58"/>
  <rect width="44.4" height="157.3" x="2007.7" y="184.4" fill="#003d58"/>
  <rect width="44.9" height="27.8" x="2007.5" y="1731" fill="#003d58"/>
  <rect width="44.9" height="154.6" x="2007.5" y="1858.1" fill="#003d58"/>
  <g fill="#fff" stroke="#000" stroke-width=".3" stroke-miterlimit="10">
    <rect width="300" height="12.5" x="82.6" y="70.1"/>
    <rect width="288.1" height="3.2" x="82.6" y="74.1"/>
  </g>
  <g fill="#fff" stroke="#000" stroke-width=".3" stroke-miterlimit="10">
    <rect width="148.7" height="12.5" x="968.1" y="152.5"/>
    <rect width="148.7" height="3.2" x="968.1" y="156.5"/>
  </g>
  <g fill="#fff" stroke="#000" stroke-width=".3" stroke-miterlimit="10">
    <rect width="12.5" height="272.1" x="70.1" y="70.1"/>
    <rect width="3.2" height="272.1" x="74.1" y="70.1"/>
  </g>
  <g fill="#fff" stroke="#000" stroke-width=".3" stroke-miterlimit="10">
    <rect width="12.5" height="40.3" x="70.1" y="442.2"/>
    <rect width="3.2" height="40.3" x="75.3" y="442.2"/>
  </g>
  <g fill="#fff" stroke="#000" stroke-width=".3" stroke-miterlimit="10">
    <rect width="12.5" height="57.5" x="370.1" y="82.6"/>
    <rect width="3.2" height="65.9" x="375.4" y="74.1"/>
  </g>
  <g fill="#fff" stroke="#000" stroke-width=".3" stroke-miterlimit="10">
    <rect width="57.5" height="12.5" x="82.6" y="470"/>
    <rect width="57.5" height="3.2" x="82.6" y="474"/>
  </g>
  <rect width="12.5" height="57.5" x="370.1" y="12.6" fill="#9d9d9c"/>
  <rect width="12.5" height="469.9" x=".1" y="12.6" fill="#9d9d9c"/>
  <rect width="57.5" height="12.5" x="12.6" y="470" fill="#9d9d9c"/>
  <rect width="382.5" height="12.5" x=".1" y=".1" fill="#9d9d9c"/>
  <g fill="none" stroke="#000" stroke-width=".3" stroke-miterlimit="10">
    <polygon points="1207.1 153.4 1212.2 153.4 1212.2 58.1 1207.2 58.1 1207.1 153.4"/>
    <rect width="4" height="11.5" x="1212.2" y="153.4"/>
    <path d="M1117 153.4a95.3 95.3 0 0 1 95.3-95.3"/>
  </g>
  <g fill="none" stroke="#000" stroke-width=".3" stroke-miterlimit="10">
    <rect width="119.8" height="30.3" x="855.2" y="276.1"/>
    <rect width="119.8" height="30.3" x="855.2" y="306.4"/>
    <rect width="119.8" height="30.3" x="855.2" y="336.7"/>
    <rect width="119.8" height="30.3" x="855.2" y="367"/>
    <rect width="119.8" height="30.3" x="855.2" y="397.3"/>
    <rect width="119.8" height="30.3" x="855.2" y="427.6"/>
    <rect width="119.8" height="30.3" x="855.2" y="457.9"/>
    <rect width="119.8" height="30.3" x="855.2" y="488.2"/>
    <rect width="119.8" height="30.3" x="855.2" y="518.5"/>
    <rect width="119.8" height="30.3" x="855.2" y="548.8"/>
    <rect width="119.8" height="30.3" x="855.2" y="579.1"/>
  </g>
  <g fill="none" stroke="#000" stroke-width=".3" stroke-miterlimit="10">
    <rect width="119.8" height="30.3" x="1215.1" y="275.9"/>
    <rect width="119.8" height="30.3" x="1215.1" y="306.2"/>
    <rect width="119.8" height="30.3" x="1215.1" y="336.5"/>
    <rect width="119.8" height="30.3" x="1215.1" y="366.8"/>
    <rect width="119.8" height="30.3" x="1215.1" y="397.1"/>
    <rect width="119.8" height="30.3" x="1215.1" y="427.4"/>
    <rect width="119.8" height="30.3" x="1215.1" y="457.7"/>
    <rect width="119.8" height="30.3" x="1215.1" y="488"/>
    <rect width="119.8" height="30.3" x="1215.1" y="518.3"/>
    <rect width="119.8" height="30.3" x="1215.1" y="548.6"/>
    <rect width="119.8" height="30.3" x="1215.1" y="578.9"/>
  </g>
  <rect width="179.4" height="269.1" x="1004.8" y="301" fill="none" stroke="#000" stroke-width=".3" stroke-miterlimit="10"/>
  <rect width="165.4" height="255" x="1011.7" y="308.1" fill="none" stroke="#000" stroke-width=".3" stroke-miterlimit="10"/>
  <g fill="none" stroke="#000" stroke-width=".3" stroke-miterlimit="10">
    <rect width="5" height="85.6" x="1186.6" y="750.7"/>
    <rect width="4" height="11.4" x="1191.6" y="836.4"/>
    <path d="M1191.6 750.7a91.7 91.7 0 0 0-91.7 91.8"/>
  </g>
  <g fill="none" stroke="#000" stroke-width=".3" stroke-miterlimit="10">
    <rect width="5" height="85.6" x="1008.1" y="750.7"/>
    <rect width="4" height="11.4" x="1004.1" y="836.4"/>
    <path d="M1008 750.7a91.8 91.8 0 0 1 92 91.8"/>
  </g>
  <rect width="69.3" height="13.2" x="854.5" y="24.5" fill="#003d58"/>
  <rect width="68.7" height="13.2" x="1268" y="24.5" fill="#003d58"/>
  <rect width="113.6" height="43.9" x="854.5" y="140.8" fill="#003d58"/>
  <rect width="120.6" height="43.9" x="1216.2" y="140.8" fill="#003d58"/>
  <rect width="76.8" height="24.6" x="979.9" y="570.2" fill="#003d58"/>
  <rect width="24.9" height="294" x="979.9" y="276.1" fill="#003d58"/>
  <rect width="204.3" height="24.9" x="1004.8" y="276.1" fill="#003d58"/>
  <rect width="24.9" height="293.7" x="1184.1" y="301" fill="#003d58"/>
  <rect width="30.8" height="24.6" x="1153.3" y="570.2" fill="#003d58"/>
  <rect width="149.5" height="11.4" x="854.5" y="836.5" fill="#003d58"/>
  <rect width="147.6" height="11.4" x="1195.5" y="836.5" fill="#003d58"/>
  <rect width="344.1" height="6.8" x="923.9" y="30.9" fill="#9e9d9c"/>
  <rect width="195.1" height="33.8" x="999.2" y="973.1" fill="#003d58"/>
</svg>
