<?xml version="1.0" encoding="utf-8"?>
<!-- Generator: Adobe Illustrator 20.1.0, SVG Export Plug-In . SVG Version: 6.00 Build 0)  -->
<svg version="1.1" xmlns="http://www.w3.org/2000/svg" xmlns:xlink="http://www.w3.org/1999/xlink" x="0px" y="0px"
	 viewBox="0 0 2052.5 2344.9" style="enable-background:new 0 0 2052.5 2344.9;" xml:space="preserve">
<style type="text/css">
	.st0{display:none;}
	.st1{display:inline;fill:#DDDAEE;}
	.st2{display:inline;fill:#DFF2FD;}
	.st3{display:inline;fill:#F6F6F6;}
	.st4{display:inline;}
	.st5{fill:none;stroke:#000000;stroke-width:0.3;stroke-miterlimit:10;}
	.st6{display:inline;fill:none;stroke:#000000;stroke-width:0.3;stroke-miterlimit:10;}
	.st7{display:inline;fill:#02475D;}
	.st8{fill:#02475D;}
	.st9{fill:#FFFFFF;stroke:#000000;stroke-width:0.3;stroke-miterlimit:10;}
	.st10{fill:#1E3241;}
	.st11{fill:none;}
	.st12{fill:#FFFFFF;}
	.st13{font-family:'Akrobat-Bold';}
	.st14{font-size:90px;}
	.st15{font-family:'Akrobat-SemiBold';}
	.st16{font-size:72px;}
</style>
<g id="_x33_.1_x5F_1" class="st0">
	<polygon class="st1" points="1923,300.4 1249.3,300.4 1249.3,1034.6 1211.2,1034.6 1211.2,1134.6 1249.3,1134.6 1249.3,1689.6 
		1692.3,1689.6 1692.3,1853 1890.6,1853 1890.6,1689.6 1923,1689.6 	"/>
	<polygon class="st2" points="1704.2,1897.9 1659.3,1897.9 1659.3,1720.8 1250.5,1720.8 1250.5,1165.5 684.3,1165.5 684.3,297.3 
		12,297.3 12,2227.8 684.3,2227.8 684.3,2182.9 1250.5,2182.9 1659.3,2182.9 1659.3,2178.3 1704.2,2178.3 1704.2,2332.9 
		2040.5,2332.9 2040.5,1897.9 	"/>
	<polygon class="st3" points="1250,84.7 684.3,84.7 684.3,214.1 723.2,214.1 723.2,1165.5 1211.2,1165.5 1211.2,214.1 1250,214.1 	
		"/>
	<g class="st4">
		<rect x="1379.2" y="969.8" class="st5" width="5" height="78"/>
		<rect x="1384.2" y="958.4" class="st5" width="4" height="11.4"/>
		<path class="st5" d="M1384.3,1047.8c-53,0-85.8-39-85.8-78"/>
	</g>
	<g class="st4">
		<rect x="1403" y="1373.5" class="st5" width="5" height="78"/>
		<rect x="1408" y="1362" class="st5" width="4" height="11.4"/>
		<path class="st5" d="M1408,1451.5c-53,0-85.8-39-85.8-78"/>
	</g>
	<g class="st4">
		<rect x="1440.5" y="1373.5" class="st5" width="5" height="87.6"/>
		<rect x="1436.5" y="1362" class="st5" width="4" height="11.4"/>
		<path class="st5" d="M1440.5,1461c59.6,0,96.4-43.7,96.4-87.5"/>
	</g>
	<g class="st4">
		<rect x="1553.8" y="1323.8" class="st5" width="87.6" height="5"/>
		<rect x="1542.4" y="1328.8" class="st5" width="11.4" height="4"/>
		<path class="st5" d="M1641.5,1329c0-59.7-43.8-96.5-87.6-96.5"/>
	</g>
	<g class="st4">
		<rect x="1222.6" y="1125.6" class="st5" width="92" height="5"/>
		<rect x="1211.2" y="1130.6" class="st5" width="11.4" height="4"/>
		<path class="st5" d="M1314.6,1130.6c0-53-39-96-92-96"/>
	</g>
	<g class="st4">
		<rect x="429.4" y="994.3" class="st5" width="96" height="5"/>
		<rect x="525.4" y="999.3" class="st5" width="11.4" height="4"/>
		<path class="st5" d="M429.4,999.3c0-53,43-96,96-96l0,0"/>
	</g>
	<g class="st4">
		<rect x="429.4" y="1317.1" class="st5" width="96" height="5"/>
		<rect x="525.4" y="1322.1" class="st5" width="11.4" height="4"/>
		<path class="st5" d="M429.4,1322c0-53,43-96,96-96c0,0,0,0,0,0"/>
	</g>
	<g class="st4">
		<rect x="565.3" y="1658.3" class="st5" width="5" height="96"/>
		<rect x="561.4" y="1754.3" class="st5" width="4" height="11.4"/>
		<path class="st5" d="M565.4,1658.3c53,0,96,43,96,96"/>
	</g>
	<g class="st4">
		<rect x="1240.1" y="1796.8" class="st5" width="96" height="5"/>
		<rect x="1336.1" y="1792.8" class="st5" width="11.4" height="4"/>
		<path class="st5" d="M1240,1796.8c0,53,43,96,96,96l0,0"/>
	</g>
	<g class="st4">
		<rect x="752.1" y="1095.3" class="st5" width="5" height="96"/>
		<rect x="748.2" y="1191.3" class="st5" width="4" height="11.4"/>
		<path class="st5" d="M752.2,1095.3c53,0,96,43,96,96"/>
	</g>
	<g class="st4">
		<rect x="652.8" y="647.6" class="st5" width="5" height="96"/>
		<rect x="657.8" y="743.6" class="st5" width="4" height="11.4"/>
		<path class="st5" d="M657.8,647.6c-53,0-96,43-96,96"/>
	</g>
	<g class="st4">
		<rect x="536.8" y="1422.7" class="st5" width="86.1" height="5"/>
		<rect x="525.4" y="1418.8" class="st5" width="11.4" height="4"/>
		<path class="st5" d="M623,1422.8c0,47.5-38.5,86-86,86l0,0"/>
	</g>
	<g class="st4">
		<rect x="887.8" y="1640.5" class="st5" width="86.1" height="5"/>
		<rect x="973.9" y="1645.5" class="st5" width="11.4" height="4"/>
		<path class="st5" d="M887.8,1645.6c0-47.5,38.5-86,86-86l0,0"/>
	</g>
	<g class="st4">
		<rect x="426.6" y="1765.3" class="st5" width="5" height="86.1"/>
		<rect x="431.6" y="1753.8" class="st5" width="4" height="11.4"/>
		<path class="st5" d="M431.7,1851.4c-47.5,0-86-38.5-86-86l0,0"/>
	</g>
	<g class="st4">
		<rect x="723.7" y="423.3" class="st5" width="119.8" height="30.3"/>
		<rect x="723.7" y="453.6" class="st5" width="119.8" height="30.3"/>
		<rect x="723.7" y="483.8" class="st5" width="119.8" height="30.3"/>
		<rect x="723.7" y="514.1" class="st5" width="119.8" height="30.3"/>
		<rect x="723.7" y="544.4" class="st5" width="119.8" height="30.3"/>
		<rect x="723.7" y="574.7" class="st5" width="119.8" height="30.3"/>
		<rect x="723.7" y="605" class="st5" width="119.8" height="30.3"/>
		<rect x="723.7" y="635.3" class="st5" width="119.8" height="30.3"/>
		<rect x="723.7" y="665.6" class="st5" width="119.8" height="30.3"/>
		<rect x="723.7" y="695.9" class="st5" width="119.8" height="30.3"/>
		<rect x="723.7" y="726.2" class="st5" width="119.8" height="30.3"/>
	</g>
	<g class="st4">
		<rect x="1091.5" y="423" class="st5" width="119.8" height="30.3"/>
		<rect x="1091.5" y="453.3" class="st5" width="119.8" height="30.3"/>
		<rect x="1091.5" y="483.6" class="st5" width="119.8" height="30.3"/>
		<rect x="1091.5" y="513.9" class="st5" width="119.8" height="30.3"/>
		<rect x="1091.5" y="544.2" class="st5" width="119.8" height="30.3"/>
		<rect x="1091.5" y="574.5" class="st5" width="119.8" height="30.3"/>
		<rect x="1091.5" y="604.8" class="st5" width="119.8" height="30.3"/>
		<rect x="1091.5" y="635.1" class="st5" width="119.8" height="30.3"/>
		<rect x="1091.5" y="665.4" class="st5" width="119.8" height="30.3"/>
		<rect x="1091.5" y="695.7" class="st5" width="119.8" height="30.3"/>
		<rect x="1091.5" y="726" class="st5" width="119.8" height="30.3"/>
	</g>
	<rect x="877.6" y="447.9" class="st6" width="179.9" height="269.6"/>
	<rect x="884.5" y="455" class="st6" width="165.9" height="255.4"/>
	<g class="st4">
		<rect x="1054.5" y="893.4" class="st5" width="5" height="85.6"/>
		<rect x="1059.5" y="979" class="st5" width="4" height="11.4"/>
		<path class="st5" d="M1059.5,893.4c-50.7,0-91.8,41.1-91.8,91.8"/>
	</g>
	<g class="st4">
		<rect x="876" y="893.4" class="st5" width="5" height="85.6"/>
		<rect x="872" y="979" class="st5" width="4" height="11.4"/>
		<path class="st5" d="M876,893.4c50.7,0,91.8,41.1,91.8,91.8"/>
	</g>
	<g class="st4">
		<rect x="1054.5" y="137.8" class="st5" width="5" height="85.6"/>
		<rect x="1059.5" y="223.4" class="st5" width="4" height="11.4"/>
		<path class="st5" d="M1059.5,137.8c-50.7,0-91.8,41.1-91.8,91.8"/>
	</g>
	<g class="st4">
		<rect x="876" y="137.8" class="st5" width="5" height="85.6"/>
		<rect x="872" y="223.4" class="st5" width="4" height="11.4"/>
		<path class="st5" d="M876,137.8c50.7,0,91.8,41.1,91.8,91.8"/>
	</g>
	<g class="st4">
		<rect x="1072.4" y="0.2" class="st5" width="5" height="85.6"/>
		<rect x="1077.4" y="85.8" class="st5" width="4" height="11.4"/>
		<path class="st5" d="M1077.4,0c-50.7,0-91.8,41.1-91.8,91.8c0,0.1,0,0.1,0,0.2"/>
	</g>
	<g class="st4">
		<rect x="893.9" y="0.2" class="st5" width="5" height="85.6"/>
		<rect x="889.9" y="85.8" class="st5" width="4" height="11.4"/>
		<path class="st5" d="M894,0c50.7,0.1,91.8,41.2,91.7,91.9c0,0,0,0.1,0,0.1"/>
	</g>
	<rect x="685.5" y="2177.9" class="st7" width="39.8" height="12.5"/>
	<rect x="230.1" y="332.7" class="st7" width="60.1" height="5.1"/>
	<rect x="1216.2" y="1202.8" class="st7" width="33" height="205"/>
	<rect x="1216.2" y="1617.9" class="st7" width="32.8" height="105"/>
	<rect x="1249.1" y="1689.7" class="st7" width="443.3" height="33.3"/>
	<rect x="1659.7" y="1722.9" class="st7" width="32.6" height="174.9"/>
	<rect x="1692.3" y="1817.8" class="st7" width="7.2" height="80.1"/>
	<rect x="1699.5" y="1853" class="st7" width="235.9" height="44.9"/>
	<g class="st4">
		<rect x="1890.6" y="617.8" class="st8" width="44.9" height="107.6"/>
		<rect x="1885.5" y="617.8" class="st8" width="27.5" height="59.7"/>
		<rect x="1578.9" y="287.9" class="st8" width="126.6" height="45.3"/>
		<rect x="1645.3" y="326.4" class="st8" width="43.2" height="11.4"/>
		<rect x="1249.3" y="287.9" class="st8" width="129.2" height="44.9"/>
		<rect x="1211.2" y="287.9" class="st8" width="38.1" height="746.8"/>
		<rect x="1211.2" y="1134.6" class="st8" width="38.1" height="68.2"/>
		<rect x="1217.5" y="1202.8" class="st8" width="31.8" height="205"/>
		<rect x="1209.5" y="1407.8" class="st8" width="39.8" height="210.1"/>
		<rect x="1216.5" y="1617.9" class="st8" width="32.8" height="102.9"/>
		<rect x="1249.3" y="1689.6" class="st8" width="443.1" height="31.2"/>
		<rect x="1659.3" y="1720.8" class="st8" width="33" height="177.1"/>
		<rect x="1692.3" y="1817.8" class="st8" width="7.2" height="80.1"/>
		<rect x="1699.5" y="1853" class="st8" width="235.9" height="44.9"/>
		<rect x="1890.6" y="1603.9" class="st8" width="44.9" height="249.1"/>
		<rect x="1885.5" y="1837.7" class="st8" width="22.9" height="34.3"/>
		<rect x="1890.6" y="1247.7" class="st8" width="44.9" height="155.9"/>
		<rect x="1885.5" y="1247.7" class="st8" width="22.9" height="40.2"/>
		<rect x="1890.6" y="925.3" class="st8" width="44.9" height="122.4"/>
		<rect x="1836.8" y="1688.7" class="st8" width="55" height="12.3"/>
		<rect x="1692.3" y="1689.7" class="st8" width="54.6" height="11.3"/>
		<rect x="1536.8" y="1361.7" class="st8" width="353.8" height="12.3"/>
		<rect x="1542.4" y="1332.9" class="st8" width="11.9" height="28.8"/>
		<rect x="1542.4" y="925.4" class="st8" width="11.9" height="307.5"/>
		<rect x="1554.3" y="925.4" class="st8" width="336.3" height="12.3"/>
		<rect x="1249.3" y="779.7" class="st8" width="161" height="40.2"/>
		<rect x="1398.4" y="820" class="st8" width="11.9" height="149.9"/>
		<rect x="1388.2" y="958.5" class="st8" width="10.2" height="11.4"/>
		<rect x="1249.3" y="958.5" class="st8" width="49.1" height="11.4"/>
		<rect x="1418.3" y="1374" class="st8" width="13.1" height="316.8"/>
		<rect x="1411.9" y="1362.1" class="st8" width="24.6" height="11.9"/>
		<rect x="1249.3" y="1361.7" class="st8" width="72.9" height="11.9"/>
	</g>
	<g class="st4">
		<rect x="684.3" y="214.1" class="st8" width="38.9" height="73.7"/>
		<rect x="1211.2" y="214.1" class="st8" width="38.9" height="73.8"/>
	</g>
	<g class="st4">
		<rect x="367.8" y="2182.9" class="st9" width="199.9" height="31.8"/>
		<rect x="367.8" y="2219.8" class="st9" width="199.9" height="8.1"/>
		<rect x="367.8" y="2214.7" class="st9" width="199.9" height="5.1"/>
		<rect x="367.8" y="2205.9" class="st9" width="199.9" height="2.5"/>
		<rect x="13.3" y="1297.7" class="st9" width="31.8" height="120.3"/>
		<rect x="0.1" y="1297.7" class="st9" width="8.1" height="120.3"/>
		<rect x="8.2" y="1297.7" class="st9" width="5.1" height="120.3"/>
		<rect x="19.5" y="1297.7" class="st9" width="2.5" height="120.3"/>
		<rect x="13.3" y="1117.6" class="st9" width="31.8" height="120.3"/>
		<rect x="0.1" y="1117.6" class="st9" width="8.1" height="120.3"/>
		<rect x="8.2" y="1117.6" class="st9" width="5.1" height="120.3"/>
		<rect x="19.5" y="1117.6" class="st9" width="2.5" height="120.3"/>
		<rect x="13.3" y="752.5" class="st9" width="31.8" height="200.4"/>
		<rect x="0.1" y="752.5" class="st9" width="8.1" height="200.4"/>
		<rect x="8.2" y="752.5" class="st9" width="5.1" height="200.4"/>
		<rect x="19.5" y="752.5" class="st9" width="2.5" height="200.4"/>
		<rect x="434.3" y="301" class="st9" width="120.3" height="31.8"/>
		<rect x="434.3" y="287.8" class="st9" width="120.3" height="8.1"/>
		<rect x="434.3" y="295.9" class="st9" width="120.3" height="5.1"/>
		<rect x="434.3" y="307.2" class="st9" width="120.3" height="2.5"/>
		<rect x="819.3" y="2182.9" class="st9" width="199.9" height="31.8"/>
		<rect x="819.3" y="2219.8" class="st9" width="199.9" height="8.1"/>
		<rect x="819.3" y="2214.7" class="st9" width="199.9" height="5.1"/>
		<rect x="819.3" y="2205.9" class="st9" width="199.9" height="2.5"/>
		<rect x="1384.4" y="2182.9" class="st9" width="199.9" height="31.8"/>
		<rect x="1692.3" y="2227.8" class="st9" width="11.9" height="116.9"/>
		<rect x="1384.4" y="2219.8" class="st9" width="199.9" height="8.1"/>
		<rect x="1384.4" y="2214.7" class="st9" width="199.9" height="5.1"/>
		<rect x="1696.2" y="2227.8" class="st9" width="3" height="113.1"/>
		<rect x="1935.5" y="1886" class="st9" width="105" height="11.9"/>
		<rect x="1935.5" y="1889.8" class="st9" width="113.1" height="3"/>
		<rect x="0.1" y="287.8" class="st9" width="230" height="11.9"/>
		<rect x="3.9" y="291.6" class="st9" width="226.2" height="3"/>
		<rect x="1384.4" y="2205.9" class="st9" width="199.9" height="2.5"/>
		<rect x="0.1" y="297.3" class="st9" width="11.9" height="320.5"/>
		<rect x="3.9" y="291.6" class="st9" width="3" height="326.2"/>
		<rect x="0.1" y="2216" class="st9" width="255" height="11.9"/>
		<rect x="4.4" y="2221" class="st9" width="250.8" height="3"/>
		<rect x="0.1" y="1897.9" class="st9" width="11.9" height="320.5"/>
		<rect x="3.9" y="1897.9" class="st9" width="3" height="326.2"/>
		<rect x="2040.5" y="1886" class="st9" width="11.9" height="458.8"/>
		<path class="st9" d="M1704.3,2333v11.8h336.3v-12h-336.3V2333z"/>
		<rect x="2045.5" y="1889.9" class="st9" width="3" height="447.9"/>
		<rect x="1699.2" y="2337.9" class="st9" width="349.4" height="3"/>
	</g>
	<g class="st4">
		<rect x="1890.6" y="725.4" class="st9" width="31.8" height="199.9"/>
		<rect x="1927.4" y="725.4" class="st9" width="8.1" height="199.9"/>
		<rect x="1922.3" y="725.4" class="st9" width="5.1" height="199.9"/>
		<rect x="1913.6" y="725.4" class="st9" width="2.5" height="199.9"/>
		<rect x="1378.5" y="301" class="st9" width="200.4" height="31.8"/>
		<rect x="1378.5" y="287.9" class="st9" width="200.4" height="8.1"/>
		<rect x="1378.5" y="295.9" class="st9" width="200.4" height="5.1"/>
		<rect x="1378.5" y="307.2" class="st9" width="200.4" height="2.5"/>
		<g>
			<rect x="1890.6" y="1047.8" class="st9" width="31.8" height="199.9"/>
			<rect x="1927.4" y="1047.8" class="st9" width="8.1" height="199.9"/>
			<rect x="1922.3" y="1047.8" class="st9" width="5.1" height="199.9"/>
			<rect x="1913.6" y="1047.8" class="st9" width="2.5" height="199.9"/>
		</g>
		<g>
			<rect x="1890.6" y="1403.6" class="st9" width="31.8" height="199.9"/>
			<rect x="1927.4" y="1403.6" class="st9" width="8.1" height="199.9"/>
			<rect x="1922.3" y="1403.6" class="st9" width="5.1" height="199.9"/>
			<rect x="1913.6" y="1403.6" class="st9" width="2.5" height="199.9"/>
		</g>
		<g>
			<rect x="1705.5" y="287.9" class="st9" width="230" height="12.5"/>
			<rect x="1705.5" y="291.9" class="st9" width="230" height="3.2"/>
		</g>
		<g>
			<rect x="1923" y="300.4" class="st9" width="12.5" height="317.4"/>
			<rect x="1928.3" y="300.4" class="st9" width="3.2" height="317.4"/>
		</g>
	</g>
	<g class="st4">
		<rect x="0.1" y="1878" class="st8" width="274.9" height="19.9"/>
		<rect x="0.1" y="1417.9" class="st8" width="44.9" height="460"/>
		<rect x="0.1" y="952.9" class="st8" width="44.9" height="164.8"/>
		<rect x="0.1" y="1237.9" class="st8" width="44.9" height="59.5"/>
		<rect x="5.2" y="1247.7" class="st8" width="44.9" height="40"/>
		<rect x="0.1" y="617.8" class="st8" width="44.9" height="134.7"/>
		<rect x="230.1" y="287.8" class="st8" width="204.2" height="44.9"/>
		<rect x="554.6" y="287.8" class="st8" width="130.9" height="44.9"/>
		<rect x="685.5" y="287.8" class="st8" width="37.7" height="915"/>
		<rect x="25.1" y="617.8" class="st8" width="25" height="59.3"/>
		<rect x="255.1" y="2182.9" class="st8" width="112.7" height="44.9"/>
		<rect x="567.7" y="2182.9" class="st8" width="251.6" height="44.9"/>
		<rect x="1019.3" y="2182.9" class="st8" width="365.1" height="44.9"/>
		<rect x="723.2" y="1164.6" class="st8" width="25" height="38.1"/>
		<rect x="848.1" y="1165.5" class="st8" width="401.1" height="37.3"/>
		<rect x="1210.3" y="2177.9" class="st8" width="40.2" height="5.1"/>
		<rect x="1584.3" y="2182.9" class="st8" width="119.9" height="44.9"/>
		<rect x="1645.3" y="2178.3" class="st8" width="58.9" height="14.4"/>
		<rect x="685.5" y="2177.9" class="st8" width="39.8" height="12.5"/>
		<rect x="1209.5" y="1407.9" class="st8" width="39.8" height="210.1"/>
		<rect x="230.2" y="629.5" class="st8" width="11.9" height="125.6"/>
		<rect x="150.1" y="617.7" class="st8" width="92" height="11.9"/>
		<rect x="230.2" y="743.3" class="st8" width="331.6" height="11.9"/>
		<rect x="661.8" y="743.3" class="st8" width="23.7" height="11.9"/>
		<rect x="525.4" y="749.2" class="st8" width="11.6" height="154.2"/>
		<rect x="525.4" y="1003.3" class="st8" width="11.9" height="222.8"/>
		<rect x="45" y="1063.5" class="st8" width="480.3" height="11.9"/>
		<rect x="525.4" y="1326.1" class="st8" width="11.4" height="92.8"/>
		<rect x="208.3" y="1392" class="st8" width="325.6" height="11.7"/>
		<rect x="208.3" y="1392" class="st8" width="12.1" height="373.8"/>
		<rect x="220.4" y="1754.4" class="st8" width="125.4" height="11.4"/>
		<rect x="263.2" y="1763.6" class="st8" width="11.6" height="4.3"/>
		<rect x="263.2" y="1854.9" class="st8" width="11.6" height="23"/>
		<rect x="435.6" y="1753.9" class="st8" width="125.8" height="11.9"/>
		<rect x="525.4" y="1508.9" class="st8" width="11.9" height="249.3"/>
		<rect x="220.4" y="1572.2" class="st8" width="305" height="10.6"/>
		<rect x="45" y="1487.5" class="st8" width="163.3" height="10.6"/>
		<rect x="685.5" y="1476.5" class="st8" width="11.9" height="701.5"/>
		<rect x="697.3" y="1476.5" class="st8" width="60.1" height="11.2"/>
		<rect x="661.3" y="1753.9" class="st8" width="26.8" height="11.9"/>
		<rect x="697.3" y="1670.9" class="st8" width="11.4" height="39.8"/>
		<rect x="697.3" y="1710.7" class="st8" width="89.8" height="12.3"/>
		<rect x="937.5" y="1710.7" class="st8" width="278.7" height="12.3"/>
		<rect x="1335.7" y="1892.9" class="st8" width="11.9" height="290.2"/>
		<rect x="1335.7" y="1723" class="st8" width="11.9" height="69.9"/>
		<rect x="973.5" y="1426.1" class="st8" width="11.9" height="133.4"/>
		<rect x="973.5" y="1649.6" class="st8" width="11.9" height="61.1"/>
		<rect x="973.5" y="1202.8" class="st8" width="11.9" height="143.6"/>
		<rect x="985.4" y="1476.5" class="st8" width="224.1" height="11.9"/>
		<rect x="220.4" y="1403.6" class="st8" width="39.8" height="168.6"/>
		<rect x="1249.3" y="1689.6" class="st8" width="443.1" height="31.2"/>
		<rect x="1659.3" y="1720.8" class="st8" width="33" height="177.1"/>
		<rect x="1699.5" y="1853" class="st8" width="235.9" height="44.9"/>
		<rect x="1216.2" y="1202.8" class="st8" width="33" height="520.2"/>
		<rect x="1692.3" y="1817.8" class="st8" width="7.2" height="80.1"/>
	</g>
	<rect x="851.5" y="717.2" class="st7" width="76.8" height="26.2"/>
	<rect x="851.5" y="423.1" class="st7" width="24.9" height="294"/>
	<rect x="876.4" y="423.1" class="st7" width="204.3" height="24.9"/>
	<rect x="1055.8" y="448" class="st7" width="24.9" height="293.7"/>
	<rect x="1025" y="717.2" class="st7" width="30.8" height="24.6"/>
	<rect x="723.2" y="979.2" class="st7" width="148.9" height="11.4"/>
	<rect x="1063.5" y="979.2" class="st7" width="147.6" height="11.4"/>
	<rect x="723.2" y="214.4" class="st7" width="148.9" height="20.4"/>
	<rect x="1063.5" y="214.4" class="st7" width="147.6" height="20.4"/>
	<rect x="1143" y="287.9" class="st7" width="68.1" height="20.4"/>
	<rect x="1122.6" y="234.8" class="st7" width="20.4" height="73.4"/>
	<rect x="870.9" y="1131.7" class="st7" width="195.1" height="33.8"/>
	<rect x="672.4" y="84.7" class="st7" width="11.9" height="202.9"/>
	<rect x="1250" y="84.7" class="st7" width="11.9" height="202.9"/>
	<g class="st4">
		<rect x="684.3" y="84.7" class="st9" width="205.6" height="12.5"/>
		<rect x="684.3" y="88.8" class="st9" width="205.6" height="3.2"/>
	</g>
	<g class="st4">
		<rect x="1081.4" y="84.7" class="st9" width="168.7" height="12.5"/>
		<rect x="1081.4" y="88.8" class="st9" width="168.7" height="3.2"/>
	</g>
</g>
<g id="tooltips">
	<g id="tooltip_1_">
		<g id="rooms">
			<rect x="761" y="1895" class="st10" width="150" height="150"/>
			<rect x="761" y="1937" class="st11" width="150" height="66"/>
			<text transform="matrix(1 0 0 1 816.5605 2002.1602)" class="st12 st13 st14">4</text>
		</g>
		<g id="square_1_">
			<g>
				<rect x="911" y="1895" class="st12" width="300" height="150"/>
			</g>
			<rect x="911" y="1943.5" class="st11" width="300" height="53"/>
			<text transform="matrix(1 0 0 1 945.1118 1995.6279)" class="st15 st16">204.19 м</text>
			<text transform="matrix(0.583 0 0 0.583 1159.5947 1971.6519)" class="st15 st16">2</text>
		</g>
	</g>
	<g id="tooltip_2_">
		<g id="rooms_1_">
			<rect x="1345" y="543" class="st10" width="150" height="150"/>
			<rect x="1345" y="585" class="st11" width="150" height="66"/>
			<text transform="matrix(1 0 0 1 1401.0557 650.1602)" class="st12 st13 st14">2</text>
		</g>
		<g id="square_2_">
			<g>
				<rect x="1495" y="543" class="st12" width="300" height="150"/>
			</g>
			<rect x="1495" y="591.5" class="st11" width="300" height="53"/>
			<text transform="matrix(1 0 0 1 1537.7871 643.6279)" class="st15 st16">90.48 м</text>
			<text transform="matrix(0.583 0 0 0.583 1734.9189 619.6519)" class="st15 st16">2</text>
		</g>
	</g>
</g>
</svg>
