<svg xmlns="http://www.w3.org/2000/svg" viewBox="0 0 3024.1 2073.6"><title>5.1-8</title><rect x="533.8" y="367.5" width="150" height="150" fill="#1e3241"/><text transform="translate(589.9 474.7)" font-size="90" fill="#fff" font-family="Akrobat-Bold, Akrobat" font-weight="700">2</text><rect x="683.8" y="367.5" width="300" height="150" fill="#fff"/><text transform="translate(749.8 468.2)" font-size="72" font-family="Akrobat-SemiBold, Akrobat" font-weight="700"><tspan letter-spacing="-0.03em">7</tspan><tspan x="23.9" y="0" letter-spacing="0em">8</tspan><tspan x="57" y="0" letter-spacing="-0.07em">.</tspan><tspan x="65.1" y="0">4 м</tspan></text><text transform="translate(900.5 444.2) scale(0.58)" font-size="72" font-family="Akrobat-SemiBold, Akrobat" font-weight="700">2</text><rect x="1700.6" y="387.5" width="150" height="150" fill="#1e3241"/><text transform="translate(1762.2 494.7)" font-size="90" fill="#fff" font-family="Akrobat-Bold, Akrobat" font-weight="700">1</text><rect x="1850.6" y="387.5" width="300" height="150" fill="#fff"/><text transform="translate(1910.9 488.2)" font-size="72" font-family="Akrobat-SemiBold, Akrobat" font-weight="700">55.0 м</text><text transform="translate(2073 464.2) scale(0.58)" font-size="72" font-family="Akrobat-SemiBold, Akrobat" font-weight="700">2</text><rect x="2484.4" y="387.5" width="150" height="150" fill="#1e3241"/><text transform="translate(2540.5 494.7)" font-size="90" fill="#fff" font-family="Akrobat-Bold, Akrobat" font-weight="700">2</text><rect x="2634.4" y="387.5" width="300" height="150" fill="#fff"/><text transform="translate(2683.6 488.2)" font-size="72" font-family="Akrobat-SemiBold, Akrobat" font-weight="700">102.6 м</text><text transform="translate(2867.9 464.2) scale(0.58)" font-size="72" font-family="Akrobat-SemiBold, Akrobat" font-weight="700">2</text><rect x="2022.1" y="1706" width="150" height="150" fill="#1e3241"/><text transform="translate(2078.2 1813.1)" font-size="90" fill="#fff" font-family="Akrobat-Bold, Akrobat" font-weight="700">2</text><rect x="2172.1" y="1706" width="300" height="150" fill="#fff"/><text transform="translate(2239.9 1806.6)" font-size="72" font-family="Akrobat-SemiBold, Akrobat" font-weight="700">71.9 м</text><text transform="translate(2387 1782.6) scale(0.58)" font-size="72" font-family="Akrobat-SemiBold, Akrobat" font-weight="700">2</text><rect x="729.6" y="1706" width="150" height="150" fill="#1e3241"/><text transform="translate(785.7 1813.1)" font-size="90" fill="#fff" font-family="Akrobat-Bold, Akrobat" font-weight="700">2</text><rect x="879.6" y="1706" width="300" height="150" fill="#fff"/><text transform="translate(947.4 1806.6)" font-size="72" font-family="Akrobat-SemiBold, Akrobat" font-weight="700">71.9 м</text><text transform="translate(1094.5 1782.6) scale(0.58)" font-size="72" font-family="Akrobat-SemiBold, Akrobat" font-weight="700">2</text><rect x="76.9" y="1629" width="150" height="150" fill="#1e3241"/><text transform="translate(138.5 1736.2)" font-size="90" fill="#fff" font-family="Akrobat-Bold, Akrobat" font-weight="700">1</text><rect x="226.9" y="1629" width="300" height="150" fill="#fff"/><text transform="translate(289.9 1729.6)" font-size="72" font-family="Akrobat-SemiBold, Akrobat" font-weight="700">49.7 м</text><text transform="translate(446.6 1705.7) scale(0.58)" font-size="72" font-family="Akrobat-SemiBold, Akrobat" font-weight="700">2</text></svg>