<svg xmlns="http://www.w3.org/2000/svg" viewBox="0 0 3024.1 2073.6"><title>5.1-3</title><rect x="482.1" y="366.1" width="150" height="150" fill="#1e3241"/><text transform="translate(538.2 473.3)" font-size="90" fill="#fff" font-family="Akrobat-Bold, Akrobat" font-weight="700">2</text><rect x="632.1" y="366.1" width="300" height="150" fill="#fff"/><text transform="translate(698.1 466.8)" font-size="72" font-family="Akrobat-SemiBold, Akrobat" font-weight="700"><tspan letter-spacing="-0.03em">7</tspan><tspan x="23.9" y="0" letter-spacing="0em">8</tspan><tspan x="57" y="0" letter-spacing="-0.07em">.</tspan><tspan x="65.1" y="0">4 м</tspan></text><text transform="translate(848.8 442.8) scale(0.58)" font-size="72" font-family="Akrobat-SemiBold, Akrobat" font-weight="700">2</text><rect x="1703" y="366.4" width="150" height="150" fill="#1e3241"/><text transform="translate(1764.6 473.5)" font-size="90" fill="#fff" font-family="Akrobat-Bold, Akrobat" font-weight="700">1</text><rect x="1853" y="366.4" width="300" height="150" fill="#fff"/><text transform="translate(1913.3 467)" font-size="72" font-family="Akrobat-SemiBold, Akrobat" font-weight="700">55.0 м</text><text transform="translate(2075.4 443) scale(0.58)" font-size="72" font-family="Akrobat-SemiBold, Akrobat" font-weight="700">2</text><rect x="2471.4" y="366.4" width="150" height="150" fill="#1e3241"/><text transform="translate(2527.5 473.5)" font-size="90" fill="#fff" font-family="Akrobat-Bold, Akrobat" font-weight="700">2</text><rect x="2621.4" y="366.4" width="300" height="150" fill="#fff"/><text transform="translate(2670.6 467)" font-size="72" font-family="Akrobat-SemiBold, Akrobat" font-weight="700">102.6 м</text><text transform="translate(2854.9 443) scale(0.58)" font-size="72" font-family="Akrobat-SemiBold, Akrobat" font-weight="700">2</text><rect x="1681.1" y="1605" width="150" height="150" fill="#1e3241"/><text transform="translate(1737.2 1712.2)" font-size="90" fill="#fff" font-family="Akrobat-Bold, Akrobat" font-weight="700">2</text><rect x="1831.1" y="1605" width="300" height="150" fill="#fff"/><text transform="translate(1898.9 1705.6)" font-size="72" font-family="Akrobat-SemiBold, Akrobat" font-weight="700">71.9 м</text><text transform="translate(2046 1681.7) scale(0.58)" font-size="72" font-family="Akrobat-SemiBold, Akrobat" font-weight="700">2</text><rect x="708.2" y="1605" width="150" height="150" fill="#1e3241"/><text transform="translate(764.3 1712.2)" font-size="90" fill="#fff" font-family="Akrobat-Bold, Akrobat" font-weight="700">2</text><rect x="858.2" y="1605" width="300" height="150" fill="#fff"/><text transform="translate(926 1705.6)" font-size="72" font-family="Akrobat-SemiBold, Akrobat" font-weight="700">71.9 м</text><text transform="translate(1073.1 1681.7) scale(0.58)" font-size="72" font-family="Akrobat-SemiBold, Akrobat" font-weight="700">2</text><rect x="68.7" y="1605" width="150" height="150" fill="#1e3241"/><text transform="translate(124.8 1712.2)" font-size="90" fill="#fff" font-family="Akrobat-Bold, Akrobat" font-weight="700">2</text><rect x="218.7" y="1605" width="300" height="150" fill="#fff"/><text transform="translate(282.3 1705.6)" font-size="72" font-family="Akrobat-SemiBold, Akrobat" font-weight="700">000 м</text><text transform="translate(437.8 1681.7) scale(0.58)" font-size="72" font-family="Akrobat-SemiBold, Akrobat" font-weight="700">2</text><rect x="68.7" y="1615" width="150" height="150" fill="#1e3241"/><text transform="translate(130.3 1722.2)" font-size="90" fill="#fff" font-family="Akrobat-Bold, Akrobat" font-weight="700">1</text><rect x="218.7" y="1615" width="300" height="150" fill="#fff"/><text transform="translate(281.7 1715.6)" font-size="72" font-family="Akrobat-SemiBold, Akrobat" font-weight="700">49.7 м</text><text transform="translate(438.4 1691.7) scale(0.58)" font-size="72" font-family="Akrobat-SemiBold, Akrobat" font-weight="700">2</text></svg>