<svg xmlns="http://www.w3.org/2000/svg" viewBox="0 0 3024.1 2073.6"><title>5.1-6</title><rect x="522.8" y="362.5" width="150" height="150" fill="#1e3241"/><text transform="translate(578.9 469.7)" font-size="90" fill="#fff" font-family="Akrobat-Bold, Akrobat" font-weight="700">2</text><rect x="672.8" y="362.5" width="300" height="150" fill="#fff"/><text transform="translate(738.8 463.2)" font-size="72" font-family="Akrobat-SemiBold, Akrobat" font-weight="700"><tspan letter-spacing="-0.03em">7</tspan><tspan x="23.9" y="0" letter-spacing="0em">8</tspan><tspan x="57" y="0" letter-spacing="-0.07em">.</tspan><tspan x="65.1" y="0">4 м</tspan></text><text transform="translate(889.5 439.2) scale(0.58)" font-size="72" font-family="Akrobat-SemiBold, Akrobat" font-weight="700">2</text><rect x="1689.6" y="362.5" width="150" height="150" fill="#1e3241"/><text transform="translate(1751.2 469.7)" font-size="90" fill="#fff" font-family="Akrobat-Bold, Akrobat" font-weight="700">1</text><rect x="1839.6" y="362.5" width="300" height="150" fill="#fff"/><text transform="translate(1899.9 463.2)" font-size="72" font-family="Akrobat-SemiBold, Akrobat" font-weight="700">55.0 м</text><text transform="translate(2062 439.2) scale(0.58)" font-size="72" font-family="Akrobat-SemiBold, Akrobat" font-weight="700">2</text><rect x="2473.4" y="362.5" width="150" height="150" fill="#1e3241"/><text transform="translate(2529.5 469.7)" font-size="90" fill="#fff" font-family="Akrobat-Bold, Akrobat" font-weight="700">2</text><rect x="2623.4" y="362.5" width="300" height="150" fill="#fff"/><text transform="translate(2673.5 463.2)" font-size="72" font-family="Akrobat-SemiBold, Akrobat" font-weight="700">102.3 м</text><text transform="translate(2856 439.2) scale(0.58)" font-size="72" font-family="Akrobat-SemiBold, Akrobat" font-weight="700">2</text><rect x="2011.1" y="1691" width="150" height="150" fill="#1e3241"/><text transform="translate(2067.2 1798.1)" font-size="90" fill="#fff" font-family="Akrobat-Bold, Akrobat" font-weight="700">2</text><rect x="2161.1" y="1691" width="300" height="150" fill="#fff"/><text transform="translate(2228.9 1791.6)" font-size="72" font-family="Akrobat-SemiBold, Akrobat" font-weight="700">71.9 м</text><text transform="translate(2376 1767.6) scale(0.58)" font-size="72" font-family="Akrobat-SemiBold, Akrobat" font-weight="700">2</text><rect x="718.6" y="1691" width="150" height="150" fill="#1e3241"/><text transform="translate(774.7 1798.1)" font-size="90" fill="#fff" font-family="Akrobat-Bold, Akrobat" font-weight="700">2</text><rect x="868.6" y="1691" width="300" height="150" fill="#fff"/><text transform="translate(936.4 1791.6)" font-size="72" font-family="Akrobat-SemiBold, Akrobat" font-weight="700">71.9 м</text><text transform="translate(1083.5 1767.6) scale(0.58)" font-size="72" font-family="Akrobat-SemiBold, Akrobat" font-weight="700">2</text><rect x="78.9" y="1636" width="150" height="150" fill="#1e3241"/><text transform="translate(140.5 1743.2)" font-size="90" fill="#fff" font-family="Akrobat-Bold, Akrobat" font-weight="700">1</text><rect x="228.9" y="1636" width="300" height="150" fill="#fff"/><text transform="translate(291.9 1736.6)" font-size="72" font-family="Akrobat-SemiBold, Akrobat" font-weight="700">49.7 м</text><text transform="translate(448.6 1712.7) scale(0.58)" font-size="72" font-family="Akrobat-SemiBold, Akrobat" font-weight="700">2</text></svg>