<svg xmlns="http://www.w3.org/2000/svg" viewBox="0 0 3024.1 2073.5"><title>5.1-9</title><rect x="150.8" y="352.5" width="150" height="150" fill="#1e3241"/><text transform="translate(206.9 459.7)" font-size="90" fill="#fff" font-family="Akrobat-Bold, Akrobat" font-weight="700">2</text><rect x="300.8" y="352.5" width="300" height="150" fill="#fff"/><text transform="translate(361.5 453.2)" font-size="72" font-family="Akrobat-SemiBold, Akrobat" font-weight="700">70.8 м</text><text transform="translate(522.8 429.2) scale(0.58)" font-size="72" font-family="Akrobat-SemiBold, Akrobat" font-weight="700">2</text><rect x="1707.6" y="362.5" width="150" height="150" fill="#1e3241"/><text transform="translate(1769.2 469.7)" font-size="90" fill="#fff" font-family="Akrobat-Bold, Akrobat" font-weight="700">1</text><rect x="1857.6" y="362.5" width="300" height="150" fill="#fff"/><text transform="translate(1917.1 463.2)" font-size="72" font-family="Akrobat-SemiBold, Akrobat" font-weight="700">50.9 м</text><text transform="translate(2080.8 439.2) scale(0.58)" font-size="72" font-family="Akrobat-SemiBold, Akrobat" font-weight="700">2</text><rect x="2491.4" y="362.5" width="150" height="150" fill="#1e3241"/><text transform="translate(2547.5 469.7)" font-size="90" fill="#fff" font-family="Akrobat-Bold, Akrobat" font-weight="700">2</text><rect x="2641.4" y="362.5" width="300" height="150" fill="#fff"/><text transform="translate(2707.3 463.2)" font-size="72" font-family="Akrobat-SemiBold, Akrobat" font-weight="700">9<tspan x="31.5" y="0" letter-spacing="-0.1em">7</tspan><tspan x="50.5" y="0">.6 м</tspan></text><text transform="translate(2858.2 439.2) scale(0.58)" font-size="72" font-family="Akrobat-SemiBold, Akrobat" font-weight="700">2</text><rect x="1699.1" y="1621" width="150" height="150" fill="#1e3241"/><text transform="translate(1755.2 1728.1)" font-size="90" fill="#fff" font-family="Akrobat-Bold, Akrobat" font-weight="700">2</text><rect x="1849.1" y="1621" width="300" height="150" fill="#fff"/><text transform="translate(1910.5 1721.6)" font-size="72" font-family="Akrobat-SemiBold, Akrobat" font-weight="700">65.2 м</text><text transform="translate(2070.4 1697.6) scale(0.58)" font-size="72" font-family="Akrobat-SemiBold, Akrobat" font-weight="700">2</text><rect x="716.6" y="1641" width="150" height="150" fill="#1e3241"/><text transform="translate(772.7 1748.1)" font-size="90" fill="#fff" font-family="Akrobat-Bold, Akrobat" font-weight="700">2</text><rect x="866.6" y="1641" width="300" height="150" fill="#fff"/><text transform="translate(927.9 1741.6)" font-size="72" font-family="Akrobat-SemiBold, Akrobat" font-weight="700">65.3 м</text><text transform="translate(1088 1717.6) scale(0.58)" font-size="72" font-family="Akrobat-SemiBold, Akrobat" font-weight="700">2</text><rect x="83.9" y="1634" width="150" height="150" fill="#1e3241"/><text transform="translate(145.5 1741.2)" font-size="90" fill="#fff" font-family="Akrobat-Bold, Akrobat" font-weight="700">1</text><rect x="233.9" y="1634" width="300" height="150" fill="#fff"/><text transform="translate(294.1 1734.6)" font-size="72" font-family="Akrobat-SemiBold, Akrobat" font-weight="700">49.9 м</text><text transform="translate(456.4 1710.7) scale(0.58)" font-size="72" font-family="Akrobat-SemiBold, Akrobat" font-weight="700">2</text></svg>