<svg xmlns="http://www.w3.org/2000/svg" viewBox="0 0 3024.1 2225.1"><title>5.1-1</title><rect x="501.1" y="362.4" width="150" height="150" fill="#1e3241"/><text transform="translate(557.2 469.6)" font-size="90" fill="#fff" font-family="Akrobat-Bold, Akrobat" font-weight="700">2</text><rect x="651.1" y="362.4" width="300" height="150" fill="#fff"/><text transform="translate(722.3 463)" font-size="72" font-family="Akrobat-SemiBold, Akrobat" font-weight="700"><tspan letter-spacing="0.02em">7</tspan><tspan x="27.8" y="0" letter-spacing="-0.1em">7</tspan><tspan x="46.7" y="0" letter-spacing="-0.07em">.</tspan><tspan x="54.9" y="0">4 м</tspan></text><text transform="translate(862.7 439.1) scale(0.58)" font-size="72" font-family="Akrobat-SemiBold, Akrobat" font-weight="700">2</text><rect x="1689.3" y="493.5" width="150" height="150" fill="#1e3241"/><text transform="translate(1750.9 600.7)" font-size="90" fill="#fff" font-family="Akrobat-Bold, Akrobat" font-weight="700">1</text><rect x="1839.3" y="493.5" width="300" height="150" fill="#fff"/><text transform="translate(1908.8 594.1)" font-size="72" font-family="Akrobat-SemiBold, Akrobat" font-weight="700">54<tspan x="60.1" y="0" letter-spacing="-0.08em">.</tspan><tspan x="67.5" y="0">1 м</tspan></text><text transform="translate(2052.5 570.2) scale(0.58)" font-size="72" font-family="Akrobat-SemiBold, Akrobat" font-weight="700">2</text><rect x="2471.4" y="493.5" width="150" height="150" fill="#1e3241"/><text transform="translate(2527.5 600.7)" font-size="90" fill="#fff" font-family="Akrobat-Bold, Akrobat" font-weight="700">2</text><rect x="2621.4" y="493.5" width="300" height="150" fill="#fff"/><text transform="translate(2676 594.1)" font-size="72" font-family="Akrobat-SemiBold, Akrobat" font-weight="700">101.2 м</text><text transform="translate(2849.5 570.2) scale(0.58)" font-size="72" font-family="Akrobat-SemiBold, Akrobat" font-weight="700">2</text><rect x="1994.5" y="1802.9" width="150" height="150" fill="#1e3241"/><text transform="translate(2050.6 1910.1)" font-size="90" fill="#fff" font-family="Akrobat-Bold, Akrobat" font-weight="700">2</text><rect x="2144.5" y="1802.9" width="300" height="150" fill="#fff"/><text transform="translate(2213.1 1903.6)" font-size="72" font-family="Akrobat-SemiBold, Akrobat" font-weight="700">71.3 м</text><text transform="translate(2358.6 1879.6) scale(0.58)" font-size="72" font-family="Akrobat-SemiBold, Akrobat" font-weight="700">2</text><rect x="699.4" y="1836.3" width="150" height="150" fill="#1e3241"/><text transform="translate(761 1943.5)" font-size="90" fill="#fff" font-family="Akrobat-Bold, Akrobat" font-weight="700">1</text><rect x="849.4" y="1836.3" width="300" height="150" fill="#fff"/><text transform="translate(910.5 1936.9)" font-size="72" font-family="Akrobat-SemiBold, Akrobat" font-weight="700">49.3 м</text><text transform="translate(1071 1913) scale(0.58)" font-size="72" font-family="Akrobat-SemiBold, Akrobat" font-weight="700">2</text><rect x="63.4" y="1718.8" width="150" height="150" fill="#1e3241"/><text transform="translate(125 1825.9)" font-size="90" fill="#fff" font-family="Akrobat-Bold, Akrobat" font-weight="700">1</text><rect x="213.4" y="1718.8" width="300" height="150" fill="#fff"/><path d="M512.4,1719.8v148h-298v-148h298m1-1h-300v150h300v-150Z" fill="none"/><text transform="translate(279.2 1819.4)" font-size="72" font-family="Akrobat-SemiBold, Akrobat" font-weight="700">51.6 м</text><text transform="translate(430.3 1795.4) scale(0.58)" font-size="72" font-family="Akrobat-SemiBold, Akrobat" font-weight="700">2</text></svg>