<svg xmlns="http://www.w3.org/2000/svg" viewBox="0 0 3024.1 2073.5"><title>5.2-9</title><rect x="156.3" y="429.5" width="150" height="150" fill="#1e3241"/><text transform="translate(212.4 536.7)" font-size="90" fill="#fff" font-family="Akrobat-Bold, Akrobat" font-weight="700">2</text><rect x="306.3" y="429.5" width="300" height="150" fill="#fff"/><text transform="translate(372.2 530.1)" font-size="72" font-family="Akrobat-SemiBold, Akrobat" font-weight="700">9<tspan x="31.5" y="0" letter-spacing="-0.1em">7</tspan><tspan x="50.5" y="0">.6 м</tspan></text><text transform="translate(523.1 506.2) scale(0.58)" font-size="72" font-family="Akrobat-SemiBold, Akrobat" font-weight="700">2</text><rect x="878.6" y="429.5" width="150" height="150" fill="#1e3241"/><text transform="translate(940.2 536.7)" font-size="90" fill="#fff" font-family="Akrobat-Bold, Akrobat" font-weight="700">1</text><rect x="1028.6" y="429.5" width="300" height="150" fill="#fff"/><text transform="translate(1088.1 530.1)" font-size="72" font-family="Akrobat-SemiBold, Akrobat" font-weight="700">50.9 м</text><text transform="translate(1251.8 506.2) scale(0.58)" font-size="72" font-family="Akrobat-SemiBold, Akrobat" font-weight="700">2</text><rect x="2144.1" y="389.5" width="150" height="150" fill="#1e3241"/><text transform="translate(2200.2 496.7)" font-size="90" fill="#fff" font-family="Akrobat-Bold, Akrobat" font-weight="700">2</text><rect x="2294.1" y="389.5" width="300" height="150" fill="#fff"/><text transform="translate(2354.8 490.1)" font-size="72" font-family="Akrobat-SemiBold, Akrobat" font-weight="700">70.8 м</text><text transform="translate(2516.1 466.2) scale(0.58)" font-size="72" font-family="Akrobat-SemiBold, Akrobat" font-weight="700">2</text><rect x="619.7" y="1672.5" width="150" height="150" fill="#1e3241"/><text transform="translate(675.7 1779.7)" font-size="90" fill="#fff" font-family="Akrobat-Bold, Akrobat" font-weight="700">2</text><rect x="769.7" y="1672.5" width="300" height="150" fill="#fff"/><text transform="translate(831 1773.1)" font-size="72" font-family="Akrobat-SemiBold, Akrobat" font-weight="700">65.2 м</text><text transform="translate(991 1749.2) scale(0.58)" font-size="72" font-family="Akrobat-SemiBold, Akrobat" font-weight="700">2</text><rect x="1912" y="1672.5" width="150" height="150" fill="#1e3241"/><text transform="translate(1968.1 1779.7)" font-size="90" fill="#fff" font-family="Akrobat-Bold, Akrobat" font-weight="700">2</text><rect x="2062" y="1672.5" width="300" height="150" fill="#fff"/><text transform="translate(2123.3 1773.1)" font-size="72" font-family="Akrobat-SemiBold, Akrobat" font-weight="700">65.3 м</text><text transform="translate(2283.4 1749.2) scale(0.58)" font-size="72" font-family="Akrobat-SemiBold, Akrobat" font-weight="700">2</text><rect x="2497.7" y="1632.5" width="150" height="150" fill="#1e3241"/><text transform="translate(2559.3 1739.7)" font-size="90" fill="#fff" font-family="Akrobat-Bold, Akrobat" font-weight="700">1</text><rect x="2647.7" y="1632.5" width="300" height="150" fill="#fff"/><text transform="translate(2707.9 1733.1)" font-size="72" font-family="Akrobat-SemiBold, Akrobat" font-weight="700">49.9 м</text><text transform="translate(2870.2 1709.2) scale(0.58)" font-size="72" font-family="Akrobat-SemiBold, Akrobat" font-weight="700">2</text></svg>