<svg xmlns="http://www.w3.org/2000/svg" viewBox="0 0 3024.2 2073.6"><title>5.2-6-7</title><rect x="156.3" y="429.5" width="150" height="150" fill="#1e3241"/><text transform="translate(212.4 536.7)" font-size="90" fill="#fff" font-family="Akrobat-Bold, Akrobat" font-weight="700">2</text><rect x="306.3" y="429.5" width="300" height="150" fill="#fff"/><text transform="translate(356.4 530.1)" font-size="72" font-family="Akrobat-SemiBold, Akrobat" font-weight="700">102.3 м</text><text transform="translate(538.9 506.2) scale(0.58)" font-size="72" font-family="Akrobat-SemiBold, Akrobat" font-weight="700">2</text><rect x="878.6" y="429.5" width="150" height="150" fill="#1e3241"/><text transform="translate(940.2 536.7)" font-size="90" fill="#fff" font-family="Akrobat-Bold, Akrobat" font-weight="700">1</text><rect x="1028.6" y="429.5" width="300" height="150" fill="#fff"/><text transform="translate(1088.9 530.1)" font-size="72" font-family="Akrobat-SemiBold, Akrobat" font-weight="700">55.0 м</text><text transform="translate(1251 506.2) scale(0.58)" font-size="72" font-family="Akrobat-SemiBold, Akrobat" font-weight="700">2</text><rect x="2144.1" y="389.5" width="150" height="150" fill="#1e3241"/><text transform="translate(2200.2 496.7)" font-size="90" fill="#fff" font-family="Akrobat-Bold, Akrobat" font-weight="700">2</text><rect x="2294.1" y="389.5" width="300" height="150" fill="#fff"/><text transform="translate(2360.1 490.1)" font-size="72" font-family="Akrobat-SemiBold, Akrobat" font-weight="700"><tspan letter-spacing="-0.03em">7</tspan><tspan x="23.9" y="0" letter-spacing="0em">8</tspan><tspan x="57" y="0" letter-spacing="-0.07em">.</tspan><tspan x="65.1" y="0">4 м</tspan></text><text transform="translate(2510.8 466.2) scale(0.58)" font-size="72" font-family="Akrobat-SemiBold, Akrobat" font-weight="700">2</text><rect x="619.7" y="1672.5" width="150" height="150" fill="#1e3241"/><text transform="translate(675.7 1779.7)" font-size="90" fill="#fff" font-family="Akrobat-Bold, Akrobat" font-weight="700">2</text><rect x="769.7" y="1672.5" width="300" height="150" fill="#fff"/><text transform="translate(837.4 1773.1)" font-size="72" font-family="Akrobat-SemiBold, Akrobat" font-weight="700">71.9 м</text><text transform="translate(984.6 1749.2) scale(0.58)" font-size="72" font-family="Akrobat-SemiBold, Akrobat" font-weight="700">2</text><rect x="1912" y="1672.5" width="150" height="150" fill="#1e3241"/><text transform="translate(1968.1 1779.7)" font-size="90" fill="#fff" font-family="Akrobat-Bold, Akrobat" font-weight="700">2</text><rect x="2062" y="1672.5" width="300" height="150" fill="#fff"/><text transform="translate(2129.8 1773.1)" font-size="72" font-family="Akrobat-SemiBold, Akrobat" font-weight="700">71.9 м</text><text transform="translate(2276.9 1749.2) scale(0.58)" font-size="72" font-family="Akrobat-SemiBold, Akrobat" font-weight="700">2</text><rect x="2497.7" y="1632.5" width="150" height="150" fill="#1e3241"/><text transform="translate(2559.3 1739.7)" font-size="90" fill="#fff" font-family="Akrobat-Bold, Akrobat" font-weight="700">1</text><rect x="2647.7" y="1632.5" width="300" height="150" fill="#fff"/><text transform="translate(2710.7 1733.1)" font-size="72" font-family="Akrobat-SemiBold, Akrobat" font-weight="700">49.7 м</text><text transform="translate(2867.4 1709.2) scale(0.58)" font-size="72" font-family="Akrobat-SemiBold, Akrobat" font-weight="700">2</text></svg>