<svg xmlns="http://www.w3.org/2000/svg" viewBox="0 0 3024.1 2225.1"><title>5.2-1</title><rect x="159.3" y="493.5" width="150" height="150" fill="#1e3241"/><text transform="translate(215.4 600.7)" font-size="90" fill="#fff" font-family="Akrobat-Bold, Akrobat" font-weight="700">2</text><rect x="309.3" y="493.5" width="300" height="150" fill="#fff"/><text transform="translate(363.9 594.1)" font-size="72" font-family="Akrobat-SemiBold, Akrobat" font-weight="700">101.2 м</text><text transform="translate(537.4 570.2) scale(0.58)" font-size="72" font-family="Akrobat-SemiBold, Akrobat" font-weight="700">2</text><rect x="881.6" y="493.5" width="150" height="150" fill="#1e3241"/><text transform="translate(943.2 600.7)" font-size="90" fill="#fff" font-family="Akrobat-Bold, Akrobat" font-weight="700">1</text><rect x="1031.6" y="493.5" width="300" height="150" fill="#fff"/><text transform="translate(1101.1 594.1)" font-size="72" font-family="Akrobat-SemiBold, Akrobat" font-weight="700">54<tspan x="60.1" y="0" letter-spacing="-0.08em">.</tspan><tspan x="67.5" y="0">1 м</tspan></text><text transform="translate(1244.8 570.2) scale(0.58)" font-size="72" font-family="Akrobat-SemiBold, Akrobat" font-weight="700">2</text><rect x="2147.1" y="453.5" width="150" height="150" fill="#1e3241"/><text transform="translate(2203.2 560.7)" font-size="90" fill="#fff" font-family="Akrobat-Bold, Akrobat" font-weight="700">2</text><rect x="2297.1" y="453.5" width="300" height="150" fill="#fff"/><text transform="translate(2368.2 554.1)" font-size="72" font-family="Akrobat-SemiBold, Akrobat" font-weight="700"><tspan letter-spacing="0.02em">7</tspan><tspan x="27.8" y="0" letter-spacing="-0.1em">7</tspan><tspan x="46.7" y="0" letter-spacing="-0.07em">.</tspan><tspan x="54.9" y="0">4 м</tspan></text><text transform="translate(2508.7 530.2) scale(0.58)" font-size="72" font-family="Akrobat-SemiBold, Akrobat" font-weight="700">2</text><rect x="622.7" y="1736.5" width="150" height="150" fill="#1e3241"/><text transform="translate(678.7 1843.7)" font-size="90" fill="#fff" font-family="Akrobat-Bold, Akrobat" font-weight="700">2</text><rect x="772.7" y="1736.5" width="300" height="150" fill="#fff"/><text transform="translate(841.3 1837.1)" font-size="72" font-family="Akrobat-SemiBold, Akrobat" font-weight="700">71.3 м</text><text transform="translate(986.7 1813.2) scale(0.58)" font-size="72" font-family="Akrobat-SemiBold, Akrobat" font-weight="700">2</text><rect x="1915" y="1736.5" width="150" height="150" fill="#1e3241"/><text transform="translate(1976.6 1843.7)" font-size="90" fill="#fff" font-family="Akrobat-Bold, Akrobat" font-weight="700">1</text><rect x="2065" y="1736.5" width="300" height="150" fill="#fff"/><text transform="translate(2126.1 1837.1)" font-size="72" font-family="Akrobat-SemiBold, Akrobat" font-weight="700">49.3 м</text><text transform="translate(2286.6 1813.2) scale(0.58)" font-size="72" font-family="Akrobat-SemiBold, Akrobat" font-weight="700">2</text><rect x="2500.7" y="1696.5" width="150" height="150" fill="#1e3241"/><text transform="translate(2562.3 1803.7)" font-size="90" fill="#fff" font-family="Akrobat-Bold, Akrobat" font-weight="700">1</text><rect x="2650.7" y="1696.5" width="300" height="150" fill="#fff"/><text transform="translate(2716.5 1797.1)" font-size="72" font-family="Akrobat-SemiBold, Akrobat" font-weight="700">51.6 м</text><text transform="translate(2867.6 1773.2) scale(0.58)" font-size="72" font-family="Akrobat-SemiBold, Akrobat" font-weight="700">2</text></svg>