<svg xmlns="http://www.w3.org/2000/svg" viewBox="0 0 3024.1 2073.6"><title>5.2-8</title><rect x="156.3" y="419.5" width="150" height="150" fill="#1e3241"/><text transform="translate(212.4 526.7)" font-size="90" fill="#fff" font-family="Akrobat-Bold, Akrobat" font-weight="700">2</text><rect x="306.3" y="419.5" width="300" height="150" fill="#fff"/><text transform="translate(355.5 520.1)" font-size="72" font-family="Akrobat-SemiBold, Akrobat" font-weight="700">102.6 м</text><text transform="translate(539.8 496.2) scale(0.58)" font-size="72" font-family="Akrobat-SemiBold, Akrobat" font-weight="700">2</text><rect x="878.6" y="419.5" width="150" height="150" fill="#1e3241"/><text transform="translate(940.2 526.7)" font-size="90" fill="#fff" font-family="Akrobat-Bold, Akrobat" font-weight="700">1</text><rect x="1028.6" y="419.5" width="300" height="150" fill="#fff"/><text transform="translate(1088.9 520.1)" font-size="72" font-family="Akrobat-SemiBold, Akrobat" font-weight="700">55.0 м</text><text transform="translate(1251 496.2) scale(0.58)" font-size="72" font-family="Akrobat-SemiBold, Akrobat" font-weight="700">2</text><rect x="2144.1" y="379.5" width="150" height="150" fill="#1e3241"/><text transform="translate(2200.2 486.7)" font-size="90" fill="#fff" font-family="Akrobat-Bold, Akrobat" font-weight="700">2</text><rect x="2294.1" y="379.5" width="300" height="150" fill="#fff"/><text transform="translate(2360.1 480.1)" font-size="72" font-family="Akrobat-SemiBold, Akrobat" font-weight="700"><tspan letter-spacing="-0.03em">7</tspan><tspan x="23.9" y="0" letter-spacing="0em">8</tspan><tspan x="57" y="0" letter-spacing="-0.07em">.</tspan><tspan x="65.1" y="0">4 м</tspan></text><text transform="translate(2510.8 456.2) scale(0.58)" font-size="72" font-family="Akrobat-SemiBold, Akrobat" font-weight="700">2</text><rect x="619.7" y="1662.5" width="150" height="150" fill="#1e3241"/><text transform="translate(675.7 1769.7)" font-size="90" fill="#fff" font-family="Akrobat-Bold, Akrobat" font-weight="700">2</text><rect x="769.7" y="1662.5" width="300" height="150" fill="#fff"/><text transform="translate(837.4 1763.1)" font-size="72" font-family="Akrobat-SemiBold, Akrobat" font-weight="700">71.9 м</text><text transform="translate(984.6 1739.2) scale(0.58)" font-size="72" font-family="Akrobat-SemiBold, Akrobat" font-weight="700">2</text><rect x="1912" y="1662.5" width="150" height="150" fill="#1e3241"/><text transform="translate(1968.1 1769.7)" font-size="90" fill="#fff" font-family="Akrobat-Bold, Akrobat" font-weight="700">2</text><rect x="2062" y="1662.5" width="300" height="150" fill="#fff"/><text transform="translate(2129.8 1763.1)" font-size="72" font-family="Akrobat-SemiBold, Akrobat" font-weight="700">71.9 м</text><text transform="translate(2276.9 1739.2) scale(0.58)" font-size="72" font-family="Akrobat-SemiBold, Akrobat" font-weight="700">2</text><rect x="2497.7" y="1622.5" width="150" height="150" fill="#1e3241"/><text transform="translate(2559.3 1729.7)" font-size="90" fill="#fff" font-family="Akrobat-Bold, Akrobat" font-weight="700">1</text><rect x="2647.7" y="1622.5" width="300" height="150" fill="#fff"/><text transform="translate(2710.7 1723.1)" font-size="72" font-family="Akrobat-SemiBold, Akrobat" font-weight="700">49.7 м</text><text transform="translate(2867.4 1699.2) scale(0.58)" font-size="72" font-family="Akrobat-SemiBold, Akrobat" font-weight="700">2</text></svg>