<svg xmlns="http://www.w3.org/2000/svg" viewBox="0 0 3024 2101.3"><title>6.1-9</title><rect x="45.8" y="1630.6" width="150" height="150" fill="#1e3241"/><text transform="translate(101.9 1737.8)" font-size="90" fill="#fff" font-family="Akrobat-Bold, Akrobat" font-weight="700">3</text><rect x="195.8" y="1630.6" width="300" height="150" fill="#fff"/><text transform="translate(250.3 1731.2)" font-size="72" font-family="Akrobat-SemiBold, Akrobat" font-weight="700">101.5 м</text><text transform="translate(424 1707.2) scale(0.58)" font-size="72" font-family="Akrobat-SemiBold, Akrobat" font-weight="700">2</text><rect x="639.2" y="1630.6" width="150" height="150" fill="#1e3241"/><text transform="translate(700.9 1737.8)" font-size="90" fill="#fff" font-family="Akrobat-Bold, Akrobat" font-weight="700">1</text><rect x="789.2" y="1630.6" width="300" height="150" fill="#fff"/><text transform="translate(864 1731.2)" font-size="72" font-family="Akrobat-SemiBold, Akrobat" font-weight="700">51.2м</text><text transform="translate(997.2 1707.2) scale(0.58)" font-size="72" font-family="Akrobat-SemiBold, Akrobat" font-weight="700">2</text><rect x="1384.4" y="1630.6" width="150" height="150" fill="#1e3241"/><text transform="translate(1446 1737.8)" font-size="90" fill="#fff" font-family="Akrobat-Bold, Akrobat" font-weight="700">1</text><rect x="1534.4" y="1630.6" width="300" height="150" fill="#fff"/><text transform="translate(1608.7 1731.2)" font-size="72" font-family="Akrobat-SemiBold, Akrobat" font-weight="700">51<tspan x="50.6" y="0" letter-spacing="-0.08em">.</tspan><tspan x="58" y="0">1 м</tspan></text><text transform="translate(1742.8 1707.2) scale(0.58)" font-size="72" font-family="Akrobat-SemiBold, Akrobat" font-weight="700">2</text><rect x="2160" y="1630.6" width="150" height="150" fill="#1e3241"/><text transform="translate(2216.1 1737.8)" font-size="90" fill="#fff" font-family="Akrobat-Bold, Akrobat" font-weight="700">2</text><rect x="2310" y="1630.6" width="300" height="150" fill="#fff"/><text transform="translate(2378.7 1731.2)" font-size="72" font-family="Akrobat-SemiBold, Akrobat" font-weight="700"><tspan letter-spacing="0.02em">7</tspan><tspan x="27.8" y="0" letter-spacing="-0.1em">7</tspan><tspan x="46.7" y="0">.2 м</tspan></text><text transform="translate(2524 1707.2) scale(0.58)" font-size="72" font-family="Akrobat-SemiBold, Akrobat" font-weight="700">2</text><rect x="1388" y="362.9" width="150" height="150" fill="#1e3241"/><text transform="translate(1449.6 470.1)" font-size="90" fill="#fff" font-family="Akrobat-Bold, Akrobat" font-weight="700">1</text><rect x="1538" y="362.9" width="300" height="150" fill="#fff"/><text transform="translate(1600.3 463.5)" font-size="72" font-family="Akrobat-SemiBold, Akrobat" font-weight="700">50.7 м</text><text transform="translate(1758.4 439.6) scale(0.58)" font-size="72" font-family="Akrobat-SemiBold, Akrobat" font-weight="700">2</text><rect x="2190.1" y="362.9" width="150" height="150" fill="#1e3241"/><text transform="translate(2246.1 470.1)" font-size="90" fill="#fff" font-family="Akrobat-Bold, Akrobat" font-weight="700">2</text><rect x="2340.1" y="362.9" width="300" height="150" fill="#fff"/><text transform="translate(2408.7 463.5)" font-size="72" font-family="Akrobat-SemiBold, Akrobat" font-weight="700"><tspan letter-spacing="0.02em">7</tspan><tspan x="27.8" y="0" letter-spacing="-0.1em">7</tspan><tspan x="46.7" y="0">.3 м</tspan></text><text transform="translate(2554.1 439.6) scale(0.58)" font-size="72" font-family="Akrobat-SemiBold, Akrobat" font-weight="700">2</text></svg>