<svg xmlns="http://www.w3.org/2000/svg" viewBox="0 0 3024.1 2151.7"><title>6.1-6-7</title><rect x="2181.2" y="387" width="150" height="150" fill="#1e3241"/><text transform="translate(2237.3 494.2)" font-size="90" fill="#fff" font-family="Akrobat-Bold, Akrobat" font-weight="700">2</text><rect x="2331.2" y="387" width="300" height="150" fill="#fff"/><text transform="translate(2394.3 487.6)" font-size="72" font-family="Akrobat-SemiBold, Akrobat" font-weight="700">82<tspan x="62.7" y="0" letter-spacing="-0.07em">.</tspan><tspan x="70.8" y="0">4 м</tspan></text><text transform="translate(2550.8 463.7) scale(0.58)" font-size="72" font-family="Akrobat-SemiBold, Akrobat" font-weight="700">2</text><rect x="618.2" y="1616" width="150" height="150" fill="#1e3241"/><text transform="translate(679.8 1723.2)" font-size="90" fill="#fff" font-family="Akrobat-Bold, Akrobat" font-weight="700">1</text><rect x="768.2" y="1616" width="300" height="150" fill="#fff"/><text transform="translate(828.5 1716.6)" font-size="72" font-family="Akrobat-SemiBold, Akrobat" font-weight="700">54.8 м</text><text transform="translate(990.6 1692.7) scale(0.58)" font-size="72" font-family="Akrobat-SemiBold, Akrobat" font-weight="700">2</text><rect x="47" y="1614.6" width="150" height="150" fill="#1e3241"/><text transform="translate(103.1 1721.7)" font-size="90" fill="#fff" font-family="Akrobat-Bold, Akrobat" font-weight="700">3</text><rect x="197" y="1614.6" width="300" height="150" fill="#fff"/><text transform="translate(246.2 1715.2)" font-size="72" font-family="Akrobat-SemiBold, Akrobat" font-weight="700">102.6 м</text><text transform="translate(430.5 1691.2) scale(0.58)" font-size="72" font-family="Akrobat-SemiBold, Akrobat" font-weight="700">2</text><rect x="1350.3" y="1616" width="150" height="150" fill="#1e3241"/><text transform="translate(1411.9 1723.2)" font-size="90" fill="#fff" font-family="Akrobat-Bold, Akrobat" font-weight="700">1</text><rect x="1500.3" y="1616" width="300" height="150" fill="#fff"/><text transform="translate(1564.1 1716.6)" font-size="72" font-family="Akrobat-SemiBold, Akrobat" font-weight="700">54.7 м</text><text transform="translate(1719.2 1692.7) scale(0.58)" font-size="72" font-family="Akrobat-SemiBold, Akrobat" font-weight="700">2</text><rect x="2115.3" y="1616" width="150" height="150" fill="#1e3241"/><text transform="translate(2171.4 1723.2)" font-size="90" fill="#fff" font-family="Akrobat-Bold, Akrobat" font-weight="700">2</text><rect x="2265.3" y="1616" width="300" height="150" fill="#fff"/><text transform="translate(2332.9 1716.6)" font-size="72" font-family="Akrobat-SemiBold, Akrobat" font-weight="700">81<tspan x="53.8" y="0" letter-spacing="-0.07em">.</tspan><tspan x="61.9" y="0">4 м</tspan></text><text transform="translate(2480.5 1692.7) scale(0.58)" font-size="72" font-family="Akrobat-SemiBold, Akrobat" font-weight="700">2</text><rect x="1361.8" y="387" width="150" height="150" fill="#1e3241"/><text transform="translate(1423.4 494.2)" font-size="90" fill="#fff" font-family="Akrobat-Bold, Akrobat" font-weight="700">1</text><rect x="1511.8" y="387" width="300" height="150" fill="#fff"/><text transform="translate(1573.7 487.6)" font-size="72" font-family="Akrobat-SemiBold, Akrobat" font-weight="700">54.5 м</text><text transform="translate(1732.6 463.7) scale(0.58)" font-size="72" font-family="Akrobat-SemiBold, Akrobat" font-weight="700">2</text></svg>