<svg xmlns="http://www.w3.org/2000/svg" viewBox="0 0 3024.1 2151.7"><title>6.1-2-3-4-5</title><rect x="2180.2" y="377" width="150" height="150" fill="#1e3241"/><text transform="translate(2236.3 484.2)" font-size="90" fill="#fff" font-family="Akrobat-Bold, Akrobat" font-weight="700">2</text><rect x="2330.2" y="377" width="300" height="150" fill="#fff"/><text transform="translate(2393.3 477.6)" font-size="72" font-family="Akrobat-SemiBold, Akrobat" font-weight="700">82<tspan x="62.7" y="0" letter-spacing="-0.07em">.</tspan><tspan x="70.8" y="0">4 м</tspan></text><text transform="translate(2549.8 453.7) scale(0.58)" font-size="72" font-family="Akrobat-SemiBold, Akrobat" font-weight="700">2</text><rect x="617.2" y="1606" width="150" height="150" fill="#1e3241"/><text transform="translate(678.8 1713.2)" font-size="90" fill="#fff" font-family="Akrobat-Bold, Akrobat" font-weight="700">1</text><rect x="767.2" y="1606" width="300" height="150" fill="#fff"/><text transform="translate(827.5 1706.6)" font-size="72" font-family="Akrobat-SemiBold, Akrobat" font-weight="700">54.8 м</text><text transform="translate(989.6 1682.7) scale(0.58)" font-size="72" font-family="Akrobat-SemiBold, Akrobat" font-weight="700">2</text><rect x="46" y="1604.6" width="150" height="150" fill="#1e3241"/><text transform="translate(102.1 1711.7)" font-size="90" fill="#fff" font-family="Akrobat-Bold, Akrobat" font-weight="700">3</text><rect x="196" y="1604.6" width="300" height="150" fill="#fff"/><text transform="translate(245.2 1705.2)" font-size="72" font-family="Akrobat-SemiBold, Akrobat" font-weight="700">102.6 м</text><text transform="translate(429.5 1681.2) scale(0.58)" font-size="72" font-family="Akrobat-SemiBold, Akrobat" font-weight="700">2</text><rect x="1349.3" y="1606" width="150" height="150" fill="#1e3241"/><text transform="translate(1410.9 1713.2)" font-size="90" fill="#fff" font-family="Akrobat-Bold, Akrobat" font-weight="700">1</text><rect x="1499.3" y="1606" width="300" height="150" fill="#fff"/><text transform="translate(1563.1 1706.6)" font-size="72" font-family="Akrobat-SemiBold, Akrobat" font-weight="700">54.7 м</text><text transform="translate(1718.2 1682.7) scale(0.58)" font-size="72" font-family="Akrobat-SemiBold, Akrobat" font-weight="700">2</text><rect x="2114.3" y="1606" width="150" height="150" fill="#1e3241"/><text transform="translate(2170.4 1713.2)" font-size="90" fill="#fff" font-family="Akrobat-Bold, Akrobat" font-weight="700">2</text><rect x="2264.3" y="1606" width="300" height="150" fill="#fff"/><text transform="translate(2331.9 1706.6)" font-size="72" font-family="Akrobat-SemiBold, Akrobat" font-weight="700">81<tspan x="53.8" y="0" letter-spacing="-0.07em">.</tspan><tspan x="61.9" y="0">4 м</tspan></text><text transform="translate(2479.5 1682.7) scale(0.58)" font-size="72" font-family="Akrobat-SemiBold, Akrobat" font-weight="700">2</text><rect x="1360.8" y="377" width="150" height="150" fill="#1e3241"/><text transform="translate(1422.4 484.2)" font-size="90" fill="#fff" font-family="Akrobat-Bold, Akrobat" font-weight="700">1</text><rect x="1510.8" y="377" width="300" height="150" fill="#fff"/><text transform="translate(1572.7 477.6)" font-size="72" font-family="Akrobat-SemiBold, Akrobat" font-weight="700">54.5 м</text><text transform="translate(1731.6 453.7) scale(0.58)" font-size="72" font-family="Akrobat-SemiBold, Akrobat" font-weight="700">2</text></svg>