<svg xmlns="http://www.w3.org/2000/svg" viewBox="0 0 3024.1 2228.2"><title>6.1-1</title><rect x="2209.2" y="452" width="150" height="150" fill="#1e3241"/><text transform="translate(2265.3 559.2)" font-size="90" fill="#fff" font-family="Akrobat-Bold, Akrobat" font-weight="700">2</text><rect x="2359.2" y="452" width="300" height="150" fill="#fff"/><text transform="translate(2424.3 552.6)" font-size="72" font-family="Akrobat-SemiBold, Akrobat" font-weight="700">81.5 м</text><text transform="translate(2576.8 528.7) scale(0.58)" font-size="72" font-family="Akrobat-SemiBold, Akrobat" font-weight="700">2</text><rect x="286.2" y="1661" width="150" height="150" fill="#1e3241"/><text transform="translate(341.8 1768.2)" font-size="90" fill="#fff" font-family="Akrobat-Bold, Akrobat" font-weight="700">4</text><rect x="436.2" y="1661" width="300" height="150" fill="#fff"/><text transform="translate(487.8 1761.6)" font-size="72" font-family="Akrobat-SemiBold, Akrobat" font-weight="700">142.5 м</text><text transform="translate(667.3 1737.7) scale(0.58)" font-size="72" font-family="Akrobat-SemiBold, Akrobat" font-weight="700">2</text><rect x="1368.3" y="1661" width="150" height="150" fill="#1e3241"/><text transform="translate(1429.9 1768.2)" font-size="90" fill="#fff" font-family="Akrobat-Bold, Akrobat" font-weight="700">1</text><rect x="1518.3" y="1661" width="300" height="150" fill="#fff"/><text transform="translate(1580.2 1761.6)" font-size="72" font-family="Akrobat-SemiBold, Akrobat" font-weight="700">54.5 м</text><text transform="translate(1739.1 1737.7) scale(0.58)" font-size="72" font-family="Akrobat-SemiBold, Akrobat" font-weight="700">2</text><rect x="2203.3" y="1661" width="150" height="150" fill="#1e3241"/><text transform="translate(2259.4 1768.2)" font-size="90" fill="#fff" font-family="Akrobat-Bold, Akrobat" font-weight="700">2</text><rect x="2353.3" y="1661" width="300" height="150" fill="#fff"/><text transform="translate(2415.7 1761.6)" font-size="72" font-family="Akrobat-SemiBold, Akrobat" font-weight="700">79.9 м</text><text transform="translate(2573.7 1737.7) scale(0.58)" font-size="72" font-family="Akrobat-SemiBold, Akrobat" font-weight="700">2</text><rect x="1389.8" y="452" width="150" height="150" fill="#1e3241"/><text transform="translate(1451.4 559.2)" font-size="90" fill="#fff" font-family="Akrobat-Bold, Akrobat" font-weight="700">1</text><rect x="1539.8" y="452" width="300" height="150" fill="#fff"/><text transform="translate(1601.9 552.6)" font-size="72" font-family="Akrobat-SemiBold, Akrobat" font-weight="700">53.5 м</text><text transform="translate(1760.4 528.7) scale(0.58)" font-size="72" font-family="Akrobat-SemiBold, Akrobat" font-weight="700">2</text></svg>