<svg xmlns="http://www.w3.org/2000/svg" viewBox="0 0 3024.1 2228.2"><title>6.2-1</title><rect x="131.9" y="442" width="150" height="150" fill="#1e3241"/><text transform="translate(188 549.2)" font-size="90" fill="#fff" font-family="Akrobat-Bold, Akrobat" font-weight="700">2</text><rect x="281.9" y="442" width="300" height="150" fill="#fff"/><text transform="translate(347 542.6)" font-size="72" font-family="Akrobat-SemiBold, Akrobat" font-weight="700">81.5 м</text><text transform="translate(499.5 518.7) scale(0.58)" font-size="72" font-family="Akrobat-SemiBold, Akrobat" font-weight="700">2</text><rect x="119.1" y="1672" width="150" height="150" fill="#1e3241"/><text transform="translate(175.1 1779.2)" font-size="90" fill="#fff" font-family="Akrobat-Bold, Akrobat" font-weight="700">2</text><rect x="269.1" y="1672" width="300" height="150" fill="#fff"/><text transform="translate(331.4 1772.6)" font-size="72" font-family="Akrobat-SemiBold, Akrobat" font-weight="700">79.9 м</text><text transform="translate(489.4 1748.7) scale(0.58)" font-size="72" font-family="Akrobat-SemiBold, Akrobat" font-weight="700">2</text><rect x="1228.6" y="1672" width="150" height="150" fill="#1e3241"/><text transform="translate(1290.2 1779.2)" font-size="90" fill="#fff" font-family="Akrobat-Bold, Akrobat" font-weight="700">1</text><rect x="1378.6" y="1672" width="300" height="150" fill="#fff"/><text transform="translate(1440.5 1772.6)" font-size="72" font-family="Akrobat-SemiBold, Akrobat" font-weight="700">54.5 м</text><text transform="translate(1599.4 1748.7) scale(0.58)" font-size="72" font-family="Akrobat-SemiBold, Akrobat" font-weight="700">2</text><rect x="2305.5" y="1672" width="150" height="150" fill="#1e3241"/><text transform="translate(2361 1779.2)" font-size="90" fill="#fff" font-family="Akrobat-Bold, Akrobat" font-weight="700">4</text><rect x="2455.5" y="1672" width="300" height="150" fill="#fff"/><text transform="translate(2507.1 1772.6)" font-size="72" font-family="Akrobat-SemiBold, Akrobat" font-weight="700">142.5 м</text><text transform="translate(2686.5 1748.7) scale(0.58)" font-size="72" font-family="Akrobat-SemiBold, Akrobat" font-weight="700">2</text><rect x="1144.7" y="452" width="150" height="150" fill="#1e3241"/><text transform="translate(1206.3 559.2)" font-size="90" fill="#fff" font-family="Akrobat-Bold, Akrobat" font-weight="700">1</text><rect x="1294.7" y="452" width="300" height="150" fill="#fff"/><text transform="translate(1356 552.6)" font-size="72" font-family="Akrobat-SemiBold, Akrobat" font-weight="700">53.6 м</text><text transform="translate(1516.1 528.7) scale(0.58)" font-size="72" font-family="Akrobat-SemiBold, Akrobat" font-weight="700">2</text></svg>