<svg xmlns="http://www.w3.org/2000/svg" viewBox="0 0 3024 2101.3"><title>6.2-9</title><rect x="118.1" y="336.4" width="150" height="150" fill="#1e3241"/><text transform="translate(174.1 443.5)" font-size="90" fill="#fff" font-family="Akrobat-Bold, Akrobat" font-weight="700">2</text><rect x="268.1" y="336.4" width="300" height="150" fill="#fff"/><text transform="translate(336.7 437)" font-size="72" font-family="Akrobat-SemiBold, Akrobat" font-weight="700"><tspan letter-spacing="0.02em">7</tspan><tspan x="27.8" y="0" letter-spacing="-0.1em">7</tspan><tspan x="46.7" y="0">.3 м</tspan></text><text transform="translate(482.1 413) scale(0.58)" font-size="72" font-family="Akrobat-SemiBold, Akrobat" font-weight="700">2</text><rect x="118.1" y="1613.6" width="150" height="150" fill="#1e3241"/><text transform="translate(174.1 1720.8)" font-size="90" fill="#fff" font-family="Akrobat-Bold, Akrobat" font-weight="700">2</text><rect x="268.1" y="1613.6" width="300" height="150" fill="#fff"/><text transform="translate(336.8 1714.2)" font-size="72" font-family="Akrobat-SemiBold, Akrobat" font-weight="700"><tspan letter-spacing="0.02em">7</tspan><tspan x="27.8" y="0" letter-spacing="-0.1em">7</tspan><tspan x="46.7" y="0">.2 м</tspan></text><text transform="translate(482 1690.3) scale(0.58)" font-size="72" font-family="Akrobat-SemiBold, Akrobat" font-weight="700">2</text><rect x="1235.4" y="1613.6" width="150" height="150" fill="#1e3241"/><text transform="translate(1297 1720.8)" font-size="90" fill="#fff" font-family="Akrobat-Bold, Akrobat" font-weight="700">1</text><rect x="1385.4" y="1613.6" width="300" height="150" fill="#fff"/><text transform="translate(1459.7 1714.2)" font-size="72" font-family="Akrobat-SemiBold, Akrobat" font-weight="700">51<tspan x="50.6" y="0" letter-spacing="-0.08em">.</tspan><tspan x="58" y="0">1 м</tspan></text><text transform="translate(1593.8 1690.3) scale(0.58)" font-size="72" font-family="Akrobat-SemiBold, Akrobat" font-weight="700">2</text><rect x="1901.8" y="1613.6" width="150" height="150" fill="#1e3241"/><text transform="translate(1963.4 1720.8)" font-size="90" fill="#fff" font-family="Akrobat-Bold, Akrobat" font-weight="700">1</text><rect x="2051.8" y="1613.6" width="300" height="150" fill="#fff"/><text transform="translate(2118.5 1714.2)" font-size="72" font-family="Akrobat-SemiBold, Akrobat" font-weight="700">51.2 м</text><text transform="translate(2267.7 1690.3) scale(0.58)" font-size="72" font-family="Akrobat-SemiBold, Akrobat" font-weight="700">2</text><rect x="2529" y="1613.6" width="150" height="150" fill="#1e3241"/><text transform="translate(2585.1 1720.8)" font-size="90" fill="#fff" font-family="Akrobat-Bold, Akrobat" font-weight="700">3</text><rect x="2679" y="1613.6" width="300" height="150" fill="#fff"/><text transform="translate(2733.5 1714.2)" font-size="72" font-family="Akrobat-SemiBold, Akrobat" font-weight="700">101.5 м</text><text transform="translate(2907.2 1690.3) scale(0.58)" font-size="72" font-family="Akrobat-SemiBold, Akrobat" font-weight="700">2</text><rect x="1232.2" y="336.4" width="150" height="150" fill="#1e3241"/><text transform="translate(1293.8 443.5)" font-size="90" fill="#fff" font-family="Akrobat-Bold, Akrobat" font-weight="700">1</text><rect x="1382.2" y="336.4" width="300" height="150" fill="#fff"/><text transform="translate(1444.5 437)" font-size="72" font-family="Akrobat-SemiBold, Akrobat" font-weight="700">50.7 м</text><text transform="translate(1602.6 413) scale(0.58)" font-size="72" font-family="Akrobat-SemiBold, Akrobat" font-weight="700">2</text></svg>