<svg xmlns="http://www.w3.org/2000/svg" viewBox="0 0 3024.1 2151.7"><title>6.2-6-7-8</title><rect x="119.1" y="362.4" width="150" height="150" fill="#1e3241"/><text transform="translate(175.1 469.5)" font-size="90" fill="#fff" font-family="Akrobat-Bold, Akrobat" font-weight="700">2</text><rect x="269.1" y="362.4" width="300" height="150" fill="#fff"/><text transform="translate(332.2 463)" font-size="72" font-family="Akrobat-SemiBold, Akrobat" font-weight="700">82<tspan x="62.7" y="0" letter-spacing="-0.07em">.</tspan><tspan x="70.8" y="0">4 м</tspan></text><text transform="translate(488.6 439) scale(0.58)" font-size="72" font-family="Akrobat-SemiBold, Akrobat" font-weight="700">2</text><rect x="119.1" y="1639.6" width="150" height="150" fill="#1e3241"/><text transform="translate(175.1 1746.8)" font-size="90" fill="#fff" font-family="Akrobat-Bold, Akrobat" font-weight="700">2</text><rect x="269.1" y="1639.6" width="300" height="150" fill="#fff"/><text transform="translate(336.6 1740.2)" font-size="72" font-family="Akrobat-SemiBold, Akrobat" font-weight="700">81<tspan x="53.8" y="0" letter-spacing="-0.07em">.</tspan><tspan x="61.9" y="0">4 м</tspan></text><text transform="translate(484.2 1716.3) scale(0.58)" font-size="72" font-family="Akrobat-SemiBold, Akrobat" font-weight="700">2</text><rect x="1236.4" y="1639.6" width="150" height="150" fill="#1e3241"/><text transform="translate(1298 1746.8)" font-size="90" fill="#fff" font-family="Akrobat-Bold, Akrobat" font-weight="700">1</text><rect x="1386.4" y="1639.6" width="300" height="150" fill="#fff"/><text transform="translate(1458.2 1740.2)" font-size="72" font-family="Akrobat-SemiBold, Akrobat" font-weight="700">54.7м</text><text transform="translate(1597.3 1716.3) scale(0.58)" font-size="72" font-family="Akrobat-SemiBold, Akrobat" font-weight="700">2</text><rect x="1902.8" y="1639.6" width="150" height="150" fill="#1e3241"/><text transform="translate(1964.4 1746.8)" font-size="90" fill="#fff" font-family="Akrobat-Bold, Akrobat" font-weight="700">1</text><rect x="2052.8" y="1639.6" width="300" height="150" fill="#fff"/><text transform="translate(2113.1 1740.2)" font-size="72" font-family="Akrobat-SemiBold, Akrobat" font-weight="700">54.8 м</text><text transform="translate(2275.1 1716.3) scale(0.58)" font-size="72" font-family="Akrobat-SemiBold, Akrobat" font-weight="700">2</text><rect x="2530" y="1639.6" width="150" height="150" fill="#1e3241"/><text transform="translate(2586.1 1746.8)" font-size="90" fill="#fff" font-family="Akrobat-Bold, Akrobat" font-weight="700">3</text><rect x="2680" y="1639.6" width="300" height="150" fill="#fff"/><text transform="translate(2729.2 1740.2)" font-size="72" font-family="Akrobat-SemiBold, Akrobat" font-weight="700">102.6 м</text><text transform="translate(2913.5 1716.3) scale(0.58)" font-size="72" font-family="Akrobat-SemiBold, Akrobat" font-weight="700">2</text><rect x="1233.2" y="362.4" width="150" height="150" fill="#1e3241"/><text transform="translate(1294.8 469.5)" font-size="90" fill="#fff" font-family="Akrobat-Bold, Akrobat" font-weight="700">1</text><rect x="1383.2" y="362.4" width="300" height="150" fill="#fff"/><text transform="translate(1445.1 463)" font-size="72" font-family="Akrobat-SemiBold, Akrobat" font-weight="700">54.5 м</text><text transform="translate(1604 439) scale(0.58)" font-size="72" font-family="Akrobat-SemiBold, Akrobat" font-weight="700">2</text></svg>