<svg xmlns="http://www.w3.org/2000/svg"><symbol id="bubble" viewBox="0 0 511.6 511.6"><path d="M477.4 127.4c-23-28-54-50.2-93-66.5-39.3-16.4-82-24.5-128.6-24.5-34.6 0-67.7 4.8-99.3 14.4-31.6 9.5-59 22.5-81.7 39-22.8 16.3-41 35.7-54.5 58.3C6.8 170.8 0 194.5 0 219.3c0 28.5 8.6 55.2 25.8 80.2 17.3 25 40.8 45.8 70.7 62.8C94.5 370 92 377 89 384c-2.8 6.8-5.3 12.4-7.6 16.8S76 410 72 415.4c-3.8 5.3-6.8 9-8.8 11.3-2 2-5.2 5.8-9.8 10.8l-9 10s-.8.8-2 2.4c-1.5 1.5-2 2.3-2 2.3l-2 2.6c-.8 1.3-1.2 2.2-1 2.6 0 .4-.2 1.4-.7 3-.5 1.4-.4 2.5 0 3.3v.2c1 3.4 2.6 6.2 5 8.3 2.7 2 5.6 3 8.8 2.5 12.4-1.5 23.3-3.6 32.6-6.2 50-12.8 93.7-35.8 131.4-69 14.3 1.4 28 2 41.4 2 46.5 0 89.3-8 128.5-24.3 39.2-16.2 70.2-38.4 93-66.5 23-28 34.3-58.7 34.3-91.8 0-33-11.4-63.7-34.2-91.8z"/></symbol><symbol id="camera" viewBox="0 0 100 100"><path d="M50 40c-8.285 0-15 6.718-15 15 0 8.285 6.715 15 15 15 8.283 0 15-6.715 15-15 0-8.282-6.717-15-15-15zm40-15H78c-1.65 0-3.428-1.28-3.949-2.846l-3.102-9.309C70.426 11.28 68.65 10 67 10H33c-1.65 0-3.428 1.28-3.949 2.846l-3.102 9.309C25.426 23.72 23.65 25 22 25H10C4.5 25 0 29.5 0 35v45c0 5.5 4.5 10 10 10h80c5.5 0 10-4.5 10-10V35c0-5.5-4.5-10-10-10zM50 80c-13.807 0-25-11.193-25-25 0-13.806 11.193-25 25-25 13.805 0 25 11.194 25 25 0 13.807-11.195 25-25 25zm36.5-38.007a3.5 3.5 0 1 1 0-7 3.5 3.5 0 0 1 0 7z"/></symbol><symbol id="eye" viewBox="0 0 511.6 511.6"><path d="M506 236c-26.7-43.5-62.6-78.5-107.6-105-45-26.4-92.5-39.6-142.6-39.6-50 0-97.6 13.2-142.6 39.7-45 26.5-80.8 61.5-107.5 105C2 243 0 249.4 0 256s2 13 5.7 19.7c26.7 43.6 62.5 78.6 107.5 105 45 26.5 92.6 39.8 142.6 39.8s97.6-13.2 142.6-39.6c45-26.3 81-61.4 107.5-105.2 3.7-6.6 5.6-13.2 5.6-19.7s-2-13-5.7-19.7zm-311.4-78c17-17 37.4-25.5 61.2-25.5 3.8 0 7 1.3 9.7 4 2.7 2.6 4 6 4 9.7 0 3.8-1.3 7-4 9.7-2.6 2.6-6 4-9.7 4-16.4 0-30.3 5.7-42 17.3-11.6 11.6-17.4 25.6-17.4 42 0 3.8-1.3 7-4 9.7-2.6 2.6-6 4-9.7 4-3.8 0-7-1.4-9.7-4-2.7-2.7-4-6-4-9.7 0-23.8 8.5-44.2 25.6-61.3zM380 349c-38.3 23.2-79.6 34.7-124.2 34.7-44.5 0-86-11.5-124-34.7s-70-54.2-95.3-93.2c29-45 65.2-78.5 108.8-100.8-11.6 19.8-17.4 41.2-17.4 64.3 0 35.2 12.4 65.3 37.5 90.3s55 37.6 90.3 37.6c35.2 0 65.3-12.5 90.4-37.6s37.5-55 37.5-90.3c0-23-5.8-44.5-17.4-64.3C410 177.3 446 211 475 255.8c-25.2 39-57 70-95 93.2z"/></symbol><symbol id="search" viewBox="0 0 56.966 56.966"><path d="M55.146 51.887L41.588 37.786A22.926 22.926 0 0 0 46.984 23c0-12.682-10.318-23-23-23s-23 10.318-23 23 10.318 23 23 23c4.761 0 9.298-1.436 13.177-4.162l13.661 14.208c.571.593 1.339.92 2.162.92.779 0 1.518-.297 2.079-.837a3.004 3.004 0 0 0 .083-4.242zM23.984 6c9.374 0 17 7.626 17 17s-7.626 17-17 17-17-7.626-17-17 7.626-17 17-17z"/></symbol><symbol id="soc-facebook" viewBox="0 0 470.5 470.5"><path d="M271.5 154.2v-40.6c0-6 .3-10.8 1-14 .4-3.4 1.7-6.7 3.7-10 2-3.2 5.3-5.4 9.7-6.7 4.4-1.3 10.4-2 17.8-2h40.5V0h-64.8C242 0 215 9 198.7 26.7c-16.4 17.8-24.5 44-24.5 78.6v49h-48.6v81h48.6v235.2h97.3V235.3h64.8l8.6-81h-73.5z"/></symbol><symbol id="soc-google-plus" viewBox="0 0 491.858 491.858"><path d="M377.472 224.957H201.319v58.718H308.79c-16.032 51.048-63.714 88.077-120.055 88.077-69.492 0-125.823-56.335-125.823-125.824 0-69.492 56.333-125.823 125.823-125.823 34.994 0 66.645 14.289 89.452 37.346l42.622-46.328c-34.04-33.355-80.65-53.929-132.074-53.929C84.5 57.193 0 141.693 0 245.928s84.5 188.737 188.736 188.737c91.307 0 171.248-64.844 188.737-150.989v-58.718l-.001-.001zM491.858 224.857h-36.031v-36.031h-30.886v36.031H388.91v30.883h36.031v36.032h30.886V255.74h36.031z"/></symbol><symbol id="soc-instagram" viewBox="0 0 169.1 169.1"><path d="M122.4 0H46.7C21 0 0 21 0 46.7v75.7C0 148 21 169 46.7 169h75.7c25.7 0 46.7-21 46.7-46.6V46.7C169 21 148 0 122.5 0zM154 122.4c0 17.5-14 31.7-31.6 31.7H46.7C29.2 154 15 140 15 122.5V46.7C15 29.2 29.2 15 46.7 15h75.7C140 15 154 29.2 154 46.7v75.7z"/><path d="M84.5 41C60.5 41 41 60.5 41 84.5S60.5 128 84.5 128 128 108.7 128 84.6c0-24-19.4-43.5-43.5-43.5zm0 72C68.8 113 56 100.4 56 84.6 56 68.8 68.8 56 84.5 56S113 68.8 113 84.5c0 15.8-12.7 28.6-28.5 28.6zM130 28.3c-3 0-5.8 1-7.8 3.2-2 2-3.3 5-3.3 7.8s1 5.7 3.2 7.7c2 2 4.8 3.3 7.7 3.3 2.8 0 5.7-1.2 7.7-3.3 2-2 3.2-5 3.2-7.7 0-3-1.2-5.8-3.3-7.8-2-2-5-3.2-7.8-3.2z"/></symbol><symbol id="soc-odnoklassniki" viewBox="0 0 95.5 95.5"><path d="M43 67.3c-7.4-.8-14-2.6-19.7-7-.8-.7-1.5-1.2-2-1.8-2.6-2.4-3-5.2-1-8 1.8-2.4 4.6-3 7.6-1.7l1.5 1c10.7 7.3 25.3 7.5 36 .3 1-.7 2.2-1.4 3.5-1.7 2.5-.7 5 .3 6.3 2.5 1.6 2.6 1.5 5-.4 7-3 3-6.6 5.3-10.6 6.8-3.7 1.4-7.8 2.2-11.8 2.6.6.7 1 1 1.2 1.4l16.5 16.6c2 2 2.3 4.2 1.3 6.4-1 2.4-3.7 4-6 3.8-1.7 0-3-1-4-2-4-4-8.4-8.2-12.4-12.5-1.2-1.3-1.8-1-2.8 0L33.7 93.7c-2 2-4.2 2.3-6.4 1.2-2.4-1.3-4-3.7-3.8-6 0-1.7 1-3 2-4l16.3-16.4 1.2-1.3z"/><path d="M47.5 48.3c-13.2 0-24-11-24-24.2.2-13.3 11-24 24.3-24 13.4 0 24 11 24 24.5 0 13.2-11 24-24.3 23.8zm12-24.2c0-6.4-5.2-11.7-11.8-11.7-6.6 0-11.8 5.4-11.8 12C36 30.8 41 36 47.7 36c6.6 0 11.8-5.3 11.8-12z"/></symbol><symbol id="soc-twitter" viewBox="0 0 512 512"><path d="M512 97.2c-18.8 8.4-39 14-60.3 16.6 21.7-13 38.3-33.6 46.2-58.2-20.4 12-43 20.8-66.8 25.5-19.2-20.3-46.5-33-76.7-33-58 0-105 47-105 105 0 8.2 1 16.2 2.7 24C165 172.5 87.5 130.6 35.6 67c-9 15.5-14.2 33.5-14.2 52.8 0 36.4 18.6 68.6 46.8 87.4-17.3-.5-33.5-5.2-47.6-13v1.2c0 51 36.2 93.4 84.2 103-8.8 2.4-18 3.7-27.6 3.7-6.8 0-13.4-.7-19.8-2 13.4 41.8 52.2 72.2 98 73-35.8 28.2-81 45-130.3 45-8.4 0-16.8-.5-25-1.5 46.5 30 101.7 47.2 161 47.2 193.2 0 299-160 299-298.8 0-4.6-.2-9-.4-13.6C480 136.8 498 118.3 512 97.2z"/></symbol><symbol id="soc-vk" viewBox="0 0 304.36 304.36"><path d="M261.945 175.576c10.096 9.857 20.752 19.131 29.807 29.982 4 4.822 7.787 9.798 10.684 15.394 4.105 7.955.387 16.709-6.746 17.184l-44.34-.02c-11.436.949-20.559-3.655-28.23-11.474-6.139-6.253-11.824-12.908-17.727-19.372-2.42-2.642-4.953-5.128-7.979-7.093-6.053-3.929-11.307-2.726-14.766 3.587-3.523 6.421-4.322 13.531-4.668 20.687-.475 10.441-3.631 13.186-14.119 13.664-22.414 1.057-43.686-2.334-63.447-13.641-17.422-9.968-30.932-24.04-42.691-39.971-22.895-31.021-40.428-65.108-56.186-100.15C-2.01 76.458.584 72.22 9.295 72.07c14.465-.281 28.928-.261 43.41-.02 5.879.086 9.771 3.458 12.041 9.012 7.826 19.243 17.402 37.551 29.422 54.521 3.201 4.518 6.465 9.036 11.113 12.216 5.142 3.521 9.057 2.354 11.476-3.374 1.535-3.632 2.207-7.544 2.553-11.434 1.146-13.383 1.297-26.743-.713-40.079-1.234-8.323-5.922-13.711-14.227-15.286-4.238-.803-3.607-2.38-1.555-4.799 3.564-4.172 6.916-6.769 13.598-6.769h50.111c7.889 1.557 9.641 5.101 10.721 13.039l.043 55.663c-.086 3.073 1.535 12.192 7.07 14.226 4.43 1.448 7.35-2.096 10.008-4.905 11.998-12.734 20.561-27.783 28.211-43.366 3.395-6.852 6.314-13.968 9.143-21.078 2.096-5.276 5.385-7.872 11.328-7.757l48.229.043c1.43 0 2.877.021 4.262.258 8.127 1.385 10.354 4.881 7.844 12.817-3.955 12.451-11.65 22.827-19.174 33.251-8.043 11.129-16.645 21.877-24.621 33.072-7.328 10.223-6.746 15.376 2.357 24.255zm0 0" fill-rule="evenodd" clip-rule="evenodd"/></symbol><symbol id="weather-1" viewBox="0 0 512 512"><path d="M256 144c-61.8 0-112 50.3-112 112 0 61.8 50.3 112 112 112s112-50.3 112-112c0-61.8-50.3-112-112-112zm0 192c-44.2 0-80-35.8-80-80s35.8-80 80-80 80 35.8 80 80-35.8 80-80 80zm0-224c8.8 0 16-7.2 16-16V64c0-8.8-7.2-16-16-16s-16 7.2-16 16v32c0 8.8 7.2 16 16 16zm0 288c-8.8 0-16 7.2-16 16v32c0 8.8 7.2 16 16 16s16-7.2 16-16v-32c0-8.8-7.2-16-16-16zm124.4-245.8l22.7-22.7c6.3-6.2 6.3-16.3 0-22.6-6.2-6.3-16.3-6.3-22.6 0l-22.6 22.5c-6.2 6.3-6.2 16.4 0 22.7 6.3 6.2 16.4 6.2 22.6 0zM131.6 357.8L109 380.5c-6.3 6.2-6.3 16.3 0 22.6s16.3 6.3 22.6 0l22.6-22.5c6.2-6.3 6.2-16.4 0-22.7-6.3-6.2-16.4-6.2-22.6 0zM112 256c0-8.8-7.2-16-16-16H64c-8.8 0-16 7.2-16 16s7.2 16 16 16h32c8.8 0 16-7.2 16-16zm336-16h-32c-8.8 0-16 7.2-16 16s7.2 16 16 16h32c8.8 0 16-7.2 16-16s-7.2-16-16-16zm-316.5-85.8c6.3 6.2 16.4 6.2 22.7 0 6.2-6.3 6.2-16.4 0-22.7L131.5 109c-6.2-6.3-16.3-6.3-22.6 0-6.3 6.2-6.3 16.3 0 22.5l22.5 22.7zm249 203.6c-6.3-6.2-16.4-6.2-22.7 0-6.2 6.3-6.2 16.4 0 22.6l22.7 22.7c6.2 6.3 16.3 6.3 22.6 0s6.3-16.3 0-22.6l-22.5-22.6z"/></symbol><symbol id="weather-10" viewBox="0 0 512 512"><path d="M192 384l32 32-32 96 96-96-32-32 32-64-96 64zm320-249.2c0-49-40-89-89.2-89-2.4 0-4.7 0-7 .2-23.2-29-58-46-95.8-46-37.7 0-72.6 17-95.7 46l-7.2-.3c-49 0-89 40-89 89 0 5.3.7 10.3 1.5 15.2-.5.6-1.2 1.2-1.7 2-5.2-.8-10.5-1.2-15.8-1.2-61.8 0-112 50.3-112 112 0 61.8 50.3 112 112 112 13.7 0 27-2.5 39.7-7.3 1 1 2.4 1.6 3.6 2.6l28.3-18.8c-9.5-6.7-18.3-14-25.7-23-13 9-29 14.6-46 14.6-44.2 0-80-35.8-80-80 0-44 35.8-80 80-80 10.8 0 21 2.2 30.4 6l1.8-3c5.7-10.2 12.6-19.6 20.7-28 23-24 55-39 91-39 49.7 0 92.3 28.7 113.5 70 5.7-2.2 11.7-3.7 18-4.7L400 183c12.3 0 24 3 34.3 8 11.3 5.4 21 13.4 28.7 23.2 10.5 13.6 17 30.4 17 48.8 0 44.2-35.8 80-80 80-17 0-33-5.5-46-14.6-14 17-32.4 29.5-53 37.5l-6 12 18 18.1c17-6.7 33-16.3 47-28.5 12.7 4.8 26 7.3 39.8 7.3 61.7 0 112-50.2 112-112 0-25.6-9-49-23.7-68C503 179 512 158 512 134.8zm-46.4 37.7c-18.5-13.5-41-21.7-65.6-21.7-5.3 0-10.6.4-15.8 1.2-30-40.7-77-65.2-128.2-65.2-34 0-66.3 11-93 30.4 7.5-23 28.8-39.5 54-39.5 8 0 15.2 1.6 22 4.3 15-29.5 45.5-50 81-50s66 20.5 81 50c6.8-2.7 14.2-4.3 21.8-4.3 31.6 0 57.2 25.6 57.2 57 0 14.6-5.6 27.7-14.4 37.8z"/></symbol><symbol id="weather-2" viewBox="0 0 512 512"><path d="M350 343c-50 50-131.2 50-181 0-50-49.8-50-131 0-181 13-13 29.2-23 47.7-29.7 5.8-2 12.3-.5 16.6 3.8 4.4 4.5 6 11 3.8 16.7-12.4 35.4-4 73.7 22.4 100 26.2 26.2 64.5 34.7 100 22.2 5.7-2.2 12-.7 16.5 3.7 4.3 4.3 5.7 10.8 3.7 16.6C373 313.8 363 330 350 343zM191.4 185c-37.5 37.4-37.5 98.3 0 135.7 40 40 108 36.4 143-8-36 2-71.4-11-97.8-37.2-26.3-26.4-39.3-61.8-37-97.8-3 2.3-5.7 4.7-8.2 7.3z"/></symbol><symbol id="weather-3" viewBox="0 0 512 512"><path d="M495 223h-81.6C405.4 151.2 345 95 271 95c-49.8 0-93.8 25.5-119.6 64H47c-8.8 0-16 7.2-16 16s7.2 16 16 16h88.8c-3.6 10.2-6 21-7.2 32H79c-8.8 0-16 7.2-16 16s7.2 16 16 16h49.6c1.3 11 3.6 21.8 7.2 32h-86c-10.3 0-18.8 7.2-18.8 16s8.5 16 19 16h101.4c25.8 38.6 69.8 64 119.6 64s93.8-25.4 119.6-64H428c10.5 0 19-7.2 19-16s-8.5-16-19-16h-21.8c3.6-10.2 6-21 7.2-32H495c8.8 0 16-7.2 16-16s-7.2-16-16-16zm-324.8-32H271c8.8 0 16-7.2 16-16s-7.2-16-16-16h-78c20-19.7 47.6-32 78-32 56.3 0 102.5 42 110.4 96H160.6c1.7-11.3 5-22 9.6-32zM271 351c-30.4 0-58-12.3-78-32h156c-20 19.7-47.6 32-78 32zm100.8-64H170.2c-4.7-10-8-20.7-9.6-32h220.8c-1.6 11.3-5 22-9.6 32z"/></symbol><symbol id="weather-4" viewBox="0 0 512 512"><path d="M208 64c8.8 0 16-7.2 16-16V16c0-8.8-7.2-16-16-16s-16 7.2-16 16v32c0 8.8 7.2 16 16 16zm124.4 42.2L355 83.5c6.3-6.2 6.3-16.3 0-22.6-6.2-6.3-16.3-6.3-22.6 0l-22.6 22.5c-6.2 6.3-6.2 16.4 0 22.7 6.3 6.2 16.4 6.2 22.6 0zM16 224h32c8.8 0 16-7.2 16-16s-7.2-16-16-16H16c-8.8 0-16 7.2-16 16s7.2 16 16 16zm336-16c0 8.8 7.2 16 16 16h32c8.8 0 16-7.2 16-16s-7.2-16-16-16h-32c-8.8 0-16 7.2-16 16zM83.5 106.2c6.3 6.2 16.4 6.2 22.7 0 6.2-6.3 6.2-16.4 0-22.7L83.5 61c-6.2-6.3-16.3-6.3-22.6 0-6.3 6.2-6.3 16.3 0 22.5l22.5 22.7zM400 256c-5.3 0-10.6.4-15.8 1-16.8-22.8-39-40.2-64.4-51.4C318.4 145 268.8 96 208 96c-61.8 0-112 50.3-112 112 0 17.4 4.3 33.8 11.5 48.4C48 259 0 307.8 0 368c0 61.8 50.3 112 112 112 13.7 0 27-2.5 39.7-7.3C180.7 498 217.5 512 256 512s75.3-14 104.3-39.3c12.6 4.8 26 7.3 39.7 7.3 61.8 0 112-50.3 112-112s-50.3-112-112-112zM208 128c39.8 0 72.6 29.2 78.7 67.3-10-2-20.2-3.3-30.7-3.3-46 0-88.5 19.8-118.4 53.3-6-11.2-9.6-23.8-9.6-37.3 0-44.2 35.8-80 80-80zm192 320c-17 0-33-5.5-46-14.7-23.4 28.3-58.4 46.7-98 46.7s-74.6-18.4-98-46.7c-13 9.2-29 14.7-46 14.7-44.2 0-80-35.8-80-80s35.8-80 80-80c7.8 0 15 1.5 22 3.5 3 .8 5.8 1.5 8.4 2.6 4.4-8.5 10-16.3 16-23.7 23.4-28 58.2-46.3 97.6-46.3 10 0 19.8 1.5 29.3 3.7 10.5 2.5 20.5 6.3 29.8 11.3 23.4 12.4 42.5 31.5 54.5 55 9.4-3.8 19.7-6 30.5-6 44.2 0 80 35.8 80 80s-35.8 80-80 80z"/></symbol><symbol id="weather-5" viewBox="0 0 512 512"><path d="M435 262.2c5-3.7 10-7.2 14.3-11.6 13.2-13.3 23.3-29.4 29.8-48 2.2-5.7.7-12.2-3.7-16.5-4.3-4.3-10.8-5.8-16.6-3.7-35.4 12.5-73.7 4-100-22.3-26.2-26.2-34.7-64.5-22.2-100 2-5.7.6-12-3.8-16.5-4.3-4.3-10.8-5.8-16.6-3.8-18.4 6.6-34.5 16.6-47.7 29.8-33.6 33.5-44 81-32.5 123.8-43.2 5.6-82 28.5-108 63.8-5.2-.6-10.5-1-15.8-1C50.2 256 0 306.3 0 368s50.2 112 112 112c13.7 0 27-2.5 39.7-7.3C180.7 498 217.5 512 256 512s75.3-14 104.3-39.3c12.6 4.8 26 7.3 39.7 7.3 61.7 0 112-50.3 112-112 0-49.4-32.4-91-77-105.8zm-144-170c2.5-2.6 5.2-5 8-7.3-2.2 36 10.8 71.3 37.2 97.7 26.3 26.3 61.7 39.3 97.7 37-14 17.7-33 28.6-53.2 33.3-27.4-34.8-67.6-56.7-112-60.2-12.2-34-5-73.5 22-100.6zM400 448c-17 0-33-5.5-46-14.7-23.4 28.3-58.4 46.7-98 46.7s-74.6-18.4-98-46.7c-13 9.2-29 14.7-46 14.7-44.2 0-80-35.8-80-80s35.8-80 80-80c10.8 0 21 2.2 30.4 6 20.2-39.3 59.8-66.8 106.3-69.5 2.5 0 5-.5 7.3-.5 13 0 25.3 2 37 5.6 15.8 4.8 30.2 12.7 42.7 22.8 12 9.7 22 21.6 29.8 35 1.3 2.2 2.8 4.3 4 6.7 9.4-3.8 19.7-6 30.5-6 44.2 0 80 35.8 80 80s-35.8 80-80 80z"/></symbol><symbol id="weather-6" viewBox="0 0 512 512"><path d="M400 160c-5.3 0-10.6.4-15.8 1-30-40.6-77-65-128.2-65s-98.3 24.4-128.2 65c-5.2-.6-10.5-1-15.8-1C50.2 160 0 210.3 0 272c0 61.8 50.3 112 112 112 13.7 0 27-2.5 39.7-7.3C180.7 402 217.5 416 256 416s75.3-14 104.3-39.3c12.6 4.8 26 7.3 39.7 7.3 61.8 0 112-50.3 112-112 0-61.8-50.3-112-112-112zm0 192c-17 0-33-5.5-46-14.7-23.4 28.3-58.4 46.7-98 46.7s-74.6-18.4-98-46.7c-13 9.2-29 14.7-46 14.7-44.2 0-80-35.8-80-80s35.8-80 80-80c10.8 0 21 2.2 30.4 6 21.3-41.3 64-70 113.6-70s92.3 28.7 113.5 70c9.4-3.8 19.7-6 30.5-6 44.2 0 80 35.8 80 80s-35.8 80-80 80z"/></symbol><symbol id="weather-7" viewBox="0 0 512 512"><path d="M400 64c-5.3 0-10.6.4-15.8 1-30-40.6-77-65-128.2-65s-98.3 24.4-128.2 65c-5.2-.6-10.5-1-15.8-1C50.2 64 0 114.3 0 176s50.3 112 112 112c13.7 0 27-2.5 39.7-7.3C180.7 306 217.5 320 256 320s75.3-14 104.3-39.3c12.6 4.8 26 7.3 39.7 7.3 61.8 0 112-50.3 112-112S461.7 64 400 64zm0 192c-17 0-33-5.5-46-14.7-23.4 28.3-58.4 46.7-98 46.7s-74.6-18.4-98-46.7c-13 9.2-29 14.7-46 14.7-44.2 0-80-35.8-80-80s35.8-80 80-80c10.8 0 21 2.2 30.4 6 21.3-41.3 64-70 113.6-70s92.3 28.7 113.5 70c9.4-3.8 19.7-6 30.5-6 44.2 0 80 35.8 80 80s-35.8 80-80 80zM225 480c0 17.7 14.3 32 32 32s32-14.3 32-32-32-64-32-64-32 46.3-32 64zm127-32c0 17.7 14.3 32 32 32s32-14.3 32-32-32-64-32-64-32 46.3-32 64zM96 384c0 17.7 14.3 32 32 32s32-14.3 32-32-32-64-32-64-32 46.3-32 64z"/></symbol><symbol id="weather-8" viewBox="0 0 512 512"><path d="M326 443.7l-18-10.4c.6-3 1-6.3 1-9.6s-.4-6.5-1-9.6l18-10.3c8.5-5 11.3-15.8 6.5-24-5-8.6-15.7-11.5-24-6.6L290 383.7c-5-4.2-10.4-7.4-16.5-9.6v-21c0-9.7-8-17.6-17.7-17.6s-17.7 8-17.7 17.7v21c-6 2-11.6 5.4-16.5 9.6l-18-10.5c-8.6-4.8-19.4-2-24.3 6.5-5 8.5-2 19.3 6.5 24.2l18 10.3c-.6 3.2-1 6.4-1 9.7 0 3.3.4 6.5 1 9.6l-18 10.4c-8.5 5-11.4 15.7-6.5 24.2s15.7 11.2 24 6.3L222 464c5 4 10.4 7.3 16.5 9.4v21c0 9.7 8 17.6 17.7 17.6s17.7-8 17.7-17.6v-21c6-2 11.7-5.4 16.5-9.6l18.2 10.5c8.4 5 19.2 2 24-6.4 5-8.6 2-19.4-6.4-24.3zm-70-2.3c-9.8 0-17.7-8-17.7-17.7s8-17.7 17.7-17.7 17.7 8 17.7 17.7-8 17.7-17.7 17.7zm218.2-45l-12-3.4c-.4-3.8-1.3-7.4-3-11l8.8-8.7c4-4 4-10.8 0-15-4-4-10.8-4-15 0l-8.7 9c-3.4-1.7-7-2.7-11-3l-3-12c-1.6-5.6-7.4-9-13-7.5s-9 7.3-7.4 13l3 11.8c-1.5 1-3 2.3-4.4 3.7-1.4 1.4-2.6 3-3.6 4.4l-12-3.2c-5.5-1.5-11.3 2-12.8 7.4-1.5 5.6 1.8 11.3 7.4 12.8l12 3.2c.3 3.8 1.3 7.5 3 11l-9 8.8c-4 4-4 10.7.2 14.8 4 4 10.7 4.2 14.8 0l8.8-8.8c3.5 1.7 7.2 2.7 11 3l3.2 12c1.5 5.6 7.2 9 13 7.5 5.4-1.5 8.8-7.3 7.3-13l-3.3-12c1.5-1 3-2 4.5-3.5 1.3-1.4 2.5-3 3.6-4.5l12 3.2c5.5 1.5 11.3-1.8 12.8-7.4 1.5-5.5-2-11.2-7.4-12.8zm-36 6.5c-4 4-10.7 4-14.8 0-4-4-4-10.8 0-15 4-4 10.8-4 15 0 4 4.2 4 11 0 15zM119 342.4l-12 3.2c-1-1.5-2.2-3-3.6-4.5-1.4-1.3-3-2.5-4.5-3.6l3-12c1.6-5.5-1.7-11.3-7.2-12.8-5.7-1.5-11.4 2-13 7.5l-3.2 12c-3.8.3-7.4 1.3-11 3l-8.7-9c-4.2-4-11-4-15 0-4 4.2-4 11 0 15l8.8 8.8c-1.6 3.6-2.6 7.3-3 11l-12 3.2c-5.6 1.6-9 7.3-7.4 13 1.5 5.5 7.3 8.8 13 7.3l11.8-3.2c1 1.6 2.2 3 3.7 4.5 1.3 1.4 2.8 2.6 4.3 3.6l-3.2 12c-1.4 5.6 2 11.3 7.5 12.8 5.7 1.5 11.4-1.8 13-7.4l3-12c4-.3 7.6-1.3 11-3l9 9c4 4 10.6 4 14.8-.2 4-4 4-10.7 0-14.8l-9-8.8c1.8-3.5 2.8-7.2 3-11l12-3.2c5.7-1.5 9-7.2 7.5-13-1.5-5.4-7.2-8.8-13-7.3zM88.5 371c-4 4-10.8 4-15 0-4-4-4-10.8 0-15 4.2-4 11-4 15 0s4 11 0 15zM512 176c0-61.8-50.3-112-112-112-5.3 0-10.6.4-15.8 1-30-40.6-77-65-128.2-65s-98.3 24.4-128.2 65c-5.2-.6-10.5-1-15.8-1C50.2 64 0 114.3 0 176s50.3 112 112 112c13.7 0 27-2.5 39.7-7.3C180.7 306 217.5 320 256 320s75.3-14 104.3-39.3c12.6 4.8 26 7.3 39.7 7.3 61.8 0 112-50.3 112-112zm-158 65.3c-23.4 28.3-58.4 46.7-98 46.7s-74.6-18.4-98-46.7c-13 9.2-29 14.7-46 14.7-44.2 0-80-35.8-80-80s35.8-80 80-80c10.8 0 21 2.2 30.4 6 21.3-41.3 64-70 113.6-70s92.3 28.7 113.5 70c9.4-3.8 19.7-6 30.5-6 44.2 0 80 35.8 80 80s-35.8 80-80 80c-17 0-33-5.5-46-14.7z"/></symbol><symbol id="weather-9" viewBox="0 0 512 512"><path d="M512 240c0-49.2-40-89-89.2-89h-7c-23.2-28.7-58-45.8-95.8-45.8-37.7 0-72.6 17-95.7 46l-7.2-.3c-49 0-89 39.8-89 89 0 5 .7 10 1.5 15-.5.8-1.2 1.4-1.7 2-5.2-.6-10.5-1-15.8-1C50.2 256 0 306.3 0 368c0 61.8 50.3 112 112 112 13.7 0 27-2.5 39.7-7.3C180.7 498 217.5 512 256 512s75.3-14 104.3-39.3c12.6 4.8 26 7.3 39.7 7.3 61.8 0 112-50.2 112-112 0-25.7-9-49-23.7-68 14.6-16 23.7-36.8 23.7-60zM400 448c-17 0-33-5.5-46-14.7-23.4 28.3-58.4 46.7-98 46.7s-74.6-18.4-98-46.7c-13 9.2-29 14.7-46 14.7-44.2 0-80-35.8-80-80s35.8-80 80-80c10.8 0 21 2.2 30.4 6l1.8-3c5.7-10.2 12.6-19.6 20.7-28 23-24 55-39 91-39 49.7 0 92.3 28.7 113.5 70 5.7-2.2 11.7-3.8 18-4.7L400 288c12.3 0 24 3 34.3 8 11.3 5.4 21 13.4 28.7 23.2 10.5 13.5 17 30.3 17 48.8 0 44.2-35.8 80-80 80zm65.6-170.4C447 264.2 424.6 256 400 256c-5.3 0-10.6.4-15.8 1-30-40.6-77-65-128.2-65-34 0-66.3 11-93 30.3 7.5-22.8 28.8-39.4 54-39.4 8 0 15.2 1.4 22 4.2 15-29.6 45.5-50 81-50s66 20.4 81 50c6.8-2.8 14.2-4.3 21.8-4.3 31.6 0 57.2 25.4 57.2 57 0 14.5-5.6 27.5-14.4 37.6z"/></symbol></svg>