<svg id="4.2_7.svg" viewBox="0 0 1923 2062">
  <polygon fill="#dff2fd" data-id-flat="1944" class="hovered_flat_at_plan flat_plan_p" points="1204.6 139 1204.6 1005 717.2 1005 717.2 139 5.1 139 5.1 2056.9 1917.9 2056.9 1917.9 139 1204.6 139"/>
  <polygon fill="#f6f6f6" points="1204.6 1005 1204.6 139 1204.6 15.2 717.2 15.2 717.2 139 717.2 1005 1204.6 1005"/>
  <g fill="none" stroke="#000" stroke-width=".3" stroke-miterlimit="10">
    <rect width="5" height="95.3" x="505.4" y="553.4"/>
    <rect width="4" height="11.5" x="501.4" y="648.7"/>
    <path d="M600.7 648.7a95.3 95.3 0 0 0-95.3-95.4"/>
  </g>
  <g fill="none" stroke="#000" stroke-width=".3" stroke-miterlimit="10">
    <rect width="108" height="5" x="181.4" y="771.2"/>
    <rect width="11.5" height="4" x="169.9" y="776.3"/>
    <path d="M181.4 668.2a108 108 0 0 1 108 108"/>
  </g>
  <g fill="none" stroke="#000" stroke-width=".3" stroke-miterlimit="10">
    <rect width="108" height="5" x="181.4" y="617.9"/>
    <rect width="11.5" height="4" x="169.9" y="623"/>
    <path d="M181.4 515a108 108 0 0 1 108 108"/>
  </g>
  <g fill="none" stroke="#000" stroke-width=".3" stroke-miterlimit="10">
    <rect width="108" height="5" x="181.4" y="1108.9"/>
    <rect width="11.5" height="4" x="169.9" y="1104.9"/>
    <path d="M181.4 1217a108 108 0 0 0 108-108"/>
  </g>
  <g fill="none" stroke="#000" stroke-width=".3" stroke-miterlimit="10">
    <polygon points="1373.9 1273.8 1373.9 1268.8 1450.4 1268.8 1450.4 1273.8 1373.9 1273.8"/>
    <rect width="11.5" height="4" x="1362.4" y="1264.8"/>
    <path d="M1374 1345a76.3 76.3 0 0 0 76.2-76.2"/>
  </g>
  <g fill="none" stroke="#000" stroke-width=".3" stroke-miterlimit="10">
    <rect width="5" height="108" x="1409.1" y="275.3"/>
    <rect width="4" height="11.5" x="1414.1" y="263.8"/>
    <path d="M1306 275.2a108 108 0 0 0 108 108"/>
  </g>
  <g fill="none" stroke="#000" stroke-width=".3" stroke-miterlimit="10">
    <rect width="5" height="108" x="835.8" y="1672.5"/>
    <rect width="4" height="11.5" x="840.8" y="1780.5"/>
    <path d="M732.8 1780.5a108 108 0 0 1 108-108"/>
  </g>
  <g fill="none" stroke="#000" stroke-width=".3" stroke-miterlimit="10">
    <rect width="5" height="108" x="533.5" y="1672.5"/>
    <rect width="4" height="11.5" x="538.5" y="1780.5"/>
    <path d="M430.6 1780.5a108 108 0 0 1 108-108"/>
  </g>
  <g fill="none" stroke="#000" stroke-width=".3" stroke-miterlimit="10">
    <rect width="5" height="108" x="1432.3" y="1672.5"/>
    <rect width="4" height="11.5" x="1437.4" y="1780.5"/>
    <path d="M1329.4 1780.5a108 108 0 0 1 108-108"/>
  </g>
  <g fill="none" stroke="#000" stroke-width=".3" stroke-miterlimit="10">
    <rect width="108" height="5" x="1633.6" y="1458.9"/>
    <rect width="11.5" height="4" x="1741.6" y="1454.9"/>
    <path d="M1741.6 1567a108 108 0 0 1-108-108"/>
  </g>
  <g fill="none" stroke="#000" stroke-width=".3" stroke-miterlimit="10">
    <polygon points="1263.1 1423.2 1258.1 1423.2 1258.1 1519.1 1263.1 1519.1 1263.1 1423.2"/>
    <polygon points="1258.1 1423.2 1258.1 1411.7 1254.1 1411.7 1254.1 1423.2 1258.1 1423.2"/>
    <path d="M1354.4 1423.2a96.3 96.3 0 0 1-96.3 96.3"/>
  </g>
  <g fill="none" stroke="#000" stroke-width=".3" stroke-miterlimit="10">
    <polygon points="1192.2 1240.2 1197.2 1240.2 1197.2 1144.3 1192.2 1144.3 1192.2 1240.2"/>
    <polygon points="1197.2 1240.2 1197.2 1251.7 1201.2 1251.7 1201.2 1240.2 1197.2 1240.2"/>
    <path d="M1101 1240.2a96.3 96.3 0 0 1 96.3-96.3"/>
  </g>
  <g fill="none" stroke="#000" stroke-width=".3" stroke-miterlimit="10">
    <polygon points="660.3 1031.2 665.4 1031.2 665.4 935.3 660.3 935.3 660.3 1031.2"/>
    <polygon points="665.4 1031.2 665.4 1042.7 669.3 1042.7 669.3 1031.2 665.4 1031.2"/>
    <path d="M569 1031.2a96.3 96.3 0 0 1 96.4-96.3"/>
  </g>
  <g fill="none" stroke="#000" stroke-width=".3" stroke-miterlimit="10">
    <polygon points="755.4 1005.3 750.3 1005.3 750.3 909.3 755.4 909.3 755.4 1005.3"/>
    <polygon points="750.3 1005.3 750.3 1016.8 746.4 1016.8 746.4 1005.3 750.3 1005.3"/>
    <path d="M846.7 1005.2a96.3 96.3 0 0 0-96.3-96.3"/>
  </g>
  <g fill="none" stroke="#000" stroke-width=".3" stroke-miterlimit="10">
    <polygon points="1263.1 704.6 1258.1 704.6 1258.1 608.6 1263.1 608.6 1263.1 704.6"/>
    <polygon points="1258.1 704.6 1258.1 716.1 1254.1 716.1 1254.1 704.6 1258.1 704.6"/>
    <path d="M1354.4 704.5a96.3 96.3 0 0 0-96.3-96.3"/>
  </g>
  <g fill="none" stroke="#000" stroke-width=".3" stroke-miterlimit="10">
    <polygon points="1373.9 1111.5 1373.9 1116.6 1469.8 1116.6 1469.8 1111.5 1373.9 1111.5"/>
    <polygon points="1373.9 1116.6 1362.4 1116.6 1362.4 1120.6 1373.9 1120.6 1373.9 1116.6"/>
    <path d="M1374 1020.2a96.3 96.3 0 0 1 96.2 96.3"/>
  </g>
  <g fill="none" stroke="#000" stroke-width=".3" stroke-miterlimit="10">
    <rect width="108" height="5" x="1633.8" y="802.6"/>
    <polygon points="1741.8 802.6 1753.3 802.6 1753.3 798.7 1741.8 798.7 1741.8 802.6"/>
    <path d="M1742 910.6a108 108 0 0 1-108-108"/>
  </g>
  <g fill="none" stroke="#000" stroke-width=".3" stroke-miterlimit="10">
    <rect width="5" height="108" x="603.5" y="275.3"/>
    <rect width="4" height="11.5" x="608.5" y="263.8"/>
    <path d="M500.6 275.2a108 108 0 0 0 108 108"/>
  </g>
  <g fill="#fff" stroke="#000" stroke-width=".3" stroke-miterlimit="10">
    <rect width="16.1" height="145.7" x="1737.3" y="910.8"/>
    <rect width="4.8" height="145.7" x="1744.5" y="910.8"/>
  </g>
  <g fill="#fff" stroke="#000" stroke-width=".3" stroke-miterlimit="10">
    <rect width="16.1" height="247.1" x="169.7" y="780.8"/>
    <rect width="4.8" height="247.1" x="173.6" y="780.8"/>
  </g>
  <g fill="#fff" stroke="#000" stroke-width=".3" stroke-miterlimit="10">
    <rect width="16.1" height="140.2" x="169.7" y="374.8"/>
    <rect width="4.8" height="140.2" x="173.6" y="374.8"/>
  </g>
  <g fill="#fff" stroke="#000" stroke-width=".3" stroke-miterlimit="10">
    <rect width="16.1" height="127.4" x="169.7" y="1217.5"/>
    <rect width="4.8" height="127.4" x="173.6" y="1217.5"/>
  </g>
  <g fill="#fff" stroke="#000" stroke-width=".3" stroke-miterlimit="10">
    <rect width="177.7" height="32" x="1441.4" y="1747"/>
    <rect width="177.7" height="8.1" x="1441.4" y="1784.1"/>
    <rect width="177.7" height="5.1" x="1441.4" y="1779"/>
    <rect width="177.7" height="2.6" x="1441.4" y="1770.1"/>
  </g>
  <g fill="#fff" stroke="#000" stroke-width=".3" stroke-miterlimit="10">
    <rect width="32" height="163.7" x="1708.1" y="1566.9"/>
    <rect width="8.1" height="163.7" x="1745.2" y="1566.9"/>
    <rect width="5.1" height="163.7" x="1740.1" y="1566.9"/>
    <rect width="2.6" height="163.7" x="1731.3" y="1566.9"/>
  </g>
  <g fill="#fff" stroke="#000" stroke-width=".3" stroke-miterlimit="10">
    <rect width="247.6" height="32" x="844.8" y="1747"/>
    <rect width="247.6" height="8.1" x="844.8" y="1784.1"/>
    <rect width="247.6" height="5.1" x="844.8" y="1779"/>
    <rect width="247.6" height="2.6" x="844.8" y="1770.1"/>
  </g>
  <g fill="#fff" stroke="#000" stroke-width=".3" stroke-miterlimit="10">
    <rect width="113.5" height="32" x="317.4" y="1747"/>
    <rect width="113.5" height="8.1" x="317.4" y="1784.1"/>
    <rect width="113.5" height="5.1" x="317.4" y="1779"/>
    <rect width="113.5" height="2.6" x="317.4" y="1770.1"/>
  </g>
  <g fill="#fff" stroke="#000" stroke-width=".3" stroke-miterlimit="10">
    <rect width="153.9" height="16.1" x="830.8" y="126.4"/>
    <rect width="153.9" height="4.8" x="830.8" y="133.7"/>
  </g>
  <g fill="#fff" stroke="#000" stroke-width=".3" stroke-miterlimit="10">
    <rect width="112" height="16.1" x="500.5" y="263.8"/>
    <rect width="112" height="4.8" x="500.5" y="271.1"/>
  </g>
  <g fill="#fff" stroke="#000" stroke-width=".3" stroke-miterlimit="10">
    <rect width="112" height="16.1" x="1306.1" y="263.8"/>
    <rect width="112" height="4.8" x="1306.1" y="271.1"/>
  </g>
  <rect width="330.9" height="44.9" x="169.7" y="263.8" fill="#003d58"/>
  <rect width="45.3" height="41.3" x="169.7" y="626.9" fill="#003d58"/>
  <rect width="45.3" height="66.2" x="169.7" y="308.6" fill="#003d58"/>
  <rect width="37.7" height="1042.7" x="679.5" fill="#003d58"/>
  <rect width="29.2" height="37.6" x="717.2" y="1005" fill="#003d58"/>
  <rect width="358.4" height="37.6" x="846.2" y="1005" fill="#003d58"/>
  <rect width="38.1" height="1042.7" x="1204.6" fill="#003d58"/>
  <rect width="67" height="44.9" x="612.5" y="263.8" fill="#003d58"/>
  <rect width="45.3" height="77" x="169.7" y="1027.9" fill="#003d58"/>
  <rect width="45.3" height="402.3" x="169.7" y="1344.8" fill="#003d58"/>
  <rect width="188.8" height="44.9" x="544" y="1747.2" fill="#003d58"/>
  <rect width="147.7" height="44.9" x="169.7" y="1747.2" fill="#003d58"/>
  <rect width="236.9" height="44.9" x="1092.5" y="1747.2" fill="#003d58"/>
  <rect width="134.3" height="44.9" x="1619.1" y="1747.2" fill="#003d58"/>
  <rect width="45.3" height="398.4" x="1708.1" y="1056.5" fill="#003d58"/>
  <rect width="45.3" height="16.6" x="1708.1" y="1730.6" fill="#003d58"/>
  <rect width="45.3" height="490" x="1708.1" y="308.6" fill="#003d58"/>
  <rect width="62.9" height="44.9" x="1242.7" y="263.8" fill="#003d58"/>
  <rect width="335.2" height="44.9" x="1418.1" y="263.8" fill="#003d58"/>
  <rect width="354.1" height="11.8" x="1353.9" y="704.2" fill="#003d58"/>
  <rect width="12.3" height="304.6" x="1362.4" y="716.1" fill="#003d58"/>
  <rect width="11.4" height="11.8" x="1242.7" y="704.2" fill="#003d58"/>
  <rect width="12.3" height="144.3" x="1362.4" y="1120.6" fill="#003d58"/>
  <rect width="333.4" height="12.3" x="1374.7" y="1186.6" fill="#003d58"/>
  <rect width="12.3" height="66.4" x="1362.4" y="1344.8" fill="#003d58"/>
  <rect width="354.1" height="12.3" x="1353.9" y="1411.2" fill="#003d58"/>
  <rect width="250.9" height="11.4" x="850" y="1239.9" fill="#003d58"/>
  <rect width="28.6" height="119.3" x="910.1" y="1251.3" fill="#003d58"/>
  <rect width="80" height="39.8" x="850" y="1370.6" fill="#003d58"/>
  <rect width="143.9" height="39.8" x="930" y="1370.6" fill="#003d58"/>
  <rect width="30" height="11.8" x="820" y="1398.5" fill="#003d58"/>
  <rect width="137.5" height="11.8" x="1073.8" y="1398.5" fill="#003d58"/>
  <rect width="14.8" height="507.3" x="1211.3" y="1239.9" fill="#003d58"/>
  <rect width="10.2" height="11.8" x="1201.2" y="1239.9" fill="#003d58"/>
  <rect width="11.8" height="136.2" x="682.5" y="1398.5" fill="#003d58"/>
  <rect width="17.3" height="25" x="694.3" y="1509.8" fill="#003d58"/>
  <rect width="25.8" height="11.8" x="694.3" y="1398.5" fill="#003d58"/>
  <rect width="27.9" height="11.8" x="1226.2" y="1411.6" fill="#003d58"/>
  <rect width="354.6" height="14.8" x="214.9" y="1027.9" fill="#003d58"/>
  <rect width="10.2" height="14.8" x="669.4" y="1027.9" fill="#003d58"/>
  <rect width="59.7" height="11.8" x="214.9" y="648.4" fill="#003d58"/>
  <rect width="136.7" height="11.8" x="364.7" y="648.4" fill="#003d58"/>
  <rect width="88.4" height="11.8" x="591.1" y="648.4" fill="#003d58"/>
  <rect width="12.3" height="339.8" x="403.2" y="308.6" fill="#003d58"/>
  <rect width="101.5" height="27.2" x="578" y="472.9" fill="#003d58"/>
  <rect width="80" height="39.8" x="1242.7" y="412.7" fill="#003d58"/>
  <rect width="17.8" height="25" x="661.7" y="128.8" fill="#003d58"/>
  <rect width="18.6" height="25" x="1242.7" y="128.8" fill="#003d58"/>
  <rect width="661.7" height="5.1" y="133.9" fill="#868686"/>
  <rect width="5.1" height="1923" y="139" fill="#868686"/>
  <rect width="1917.9" height="5.1" x="5.1" y="2056.9" fill="#868686"/>
  <rect width="5.1" height="1923" x="1917.9" y="133.9" fill="#868686"/>
  <rect width="656.7" height="5.1" x="1261.3" y="133.9" fill="#868686"/>
  <g fill="none" stroke="#000" stroke-width=".3" stroke-miterlimit="10">
    <rect width="5" height="95.3" x="1075" y="35.6"/>
    <rect width="4" height="11.5" x="1080" y="131"/>
    <path d="M984.7 131a95.3 95.3 0 0 1 95.4-95.4"/>
  </g>
  <g fill="none" stroke="#000" stroke-width=".3" stroke-miterlimit="10">
    <rect width="119.8" height="30.3" x="717.9" y="253.7"/>
    <rect width="119.8" height="30.3" x="717.9" y="284"/>
    <rect width="119.8" height="30.3" x="717.9" y="314.3"/>
    <rect width="119.8" height="30.3" x="717.9" y="344.5"/>
    <rect width="119.8" height="30.3" x="717.9" y="374.8"/>
    <rect width="119.8" height="30.3" x="717.9" y="405.1"/>
    <rect width="119.8" height="30.3" x="717.9" y="435.4"/>
    <rect width="119.8" height="30.3" x="717.9" y="465.7"/>
    <rect width="119.8" height="30.3" x="717.9" y="496"/>
    <rect width="119.8" height="30.3" x="717.9" y="526.3"/>
    <rect width="119.8" height="30.3" x="717.9" y="556.6"/>
  </g>
  <g fill="none" stroke="#000" stroke-width=".3" stroke-miterlimit="10">
    <rect width="119.8" height="30.3" x="1083" y="253.5"/>
    <rect width="119.8" height="30.3" x="1083" y="283.7"/>
    <rect width="119.8" height="30.3" x="1083" y="314"/>
    <rect width="119.8" height="30.3" x="1083" y="344.3"/>
    <rect width="119.8" height="30.3" x="1083" y="374.6"/>
    <rect width="119.8" height="30.3" x="1083" y="404.9"/>
    <rect width="119.8" height="30.3" x="1083" y="435.2"/>
    <rect width="119.8" height="30.3" x="1083" y="465.5"/>
    <rect width="119.8" height="30.3" x="1083" y="495.8"/>
    <rect width="119.8" height="30.3" x="1083" y="526.1"/>
    <rect width="119.8" height="30.3" x="1083" y="556.4"/>
  </g>
  <rect width="179.4" height="269.1" x="872.6" y="278.6" fill="none" stroke="#000" stroke-width=".3" stroke-miterlimit="10"/>
  <rect width="165.4" height="255" x="879.6" y="285.6" fill="none" stroke="#000" stroke-width=".3" stroke-miterlimit="10"/>
  <g fill="none" stroke="#000" stroke-width=".3" stroke-miterlimit="10">
    <rect width="5" height="85.6" x="1049.2" y="728.3"/>
    <rect width="4" height="11.4" x="1054.2" y="813.9"/>
    <path d="M1054.2 728.2a91.7 91.7 0 0 0-91.7 91.8"/>
  </g>
  <g fill="none" stroke="#000" stroke-width=".3" stroke-miterlimit="10">
    <rect width="5" height="85.6" x="870.7" y="728.3"/>
    <rect width="4" height="11.4" x="866.7" y="813.9"/>
    <path d="M870.7 728.2a91.8 91.8 0 0 1 91.8 91.8"/>
  </g>
  <rect width="69.3" height="15.2" x="717.2" fill="#003d58"/>
  <rect width="68.7" height="15.2" x="1137.1" fill="#003d58"/>
  <rect width="113.6" height="43.9" x="717.2" y="118.4" fill="#003d58"/>
  <rect width="120.6" height="43.9" x="1084" y="118.4" fill="#003d58"/>
  <rect width="76.8" height="24.6" x="847.7" y="547.7" fill="#003d58"/>
  <rect width="24.9" height="294" x="847.7" y="253.7" fill="#003d58"/>
  <rect width="204.3" height="24.9" x="872.6" y="253.7" fill="#003d58"/>
  <rect width="24.9" height="293.7" x="1052" y="278.6" fill="#003d58"/>
  <rect width="30.8" height="24.6" x="1021.1" y="547.7" fill="#003d58"/>
  <rect width="148.9" height="11.4" x="717.9" y="814" fill="#02475d"/>
  <rect width="147.6" height="11.4" x="1058.1" y="814" fill="#02475d"/>
  <rect width="351.3" height="6.8" x="786.5" y="8.5" fill="#9e9d9c"/>
  <rect width="195.1" height="33.8" x="848.5" y="971.2" fill="#003d58"/>
</svg>
