<svg id="4.3_7" viewBox="0 0 1923 2058.3">
  <polygon fill="#dff2fd" data-id-flat="1958" class="hovered_flat_at_plan flat_plan_p" points="1204.6 135.3 1204.6 1001.4 717.2 1001.4 717.2 135.3 5.1 135.3 5.1 2053.3 1917.9 2053.3 1917.9 135.3 1204.6 135.3"/>
  <polygon fill="#f6f6f6" points="1204.6 1001.4 1204.6 135.3 1204.6 15.2 717.2 15.2 717.2 135.3 717.2 1001.4 1204.6 1001.4"/>
  <rect width="330.9" height="44.9" x="169.7" y="260.2" fill="#003d58"/>
  <rect width="45.3" height="359.6" x="169.7" y="305" fill="#003d58"/>
  <rect width="37.7" height="1039.1" x="679.5" fill="#003d58"/>
  <rect width="29.2" height="37.6" x="717.2" y="1001.4" fill="#003d58"/>
  <rect width="358.4" height="37.6" x="846.2" y="1001.4" fill="#003d58"/>
  <rect width="38.1" height="1039.1" x="1204.6" fill="#003d58"/>
  <rect width="59.2" height="44.9" x="620.3" y="260.2" fill="#003d58"/>
  <rect width="45.3" height="77" x="169.7" y="1024.3" fill="#003d58"/>
  <rect width="45.3" height="402.3" x="169.7" y="1341.2" fill="#003d58"/>
  <rect width="163.8" height="44.9" x="593.6" y="1743.6" fill="#003d58"/>
  <rect width="194.7" height="44.9" x="169.7" y="1743.6" fill="#003d58"/>
  <rect width="253.6" height="44.9" x="1092.5" y="1743.6" fill="#003d58"/>
  <rect width="170.3" height="44.9" x="1583.1" y="1743.6" fill="#003d58"/>
  <rect width="45.3" height="731.8" x="1708.1" y="1011.8" fill="#003d58"/>
  <rect width="45.3" height="159.2" x="1708.1" y="610.6" fill="#003d58"/>
  <rect width="45.3" height="108.5" x="1708.1" y="260.2" fill="#003d58"/>
  <rect width="74.9" height="45.3" x="1633.2" y="260" fill="#003d58"/>
  <rect width="270.8" height="44.9" x="1242.7" y="260.2" fill="#003d58"/>
  <rect width="354.1" height="11.8" x="1353.9" y="700.6" fill="#003d58"/>
  <rect width="12.3" height="304.6" x="1362.4" y="712.5" fill="#003d58"/>
  <rect width="11.4" height="11.8" x="1242.7" y="700.6" fill="#003d58"/>
  <rect width="12.3" height="144.3" x="1362.4" y="1116.9" fill="#003d58"/>
  <rect width="333.4" height="12.3" x="1374.7" y="1182.9" fill="#003d58"/>
  <rect width="12.3" height="66.4" x="1362.4" y="1341.2" fill="#003d58"/>
  <rect width="354.1" height="12.3" x="1353.9" y="1407.6" fill="#003d58"/>
  <rect width="261.5" height="11.4" x="850" y="1236.3" fill="#003d58"/>
  <rect width="28.6" height="159.1" x="910.1" y="1247.7" fill="#003d58"/>
  <rect width="80" height="39.8" x="850" y="1367" fill="#003d58"/>
  <rect width="80" height="39.8" x="993.9" y="1367" fill="#003d58"/>
  <rect width="30" height="11.8" x="820" y="1394.9" fill="#003d58"/>
  <rect width="272.7" height="11.8" x="938.7" y="1394.9" fill="#003d58"/>
  <rect width="14.8" height="507.3" x="1211.3" y="1236.3" fill="#003d58"/>
  <rect width="10.2" height="11.8" x="1201.2" y="1236.3" fill="#003d58"/>
  <rect width="11.8" height="348.6" x="682.5" y="1394.9" fill="#003d58"/>
  <rect width="17.3" height="25" x="694.3" y="1506.2" fill="#003d58"/>
  <rect width="25.8" height="11.8" x="694.3" y="1394.9" fill="#003d58"/>
  <rect width="27.9" height="11.8" x="1226.2" y="1408" fill="#003d58"/>
  <rect width="354.6" height="14.8" x="214.9" y="1024.3" fill="#003d58"/>
  <rect width="10.2" height="14.8" x="669.4" y="1024.3" fill="#003d58"/>
  <rect width="59.7" height="11.8" x="214.9" y="644.8" fill="#003d58"/>
  <rect width="12.3" height="339.8" x="403.2" y="305" fill="#003d58"/>
  <rect width="80" height="39.8" x="599.5" y="409.1" fill="#003d58"/>
  <rect width="80" height="39.8" x="1242.7" y="409.1" fill="#003d58"/>
  <g fill="none" stroke="#000" stroke-width=".3" stroke-miterlimit="10">
    <rect width="108" height="5" x="181.4" y="668.6"/>
    <rect width="11.5" height="4" x="169.9" y="664.7"/>
    <path d="M181.4 776.6a108 108 0 0 0 108-108"/>
  </g>
  <g fill="none" stroke="#000" stroke-width=".3" stroke-miterlimit="10">
    <rect width="5" height="108" x="584.6" y="1668.9"/>
    <rect width="4" height="11.5" x="589.6" y="1776.9"/>
    <path d="M481.6 1777a108 108 0 0 1 108-108"/>
  </g>
  <g fill="none" stroke="#000" stroke-width=".3" stroke-miterlimit="10">
    <polygon points="1373.9 1270.2 1373.9 1265.2 1450.4 1265.2 1450.4 1270.2 1373.9 1270.2"/>
    <rect width="11.5" height="4" x="1362.4" y="1261.2"/>
    <path d="M1374 1341.5a76.3 76.3 0 0 0 76.2-76.3"/>
  </g>
  <g fill="none" stroke="#000" stroke-width=".3" stroke-miterlimit="10">
    <rect width="5" height="108" x="1083.4" y="1668.9"/>
    <rect width="4" height="11.5" x="1088.5" y="1776.9"/>
    <path d="M980.5 1777a108 108 0 0 1 108-108"/>
  </g>
  <g fill="none" stroke="#000" stroke-width=".3" stroke-miterlimit="10">
    <polygon points="1263.1 1419.6 1258.1 1419.6 1258.1 1515.5 1263.1 1515.5 1263.1 1419.6"/>
    <polygon points="1258.1 1419.6 1258.1 1408.1 1254.1 1408.1 1254.1 1419.6 1258.1 1419.6"/>
    <path d="M1354.4 1419.6a96.3 96.3 0 0 1-96.3 96.3"/>
  </g>
  <g fill="none" stroke="#000" stroke-width=".3" stroke-miterlimit="10">
    <polygon points="811 1395.3 816 1395.3 816 1299.3 811 1299.3 811 1395.3"/>
    <polygon points="816 1395.3 816 1406.8 820 1406.8 820 1395.3 816 1395.3"/>
    <path d="M719.7 1395.2A96.3 96.3 0 0 1 816 1299"/>
  </g>
  <g fill="none" stroke="#000" stroke-width=".3" stroke-miterlimit="10">
    <polygon points="1192.2 1236.6 1197.2 1236.6 1197.2 1140.7 1192.2 1140.7 1192.2 1236.6"/>
    <polygon points="1197.2 1236.6 1197.2 1248.1 1201.2 1248.1 1201.2 1236.6 1197.2 1236.6"/>
    <path d="M1101 1236.6a96.3 96.3 0 0 1 96.3-96.3"/>
  </g>
  <g fill="none" stroke="#000" stroke-width=".3" stroke-miterlimit="10">
    <polygon points="660.3 1027.6 665.4 1027.6 665.4 931.7 660.3 931.7 660.3 1027.6"/>
    <polygon points="665.4 1027.6 665.4 1039.1 669.3 1039.1 669.3 1027.6 665.4 1027.6"/>
    <path d="M569 1027.6a96.3 96.3 0 0 1 96.4-96.3"/>
  </g>
  <g fill="none" stroke="#000" stroke-width=".3" stroke-miterlimit="10">
    <polygon points="755.4 1001.6 750.3 1001.6 750.3 905.7 755.4 905.7 755.4 1001.6"/>
    <polygon points="750.3 1001.6 750.3 1013.2 746.4 1013.2 746.4 1001.6 750.3 1001.6"/>
    <path d="M846.7 1001.6a96.3 96.3 0 0 0-96.3-96.3"/>
  </g>
  <g fill="none" stroke="#000" stroke-width=".3" stroke-miterlimit="10">
    <polygon points="1263.1 701 1258.1 701 1258.1 605 1263.1 605 1263.1 701"/>
    <polygon points="1258.1 701 1258.1 712.5 1254.1 712.5 1254.1 701 1258.1 701"/>
    <path d="M1354.4 701a96.3 96.3 0 0 0-96.3-96.4"/>
  </g>
  <g fill="none" stroke="#000" stroke-width=".3" stroke-miterlimit="10">
    <polygon points="1373.9 1107.9 1373.9 1113 1469.8 1113 1469.8 1107.9 1373.9 1107.9"/>
    <polygon points="1373.9 1113 1362.4 1113 1362.4 1116.9 1373.9 1116.9 1373.9 1113"/>
    <path d="M1374 1016.6a96.3 96.3 0 0 1 96.2 96.3"/>
  </g>
  <g fill="none" stroke="#000" stroke-width=".3" stroke-miterlimit="10">
    <rect width="108" height="5" x="1633.8" y="773.8"/>
    <polygon points="1741.8 773.8 1753.3 773.8 1753.3 769.8 1741.8 769.8 1741.8 773.8"/>
    <path d="M1742 881.8a108 108 0 0 1-108-108"/>
  </g>
  <g fill="#fff" stroke="#000" stroke-width=".3" stroke-miterlimit="10">
    <rect width="16.1" height="130" x="1737.3" y="881.8"/>
    <rect width="4.8" height="130" x="1744.5" y="881.8"/>
  </g>
  <g fill="none" stroke="#000" stroke-width=".3" stroke-miterlimit="10">
    <rect width="108" height="5" x="1633.8" y="601.6"/>
    <polygon points="1741.8 606.6 1753.3 606.6 1753.3 610.6 1741.8 610.6 1741.8 606.6"/>
    <path d="M1742 498.6a108 108 0 0 0-108 108"/>
  </g>
  <g fill="#fff" stroke="#000" stroke-width=".3" stroke-miterlimit="10">
    <rect width="16.1" height="130" x="1737.3" y="368.6"/>
    <rect width="4.8" height="130" x="1744.5" y="368.6"/>
  </g>
  <g fill="#fff" stroke="#000" stroke-width=".3" stroke-miterlimit="10">
    <rect width="222.9" height="16.1" x="757.5" y="1772.3"/>
    <rect width="222.9" height="4.8" x="757.5" y="1779.6"/>
  </g>
  <g fill="#fff" stroke="#000" stroke-width=".3" stroke-miterlimit="10">
    <rect width="117.2" height="16.1" x="364.4" y="1772.3"/>
    <rect width="117.2" height="4.8" x="364.4" y="1779.6"/>
  </g>
  <g fill="none" stroke="#000" stroke-width=".3" stroke-miterlimit="10">
    <rect width="5" height="108" x="1574.1" y="1668.9"/>
    <rect width="4" height="11.5" x="1579.1" y="1776.9"/>
    <path d="M1471 1777a108 108 0 0 1 108-108"/>
  </g>
  <g fill="#fff" stroke="#000" stroke-width=".3" stroke-miterlimit="10">
    <rect width="125.1" height="16.1" x="1346" y="1772.3"/>
    <rect width="125.1" height="4.8" x="1346" y="1779.6"/>
  </g>
  <g fill="#fff" stroke="#000" stroke-width=".3" stroke-miterlimit="10">
    <rect width="16.1" height="247.1" x="169.7" y="777.2"/>
    <rect width="4.8" height="247.1" x="173.6" y="777.2"/>
  </g>
  <g fill="#fff" stroke="#000" stroke-width=".3" stroke-miterlimit="10">
    <rect width="119.7" height="31.7" x="500.5" y="273.3"/>
    <rect width="119.7" height="8.1" x="500.5" y="260.2"/>
    <rect width="119.7" height="5.1" x="500.5" y="268.2"/>
    <rect width="119.7" height="2.5" x="500.5" y="279.5"/>
  </g>
  <g fill="#fff" stroke="#000" stroke-width=".3" stroke-miterlimit="10">
    <rect width="119.7" height="31.7" x="1513.4" y="273.3"/>
    <rect width="119.7" height="8.1" x="1513.4" y="260.2"/>
    <rect width="119.7" height="5.1" x="1513.4" y="268.2"/>
    <rect width="119.7" height="2.5" x="1513.4" y="279.5"/>
  </g>
  <g fill="#fff" stroke="#000" stroke-width=".3" stroke-miterlimit="10">
    <rect width="32" height="239.9" x="182.9" y="1101.3"/>
    <rect width="8.1" height="239.9" x="169.7" y="1101.3"/>
    <rect width="5.1" height="239.9" x="177.8" y="1101.3"/>
    <rect width="2.6" height="239.9" x="189.2" y="1101.3"/>
  </g>
  <rect width="661.7" height="5.1" y="130.3" fill="#868686"/>
  <rect width="5.1" height="1923" y="135.4" fill="#868686"/>
  <rect width="17.8" height="25" x="661.7" y="125.2" fill="#003d58"/>
  <rect width="1917.9" height="5.1" x="5.1" y="2053.3" fill="#868686"/>
  <rect width="5.1" height="1923" x="1917.9" y="130.3" fill="#868686"/>
  <rect width="656.7" height="5.1" x="1261.3" y="130.3" fill="#868686"/>
  <rect width="18.6" height="25" x="1242.7" y="125.2" fill="#003d58"/>
  <g fill="#fff" stroke="#000" stroke-width=".3" stroke-miterlimit="10">
    <rect width="153.9" height="16.1" x="830.8" y="126.4"/>
    <rect width="153.9" height="4.8" x="830.8" y="133.7"/>
  </g>
  <g fill="none" stroke="#000" stroke-width=".3" stroke-miterlimit="10">
    <rect width="5" height="95.3" x="1075" y="35.6"/>
    <rect width="4" height="11.5" x="1080" y="131"/>
    <path d="M984.7 131a95.3 95.3 0 0 1 95.4-95.3"/>
  </g>
  <g fill="none" stroke="#000" stroke-width=".3" stroke-miterlimit="10">
    <rect width="119.8" height="30.3" x="717.8" y="253.7"/>
    <rect width="119.8" height="30.3" x="717.8" y="284"/>
    <rect width="119.8" height="30.3" x="717.8" y="314.3"/>
    <rect width="119.8" height="30.3" x="717.8" y="344.5"/>
    <rect width="119.8" height="30.3" x="717.8" y="374.8"/>
    <rect width="119.8" height="30.3" x="717.8" y="405.1"/>
    <rect width="119.8" height="30.3" x="717.8" y="435.4"/>
    <rect width="119.8" height="30.3" x="717.8" y="465.7"/>
    <rect width="119.8" height="30.3" x="717.8" y="496"/>
    <rect width="119.8" height="30.3" x="717.8" y="526.3"/>
    <rect width="119.8" height="30.3" x="717.8" y="556.6"/>
  </g>
  <g fill="none" stroke="#000" stroke-width=".3" stroke-miterlimit="10">
    <rect width="119.8" height="30.3" x="1083" y="253.5"/>
    <rect width="119.8" height="30.3" x="1083" y="283.7"/>
    <rect width="119.8" height="30.3" x="1083" y="314"/>
    <rect width="119.8" height="30.3" x="1083" y="344.3"/>
    <rect width="119.8" height="30.3" x="1083" y="374.6"/>
    <rect width="119.8" height="30.3" x="1083" y="404.9"/>
    <rect width="119.8" height="30.3" x="1083" y="435.2"/>
    <rect width="119.8" height="30.3" x="1083" y="465.5"/>
    <rect width="119.8" height="30.3" x="1083" y="495.8"/>
    <rect width="119.8" height="30.3" x="1083" y="526.1"/>
    <rect width="119.8" height="30.3" x="1083" y="556.4"/>
  </g>
  <rect width="179.4" height="269.1" x="872.6" y="278.6" fill="none" stroke="#000" stroke-width=".3" stroke-miterlimit="10"/>
  <rect width="165.4" height="255" x="879.6" y="285.6" fill="none" stroke="#000" stroke-width=".3" stroke-miterlimit="10"/>
  <g fill="none" stroke="#000" stroke-width=".3" stroke-miterlimit="10">
    <rect width="5" height="85.6" x="1049.2" y="728.3"/>
    <rect width="4" height="11.4" x="1054.2" y="813.9"/>
    <path d="M1054.2 728.2a91.7 91.7 0 0 0-91.7 91.8"/>
  </g>
  <g fill="none" stroke="#000" stroke-width=".3" stroke-miterlimit="10">
    <rect width="5" height="85.6" x="870.7" y="728.3"/>
    <rect width="4" height="11.4" x="866.7" y="813.9"/>
    <path d="M870.7 728.2a91.8 91.8 0 0 1 91.8 91.8"/>
  </g>
  <rect width="69.3" height="15.2" x="717.2" fill="#003d58"/>
  <rect width="68.7" height="15.2" x="1137.1" fill="#003d58"/>
  <rect width="113.6" height="43.9" x="717.2" y="118.4" fill="#003d58"/>
  <rect width="120.6" height="43.9" x="1084" y="118.4" fill="#003d58"/>
  <rect width="76.8" height="24.6" x="847.7" y="547.7" fill="#003d58"/>
  <rect width="24.9" height="294" x="847.7" y="253.7" fill="#003d58"/>
  <rect width="204.3" height="24.9" x="872.6" y="253.7" fill="#003d58"/>
  <rect width="24.9" height="293.7" x="1052" y="278.6" fill="#003d58"/>
  <rect width="30.8" height="24.6" x="1021.1" y="547.7" fill="#003d58"/>
  <rect width="148.9" height="11.4" x="717.8" y="814" fill="#02475d"/>
  <rect width="147.6" height="11.4" x="1058.1" y="814" fill="#02475d"/>
  <rect width="351.3" height="6.8" x="786.5" y="8.5" fill="#9e9d9c"/>
</svg>
