<svg viewBox="0 0 3024.1 2225.1">
  <polygon data-id-flat="1986" class="hovered_flat_at_plan flat_plan_2" fill="#dddaee" fill-rule="evenodd" points="2007.6 155.4 2995 155.4 2995 1022.4 2372.4 1022.4 2372.4 1060.1 2271.9 1060.1 2271.9 1022.4 2007.6 1022.4 2007.6 155.4"/>
  <polygon data-id-flat="1987" class="hovered_flat_at_plan flat_plan_1" fill="#e3e3e3" points="2457.7 1130 2457.7 1060.2 2639.3 1060.2 2979.1 1060.2 2983.5 1060.2 2983.5 1959.3 3012.1 1959.3 3012.1 2150.3 2464.4 2150.3 2464.4 1970.1 2457.7 1970.1 2457.7 1230.5 2419.5 1230.5 2419.5 1130 2457.7 1130"/>
  <polygon data-id-flat="1988" class="hovered_flat_at_plan flat_plan_1" fill="#e1efe3" points="1999.4 1278.5 1999.4 1240.4 2099.6 1240.4 2099.6 1278.5 2101.6 1278.5 2101.6 1278.3 2419.7 1278.3 2419.7 1448.4 2419.5 1448.4 2419.5 2105.4 2101.6 2105.4 1801.5 2105.4 1801.5 1638.5 1801.5 1278.5 1999.4 1278.5"/>
  <polygon data-id-flat="1990" class="hovered_flat_at_plan flat_plan_2" fill="#dddaee" points="521.5 1278.3 823.5 1278.3 823.5 1278.5 838.5 1278.5 838.5 1240.4 938.4 1240.4 938.4 1278.5 1451.6 1278.5 1451.6 2150.3 1116.6 2150.3 1116.6 2105.4 823.5 2105.4 521.5 2105.4 521.5 1278.3"/>
  <polygon data-id-flat="1991" class="hovered_flat_at_plan flat_plan_2" fill="#dff2fd" points="688 155.4 688 341.6 695.1 341.6 695.1 1101.2 732.9 1101.2 732.9 1200.9 695.1 1200.9 695.1 1240.5 483.6 1240.5 483.6 1959.7 476.6 1959.7 476.6 2145.2 44.9 2145.2 44.9 155.4 688 155.4"/>
  <polygon data-id-flat="1989" class="hovered_flat_at_plan flat_plan_1" fill="#e1efe3" points="732.9 155.4 1140.6 155.4 1140.6 195.2 1443.5 195.2 1443.5 810.4 1443.5 1022.4 1128.5 1022.4 1096 1022.4 1096 1060.1 996 1060.1 996 1022.4 732.9 1022.4 732.9 341.7 732.9 341.7 732.9 155.4"/>
  <rect width="488" height="963" x="1481.6" y="97.2" fill="#f6f6f6"/>
  <polygon fill="#f6f6f6" points="732.9 1060.2 2419.5 1060.2 2419.5 1240.5 1756.6 1240.5 1756.6 2150.3 1489.6 2150.3 1489.6 1240.5 732.9 1240.5 732.9 1060.2"/>
  <g fill="none" stroke="#000" stroke-width=".3" stroke-miterlimit="10">
    <rect width="96.3" height="4.9" x="2563.9" y="199.3"/>
    <rect width="11.2" height="3.9" x="2660.2" y="195.5"/>
    <path d="M2660.2 295.6a96.3 96.3 0 0 1-96.3-96.3"/>
  </g>
  <g fill="none" stroke="#000" stroke-width=".3" stroke-miterlimit="10">
    <rect width="4.9" height="96.3" x="2715.3" y="341.6"/>
    <rect width="3.9" height="11.2" x="2711.5" y="330.4"/>
    <path d="M2811.6 341.6a96.3 96.3 0 0 1-96.3 96.3"/>
  </g>
  <g fill="none" stroke="#000" stroke-width=".3" stroke-miterlimit="10">
    <rect width="96.3" height="4.9" x="2604" y="723.7"/>
    <rect width="11.2" height="3.9" x="2700.3" y="728.6"/>
    <path d="M2700.3 632.3a96.3 96.3 0 0 0-96.3 96.3"/>
  </g>
  <g fill="none" stroke="#000" stroke-width=".3" stroke-miterlimit="10">
    <rect width="96.3" height="4.9" x="2221.7" y="723.7"/>
    <rect width="11.2" height="3.9" x="2318" y="728.6"/>
    <path d="M2318 632.3a96.3 96.3 0 0 0-96.3 96.3"/>
  </g>
  <g fill="none" stroke="#000" stroke-width=".3" stroke-miterlimit="10">
    <rect width="86.3" height="4.9" x="2261.6" y="860.6"/>
    <rect width="11.2" height="3.9" x="2250.4" y="856.7"/>
    <path d="M2261.6 946.8a86.3 86.3 0 0 0 86.3-86.3"/>
  </g>
  <g fill="none" stroke="#000" stroke-width=".3" stroke-miterlimit="10">
    <rect width="86.2" height="4.9" x="2553.9" y="1217.2"/>
    <rect width="11.2" height="3.9" x="2640.2" y="1222.1"/>
    <path d="M2640.2 1136a86.3 86.3 0 0 0-86.2 86.2"/>
  </g>
  <g fill="none" stroke="#000" stroke-width=".3" stroke-miterlimit="10">
    <rect width="4.9" height="96.6" x="2090.9" y="1143.9"/>
    <rect width="3.9" height="11.2" x="2095.8" y="1240.5"/>
    <path d="M1999.2 1240.5a96.6 96.6 0 0 1 96.6-96.6"/>
  </g>
  <g fill="none" stroke="#000" stroke-width=".3" stroke-miterlimit="10">
    <rect width="86.5" height="4.9" x="2112.8" y="1439.7"/>
    <rect width="11.2" height="3.9" x="2101.6" y="1444.6"/>
    <path d="M2112.8 1358a86.5 86.5 0 0 1 86.5 86.6"/>
  </g>
  <g fill="none" stroke="#000" stroke-width=".3" stroke-miterlimit="10">
    <rect width="96.1" height="4.9" x="2006.2" y="1619.5"/>
    <rect width="11.2" height="3.9" x="2102.3" y="1624.4"/>
    <path d="M2102.3 1528.4a96 96 0 0 0-96 96"/>
  </g>
  <g fill="none" stroke="#000" stroke-width=".3" stroke-miterlimit="10">
    <rect width="4.9" height="96.1" x="1885.3" y="1649.6"/>
    <rect width="3.9" height="11.2" x="1881.4" y="1638.5"/>
    <path d="M1981.4 1649.7a96 96 0 0 1-96 96"/>
  </g>
  <g fill="none" stroke="#000" stroke-width=".3" stroke-miterlimit="10">
    <rect width="96.1" height="4.9" x="1150.9" y="1501.4"/>
    <rect width="11.2" height="3.9" x="1139.7" y="1497.6"/>
    <path d="M1151 1597.5a96 96 0 0 0 96-96"/>
  </g>
  <g fill="none" stroke="#000" stroke-width=".3" stroke-miterlimit="10">
    <rect width="4.9" height="96.1" x="1177.8" y="1863.2"/>
    <rect width="3.9" height="11.2" x="1173.9" y="1959.3"/>
    <path d="M1274 1959.3a96 96 0 0 0-96.2-96"/>
  </g>
  <g fill="none" stroke="#000" stroke-width=".3" stroke-miterlimit="10">
    <rect width="4.9" height="96.1" x="1375.2" y="2043"/>
    <rect width="3.9" height="11.2" x="1380.1" y="2139.1"/>
    <path d="M1284 2139a96 96 0 0 1 96-96"/>
  </g>
  <g fill="none" stroke="#000" stroke-width=".3" stroke-miterlimit="10">
    <rect width="4.9" height="96.1" x="426.9" y="1863.2"/>
    <rect width="3.9" height="11.2" x="431.8" y="1959.3"/>
    <path d="M335.7 1959.3a96 96 0 0 1 96-96"/>
  </g>
  <g fill="none" stroke="#000" stroke-width=".3" stroke-miterlimit="10">
    <rect width="4.9" height="96.1" x="999.9" y="1060.1"/>
    <rect width="3.9" height="11.2" x="996" y="1049"/>
    <path d="M1096 1060.2a96 96 0 0 1-96 96"/>
  </g>
  <g fill="none" stroke="#000" stroke-width=".3" stroke-miterlimit="10">
    <rect width="86.3" height="4.9" x="1043.2" y="866.5"/>
    <rect width="11.2" height="3.9" x="1129.4" y="862.6"/>
    <path d="M1129.4 952.8a86.3 86.3 0 0 1-86.3-86.3"/>
  </g>
  <g fill="none" stroke="#000" stroke-width=".3" stroke-miterlimit="10">
    <rect width="86.3" height="4.9" x="1139.6" y="789.7"/>
    <rect width="11.2" height="3.9" x="1128.5" y="794.6"/>
    <path d="M1139.6 708.3a86.3 86.3 0 0 1 86.3 86.3"/>
  </g>
  <g fill="none" stroke="#000" stroke-width=".3" stroke-miterlimit="10">
    <rect width="96.1" height="4.9" x="1054.2" y="2063.6"/>
    <rect width="11.2" height="3.9" x="1150.3" y="2068.5"/>
    <path d="M1150.3 1972.5a96 96 0 0 0-96 96"/>
  </g>
  <g fill="none" stroke="#000" stroke-width=".3" stroke-miterlimit="10">
    <rect width="4.9" height="96.1" x="842.4" y="1144.7"/>
    <rect width="3.9" height="11.2" x="838.5" y="1240.8"/>
    <path d="M938.5 1240.8a96 96 0 0 0-96-96"/>
  </g>
  <g fill="none" stroke="#000" stroke-width=".3" stroke-miterlimit="10">
    <rect width="96.1" height="4.9" x="732.8" y="1105.1"/>
    <rect width="11.2" height="3.9" x="721.6" y="1101.2"/>
    <path d="M732.8 1201.2a96 96 0 0 0 96-96"/>
  </g>
  <g fill="none" stroke="#000" stroke-width=".3" stroke-miterlimit="10">
    <rect width="86.2" height="4.9" x="726.2" y="1439.7"/>
    <rect width="11.2" height="3.9" x="812.4" y="1444.6"/>
    <path d="M812.4 1358.4a86.2 86.2 0 0 0-86.2 86.2"/>
  </g>
  <g fill="none" stroke="#000" stroke-width=".3" stroke-miterlimit="10">
    <rect width="4.9" height="86.5" x="1023.3" y="1488.5"/>
    <rect width="3.9" height="11.2" x="1019.5" y="1477.4"/>
    <path d="M1109.8 1488.6a86.5 86.5 0 0 1-86.5 86.5"/>
  </g>
  <g fill="none" stroke="#000" stroke-width=".3" stroke-miterlimit="10">
    <rect width="4.9" height="96.3" x="911.3" y="1649.6"/>
    <rect width="3.9" height="11.2" x="907.4" y="1638.5"/>
    <path d="M1007.5 1649.7a96.3 96.3 0 0 1-96.3 96.3"/>
  </g>
  <g fill="none" stroke="#000" stroke-width=".3" stroke-miterlimit="10">
    <rect width="96.3" height="4.9" x="716.1" y="1524.4"/>
    <rect width="11.2" height="3.9" x="812.4" y="1520.5"/>
    <path d="M812.4 1620.7a96.3 96.3 0 0 1-96.3-96.3"/>
  </g>
  <g fill="none" stroke="#000" stroke-width=".3" stroke-miterlimit="10">
    <rect width="85.9" height="4.9" x="362.7" y="1056.6"/>
    <rect width="11.2" height="3.9" x="351.5" y="1061.5"/>
    <path d="M362.7 975.5a86 86 0 0 1 86 86"/>
  </g>
  <g fill="none" stroke="#000" stroke-width=".3" stroke-miterlimit="10">
    <rect width="85.9" height="4.9" x="398.4" y="943.9"/>
    <rect width="11.2" height="3.9" x="484.3" y="948.8"/>
    <path d="M484.3 863a86 86 0 0 0-86 85.8"/>
  </g>
  <g fill="none" stroke="#000" stroke-width=".3" stroke-miterlimit="10">
    <rect width="4.9" height="95.8" x="379.4" y="740.7"/>
    <rect width="3.9" height="11.2" x="375.5" y="836.5"/>
    <path d="M475 836.5a95.8 95.8 0 0 0-95.7-95.8"/>
  </g>
  <g fill="none" stroke="#000" stroke-width=".3" stroke-miterlimit="10">
    <rect width="4.9" height="95.8" x="1059.6" y="341.6"/>
    <rect width="3.9" height="11.2" x="1064.5" y="330.4"/>
    <path d="M968.7 341.6a95.8 95.8 0 0 0 95.8 95.8"/>
  </g>
  <g fill="none" stroke="#000" stroke-width=".3" stroke-miterlimit="10">
    <rect width="95.8" height="4.9" x="1106.6" y="199.3"/>
    <rect width="11.2" height="3.9" x="1095.4" y="195.5"/>
    <path d="M1106.6 295a95.8 95.8 0 0 0 95.8-95.7"/>
  </g>
  <g fill="none" stroke="#000" stroke-width=".3" stroke-miterlimit="10">
    <rect width="4.9" height="95.8" x="614.6" y="341.6"/>
    <rect width="3.9" height="11.2" x="619.5" y="330.4"/>
    <path d="M523.8 341.6a95.8 95.8 0 0 0 95.8 95.8"/>
  </g>
  <g fill="none" stroke="#000" stroke-width=".3" stroke-miterlimit="10">
    <rect width="95.8" height="4.9" x="362.7" y="227"/>
    <rect width="11.2" height="3.9" x="351.5" y="223.1"/>
    <path d="M362.7 322.8a95.8 95.8 0 0 0 95.8-95.8"/>
  </g>
  <g fill="none" stroke="#000" stroke-width=".3" stroke-miterlimit="10">
    <rect width="95.3" height="4.9" x="256.9" y="943.9"/>
    <rect width="11.2" height="3.9" x="352.2" y="948.8"/>
    <path d="M352.2 853.5a95.3 95.3 0 0 0-95.3 95.3"/>
  </g>
  <g fill="none" stroke="#000" stroke-width=".3" stroke-miterlimit="10">
    <rect width="96.7" height="4.9" x="2322.9" y="1221.7"/>
    <rect width="11.2" height="3.9" x="2419.5" y="1226.6"/>
    <path d="M2419.5 1130a96.7 96.7 0 0 0-96.7 96.7"/>
  </g>
  <g fill="none" stroke="#000" stroke-width=".3" stroke-miterlimit="10">
    <rect width="4.9" height="96.7" x="2523.3" y="1862.6"/>
    <rect width="3.9" height="11.2" x="2519.5" y="1959.3"/>
    <path d="M2620 1959.3a96.7 96.7 0 0 0-96.7-96.7"/>
  </g>
  <g fill="none" stroke="#000" stroke-width=".3" stroke-miterlimit="10">
    <rect width="4.9" height="96.7" x="2363.6" y="952.3"/>
    <rect width="3.9" height="11.2" x="2368.5" y="1049"/>
    <path d="M2272 1049a96.7 96.7 0 0 1 96.6-96.7"/>
  </g>
  <g fill="none" stroke="#000" stroke-width=".3" stroke-miterlimit="10">
    <rect width="86.3" height="4.9" x="2614" y="860.6"/>
    <rect width="11.2" height="3.9" x="2700.3" y="856.7"/>
    <path d="M2700.3 946.8a86.3 86.3 0 0 1-86.2-86.3"/>
  </g>
  <rect width="44.9" height="2000" y="150.3" fill="#003d58"/>
  <rect width="44.9" height="452" x="2979.1" y="150.3" fill="#003d58"/>
  <rect width="44.9" height="656.4" x="2979.1" y="752.5" fill="#003d58"/>
  <rect width="44.9" height="366.5" x="2979.1" y="1558.8" fill="#003d58"/>
  <rect width="138.3" height="45.2" x="2885.7" y="1925.3" fill="#003d58"/>
  <rect width="55.1" height="45.2" x="2464.4" y="1925.3" fill="#003d58"/>
  <rect width="44.9" height="225" x="2419.5" y="1925.3" fill="#003d58"/>
  <rect width="14.1" height="44.9" x="2405.4" y="2105.4" fill="#003d58"/>
  <rect width="112.1" height="44.9" x="2093.5" y="2105.4" fill="#003d58"/>
  <rect width="38.1" height="694.8" x="2419.5" y="1230.5" fill="#003d58"/>
  <rect width="320" height="38" x="2099.7" y="1240.4" fill="#003d58"/>
  <rect width="11.9" height="80" x="2101.6" y="1278.3" fill="#003d58"/>
  <rect width="306" height="12" x="2113.5" y="1448.3" fill="#003d58"/>
  <rect width="11.9" height="79.9" x="2101.6" y="1448.4" fill="#003d58"/>
  <rect width="11.9" height="477.1" x="2101.6" y="1628.3" fill="#003d58"/>
  <rect width="242.8" height="38.1" x="1756.6" y="1240.4" fill="#003d58"/>
  <rect width="44.9" height="827.1" x="1756.6" y="1278.3" fill="#003d58"/>
  <rect width="172.8" height="44.9" x="1720.8" y="2105.4" fill="#003d58"/>
  <rect width="120" height="11.6" x="1981.6" y="1638.5" fill="#003d58"/>
  <rect width="79.9" height="11.9" x="1801.5" y="1638.5" fill="#003d58"/>
  <rect width="606.7" height="37.8" x="2372.4" y="1022.4" fill="#003d58"/>
  <rect width="38.1" height="70" x="2419.5" y="1060.2" fill="#003d58"/>
  <rect width="11.9" height="75.7" x="2639.5" y="1060.2" fill="#003d58"/>
  <rect width="11.7" height="75.7" x="2699.7" y="946.8" fill="#003d58"/>
  <rect width="267.6" height="12" x="2711.5" y="812.4" fill="#003d58"/>
  <rect width="12.1" height="124.2" x="2699.3" y="732.5" fill="#003d58"/>
  <rect width="57.5" height="45" x="2921.5" y="330.4" fill="#003d58"/>
  <rect width="73.1" height="45.2" x="2598.2" y="150.3" fill="#003d58"/>
  <rect width="81.3" height="45.2" x="2317.1" y="150.3" fill="#003d58"/>
  <rect width="70.6" height="45.2" x="326.1" y="150.3" fill="#003d58"/>
  <rect width="45.2" height="27.6" x="351.5" y="195.5" fill="#003d58"/>
  <rect width="45.2" height="7.7" x="351.5" y="322.7" fill="#003d58"/>
  <rect width="81.3" height="45.2" x="44.9" y="150.3" fill="#003d58"/>
  <rect width="12.1" height="436.8" x="2317.1" y="195.5" fill="#003d58"/>
  <rect width="321.6" height="12.1" x="2007.6" y="812.3" fill="#003d58"/>
  <rect width="12.1" height="79.8" x="2317.1" y="732.5" fill="#003d58"/>
  <rect width="11.9" height="32.3" x="2250.4" y="824.4" fill="#003d58"/>
  <rect width="264.8" height="37.8" x="2007.6" y="1022.4" fill="#003d58"/>
  <rect width="12" height="75.7" x="2250.3" y="946.8" fill="#003d58"/>
  <rect width="38" height="983.4" x="1969.6" y="76.8" fill="#003d58"/>
  <rect width="176.7" height="37.8" x="1792.9" y="1022.4" fill="#003d58"/>
  <rect width="119.9" height="37.8" x="1481.6" y="1022.4" fill="#003d58"/>
  <rect width="38.1" height="983.4" x="1443.5" y="76.8" fill="#003d58"/>
  <rect width="48.6" height="45.2" x="1095.4" y="150.3" fill="#003d58"/>
  <rect width="48.6" height="45.2" x="1395" y="150.3" fill="#003d58"/>
  <rect width="45.2" height="79.9" x="1095.4" y="295.4" fill="#003d58"/>
  <rect width="11.9" height="333.1" x="1128.7" y="375.3" fill="#003d58"/>
  <rect width="315.1" height="12.1" x="1128.5" y="798.2" fill="#003d58"/>
  <rect width="12.1" height="52.2" x="1128.5" y="810.4" fill="#003d58"/>
  <rect width="347.5" height="37.8" x="1096" y="1022.4" fill="#003d58"/>
  <rect width="12.1" height="70" x="1128.5" y="952.4" fill="#003d58"/>
  <rect width="263.1" height="37.8" x="732.9" y="1022.4" fill="#003d58"/>
  <rect width="12" height="132.1" x="924" y="890.3" fill="#003d58"/>
  <rect width="60" height="12.1" x="936" y="890.3" fill="#003d58"/>
  <rect width="145.4" height="44.9" x="1384" y="2105.4" fill="#003d58"/>
  <rect width="38" height="865.3" x="1451.6" y="1240.4" fill="#003d58"/>
  <rect width="513.1" height="38.1" x="938.4" y="1240.4" fill="#003d58"/>
  <rect width="44.9" height="79.9" x="2626.5" y="295.4" fill="#003d58"/>
  <rect width="40.1" height="44.9" x="2671.4" y="330.4" fill="#003d58"/>
  <rect width="12.1" height="256.9" x="2699.3" y="375.3" fill="#003d58"/>
  <rect width="44.9" height="180.1" x="688" y="150.3" fill="#003d58"/>
  <rect width="109.5" height="44.9" x="623.4" y="330.4" fill="#003d58"/>
  <rect width="71.7" height="44.9" x="732.9" y="330.4" fill="#003d58"/>
  <rect width="37.8" height="725.9" x="695.1" y="375.3" fill="#003d58"/>
  <rect width="11.9" height="111.8" x="483.6" y="952.7" fill="#003d58"/>
  <rect width="199.6" height="12.1" x="495.5" y="992.5" fill="#003d58"/>
  <rect width="219.6" height="12.1" x="475.4" y="835.5" fill="#003d58"/>
  <rect width="11.9" height="15" x="483.6" y="847.7" fill="#003d58"/>
  <rect width="61.8" height="44.9" x="351.5" y="330.4" fill="#003d58"/>
  <rect width="27" height="44.9" x="1068.3" y="330.4" fill="#003d58"/>
  <rect width="11.9" height="477.4" x="351.5" y="375.3" fill="#003d58"/>
  <rect width="12.1" height="12.1" x="363.4" y="835.5" fill="#003d58"/>
  <rect width="11.9" height="22.6" x="351.5" y="952.7" fill="#003d58"/>
  <rect width="306.6" height="12.1" x="44.9" y="958.3" fill="#003d58"/>
  <rect width="194.3" height="12.1" x="44.9" y="737.2" fill="#003d58"/>
  <rect width="126.5" height="44.9" x="1047.4" y="2105.4" fill="#003d58"/>
  <rect width="22" height="33" x="1139.5" y="2072.4" fill="#003d58"/>
  <rect width="111.8" height="44.9" x="735.7" y="2105.4" fill="#003d58"/>
  <rect width="12.1" height="477.1" x="811.4" y="1628.3" fill="#003d58"/>
  <rect width="14.1" height="44.9" x="521.5" y="2105.4" fill="#003d58"/>
  <rect width="44.9" height="225" x="476.6" y="1925.3" fill="#003d58"/>
  <rect width="40.9" height="45.2" x="435.6" y="1925.3" fill="#003d58"/>
  <rect width="37.8" height="684.8" x="483.6" y="1240.5" fill="#003d58"/>
  <rect width="317" height="38" x="521.5" y="1240.5" fill="#003d58"/>
  <rect width="12.1" height="79.9" x="811.4" y="1278.5" fill="#003d58"/>
  <rect width="37.8" height="39.4" x="695.1" y="1201.1" fill="#003d58"/>
  <rect width="11.9" height="219.1" x="1139.7" y="1278.5" fill="#003d58"/>
  <rect width="30.2" height="12.1" x="1109.5" y="1476.4" fill="#003d58"/>
  <rect width="21" height="12.1" x="998.5" y="1476.4" fill="#003d58"/>
  <rect width="12" height="210.2" x="986.5" y="1278.3" fill="#003d58"/>
  <rect width="302.1" height="11.9" x="521.5" y="1448.5" fill="#003d58"/>
  <rect width="12.1" height="68" x="811.4" y="1460.3" fill="#003d58"/>
  <rect width="83.9" height="12" x="823.5" y="1638.5" fill="#003d58"/>
  <rect width="131.8" height="12" x="1007.6" y="1638.5" fill="#003d58"/>
  <rect width="12.1" height="374.9" x="1139.5" y="1597.5" fill="#003d58"/>
  <rect width="22.3" height="47.1" x="1151.6" y="1925.3" fill="#003d58"/>
  <rect width="67.6" height="45.2" x="1384" y="1925.3" fill="#003d58"/>
  <rect width="39.8" height="45.2" x="1489.6" y="1925.3" fill="#003d58"/>
  <rect width="35.9" height="45.2" x="1720.8" y="1925.3" fill="#003d58"/>
  <rect width="52.8" height="45.2" x="44.9" y="1925.3" fill="#003d58"/>
  <rect width="130.7" height="40.1" x="44.9" y="1152.3" fill="#003d58"/>
  <rect width="11.9" height="175.2" x="351.5" y="1065.3" fill="#003d58"/>
  <rect width="306.6" height="11.9" x="44.9" y="1140.4" fill="#003d58"/>
  <rect width="11.9" height="179.8" x="3012.1" y="1970.5" fill="#003d58"/>
  <rect width="48" height="11.9" x="2964.1" y="2138.5" fill="#003d58"/>
  <rect width="327.8" height="11.9" x="2651.3" y="1242.3" fill="#003d58"/>
  <rect width="392" height="11.9" x="2587.1" y="1650.3" fill="#003d58"/>
  <rect width="39.4" height="11.9" x="2457.7" y="1650.3" fill="#003d58"/>
  <rect width="11.9" height="76.5" x="2639.5" y="1226" fill="#003d58"/>
  <rect width="11.9" height="234.3" x="2639.5" y="1416.1" fill="#003d58"/>
  <rect width="499.7" height="5.1" x="2464.4" y="2145.2" fill="#717071"/>
  <rect width="307.7" height="5.1" x="2671.4" y="150.3" fill="#717071"/>
  <rect width="362.5" height="5.1" x="732.9" y="150.3" fill="#717071"/>
  <rect width="291.3" height="5.1" x="396.7" y="150.3" fill="#717071"/>
  <rect width="431.7" height="5.1" x="44.9" y="2145.2" fill="#717071"/>
  <g fill="none" stroke="#000" stroke-width=".3" stroke-miterlimit="10">
    <rect width="119.8" height="30.3" x="1849.8" y="442.4"/>
    <rect width="119.8" height="30.3" x="1849.8" y="472.7"/>
    <rect width="119.8" height="30.3" x="1849.8" y="503"/>
    <rect width="119.8" height="30.3" x="1849.8" y="533.3"/>
    <rect width="119.8" height="30.3" x="1849.8" y="563.6"/>
    <rect width="119.8" height="30.3" x="1849.8" y="593.9"/>
    <rect width="119.8" height="30.3" x="1849.8" y="624.2"/>
    <rect width="119.8" height="30.3" x="1849.8" y="654.5"/>
    <rect width="119.8" height="30.3" x="1849.8" y="684.8"/>
    <rect width="119.8" height="30.3" x="1849.8" y="715.1"/>
    <rect width="119.8" height="30.3" x="1849.8" y="745.4"/>
  </g>
  <g fill="none" stroke="#000" stroke-width=".3" stroke-miterlimit="10">
    <rect width="119.8" height="30.3" x="1481.7" y="442.2"/>
    <rect width="119.8" height="30.3" x="1481.7" y="472.5"/>
    <rect width="119.8" height="30.3" x="1481.7" y="502.8"/>
    <rect width="119.8" height="30.3" x="1481.7" y="533.1"/>
    <rect width="119.8" height="30.3" x="1481.7" y="563.4"/>
    <rect width="119.8" height="30.3" x="1481.7" y="593.7"/>
    <rect width="119.8" height="30.3" x="1481.7" y="624"/>
    <rect width="119.8" height="30.3" x="1481.7" y="654.3"/>
    <rect width="119.8" height="30.3" x="1481.7" y="684.6"/>
    <rect width="119.8" height="30.3" x="1481.7" y="714.9"/>
    <rect width="119.8" height="30.3" x="1481.7" y="745.2"/>
  </g>
  <rect width="179.9" height="269.6" x="1635.9" y="467.1" fill="none" stroke="#000" stroke-width=".3" stroke-miterlimit="10"/>
  <rect width="165.9" height="255.4" x="1642.8" y="474.2" fill="none" stroke="#000" stroke-width=".3" stroke-miterlimit="10"/>
  <g fill="none" stroke="#000" stroke-width=".3" stroke-miterlimit="10">
    <rect width="5" height="85.6" x="1605.5" y="944.3"/>
    <rect width="4" height="11.4" x="1601.5" y="1029.9"/>
    <path d="M1605.5 944.3a91.8 91.8 0 0 1 91.8 91.8"/>
  </g>
  <g fill="none" stroke="#000" stroke-width=".3" stroke-miterlimit="10">
    <rect width="5" height="85.6" x="1784" y="944.3"/>
    <rect width="4" height="11.4" x="1789" y="1029.9"/>
    <path d="M1789 944.3a91.8 91.8 0 0 0-91.8 91.8"/>
  </g>
  <g fill="none" stroke="#000" stroke-width=".3" stroke-miterlimit="10">
    <rect width="5" height="85.6" x="1711.8" y="2139.3"/>
    <rect width="4" height="11.4" x="1716.8" y="2127.9"/>
    <path d="M1716.8 2225a91.8 91.8 0 0 1-91.8-91.8"/>
  </g>
  <g fill="none" stroke="#000" stroke-width=".3" stroke-miterlimit="10">
    <rect width="5" height="85.6" x="1533.3" y="2139.3"/>
    <rect width="4" height="11.4" x="1529.3" y="2127.9"/>
    <path d="M1533.3 2225a91.8 91.8 0 0 0 91.8-91.8"/>
  </g>
  <g fill="none" stroke="#000" stroke-width=".3" stroke-miterlimit="10">
    <rect width="5" height="85.6" x="1711.8" y="1959.3"/>
    <rect width="4" height="11.4" x="1716.8" y="1947.9"/>
    <path d="M1716.8 2045a91.8 91.8 0 0 1-91.8-91.8"/>
  </g>
  <g fill="none" stroke="#000" stroke-width=".3" stroke-miterlimit="10">
    <rect width="5" height="85.6" x="1533.3" y="1959.3"/>
    <rect width="4" height="11.4" x="1529.3" y="1947.9"/>
    <path d="M1533.3 2045a91.8 91.8 0 0 0 91.8-91.8"/>
  </g>
  <rect width="76.8" height="26.2" x="1764.9" y="736.4" fill="#003d58"/>
  <rect width="24.9" height="294" x="1816.8" y="442.3" fill="#003d58"/>
  <rect width="204.3" height="24.9" x="1612.6" y="442.3" fill="#003d58"/>
  <rect width="24.9" height="293.7" x="1612.6" y="467.2" fill="#003d58"/>
  <rect width="30.8" height="24.6" x="1637.5" y="736.4" fill="#003d58"/>
  <rect width="68.1" height="20.4" x="1481.9" y="307.1" fill="#003d58"/>
  <rect width="149.2" height="20.4" x="1820.3" y="233.6" fill="#003d58"/>
  <rect width="50.1" height="20.4" x="1919.5" y="76.8" fill="#003d58"/>
  <rect width="98.1" height="11.4" x="1821.4" y="85.8" fill="#706f6f"/>
  <rect width="97.9" height="11.4" x="1532" y="85.8" fill="#706f6f"/>
  <rect width="50.3" height="20.4" x="1481.6" y="76.8" fill="#003d58"/>
  <rect width="147.6" height="20.4" x="1481.7" y="233.6" fill="#003d58"/>
  <rect width="20.4" height="73.4" x="1549.8" y="254" fill="#003d58"/>
  <g fill="none" stroke="#000" stroke-width=".3" stroke-miterlimit="10">
    <rect width="5" height="85.6" x="1632.8" y="157"/>
    <rect width="4" height="11.4" x="1628.9" y="242.6"/>
    <path d="M1633 157a91.8 91.8 0 0 1 91.7 91.7"/>
  </g>
  <g fill="none" stroke="#000" stroke-width=".3" stroke-miterlimit="10">
    <rect width="5" height="85.6" x="1811.3" y="157"/>
    <rect width="4" height="11.4" x="1816.3" y="242.6"/>
    <path d="M1816.4 157a91.8 91.8 0 0 0-91.8 91.7"/>
  </g>
  <g fill="none" stroke="#000" stroke-width=".3" stroke-miterlimit="10">
    <rect width="5" height="85.6" x="1633.9" y=".2"/>
    <rect width="4" height="11.4" x="1629.9" y="85.8"/>
    <path d="M1634 .2a91.8 91.8 0 0 1 91.7 91.8"/>
  </g>
  <g fill="none" stroke="#000" stroke-width=".3" stroke-miterlimit="10">
    <rect width="5" height="85.6" x="1812.4" y=".2"/>
    <rect width="4" height="11.4" x="1817.4" y="85.8"/>
    <path d="M1817.4.2a91.8 91.8 0 0 0-91.8 91.8"/>
  </g>
  <g fill="#fff" stroke="#000" stroke-width=".3" stroke-miterlimit="10">
    <rect width="266.2" height="11.3" x="2619.4" y="1959.2"/>
    <rect width="266.2" height="3.4" x="2619.4" y="1964.3"/>
  </g>
  <g fill="#fff" stroke="#000" stroke-width=".3" stroke-miterlimit="10">
    <rect width="110.1" height="11.3" x="1273.9" y="1959.2"/>
    <rect width="110.1" height="3.4" x="1273.9" y="1964.3"/>
  </g>
  <g fill="#fff" stroke="#000" stroke-width=".3" stroke-miterlimit="10">
    <rect width="110.1" height="11.3" x="2811.4" y="330.4"/>
    <rect width="110.1" height="3.4" x="2811.4" y="333.2"/>
  </g>
  <g fill="#fff" stroke="#000" stroke-width=".3" stroke-miterlimit="10">
    <rect width="110.1" height="11.3" x="1173.9" y="2139"/>
    <rect width="110.1" height="3.4" x="1173.9" y="2144.1"/>
  </g>
  <g fill="#fff" stroke="#000" stroke-width=".3" stroke-miterlimit="10">
    <rect width="238" height="11.3" x="97.7" y="1959.2"/>
    <rect width="238" height="3.4" x="97.7" y="1964.3"/>
  </g>
  <g fill="#fff" stroke="#000" stroke-width=".3" stroke-miterlimit="10">
    <rect width="31.8" height="149.9" x="2979.1" y="1408.9"/>
    <rect width="8.1" height="149.9" x="3015.9" y="1408.9"/>
    <rect width="5.1" height="149.9" x="3010.9" y="1408.9"/>
    <rect width="2.5" height="149.9" x="3002.1" y="1408.9"/>
  </g>
  <g fill="#fff" stroke="#000" stroke-width=".3" stroke-miterlimit="10">
    <rect width="199.9" height="31.8" x="2205.5" y="2105.4"/>
    <rect width="199.9" height="8.1" x="2205.5" y="2142.3"/>
    <rect width="199.9" height="5.1" x="2205.5" y="2137.2"/>
    <rect width="199.9" height="2.5" x="2205.5" y="2128.4"/>
  </g>
  <g fill="#fff" stroke="#000" stroke-width=".3" stroke-miterlimit="10">
    <rect width="199.9" height="31.8" x="1893.6" y="2105.4"/>
    <rect width="199.9" height="8.1" x="1893.6" y="2142.3"/>
    <rect width="199.9" height="5.1" x="1893.6" y="2137.2"/>
    <rect width="199.9" height="2.5" x="1893.6" y="2128.4"/>
  </g>
  <g fill="#fff" stroke="#000" stroke-width=".3" stroke-miterlimit="10">
    <rect width="199.9" height="31.8" x="2398.4" y="163.4"/>
    <rect width="199.9" height="8.1" x="2398.4" y="150.3"/>
    <rect width="199.9" height="5.1" x="2398.4" y="158.4"/>
    <rect width="199.9" height="2.5" x="2398.4" y="169.7"/>
  </g>
  <g fill="#fff" stroke="#000" stroke-width=".3" stroke-miterlimit="10">
    <rect width="199.9" height="31.8" x="126.2" y="163.4"/>
    <rect width="199.9" height="8.1" x="126.2" y="150.3"/>
    <rect width="199.9" height="5.1" x="126.2" y="158.4"/>
    <rect width="199.9" height="2.5" x="126.2" y="169.7"/>
  </g>
  <g fill="#fff" stroke="#000" stroke-width=".3" stroke-miterlimit="10">
    <rect width="110.4" height="31.8" x="413.3" y="343.6"/>
    <rect width="110.4" height="8.1" x="413.3" y="330.4"/>
    <rect width="110.4" height="5.1" x="413.3" y="338.5"/>
    <rect width="110.4" height="2.5" x="413.3" y="349.8"/>
  </g>
  <g fill="#fff" stroke="#000" stroke-width=".3" stroke-miterlimit="10">
    <rect width="164.1" height="31.8" x="804.6" y="343.6"/>
    <rect width="164.1" height="8.1" x="804.6" y="330.4"/>
    <rect width="164.1" height="5.1" x="804.6" y="338.5"/>
    <rect width="164.1" height="2.5" x="804.6" y="349.8"/>
  </g>
  <g fill="#fff" stroke="#000" stroke-width=".3" stroke-miterlimit="10">
    <rect width="309.4" height="31.8" x="2007.6" y="163.4"/>
    <rect width="309.4" height="8.1" x="2007.6" y="150.3"/>
    <rect width="309.4" height="5.1" x="2007.6" y="158.4"/>
    <rect width="309.4" height="2.5" x="2007.6" y="169.7"/>
  </g>
  <g fill="#fff" stroke="#000" stroke-width=".3" stroke-miterlimit="10">
    <rect width="199.9" height="31.8" x="847.5" y="2105.4"/>
    <rect width="199.9" height="8.1" x="847.5" y="2142.3"/>
    <rect width="199.9" height="5.1" x="847.5" y="2137.2"/>
    <rect width="199.9" height="2.5" x="847.5" y="2128.4"/>
  </g>
  <g fill="#fff" stroke="#000" stroke-width=".3" stroke-miterlimit="10">
    <rect width="199.9" height="31.8" x="535.8" y="2105.4"/>
    <rect width="199.9" height="8.1" x="535.8" y="2142.3"/>
    <rect width="199.9" height="5.1" x="535.8" y="2137.2"/>
    <rect width="199.9" height="2.5" x="535.8" y="2128.4"/>
  </g>
  <g fill="#fff" stroke="#000" stroke-width=".3" stroke-miterlimit="10">
    <rect width="31.8" height="150.2" x="2979.1" y="602.3"/>
    <rect width="8.1" height="150.2" x="3015.9" y="602.3"/>
    <rect width="5.1" height="150.2" x="3010.9" y="602.3"/>
    <rect width="2.5" height="150.2" x="3002.1" y="602.3"/>
  </g>
  <g fill="#fff" stroke="#000" stroke-width=".3" stroke-miterlimit="10">
    <rect width="251" height="31.8" x="1144" y="163.4"/>
    <rect width="251" height="8.1" x="1144" y="150.3"/>
    <rect width="251" height="5.1" x="1144" y="158.4"/>
    <rect width="251" height="2.5" x="1144" y="169.7"/>
  </g>
</svg>
