<svg id="4.4_5" viewBox="0 0 2152.5 2197.6">
  <polygon fill="#e1efe3" data-id-flat="1973" class="hovered_flat_at_plan flat_plan_2" points="1843.5 1728 1843.5 1672.9 1801.6 1672.9 1801.6 1533.1 1490.7 1533.1 1362.4 1533.1 1362.4 1032.9 995.1 1032.9 995.1 994.8 894.8 994.8 894.8 1032.9 859.6 1032.9 859.6 1213.8 859.6 1532.8 415.3 1532.8 415.3 1728 370.2 1728 148 1728 12.5 1728 12.5 2185.1 370.2 2185.1 370.2 2044.8 415.3 2044.8 415.3 2057.9 1072.6 2057.9 1842.9 2057.9 1842.9 2119.8 2139.3 2119.8 2139.3 1728 1843.5 1728"/>
  <polygon fill="#dddaee" data-id-flat="1974" class="hovered_flat_at_plan flat_plan_2" points="2139.8 56.1 1844.8 56.1 1844.8 118.1 1389.5 118.1 1389.5 553.1 1389.5 747.9 1389.5 829.2 1351.3 829.2 1351.3 929.6 1389.5 929.6 1389.5 1184.1 1389.5 1499.3 1559.7 1499.3 1832.4 1499.3 1832.4 1694.1 2030.7 1694.1 2031.1 1694.1 2031.1 1499.3 2075.6 1499.3 2075.6 448 2139.8 448 2139.8 56.1"/>
  <polygon fill="#dff2fd" data-id-flat="1972" class="hovered_flat_at_plan flat_plan_2" points="825.7 829.6 825.7 747.7 825.7 553.1 825.7 130.4 372.1 130.4 372.1 56.1 76.3 56.1 76.3 448 153.6 448 153.6 1499.3 185.3 1499.3 185.3 1694.1 186.1 1694.1 381.4 1694.1 381.4 1499.3 643.7 1499.3 655.5 1499.3 825.6 1499.3 825.7 1499.3 825.7 929.6 863.4 929.6 863.4 829.6 825.7 829.6"/>
  <rect width="487.9" height="979.6" x="863.4" y="15.2" fill="#f6f6f6"/>
  <g fill="none" stroke="#000" stroke-width=".3" stroke-miterlimit="10">
    <rect width="5.2" height="87" x="620.3" y="1184"/>
    <rect width="4.1" height="11.9" x="625.5" y="1172.1"/>
    <path d="M625.5 1271c-59 0-95.7-43.5-95.7-87"/>
  </g>
  <g fill="none" stroke="#000" stroke-width=".3" stroke-miterlimit="10">
    <rect width="87" height="5.2" x="515.3" y="839.1"/>
    <rect width="11.9" height="4.1" x="503.4" y="835"/>
    <path d="M602.3 839.2c0 59-43.5 95.7-87 95.7"/>
  </g>
  <g fill="none" stroke="#000" stroke-width=".3" stroke-miterlimit="10">
    <rect width="87.5" height="5.2" x="1612" y="839.3"/>
    <rect width="11.9" height="4.1" x="1699.4" y="835.1"/>
    <path d="M1612 839.3c0 59.4 43.7 96.2 87.5 96.2"/>
  </g>
  <g fill="none" stroke="#000" stroke-width=".3" stroke-miterlimit="10">
    <rect width="5.2" height="78" x="1507.2" y="760.2"/>
    <rect width="4.1" height="11.9" x="1512.4" y="748.3"/>
    <path d="M1512.4 838.3c-53 0-85.8-39-85.8-78"/>
  </g>
  <g fill="none" stroke="#000" stroke-width=".3" stroke-miterlimit="10">
    <rect width="86.9" height="5.2" x="1264.4" y="920.3"/>
    <rect width="11.9" height="4.1" x="1351.3" y="925.5"/>
    <path d="M1264.4 925.5c0-59 43.5-95.6 87-95.6"/>
  </g>
  <g fill="none" stroke="#000" stroke-width=".3" stroke-miterlimit="10">
    <rect width="86.9" height="5.2" x="863.4" y="833.8"/>
    <rect width="11.9" height="4.1" x="851.5" y="829.6"/>
    <path d="M950.3 833.8c0 59-43.5 95.6-87 95.6"/>
  </g>
  <g fill="none" stroke="#000" stroke-width=".3" stroke-miterlimit="10">
    <rect width="81.4" height="5.2" x="1073.8" y="1112"/>
    <rect width="11.9" height="4.1" x="1155.2" y="1107.9"/>
    <path d="M1074 1112c0 55.4 40.6 89.6 81.3 89.6"/>
  </g>
  <g fill="none" stroke="#000" stroke-width=".3" stroke-miterlimit="10">
    <rect width="5" height="77.9" x="1540.4" y="1183.8"/>
    <rect width="4.1" height="11.9" x="1545.4" y="1171.9"/>
    <path d="M1545.5 1261.7c-53 0-85.7-39-85.7-78"/>
  </g>
  <g fill="none" stroke="#000" stroke-width=".3" stroke-miterlimit="10">
    <rect width="5" height="87.9" x="1589.7" y="1183.8"/>
    <rect width="4.1" height="11.9" x="1585.6" y="1171.9"/>
    <path d="M1589.7 1271.7c59.7 0 96.7-44 96.7-88"/>
  </g>
  <g fill="none" stroke="#000" stroke-width=".3" stroke-miterlimit="10">
    <rect width="5.2" height="77.5" x="1319.1" y="1443.8"/>
    <rect width="4.1" height="11.9" x="1324.3" y="1521.2"/>
    <path d="M1324.4 1443.5c-52.8 0-85.5 39-85.5 77.8"/>
  </g>
  <g fill="none" stroke="#000" stroke-width=".3" stroke-miterlimit="10">
    <rect width="77.5" height="5.2" x="1362.4" y="1562.4"/>
    <rect width="11.9" height="4.1" x="1350.5" y="1558.3"/>
    <path d="M1440.2 1562.4c0 52.8-39 85.5-77.8 85.5"/>
  </g>
  <g fill="none" stroke="#000" stroke-width=".3" stroke-miterlimit="10">
    <rect width="86.8" height="5.2" x="174.8" y="1852.8"/>
    <rect width="11.9" height="4.1" x="162.9" y="1848.7"/>
    <path d="M261.6 1853c0 59-43.4 95.3-86.8 95.3"/>
  </g>
  <g fill="none" stroke="#000" stroke-width=".3" stroke-miterlimit="10">
    <rect width="86.8" height="5.2" x="1954.5" y="1852.8"/>
    <rect width="11.9" height="4.1" x="2041.3" y="1848.7"/>
    <path d="M1954.5 1853c0 59 43.4 95.3 86.8 95.3"/>
  </g>
  <g fill="none" stroke="#000" stroke-width=".3" stroke-miterlimit="10">
    <rect width="86.8" height="5.2" x="174.8" y="228.6"/>
    <rect width="11.9" height="4.1" x="162.9" y="224.5"/>
    <path d="M261.6 228.6c0 59-43.4 95.4-86.8 95.4"/>
  </g>
  <g fill="none" stroke="#000" stroke-width=".3" stroke-miterlimit="10">
    <rect width="86.8" height="5.2" x="1954.5" y="228.6"/>
    <rect width="11.9" height="4.1" x="2041.3" y="224.5"/>
    <path d="M1954.5 228.6c0 59 43.4 95.4 86.8 95.4"/>
  </g>
  <g fill="none" stroke="#000" stroke-width=".3" stroke-miterlimit="10">
    <rect width="5.2" height="77.5" x="1319.1" y="1684.8"/>
    <rect width="4.1" height="11.9" x="1324.3" y="1672.9"/>
    <path d="M1324.4 1762.6c-52.8 0-85.5-39-85.5-77.8"/>
  </g>
  <g fill="none" stroke="#000" stroke-width=".3" stroke-miterlimit="10">
    <rect width="5.2" height="86.9" x="898.9" y="934.1"/>
    <rect width="4.1" height="11.9" x="894.8" y="1021"/>
    <path d="M899 934.2c59 0 95.5 43.5 95.5 87"/>
  </g>
  <g fill="none" stroke="#000" stroke-width=".3" stroke-miterlimit="10">
    <rect width="5.2" height="77.7" x="669.7" y="1184"/>
    <rect width="4.1" height="11.9" x="665.6" y="1172.1"/>
    <path d="M669.8 1261.8c52.8 0 85.5-39 85.5-77.7"/>
  </g>
  <g fill="none" stroke="#000" stroke-width=".3" stroke-miterlimit="10">
    <rect width="5.2" height="77.7" x="702.9" y="759.8"/>
    <rect width="4.1" height="11.9" x="698.7" y="747.9"/>
    <path d="M703 837.6c52.7 0 85.4-39 85.4-77.7"/>
  </g>
  <g fill="none" stroke="#000" stroke-width=".3" stroke-miterlimit="10">
    <rect width="5" height="95.3" x="1221.2" y="36.5"/>
    <rect width="4" height="11.5" x="1226.3" y="131.9"/>
    <path d="M1131 132a95.3 95.3 0 0 1 95.3-95.4"/>
  </g>
  <g fill="none" stroke="#000" stroke-width=".3" stroke-miterlimit="10">
    <rect width="5" height="85.6" x="1195.4" y="680.6"/>
    <rect width="4" height="11.4" x="1200.4" y="766.2"/>
    <path d="M1200.5 680.6a91.7 91.7 0 0 0-91.7 91.8"/>
  </g>
  <g fill="none" stroke="#000" stroke-width=".3" stroke-miterlimit="10">
    <rect width="5" height="85.6" x="1016.9" y="680.6"/>
    <rect width="4" height="11.4" x="1013" y="766.2"/>
    <path d="M1017 680.6a91.8 91.8 0 0 1 91.8 91.8"/>
  </g>
  <rect width="396" height="44.9" x="140.4" y="118.1" fill="#003d58"/>
  <rect width="169" height="44.9" x="656.7" y="118.1" fill="#003d58"/>
  <rect width="37.7" height="829" x="825.7" y=".6" fill="#003d58"/>
  <rect width="137.2" height="40.2" x="688.5" y="540.8" fill="#003d58"/>
  <rect width="11.9" height="219" x="676.6" y="540.8" fill="#003d58"/>
  <rect width="10.2" height="11.9" x="688.5" y="747.9" fill="#003d58"/>
  <rect width="37.3" height="12.1" x="788.4" y="747.7" fill="#003d58"/>
  <rect width="44.9" height="133" x="140.4" y="448" fill="#003d58"/>
  <rect width="5.1" height="59.7" x="185.3" y="448" fill="#003d58"/>
  <rect width="44.9" height="142.3" x="140.4" y="700.9" fill="#003d58"/>
  <rect width="330.4" height="11.9" x="185.3" y="747.9" fill="#003d58"/>
  <rect width="12.3" height="75.4" x="503.4" y="759.7" fill="#003d58"/>
  <rect width="44.9" height="211.8" x="140.4" y="1043.5" fill="#003d58"/>
  <rect width="5.1" height="40.2" x="185.3" y="1077.8" fill="#003d58"/>
  <rect width="344.3" height="12.3" x="185.3" y="1171.9" fill="#003d58"/>
  <rect width="12.3" height="237.2" x="503.4" y="935.1" fill="#003d58"/>
  <rect width="44.9" height="272.8" x="140.4" y="1455.2" fill="#003d58"/>
  <rect width="230" height="33.9" x="185.3" y="1694.1" fill="#003d58"/>
  <rect width="33.9" height="194.8" x="381.4" y="1499.3" fill="#003d58"/>
  <rect width="410.4" height="33.9" x="415.3" y="1499.3" fill="#003d58"/>
  <rect width="33.9" height="500.2" x="825.7" y="1032.9" fill="#003d58"/>
  <rect width="11" height="59.7" x="848.6" y="1533.1" fill="#003d58"/>
  <rect width="11.9" height="315.1" x="643.6" y="1184.1" fill="#003d58"/>
  <rect width="36" height="12.3" x="629.6" y="1171.9" fill="#003d58"/>
  <rect width="70.3" height="12.3" x="755.4" y="1171.9" fill="#003d58"/>
  <rect width="37.7" height="103.3" x="825.7" y="929.6" fill="#003d58"/>
  <rect width="31.3" height="38.1" x="863.4" y="994.8" fill="#003d58"/>
  <rect width="356.2" height="38.1" x="995.1" y="994.8" fill="#003d58"/>
  <rect width="38.1" height="103.3" x="1351.3" y="929.6" fill="#003d58"/>
  <rect width="38.1" height="829" x="1351.3" y=".6" fill="#003d58"/>
  <rect width="129.2" height="44.9" x="1389.5" y="118.1" fill="#003d58"/>
  <rect width="357" height="44.9" x="1718.5" y="118.1" fill="#003d58"/>
  <rect width="44.9" height="120.7" x="2030.7" y="448" fill="#003d58"/>
  <rect width="5.1" height="59.7" x="2025.6" y="448" fill="#003d58"/>
  <rect width="44.9" height="189.3" x="2030.7" y="688.6" fill="#003d58"/>
  <rect width="331.2" height="11.9" x="1699.5" y="747.9" fill="#003d58"/>
  <rect width="11.9" height="75.4" x="1699.5" y="759.7" fill="#003d58"/>
  <rect width="44.9" height="178.9" x="2030.7" y="1014" fill="#003d58"/>
  <rect width="5.1" height="40.2" x="2025.6" y="1077.8" fill="#003d58"/>
  <rect width="345.2" height="12.3" x="1685.5" y="1171.9" fill="#003d58"/>
  <rect width="32.8" height="500.2" x="1356.6" y="1032.9" fill="#003d58"/>
  <rect width="443.9" height="33.9" x="1389.5" y="1499.3" fill="#003d58"/>
  <rect width="31.8" height="194.8" x="1801.6" y="1533.1" fill="#003d58"/>
  <rect width="197.4" height="33.9" x="1833.3" y="1694.1" fill="#003d58"/>
  <rect width="44.9" height="335.2" x="2030.7" y="1392.8" fill="#003d58"/>
  <rect width="363.8" height="44.9" x="140.4" y="2013" fill="#003d58"/>
  <rect width="110.2" height="44.9" x="1006.1" y="2013" fill="#003d58"/>
  <rect width="145.2" height="44.9" x="703.8" y="2013" fill="#003d58"/>
  <rect width="11.9" height="340.1" x="1072.6" y="1672.9" fill="#003d58"/>
  <rect width="154.2" height="11.9" x="1084.5" y="1672.9" fill="#003d58"/>
  <rect width="233.6" height="44.9" x="1316.2" y="2013" fill="#003d58"/>
  <rect width="40.2" height="5.1" x="1350.5" y="2007.9" fill="#003d58"/>
  <rect width="12.3" height="340.1" x="1478.4" y="1672.9" fill="#003d58"/>
  <rect width="149.9" height="11.9" x="1328.5" y="1672.9" fill="#003d58"/>
  <rect width="11.9" height="25" x="1350.5" y="1647.9" fill="#003d58"/>
  <rect width="28.2" height="12.3" x="1328.5" y="1520.9" fill="#003d58"/>
  <rect width="11.9" height="24.6" x="1350.5" y="1533.1" fill="#003d58"/>
  <rect width="143.2" height="12.3" x="1095.5" y="1520.9" fill="#003d58"/>
  <rect width="11.9" height="307.1" x="1155.7" y="1213.8" fill="#003d58"/>
  <rect width="11.9" height="84.8" x="1155.7" y="1032.9" fill="#003d58"/>
  <rect width="261.1" height="12.3" x="1095.5" y="1201.5" fill="#003d58"/>
  <rect width="69.9" height="12.3" x="1389.5" y="1171.9" fill="#003d58"/>
  <rect width="36" height="12.3" x="1549.6" y="1171.9" fill="#003d58"/>
  <rect width="11.9" height="314.7" x="1559.7" y="1184.1" fill="#003d58"/>
  <rect width="11.4" height="236.8" x="1699.9" y="935.1" fill="#003d58"/>
  <rect width="37.3" height="11.9" x="1389.5" y="747.9" fill="#003d58"/>
  <rect width="22" height="11.9" x="1516.5" y="747.9" fill="#003d58"/>
  <rect width="11.9" height="207.1" x="1526.7" y="540.8" fill="#003d58"/>
  <rect width="137.2" height="40.2" x="1389.5" y="540.8" fill="#003d58"/>
  <rect width="414.6" height="44.9" x="1661" y="2013" fill="#003d58"/>
  <g fill="#fff" stroke="#000" stroke-width=".3" stroke-miterlimit="10">
    <rect width="31.8" height="199.9" x="153.6" y="1255.3"/>
    <rect width="8.1" height="199.9" x="140.4" y="1255.3"/>
    <rect width="5.1" height="199.9" x="148.5" y="1255.3"/>
    <rect width="2.5" height="199.9" x="159.8" y="1255.3"/>
  </g>
  <g fill="#fff" stroke="#000" stroke-width=".3" stroke-miterlimit="10">
    <rect width="199.9" height="31.8" x="504.2" y="2013"/>
    <rect width="199.9" height="8.1" x="504.2" y="2049.9"/>
    <rect width="199.9" height="5.1" x="504.2" y="2044.8"/>
    <rect width="199.9" height="2.5" x="504.2" y="2036"/>
  </g>
  <g fill="#fff" stroke="#000" stroke-width=".3" stroke-miterlimit="10">
    <rect width="199.9" height="31.8" x="1116.3" y="2013"/>
    <rect width="199.9" height="8.1" x="1116.3" y="2049.9"/>
    <rect width="199.9" height="5.1" x="1116.3" y="2044.8"/>
    <rect width="199.9" height="2.5" x="1116.3" y="2036"/>
  </g>
  <g fill="#fff" stroke="#000" stroke-width=".3" stroke-miterlimit="10">
    <rect width="111.2" height="31.8" x="1549.7" y="2013"/>
    <rect width="111.2" height="8.1" x="1549.7" y="2049.9"/>
    <rect width="111.2" height="5.1" x="1549.7" y="2044.8"/>
    <rect width="111.2" height="2.5" x="1549.7" y="2036"/>
  </g>
  <g fill="#fff" stroke="#000" stroke-width=".3" stroke-miterlimit="10">
    <rect width="157" height="31.8" x="849" y="2013"/>
    <rect width="157" height="8.1" x="849" y="2049.9"/>
    <rect width="157" height="5.1" x="849" y="2044.8"/>
    <rect width="157" height="2.5" x="849" y="2036"/>
  </g>
  <g fill="#fff" stroke="#000" stroke-width=".3" stroke-miterlimit="10">
    <rect width="31.8" height="200.3" x="153.6" y="843.2"/>
    <rect width="8.1" height="200.3" x="140.4" y="843.2"/>
    <rect width="5.1" height="200.3" x="148.5" y="843.2"/>
    <rect width="2.5" height="200.3" x="159.8" y="843.2"/>
  </g>
  <g fill="#fff" stroke="#000" stroke-width=".3" stroke-miterlimit="10">
    <rect width="31.8" height="119.9" x="153.6" y="581"/>
    <rect width="8.1" height="119.9" x="140.4" y="581"/>
    <rect width="5.1" height="119.9" x="148.5" y="581"/>
    <rect width="2.5" height="119.9" x="159.8" y="581"/>
  </g>
  <g fill="#fff" stroke="#000" stroke-width=".3" stroke-miterlimit="10">
    <rect width="120.3" height="31.8" x="536.4" y="131.2"/>
    <rect width="120.3" height="8.1" x="536.4" y="118.1"/>
    <rect width="120.3" height="5.1" x="536.4" y="126.1"/>
    <rect width="120.3" height="2.5" x="536.4" y="137.4"/>
  </g>
  <g fill="#fff" stroke="#000" stroke-width=".3" stroke-miterlimit="10">
    <rect width="31.8" height="136.1" x="2030.7" y="877.9"/>
    <rect width="8.1" height="136.1" x="2067.5" y="877.9"/>
    <rect width="5.1" height="136.1" x="2062.5" y="877.9"/>
    <rect width="2.5" height="136.1" x="2053.7" y="877.9"/>
  </g>
  <g fill="#fff" stroke="#000" stroke-width=".3" stroke-miterlimit="10">
    <rect width="31.8" height="119.9" x="2030.7" y="568.7"/>
    <rect width="8.1" height="119.9" x="2067.5" y="568.7"/>
    <rect width="5.1" height="119.9" x="2062.5" y="568.7"/>
    <rect width="2.5" height="119.9" x="2053.7" y="568.7"/>
  </g>
  <g fill="#fff" stroke="#000" stroke-width=".3" stroke-miterlimit="10">
    <rect width="31.8" height="199.9" x="2030.7" y="1192.9"/>
    <rect width="8.1" height="199.9" x="2067.5" y="1192.9"/>
    <rect width="5.1" height="199.9" x="2062.5" y="1192.9"/>
    <rect width="2.5" height="199.9" x="2053.7" y="1192.9"/>
  </g>
  <g fill="#fff" stroke="#000" stroke-width=".3" stroke-miterlimit="10">
    <rect width="199.9" height="31.8" x="1518.6" y="131.2"/>
    <rect width="199.9" height="8.1" x="1518.6" y="118.1"/>
    <rect width="199.9" height="5.1" x="1518.6" y="126.1"/>
    <rect width="199.9" height="2.5" x="1518.6" y="137.4"/>
  </g>
  <rect width="213.7" height="30.1" x="1001.6" y="964.7" fill="#003d58"/>
  <rect width="44.9" height="120.8" x="2030.7" y="1728" fill="#003d58"/>
  <rect width="44.9" height="64.3" x="2030.7" y="1948.7" fill="#003d58"/>
  <rect width="44.9" height="120.8" x="140.4" y="1728" fill="#003d58"/>
  <rect width="44.9" height="64.3" x="140.4" y="1948.7" fill="#003d58"/>
  <rect width="44.9" height="61.5" x="2030.7" y="163" fill="#003d58"/>
  <rect width="44.9" height="123.6" x="2030.7" y="324.4" fill="#003d58"/>
  <rect width="44.9" height="61.5" x="140.4" y="163" fill="#003d58"/>
  <rect width="44.9" height="123.6" x="140.4" y="324.4" fill="#003d58"/>
  <g fill="#fff" stroke="#000" stroke-width=".3" stroke-miterlimit="10">
    <rect width="153.9" height="16.1" x="977" y="127.4"/>
    <rect width="153.9" height="4.8" x="977" y="134.7"/>
  </g>
  <g fill="none" stroke="#000" stroke-width=".3" stroke-miterlimit="10">
    <rect width="119.8" height="30.3" x="864.1" y="254.6"/>
    <rect width="119.8" height="30.3" x="864.1" y="284.9"/>
    <rect width="119.8" height="30.3" x="864.1" y="315.1"/>
    <rect width="119.8" height="30.3" x="864.1" y="345.4"/>
    <rect width="119.8" height="30.3" x="864.1" y="375.7"/>
    <rect width="119.8" height="30.3" x="864.1" y="406"/>
    <rect width="119.8" height="30.3" x="864.1" y="436.3"/>
    <rect width="119.8" height="30.3" x="864.1" y="466.6"/>
    <rect width="119.8" height="30.3" x="864.1" y="496.9"/>
    <rect width="119.8" height="30.3" x="864.1" y="527.2"/>
    <rect width="119.8" height="30.3" x="864.1" y="557.5"/>
  </g>
  <g fill="none" stroke="#000" stroke-width=".3" stroke-miterlimit="10">
    <rect width="119.8" height="30.3" x="1229.7" y="254.4"/>
    <rect width="119.8" height="30.3" x="1229.7" y="284.6"/>
    <rect width="119.8" height="30.3" x="1229.7" y="314.9"/>
    <rect width="119.8" height="30.3" x="1229.7" y="345.2"/>
    <rect width="119.8" height="30.3" x="1229.7" y="375.5"/>
    <rect width="119.8" height="30.3" x="1229.7" y="405.8"/>
    <rect width="119.8" height="30.3" x="1229.7" y="436.1"/>
    <rect width="119.8" height="30.3" x="1229.7" y="466.4"/>
    <rect width="119.8" height="30.3" x="1229.7" y="496.7"/>
    <rect width="119.8" height="30.3" x="1229.7" y="527"/>
    <rect width="119.8" height="30.3" x="1229.7" y="557.3"/>
  </g>
  <rect width="179.4" height="269.1" x="1018.8" y="279.5" fill="none" stroke="#000" stroke-width=".3" stroke-miterlimit="10"/>
  <rect width="165.4" height="255" x="1025.8" y="286.5" fill="none" stroke="#000" stroke-width=".3" stroke-miterlimit="10"/>
  <rect width="69.3" height="15.2" x="863.4" fill="#003d58"/>
  <rect width="68.1" height="15.2" x="1283.2" fill="#003d58"/>
  <rect width="113.6" height="43.9" x="863.4" y="119.3" fill="#003d58"/>
  <rect width="120.6" height="43.9" x="1230.8" y="119.3" fill="#003d58"/>
  <rect width="76.8" height="24.6" x="993.9" y="548.6" fill="#003d58"/>
  <rect width="24.9" height="294" x="993.9" y="254.6" fill="#003d58"/>
  <rect width="204.3" height="24.9" x="1018.8" y="254.6" fill="#003d58"/>
  <rect width="24.9" height="293.7" x="1198.2" y="279.5" fill="#003d58"/>
  <rect width="30.8" height="24.6" x="1167.4" y="548.6" fill="#003d58"/>
  <rect width="148.9" height="11.4" x="864.1" y="766.3" fill="#003d58"/>
  <rect width="147.6" height="11.4" x="1204.4" y="766.3" fill="#003d58"/>
  <rect width="350.4" height="6.8" x="932.8" y="8.4" fill="#9e9d9c"/>
  <g fill="#fff" stroke="#000" stroke-width=".3" stroke-miterlimit="10">
    <rect width="12.6" height="391.9" x="2139.3" y="1727.9"/>
    <rect width="3.8" height="391.9" x="2145" y="1727.9"/>
  </g>
  <g fill="#fff" stroke="#000" stroke-width=".3" stroke-miterlimit="10">
    <rect width="306.7" height="12.6" x="1845.2" y="2119.8"/>
    <rect width="306.7" height="3.8" x="1845.2" y="2125.5"/>
  </g>
  <g fill="#fff" stroke="#000" stroke-width=".3" stroke-miterlimit="10">
    <rect width="12.6" height="74.6" x="1832.7" y="2057.8"/>
    <rect width="3.8" height="74.6" x="1835.8" y="2057.8"/>
  </g>
  <g fill="#fff" stroke="#000" stroke-width=".3" stroke-miterlimit="10">
    <rect width="75.8" height="12.6" x="2076" y="1715.3"/>
    <rect width="75.8" height="3.8" x="2076" y="1718.5"/>
  </g>
  <g fill="#fff" stroke="#000" stroke-width=".3" stroke-miterlimit="10">
    <rect width="12.6" height="391.9" x="63.7" y="56.1"/>
    <rect width="3.8" height="391.9" x="66.8" y="56.1"/>
  </g>
  <g fill="#fff" stroke="#000" stroke-width=".3" stroke-miterlimit="10">
    <rect width="306.7" height="12.6" x="63.7" y="43.5"/>
    <rect width="306.7" height="3.8" x="63.7" y="46.6"/>
  </g>
  <g fill="#fff" stroke="#000" stroke-width=".3" stroke-miterlimit="10">
    <rect width="12.6" height="74.6" x="370.4" y="43.5"/>
    <rect width="3.8" height="74.6" x="376.1" y="43.5"/>
  </g>
  <g fill="#fff" stroke="#000" stroke-width=".3" stroke-miterlimit="10">
    <rect width="76.7" height="12.6" x="63.7" y="448"/>
    <rect width="76.7" height="3.8" x="63.7" y="453.6"/>
  </g>
  <g fill="#fff" stroke="#000" stroke-width=".3" stroke-miterlimit="10">
    <rect width="12.6" height="391.9" x="2139.8" y="56.1"/>
    <rect width="3.8" height="391.9" x="2145.5" y="56.1"/>
  </g>
  <g fill="#fff" stroke="#000" stroke-width=".3" stroke-miterlimit="10">
    <rect width="306.7" height="12.6" x="1845.7" y="43.5"/>
    <rect width="306.7" height="3.8" x="1845.7" y="46.6"/>
  </g>
  <g fill="#fff" stroke="#000" stroke-width=".3" stroke-miterlimit="10">
    <rect width="12.6" height="74.6" x="1833.1" y="43.5"/>
    <rect width="3.8" height="74.6" x="1836.2" y="43.5"/>
  </g>
  <g fill="#fff" stroke="#000" stroke-width=".3" stroke-miterlimit="10">
    <rect width="76.7" height="12.6" x="2075.6" y="448"/>
    <rect width="76.7" height="3.8" x="2075.6" y="453.6"/>
  </g>
  <g fill="#fff" stroke="#000" stroke-width=".3" stroke-miterlimit="10">
    <rect width="300" height="12.5" x="82.5" y="2115.2"/>
    <rect width="288.1" height="3.2" x="82.5" y="2120.4"/>
  </g>
  <g fill="#fff" stroke="#000" stroke-width=".3" stroke-miterlimit="10">
    <rect width="12.5" height="179" x="70" y="1948.6"/>
    <rect width="3.2" height="179" x="74" y="1948.6"/>
  </g>
  <g fill="#fff" stroke="#000" stroke-width=".3" stroke-miterlimit="10">
    <rect width="12.5" height="133.4" x="70" y="1715.3"/>
    <rect width="3.2" height="133.4" x="75.3" y="1715.3"/>
  </g>
  <g fill="#fff" stroke="#000" stroke-width=".3" stroke-miterlimit="10">
    <rect width="12.5" height="57.5" x="370" y="2057.7"/>
    <rect width="3.2" height="65.9" x="375.3" y="2057.7"/>
  </g>
  <g fill="#fff" stroke="#000" stroke-width=".3" stroke-miterlimit="10">
    <rect width="57.5" height="12.5" x="82.5" y="1715.3"/>
    <rect width="57.5" height="3.2" x="82.5" y="1720.5"/>
  </g>
  <rect width="12.5" height="57.5" x="370" y="2127.6" fill="#9d9d9c"/>
  <rect width="12.5" height="469.9" y="1715.2" fill="#9d9d9c"/>
  <rect width="57.5" height="12.5" x="12.5" y="1715.2" fill="#9d9d9c"/>
  <rect width="382.5" height="12.5" y="2185.1" fill="#9d9d9c"/>
</svg>
