<svg viewBox="0 0 3024 2101.3">
  <path data-id-flat="2085" class="hovered_flat_at_plan flat_plan_3" fill="#dddaee" d="M345.3 188.8V204H45v877h216.3V877h12v204H590V877h12v96h57v38.2h90.3v-38h267.2l-.4-769H639.4v-15.4h393v-83H5.2v83h340.3z"/>
  <polygon data-id-flat="2082" class="hovered_flat_at_plan flat_plan_1" fill="#dddaee" points="1054.4 2016.1 1054.4 1463.9 1054.4 1463.9 1054.4 1228.9 1301.3 1228.9 1316.1 1228.9 1316.1 1191.2 1411 1191.2 1411 1228.9 1753.2 1228.9 1753.2 1413.1 1753.2 1902.7 1769.7 1902.7 1769.7 2096.2 1431.3 2096.2 1037.5 2096.2 1037.5 2016.1 1054.4 2016.1"/>
  <polygon data-id-flat="2083" class="hovered_flat_at_plan flat_plan_1" fill="#ebf5ec" points="1791.3 1902.7 1791.3 1413.1 1791.3 1228.9 2127.9 1228.9 2127.9 1191.3 2228.3 1191.3 2228.3 1228.9 2490 1228.9 2490 2016.1 2506.5 2016.1 2506.5 2096.2 2113.1 2096.2 1774.8 2096.2 1774.8 1902.7 1791.3 1902.7"/>
  <polygon data-id-flat="2081" class="hovered_flat_at_plan flat_plan_3" fill="#dff2fd" points="2309.1 1011.2 2309.2 115.8 2677.9 115.8 2723.3 115.8 2723.5 115.8 2723.5 100.8 3012.1 100.8 3012.1 251.1 2819.5 251.1 2723.5 251.1 2723.3 251.1 2723.3 296 2979 296 2979.1 1936.1 3024 1936.1 3024 2101.3 2511.6 2101.3 2511.6 1936.1 2528 1936.1 2528 1354.3 2528 1191.2 2309.1 1191.2 2309.1 1111.2 2271.1 1111.2 2271.1 1011.2 2309.1 1011.2"/>
  <path data-id-flat="2086" class="hovered_flat_at_plan flat_plan_2" fill="#e1efe3" d="M5 2016v80h1027.4v-80h-16v-787H749V1191h-90.5v37.7h-68.8l.2-109H45v881h299.3v15.2H5z"/>
  <polygon data-id-flat="2084" class="hovered_flat_at_plan flat_plan_1" fill="#e1efe3" points="1037.5 192.8 1037.5 105.9 1430.9 105.9 1745.1 105.9 1745.1 301.9 1745.1 766.1 1745.3 766.1 1745.3 973.1 1411 973.1 1411 1011.2 1311.1 1011.2 1311.1 973.1 1300.5 973.1 1054 973.1 1054 204.1 1430.9 204.1 1430.9 192.8 1037.5 192.8"/>
  <polygon fill="#f6f6f6" points="1783.4 14.8 2271.1 14.8 2271.1 973.1 2147 973.1 2147 1011.2 1897.1 1011.2 1897.1 973.1 1783.4 973.1 1783.4 14.8"/>
  <rect width="1643.1" height="180" x="628" y="1011.2" fill="#f6f6f6"/>
  <rect width="300.7" height="44.9" x="2723.3" y="251.1" fill="#003d58"/>
  <rect width="45.1" height="296.9" x="2978.9" y="296" fill="#003d58"/>
  <rect width="14.6" height="27.1" x="2964.3" y="296" fill="#003d58"/>
  <rect width="11.9" height="150.3" x="3012.1" y="100.8" fill="#003d58"/>
  <rect width="47.9" height="12.3" x="2964.3" y="100.8" fill="#003d58"/>
  <rect width="45.1" height="318.9" x="2978.9" y="713.1" fill="#003d58"/>
  <rect width="9.5" height="50" x="2969.4" y="891" fill="#003d58"/>
  <rect width="44.9" height="299.8" x="2979.1" y="1152.3" fill="#003d58"/>
  <rect width="9.7" height="52.1" x="2969.4" y="1302.2" fill="#003d58"/>
  <rect width="44.9" height="379.4" x="2979.1" y="1571.9" fill="#003d58"/>
  <rect width="14.8" height="15.3" x="2964.3" y="1936.1" fill="#003d58"/>
  <rect width="14.8" height="50" x="2964.3" y="1881.1" fill="#003d58"/>
  <rect width="330.9" height="12.3" x="2648" y="437.9" fill="#003d58"/>
  <rect width="12.3" height="109.7" x="2648" y="450.1" fill="#003d58"/>
  <rect width="10.2" height="12.3" x="2637.8" y="517.9" fill="#003d58"/>
  <rect width="228.7" height="11.4" x="2309.2" y="517.9" fill="#003d58"/>
  <rect width="11.9" height="143.6" x="2516.3" y="529.3" fill="#003d58"/>
  <rect width="318.7" height="11.9" x="2660.2" y="838" fill="#003d58"/>
  <rect width="12.3" height="441.7" x="2648" y="660.2" fill="#003d58"/>
  <rect width="12.3" height="139.7" x="2648" y="1202.2" fill="#003d58"/>
  <rect width="321.4" height="12.3" x="2648" y="1342" fill="#003d58"/>
  <rect width="11.9" height="146.9" x="2516.3" y="763.1" fill="#003d58"/>
  <rect width="207.1" height="11.9" x="2309.2" y="838" fill="#003d58"/>
  <rect width="38.1" height="1011.3" x="2271.1" fill="#003d58"/>
  <rect width="38.1" height="1011.3" x="1745.3" fill="#003d58"/>
  <rect width="180.8" height="37.7" x="2309.2" y="1191.2" fill="#003d58"/>
  <rect width="38.1" height="824.9" x="2490" y="1191.2" fill="#003d58"/>
  <rect width="38.1" height="117.7" x="2271.1" y="1111.2" fill="#003d58"/>
  <rect width="42.8" height="37.7" x="2228.3" y="1191.2" fill="#003d58"/>
  <rect width="336.7" height="37.7" x="1791.3" y="1191.2" fill="#003d58"/>
  <rect width="38.1" height="726.3" x="1753.2" y="1191.2" fill="#003d58"/>
  <rect width="11.9" height="75.4" x="2243.1" y="1228.9" fill="#003d58"/>
  <rect width="11.9" height="141.9" x="2243.1" y="1394.1" fill="#003d58"/>
  <rect width="130" height="40.2" x="2360" y="1436" fill="#003d58"/>
  <rect width="105" height="12.3" x="2255" y="1463.9" fill="#003d58"/>
  <rect width="11.9" height="61" x="2101.3" y="1228.9" fill="#003d58"/>
  <rect width="11.9" height="33" x="2101.3" y="1390.2" fill="#003d58"/>
  <rect width="12.3" height="172.3" x="1981" y="1228.9" fill="#003d58"/>
  <rect width="170.2" height="11.8" x="1931" y="1401.3" fill="#003d58"/>
  <rect width="50" height="11.8" x="1791.3" y="1401.3" fill="#003d58"/>
  <rect width="11.9" height="413.7" x="2101.3" y="1513.1" fill="#003d58"/>
  <rect width="261.7" height="37.7" x="1054.4" y="1191.2" fill="#003d58"/>
  <rect width="38.1" height="824.9" x="1016.3" y="1191.2" fill="#003d58"/>
  <rect width="342.2" height="37.7" x="1411" y="1191.2" fill="#003d58"/>
  <rect width="11.9" height="75.4" x="1289.5" y="1228.9" fill="#003d58"/>
  <rect width="11.9" height="141.9" x="1289.5" y="1394.1" fill="#003d58"/>
  <rect width="130" height="40.2" x="1054.4" y="1436" fill="#003d58"/>
  <rect width="105" height="12.3" x="1184.4" y="1463.9" fill="#003d58"/>
  <rect width="11.9" height="61" x="1431.3" y="1228.9" fill="#003d58"/>
  <rect width="11.9" height="33" x="1431.3" y="1390.2" fill="#003d58"/>
  <rect width="12.3" height="172.3" x="1551.2" y="1228.9" fill="#003d58"/>
  <rect width="170.2" height="11.8" x="1443.2" y="1401.3" fill="#003d58"/>
  <rect width="50" height="11.8" x="1703.2" y="1401.3" fill="#003d58"/>
  <rect width="11.9" height="413.7" x="1431.3" y="1513.1" fill="#003d58"/>
  <rect width="267.2" height="37.7" x="749.1" y="1191.2" fill="#003d58"/>
  <rect width="235.5" height="11.9" x="780.9" y="1463.9" fill="#003d58"/>
  <rect width="207.8" height="38.1" x="2063.3" y="973.1" fill="#003d58"/>
  <rect width="113.8" height="38.1" x="1783.4" y="973.1" fill="#003d58"/>
  <rect width="30.1" height="110.1" x="2241" y="863" fill="#003d58"/>
  <rect width="334.3" height="38.1" x="1411" y="973.1" fill="#003d58"/>
  <rect width="257.1" height="38.1" x="1054" y="973.1" fill="#003d58"/>
  <rect width="38.1" height="822.4" x="1015.9" y="188.9" fill="#003d58"/>
  <rect width="12.1" height="139.9" x="1236.8" y="833.2" fill="#003d58"/>
  <rect width="62.2" height="11.9" x="1248.9" y="833.2" fill="#003d58"/>
  <rect width="302.1" height="11.4" x="1443.2" y="720.1" fill="#003d58"/>
  <rect width="12.3" height="160" x="1430.9" y="628" fill="#003d58"/>
  <rect width="12.3" height="94.7" x="1430.9" y="878.4" fill="#003d58"/>
  <rect width="12.3" height="235.6" x="1430.9" y="301.9" fill="#003d58"/>
  <rect width="11.9" height="479" x="627.2" y="278.2" fill="#003d58"/>
  <rect width="100.4" height="12.3" x="526.8" y="744.9" fill="#003d58"/>
  <rect width="69.9" height="12.3" x="357" y="744.9" fill="#003d58"/>
  <rect width="11.9" height="465" x="345.1" y="301.9" fill="#003d58"/>
  <rect width="266.8" height="38.1" x="749.1" y="973.1" fill="#003d58"/>
  <rect width="30.9" height="38.1" x="628" y="973.1" fill="#003d58"/>
  <rect width="38.1" height="255.8" x="589.9" y="973.1" fill="#003d58"/>
  <rect width="30.5" height="37.7" x="628" y="1191.2" fill="#003d58"/>
  <rect width="11.9" height="96.1" x="589.9" y="1228.9" fill="#003d58"/>
  <rect width="85.1" height="11.8" x="504.8" y="1313.2" fill="#003d58"/>
  <rect width="156.1" height="11.8" x="259.2" y="1313.2" fill="#003d58"/>
  <rect width="589.9" height="39" y="1081.1" fill="#003d58"/>
  <rect width="44.9" height="892.3" y="188.9" fill="#003d58"/>
  <rect width="44.9" height="896.1" y="1120.1" fill="#003d58"/>
  <rect width="44.9" height="113.4" x="345.1" y="1902.7" fill="#003d58"/>
  <rect width="44.9" height="89.3" x="627.2" y="1926.8" fill="#003d58"/>
  <rect width="44.9" height="89.3" x="1398.3" y="1926.8" fill="#003d58"/>
  <rect width="95.2" height="44.9" x="390" y="1902.7" fill="#003d58"/>
  <rect width="176.2" height="44.9" x="1615" y="1902.7" fill="#003d58"/>
  <rect width="44.9" height="113.4" x="345.1" y="188.9" fill="#003d58"/>
  <rect width="44.9" height="89.3" x="627.2" y="188.9" fill="#003d58"/>
  <rect width="44.9" height="89.3" x="1398.3" y="188.9" fill="#003d58"/>
  <rect width="95.2" height="44.9" x="390" y="257.4" fill="#003d58"/>
  <rect width="130.1" height="44.9" x="1615" y="257.4" fill="#003d58"/>
  <rect width="44.9" height="89.3" x="2101.3" y="1926.8" fill="#003d58"/>
  <rect width="176.2" height="44.9" x="1753.2" y="1902.7" fill="#003d58"/>
  <rect width="100.4" height="11.9" x="526.8" y="1445.3" fill="#003d58"/>
  <rect width="11.9" height="481.5" x="627.2" y="1445.3" fill="#003d58"/>
  <rect width="69.9" height="11.9" x="357" y="1445.3" fill="#003d58"/>
  <rect width="11.9" height="467.5" x="345.1" y="1435.1" fill="#003d58"/>
  <rect width="246.9" height="12.7" x="769" y="801.6" fill="#003d58"/>
  <rect width="11.9" height="96.1" x="589.9" y="877" fill="#003d58"/>
  <rect width="85.1" height="11.8" x="504.8" y="877" fill="#003d58"/>
  <rect width="211.7" height="11.8" x="203.3" y="877" fill="#003d58"/>
  <rect width="11.9" height="192.3" x="261.3" y="888.9" fill="#003d58"/>
  <rect width="58" height="11.8" x="44.9" y="877" fill="#003d58"/>
  <rect width="11.6" height="10.2" x="345.3" y="866.8" fill="#003d58"/>
  <rect width="11.9" height="10.2" x="345.1" y="1325" fill="#003d58"/>
  <rect width="11.9" height="193.1" x="317.2" y="1120.1" fill="#003d58"/>
  <rect width="58" height="11.8" x="44.9" y="1313.2" fill="#003d58"/>
  <g fill="none" stroke="#000" stroke-width=".3" stroke-miterlimit="10">
    <rect width="5.3" height="78.9" x="1890.2" y="53"/>
    <rect width="4.2" height="12.1" x="1886" y="131.8"/>
    <path d="M1969 131.8a79 79 0 0 0-78.8-79"/>
  </g>
  <g fill="none" stroke="#000" stroke-width=".3" stroke-miterlimit="10">
    <rect width="5.3" height="78.9" x="1901.3" y="901.3"/>
    <rect width="4.2" height="12.1" x="1897.1" y="980.2"/>
    <path d="M1980.2 980a79 79 0 0 0-79-78.8"/>
  </g>
  <g fill="none" stroke="#000" stroke-width=".3" stroke-miterlimit="10">
    <rect width="5.3" height="78.9" x="2053.8" y="901.3"/>
    <polygon points="2059.1 980.2 2059.1 992.3 2063.3 992.3 2063.3 980.2 2059.1 980.2"/>
    <path d="M1980.2 980a79 79 0 0 1 79-78.8"/>
  </g>
  <g fill="none" stroke="#000" stroke-width=".3" stroke-miterlimit="10">
    <rect width="119.8" height="30.3" x="2150.6" y="304.7"/>
    <rect width="119.8" height="30.3" x="2150.6" y="335"/>
    <rect width="119.8" height="30.3" x="2150.6" y="365.3"/>
    <rect width="119.8" height="30.3" x="2150.6" y="395.6"/>
    <rect width="119.8" height="30.3" x="2150.6" y="425.9"/>
    <rect width="119.8" height="30.3" x="2150.6" y="456.2"/>
    <rect width="119.8" height="30.3" x="2150.6" y="486.5"/>
    <rect width="119.8" height="30.3" x="2150.6" y="516.8"/>
    <rect width="119.8" height="30.3" x="2150.6" y="547.1"/>
    <rect width="119.8" height="30.3" x="2150.6" y="577.4"/>
    <rect width="119.8" height="30.3" x="2150.6" y="607.7"/>
  </g>
  <g fill="none" stroke="#000" stroke-width=".3" stroke-miterlimit="10">
    <rect width="119.8" height="30.3" x="1782.8" y="304.5"/>
    <rect width="119.8" height="30.3" x="1782.8" y="334.8"/>
    <rect width="119.8" height="30.3" x="1782.8" y="365.1"/>
    <rect width="119.8" height="30.3" x="1782.8" y="395.4"/>
    <rect width="119.8" height="30.3" x="1782.8" y="425.7"/>
    <rect width="119.8" height="30.3" x="1782.8" y="456"/>
    <rect width="119.8" height="30.3" x="1782.8" y="486.3"/>
    <rect width="119.8" height="30.3" x="1782.8" y="516.6"/>
    <rect width="119.8" height="30.3" x="1782.8" y="546.9"/>
    <rect width="119.8" height="30.3" x="1782.8" y="577.2"/>
    <rect width="119.8" height="30.3" x="1782.8" y="607.5"/>
  </g>
  <rect width="179.9" height="269.6" x="1936.6" y="329.6" fill="none" stroke="#000" stroke-width=".3" stroke-miterlimit="10"/>
  <rect width="165.9" height="255.4" x="1943.6" y="336.7" fill="none" stroke="#000" stroke-width=".3" stroke-miterlimit="10"/>
  <rect width="155.2" height="45.3" x="2115.9" y="121.1" fill="#003d58"/>
  <rect width="102.8" height="45.3" x="1783.2" y="121.1" fill="#003d58"/>
  <rect width="52.1" height="25" x="2064.8" y="599.3" fill="#003d58"/>
  <rect width="25" height="319.9" x="2116.9" y="304.3" fill="#003d58"/>
  <rect width="180" height="25.2" x="1937" y="304.3" fill="#003d58"/>
  <rect width="25" height="319.7" x="1912" y="304.5" fill="#003d58"/>
  <rect width="30.9" height="25" x="1937" y="599.3" fill="#003d58"/>
  <g fill="#fff" stroke="#000" stroke-width=".3" stroke-miterlimit="10">
    <rect width="146.8" height="12.3" x="1969.1" y="131.7"/>
    <rect width="146.8" height="3.7" x="1969.1" y="137.2"/>
  </g>
</svg>
