<svg viewBox="0 0 3024.1 2228.2">
  <polygon data-id-flat="2041" class="hovered_flat_at_plan flat_plan_3" fill="#dff2fd" points="714.9 1072 714.9 222.5 376.2 222.5 331.4 222.5 331.4 192.8 15.4 192.8 15.4 327.9 45 327.4 45 2028.2 45.4 2028.2 45.4 2162.8 488.8 2162.8 927.7 2162.8 927.7 1305.6 897.5 1305.7 897.5 1268 912.7 1268 912.7 1072 714.9 1072"/>
  <polygon data-id-flat="2042" class="hovered_flat_at_plan flat_plan_1" fill="#e1efe3" points="1981.5 192.8 1580.4 192.8 1580.4 222.9 1279 222.9 1279 814.9 1279 874.8 1279 1050.8 1593.2 1050.8 1606.4 1050.8 1606.4 1088.1 1707.1 1088.1 1707.1 1050.8 1981.5 1050.8 1981.5 192.8"/>
  <path data-id-flat="2044" class="hovered_flat_at_plan flat_plan_2" fill="#dddaee" d="M2687 222.3h-290v-29.5h-400.2v857h278v38.2h90.4v-38h57.2v108.7h557V222.3H2687z"/>
  <polygon data-id-flat="2043" class="hovered_flat_at_plan flat_plan_1" fill="#e1efe3" points="1970.1 1305.7 1723.2 1305.7 1707.4 1305.7 1707.4 1268 1607.2 1268 1607.2 1305.7 1270.3 1305.7 1270.3 1489.9 1270.3 1982.9 1259.5 1982.9 1259.5 2162.8 1578 2162.8 1578 2133.2 1592.8 2133.2 1970.1 2133.2 1970.1 1305.7"/>
  <polygon data-id-flat="2045" class="hovered_flat_at_plan flat_plan_2" fill="#dddaee" points="2008.2 2133.2 2385.1 2133.2 2385.1 2112.9 2400.4 2112.9 2400.4 2212.8 2924 2212.8 2924 2228 3024.1 2228 3024.1 2028.2 2979.2 2028.2 2979.2 1378.3 2979.2 1196.9 2422.4 1196.9 2422.4 1305.7 2385.1 1305.7 2367.1 1305.7 2367.1 1268 2275 1268 2275 1305.7 2150.1 1305.7 2008.2 1305.7"/>
  <rect width="487.8" height="996.4" x="753.1" y="91.6" fill="#f6f6f6"/>
  <rect width="1483.4" height="179.8" x="912.7" y="1088.3" fill="#f6f6f6"/>
  <polygon fill="#f6f6f6" points="1232.8 2028.4 1232.8 1268 965.8 1268 965.8 2028.4 965.8 2162.8 965.8 2178.1 1244.3 2178.1 1244.3 2028.4 1232.8 2028.4"/>
  <rect width="148.6" height="45.3" x="286" y="177.6" fill="#003d58"/>
  <rect width="97.4" height="45.3" x="45" y="177.6" fill="#003d58"/>
  <rect width="80.5" height="45.3" x="634.5" y="177.6" fill="#003d58"/>
  <rect width="38.1" height="1011.3" x="714.9" y="76.8" fill="#003d58"/>
  <rect width="99.1" height="12.3" x="615.9" y="1059.7" fill="#003d58"/>
  <rect width="17.8" height="12.3" x="507.9" y="1059.7" fill="#003d58"/>
  <rect width="11.9" height="232.1" x="496" y="839.9" fill="#003d58"/>
  <rect width="207.1" height="11.9" x="507.9" y="914.9" fill="#003d58"/>
  <rect width="11.9" height="142.7" x="496" y="607" fill="#003d58"/>
  <rect width="228.7" height="12.3" x="486.3" y="594.7" fill="#003d58"/>
  <rect width="12.3" height="122" x="363.9" y="514.7" fill="#003d58"/>
  <rect width="12.3" height="217.8" x="332" y="296.8" fill="#003d58"/>
  <rect width="10.2" height="12.3" x="376.2" y="594.7" fill="#003d58"/>
  <rect width="318.9" height="12.3" x="45" y="514.7" fill="#003d58"/>
  <rect width="44.9" height="492.1" x=".1" y="177.6" fill="#003d58"/>
  <rect width="91.8" height="37.7" x="496" y="1268" fill="#003d58"/>
  <rect width="19.8" height="149.9" x="488.8" y="2028.2" fill="#003d58"/>
  <rect width="75.5" height="45.3" x="433.1" y="1982.9" fill="#003d58"/>
  <rect width="143" height="45.3" x=".1" y="1982.9" fill="#003d58"/>
  <rect width="45.3" height="149.9" x=".1" y="2028.2" fill="#003d58"/>
  <rect width="44.9" height="334.1" x=".1" y="1648.7" fill="#003d58"/>
  <rect width="44.9" height="299.8" x=".1" y="1229.1" fill="#003d58"/>
  <rect width="74.6" height="27.1" x="44.8" y="1396.8" fill="#003d58"/>
  <rect width="331.4" height="11.9" x="44.8" y="1423.9" fill="#003d58"/>
  <rect width="12.3" height="221.1" x="363.9" y="1202.8" fill="#003d58"/>
  <rect width="12.3" height="365.9" x="363.9" y="737" fill="#003d58"/>
  <rect width="44.9" height="317.6" x=".1" y="791.2" fill="#003d58"/>
  <rect width="14.8" height="50" x="45" y="942.8" fill="#003d58"/>
  <rect width="304.1" height="12.1" x="59.8" y="968" fill="#003d58"/>
  <rect width="63.5" height="22.4" x="45" y="327.9" fill="#003d58"/>
  <rect width="102.2" height="44.9" x="520.5" y="2133.2" fill="#003d58"/>
  <rect width="131.1" height="39.8" x="520.5" y="1512.8" fill="#003d58"/>
  <rect width="105" height="12.5" x="651.5" y="1540.1" fill="#003d58"/>
  <rect width="11.9" height="81.7" x="756.6" y="1470.9" fill="#003d58"/>
  <rect width="11.9" height="97.8" x="756.6" y="1283.3" fill="#003d58"/>
  <rect width="92.6" height="37.7" x="897.5" y="1268" fill="#003d58"/>
  <rect width="207.8" height="38.1" x="753.1" y="1049.9" fill="#003d58"/>
  <rect width="30.1" height="110.1" x="753.1" y="939.8" fill="#003d58"/>
  <rect width="374.3" height="37.7" x="1232.8" y="1268" fill="#003d58"/>
  <rect width="11.9" height="61" x="1581.4" y="1305.7" fill="#003d58"/>
  <rect width="11.9" height="172.3" x="1461.1" y="1305.7" fill="#003d58"/>
  <rect width="182.1" height="11.8" x="1411.1" y="1478.1" fill="#003d58"/>
  <rect width="11.9" height="11" x="1581.4" y="1467.1" fill="#003d58"/>
  <rect width="11.9" height="10.2" x="1581.4" y="1489.9" fill="#003d58"/>
  <rect width="11.9" height="393" x="1580.9" y="1589.9" fill="#003d58"/>
  <rect width="53.8" height="50" x="1539" y="1982.9" fill="#003d58"/>
  <rect width="186.4" height="15.3" x="1164.6" y="2162.8" fill="#003d58"/>
  <rect width="7.4" height="15.3" x="965.8" y="2162.8" fill="#003d58"/>
  <rect width="15.2" height="149.8" x="1244.3" y="2028.4" fill="#003d58"/>
  <rect width="15.2" height="9.5" x="897.5" y="1088.3" fill="#003d58"/>
  <rect width="15.2" height="70.3" x="897.5" y="1197.7" fill="#003d58"/>
  <rect width="15.2" height="65.2" x="496" y="1202.8" fill="#003d58"/>
  <rect width="213.9" height="15.3" x="587.8" y="1268" fill="#003d58"/>
  <rect width="106.5" height="15.3" x="2917.6" y="2212.8" fill="#003d58"/>
  <rect width="197.8" height="15.3" x="1890.3" y="177.6" fill="#003d58"/>
  <rect width="15.2" height="135.1" x="1981.5" y="192.8" fill="#003d58"/>
  <rect width="15.2" height="184.4" x="3008.9" y="2028.3" fill="#003d58"/>
  <rect width="38.1" height="722.7" x="1232.8" y="1305.7" fill="#003d58"/>
  <rect width="38.1" height="872.5" x="927.7" y="1305.6" fill="#003d58"/>
  <rect width="50" height="11.4" x="1271" y="1478.1" fill="#003d58"/>
  <rect width="105.2" height="44.9" x="822.5" y="2133.2" fill="#003d58"/>
  <rect width="45.3" height="145.3" x="1547.9" y="2032.8" fill="#003d58"/>
  <rect width="88.5" height="44.9" x="1593.2" y="2133.2" fill="#003d58"/>
  <rect width="88.5" height="45.3" x="1881.6" y="2132.8" fill="#003d58"/>
  <rect width="88.5" height="44.9" x="2008.2" y="2133.2" fill="#003d58"/>
  <rect width="38.1" height="910" x="1970.1" y="1268" fill="#003d58"/>
  <rect width="263" height="37.7" x="1707.1" y="1268" fill="#003d58"/>
  <rect width="11.9" height="75.4" x="1723.2" y="1305.7" fill="#003d58"/>
  <rect width="11.4" height="141.9" x="1723.6" y="1470.9" fill="#003d58"/>
  <rect width="154.1" height="13.6" x="1735.1" y="1539.1" fill="#003d58"/>
  <rect width="80.9" height="39.8" x="1889.2" y="1512.8" fill="#003d58"/>
  <rect width="38.1" height="1011.5" x="1240.9" y="76.8" fill="#003d58"/>
  <rect width="113.9" height="38.1" x="1127" y="1049.9" fill="#003d58"/>
  <rect width="328.2" height="37.5" x="1279" y="1050.8" fill="#003d58"/>
  <rect width="12.3" height="95.6" x="1580.9" y="955.2" fill="#003d58"/>
  <rect width="12.3" height="152" x="1580.9" y="723" fill="#003d58"/>
  <rect width="171.9" height="11.8" x="1409" y="803.1" fill="#003d58"/>
  <rect width="130" height="39.8" x="1279" y="803.1" fill="#003d58"/>
  <rect width="47" height="45.3" x="1279" y="177.6" fill="#003d58"/>
  <rect width="55.1" height="45.3" x="1525.9" y="177.6" fill="#003d58"/>
  <rect width="45.3" height="195.2" x="1580.9" y="177.6" fill="#003d58"/>
  <rect width="12.3" height="260" x="1580.9" y="372.8" fill="#003d58"/>
  <rect width="38.1" height="760.1" x="1970.1" y="327.9" fill="#003d58"/>
  <rect width="96.1" height="44.9" x="1874" y="327.9" fill="#003d58"/>
  <rect width="95.7" height="44.9" x="2008.2" y="327.9" fill="#003d58"/>
  <rect width="263" height="38.1" x="1707.1" y="1049.9" fill="#003d58"/>
  <rect width="266.8" height="38.1" x="2008.2" y="1049.9" fill="#003d58"/>
  <rect width="257" height="11.9" x="2008.3" y="879.2" fill="#003d58"/>
  <rect width="266.8" height="37.7" x="2008.2" y="1268" fill="#003d58"/>
  <rect width="30.5" height="36.8" x="2365.6" y="1268" fill="#003d58"/>
  <rect width="38.1" height="254.9" x="2396.1" y="1049.9" fill="#003d58"/>
  <rect width="30.9" height="38.1" x="2365.2" y="1049.9" fill="#003d58"/>
  <rect width="11.9" height="132.1" x="1773.2" y="917.8" fill="#003d58"/>
  <rect width="60.1" height="11.9" x="1713.1" y="917.8" fill="#003d58"/>
  <rect width="100.4" height="12.3" x="2397" y="1498.8" fill="#003d58"/>
  <rect width="11.9" height="484" x="2385.1" y="1498.8" fill="#003d58"/>
  <rect width="29.2" height="45.3" x="2430" y="1982.9" fill="#003d58"/>
  <rect width="44.9" height="195.2" x="2385.1" y="1982.9" fill="#003d58"/>
  <rect width="88.5" height="44.9" x="2296.6" y="2133.2" fill="#003d58"/>
  <rect width="89.8" height="12.3" x="2597.3" y="1498.8" fill="#003d58"/>
  <rect width="12.3" height="493.8" x="2687" y="1489.1" fill="#003d58"/>
  <rect width="106.4" height="45.3" x="2631.1" y="1982.9" fill="#003d58"/>
  <rect width="11.9" height="74.1" x="2422.4" y="1304.9" fill="#003d58"/>
  <rect width="85.1" height="12.3" x="2434.2" y="1366.7" fill="#003d58"/>
  <rect width="141.9" height="12.3" x="2609.1" y="1366.7" fill="#003d58"/>
  <rect width="12.3" height="9.7" x="2687" y="1379" fill="#003d58"/>
  <rect width="11.9" height="182.1" x="2751" y="1196.9" fill="#003d58"/>
  <rect width="58" height="12.3" x="2762.8" y="1366.7" fill="#003d58"/>
  <rect width="58" height="11.9" x="2921.2" y="1366.7" fill="#003d58"/>
  <rect width="545" height="38.1" x="2434.2" y="1158.8" fill="#003d58"/>
  <rect width="11.9" height="66.5" x="2422.4" y="893.3" fill="#003d58"/>
  <rect width="112.2" height="11.9" x="2434.2" y="893.3" fill="#003d58"/>
  <rect width="12.3" height="253.7" x="2534.2" y="905.1" fill="#003d58"/>
  <rect width="141" height="11.9" x="2636.2" y="893.3" fill="#003d58"/>
  <rect width="12.3" height="10.2" x="2687" y="883.1" fill="#003d58"/>
  <rect width="11.9" height="265.5" x="2777.2" y="893.3" fill="#003d58"/>
  <rect width="50" height="11.9" x="2789.1" y="893.3" fill="#003d58"/>
  <rect width="70.3" height="44.7" x="2397" y="177.6" fill="#003d58"/>
  <rect width="11.9" height="373.1" x="2385.1" y="399.9" fill="#003d58"/>
  <rect width="30.1" height="50" x="2385.1" y="349.9" fill="#003d58"/>
  <rect width="44.9" height="195.2" x="2352.1" y="177.6" fill="#003d58"/>
  <rect width="63.9" height="44.7" x="2667.1" y="177.6" fill="#003d58"/>
  <rect width="12.3" height="560.9" x="2687" y="222.3" fill="#003d58"/>
  <rect width="89.8" height="11.4" x="2597.3" y="761.6" fill="#003d58"/>
  <rect width="100.4" height="11.9" x="2397" y="761.1" fill="#003d58"/>
  <rect width="44.9" height="1850.6" x="2979.2" y="177.6" fill="#003d58"/>
  <rect width="69.9" height="45.3" x="2909.4" y="1982.9" fill="#003d58"/>
  <rect width="50" height="11.9" x="2929.3" y="893.3" fill="#003d58"/>
  <rect width="48.3" height="45.3" x="2931" y="177.6" fill="#003d58"/>
  <rect width="235.6" height="12.3" x="2008.3" y="1540.7" fill="#003d58"/>
  <rect width="52.1" height="25" x="907.2" y="701.1" fill="#003d58"/>
  <rect width="25" height="319.9" x="882.2" y="406.1" fill="#003d58"/>
  <rect width="180" height="25.2" x="907.2" y="406.1" fill="#003d58"/>
  <rect width="25" height="319.7" x="1087.2" y="406.3" fill="#003d58"/>
  <rect width="30.9" height="25" x="1056.3" y="701.1" fill="#003d58"/>
  <rect width="11.9" height="872.4" x="508.6" y="1305.7" fill="#003d58"/>
  <g fill="#fff" stroke="#000" stroke-width=".3" stroke-miterlimit="10">
    <rect width="443.4" height="15.3" x="45.4" y="2162.8"/>
    <rect width="443.4" height="4.6" x="45.4" y="2169.7"/>
  </g>
  <g fill="#fff" stroke="#000" stroke-width=".3" stroke-miterlimit="10">
    <rect width="196.9" height="15.3" x="1351" y="2162.8"/>
    <rect width="196.9" height="4.6" x="1351" y="2169.7"/>
  </g>
  <g fill="#fff" stroke="#000" stroke-width=".3" stroke-miterlimit="10">
    <rect width="532.5" height="15.3" x="2385.1" y="2212.8"/>
    <rect width="532.5" height="4.6" x="2385.1" y="2219.7"/>
  </g>
  <g fill="#fff" stroke="#000" stroke-width=".3" stroke-miterlimit="10">
    <rect width="15.2" height="34.7" x="2385.1" y="2178.1"/>
    <rect width="4.6" height="34.7" x="2388.9" y="2178.1"/>
  </g>
  <g fill="#fff" stroke="#000" stroke-width=".3" stroke-miterlimit="10">
    <rect width="274.9" height="15.3" x="2077.1" y="177.6"/>
    <rect width="274.9" height="4.6" x="2077.1" y="181.4"/>
  </g>
  <g fill="#fff" stroke="#000" stroke-width=".3" stroke-miterlimit="10">
    <rect width="165.1" height="15.3" x="2187" y="322.8"/>
    <rect width="165.1" height="4.6" x="2187" y="326.6"/>
  </g>
  <g fill="#fff" stroke="#000" stroke-width=".3" stroke-miterlimit="10">
    <rect width="164.7" height="15.3" x="1626.3" y="322.8"/>
    <rect width="164.7" height="4.6" x="1626.3" y="326.6"/>
  </g>
  <g fill="#fff" stroke="#000" stroke-width=".3" stroke-miterlimit="10">
    <rect width="274.9" height="15.3" x="1625.8" y="177.6"/>
    <rect width="274.9" height="4.6" x="1625.8" y="181.4"/>
  </g>
  <g fill="#fff" stroke="#000" stroke-width=".3" stroke-miterlimit="10">
    <rect width="31.8" height="171.2" x="13.3" y="620"/>
    <rect width="8.1" height="171.2" x=".1" y="620"/>
    <rect width="5.1" height="171.2" x="8.2" y="620"/>
    <rect width="2.5" height="171.2" x="19.5" y="620"/>
  </g>
  <g fill="#fff" stroke="#000" stroke-width=".3" stroke-miterlimit="10">
    <rect width="199.9" height="31.8" x="434.6" y="190.7"/>
    <rect width="199.9" height="8.1" x="434.6" y="177.6"/>
    <rect width="199.9" height="5.1" x="434.6" y="185.6"/>
    <rect width="199.9" height="2.5" x="434.6" y="196.9"/>
  </g>
  <g fill="#fff" stroke="#000" stroke-width=".3" stroke-miterlimit="10">
    <rect width="143.5" height="31.8" x="142.5" y="190.7"/>
    <rect width="143.5" height="8.1" x="142.5" y="177.6"/>
    <rect width="143.5" height="5.1" x="142.5" y="185.6"/>
    <rect width="143.5" height="2.5" x="142.5" y="196.9"/>
  </g>
  <g fill="#fff" stroke="#000" stroke-width=".3" stroke-miterlimit="10">
    <rect width="31.8" height="120.3" x="13.3" y="1108.8"/>
    <rect width="8.1" height="120.3" x=".1" y="1108.8"/>
    <rect width="5.1" height="120.3" x="8.2" y="1108.8"/>
    <rect width="2.5" height="120.3" x="19.5" y="1108.8"/>
  </g>
  <g fill="#fff" stroke="#000" stroke-width=".3" stroke-miterlimit="10">
    <rect width="31.8" height="119.8" x="13.3" y="1528.9"/>
    <rect width="8.1" height="119.8" x=".1" y="1528.9"/>
    <rect width="5.1" height="119.8" x="8.2" y="1528.9"/>
    <rect width="2.5" height="119.8" x="19.5" y="1528.9"/>
  </g>
  <rect width="149.2" height="20.4" x="753.1" y="233.6" fill="#003d58"/>
  <rect width="50.1" height="20.4" x="753.1" y="76.8" fill="#003d58"/>
  <rect width="98.1" height="11.4" x="803.1" y="85.8" fill="#706f6f"/>
  <rect width="97.9" height="11.4" x="1092.7" y="85.8" fill="#706f6f"/>
  <rect width="50.3" height="20.4" x="1190.6" y="76.8" fill="#003d58"/>
  <rect width="147.6" height="20.4" x="1093.3" y="233.6" fill="#003d58"/>
  <g fill="none" stroke="#000" stroke-width=".3" stroke-miterlimit="10">
    <rect width="5" height="85.6" x="1084.8" y="157"/>
    <rect width="4" height="11.4" x="1089.8" y="242.6"/>
    <path d="M1089.7 157a91.8 91.8 0 0 0-91.8 91.7"/>
  </g>
  <g fill="none" stroke="#000" stroke-width=".3" stroke-miterlimit="10">
    <rect width="5" height="85.6" x="906.3" y="157"/>
    <rect width="4" height="11.4" x="902.3" y="242.6"/>
    <path d="M906.2 157a91.8 91.8 0 0 1 91.8 91.7"/>
  </g>
  <g fill="none" stroke="#000" stroke-width=".3" stroke-miterlimit="10">
    <rect width="5" height="85.6" x="1083.7" y=".2"/>
    <rect width="4" height="11.4" x="1088.7" y="85.8"/>
    <path d="M1088.7 0A91.8 91.8 0 0 0 997 92"/>
  </g>
  <g fill="none" stroke="#000" stroke-width=".3" stroke-miterlimit="10">
    <rect width="5" height="85.6" x="905.2" y=".2"/>
    <rect width="4" height="11.4" x="901.2" y="85.8"/>
    <path d="M905.2 0A91.8 91.8 0 0 1 997 92"/>
  </g>
</svg>
