<svg id="4.4_1" viewBox="0 0 2052.3 2322.9">
  <path fill="#e1efe3" data-id-flat="1961" class="hovered_flat_at_plan flat_plan_2" d="M2052.2 1876v446.7H1704V1876h348.2zm-391-195h-439v-500H854.8v-38.2H754.4v38h-35.2v500H275v195H7.7v317H275v13h1428.2v-385h-42V1681z"/>
  <polygon fill="#dddaee" data-id-flat="1962" class="hovered_flat_at_plan flat_plan_2" points="1249.2 266 1249.2 701 1249.2 895.8 1249.2 977.2 1211 977.2 1211 1077.5 1249.2 1077.5 1249.2 1332.1 1249.2 1647.2 1419.4 1647.2 1692.1 1647.2 1692.1 1842 1890.4 1842 1890.8 1842 1890.8 1647.2 1935.3 1647.2 1935.3 266 1249.2 266"/>
  <polygon fill="#dff2fd" data-id-flat="1960" class="hovered_flat_at_plan flat_plan_2" points="685.4 977.6 685.4 278.4 231.8 278.4 13.3 278.4 13.3 595.9 13.3 1647.2 45 1647.2 45 1842 45.8 1842 241.1 1842 241.1 1647.2 503.4 1647.2 515.2 1647.2 685.3 1647.2 685.4 1647.2 685.4 1077.5 723.1 1077.5 723.1 977.6 685.4 977.6"/>
  <rect width="563.9" height="1058" x="685.3" y="84.7" fill="#f6f6f6"/>
  <g fill="none" stroke="#000" stroke-width=".3" stroke-miterlimit="10">
    <rect width="5.2" height="87" x="480" y="1331.9"/>
    <rect width="4.1" height="11.9" x="485.2" y="1320"/>
    <path d="M485.2 1419c-59 0-95.7-43.6-95.7-87"/>
  </g>
  <g fill="none" stroke="#000" stroke-width=".3" stroke-miterlimit="10">
    <rect width="87" height="5.2" x="375" y="987.1"/>
    <rect width="11.9" height="4.1" x="363.1" y="983"/>
    <path d="M462 987c0 59.2-43.5 95.8-87 95.8"/>
  </g>
  <g fill="none" stroke="#000" stroke-width=".3" stroke-miterlimit="10">
    <rect width="87.5" height="5.2" x="1471.7" y="987.2"/>
    <rect width="11.9" height="4.1" x="1559.2" y="983.1"/>
    <path d="M1471.7 987.2c0 59.4 43.7 96.2 87.5 96.2"/>
  </g>
  <g fill="none" stroke="#000" stroke-width=".3" stroke-miterlimit="10">
    <rect width="5.2" height="78" x="1366.9" y="908.2"/>
    <rect width="4.1" height="11.9" x="1372.1" y="896.3"/>
    <path d="M1372 986.2c-53 0-85.7-39-85.7-78"/>
  </g>
  <g fill="none" stroke="#000" stroke-width=".3" stroke-miterlimit="10">
    <rect width="86.9" height="5.2" x="1124.1" y="1068.2"/>
    <rect width="11.9" height="4.1" x="1211" y="1073.4"/>
    <path d="M1124 1073.4c0-59 43.6-95.6 87-95.6"/>
  </g>
  <g fill="none" stroke="#000" stroke-width=".3" stroke-miterlimit="10">
    <rect width="86.9" height="5.2" x="723.1" y="981.7"/>
    <rect width="11.9" height="4.1" x="711.2" y="977.6"/>
    <path d="M810 981.7c0 59-43.5 95.6-87 95.6"/>
  </g>
  <g fill="none" stroke="#000" stroke-width=".3" stroke-miterlimit="10">
    <rect width="81.4" height="5.2" x="933.5" y="1260"/>
    <rect width="11.9" height="4.1" x="1014.9" y="1255.9"/>
    <path d="M933.6 1260c0 55.3 40.7 89.5 81.4 89.5"/>
  </g>
  <g fill="none" stroke="#000" stroke-width=".3" stroke-miterlimit="10">
    <rect width="5" height="77.9" x="1400.1" y="1331.7"/>
    <rect width="4.1" height="11.9" x="1405.1" y="1319.8"/>
    <path d="M1405.2 1409.6c-53 0-85.7-39-85.7-78"/>
  </g>
  <g fill="none" stroke="#000" stroke-width=".3" stroke-miterlimit="10">
    <rect width="5" height="87.9" x="1449.4" y="1331.7"/>
    <rect width="4.1" height="11.9" x="1445.3" y="1319.8"/>
    <path d="M1449.4 1419.6c59.7 0 96.7-44 96.7-88"/>
  </g>
  <g fill="none" stroke="#000" stroke-width=".3" stroke-miterlimit="10">
    <rect width="5.2" height="77.5" x="1178.8" y="1591.7"/>
    <rect width="4.1" height="11.9" x="1184" y="1669.2"/>
    <path d="M1184 1591.4c-52.7 0-85.4 39-85.4 77.8"/>
  </g>
  <g fill="none" stroke="#000" stroke-width=".3" stroke-miterlimit="10">
    <rect width="77.5" height="5.2" x="1222.1" y="1710.4"/>
    <rect width="11.9" height="4.1" x="1210.2" y="1706.2"/>
    <path d="M1300 1710.3c0 52.8-39 85.5-78 85.5"/>
  </g>
  <g fill="none" stroke="#000" stroke-width=".3" stroke-miterlimit="10">
    <rect width="5.2" height="77.5" x="1097.3" y="1832.8"/>
    <rect width="4.1" height="11.9" x="1102.5" y="1820.9"/>
    <path d="M1102.6 1910.5c-52.8 0-85.5-39-85.5-77.8"/>
  </g>
  <g fill="none" stroke="#000" stroke-width=".3" stroke-miterlimit="10">
    <rect width="5.2" height="86.9" x="758.6" y="1082.1"/>
    <rect width="4.1" height="11.9" x="754.5" y="1169"/>
    <path d="M758.6 1082c59 0 95.6 43.6 95.6 87"/>
  </g>
  <g fill="none" stroke="#000" stroke-width=".3" stroke-miterlimit="10">
    <rect width="5.2" height="77.7" x="529.4" y="1331.9"/>
    <rect width="4.1" height="11.9" x="525.3" y="1320"/>
    <path d="M529.5 1409.7c52.8 0 85.5-39 85.5-77.7"/>
  </g>
  <g fill="none" stroke="#000" stroke-width=".3" stroke-miterlimit="10">
    <rect width="5.2" height="77.7" x="562.6" y="907.7"/>
    <rect width="4.1" height="11.9" x="558.4" y="895.8"/>
    <path d="M562.6 985.5c52.8 0 85.5-39 85.5-77.7"/>
  </g>
  <g fill="none" stroke="#000" stroke-width=".3" stroke-miterlimit="10">
    <rect width="119.8" height="30.3" x="723.2" y="421.8"/>
    <rect width="119.8" height="30.3" x="723.2" y="452.1"/>
    <rect width="119.8" height="30.3" x="723.2" y="482.3"/>
    <rect width="119.8" height="30.3" x="723.2" y="512.6"/>
    <rect width="119.8" height="30.3" x="723.2" y="542.9"/>
    <rect width="119.8" height="30.3" x="723.2" y="573.2"/>
    <rect width="119.8" height="30.3" x="723.2" y="603.5"/>
    <rect width="119.8" height="30.3" x="723.2" y="633.8"/>
    <rect width="119.8" height="30.3" x="723.2" y="664.1"/>
    <rect width="119.8" height="30.3" x="723.2" y="694.4"/>
    <rect width="119.8" height="30.3" x="723.2" y="724.7"/>
  </g>
  <g fill="none" stroke="#000" stroke-width=".3" stroke-miterlimit="10">
    <rect width="119.8" height="30.3" x="1091.2" y="421.5"/>
    <rect width="119.8" height="30.3" x="1091.2" y="451.8"/>
    <rect width="119.8" height="30.3" x="1091.2" y="482.1"/>
    <rect width="119.8" height="30.3" x="1091.2" y="512.4"/>
    <rect width="119.8" height="30.3" x="1091.2" y="542.7"/>
    <rect width="119.8" height="30.3" x="1091.2" y="573"/>
    <rect width="119.8" height="30.3" x="1091.2" y="603.3"/>
    <rect width="119.8" height="30.3" x="1091.2" y="633.6"/>
    <rect width="119.8" height="30.3" x="1091.2" y="663.9"/>
    <rect width="119.8" height="30.3" x="1091.2" y="694.2"/>
    <rect width="119.8" height="30.3" x="1091.2" y="724.5"/>
  </g>
  <rect width="179.9" height="269.6" x="877" y="446.4" fill="none" stroke="#000" stroke-width=".3" stroke-miterlimit="10"/>
  <rect width="165.9" height="255.4" x="884" y="453.5" fill="none" stroke="#000" stroke-width=".3" stroke-miterlimit="10"/>
  <g fill="none" stroke="#000" stroke-width=".3" stroke-miterlimit="10">
    <rect width="5" height="85.6" x="1054.2" y="825.6"/>
    <rect width="4" height="11.4" x="1059.2" y="911.2"/>
    <path d="M1059.3 825.5a91.8 91.8 0 0 0-91.8 91.8"/>
  </g>
  <g fill="none" stroke="#000" stroke-width=".3" stroke-miterlimit="10">
    <rect width="5" height="85.6" x="875.7" y="825.6"/>
    <rect width="4" height="11.4" x="871.8" y="911.2"/>
    <path d="M875.8 825.5a91.8 91.8 0 0 1 91.8 91.8"/>
  </g>
  <rect width="76.8" height="26.2" x="851" y="715.7" fill="#003d58"/>
  <rect width="24.9" height="294" x="851" y="421.6" fill="#003d58"/>
  <rect width="204.3" height="24.9" x="875.9" y="421.6" fill="#003d58"/>
  <rect width="24.9" height="293.7" x="1055.2" y="446.5" fill="#003d58"/>
  <rect width="30.8" height="24.6" x="1024.4" y="715.7" fill="#003d58"/>
  <rect width="148.6" height="11.4" x="723.2" y="911.4" fill="#003d58"/>
  <rect width="147.6" height="11.4" x="1063.2" y="911.4" fill="#003d58"/>
  <rect width="68.1" height="20.4" x="1142.7" y="286.4" fill="#003d58"/>
  <rect width="149.2" height="20.4" x="723.2" y="212.9" fill="#003d58"/>
  <rect width="147.6" height="20.4" x="1063.4" y="212.9" fill="#003d58"/>
  <rect width="20.4" height="73.4" x="1122.5" y="233.3" fill="#003d58"/>
  <g fill="none" stroke="#000" stroke-width=".3" stroke-miterlimit="10">
    <rect width="5" height="85.6" x="1054.9" y="136.3"/>
    <rect width="4" height="11.4" x="1059.9" y="221.9"/>
    <path d="M1060 136.2a91.8 91.8 0 0 0-92 91.8"/>
  </g>
  <g fill="none" stroke="#000" stroke-width=".3" stroke-miterlimit="10">
    <rect width="5" height="85.6" x="876.4" y="136.3"/>
    <rect width="4" height="11.4" x="872.4" y="221.9"/>
    <path d="M876.4 136.2a91.8 91.8 0 0 1 91.8 91.8"/>
  </g>
  <g fill="none" stroke="#000" stroke-width=".3" stroke-miterlimit="10">
    <rect width="5" height="85.6" x="1072.8" y=".2"/>
    <rect width="4" height="11.4" x="1077.8" y="85.8"/>
    <path d="M1077.8 0A91.8 91.8 0 0 0 986 92"/>
  </g>
  <g fill="none" stroke="#000" stroke-width=".3" stroke-miterlimit="10">
    <rect width="5" height="85.6" x="894.3" y=".2"/>
    <rect width="4" height="11.4" x="890.3" y="85.8"/>
    <path d="M894.3 0A91.8 91.8 0 0 1 986 92"/>
  </g>
  <rect width="166" height="44.9" x="230.1" y="266" fill="#003d58"/>
  <rect width="169" height="44.9" x="516.4" y="266" fill="#003d58"/>
  <rect width="37.7" height="764.6" x="685.4" y="212.9" fill="#003d58"/>
  <rect width="137.2" height="40.2" x="548.2" y="688.7" fill="#003d58"/>
  <rect width="11.9" height="219" x="536.3" y="688.7" fill="#003d58"/>
  <rect width="10.2" height="11.9" x="548.2" y="895.8" fill="#003d58"/>
  <rect width="37.3" height="12.1" x="648.2" y="895.6" fill="#003d58"/>
  <rect width="44.9" height="133" x=".1" y="596" fill="#003d58"/>
  <rect width="5.1" height="59.7" x="45" y="596" fill="#003d58"/>
  <rect width="44.9" height="142.3" x=".1" y="848.8" fill="#003d58"/>
  <rect width="330.4" height="11.9" x="45" y="895.8" fill="#003d58"/>
  <rect width="12.3" height="75.4" x="363.1" y="907.7" fill="#003d58"/>
  <rect width="44.9" height="211.8" x=".1" y="1191.5" fill="#003d58"/>
  <rect width="5.1" height="40.2" x="45" y="1225.8" fill="#003d58"/>
  <rect width="344.3" height="12.3" x="45" y="1319.8" fill="#003d58"/>
  <rect width="12.3" height="237.2" x="363.1" y="1083.1" fill="#003d58"/>
  <rect width="44.9" height="272.8" x=".1" y="1603.2" fill="#003d58"/>
  <rect width="230" height="33.9" x="45" y="1842" fill="#003d58"/>
  <rect width="33.9" height="194.8" x="241.1" y="1647.2" fill="#003d58"/>
  <rect width="410.4" height="33.9" x="275" y="1647.2" fill="#003d58"/>
  <rect width="33.9" height="500.2" x="685.4" y="1180.9" fill="#003d58"/>
  <rect width="11" height="59.7" x="708.3" y="1681.1" fill="#003d58"/>
  <rect width="11.9" height="315.1" x="503.3" y="1332.1" fill="#003d58"/>
  <rect width="36" height="12.3" x="489.3" y="1319.8" fill="#003d58"/>
  <rect width="70.3" height="12.3" x="615.1" y="1319.8" fill="#003d58"/>
  <rect width="37.7" height="103.3" x="685.4" y="1077.5" fill="#003d58"/>
  <rect width="31.3" height="38.1" x="723.1" y="1142.8" fill="#003d58"/>
  <rect width="356.2" height="38.1" x="854.8" y="1142.8" fill="#003d58"/>
  <rect width="38.1" height="103.3" x="1211" y="1077.5" fill="#003d58"/>
  <rect width="38.1" height="764.6" x="1211" y="212.9" fill="#003d58"/>
  <rect width="129.2" height="44.9" x="1249.2" y="266" fill="#003d58"/>
  <rect width="127.1" height="44.9" x="1578.3" y="266" fill="#003d58"/>
  <rect width="44.9" height="120.7" x="1890.4" y="596" fill="#003d58"/>
  <rect width="5.1" height="59.7" x="1885.3" y="596" fill="#003d58"/>
  <rect width="44.9" height="189.3" x="1890.4" y="836.5" fill="#003d58"/>
  <rect width="331.2" height="11.9" x="1559.2" y="895.8" fill="#003d58"/>
  <rect width="11.9" height="75.4" x="1559.2" y="907.7" fill="#003d58"/>
  <rect width="44.9" height="183" x="1890.4" y="1225.8" fill="#003d58"/>
  <rect width="5.1" height="40.2" x="1885.3" y="1225.8" fill="#003d58"/>
  <rect width="345.2" height="12.3" x="1545.2" y="1319.8" fill="#003d58"/>
  <rect width="32.8" height="500.2" x="1216.3" y="1180.9" fill="#003d58"/>
  <rect width="443.9" height="33.9" x="1249.2" y="1647.2" fill="#003d58"/>
  <rect width="31.8" height="194.8" x="1661.3" y="1681.1" fill="#003d58"/>
  <rect width="197.4" height="33.9" x="1693" y="1842" fill="#003d58"/>
  <rect width="44.9" height="267.3" x="1890.4" y="1608.7" fill="#003d58"/>
  <rect width="133.8" height="44.9" x="230.1" y="2161" fill="#003d58"/>
  <rect width="40.2" height="5.1" x="250" y="2155.9" fill="#003d58"/>
  <rect width="412.1" height="44.9" x="563.9" y="2161" fill="#003d58"/>
  <rect width="11.9" height="340.1" x="932.3" y="1820.9" fill="#003d58"/>
  <rect width="72.7" height="11.9" x="944.2" y="1820.9" fill="#003d58"/>
  <rect width="224.5" height="44.9" x="1175.9" y="2161" fill="#003d58"/>
  <rect width="40.2" height="5.1" x="1210.2" y="2155.9" fill="#003d58"/>
  <rect width="12.3" height="340.1" x="1338.1" y="1820.9" fill="#003d58"/>
  <rect width="231.5" height="11.9" x="1106.6" y="1820.9" fill="#003d58"/>
  <rect width="11.9" height="25" x="1210.2" y="1795.9" fill="#003d58"/>
  <rect width="28.2" height="12.3" x="1188.2" y="1668.8" fill="#003d58"/>
  <rect width="11.9" height="24.6" x="1210.2" y="1681.1" fill="#003d58"/>
  <rect width="143.2" height="12.3" x="955.2" y="1668.8" fill="#003d58"/>
  <rect width="11.9" height="307.1" x="1015.4" y="1361.7" fill="#003d58"/>
  <rect width="261.1" height="12.3" x="955.2" y="1349.5" fill="#003d58"/>
  <rect width="69.9" height="12.3" x="1249.2" y="1319.8" fill="#003d58"/>
  <rect width="36" height="12.3" x="1409.3" y="1319.8" fill="#003d58"/>
  <rect width="11.9" height="314.7" x="1419.4" y="1332.1" fill="#003d58"/>
  <rect width="11.4" height="236.8" x="1559.6" y="1083.1" fill="#003d58"/>
  <rect width="37.3" height="11.9" x="1249.2" y="895.8" fill="#003d58"/>
  <rect width="22" height="11.9" x="1376.2" y="895.8" fill="#003d58"/>
  <rect width="11.9" height="207.1" x="1386.4" y="688.7" fill="#003d58"/>
  <rect width="137.2" height="40.2" x="1249.2" y="688.7" fill="#003d58"/>
  <rect width="103.8" height="44.9" x="1600.3" y="2161" fill="#003d58"/>
  <g fill="#fff" stroke="#000" stroke-width=".3" stroke-miterlimit="10">
    <rect width="31.8" height="199.9" x="13.3" y="1403.3"/>
    <rect width="8.1" height="199.9" x=".1" y="1403.3"/>
    <rect width="5.1" height="199.9" x="8.2" y="1403.3"/>
    <rect width="2.5" height="199.9" x="19.5" y="1403.3"/>
  </g>
  <g fill="#fff" stroke="#000" stroke-width=".3" stroke-miterlimit="10">
    <rect width="31.8" height="200.3" x="13.3" y="991.1"/>
    <rect width="8.1" height="200.3" x=".1" y="991.1"/>
    <rect width="5.1" height="200.3" x="8.2" y="991.1"/>
    <rect width="2.5" height="200.3" x="19.5" y="991.1"/>
  </g>
  <g fill="#fff" stroke="#000" stroke-width=".3" stroke-miterlimit="10">
    <rect width="31.8" height="119.9" x="13.3" y="729"/>
    <rect width="8.1" height="119.9" x=".1" y="729"/>
    <rect width="5.1" height="119.9" x="8.2" y="729"/>
    <rect width="2.5" height="119.9" x="19.5" y="729"/>
  </g>
  <g fill="#fff" stroke="#000" stroke-width=".3" stroke-miterlimit="10">
    <rect width="120.3" height="31.8" x="396.1" y="279.2"/>
    <rect width="120.3" height="8.1" x="396.1" y="266"/>
    <rect width="120.3" height="5.1" x="396.1" y="274.1"/>
    <rect width="120.3" height="2.5" x="396.1" y="285.4"/>
  </g>
  <g fill="#fff" stroke="#000" stroke-width=".3" stroke-miterlimit="10">
    <rect width="199.9" height="31.8" x="1378.3" y="279.2"/>
    <rect width="199.9" height="8.1" x="1378.3" y="266"/>
    <rect width="199.9" height="5.1" x="1378.3" y="274.1"/>
    <rect width="199.9" height="2.5" x="1378.3" y="285.4"/>
  </g>
  <g fill="#fff" stroke="#000" stroke-width=".3" stroke-miterlimit="10">
    <rect width="31.8" height="119.9" x="1890.4" y="716.7"/>
    <rect width="8.1" height="119.9" x="1927.3" y="716.7"/>
    <rect width="5.1" height="119.9" x="1922.2" y="716.7"/>
    <rect width="2.5" height="119.9" x="1913.4" y="716.7"/>
  </g>
  <g fill="#fff" stroke="#000" stroke-width=".3" stroke-miterlimit="10">
    <rect width="31.8" height="199.9" x="1890.4" y="1408.8"/>
    <rect width="8.1" height="199.9" x="1927.3" y="1408.8"/>
    <rect width="5.1" height="199.9" x="1922.2" y="1408.8"/>
    <rect width="2.5" height="199.9" x="1913.4" y="1408.8"/>
  </g>
  <g fill="#fff" stroke="#000" stroke-width=".3" stroke-miterlimit="10">
    <rect width="199.9" height="31.8" x="1400.4" y="2161"/>
    <rect width="199.9" height="8.1" x="1400.4" y="2197.8"/>
    <rect width="199.9" height="5.1" x="1400.4" y="2192.7"/>
    <rect width="199.9" height="2.5" x="1400.4" y="2184"/>
  </g>
  <g fill="#fff" stroke="#000" stroke-width=".3" stroke-miterlimit="10">
    <rect width="199.9" height="31.8" x="976" y="2161"/>
    <rect width="199.9" height="8.1" x="976" y="2197.8"/>
    <rect width="199.9" height="5.1" x="976" y="2192.7"/>
    <rect width="199.9" height="2.5" x="976" y="2184"/>
  </g>
  <g fill="#fff" stroke="#000" stroke-width=".3" stroke-miterlimit="10">
    <rect width="199.9" height="31.8" x="363.1" y="2161"/>
    <rect width="199.9" height="8.1" x="363.1" y="2197.8"/>
    <rect width="199.9" height="5.1" x="363.1" y="2192.7"/>
    <rect width="199.9" height="2.5" x="363.1" y="2184"/>
  </g>
  <g fill="#fff" stroke="#000" stroke-width=".3" stroke-miterlimit="10">
    <rect width="31.8" height="199.9" x="1890.4" y="1025.9"/>
    <rect width="8.1" height="199.9" x="1927.3" y="1025.9"/>
    <rect width="5.1" height="199.9" x="1922.2" y="1025.9"/>
    <rect width="2.5" height="199.9" x="1913.4" y="1025.9"/>
  </g>
  <g fill="#fff" stroke="#000" stroke-width=".3" stroke-miterlimit="10">
    <rect width="116.9" height="13.1" x="1935.3" y="1862.8"/>
    <rect width="116.9" height="3.4" x="1935.3" y="1867"/>
  </g>
  <g fill="#fff" stroke="#000" stroke-width=".3" stroke-miterlimit="10">
    <rect width="13.1" height="446.8" x="2039.1" y="1875.9"/>
    <rect width="3.4" height="446.8" x="2044.6" y="1875.9"/>
  </g>
  <g fill="#fff" stroke="#000" stroke-width=".3" stroke-miterlimit="10">
    <rect width="348.2" height="13.1" x="1690.9" y="2309.6"/>
    <rect width="348.2" height="3.4" x="1690.9" y="2315.2"/>
  </g>
  <g fill="#fff" stroke="#000" stroke-width=".3" stroke-miterlimit="10">
    <rect width="13.1" height="103.8" x="1690.9" y="2205.9"/>
    <rect width="3.4" height="103.8" x="1695.1" y="2205.9"/>
  </g>
  <g fill="#fff" stroke="#000" stroke-width=".3" stroke-miterlimit="10">
    <rect width="230" height="13.1" x=".1" y="2192.7"/>
    <rect width="230" height="3.4" x=".1" y="2198.3"/>
  </g>
  <g fill="#fff" stroke="#000" stroke-width=".3" stroke-miterlimit="10">
    <rect width="13.1" height="317.6" x=".1" y="1875.2"/>
    <rect width="3.4" height="317.6" x="4.4" y="1875.2"/>
  </g>
  <g fill="#fff" stroke="#000" stroke-width=".3" stroke-miterlimit="10">
    <rect width="13.1" height="317.6" x=".1" y="278.4"/>
    <rect width="3.4" height="317.6" x="4.4" y="278.4"/>
  </g>
  <g fill="#fff" stroke="#000" stroke-width=".3" stroke-miterlimit="10">
    <rect width="230" height="13.1" x=".1" y="265.3"/>
    <rect width="230" height="3.4" x=".1" y="269.5"/>
  </g>
  <g fill="#fff" stroke="#000" stroke-width=".3" stroke-miterlimit="10">
    <rect width="230" height="13.1" x="1705.3" y="266"/>
    <rect width="230" height="3.4" x="1705.3" y="270.3"/>
  </g>
  <g fill="#fff" stroke="#000" stroke-width=".3" stroke-miterlimit="10">
    <rect width="13.1" height="316.8" x="1922.2" y="279.2"/>
    <rect width="3.4" height="316.8" x="1927.7" y="279.2"/>
  </g>
  <rect width="11.9" height="75" x="1014.9" y="1180.9" fill="#003d58"/>
  <rect width="192.7" height="30.1" x="871.8" y="1112.7" fill="#003d58"/>
  <g fill="#fff" stroke="#9d9d9c" stroke-miterlimit="10">
    <rect width="204.8" height="12.6" x="685.3" y="84.7"/>
    <rect width="204.8" height="3.8" x="685.3" y="87.8"/>
  </g>
  <g fill="#fff" stroke="#9d9d9c" stroke-miterlimit="10">
    <rect width="167.3" height="12.6" x="1081.5" y="84.7"/>
    <rect width="167.3" height="3.8" x="1081.5" y="87.8"/>
  </g>
  <rect width="11.9" height="181.4" x="1248.9" y="84.7" fill="#003d58"/>
  <rect width="11.9" height="181.4" x="673.4" y="84.7" fill="#003d58"/>
</svg>
