<svg viewBox="0 0 3024.1 2225.1">
  <polygon data-id-flat="1980" class="hovered_flat_at_plan flat_plan_2" fill="#dddaee" fill-rule="evenodd" points="1016.5 155.4 29.1 155.4 29.1 1022.4 651.7 1022.4 651.7 1060.1 752.3 1060.1 752.3 1022.4 1016.5 1022.4 1016.5 155.4"/>
  <polygon data-id-flat="1981" class="hovered_flat_at_plan flat_plan_1" fill="#e3e3e3" points="566.5 1130 566.5 1060.2 384.8 1060.2 45 1060.2 40.6 1060.2 40.6 1959.3 12 1959.3 12 2150.3 559.7 2150.3 559.7 1970.1 566.5 1970.1 566.5 1230.5 604.6 1230.5 604.6 1130 566.5 1130"/>
  <polygon data-id-flat="1982" class="hovered_flat_at_plan flat_plan_1" fill="#e1efe3" points="1024.7 1278.5 1024.7 1240.4 924.5 1240.4 924.5 1278.5 922.5 1278.5 922.5 1278.3 604.4 1278.3 604.4 1448.4 604.6 1448.4 604.6 2105.4 922.5 2105.4 1222.6 2105.4 1222.6 1638.5 1222.6 1278.5 1024.7 1278.5"/>
  <polygon data-id-flat="1984" class="hovered_flat_at_plan flat_plan_2" fill="#dddaee" points="2502.7 1278.3 2200.6 1278.3 2200.6 1278.5 2185.6 1278.5 2185.6 1240.4 2085.7 1240.4 2085.7 1278.5 1572.5 1278.5 1572.5 2150.3 1907.5 2150.3 1907.5 2105.4 2200.6 2105.4 2502.7 2105.4 2502.7 1278.3"/>
  <polygon data-id-flat="1985" class="hovered_flat_at_plan flat_plan_2" fill="#dff2fd" points="2336.1 155.4 2336.1 341.6 2329 341.6 2329 1101.2 2291.2 1101.2 2291.2 1200.9 2329 1200.9 2329 1240.5 2540.5 1240.5 2540.5 1959.7 2547.6 1959.7 2547.6 2145.2 2979.2 2145.2 2979.2 155.4 2336.1 155.4"/>
  <polygon data-id-flat="1983" class="hovered_flat_at_plan flat_plan_1" fill="#e1efe3" points="2291.2 155.4 1883.5 155.4 1883.5 195.2 1580.6 195.2 1580.6 810.4 1580.6 1022.4 1895.7 1022.4 1928.1 1022.4 1928.1 1060.1 2028.1 1060.1 2028.1 1022.4 2291.2 1022.4 2291.2 341.7 2291.2 341.7 2291.2 155.4"/>
  <rect width="488" height="963" x="1054.5" y="97.2" fill="#f6f6f6"/>
  <polygon fill="#f6f6f6" points="2291.2 1060.2 604.6 1060.2 604.6 1240.5 1267.5 1240.5 1267.5 2150.3 1534.6 2150.3 1534.6 1240.5 2291.2 1240.5 2291.2 1060.2"/>
  <g fill="none" stroke="#000" stroke-width=".3" stroke-miterlimit="10">
    <rect width="96.3" height="4.9" x="363.9" y="199.3"/>
    <rect width="11.2" height="3.9" x="352.8" y="195.5"/>
    <path d="M364 295.6a96.3 96.3 0 0 0 96.2-96.3"/>
  </g>
  <g fill="none" stroke="#000" stroke-width=".3" stroke-miterlimit="10">
    <rect width="4.9" height="96.3" x="303.9" y="341.6"/>
    <rect width="3.9" height="11.2" x="308.8" y="330.4"/>
    <path d="M212.5 341.6a96.3 96.3 0 0 0 96.3 96.3"/>
  </g>
  <g fill="none" stroke="#000" stroke-width=".3" stroke-miterlimit="10">
    <rect width="96.3" height="4.9" x="323.8" y="723.7"/>
    <rect width="11.2" height="3.9" x="312.7" y="728.6"/>
    <path d="M323.8 632.3a96.3 96.3 0 0 1 96.3 96.3"/>
  </g>
  <g fill="none" stroke="#000" stroke-width=".3" stroke-miterlimit="10">
    <rect width="96.3" height="4.9" x="706.1" y="723.7"/>
    <rect width="11.2" height="3.9" x="694.9" y="728.6"/>
    <path d="M706 632.3a96.3 96.3 0 0 1 96.4 96.3"/>
  </g>
  <g fill="none" stroke="#000" stroke-width=".3" stroke-miterlimit="10">
    <rect width="86.3" height="4.9" x="676.3" y="860.6"/>
    <rect width="11.2" height="3.9" x="762.5" y="856.7"/>
    <path d="M762.5 946.8a86.3 86.3 0 0 1-86.3-86.3"/>
  </g>
  <g fill="none" stroke="#000" stroke-width=".3" stroke-miterlimit="10">
    <rect width="86.2" height="4.9" x="384" y="1217.2"/>
    <rect width="11.2" height="3.9" x="372.8" y="1222.1"/>
    <path d="M384 1136a86.3 86.3 0 0 1 86 86.2"/>
  </g>
  <g fill="none" stroke="#000" stroke-width=".3" stroke-miterlimit="10">
    <rect width="4.9" height="96.6" x="928.3" y="1143.9"/>
    <rect width="3.9" height="11.2" x="924.5" y="1240.5"/>
    <path d="M1025 1240.5a96.6 96.6 0 0 0-96.7-96.6"/>
  </g>
  <g fill="none" stroke="#000" stroke-width=".3" stroke-miterlimit="10">
    <rect width="86.5" height="4.9" x="824.8" y="1439.7"/>
    <rect width="11.2" height="3.9" x="911.3" y="1444.6"/>
    <path d="M911.3 1358a86.5 86.5 0 0 0-86.5 86.6"/>
  </g>
  <g fill="none" stroke="#000" stroke-width=".3" stroke-miterlimit="10">
    <rect width="96.1" height="4.9" x="921.8" y="1619.5"/>
    <rect width="11.2" height="3.9" x="910.6" y="1624.4"/>
    <path d="M921.8 1528.4a96 96 0 0 1 96 96"/>
  </g>
  <g fill="none" stroke="#000" stroke-width=".3" stroke-miterlimit="10">
    <rect width="4.9" height="96.1" x="1134" y="1649.6"/>
    <rect width="3.9" height="11.2" x="1138.8" y="1638.5"/>
    <path d="M1042.7 1649.7a96 96 0 0 0 96 96"/>
  </g>
  <g fill="none" stroke="#000" stroke-width=".3" stroke-miterlimit="10">
    <rect width="96.1" height="4.9" x="1777.1" y="1501.4"/>
    <rect width="11.2" height="3.9" x="1873.2" y="1497.6"/>
    <path d="M1873.2 1597.5a96 96 0 0 1-96-96"/>
  </g>
  <g fill="none" stroke="#000" stroke-width=".3" stroke-miterlimit="10">
    <rect width="4.9" height="96.1" x="1841.5" y="1863.2"/>
    <rect width="3.9" height="11.2" x="1846.4" y="1959.3"/>
    <path d="M1750.3 1959.3a96 96 0 0 1 96-96"/>
  </g>
  <g fill="none" stroke="#000" stroke-width=".3" stroke-miterlimit="10">
    <rect width="4.9" height="96.1" x="1644" y="2043"/>
    <rect width="3.9" height="11.2" x="1640.2" y="2139.1"/>
    <path d="M1740 2139a96 96 0 0 0-96-96"/>
  </g>
  <g fill="none" stroke="#000" stroke-width=".3" stroke-miterlimit="10">
    <rect width="4.9" height="96.1" x="2592.4" y="1863.2"/>
    <rect width="3.9" height="11.2" x="2588.5" y="1959.3"/>
    <path d="M2688.4 1959.3a96 96 0 0 0-96-96"/>
  </g>
  <g fill="none" stroke="#000" stroke-width=".3" stroke-miterlimit="10">
    <rect width="4.9" height="96.1" x="2019.3" y="1060.1"/>
    <rect width="3.9" height="11.2" x="2024.2" y="1049"/>
    <path d="M1928 1060.2a96 96 0 0 0 96.2 96"/>
  </g>
  <g fill="none" stroke="#000" stroke-width=".3" stroke-miterlimit="10">
    <rect width="86.3" height="4.9" x="1894.7" y="866.5"/>
    <rect width="11.2" height="3.9" x="1883.5" y="862.6"/>
    <path d="M1894.7 952.8a86.3 86.3 0 0 0 86.3-86.3"/>
  </g>
  <g fill="none" stroke="#000" stroke-width=".3" stroke-miterlimit="10">
    <rect width="86.3" height="4.9" x="1798.2" y="789.7"/>
    <rect width="11.2" height="3.9" x="1884.5" y="794.6"/>
    <path d="M1884.5 708.3a86.3 86.3 0 0 0-86.3 86.3"/>
  </g>
  <g fill="none" stroke="#000" stroke-width=".3" stroke-miterlimit="10">
    <rect width="96.1" height="4.9" x="1873.8" y="2063.6"/>
    <rect width="11.2" height="3.9" x="1862.6" y="2068.5"/>
    <path d="M1873.8 1972.5a96 96 0 0 1 96 96"/>
  </g>
  <g fill="none" stroke="#000" stroke-width=".3" stroke-miterlimit="10">
    <rect width="4.9" height="96.1" x="2176.9" y="1144.7"/>
    <rect width="3.9" height="11.2" x="2181.8" y="1240.8"/>
    <path d="M2085.7 1240.8a96 96 0 0 1 96-96"/>
  </g>
  <g fill="none" stroke="#000" stroke-width=".3" stroke-miterlimit="10">
    <rect width="96.1" height="4.9" x="2195.3" y="1105.1"/>
    <rect width="11.2" height="3.9" x="2291.3" y="1101.2"/>
    <path d="M2291.3 1201.2a96 96 0 0 1-96-96"/>
  </g>
  <g fill="none" stroke="#000" stroke-width=".3" stroke-miterlimit="10">
    <rect width="86.2" height="4.9" x="2211.8" y="1439.7"/>
    <rect width="11.2" height="3.9" x="2200.6" y="1444.6"/>
    <path d="M2211.7 1358.4a86.2 86.2 0 0 1 86.2 86.2"/>
  </g>
  <g fill="none" stroke="#000" stroke-width=".3" stroke-miterlimit="10">
    <rect width="4.9" height="86.5" x="1995.9" y="1488.5"/>
    <rect width="3.9" height="11.2" x="2000.8" y="1477.4"/>
    <path d="M1914.3 1488.6a86.5 86.5 0 0 0 86.5 86.5"/>
  </g>
  <g fill="none" stroke="#000" stroke-width=".3" stroke-miterlimit="10">
    <rect width="4.9" height="96.3" x="2108" y="1649.6"/>
    <rect width="3.9" height="11.2" x="2112.9" y="1638.5"/>
    <path d="M2016.6 1649.7a96.3 96.3 0 0 0 96.3 96.3"/>
  </g>
  <g fill="none" stroke="#000" stroke-width=".3" stroke-miterlimit="10">
    <rect width="96.3" height="4.9" x="2211.8" y="1524.4"/>
    <rect width="11.2" height="3.9" x="2200.6" y="1520.5"/>
    <path d="M2211.7 1620.7a96.3 96.3 0 0 0 96.3-96.3"/>
  </g>
  <g fill="none" stroke="#000" stroke-width=".3" stroke-miterlimit="10">
    <rect width="85.9" height="4.9" x="2575.5" y="1056.6"/>
    <rect width="11.2" height="3.9" x="2661.5" y="1061.5"/>
    <path d="M2661.4 975.5a86 86 0 0 0-86 86"/>
  </g>
  <g fill="none" stroke="#000" stroke-width=".3" stroke-miterlimit="10">
    <rect width="85.9" height="4.9" x="2539.8" y="943.9"/>
    <rect width="11.2" height="3.9" x="2528.6" y="948.8"/>
    <path d="M2539.8 863a86 86 0 0 1 86 85.8"/>
  </g>
  <g fill="none" stroke="#000" stroke-width=".3" stroke-miterlimit="10">
    <rect width="4.9" height="95.8" x="2639.9" y="740.7"/>
    <rect width="3.9" height="11.2" x="2644.8" y="836.5"/>
    <path d="M2549 836.5a95.8 95.8 0 0 1 95.8-95.8"/>
  </g>
  <g fill="none" stroke="#000" stroke-width=".3" stroke-miterlimit="10">
    <rect width="4.9" height="95.8" x="1959.7" y="341.6"/>
    <rect width="3.9" height="11.2" x="1955.8" y="330.4"/>
    <path d="M2055.4 341.6a95.8 95.8 0 0 1-95.8 95.8"/>
  </g>
  <g fill="none" stroke="#000" stroke-width=".3" stroke-miterlimit="10">
    <rect width="95.8" height="4.9" x="1821.8" y="199.3"/>
    <rect width="11.2" height="3.9" x="1917.5" y="195.5"/>
    <path d="M1917.5 295a95.8 95.8 0 0 1-95.8-95.7"/>
  </g>
  <g fill="none" stroke="#000" stroke-width=".3" stroke-miterlimit="10">
    <rect width="4.9" height="95.8" x="2404.6" y="341.6"/>
    <rect width="3.9" height="11.2" x="2400.7" y="330.4"/>
    <path d="M2500.4 341.6a95.8 95.8 0 0 1-95.8 95.8"/>
  </g>
  <g fill="none" stroke="#000" stroke-width=".3" stroke-miterlimit="10">
    <rect width="95.8" height="4.9" x="2565.7" y="227"/>
    <rect width="11.2" height="3.9" x="2661.5" y="223.1"/>
    <path d="M2661.4 322.8a95.8 95.8 0 0 1-95.8-95.8"/>
  </g>
  <g fill="none" stroke="#000" stroke-width=".3" stroke-miterlimit="10">
    <rect width="95.3" height="4.9" x="2671.9" y="943.9"/>
    <rect width="11.2" height="3.9" x="2660.8" y="948.8"/>
    <path d="M2672 853.5a95.3 95.3 0 0 1 95.2 95.3"/>
  </g>
  <g fill="none" stroke="#000" stroke-width=".3" stroke-miterlimit="10">
    <rect width="96.7" height="4.9" x="604.6" y="1221.7"/>
    <rect width="11.2" height="3.9" x="593.4" y="1226.6"/>
    <path d="M604.6 1130a96.7 96.7 0 0 1 96.7 96.7"/>
  </g>
  <g fill="none" stroke="#000" stroke-width=".3" stroke-miterlimit="10">
    <rect width="4.9" height="96.7" x="495.9" y="1862.6"/>
    <rect width="3.9" height="11.2" x="500.8" y="1959.3"/>
    <path d="M404 1959.3a96.7 96.7 0 0 1 96.8-96.7"/>
  </g>
  <g fill="none" stroke="#000" stroke-width=".3" stroke-miterlimit="10">
    <rect width="4.9" height="96.7" x="655.6" y="952.3"/>
    <rect width="3.9" height="11.2" x="651.7" y="1049"/>
    <path d="M752.2 1049a96.7 96.7 0 0 0-96.7-96.7"/>
  </g>
  <g fill="none" stroke="#000" stroke-width=".3" stroke-miterlimit="10">
    <rect width="86.3" height="4.9" x="323.8" y="860.6"/>
    <rect width="11.2" height="3.9" x="312.7" y="856.7"/>
    <path d="M323.8 946.8a86.3 86.3 0 0 0 86.3-86.3"/>
  </g>
  <rect width="44.9" height="452" x=".1" y="150.3" fill="#003d58"/>
  <rect width="44.9" height="656.4" x=".1" y="752.5" fill="#003d58"/>
  <rect width="44.9" height="366.5" x=".1" y="1558.8" fill="#003d58"/>
  <rect width="138.3" height="45.2" x=".1" y="1925.3" fill="#003d58"/>
  <rect width="55.1" height="45.2" x="504.6" y="1925.3" fill="#003d58"/>
  <rect width="44.9" height="225" x="559.7" y="1925.3" fill="#003d58"/>
  <rect width="14.1" height="44.9" x="604.6" y="2105.4" fill="#003d58"/>
  <rect width="112.1" height="44.9" x="818.6" y="2105.4" fill="#003d58"/>
  <rect width="38.1" height="694.8" x="566.5" y="1230.5" fill="#003d58"/>
  <rect width="320" height="38" x="604.4" y="1240.4" fill="#003d58"/>
  <rect width="11.9" height="80" x="910.6" y="1278.3" fill="#003d58"/>
  <rect width="306" height="12" x="604.6" y="1448.3" fill="#003d58"/>
  <rect width="11.9" height="79.9" x="910.6" y="1448.4" fill="#003d58"/>
  <rect width="11.9" height="477.1" x="910.6" y="1628.3" fill="#003d58"/>
  <rect width="242.8" height="38.1" x="1024.7" y="1240.4" fill="#003d58"/>
  <rect width="44.9" height="827.1" x="1222.6" y="1278.3" fill="#003d58"/>
  <rect width="172.8" height="44.9" x="1130.6" y="2105.4" fill="#003d58"/>
  <rect width="120" height="11.6" x="922.5" y="1638.5" fill="#003d58"/>
  <rect width="79.9" height="11.9" x="1142.7" y="1638.5" fill="#003d58"/>
  <rect width="606.7" height="37.8" x="45" y="1022.4" fill="#003d58"/>
  <rect width="38.1" height="70" x="566.5" y="1060.2" fill="#003d58"/>
  <rect width="11.9" height="75.7" x="372.8" y="1060.2" fill="#003d58"/>
  <rect width="11.7" height="75.7" x="312.7" y="946.8" fill="#003d58"/>
  <rect width="267.6" height="12" x="45" y="812.4" fill="#003d58"/>
  <rect width="12.1" height="124.2" x="312.7" y="732.5" fill="#003d58"/>
  <rect width="57.5" height="45" x="45.2" y="330.4" fill="#003d58"/>
  <rect width="73.1" height="45.2" x="352.8" y="150.3" fill="#003d58"/>
  <rect width="81.3" height="45.2" x="625.8" y="150.3" fill="#003d58"/>
  <rect width="70.6" height="45.2" x="2627.5" y="150.3" fill="#003d58"/>
  <rect width="45.2" height="27.6" x="2627.5" y="195.5" fill="#003d58"/>
  <rect width="45.2" height="7.7" x="2627.5" y="322.7" fill="#003d58"/>
  <rect width="81.3" height="45.2" x="2897.9" y="150.3" fill="#003d58"/>
  <rect width="12.1" height="436.8" x="694.9" y="195.5" fill="#003d58"/>
  <rect width="321.6" height="12.1" x="694.9" y="812.3" fill="#003d58"/>
  <rect width="12.1" height="79.8" x="694.9" y="732.5" fill="#003d58"/>
  <rect width="11.9" height="32.3" x="761.8" y="824.4" fill="#003d58"/>
  <rect width="264.8" height="37.8" x="751.7" y="1022.4" fill="#003d58"/>
  <rect width="12" height="75.7" x="761.8" y="946.8" fill="#003d58"/>
  <rect width="38" height="983.4" x="1016.5" y="76.8" fill="#003d58"/>
  <rect width="176.7" height="37.8" x="1054.5" y="1022.4" fill="#003d58"/>
  <rect width="119.9" height="37.8" x="1422.5" y="1022.4" fill="#003d58"/>
  <rect width="38.1" height="983.4" x="1542.5" y="76.8" fill="#003d58"/>
  <rect width="48.6" height="45.2" x="1880.1" y="150.3" fill="#003d58"/>
  <rect width="48.6" height="45.2" x="1580.6" y="150.3" fill="#003d58"/>
  <rect width="45.2" height="79.9" x="1883.5" y="295.4" fill="#003d58"/>
  <rect width="11.9" height="333.1" x="1883.5" y="375.3" fill="#003d58"/>
  <rect width="315.1" height="12.1" x="1580.6" y="798.2" fill="#003d58"/>
  <rect width="12.1" height="52.2" x="1883.5" y="810.4" fill="#003d58"/>
  <rect width="347.5" height="37.8" x="1580.6" y="1022.4" fill="#003d58"/>
  <rect width="12.1" height="70" x="1883.5" y="952.4" fill="#003d58"/>
  <rect width="263.1" height="37.8" x="2028.1" y="1022.4" fill="#003d58"/>
  <rect width="12" height="132.1" x="2088.1" y="890.3" fill="#003d58"/>
  <rect width="60" height="12.1" x="2028.1" y="890.3" fill="#003d58"/>
  <rect width="145.4" height="44.9" x="1494.8" y="2105.4" fill="#003d58"/>
  <rect width="38" height="865.3" x="1534.6" y="1240.4" fill="#003d58"/>
  <rect width="513.1" height="38.1" x="1572.5" y="1240.4" fill="#003d58"/>
  <rect width="44.9" height="79.9" x="352.8" y="295.4" fill="#003d58"/>
  <rect width="40.1" height="44.9" x="312.7" y="330.4" fill="#003d58"/>
  <rect width="12.1" height="256.9" x="312.7" y="375.3" fill="#003d58"/>
  <rect width="44.9" height="180.1" x="2291.2" y="150.3" fill="#003d58"/>
  <rect width="109.5" height="44.9" x="2291.2" y="330.4" fill="#003d58"/>
  <rect width="71.7" height="44.9" x="2219.5" y="330.4" fill="#003d58"/>
  <rect width="37.8" height="725.9" x="2291.2" y="375.3" fill="#003d58"/>
  <rect width="11.9" height="111.8" x="2528.6" y="952.7" fill="#003d58"/>
  <rect width="199.6" height="12.1" x="2329" y="992.5" fill="#003d58"/>
  <rect width="219.6" height="12.1" x="2329" y="835.5" fill="#003d58"/>
  <rect width="11.9" height="15" x="2528.6" y="847.7" fill="#003d58"/>
  <rect width="61.8" height="44.9" x="2610.8" y="330.4" fill="#003d58"/>
  <rect width="27" height="44.9" x="1928.7" y="330.4" fill="#003d58"/>
  <rect width="11.9" height="477.4" x="2660.8" y="375.3" fill="#003d58"/>
  <rect width="12.1" height="12.1" x="2648.6" y="835.5" fill="#003d58"/>
  <rect width="11.9" height="22.6" x="2660.8" y="952.7" fill="#003d58"/>
  <rect width="306.6" height="12.1" x="2672.6" y="958.3" fill="#003d58"/>
  <rect width="194.3" height="12.1" x="2785" y="737.2" fill="#003d58"/>
  <rect width="44.9" height="2000" x="2979.2" y="150.3" fill="#003d58"/>
  <rect width="126.5" height="44.9" x="1850.2" y="2105.4" fill="#003d58"/>
  <rect width="22" height="33" x="1862.6" y="2072.4" fill="#003d58"/>
  <rect width="111.8" height="44.9" x="2176.6" y="2105.4" fill="#003d58"/>
  <rect width="12.1" height="477.1" x="2200.6" y="1628.3" fill="#003d58"/>
  <rect width="14.1" height="44.9" x="2488.6" y="2105.4" fill="#003d58"/>
  <rect width="44.9" height="225" x="2502.7" y="1925.3" fill="#003d58"/>
  <rect width="40.9" height="45.2" x="2547.6" y="1925.3" fill="#003d58"/>
  <rect width="37.8" height="684.8" x="2502.7" y="1240.5" fill="#003d58"/>
  <rect width="317" height="38" x="2185.6" y="1240.5" fill="#003d58"/>
  <rect width="12.1" height="79.9" x="2200.6" y="1278.5" fill="#003d58"/>
  <rect width="37.8" height="39.4" x="2291.2" y="1201.1" fill="#003d58"/>
  <rect width="11.9" height="219.1" x="1872.5" y="1278.5" fill="#003d58"/>
  <rect width="30.2" height="12.1" x="1884.4" y="1476.4" fill="#003d58"/>
  <rect width="21" height="12.1" x="2004.7" y="1476.4" fill="#003d58"/>
  <rect width="12" height="210.2" x="2025.6" y="1278.3" fill="#003d58"/>
  <rect width="302.1" height="11.9" x="2200.6" y="1448.5" fill="#003d58"/>
  <rect width="12.1" height="68" x="2200.6" y="1460.3" fill="#003d58"/>
  <rect width="83.9" height="12" x="2116.7" y="1638.5" fill="#003d58"/>
  <rect width="131.8" height="12" x="1884.7" y="1638.5" fill="#003d58"/>
  <rect width="12.1" height="374.9" x="1872.5" y="1597.5" fill="#003d58"/>
  <rect width="22.3" height="47.1" x="1850.2" y="1925.3" fill="#003d58"/>
  <rect width="67.6" height="45.2" x="1572.5" y="1925.3" fill="#003d58"/>
  <rect width="39.8" height="45.2" x="1494.8" y="1925.3" fill="#003d58"/>
  <rect width="35.9" height="45.2" x="1267.5" y="1925.3" fill="#003d58"/>
  <rect width="52.8" height="45.2" x="2926.4" y="1925.3" fill="#003d58"/>
  <rect width="130.7" height="40.1" x="2848.5" y="1152.3" fill="#003d58"/>
  <rect width="11.9" height="175.2" x="2660.8" y="1065.3" fill="#003d58"/>
  <rect width="306.6" height="11.9" x="2672.6" y="1140.4" fill="#003d58"/>
  <rect width="11.9" height="179.8" x=".1" y="1970.5" fill="#003d58"/>
  <rect width="48" height="11.9" x="12" y="2138.5" fill="#003d58"/>
  <rect width="327.8" height="11.9" x="45" y="1242.3" fill="#003d58"/>
  <rect width="392" height="11.9" x="45" y="1650.3" fill="#003d58"/>
  <rect width="39.4" height="11.9" x="527.1" y="1650.3" fill="#003d58"/>
  <rect width="11.9" height="76.5" x="372.8" y="1226" fill="#003d58"/>
  <rect width="11.9" height="234.3" x="372.8" y="1416.1" fill="#003d58"/>
  <rect width="499.7" height="5.1" x="60" y="2145.2" fill="#717071"/>
  <rect width="307.7" height="5.1" x="45" y="150.3" fill="#717071"/>
  <rect width="362.5" height="5.1" x="1928.7" y="150.3" fill="#717071"/>
  <rect width="291.3" height="5.1" x="2336.1" y="150.3" fill="#717071"/>
  <rect width="431.7" height="5.1" x="2547.6" y="2145.2" fill="#717071"/>
  <g fill="none" stroke="#000" stroke-width=".3" stroke-miterlimit="10">
    <rect width="119.8" height="30.3" x="1054.6" y="442.4"/>
    <rect width="119.8" height="30.3" x="1054.6" y="472.7"/>
    <rect width="119.8" height="30.3" x="1054.6" y="503"/>
    <rect width="119.8" height="30.3" x="1054.6" y="533.3"/>
    <rect width="119.8" height="30.3" x="1054.6" y="563.6"/>
    <rect width="119.8" height="30.3" x="1054.6" y="593.9"/>
    <rect width="119.8" height="30.3" x="1054.6" y="624.2"/>
    <rect width="119.8" height="30.3" x="1054.6" y="654.5"/>
    <rect width="119.8" height="30.3" x="1054.6" y="684.8"/>
    <rect width="119.8" height="30.3" x="1054.6" y="715.1"/>
    <rect width="119.8" height="30.3" x="1054.6" y="745.4"/>
  </g>
  <g fill="none" stroke="#000" stroke-width=".3" stroke-miterlimit="10">
    <rect width="119.8" height="30.3" x="1422.6" y="442.2"/>
    <rect width="119.8" height="30.3" x="1422.6" y="472.5"/>
    <rect width="119.8" height="30.3" x="1422.6" y="502.8"/>
    <rect width="119.8" height="30.3" x="1422.6" y="533.1"/>
    <rect width="119.8" height="30.3" x="1422.6" y="563.4"/>
    <rect width="119.8" height="30.3" x="1422.6" y="593.7"/>
    <rect width="119.8" height="30.3" x="1422.6" y="624"/>
    <rect width="119.8" height="30.3" x="1422.6" y="654.3"/>
    <rect width="119.8" height="30.3" x="1422.6" y="684.6"/>
    <rect width="119.8" height="30.3" x="1422.6" y="714.9"/>
    <rect width="119.8" height="30.3" x="1422.6" y="745.2"/>
  </g>
  <rect width="179.9" height="269.6" x="1208.4" y="467.1" fill="none" stroke="#000" stroke-width=".3" stroke-miterlimit="10"/>
  <rect width="165.9" height="255.4" x="1215.4" y="474.2" fill="none" stroke="#000" stroke-width=".3" stroke-miterlimit="10"/>
  <g fill="none" stroke="#000" stroke-width=".3" stroke-miterlimit="10">
    <rect width="5" height="85.6" x="1413.7" y="944.3"/>
    <rect width="4" height="11.4" x="1418.7" y="1029.9"/>
    <path d="M1418.6 944.3a91.8 91.8 0 0 0-91.8 91.8"/>
  </g>
  <g fill="none" stroke="#000" stroke-width=".3" stroke-miterlimit="10">
    <rect width="5" height="85.6" x="1235.2" y="944.3"/>
    <rect width="4" height="11.4" x="1231.2" y="1029.9"/>
    <path d="M1235 944.3a91.8 91.8 0 0 1 92 91.8"/>
  </g>
  <g fill="none" stroke="#000" stroke-width=".3" stroke-miterlimit="10">
    <rect width="5" height="85.6" x="1307.3" y="2139.3"/>
    <rect width="4" height="11.4" x="1303.4" y="2127.9"/>
    <path d="M1307.3 2225a91.8 91.8 0 0 0 91.8-91.8"/>
  </g>
  <g fill="none" stroke="#000" stroke-width=".3" stroke-miterlimit="10">
    <rect width="5" height="85.6" x="1485.8" y="2139.3"/>
    <rect width="4" height="11.4" x="1490.8" y="2127.9"/>
    <path d="M1490.8 2225a91.8 91.8 0 0 1-91.8-91.8"/>
  </g>
  <g fill="none" stroke="#000" stroke-width=".3" stroke-miterlimit="10">
    <rect width="5" height="85.6" x="1307.3" y="1959.3"/>
    <rect width="4" height="11.4" x="1303.4" y="1947.9"/>
    <path d="M1307.3 2045a91.8 91.8 0 0 0 91.8-91.8"/>
  </g>
  <g fill="none" stroke="#000" stroke-width=".3" stroke-miterlimit="10">
    <rect width="5" height="85.6" x="1485.8" y="1959.3"/>
    <rect width="4" height="11.4" x="1490.8" y="1947.9"/>
    <path d="M1490.8 2045a91.8 91.8 0 0 1-91.8-91.8"/>
  </g>
  <rect width="76.8" height="26.2" x="1182.4" y="736.4" fill="#003d58"/>
  <rect width="24.9" height="294" x="1182.4" y="442.3" fill="#003d58"/>
  <rect width="204.3" height="24.9" x="1207.3" y="442.3" fill="#003d58"/>
  <rect width="24.9" height="293.7" x="1386.6" y="467.2" fill="#003d58"/>
  <rect width="30.8" height="24.6" x="1355.8" y="736.4" fill="#003d58"/>
  <rect width="68.1" height="20.4" x="1474.1" y="307.1" fill="#003d58"/>
  <rect width="149.2" height="20.4" x="1054.6" y="233.6" fill="#003d58"/>
  <rect width="50.1" height="20.4" x="1054.6" y="76.8" fill="#003d58"/>
  <rect width="98.1" height="11.4" x="1104.6" y="85.8" fill="#706f6f"/>
  <rect width="97.9" height="11.4" x="1394.2" y="85.8" fill="#706f6f"/>
  <rect width="50.3" height="20.4" x="1492.1" y="76.8" fill="#003d58"/>
  <rect width="147.6" height="20.4" x="1394.8" y="233.6" fill="#003d58"/>
  <rect width="20.4" height="73.4" x="1453.9" y="254" fill="#003d58"/>
  <g fill="none" stroke="#000" stroke-width=".3" stroke-miterlimit="10">
    <rect width="5" height="85.6" x="1386.3" y="157"/>
    <rect width="4" height="11.4" x="1391.3" y="242.6"/>
    <path d="M1391.3 157a91.8 91.8 0 0 0-91.8 91.7"/>
  </g>
  <g fill="none" stroke="#000" stroke-width=".3" stroke-miterlimit="10">
    <rect width="5" height="85.6" x="1207.8" y="157"/>
    <rect width="4" height="11.4" x="1203.8" y="242.6"/>
    <path d="M1207.8 157a91.8 91.8 0 0 1 91.8 91.7"/>
  </g>
  <g fill="none" stroke="#000" stroke-width=".3" stroke-miterlimit="10">
    <rect width="5" height="85.6" x="1385.2" y=".2"/>
    <rect width="4" height="11.4" x="1390.2" y="85.8"/>
    <path d="M1390.2.2a91.8 91.8 0 0 0-91.8 91.8"/>
  </g>
  <g fill="none" stroke="#000" stroke-width=".3" stroke-miterlimit="10">
    <rect width="5" height="85.6" x="1206.7" y=".2"/>
    <rect width="4" height="11.4" x="1202.8" y="85.8"/>
    <path d="M1206.7.2a91.8 91.8 0 0 1 91.8 91.8"/>
  </g>
  <g fill="#fff" stroke="#000" stroke-width=".3" stroke-miterlimit="10">
    <rect width="266.2" height="11.3" x="138.5" y="1959.2"/>
    <rect width="266.2" height="3.4" x="138.5" y="1964.3"/>
  </g>
  <g fill="#fff" stroke="#000" stroke-width=".3" stroke-miterlimit="10">
    <rect width="110.1" height="11.3" x="1640.2" y="1959.2"/>
    <rect width="110.1" height="3.4" x="1640.2" y="1964.3"/>
  </g>
  <g fill="#fff" stroke="#000" stroke-width=".3" stroke-miterlimit="10">
    <rect width="110.1" height="11.3" x="102.6" y="330.4"/>
    <rect width="110.1" height="3.4" x="102.6" y="333.2"/>
  </g>
  <g fill="#fff" stroke="#000" stroke-width=".3" stroke-miterlimit="10">
    <rect width="110.1" height="11.3" x="1740.1" y="2139"/>
    <rect width="110.1" height="3.4" x="1740.1" y="2144.1"/>
  </g>
  <g fill="#fff" stroke="#000" stroke-width=".3" stroke-miterlimit="10">
    <rect width="238" height="11.3" x="2688.4" y="1959.2"/>
    <rect width="238" height="3.4" x="2688.4" y="1964.3"/>
  </g>
  <g fill="#fff" stroke="#000" stroke-width=".3" stroke-miterlimit="10">
    <rect width="31.8" height="149.9" x="13.3" y="1408.9"/>
    <rect width="8.1" height="149.9" x=".1" y="1408.9"/>
    <rect width="5.1" height="149.9" x="8.2" y="1408.9"/>
    <rect width="2.5" height="149.9" x="19.5" y="1408.9"/>
  </g>
  <g fill="#fff" stroke="#000" stroke-width=".3" stroke-miterlimit="10">
    <rect width="199.9" height="31.8" x="618.7" y="2105.4"/>
    <rect width="199.9" height="8.1" x="618.7" y="2142.3"/>
    <rect width="199.9" height="5.1" x="618.7" y="2137.2"/>
    <rect width="199.9" height="2.5" x="618.7" y="2128.4"/>
  </g>
  <g fill="#fff" stroke="#000" stroke-width=".3" stroke-miterlimit="10">
    <rect width="199.9" height="31.8" x="930.7" y="2105.4"/>
    <rect width="199.9" height="8.1" x="930.7" y="2142.3"/>
    <rect width="199.9" height="5.1" x="930.7" y="2137.2"/>
    <rect width="199.9" height="2.5" x="930.7" y="2128.4"/>
  </g>
  <g fill="#fff" stroke="#000" stroke-width=".3" stroke-miterlimit="10">
    <rect width="199.9" height="31.8" x="425.9" y="163.4"/>
    <rect width="199.9" height="8.1" x="425.9" y="150.3"/>
    <rect width="199.9" height="5.1" x="425.9" y="158.4"/>
    <rect width="199.9" height="2.5" x="425.9" y="169.7"/>
  </g>
  <g fill="#fff" stroke="#000" stroke-width=".3" stroke-miterlimit="10">
    <rect width="199.9" height="31.8" x="2698" y="163.4"/>
    <rect width="199.9" height="8.1" x="2698" y="150.3"/>
    <rect width="199.9" height="5.1" x="2698" y="158.4"/>
    <rect width="199.9" height="2.5" x="2698" y="169.7"/>
  </g>
  <g fill="#fff" stroke="#000" stroke-width=".3" stroke-miterlimit="10">
    <rect width="110.4" height="31.8" x="2500.4" y="343.6"/>
    <rect width="110.4" height="8.1" x="2500.4" y="330.4"/>
    <rect width="110.4" height="5.1" x="2500.4" y="338.5"/>
    <rect width="110.4" height="2.5" x="2500.4" y="349.8"/>
  </g>
  <g fill="#fff" stroke="#000" stroke-width=".3" stroke-miterlimit="10">
    <rect width="164.1" height="31.8" x="2055.4" y="343.6"/>
    <rect width="164.1" height="8.1" x="2055.4" y="330.4"/>
    <rect width="164.1" height="5.1" x="2055.4" y="338.5"/>
    <rect width="164.1" height="2.5" x="2055.4" y="349.8"/>
  </g>
  <g fill="#fff" stroke="#000" stroke-width=".3" stroke-miterlimit="10">
    <rect width="309.4" height="31.8" x="707.1" y="163.4"/>
    <rect width="309.4" height="8.1" x="707.1" y="150.3"/>
    <rect width="309.4" height="5.1" x="707.1" y="158.4"/>
    <rect width="309.4" height="2.5" x="707.1" y="169.7"/>
  </g>
  <g fill="#fff" stroke="#000" stroke-width=".3" stroke-miterlimit="10">
    <rect width="199.9" height="31.8" x="1976.7" y="2105.4"/>
    <rect width="199.9" height="8.1" x="1976.7" y="2142.3"/>
    <rect width="199.9" height="5.1" x="1976.7" y="2137.2"/>
    <rect width="199.9" height="2.5" x="1976.7" y="2128.4"/>
  </g>
  <g fill="#fff" stroke="#000" stroke-width=".3" stroke-miterlimit="10">
    <rect width="199.9" height="31.8" x="2288.4" y="2105.4"/>
    <rect width="199.9" height="8.1" x="2288.4" y="2142.3"/>
    <rect width="199.9" height="5.1" x="2288.4" y="2137.2"/>
    <rect width="199.9" height="2.5" x="2288.4" y="2128.4"/>
  </g>
  <g fill="#fff" stroke="#000" stroke-width=".3" stroke-miterlimit="10">
    <rect width="31.8" height="150.2" x="13.3" y="602.3"/>
    <rect width="8.1" height="150.2" x=".1" y="602.3"/>
    <rect width="5.1" height="150.2" x="8.2" y="602.3"/>
    <rect width="2.5" height="150.2" x="19.5" y="602.3"/>
  </g>
  <g fill="#fff" stroke="#000" stroke-width=".3" stroke-miterlimit="10">
    <rect width="251" height="31.8" x="1629.2" y="163.4"/>
    <rect width="251" height="8.1" x="1629.2" y="150.3"/>
    <rect width="251" height="5.1" x="1629.2" y="158.4"/>
    <rect width="251" height="2.5" x="1629.2" y="169.7"/>
  </g>
</svg>
