<svg id="4.1_7" viewBox="0 0 1920 2058.3">
  <polygon fill="#dff2fd" data-id-flat="1924" class="hovered_flat_at_plan flat_plan_p" points="1202.7 138.3 1202.7 1003 716 1003 716 138.3 5.1 138.3 5.1 2053.7 1914.9 2053.7 1914.9 138.3 1202.7 138.3"/>
  <polygon fill="#f6f6f6" points="1202.7 1003 1202.7 138.3 1202.7 15.2 716 15.2 716 138.3 716 1003 1202.7 1003"/>
  <g fill="none" stroke="#000" stroke-width=".3" stroke-miterlimit="10">
    <polygon points="458.9 591.1 453.1 591.1 453.1 676.3 458.9 676.3 458.9 591.1"/>
    <rect width="4.5" height="13.1" x="448.6" y="578.1"/>
    <path d="M538.4 591.2a85.2 85.2 0 0 1-85.2 85.2"/>
  </g>
  <g fill="none" stroke="#000" stroke-width=".3" stroke-miterlimit="10">
    <polygon points="182.5 730 182.5 735.8 289.3 735.8 289.3 730 182.5 730"/>
    <rect width="13.1" height="4.5" x="169.4" y="735.8"/>
    <path d="M182.5 629a107 107 0 0 1 107 106.8"/>
  </g>
  <g fill="none" stroke="#000" stroke-width=".3" stroke-miterlimit="10">
    <polygon points="658.1 1028 663.8 1028 663.8 932.4 658.1 932.4 658.1 1028"/>
    <rect width="4.5" height="13.1" x="663.8" y="1028"/>
    <path d="M568.2 1028a95.6 95.6 0 0 1 95.6-95.6"/>
  </g>
  <g fill="none" stroke="#000" stroke-width=".3" stroke-miterlimit="10">
    <polygon points="775.3 1040.9 769.6 1040.9 769.6 1136.5 775.3 1136.5 775.3 1040.9"/>
    <rect width="4.5" height="13.1" x="765" y="1027.8"/>
    <path d="M865.2 1041a95.6 95.6 0 0 1-95.6 95.5"/>
  </g>
  <g fill="none" stroke="#000" stroke-width=".3" stroke-miterlimit="10">
    <polygon points="1278 949 1272.3 949 1272.3 853.4 1278 853.4 1278 949"/>
    <rect width="4.5" height="13.1" x="1267.7" y="949"/>
    <path d="M1368 949a95.6 95.6 0 0 0-95.7-95.6"/>
  </g>
  <g fill="none" stroke="#000" stroke-width=".3" stroke-miterlimit="10">
    <polygon points="1450.1 591.1 1455.9 591.1 1455.9 676.1 1450.2 676.1 1450.1 591.1"/>
    <polygon points="1455.9 591.1 1455.9 578.1 1460.4 578.1 1460.4 591.1 1455.9 591.1"/>
    <path d="M1371 591.2a85 85 0 0 0 85 85"/>
  </g>
  <g fill="none" stroke="#000" stroke-width=".3" stroke-miterlimit="10">
    <polygon points="1052.4 1273.2 1046.7 1273.2 1046.7 1358.1 1052.4 1358.1 1052.4 1273.2"/>
    <rect width="4.5" height="13.1" x="1042.2" y="1260.1"/>
    <path d="M1131.7 1273.2a85 85 0 0 1-85 85"/>
  </g>
  <g fill="none" stroke="#000" stroke-width=".3" stroke-miterlimit="10">
    <polygon points="545.4 1379.5 545.4 1385.3 449.8 1385.3 449.8 1379.6 545.4 1379.5"/>
    <rect width="13.1" height="4.5" x="545.4" y="1385.3"/>
    <path d="M545.4 1289.7a95.6 95.6 0 0 0-95.6 95.6"/>
  </g>
  <g fill="none" stroke="#000" stroke-width=".3" stroke-miterlimit="10">
    <polygon points="722.1 1418.1 716.3 1418.1 716.3 1513.7 722 1513.7 722.1 1418.1"/>
    <rect width="4.5" height="13.1" x="711.8" y="1405"/>
    <path d="M812 1418a95.6 95.6 0 0 1-95.6 95.7"/>
  </g>
  <g fill="none" stroke="#000" stroke-width=".3" stroke-miterlimit="10">
    <polygon points="182.5 1425.4 182.5 1431.1 290 1431.1 290 1425.4 182.5 1425.4"/>
    <rect width="13.1" height="4.5" x="169.4" y="1431.1"/>
    <path d="M182.5 1323.6A107.6 107.6 0 0 1 290 1431.2"/>
  </g>
  <g fill="none" stroke="#000" stroke-width=".3" stroke-miterlimit="10">
    <polygon points="878.2 1776.1 883.9 1776.1 883.9 1668.6 878.2 1668.6 878.2 1776.1"/>
    <rect width="4.5" height="13.1" x="883.9" y="1776.1"/>
    <path d="M776.4 1776.2A107.6 107.6 0 0 1 884 1668.7"/>
  </g>
  <g fill="none" stroke="#000" stroke-width=".3" stroke-miterlimit="10">
    <polygon points="1372 1776.1 1377.7 1776.1 1377.7 1668.6 1372 1668.6 1372 1776.1"/>
    <rect width="4.5" height="13.1" x="1377.7" y="1776.1"/>
    <path d="M1270.2 1776.2a107.6 107.6 0 0 1 107.6-107.5"/>
  </g>
  <g fill="none" stroke="#000" stroke-width=".3" stroke-miterlimit="10">
    <polygon points="1737.5 1166.8 1737.5 1172.6 1630 1172.6 1630 1166.9 1737.5 1166.8"/>
    <rect width="13.1" height="4.5" x="1737.5" y="1172.6"/>
    <path d="M1737.6 1065a107.6 107.6 0 0 0-107.5 107.6"/>
  </g>
  <g fill="none" stroke="#000" stroke-width=".3" stroke-miterlimit="10">
    <polygon points="1737.5 638.1 1737.5 632.4 1630 632.4 1630 638.1 1737.5 638.1"/>
    <rect width="13.1" height="4.5" x="1737.5" y="627.9"/>
    <path d="M1737.6 740A107.6 107.6 0 0 1 1630 632.4"/>
  </g>
  <g fill="none" stroke="#000" stroke-width=".3" stroke-miterlimit="10">
    <polygon points="417.1 1499.8 411.3 1499.8 411.3 1414.1 417 1414.1 417.1 1499.8"/>
    <rect width="4.5" height="13.1" x="406.8" y="1499.8"/>
    <path d="M497 1500a85.7 85.7 0 0 0-85.6-85.8"/>
  </g>
  <g fill="none" stroke="#000" stroke-width=".3" stroke-miterlimit="10">
    <rect width="5" height="95.3" x="1073.5" y="36.5"/>
    <rect width="4" height="11.5" x="1078.6" y="131.9"/>
    <path d="M983.3 132a95.3 95.3 0 0 1 95.4-95.4"/>
  </g>
  <g fill="none" stroke="#000" stroke-width=".3" stroke-miterlimit="10">
    <rect width="5" height="85.6" x="1047.7" y="680.6"/>
    <rect width="4" height="11.4" x="1052.7" y="766.2"/>
    <path d="M1052.8 680.6a91.7 91.7 0 0 0-91.7 91.8"/>
  </g>
  <g fill="none" stroke="#000" stroke-width=".3" stroke-miterlimit="10">
    <rect width="5" height="85.6" x="869.2" y="680.6"/>
    <rect width="4" height="11.4" x="865.3" y="766.2"/>
    <path d="M869.3 680.6a91.8 91.8 0 0 1 91.8 91.8"/>
  </g>
  <rect width="45.2" height="365" x="169.4" y="262.9" fill="#003d58"/>
  <rect width="174.5" height="45.2" x="214.6" y="262.9" fill="#003d58"/>
  <rect width="12.3" height="269.9" x="376.8" y="308.1" fill="#003d58"/>
  <rect width="59.6" height="12.3" x="214.6" y="578.1" fill="#003d58"/>
  <rect width="84.5" height="12.3" x="364.1" y="578.1" fill="#003d58"/>
  <rect width="169.8" height="45.2" x="508.6" y="262.9" fill="#003d58"/>
  <rect width="37.6" height="1003" x="678.4" fill="#003d58"/>
  <rect width="86.6" height="38" x="678.4" y="1003" fill="#003d58"/>
  <rect width="10.1" height="14.8" x="668.3" y="1026.3" fill="#003d58"/>
  <rect width="45.2" height="209.1" x="169.4" y="987" fill="#003d58"/>
  <rect width="354" height="14.8" x="214.6" y="1026.3" fill="#003d58"/>
  <rect width="14.8" height="249" x="543.7" y="1041.1" fill="#003d58"/>
  <rect width="45.2" height="353.6" x="169.4" y="1435.6" fill="#003d58"/>
  <rect width="320.2" height="45.2" x="214.6" y="1744" fill="#003d58"/>
  <rect width="14.8" height="244.2" x="392" y="1499.8" fill="#003d58"/>
  <rect width="77.7" height="15.2" x="214.6" y="1499.8" fill="#003d58"/>
  <rect width="10.1" height="15.2" x="381.9" y="1499.8" fill="#003d58"/>
  <rect width="121.7" height="45.2" x="654.4" y="1744" fill="#003d58"/>
  <rect width="14.8" height="339" x="678.4" y="1405" fill="#003d58"/>
  <rect width="18.6" height="14.8" x="693.2" y="1405" fill="#003d58"/>
  <rect width="181.7" height="40.1" x="496.8" y="1499.8" fill="#003d58"/>
  <rect width="143.2" height="17.8" x="535.2" y="1540" fill="#003d58"/>
  <rect width="14.8" height="110" x="543.7" y="1389.8" fill="#003d58"/>
  <rect width="134.8" height="45.2" x="1135.1" y="1744" fill="#003d58"/>
  <rect width="429.2" height="14.8" x="811.5" y="1405" fill="#003d58"/>
  <rect width="14.8" height="324.2" x="1225.9" y="1419.8" fill="#003d58"/>
  <rect width="121.7" height="45.2" x="1628.9" y="1744" fill="#003d58"/>
  <rect width="45.2" height="320.2" x="1705.4" y="1423.8" fill="#003d58"/>
  <rect width="45.2" height="197.3" x="1705.4" y="867.4" fill="#003d58"/>
  <rect width="338" height="14.8" x="1367.4" y="947.3" fill="#003d58"/>
  <rect width="27" height="14.8" x="1240.7" y="947.3" fill="#003d58"/>
  <rect width="376" height="38" x="864.7" y="1003" fill="#003d58"/>
  <rect width="38" height="1003" x="1202.7" fill="#003d58"/>
  <rect width="45.2" height="365" x="1705.4" y="262.9" fill="#003d58"/>
  <rect width="175.3" height="45.2" x="1530.1" y="262.9" fill="#003d58"/>
  <rect width="169.8" height="45.2" x="1240.7" y="262.9" fill="#003d58"/>
  <rect width="60.8" height="12.3" x="1644.6" y="578.1" fill="#003d58"/>
  <rect width="94.6" height="12.3" x="1460.4" y="578.1" fill="#003d58"/>
  <rect width="129.7" height="40.1" x="1240.7" y="550.2" fill="#003d58"/>
  <rect width="11.8" height="269.9" x="1530.1" y="308.1" fill="#003d58"/>
  <rect width="18.2" height="167.3" x="1511.9" y="382.9" fill="#003d58"/>
  <rect width="17.7" height="24.9" x="660.7" y="128.6" fill="#003d58"/>
  <rect width="660.7" height="5.1" y="133.2" fill="#717070"/>
  <rect width="5.1" height="1920" y="138.3" fill="#717070"/>
  <rect width="1914.9" height="4.6" x="5.1" y="2053.7" fill="#717070"/>
  <rect width="5.1" height="1920.4" x="1914.9" y="133.2" fill="#717070"/>
  <rect width="655.6" height="5.1" x="1259.3" y="133.2" fill="#717070"/>
  <rect width="18.6" height="24.9" x="1240.7" y="128.6" fill="#003d58"/>
  <g fill="#fff" stroke="#000" stroke-width=".3" stroke-miterlimit="10">
    <rect width="119.6" height="32" x="389.1" y="276.1"/>
    <rect width="119.6" height="8.1" x="389.1" y="262.9"/>
    <rect width="119.6" height="5.1" x="389.1" y="271"/>
    <rect width="119.6" height="2.5" x="389.1" y="282.4"/>
  </g>
  <g fill="#fff" stroke="#000" stroke-width=".3" stroke-miterlimit="10">
    <rect width="119.6" height="32" x="1410.5" y="276.1"/>
    <rect width="119.6" height="8.1" x="1410.5" y="262.9"/>
    <rect width="119.6" height="5.1" x="1410.5" y="271"/>
    <rect width="119.6" height="2.5" x="1410.5" y="282.4"/>
  </g>
  <g fill="#fff" stroke="#000" stroke-width=".3" stroke-miterlimit="10">
    <rect width="119.5" height="32" x="534.8" y="1744"/>
    <rect width="119.5" height="8.1" x="534.8" y="1781.1"/>
    <rect width="119.5" height="5.1" x="534.8" y="1776"/>
    <rect width="119.5" height="2.5" x="534.8" y="1767.1"/>
  </g>
  <g fill="#fff" stroke="#000" stroke-width=".3" stroke-miterlimit="10">
    <rect width="16.1" height="127.2" x="1734.5" y="740.3"/>
    <rect width="4.8" height="127.2" x="1741.8" y="740.3"/>
  </g>
  <g fill="#fff" stroke="#000" stroke-width=".3" stroke-miterlimit="10">
    <rect width="16.1" height="246.7" x="1734.5" y="1177.1"/>
    <rect width="4.8" height="246.7" x="1741.8" y="1177.1"/>
  </g>
  <g fill="#fff" stroke="#000" stroke-width=".3" stroke-miterlimit="10">
    <rect width="246.7" height="16.1" x="1382.2" y="1773.1"/>
    <rect width="246.7" height="4.8" x="1382.2" y="1780.4"/>
  </g>
  <g fill="#fff" stroke="#000" stroke-width=".3" stroke-miterlimit="10">
    <rect width="246.7" height="16.1" x="888.4" y="1773.1"/>
    <rect width="246.7" height="4.8" x="888.4" y="1780.4"/>
  </g>
  <g fill="#fff" stroke="#000" stroke-width=".3" stroke-miterlimit="10">
    <rect width="16.1" height="246.7" x="169.4" y="740.3"/>
    <rect width="4.8" height="246.7" x="173.4" y="740.3"/>
  </g>
  <g fill="#fff" stroke="#000" stroke-width=".3" stroke-miterlimit="10">
    <rect width="16.1" height="127.4" x="169.4" y="1196.1"/>
    <rect width="4.8" height="127.4" x="173.4" y="1196.1"/>
  </g>
  <rect width="129.7" height="40.1" x="548.8" y="550.2" fill="#003d58"/>
  <rect width="10.1" height="12.3" x="538.6" y="578.1" fill="#003d58"/>
  <rect width="18.2" height="142.4" x="660.3" y="407.8" fill="#003d58"/>
  <rect width="170.6" height="31" x="875.3" y="972.1" fill="#003d58"/>
  <rect width="15.2" height="234.3" x="1020.2" y="1041.1" fill="#003d58"/>
  <rect width="6.8" height="15.2" x="1035.4" y="1260.1" fill="#003d58"/>
  <rect width="39.7" height="234.3" x="1201" y="1041.1" fill="#003d58"/>
  <rect width="68.9" height="15.2" x="1132.1" y="1260.1" fill="#003d58"/>
  <rect width="18.2" height="87" x="1182.8" y="1041.1" fill="#003d58"/>
  <g fill="#fff" stroke="#000" stroke-width=".3" stroke-miterlimit="10">
    <rect width="153.9" height="16.1" x="829.3" y="127.4"/>
    <rect width="153.9" height="4.8" x="829.3" y="134.7"/>
  </g>
  <g fill="none" stroke="#000" stroke-width=".3" stroke-miterlimit="10">
    <rect width="119.8" height="30.3" x="716.4" y="254.6"/>
    <rect width="119.8" height="30.3" x="716.4" y="284.9"/>
    <rect width="119.8" height="30.3" x="716.4" y="315.1"/>
    <rect width="119.8" height="30.3" x="716.4" y="345.4"/>
    <rect width="119.8" height="30.3" x="716.4" y="375.7"/>
    <rect width="119.8" height="30.3" x="716.4" y="406"/>
    <rect width="119.8" height="30.3" x="716.4" y="436.3"/>
    <rect width="119.8" height="30.3" x="716.4" y="466.6"/>
    <rect width="119.8" height="30.3" x="716.4" y="496.9"/>
    <rect width="119.8" height="30.3" x="716.4" y="527.2"/>
    <rect width="119.8" height="30.3" x="716.4" y="557.5"/>
  </g>
  <g fill="none" stroke="#000" stroke-width=".3" stroke-miterlimit="10">
    <rect width="119.8" height="30.3" x="1082.9" y="254.4"/>
    <rect width="119.8" height="30.3" x="1082.9" y="284.6"/>
    <rect width="119.8" height="30.3" x="1082.9" y="314.9"/>
    <rect width="119.8" height="30.3" x="1082.9" y="345.2"/>
    <rect width="119.8" height="30.3" x="1082.9" y="375.5"/>
    <rect width="119.8" height="30.3" x="1082.9" y="405.8"/>
    <rect width="119.8" height="30.3" x="1082.9" y="436.1"/>
    <rect width="119.8" height="30.3" x="1082.9" y="466.4"/>
    <rect width="119.8" height="30.3" x="1082.9" y="496.7"/>
    <rect width="119.8" height="30.3" x="1082.9" y="527"/>
    <rect width="119.8" height="30.3" x="1082.9" y="557.3"/>
  </g>
  <rect width="179.4" height="269.1" x="871.1" y="279.5" fill="none" stroke="#000" stroke-width=".3" stroke-miterlimit="10"/>
  <rect width="165.4" height="255" x="878.1" y="286.5" fill="none" stroke="#000" stroke-width=".3" stroke-miterlimit="10"/>
  <rect width="69.3" height="15.2" x="715.7" fill="#003d58"/>
  <rect width="68.1" height="15.2" x="1135.5" fill="#003d58"/>
  <rect width="113.6" height="43.9" x="715.7" y="119.3" fill="#003d58"/>
  <rect width="120.6" height="43.9" x="1083.1" y="119.3" fill="#003d58"/>
  <rect width="76.8" height="24.6" x="846.2" y="548.6" fill="#003d58"/>
  <rect width="24.9" height="294" x="846.2" y="254.6" fill="#003d58"/>
  <rect width="204.3" height="24.9" x="871.1" y="254.6" fill="#003d58"/>
  <rect width="24.9" height="293.7" x="1050.5" y="279.5" fill="#003d58"/>
  <rect width="30.8" height="24.6" x="1019.7" y="548.6" fill="#003d58"/>
  <rect width="148.9" height="11.4" x="716.4" y="766.3" fill="#003d58"/>
  <rect width="147.6" height="11.4" x="1056.7" y="766.3" fill="#003d58"/>
  <rect width="350.4" height="6.8" x="785.1" y="8.4" fill="#9e9d9c"/>
</svg>
