<svg id="4.1_7" viewBox="0 0 2088.9 2132.5">
  <polygon fill="#e1efe3" data-id-flat="1922" class="hovered_flat_at_plan flat_plan_3" points="1779.9 1728 1779.9 1672.9 1738 1672.9 1738 1533.1 1427.1 1533.1 1298.8 1533.1 1298.8 1032.9 931.5 1032.9 931.5 994.8 831.2 994.8 831.2 1032.9 796 1032.9 796 1213.8 796 1532.8 351.7 1532.8 351.7 1728 306.6 1728 84.4 1728 18.9 1728 18.9 2115.2 306.6 2115.2 306.6 2044.8 351.7 2044.8 351.7 2057.9 1009.1 2057.9 1779.9 2057.9 1779.9 2119.8 2075.7 2119.8 2075.7 1728 1779.9 1728"/>
  <polygon fill="#dddaee" data-id-flat="1923" class="hovered_flat_at_plan flat_plan_3" points="2076.2 56.1 1781.2 56.1 1781.2 118.1 1325.9 118.1 1325.9 553.1 1325.9 747.9 1325.9 829.2 1287.7 829.2 1287.7 929.6 1325.9 929.6 1325.9 1184.1 1325.9 1499.3 1496.1 1499.3 1768.8 1499.3 1768.8 1694.1 1967.1 1694.1 1967.5 1694.1 1967.5 1499.3 2012 1499.3 2012 448 2076.2 448 2076.2 56.1"/>
  <polygon fill="#dff2fd" data-id-flat="1921" class="hovered_flat_at_plan flat_plan_3" points="762.1 829.6 762.1 747.7 762.1 553.1 762.1 130.4 308.5 130.4 308.5 56.1 12.7 56.1 12.7 448 90 448 90 1499.3 121.7 1499.3 121.7 1694.1 122.5 1694.1 317.8 1694.1 317.8 1499.3 580.1 1499.3 591.9 1499.3 762 1499.3 762.1 1499.3 762.1 929.6 799.8 929.6 799.8 829.6 762.1 829.6"/>
  <rect width="487.9" height="979.6" x="799.8" y="15.2" fill="#f6f6f6"/>
  <g fill="none" stroke="#000" stroke-width=".3" stroke-miterlimit="10">
    <rect width="5.2" height="87" x="556.7" y="1184"/>
    <rect width="4.1" height="11.9" x="561.9" y="1172.1"/>
    <path d="M562 1271c-59.2 0-95.8-43.5-95.8-87"/>
  </g>
  <g fill="none" stroke="#000" stroke-width=".3" stroke-miterlimit="10">
    <rect width="87" height="5.2" x="451.7" y="839.1"/>
    <rect width="11.9" height="4.1" x="439.8" y="835"/>
    <path d="M538.7 839.2c0 59-43.5 95.7-87 95.7"/>
  </g>
  <g fill="none" stroke="#000" stroke-width=".3" stroke-miterlimit="10">
    <rect width="87.5" height="5.2" x="1548.4" y="839.3"/>
    <rect width="11.9" height="4.1" x="1635.9" y="835.1"/>
    <path d="M1548.4 839.3c0 59.4 43.7 96.2 87.5 96.2"/>
  </g>
  <g fill="none" stroke="#000" stroke-width=".3" stroke-miterlimit="10">
    <rect width="5.2" height="78" x="1443.6" y="760.2"/>
    <rect width="4.1" height="11.9" x="1448.8" y="748.3"/>
    <path d="M1448.8 838.3c-53 0-85.8-39-85.8-78"/>
  </g>
  <g fill="none" stroke="#000" stroke-width=".3" stroke-miterlimit="10">
    <rect width="86.9" height="5.2" x="1200.8" y="920.3"/>
    <rect width="11.9" height="4.1" x="1287.7" y="925.5"/>
    <path d="M1200.8 925.5c0-59 43.5-95.6 87-95.6"/>
  </g>
  <g fill="none" stroke="#000" stroke-width=".3" stroke-miterlimit="10">
    <rect width="86.9" height="5.2" x="799.8" y="833.8"/>
    <rect width="11.9" height="4.1" x="787.9" y="829.6"/>
    <path d="M886.7 833.8c0 59-43.5 95.6-87 95.6"/>
  </g>
  <g fill="none" stroke="#000" stroke-width=".3" stroke-miterlimit="10">
    <rect width="81.4" height="5.2" x="1010.3" y="1112"/>
    <rect width="11.9" height="4.1" x="1091.6" y="1107.9"/>
    <path d="M1010.3 1112c0 55.4 40.7 89.6 81.4 89.6"/>
  </g>
  <g fill="none" stroke="#000" stroke-width=".3" stroke-miterlimit="10">
    <rect width="5" height="77.9" x="1476.9" y="1183.8"/>
    <rect width="4.1" height="11.9" x="1481.8" y="1171.9"/>
    <path d="M1482 1261.7c-53 0-85.8-39-85.8-78"/>
  </g>
  <g fill="none" stroke="#000" stroke-width=".3" stroke-miterlimit="10">
    <rect width="5" height="87.9" x="1526.1" y="1183.8"/>
    <rect width="4.1" height="11.9" x="1522" y="1171.9"/>
    <path d="M1526 1271.7c59.8 0 96.8-44 96.8-88"/>
  </g>
  <g fill="none" stroke="#000" stroke-width=".3" stroke-miterlimit="10">
    <rect width="5.2" height="77.5" x="1255.5" y="1443.8"/>
    <rect width="4.1" height="11.9" x="1260.7" y="1521.2"/>
    <path d="M1260.8 1443.5c-52.8 0-85.5 39-85.5 77.8"/>
  </g>
  <g fill="none" stroke="#000" stroke-width=".3" stroke-miterlimit="10">
    <rect width="77.5" height="5.2" x="1298.8" y="1562.4"/>
    <rect width="11.9" height="4.1" x="1286.9" y="1558.3"/>
    <path d="M1376.6 1562.4c0 52.8-39 85.5-77.8 85.5"/>
  </g>
  <g fill="none" stroke="#000" stroke-width=".3" stroke-miterlimit="10">
    <rect width="86.8" height="5.2" x="111.2" y="1852.8"/>
    <rect width="11.9" height="4.1" x="99.3" y="1848.7"/>
    <path d="M198 1853c0 59-43.4 95.3-86.8 95.3"/>
  </g>
  <g fill="none" stroke="#000" stroke-width=".3" stroke-miterlimit="10">
    <rect width="86.8" height="5.2" x="1890.9" y="1852.8"/>
    <rect width="11.9" height="4.1" x="1977.7" y="1848.7"/>
    <path d="M1891 1853c0 59 43.3 95.3 86.7 95.3"/>
  </g>
  <g fill="none" stroke="#000" stroke-width=".3" stroke-miterlimit="10">
    <rect width="86.8" height="5.2" x="111.2" y="228.6"/>
    <rect width="11.9" height="4.1" x="99.3" y="224.5"/>
    <path d="M198 228.6c0 59-43.4 95.4-86.8 95.4"/>
  </g>
  <g fill="none" stroke="#000" stroke-width=".3" stroke-miterlimit="10">
    <rect width="86.8" height="5.2" x="1890.9" y="228.6"/>
    <rect width="11.9" height="4.1" x="1977.7" y="224.5"/>
    <path d="M1891 228.6c0 59 43.3 95.4 86.7 95.4"/>
  </g>
  <g fill="none" stroke="#000" stroke-width=".3" stroke-miterlimit="10">
    <rect width="5.2" height="77.5" x="1255.5" y="1684.8"/>
    <rect width="4.1" height="11.9" x="1260.7" y="1672.9"/>
    <path d="M1260.8 1762.6c-52.8 0-85.5-39-85.5-77.8"/>
  </g>
  <g fill="none" stroke="#000" stroke-width=".3" stroke-miterlimit="10">
    <rect width="5.2" height="86.9" x="835.3" y="934.1"/>
    <rect width="4.1" height="11.9" x="831.2" y="1021"/>
    <path d="M835.3 934.2c59 0 95.6 43.5 95.6 87"/>
  </g>
  <g fill="none" stroke="#000" stroke-width=".3" stroke-miterlimit="10">
    <rect width="5.2" height="77.7" x="606.2" y="1184"/>
    <rect width="4.1" height="11.9" x="602" y="1172.1"/>
    <path d="M606.2 1261.8c52.8 0 85.5-39 85.5-77.7"/>
  </g>
  <g fill="none" stroke="#000" stroke-width=".3" stroke-miterlimit="10">
    <rect width="5.2" height="77.7" x="639.3" y="759.8"/>
    <rect width="4.1" height="11.9" x="635.1" y="747.9"/>
    <path d="M639.3 837.6c52.8 0 85.5-39 85.5-77.7"/>
  </g>
  <g fill="none" stroke="#000" stroke-width=".3" stroke-miterlimit="10">
    <rect width="5" height="95.3" x="1157.6" y="36.5"/>
    <rect width="4" height="11.5" x="1162.7" y="131.9"/>
    <path d="M1067.3 132a95.3 95.3 0 0 1 95.4-95.4"/>
  </g>
  <g fill="none" stroke="#000" stroke-width=".3" stroke-miterlimit="10">
    <rect width="5" height="85.6" x="1131.8" y="680.6"/>
    <rect width="4" height="11.4" x="1136.8" y="766.2"/>
    <path d="M1137 680.6a91.7 91.7 0 0 0-91.8 91.8"/>
  </g>
  <g fill="none" stroke="#000" stroke-width=".3" stroke-miterlimit="10">
    <rect width="5" height="85.6" x="953.3" y="680.6"/>
    <rect width="4" height="11.4" x="949.4" y="766.2"/>
    <path d="M953.4 680.6a91.8 91.8 0 0 1 91.8 91.8"/>
  </g>
  <rect width="396" height="44.9" x="76.8" y="118.1" fill="#003d58"/>
  <rect width="169" height="44.9" x="593.1" y="118.1" fill="#003d58"/>
  <rect width="37.7" height="829" x="762.1" y=".6" fill="#003d58"/>
  <rect width="130" height="40.2" x="632.1" y="540.8" fill="#003d58"/>
  <rect width="11.9" height="219" x="613" y="540.8" fill="#003d58"/>
  <rect width="7.2" height="12.3" x="624.9" y="540.8" fill="#003d58"/>
  <rect width="10.2" height="11.9" x="624.9" y="747.9" fill="#003d58"/>
  <rect width="37.3" height="12.1" x="724.9" y="747.7" fill="#003d58"/>
  <rect width="44.9" height="133" x="76.8" y="448" fill="#003d58"/>
  <rect width="5.1" height="59.7" x="121.7" y="448" fill="#003d58"/>
  <rect width="44.9" height="142.3" x="76.8" y="700.9" fill="#003d58"/>
  <rect width="330.4" height="11.9" x="121.7" y="747.9" fill="#003d58"/>
  <rect width="12.3" height="75.4" x="439.8" y="759.7" fill="#003d58"/>
  <rect width="44.9" height="211.8" x="76.8" y="1043.5" fill="#003d58"/>
  <rect width="5.1" height="40.2" x="121.7" y="1077.8" fill="#003d58"/>
  <rect width="344.3" height="12.3" x="121.7" y="1171.9" fill="#003d58"/>
  <rect width="12.3" height="237.2" x="439.8" y="935.1" fill="#003d58"/>
  <rect width="44.9" height="272.8" x="76.8" y="1455.2" fill="#003d58"/>
  <rect width="230" height="33.9" x="121.7" y="1694.1" fill="#003d58"/>
  <rect width="33.9" height="194.8" x="317.8" y="1499.3" fill="#003d58"/>
  <rect width="410.4" height="33.9" x="351.7" y="1499.3" fill="#003d58"/>
  <rect width="33.9" height="500.2" x="762.1" y="1032.9" fill="#003d58"/>
  <rect width="11" height="59.7" x="785" y="1533.1" fill="#003d58"/>
  <rect width="11.9" height="315.1" x="580" y="1184.1" fill="#003d58"/>
  <rect width="36" height="12.3" x="566" y="1171.9" fill="#003d58"/>
  <rect width="70.3" height="12.3" x="691.8" y="1171.9" fill="#003d58"/>
  <rect width="37.7" height="103.3" x="762.1" y="929.6" fill="#003d58"/>
  <rect width="31.3" height="38.1" x="799.8" y="994.8" fill="#003d58"/>
  <rect width="356.2" height="38.1" x="931.5" y="994.8" fill="#003d58"/>
  <rect width="38.1" height="103.3" x="1287.7" y="929.6" fill="#003d58"/>
  <rect width="38.1" height="829" x="1287.7" y=".6" fill="#003d58"/>
  <rect width="129.2" height="44.9" x="1325.9" y="118.1" fill="#003d58"/>
  <rect width="357" height="44.9" x="1655" y="118.1" fill="#003d58"/>
  <rect width="44.9" height="120.7" x="1967.1" y="448" fill="#003d58"/>
  <rect width="44.9" height="189.3" x="1967.1" y="688.6" fill="#003d58"/>
  <rect width="331.2" height="11.9" x="1635.9" y="747.9" fill="#003d58"/>
  <rect width="11.9" height="75.4" x="1635.9" y="759.7" fill="#003d58"/>
  <rect width="44.9" height="178.9" x="1967.1" y="1014" fill="#003d58"/>
  <rect width="5.1" height="40.2" x="1962" y="1077.8" fill="#003d58"/>
  <rect width="345.2" height="12.3" x="1621.9" y="1171.9" fill="#003d58"/>
  <rect width="32.8" height="500.2" x="1293" y="1032.9" fill="#003d58"/>
  <rect width="443.9" height="33.9" x="1325.9" y="1499.3" fill="#003d58"/>
  <rect width="31.8" height="194.8" x="1738" y="1533.1" fill="#003d58"/>
  <rect width="197.4" height="33.9" x="1769.7" y="1694.1" fill="#003d58"/>
  <rect width="44.9" height="335.2" x="1967.1" y="1392.8" fill="#003d58"/>
  <rect width="363.8" height="44.9" x="76.8" y="2013" fill="#003d58"/>
  <rect width="110.2" height="44.9" x="942.5" y="2013" fill="#003d58"/>
  <rect width="145.2" height="44.9" x="640.2" y="2013" fill="#003d58"/>
  <rect width="11.9" height="340.1" x="1009.1" y="1672.9" fill="#003d58"/>
  <rect width="154.2" height="11.9" x="1020.9" y="1672.9" fill="#003d58"/>
  <rect width="233.6" height="44.9" x="1252.6" y="2013" fill="#003d58"/>
  <rect width="40.2" height="5.1" x="1286.9" y="2007.9" fill="#003d58"/>
  <rect width="12.3" height="340.1" x="1414.8" y="1672.9" fill="#003d58"/>
  <rect width="149.9" height="11.9" x="1264.9" y="1672.9" fill="#003d58"/>
  <rect width="11.9" height="25" x="1286.9" y="1647.9" fill="#003d58"/>
  <rect width="28.2" height="12.3" x="1264.9" y="1520.9" fill="#003d58"/>
  <rect width="11.9" height="24.6" x="1286.9" y="1533.1" fill="#003d58"/>
  <rect width="143.2" height="12.3" x="1031.9" y="1520.9" fill="#003d58"/>
  <rect width="11.9" height="307.1" x="1092.1" y="1213.8" fill="#003d58"/>
  <rect width="11.9" height="75" x="1092.1" y="1032.9" fill="#003d58"/>
  <rect width="261.1" height="12.3" x="1031.9" y="1201.5" fill="#003d58"/>
  <rect width="69.9" height="12.3" x="1325.9" y="1171.9" fill="#003d58"/>
  <rect width="36" height="12.3" x="1486" y="1171.9" fill="#003d58"/>
  <rect width="11.9" height="314.7" x="1496.1" y="1184.1" fill="#003d58"/>
  <rect width="11.4" height="236.8" x="1636.3" y="935.1" fill="#003d58"/>
  <rect width="37.3" height="11.9" x="1325.9" y="747.9" fill="#003d58"/>
  <rect width="22" height="11.9" x="1452.9" y="747.9" fill="#003d58"/>
  <rect width="11.9" height="194.8" x="1463.1" y="553.1" fill="#003d58"/>
  <rect width="19.1" height="12.3" x="1455.9" y="540.8" fill="#003d58"/>
  <rect width="130" height="40.2" x="1325.9" y="540.8" fill="#003d58"/>
  <rect width="414.6" height="44.9" x="1597.4" y="2013" fill="#003d58"/>
  <g fill="#fff" stroke="#000" stroke-width=".3" stroke-miterlimit="10">
    <rect width="31.8" height="199.9" x="90" y="1255.3"/>
    <rect width="8.1" height="199.9" x="76.8" y="1255.3"/>
    <rect width="5.1" height="199.9" x="84.9" y="1255.3"/>
    <rect width="2.5" height="199.9" x="96.2" y="1255.3"/>
  </g>
  <g fill="#fff" stroke="#000" stroke-width=".3" stroke-miterlimit="10">
    <rect width="199.9" height="31.8" x="440.6" y="2013"/>
    <rect width="199.9" height="8.1" x="440.6" y="2049.9"/>
    <rect width="199.9" height="5.1" x="440.6" y="2044.8"/>
    <rect width="199.9" height="2.5" x="440.6" y="2036"/>
  </g>
  <g fill="#fff" stroke="#000" stroke-width=".3" stroke-miterlimit="10">
    <rect width="199.9" height="31.8" x="1052.7" y="2013"/>
    <rect width="199.9" height="8.1" x="1052.7" y="2049.9"/>
    <rect width="199.9" height="5.1" x="1052.7" y="2044.8"/>
    <rect width="199.9" height="2.5" x="1052.7" y="2036"/>
  </g>
  <g fill="#fff" stroke="#000" stroke-width=".3" stroke-miterlimit="10">
    <rect width="111.2" height="31.8" x="1486.1" y="2013"/>
    <rect width="111.2" height="8.1" x="1486.1" y="2049.9"/>
    <rect width="111.2" height="5.1" x="1486.1" y="2044.8"/>
    <rect width="111.2" height="2.5" x="1486.1" y="2036"/>
  </g>
  <g fill="#fff" stroke="#000" stroke-width=".3" stroke-miterlimit="10">
    <rect width="157" height="31.8" x="785.4" y="2013"/>
    <rect width="157" height="8.1" x="785.4" y="2049.9"/>
    <rect width="157" height="5.1" x="785.4" y="2044.8"/>
    <rect width="157" height="2.5" x="785.4" y="2036"/>
  </g>
  <g fill="#fff" stroke="#000" stroke-width=".3" stroke-miterlimit="10">
    <rect width="31.8" height="200.3" x="90" y="843.2"/>
    <rect width="8.1" height="200.3" x="76.8" y="843.2"/>
    <rect width="5.1" height="200.3" x="84.9" y="843.2"/>
    <rect width="2.5" height="200.3" x="96.2" y="843.2"/>
  </g>
  <g fill="#fff" stroke="#000" stroke-width=".3" stroke-miterlimit="10">
    <rect width="31.8" height="119.9" x="90" y="581"/>
    <rect width="8.1" height="119.9" x="76.8" y="581"/>
    <rect width="5.1" height="119.9" x="84.9" y="581"/>
    <rect width="2.5" height="119.9" x="96.2" y="581"/>
  </g>
  <g fill="#fff" stroke="#000" stroke-width=".3" stroke-miterlimit="10">
    <rect width="120.3" height="31.8" x="472.8" y="131.2"/>
    <rect width="120.3" height="8.1" x="472.8" y="118.1"/>
    <rect width="120.3" height="5.1" x="472.8" y="126.1"/>
    <rect width="120.3" height="2.5" x="472.8" y="137.4"/>
  </g>
  <g fill="#fff" stroke="#000" stroke-width=".3" stroke-miterlimit="10">
    <rect width="31.8" height="136.1" x="1967.1" y="877.9"/>
    <rect width="8.1" height="136.1" x="2004" y="877.9"/>
    <rect width="5.1" height="136.1" x="1998.9" y="877.9"/>
    <rect width="2.5" height="136.1" x="1990.1" y="877.9"/>
  </g>
  <g fill="#fff" stroke="#000" stroke-width=".3" stroke-miterlimit="10">
    <rect width="31.8" height="119.9" x="1967.1" y="568.7"/>
    <rect width="8.1" height="119.9" x="2004" y="568.7"/>
    <rect width="5.1" height="119.9" x="1998.9" y="568.7"/>
    <rect width="2.5" height="119.9" x="1990.1" y="568.7"/>
  </g>
  <g fill="#fff" stroke="#000" stroke-width=".3" stroke-miterlimit="10">
    <rect width="31.8" height="199.9" x="1967.1" y="1192.9"/>
    <rect width="8.1" height="199.9" x="2004" y="1192.9"/>
    <rect width="5.1" height="199.9" x="1998.9" y="1192.9"/>
    <rect width="2.5" height="199.9" x="1990.1" y="1192.9"/>
  </g>
  <g fill="#fff" stroke="#000" stroke-width=".3" stroke-miterlimit="10">
    <rect width="199.9" height="31.8" x="1455" y="131.2"/>
    <rect width="199.9" height="8.1" x="1455" y="118.1"/>
    <rect width="199.9" height="5.1" x="1455" y="126.1"/>
    <rect width="199.9" height="2.5" x="1455" y="137.4"/>
  </g>
  <rect width="215.4" height="30.1" x="937.1" y="964.7" fill="#003d58"/>
  <rect width="44.9" height="120.8" x="1967.1" y="1728" fill="#003d58"/>
  <rect width="44.9" height="64.3" x="1967.1" y="1948.7" fill="#003d58"/>
  <rect width="44.9" height="120.8" x="76.8" y="1728" fill="#003d58"/>
  <rect width="44.9" height="64.3" x="76.8" y="1948.7" fill="#003d58"/>
  <rect width="44.9" height="61.5" x="1967.1" y="163" fill="#003d58"/>
  <rect width="44.9" height="123.6" x="1967.1" y="324.4" fill="#003d58"/>
  <rect width="44.9" height="61.5" x="76.8" y="163" fill="#003d58"/>
  <rect width="44.9" height="123.6" x="76.8" y="324.4" fill="#003d58"/>
  <g fill="#fff" stroke="#000" stroke-width=".3" stroke-miterlimit="10">
    <rect width="153.9" height="16.1" x="913.4" y="127.4"/>
    <rect width="153.9" height="4.8" x="913.4" y="134.7"/>
  </g>
  <g fill="none" stroke="#000" stroke-width=".3" stroke-miterlimit="10">
    <rect width="119.8" height="30.3" x="800.5" y="254.6"/>
    <rect width="119.8" height="30.3" x="800.5" y="284.9"/>
    <rect width="119.8" height="30.3" x="800.5" y="315.1"/>
    <rect width="119.8" height="30.3" x="800.5" y="345.4"/>
    <rect width="119.8" height="30.3" x="800.5" y="375.7"/>
    <rect width="119.8" height="30.3" x="800.5" y="406"/>
    <rect width="119.8" height="30.3" x="800.5" y="436.3"/>
    <rect width="119.8" height="30.3" x="800.5" y="466.6"/>
    <rect width="119.8" height="30.3" x="800.5" y="496.9"/>
    <rect width="119.8" height="30.3" x="800.5" y="527.2"/>
    <rect width="119.8" height="30.3" x="800.5" y="557.5"/>
  </g>
  <g fill="none" stroke="#000" stroke-width=".3" stroke-miterlimit="10">
    <rect width="119.8" height="30.3" x="1166.1" y="254.4"/>
    <rect width="119.8" height="30.3" x="1166.1" y="284.6"/>
    <rect width="119.8" height="30.3" x="1166.1" y="314.9"/>
    <rect width="119.8" height="30.3" x="1166.1" y="345.2"/>
    <rect width="119.8" height="30.3" x="1166.1" y="375.5"/>
    <rect width="119.8" height="30.3" x="1166.1" y="405.8"/>
    <rect width="119.8" height="30.3" x="1166.1" y="436.1"/>
    <rect width="119.8" height="30.3" x="1166.1" y="466.4"/>
    <rect width="119.8" height="30.3" x="1166.1" y="496.7"/>
    <rect width="119.8" height="30.3" x="1166.1" y="527"/>
    <rect width="119.8" height="30.3" x="1166.1" y="557.3"/>
  </g>
  <rect width="179.4" height="269.1" x="955.2" y="279.5" fill="none" stroke="#000" stroke-width=".3" stroke-miterlimit="10"/>
  <rect width="165.4" height="255" x="962.2" y="286.5" fill="none" stroke="#000" stroke-width=".3" stroke-miterlimit="10"/>
  <rect width="69.3" height="15.2" x="799.8" fill="#003d58"/>
  <rect width="68.1" height="15.2" x="1219.6" fill="#003d58"/>
  <rect width="113.6" height="43.9" x="799.8" y="119.3" fill="#003d58"/>
  <rect width="120.6" height="43.9" x="1167.2" y="119.3" fill="#003d58"/>
  <rect width="76.8" height="24.6" x="930.3" y="548.6" fill="#003d58"/>
  <rect width="24.9" height="294" x="930.3" y="254.6" fill="#003d58"/>
  <rect width="204.3" height="24.9" x="955.2" y="254.6" fill="#003d58"/>
  <rect width="24.9" height="293.7" x="1134.6" y="279.5" fill="#003d58"/>
  <rect width="30.8" height="24.6" x="1103.8" y="548.6" fill="#003d58"/>
  <rect width="148.9" height="11.4" x="800.5" y="766.3" fill="#003d58"/>
  <rect width="147.6" height="11.4" x="1140.8" y="766.3" fill="#003d58"/>
  <rect width="350.4" height="6.8" x="869.2" y="8.4" fill="#9e9d9c"/>
  <g fill="#fff" stroke="#000" stroke-width=".3" stroke-miterlimit="10">
    <rect width="12.6" height="391.9" x="2075.7" y="1727.9"/>
    <rect width="3.8" height="391.9" x="2081.4" y="1727.9"/>
  </g>
  <g fill="#fff" stroke="#000" stroke-width=".3" stroke-miterlimit="10">
    <rect width="306.7" height="12.6" x="1781.6" y="2119.8"/>
    <rect width="306.7" height="3.8" x="1781.6" y="2125.5"/>
  </g>
  <g fill="#fff" stroke="#000" stroke-width=".3" stroke-miterlimit="10">
    <rect width="12.6" height="74.6" x="1769.1" y="2057.8"/>
    <rect width="3.8" height="74.6" x="1772.2" y="2057.8"/>
  </g>
  <g fill="#fff" stroke="#000" stroke-width=".3" stroke-miterlimit="10">
    <rect width="75.8" height="12.6" x="2012.4" y="1715.3"/>
    <rect width="75.8" height="3.8" x="2012.4" y="1718.5"/>
  </g>
  <g fill="#fff" stroke="#000" stroke-width=".3" stroke-miterlimit="10">
    <rect width="12.6" height="391.9" x=".1" y="56.1"/>
    <rect width="3.8" height="391.9" x="3.2" y="56.1"/>
  </g>
  <g fill="#fff" stroke="#000" stroke-width=".3" stroke-miterlimit="10">
    <rect width="306.7" height="12.6" x=".1" y="43.5"/>
    <rect width="306.7" height="3.8" x=".1" y="46.6"/>
  </g>
  <g fill="#fff" stroke="#000" stroke-width=".3" stroke-miterlimit="10">
    <rect width="12.6" height="74.6" x="306.8" y="43.5"/>
    <rect width="3.8" height="74.6" x="312.5" y="43.5"/>
  </g>
  <g fill="#fff" stroke="#000" stroke-width=".3" stroke-miterlimit="10">
    <rect width="76.7" height="12.6" x=".1" y="448"/>
    <rect width="76.7" height="3.8" x=".1" y="453.6"/>
  </g>
  <g fill="#fff" stroke="#000" stroke-width=".3" stroke-miterlimit="10">
    <rect width="12.6" height="391.9" x="2076.2" y="56.1"/>
    <rect width="3.8" height="391.9" x="2081.9" y="56.1"/>
  </g>
  <g fill="#fff" stroke="#000" stroke-width=".3" stroke-miterlimit="10">
    <rect width="306.7" height="12.6" x="1782.1" y="43.5"/>
    <rect width="306.7" height="3.8" x="1782.1" y="46.6"/>
  </g>
  <g fill="#fff" stroke="#000" stroke-width=".3" stroke-miterlimit="10">
    <rect width="12.6" height="74.6" x="1769.5" y="43.5"/>
    <rect width="3.8" height="74.6" x="1772.7" y="43.5"/>
  </g>
  <g fill="#fff" stroke="#000" stroke-width=".3" stroke-miterlimit="10">
    <rect width="76.7" height="12.6" x="2012" y="448"/>
    <rect width="76.7" height="3.8" x="2012" y="453.6"/>
  </g>
  <g fill="#fff" stroke="#000" stroke-width=".3" stroke-miterlimit="10">
    <rect width="300" height="12.5" x="18.9" y="2115.2"/>
    <rect width="288.1" height="3.2" x="18.9" y="2120.4"/>
  </g>
  <g fill="#fff" stroke="#000" stroke-width=".3" stroke-miterlimit="10">
    <rect width="12.5" height="412.4" x="6.4" y="1715.3"/>
    <rect width="3.2" height="412.4" x="10.5" y="1715.3"/>
  </g>
  <g fill="#fff" stroke="#000" stroke-width=".3" stroke-miterlimit="10">
    <rect width="12.5" height="57.5" x="306.4" y="2057.7"/>
    <rect width="3.2" height="65.9" x="311.7" y="2057.7"/>
  </g>
  <g fill="#fff" stroke="#000" stroke-width=".3" stroke-miterlimit="10">
    <rect width="57.5" height="12.5" x="18.9" y="1715.3"/>
    <rect width="57.5" height="3.2" x="18.9" y="1720.5"/>
  </g>
</svg>
